<svg width="153" height="48" viewBox="0 0 153 48" fill="none" xmlns="http://www.w3.org/2000/svg">
<rect width="153" height="48" fill="#787878"/>
<path d="M-870 -780C-870 -781.105 -869.105 -782 -868 -782H6136C6137.1 -782 6138 -781.105 6138 -780V989C6138 990.105 6137.1 991 6136 991H-868C-869.105 991 -870 990.105 -870 989V-780Z" fill="#3A3A3A"/>
<path d="M-868 -782V-781H6136V-782V-783H-868V-782ZM6138 -780H6137V989H6138H6139V-780H6138ZM6136 991V990H-868V991V992H6136V991ZM-870 989H-869V-780H-870H-871V989H-870ZM-868 991V990C-868.552 990 -869 989.552 -869 989H-870H-871C-871 990.657 -869.657 992 -868 992V991ZM6138 989H6137C6137 989.552 6136.55 990 6136 990V991V992C6137.66 992 6139 990.657 6139 989H6138ZM6136 -782V-781C6136.55 -781 6137 -780.552 6137 -780H6138H6139C6139 -781.657 6137.66 -783 6136 -783V-782ZM-868 -782V-783C-869.657 -783 -871 -781.657 -871 -780H-870H-869C-869 -780.552 -868.552 -781 -868 -781V-782Z" fill="white" fill-opacity="0.1"/>
<rect width="1440" height="1024" transform="translate(-643 -407)" fill="#F8F8F8"/>
<g clip-path="url(#clip0_77_92)">
<path d="M65.9203 33.3817L65.8066 33.2972C65.5292 33.0497 65.3073 32.7471 65.1556 32.409C65.0038 32.071 64.9255 31.7051 64.9258 31.3351C64.9262 31.1571 64.9437 30.9795 64.9779 30.8047C64.9478 30.9752 64.932 31.1479 64.9305 31.321C64.9303 31.691 65.0086 32.0569 65.1603 32.3949C65.3121 32.733 65.5339 33.0356 65.8114 33.2831C65.8493 33.316 65.8824 33.3535 65.9203 33.3817Z" fill="#4A4E69"/>
<path d="M92.4092 22.6749V34.0162C92.4092 34.6659 92.1488 35.2889 91.6854 35.7483C91.2219 36.2077 90.5933 36.4657 89.9379 36.4657C89.5721 36.4658 89.2099 36.3943 88.8719 36.2556C88.534 36.1169 88.2269 35.9135 87.9683 35.6572C87.7096 35.4008 87.5045 35.0964 87.3645 34.7615C87.2245 34.4265 87.1525 34.0675 87.1525 33.705V22.6749C87.1486 22.3327 87.2169 21.9935 87.3531 21.6791C87.4893 21.3646 87.6904 21.0818 87.9434 20.849C88.2625 20.5262 88.6632 20.2944 89.1036 20.1777H90.4723C91.023 20.3325 91.5088 20.6589 91.8576 21.1087C92.2065 21.5584 92.3999 22.1076 92.4092 22.6749Z" fill="#4A4E69"/>
<path d="M90.4702 20.178H89.1016C89.3262 20.1136 89.5591 20.082 89.793 20.0841C90.022 20.0843 90.2499 20.1159 90.4702 20.178Z" fill="#4A4E69"/>
<path d="M92.4092 14.1584C92.4092 14.8493 92.1323 15.5119 91.6394 16.0005C91.1465 16.489 90.478 16.7635 89.7809 16.7635C89.0838 16.7635 88.4153 16.489 87.9223 16.0005C87.4294 15.5119 87.1525 14.8493 87.1525 14.1584C87.1484 13.8159 87.2165 13.4763 87.3525 13.1614C87.4884 12.8465 87.6892 12.5632 87.9421 12.3297C88.1838 12.0862 88.4723 11.8933 88.7906 11.7623C89.109 11.6314 89.4506 11.5651 89.7952 11.5674C90.4855 11.5769 91.1448 11.853 91.633 12.3368C92.1212 12.8207 92.3997 13.4742 92.4092 14.1584Z" fill="#4A4E69"/>
<path d="M83.2856 28.7105C83.3115 30.2044 82.8643 31.6687 82.0069 32.8975C81.1489 34.0099 80.0284 34.8964 78.744 35.4792C77.4111 36.1222 75.9396 36.4316 74.4581 36.3805C73.6239 36.3709 72.7927 36.2797 71.9765 36.1082C69.9267 35.6812 67.9875 34.8408 66.2794 33.6392C66.1989 33.5876 66.1184 33.5312 66.0426 33.4749L66.0379 33.4702C66 33.442 65.9574 33.4139 65.9195 33.381C65.8816 33.3529 65.8484 33.3153 65.8105 33.2824C65.5331 33.0349 65.3113 32.7323 65.1595 32.3943C65.0078 32.0563 64.9294 31.6904 64.9297 31.3204C64.9311 31.1473 64.947 30.9746 64.977 30.804C65.0323 30.5327 65.1332 30.2725 65.2754 30.0342L65.9621 29.2597C66.4357 28.8747 67.0308 28.667 67.6433 28.673C68.1757 28.6757 68.6951 28.8359 69.1351 29.133C69.1587 29.1518 69.1872 29.1705 69.2108 29.1893C69.2582 29.2269 69.3103 29.2597 69.3577 29.2926C70.4377 30.0826 71.6713 30.642 72.9805 30.9355L73.061 30.9449C73.5205 31.0416 73.9884 31.0934 74.4581 31.0998C75.1528 31.1085 75.8412 30.9675 76.4755 30.6867C76.8942 30.5465 77.2587 30.2813 77.5191 29.9274C77.7794 29.5736 77.9228 29.1484 77.9294 28.7105C77.9212 28.4257 77.8325 28.1489 77.6735 27.9116C77.5144 27.6743 77.2913 27.486 77.0296 27.3681C76.118 26.8857 75.1297 26.5618 74.1076 26.4105C73.653 26.3354 70.2338 25.6313 68.6283 24.7535C67.5833 24.1348 66.7032 23.2769 66.0615 22.2517C65.4597 21.2195 65.1505 20.0453 65.1665 18.8532C65.1845 17.4597 65.6143 16.1019 66.4025 14.9479C67.2249 13.8906 68.2921 13.0453 69.5139 12.4835C70.8114 11.8796 72.2291 11.5716 73.6625 11.5823C74.2675 11.5953 74.8714 11.6408 75.4716 11.7184C77.2241 12.0359 78.8972 12.6896 80.3968 13.6429C80.4962 13.704 80.5957 13.7697 80.6904 13.8307C80.6951 13.8354 80.7046 13.8401 80.7093 13.8495C81.0491 14.0954 81.3262 14.4165 81.5186 14.7873C81.711 15.1581 81.8133 15.5683 81.8175 15.9852C81.8156 16.4544 81.69 16.915 81.4531 17.3212C81.2162 17.7274 80.8763 18.0652 80.467 18.301C80.0577 18.5368 79.5934 18.6625 79.12 18.6655C78.6466 18.6685 78.1807 18.5487 77.7684 18.3181C77.6453 18.2336 77.5269 18.1538 77.4085 18.0834L77.4038 18.0787C76.2887 17.3236 74.9791 16.9002 73.6293 16.8583C72.9887 16.8567 72.3547 16.9878 71.7682 17.2432C71.435 17.3683 71.1428 17.5814 70.9233 17.8595C70.7037 18.1375 70.5652 18.4698 70.5227 18.8204C70.5077 19.0681 70.5649 19.3149 70.6875 19.5313C70.8101 19.7477 70.9929 19.9245 71.2141 20.0408C71.7776 20.4257 72.6869 20.7402 74.1597 21.0547C74.3492 21.0876 74.6239 21.1533 74.9033 21.2237C76.4708 21.5194 78.2704 21.9278 79.5728 22.6882C80.6991 23.27 81.6476 24.1404 82.3195 25.2088C82.9634 26.2645 83.2979 27.477 83.2856 28.7105Z" fill="#4A4E69"/>
<path d="M69.3597 29.293C69.3124 29.2601 69.2603 29.2273 69.2129 29.1897C69.1892 29.1709 69.1608 29.1522 69.1371 29.1334C68.6972 28.8363 68.1777 28.6761 67.6454 28.6734C67.0329 28.6674 66.4378 28.8751 65.9642 29.2601L65.2775 30.0346C65.2772 30.0321 65.2774 30.0295 65.2782 30.0271C65.2791 30.0246 65.2804 30.0224 65.2822 30.0205C65.4068 29.8061 65.5633 29.6115 65.7463 29.4432C65.817 29.3737 65.8913 29.3079 65.9689 29.246C66.4425 28.861 67.0376 28.6534 67.6501 28.6593C68.1825 28.662 68.7019 28.8222 69.1419 29.1193C69.1655 29.1381 69.194 29.1569 69.2176 29.1756C69.2673 29.2119 69.3147 29.2511 69.3597 29.293Z" fill="#4A4E69"/>
<path d="M77.7701 18.3187L77.7417 18.3046C77.6255 18.2398 77.5146 18.1661 77.4102 18.084C77.5286 18.1544 77.6469 18.2342 77.7701 18.3187Z" fill="#4A4E69"/>
<path d="M80.6921 13.8313C80.5973 13.7703 80.4979 13.7046 80.3984 13.6436C80.4742 13.6858 80.5453 13.728 80.6163 13.775C80.64 13.7938 80.6684 13.8126 80.6921 13.8313Z" fill="#4A4E69"/>
<path d="M152.013 14.1595C152.013 14.8504 151.736 15.513 151.243 16.0016C150.75 16.4902 150.081 16.7646 149.384 16.7646C148.687 16.7646 148.019 16.4902 147.526 16.0016C147.033 15.513 146.756 14.8504 146.756 14.1595C146.752 13.8166 146.82 13.4767 146.957 13.1614C147.093 12.8462 147.294 12.5626 147.547 12.3288C147.789 12.0859 148.077 11.8935 148.395 11.7629C148.713 11.6323 149.054 11.5661 149.399 11.5684C150.089 11.5778 150.748 11.8537 151.237 12.3377C151.725 12.8216 152.003 13.4752 152.013 14.1595Z" fill="#4A4E69"/>
<path d="M122.805 27.6449V36.4648H117.714V27.6449C117.725 27.2789 117.662 26.9145 117.529 26.5732C117.395 26.2319 117.194 25.9207 116.936 25.658C116.679 25.3953 116.371 25.1864 116.031 25.0438C115.691 24.9012 115.325 24.8277 114.956 24.8277C114.586 24.8277 114.221 24.9012 113.881 25.0438C113.54 25.1864 113.233 25.3953 112.975 25.658C112.718 25.9207 112.517 26.2319 112.383 26.5732C112.249 26.9145 112.186 27.2789 112.197 27.6449L112.187 36.4648H107.077L107.106 27.6449C107.11 26.9139 106.825 26.2105 106.313 25.6845C105.801 25.1585 105.102 24.8514 104.364 24.8285C103.63 24.8601 102.936 25.1699 102.426 25.694C101.916 26.2182 101.628 26.9165 101.622 27.6449L101.623 36.4648H96.5312V20.1768H101.622V20.7307C102.425 20.173 103.384 19.8761 104.364 19.8811C105.409 19.8832 106.442 20.0973 107.4 20.51C108.225 20.8943 108.987 21.3973 109.664 22.0027C110.331 21.3879 111.096 20.8853 111.927 20.5147C112.888 20.0992 113.924 19.8835 114.972 19.8811C116.003 19.8738 117.025 20.0696 117.979 20.4572C118.932 20.8448 119.799 21.4164 120.528 22.1388C121.256 22.8612 121.833 23.72 122.224 24.6652C122.615 25.6104 122.813 26.6233 122.805 27.6449Z" fill="#4A4E69"/>
<path d="M140.804 22.2893C140.024 21.5186 139.097 20.9089 138.078 20.4955C137.059 20.0822 135.967 19.8734 134.865 19.8814C133.63 19.8728 132.425 20.2579 131.427 20.9797V11.5684H126.469V36.4651H131.427V35.5404C132.446 36.1999 133.65 36.5236 134.865 36.4651C136.524 36.4693 138.147 35.9852 139.528 35.074C140.909 34.1629 141.985 32.8659 142.622 31.3474C143.258 29.8289 143.425 28.1573 143.101 26.5447C142.777 24.9321 141.978 23.451 140.804 22.2893ZM134.865 31.682C134.161 31.7023 133.466 31.5139 132.871 31.1408C132.275 30.7678 131.805 30.227 131.521 29.5877C131.237 28.9484 131.152 28.2397 131.276 27.5522C131.401 26.8647 131.73 26.2297 132.221 25.7285C132.712 25.2273 133.342 24.8826 134.032 24.7385C134.721 24.5945 135.439 24.6576 136.092 24.9199C136.745 25.1822 137.304 25.6316 137.698 26.2107C138.092 26.7899 138.303 27.4724 138.303 28.1709C138.305 29.0848 137.946 29.9631 137.304 30.6189C136.662 31.2747 135.787 31.6561 134.865 31.682Z" fill="#4A4E69"/>
<path d="M152.013 22.8861V33.8888C152.013 34.5721 151.739 35.2274 151.251 35.7105C150.764 36.1937 150.103 36.4651 149.413 36.4651C148.709 36.4651 148.033 36.1876 147.534 35.6937C147.036 35.1997 146.756 34.5298 146.756 33.8313V22.7683C146.753 22.4255 146.821 22.0858 146.957 21.7706C147.094 21.4555 147.294 21.1719 147.547 20.9377C148.013 20.4689 148.644 20.1969 149.308 20.1787C149.666 20.1788 150.019 20.2491 150.349 20.3855C150.679 20.522 150.978 20.7218 151.23 20.9736C151.481 21.2253 151.68 21.5239 151.814 21.8522C151.949 22.1805 152.016 22.5319 152.013 22.8861Z" fill="#4A4E69"/>
<path d="M14.9161 17.5781C14.9161 17.6824 14.9122 17.7847 14.9021 17.883V17.9755C14.8885 17.843 14.8932 17.7093 14.9161 17.5781Z" fill="#3A86FF"/>
<path d="M15.2824 20.4574C15.0535 20.1406 14.922 19.765 14.9036 19.3758C14.8857 18.9393 14.8996 18.5046 14.9016 17.9756C14.9115 18.1211 14.9273 18.2706 14.9252 18.4141C14.9233 18.774 14.9035 19.1378 14.9352 19.4937C14.9656 19.8391 15.0852 20.171 15.2824 20.4574Z" fill="#3A86FF"/>
<path d="M17.4432 21.6511C17.3586 21.6448 17.2745 21.6336 17.1912 21.6176C17.1516 21.6097 17.1118 21.6019 17.0742 21.592C17.0333 21.5843 16.9929 21.5744 16.9531 21.5625C17.0226 21.5783 17.09 21.594 17.1615 21.6058C17.1829 21.6116 17.2049 21.6156 17.227 21.6176C17.2984 21.6312 17.3698 21.6432 17.4432 21.6511Z" fill="#3A86FF"/>
<path d="M18.7035 14.4771C18.6142 14.4515 18.5229 14.4318 18.4297 14.4141C18.4357 14.4138 18.4417 14.4145 18.4475 14.4162C18.534 14.4315 18.6194 14.4519 18.7035 14.4771Z" fill="#3A86FF"/>
<path d="M19.9942 15.1989C19.7712 14.9886 19.5169 14.8135 19.2402 14.6797C19.519 14.8099 19.7739 14.9854 19.9942 15.1989Z" fill="#3A86FF"/>
<path d="M20.6885 18.0235C20.6786 17.8858 20.6648 17.7461 20.6648 17.6104C20.6668 17.2485 20.6866 16.8867 20.6549 16.5287C20.6196 16.1481 20.4773 15.7849 20.2441 15.4805C20.262 15.5022 20.2798 15.5238 20.2957 15.5474C20.3671 15.6428 20.4289 15.7449 20.4804 15.8522C20.5321 15.9582 20.5752 16.0681 20.6094 16.1808C20.6317 16.2563 20.6489 16.3331 20.661 16.4108C20.6746 16.4895 20.6832 16.569 20.6867 16.6487C20.7024 17.0775 20.6905 17.5061 20.6885 18.0235Z" fill="#3A86FF"/>
<path d="M20.6758 18.4482C20.6758 18.3421 20.6798 18.2398 20.6898 18.1394V18.0234C20.7044 18.165 20.6997 18.3079 20.6758 18.4482Z" fill="#3A86FF"/>
<path d="M40.1456 16.5739C40.142 16.5179 40.1354 16.462 40.1257 16.4067C40.126 16.402 40.1254 16.3973 40.1237 16.3929C40.1178 16.3537 40.1079 16.3124 40.098 16.273C40.0864 16.219 40.0712 16.1657 40.0523 16.1137C40.0464 16.094 40.0404 16.0762 40.0325 16.0567C40.0219 16.0244 40.0093 15.9929 39.9946 15.9623C39.9827 15.9347 39.9709 15.9072 39.9567 15.8797C39.9349 15.8364 39.913 15.7932 39.8892 15.7499C39.8734 15.7224 39.8575 15.6949 39.8396 15.6692C39.8276 15.6471 39.8137 15.626 39.798 15.6063C39.7801 15.5787 39.7623 15.5532 39.7424 15.5277C39.729 15.5078 39.7144 15.4888 39.6988 15.4706C39.6872 15.4553 39.6746 15.4409 39.6609 15.4274C39.9501 15.7735 40.1204 16.202 40.147 16.6506C40.1649 17.0715 40.151 17.4924 40.151 17.9152C40.1557 17.4688 40.1773 17.0203 40.1456 16.5739ZM40.1555 18.2534C40.1555 18.3379 40.1555 18.4245 40.1575 18.5111C40.1612 18.4738 40.1619 18.4363 40.1595 18.399C40.1575 18.3498 40.1555 18.3026 40.1555 18.2534ZM40.1535 18.0213H40.1515C40.1515 18.098 40.1535 18.1748 40.1555 18.2534C40.1535 18.1748 40.1535 18.098 40.1535 18.0213ZM39.0662 14.8905C39.0563 14.8826 39.0464 14.8768 39.0344 14.8689C38.9908 14.8394 38.9471 14.8118 38.9015 14.7863C38.8778 14.7705 38.8519 14.7568 38.8261 14.743C38.7785 14.7155 38.7289 14.69 38.6773 14.6663C38.6646 14.6592 38.6514 14.6533 38.6376 14.6486C38.5741 14.6172 38.5087 14.5896 38.4412 14.5641C38.4015 14.5484 38.3598 14.5346 38.318 14.5208C38.2525 14.4973 38.1831 14.4776 38.1136 14.4598C38.0779 14.45 38.0442 14.4421 38.0085 14.4343C37.9212 14.4145 37.8319 14.3967 37.7426 14.3851C37.6752 14.3753 37.6077 14.3693 37.5382 14.3635C38.0968 14.4127 38.6336 14.6022 39.0978 14.9141C39.0879 14.9055 39.0772 14.8976 39.0662 14.8905ZM37.2429 14.3516C37.2263 14.352 37.2097 14.3533 37.1933 14.3556C37.229 14.3536 37.2628 14.3536 37.2965 14.3536C37.2786 14.352 37.2609 14.3513 37.2429 14.3516ZM35.3242 21.0462C35.8359 21.4349 36.456 21.658 37.1001 21.6853C36.4576 21.6499 35.84 21.4277 35.3242 21.0462ZM34.3897 19.4059C34.3897 19.4256 34.3897 19.4472 34.3916 19.4669C34.3936 19.5004 34.3976 19.5318 34.4016 19.5653C34.4117 19.6537 34.4289 19.7411 34.4532 19.8268C34.4591 19.8525 34.467 19.876 34.4749 19.9016C34.4809 19.9193 34.4849 19.9351 34.4909 19.9508C34.5008 19.9803 34.5127 20.0078 34.5246 20.0372C34.5357 20.0683 34.549 20.0985 34.5643 20.1278C34.5741 20.153 34.5861 20.1773 34.6 20.2005C34.6239 20.2513 34.6511 20.3006 34.6813 20.348C34.7092 20.3955 34.7397 20.4415 34.7726 20.4857C34.8064 20.5348 34.8441 20.5821 34.8815 20.6272L34.8874 20.6332C34.9002 20.6499 34.9141 20.6657 34.9291 20.6804L34.945 20.6961C34.6183 20.3404 34.4227 19.8858 34.3897 19.4059ZM34.3837 18.0195C34.3837 17.8582 34.3817 17.695 34.3797 17.5337C34.3753 17.5695 34.374 17.6057 34.3758 17.6417C34.3797 17.7223 34.3817 17.801 34.3797 17.8777C34.3817 17.9799 34.3837 18.0861 34.3837 18.1883C34.3857 18.1314 34.3857 18.0763 34.3857 18.0194L34.3837 18.0195ZM34.3797 18.875C34.3797 18.6528 34.3837 18.4325 34.3837 18.2103C34.3797 18.5918 34.3658 18.9772 34.3877 19.3587C34.3815 19.1974 34.3797 19.0363 34.3797 18.875ZM40.1456 16.5739C40.142 16.5179 40.1354 16.462 40.1257 16.4067C40.126 16.402 40.1254 16.3973 40.1237 16.3929C40.1178 16.3537 40.1079 16.3124 40.098 16.273C40.0864 16.219 40.0712 16.1657 40.0523 16.1137C40.0464 16.094 40.0404 16.0762 40.0325 16.0567C40.0219 16.0244 40.0093 15.9929 39.9946 15.9623C39.9827 15.9347 39.9709 15.9072 39.9567 15.8797C39.9349 15.8364 39.913 15.7932 39.8892 15.7499C39.8734 15.7224 39.8575 15.6949 39.8396 15.6692C39.8276 15.6471 39.8137 15.626 39.798 15.6063C39.7801 15.5787 39.7623 15.5532 39.7424 15.5277C39.729 15.5078 39.7144 15.4888 39.6988 15.4706C39.6872 15.4553 39.6746 15.4409 39.6609 15.4274C39.9501 15.7735 40.1204 16.202 40.147 16.6506C40.1649 17.0715 40.151 17.4924 40.151 17.9152C40.1557 17.4688 40.1773 17.0203 40.1456 16.5739ZM40.1555 18.2534C40.1555 18.3379 40.1555 18.4245 40.1575 18.5111C40.1612 18.4738 40.1619 18.4363 40.1595 18.399C40.1575 18.3498 40.1555 18.3026 40.1555 18.2534ZM40.1535 18.0213H40.1515C40.1515 18.098 40.1535 18.1748 40.1555 18.2534C40.1535 18.1748 40.1535 18.098 40.1535 18.0213ZM39.0662 14.8905C39.0563 14.8826 39.0464 14.8768 39.0344 14.8689C38.9908 14.8394 38.9471 14.8118 38.9015 14.7863C38.8778 14.7705 38.8519 14.7568 38.8261 14.743C38.7785 14.7155 38.7289 14.69 38.6773 14.6663C38.6646 14.6592 38.6514 14.6533 38.6376 14.6486C38.5741 14.6172 38.5087 14.5896 38.4412 14.5641C38.4015 14.5484 38.3598 14.5346 38.318 14.5208C38.2525 14.4973 38.1831 14.4776 38.1136 14.4598C38.0779 14.45 38.0442 14.4421 38.0085 14.4343C37.9212 14.4145 37.8319 14.3967 37.7426 14.3851C37.6752 14.3753 37.6077 14.3693 37.5382 14.3635C38.0968 14.4127 38.6336 14.6022 39.0978 14.9141C39.0879 14.9055 39.0772 14.8976 39.0662 14.8905ZM37.2429 14.3516C37.2263 14.352 37.2097 14.3533 37.1933 14.3556C37.229 14.3536 37.2628 14.3536 37.2965 14.3536C37.2786 14.352 37.2609 14.3513 37.2429 14.3516ZM35.3242 21.0462C35.8359 21.4349 36.456 21.658 37.1001 21.6853C36.4576 21.6499 35.84 21.4277 35.3242 21.0462ZM34.3897 19.4059C34.3897 19.4256 34.3897 19.4472 34.3916 19.4669C34.3936 19.5004 34.3976 19.5318 34.4016 19.5653C34.4117 19.6537 34.4289 19.7411 34.4532 19.8268C34.4591 19.8525 34.467 19.876 34.4749 19.9016C34.4809 19.9193 34.4849 19.9351 34.4909 19.9508C34.5008 19.9803 34.5127 20.0078 34.5246 20.0372C34.5357 20.0683 34.549 20.0985 34.5643 20.1278C34.5741 20.153 34.5861 20.1773 34.6 20.2005C34.6239 20.2513 34.6511 20.3006 34.6813 20.348C34.7092 20.3955 34.7397 20.4415 34.7726 20.4857C34.8064 20.5348 34.8441 20.5821 34.8815 20.6272L34.8874 20.6332C34.9002 20.6499 34.9141 20.6657 34.9291 20.6804L34.945 20.6961C34.6183 20.3404 34.4227 19.8858 34.3897 19.4059ZM34.3837 18.0195C34.3837 17.8582 34.3817 17.695 34.3797 17.5337C34.3753 17.5695 34.374 17.6057 34.3758 17.6417C34.3797 17.7223 34.3817 17.801 34.3797 17.8777C34.3817 17.9799 34.3837 18.0861 34.3837 18.1883C34.3857 18.1314 34.3857 18.0763 34.3857 18.0194L34.3837 18.0195ZM34.3797 18.875C34.3797 18.6528 34.3837 18.4325 34.3837 18.2103C34.3797 18.5918 34.3658 18.9772 34.3877 19.3587C34.3815 19.1974 34.3797 19.0363 34.3797 18.875ZM34.3797 18.875C34.3797 18.6528 34.3837 18.4325 34.3837 18.2103C34.3797 18.5918 34.3658 18.9772 34.3877 19.3587C34.3815 19.1974 34.3797 19.0363 34.3797 18.875ZM34.3837 18.0195C34.3837 17.8582 34.3817 17.695 34.3797 17.5337C34.3753 17.5695 34.374 17.6057 34.3758 17.6417C34.3797 17.7223 34.3817 17.801 34.3797 17.8777C34.3817 17.9799 34.3837 18.0861 34.3837 18.1883C34.3857 18.1314 34.3857 18.0763 34.3857 18.0194L34.3837 18.0195ZM34.3897 19.4059C34.3897 19.4256 34.3897 19.4472 34.3916 19.4669C34.3936 19.5004 34.3976 19.5318 34.4016 19.5653C34.4117 19.6537 34.4289 19.7411 34.4532 19.8268C34.4591 19.8525 34.467 19.876 34.4749 19.9016C34.4809 19.9193 34.4849 19.9351 34.4909 19.9508C34.5008 19.9803 34.5127 20.0078 34.5246 20.0372C34.5357 20.0683 34.549 20.0985 34.5643 20.1278C34.5741 20.153 34.5861 20.1773 34.6 20.2005C34.6239 20.2513 34.6511 20.3006 34.6813 20.348C34.7092 20.3955 34.7397 20.4415 34.7726 20.4857C34.8064 20.5348 34.8441 20.5821 34.8815 20.6272L34.8874 20.6332C34.9002 20.6499 34.9141 20.6657 34.9291 20.6804L34.945 20.6961C34.6183 20.3404 34.4227 19.8858 34.3897 19.4059ZM35.3242 21.0462C35.8359 21.4349 36.456 21.658 37.1001 21.6853C36.4576 21.6499 35.84 21.4277 35.3242 21.0462ZM37.2429 14.3516C37.2263 14.352 37.2097 14.3533 37.1933 14.3556C37.229 14.3536 37.2628 14.3536 37.2965 14.3536C37.2786 14.352 37.2609 14.3513 37.2429 14.3516ZM39.0662 14.8905C39.0563 14.8826 39.0464 14.8768 39.0344 14.8689C38.9908 14.8394 38.9471 14.8118 38.9015 14.7863C38.8778 14.7705 38.8519 14.7568 38.8261 14.743C38.7785 14.7155 38.7289 14.69 38.6773 14.6663C38.6646 14.6592 38.6514 14.6533 38.6376 14.6486C38.5741 14.6172 38.5087 14.5896 38.4412 14.5641C38.4015 14.5484 38.3598 14.5346 38.318 14.5208C38.2525 14.4973 38.1831 14.4776 38.1136 14.4598C38.0779 14.45 38.0442 14.4421 38.0085 14.4343C37.9212 14.4145 37.8319 14.3967 37.7426 14.3851C37.6752 14.3753 37.6077 14.3693 37.5382 14.3635C38.0968 14.4127 38.6336 14.6022 39.0978 14.9141C39.0879 14.9055 39.0772 14.8976 39.0662 14.8905ZM40.1535 18.0213H40.1515C40.1515 18.098 40.1535 18.1748 40.1555 18.2534C40.1535 18.1748 40.1535 18.098 40.1535 18.0213ZM40.1456 16.5739C40.142 16.5179 40.1354 16.462 40.1257 16.4067C40.126 16.402 40.1254 16.3973 40.1237 16.3929C40.1178 16.3537 40.1079 16.3124 40.098 16.273C40.0864 16.219 40.0712 16.1657 40.0523 16.1137C40.0464 16.094 40.0404 16.0762 40.0325 16.0567C40.0219 16.0244 40.0093 15.9929 39.9946 15.9623C39.9827 15.9347 39.9709 15.9072 39.9567 15.8797C39.9349 15.8364 39.913 15.7932 39.8892 15.7499C39.8734 15.7224 39.8575 15.6949 39.8396 15.6692C39.8276 15.6471 39.8137 15.626 39.798 15.6063C39.7801 15.5787 39.7623 15.5532 39.7424 15.5277C39.729 15.5078 39.7144 15.4888 39.6988 15.4706C39.6872 15.4553 39.6746 15.4409 39.6609 15.4274C39.9501 15.7735 40.1204 16.202 40.147 16.6506C40.1649 17.0715 40.151 17.4924 40.151 17.9152C40.1557 17.4688 40.1773 17.0203 40.1456 16.5739ZM40.1555 18.2534C40.1555 18.3379 40.1555 18.4245 40.1575 18.5111C40.1612 18.4738 40.1619 18.4363 40.1595 18.399C40.1575 18.3498 40.1555 18.3026 40.1555 18.2534ZM40.1555 18.2534C40.1555 18.3379 40.1555 18.4245 40.1575 18.5111C40.1612 18.4738 40.1619 18.4363 40.1595 18.399C40.1575 18.3498 40.1555 18.3026 40.1555 18.2534ZM40.1456 16.5739C40.142 16.5179 40.1354 16.462 40.1257 16.4067C40.126 16.402 40.1254 16.3973 40.1237 16.3929C40.1178 16.3537 40.1079 16.3124 40.098 16.273C40.0864 16.219 40.0712 16.1657 40.0523 16.1137C40.0464 16.094 40.0404 16.0762 40.0325 16.0567C40.0219 16.0244 40.0093 15.9929 39.9946 15.9623C39.9827 15.9347 39.9709 15.9072 39.9567 15.8797C39.9349 15.8364 39.913 15.7932 39.8892 15.7499C39.8734 15.7224 39.8575 15.6949 39.8396 15.6692C39.8276 15.6471 39.8137 15.626 39.798 15.6063C39.7801 15.5787 39.7623 15.5532 39.7424 15.5277C39.729 15.5078 39.7144 15.4888 39.6988 15.4706C39.6872 15.4553 39.6746 15.4409 39.6609 15.4274C39.9501 15.7735 40.1204 16.202 40.147 16.6506C40.1649 17.0715 40.151 17.4924 40.151 17.9152C40.1557 17.4688 40.1773 17.0203 40.1456 16.5739ZM40.1535 18.0213H40.1515C40.1515 18.098 40.1535 18.1748 40.1555 18.2534C40.1535 18.1748 40.1535 18.098 40.1535 18.0213ZM39.0662 14.8905C39.0563 14.8826 39.0464 14.8768 39.0344 14.8689C38.9908 14.8394 38.9471 14.8118 38.9015 14.7863C38.8778 14.7705 38.8519 14.7568 38.8261 14.743C38.7785 14.7155 38.7289 14.69 38.6773 14.6663C38.6646 14.6592 38.6514 14.6533 38.6376 14.6486C38.5741 14.6172 38.5087 14.5896 38.4412 14.5641C38.4015 14.5484 38.3598 14.5346 38.318 14.5208C38.2525 14.4973 38.1831 14.4776 38.1136 14.4598C38.0779 14.45 38.0442 14.4421 38.0085 14.4343C37.9212 14.4145 37.8319 14.3967 37.7426 14.3851C37.6752 14.3753 37.6077 14.3693 37.5382 14.3635C38.0968 14.4127 38.6336 14.6022 39.0978 14.9141C39.0879 14.9055 39.0772 14.8976 39.0662 14.8905ZM37.2429 14.3516C37.2263 14.352 37.2097 14.3533 37.1933 14.3556C37.229 14.3536 37.2628 14.3536 37.2965 14.3536C37.2786 14.352 37.2609 14.3513 37.2429 14.3516ZM35.3242 21.0462C35.8359 21.4349 36.456 21.658 37.1001 21.6853C36.4576 21.6499 35.84 21.4277 35.3242 21.0462ZM34.3897 19.4059C34.3897 19.4256 34.3897 19.4472 34.3916 19.4669C34.3936 19.5004 34.3976 19.5318 34.4016 19.5653C34.4117 19.6537 34.4289 19.7411 34.4532 19.8268C34.4591 19.8525 34.467 19.876 34.4749 19.9016C34.4809 19.9193 34.4849 19.9351 34.4909 19.9508C34.5008 19.9803 34.5127 20.0078 34.5246 20.0372C34.5357 20.0683 34.549 20.0985 34.5643 20.1278C34.5741 20.153 34.5861 20.1773 34.6 20.2005C34.6239 20.2513 34.6511 20.3006 34.6813 20.348C34.7092 20.3955 34.7397 20.4415 34.7726 20.4857C34.8064 20.5348 34.8441 20.5821 34.8815 20.6272L34.8874 20.6332C34.9002 20.6499 34.9141 20.6657 34.9291 20.6804L34.945 20.6961C34.6183 20.3404 34.4227 19.8858 34.3897 19.4059ZM34.3837 18.0195C34.3837 17.8582 34.3817 17.695 34.3797 17.5337C34.3753 17.5695 34.374 17.6057 34.3758 17.6417C34.3797 17.7223 34.3817 17.801 34.3797 17.8777C34.3817 17.9799 34.3837 18.0861 34.3837 18.1883C34.3857 18.1314 34.3857 18.0763 34.3857 18.0194L34.3837 18.0195ZM34.3797 18.875C34.3797 18.6528 34.3837 18.4325 34.3837 18.2103C34.3797 18.5918 34.3658 18.9772 34.3877 19.3587C34.3815 19.1974 34.3797 19.0363 34.3797 18.875ZM34.3797 18.875C34.3797 18.6528 34.3837 18.4325 34.3837 18.2103C34.3797 18.5918 34.3658 18.9772 34.3877 19.3587C34.3815 19.1974 34.3797 19.0363 34.3797 18.875ZM34.3837 18.0195C34.3837 17.8582 34.3817 17.695 34.3797 17.5337C34.3753 17.5695 34.374 17.6057 34.3758 17.6417C34.3797 17.7223 34.3817 17.801 34.3797 17.8777C34.3817 17.9799 34.3837 18.0861 34.3837 18.1883C34.3857 18.1314 34.3857 18.0763 34.3857 18.0194L34.3837 18.0195ZM34.3897 19.4059C34.3897 19.4256 34.3897 19.4472 34.3916 19.4669C34.3936 19.5004 34.3976 19.5318 34.4016 19.5653C34.4117 19.6537 34.4289 19.7411 34.4532 19.8268C34.4591 19.8525 34.467 19.876 34.4749 19.9016C34.4809 19.9193 34.4849 19.9351 34.4909 19.9508C34.5008 19.9803 34.5127 20.0078 34.5246 20.0372C34.5357 20.0683 34.549 20.0985 34.5643 20.1278C34.5741 20.153 34.5861 20.1773 34.6 20.2005C34.6239 20.2513 34.6511 20.3006 34.6813 20.348C34.7092 20.3955 34.7397 20.4415 34.7726 20.4857C34.8064 20.5348 34.8441 20.5821 34.8815 20.6272L34.8874 20.6332C34.9002 20.6499 34.9141 20.6657 34.9291 20.6804L34.945 20.6961C34.6183 20.3404 34.4227 19.8858 34.3897 19.4059ZM35.3242 21.0462C35.8359 21.4349 36.456 21.658 37.1001 21.6853C36.4576 21.6499 35.84 21.4277 35.3242 21.0462ZM37.2429 14.3516C37.2263 14.352 37.2097 14.3533 37.1933 14.3556C37.229 14.3536 37.2628 14.3536 37.2965 14.3536C37.2786 14.352 37.2609 14.3513 37.2429 14.3516ZM39.0662 14.8905C39.0563 14.8826 39.0464 14.8768 39.0344 14.8689C38.9908 14.8394 38.9471 14.8118 38.9015 14.7863C38.8778 14.7705 38.8519 14.7568 38.8261 14.743C38.7785 14.7155 38.7289 14.69 38.6773 14.6663C38.6646 14.6592 38.6514 14.6533 38.6376 14.6486C38.5741 14.6172 38.5087 14.5896 38.4412 14.5641C38.4015 14.5484 38.3598 14.5346 38.318 14.5208C38.2525 14.4973 38.1831 14.4776 38.1136 14.4598C38.0779 14.45 38.0442 14.4421 38.0085 14.4343C37.9212 14.4145 37.8319 14.3967 37.7426 14.3851C37.6752 14.3753 37.6077 14.3693 37.5382 14.3635C38.0968 14.4127 38.6336 14.6022 39.0978 14.9141C39.0879 14.9055 39.0772 14.8976 39.0662 14.8905ZM40.1535 18.0213H40.1515C40.1515 18.098 40.1535 18.1748 40.1555 18.2534C40.1535 18.1748 40.1535 18.098 40.1535 18.0213ZM40.1456 16.5739C40.142 16.5179 40.1354 16.462 40.1257 16.4067C40.126 16.402 40.1254 16.3973 40.1237 16.3929C40.1178 16.3537 40.1079 16.3124 40.098 16.273C40.0864 16.219 40.0712 16.1657 40.0523 16.1137C40.0464 16.094 40.0404 16.0762 40.0325 16.0567C40.0219 16.0244 40.0093 15.9929 39.9946 15.9623C39.9827 15.9347 39.9709 15.9072 39.9567 15.8797C39.9349 15.8364 39.913 15.7932 39.8892 15.7499C39.8734 15.7224 39.8575 15.6949 39.8396 15.6692C39.8276 15.6471 39.8137 15.626 39.798 15.6063C39.7801 15.5787 39.7623 15.5532 39.7424 15.5277C39.729 15.5078 39.7144 15.4888 39.6988 15.4706C39.6872 15.4553 39.6746 15.4409 39.6609 15.4274C39.9501 15.7735 40.1204 16.202 40.147 16.6506C40.1649 17.0715 40.151 17.4924 40.151 17.9152C40.1557 17.4688 40.1773 17.0203 40.1456 16.5739ZM40.1555 18.2534C40.1555 18.3379 40.1555 18.4245 40.1575 18.5111C40.1612 18.4738 40.1619 18.4363 40.1595 18.399C40.1575 18.3498 40.1555 18.3026 40.1555 18.2534ZM40.1555 18.2534C40.1555 18.3379 40.1555 18.4245 40.1575 18.5111C40.1612 18.4738 40.1619 18.4363 40.1595 18.399C40.1575 18.3498 40.1555 18.3026 40.1555 18.2534ZM40.1456 16.5739C40.142 16.5179 40.1354 16.462 40.1257 16.4067C40.126 16.402 40.1254 16.3973 40.1237 16.3929C40.1178 16.3537 40.1079 16.3124 40.098 16.273C40.0864 16.219 40.0712 16.1657 40.0523 16.1137C40.0464 16.094 40.0404 16.0762 40.0325 16.0567C40.0219 16.0244 40.0093 15.9929 39.9946 15.9623C39.9827 15.9347 39.9709 15.9072 39.9567 15.8797C39.9349 15.8364 39.913 15.7932 39.8892 15.7499C39.8734 15.7224 39.8575 15.6949 39.8396 15.6692C39.8276 15.6471 39.8137 15.626 39.798 15.6063C39.7801 15.5787 39.7623 15.5532 39.7424 15.5277C39.729 15.5078 39.7144 15.4888 39.6988 15.4706C39.6872 15.4553 39.6746 15.4409 39.6609 15.4274C39.9501 15.7735 40.1204 16.202 40.147 16.6506C40.1649 17.0715 40.151 17.4924 40.151 17.9152C40.1557 17.4688 40.1773 17.0203 40.1456 16.5739ZM40.1535 18.0213H40.1515C40.1515 18.098 40.1535 18.1748 40.1555 18.2534C40.1535 18.1748 40.1535 18.098 40.1535 18.0213ZM39.0662 14.8905C39.0563 14.8826 39.0464 14.8768 39.0344 14.8689C38.9908 14.8394 38.9471 14.8118 38.9015 14.7863C38.8778 14.7705 38.8519 14.7568 38.8261 14.743C38.7785 14.7155 38.7289 14.69 38.6773 14.6663C38.6646 14.6592 38.6514 14.6533 38.6376 14.6486C38.5741 14.6172 38.5087 14.5896 38.4412 14.5641C38.4015 14.5484 38.3598 14.5346 38.318 14.5208C38.2525 14.4973 38.1831 14.4776 38.1136 14.4598C38.0779 14.45 38.0442 14.4421 38.0085 14.4343C37.9212 14.4145 37.8319 14.3967 37.7426 14.3851C37.6752 14.3753 37.6077 14.3693 37.5382 14.3635C38.0968 14.4127 38.6336 14.6022 39.0978 14.9141C39.0879 14.9055 39.0772 14.8976 39.0662 14.8905ZM37.2429 14.3516C37.2263 14.352 37.2097 14.3533 37.1933 14.3556C37.229 14.3536 37.2628 14.3536 37.2965 14.3536C37.2786 14.352 37.2609 14.3513 37.2429 14.3516ZM35.3242 21.0462C35.8359 21.4349 36.456 21.658 37.1001 21.6853C36.4576 21.6499 35.84 21.4277 35.3242 21.0462ZM34.3897 19.4059C34.3897 19.4256 34.3897 19.4472 34.3916 19.4669C34.3936 19.5004 34.3976 19.5318 34.4016 19.5653C34.4117 19.6537 34.4289 19.7411 34.4532 19.8268C34.4591 19.8525 34.467 19.876 34.4749 19.9016C34.4809 19.9193 34.4849 19.9351 34.4909 19.9508C34.5008 19.9803 34.5127 20.0078 34.5246 20.0372C34.5357 20.0683 34.549 20.0985 34.5643 20.1278C34.5741 20.153 34.5861 20.1773 34.6 20.2005C34.6239 20.2513 34.6511 20.3006 34.6813 20.348C34.7092 20.3955 34.7397 20.4415 34.7726 20.4857C34.8064 20.5348 34.8441 20.5821 34.8815 20.6272L34.8874 20.6332C34.9002 20.6499 34.9141 20.6657 34.9291 20.6804L34.945 20.6961C34.6183 20.3404 34.4227 19.8858 34.3897 19.4059ZM34.3837 18.0195C34.3837 17.8582 34.3817 17.695 34.3797 17.5337C34.3753 17.5695 34.374 17.6057 34.3758 17.6417C34.3797 17.7223 34.3817 17.801 34.3797 17.8777C34.3817 17.9799 34.3837 18.0861 34.3837 18.1883C34.3857 18.1314 34.3857 18.0763 34.3857 18.0194L34.3837 18.0195ZM34.3797 18.875C34.3797 18.6528 34.3837 18.4325 34.3837 18.2103C34.3797 18.5918 34.3658 18.9772 34.3877 19.3587C34.3815 19.1974 34.3797 19.0363 34.3797 18.875ZM34.3797 18.875C34.3797 18.6528 34.3837 18.4325 34.3837 18.2103C34.3797 18.5918 34.3658 18.9772 34.3877 19.3587C34.3815 19.1974 34.3797 19.0363 34.3797 18.875ZM34.3837 18.0195C34.3837 17.8582 34.3817 17.695 34.3797 17.5337C34.3753 17.5695 34.374 17.6057 34.3758 17.6417C34.3797 17.7223 34.3817 17.801 34.3797 17.8777C34.3817 17.9799 34.3837 18.0861 34.3837 18.1883C34.3857 18.1314 34.3857 18.0763 34.3857 18.0194L34.3837 18.0195ZM34.3897 19.4059C34.3897 19.4256 34.3897 19.4472 34.3916 19.4669C34.3936 19.5004 34.3976 19.5318 34.4016 19.5653C34.4117 19.6537 34.4289 19.7411 34.4532 19.8268C34.4591 19.8525 34.467 19.876 34.4749 19.9016C34.4809 19.9193 34.4849 19.9351 34.4909 19.9508C34.5008 19.9803 34.5127 20.0078 34.5246 20.0372C34.5357 20.0683 34.549 20.0985 34.5643 20.1278C34.5741 20.153 34.5861 20.1773 34.6 20.2005C34.6239 20.2513 34.6511 20.3006 34.6813 20.348C34.7092 20.3955 34.7397 20.4415 34.7726 20.4857C34.8064 20.5348 34.8441 20.5821 34.8815 20.6272L34.8874 20.6332C34.9002 20.6499 34.9141 20.6657 34.9291 20.6804L34.945 20.6961C34.6183 20.3404 34.4227 19.8858 34.3897 19.4059ZM35.3242 21.0462C35.8359 21.4349 36.456 21.658 37.1001 21.6853C36.4576 21.6499 35.84 21.4277 35.3242 21.0462ZM37.2429 14.3516C37.2263 14.352 37.2097 14.3533 37.1933 14.3556C37.229 14.3536 37.2628 14.3536 37.2965 14.3536C37.2786 14.352 37.2609 14.3513 37.2429 14.3516ZM39.0662 14.8905C39.0563 14.8826 39.0464 14.8768 39.0344 14.8689C38.9908 14.8394 38.9471 14.8118 38.9015 14.7863C38.8778 14.7705 38.8519 14.7568 38.8261 14.743C38.7785 14.7155 38.7289 14.69 38.6773 14.6663C38.6646 14.6592 38.6514 14.6533 38.6376 14.6486C38.5741 14.6172 38.5087 14.5896 38.4412 14.5641C38.4015 14.5484 38.3598 14.5346 38.318 14.5208C38.2525 14.4973 38.1831 14.4776 38.1136 14.4598C38.0779 14.45 38.0442 14.4421 38.0085 14.4343C37.9212 14.4145 37.8319 14.3967 37.7426 14.3851C37.6752 14.3753 37.6077 14.3693 37.5382 14.3635C38.0968 14.4127 38.6336 14.6022 39.0978 14.9141C39.0879 14.9055 39.0772 14.8976 39.0662 14.8905ZM40.1535 18.0213H40.1515C40.1515 18.098 40.1535 18.1748 40.1555 18.2534C40.1535 18.1748 40.1535 18.098 40.1535 18.0213ZM40.1456 16.5739C40.142 16.5179 40.1354 16.462 40.1257 16.4067C40.126 16.402 40.1254 16.3973 40.1237 16.3929C40.1178 16.3537 40.1079 16.3124 40.098 16.273C40.0864 16.219 40.0712 16.1657 40.0523 16.1137C40.0464 16.094 40.0404 16.0762 40.0325 16.0567C40.0219 16.0244 40.0093 15.9929 39.9946 15.9623C39.9827 15.9347 39.9709 15.9072 39.9567 15.8797C39.9349 15.8364 39.913 15.7932 39.8892 15.7499C39.8734 15.7224 39.8575 15.6949 39.8396 15.6692C39.8276 15.6471 39.8137 15.626 39.798 15.6063C39.7801 15.5787 39.7623 15.5532 39.7424 15.5277C39.729 15.5078 39.7144 15.4888 39.6988 15.4706C39.6872 15.4553 39.6746 15.4409 39.6609 15.4274C39.9501 15.7735 40.1204 16.202 40.147 16.6506C40.1649 17.0715 40.151 17.4924 40.151 17.9152C40.1557 17.4688 40.1773 17.0203 40.1456 16.5739ZM40.1555 18.2534C40.1555 18.3379 40.1555 18.4245 40.1575 18.5111C40.1612 18.4738 40.1619 18.4363 40.1595 18.399C40.1575 18.3498 40.1555 18.3026 40.1555 18.2534ZM40.1555 18.2534C40.1555 18.3379 40.1555 18.4245 40.1575 18.5111C40.1612 18.4738 40.1619 18.4363 40.1595 18.399C40.1575 18.3498 40.1555 18.3026 40.1555 18.2534ZM40.1456 16.5739C40.142 16.5179 40.1354 16.462 40.1257 16.4067C40.126 16.402 40.1254 16.3973 40.1237 16.3929C40.1178 16.3537 40.1079 16.3124 40.098 16.273C40.0864 16.219 40.0712 16.1657 40.0523 16.1137C40.0464 16.094 40.0404 16.0762 40.0325 16.0567C40.0219 16.0244 40.0093 15.9929 39.9946 15.9623C39.9827 15.9347 39.9709 15.9072 39.9567 15.8797C39.9349 15.8364 39.913 15.7932 39.8892 15.7499C39.8734 15.7224 39.8575 15.6949 39.8396 15.6692C39.8276 15.6471 39.8137 15.626 39.798 15.6063C39.7801 15.5787 39.7623 15.5532 39.7424 15.5277C39.729 15.5078 39.7144 15.4888 39.6988 15.4706C39.6872 15.4553 39.6746 15.4409 39.6609 15.4274C39.9501 15.7735 40.1204 16.202 40.147 16.6506C40.1649 17.0715 40.151 17.4924 40.151 17.9152C40.1557 17.4688 40.1773 17.0203 40.1456 16.5739ZM40.1535 18.0213H40.1515C40.1515 18.098 40.1535 18.1748 40.1555 18.2534C40.1535 18.1748 40.1535 18.098 40.1535 18.0213ZM39.0662 14.8905C39.0563 14.8826 39.0464 14.8768 39.0344 14.8689C38.9908 14.8394 38.9471 14.8118 38.9015 14.7863C38.8778 14.7705 38.8519 14.7568 38.8261 14.743C38.7785 14.7155 38.7289 14.69 38.6773 14.6663C38.6646 14.6592 38.6514 14.6533 38.6376 14.6486C38.5741 14.6172 38.5087 14.5896 38.4412 14.5641C38.4015 14.5484 38.3598 14.5346 38.318 14.5208C38.2525 14.4973 38.1831 14.4776 38.1136 14.4598C38.0779 14.45 38.0442 14.4421 38.0085 14.4343C37.9212 14.4145 37.8319 14.3967 37.7426 14.3851C37.6752 14.3753 37.6077 14.3693 37.5382 14.3635C38.0968 14.4127 38.6336 14.6022 39.0978 14.9141C39.0879 14.9055 39.0772 14.8976 39.0662 14.8905ZM37.2429 14.3516C37.2263 14.352 37.2097 14.3533 37.1933 14.3556C37.229 14.3536 37.2628 14.3536 37.2965 14.3536C37.2786 14.352 37.2609 14.3513 37.2429 14.3516ZM35.3242 21.0462C35.8359 21.4349 36.456 21.658 37.1001 21.6853C36.4576 21.6499 35.84 21.4277 35.3242 21.0462ZM34.3897 19.4059C34.3897 19.4256 34.3897 19.4472 34.3916 19.4669C34.3936 19.5004 34.3976 19.5318 34.4016 19.5653C34.4117 19.6537 34.4289 19.7411 34.4532 19.8268C34.4591 19.8525 34.467 19.876 34.4749 19.9016C34.4809 19.9193 34.4849 19.9351 34.4909 19.9508C34.5008 19.9803 34.5127 20.0078 34.5246 20.0372C34.5357 20.0683 34.549 20.0985 34.5643 20.1278C34.5741 20.153 34.5861 20.1773 34.6 20.2005C34.6239 20.2513 34.6511 20.3006 34.6813 20.348C34.7092 20.3955 34.7397 20.4415 34.7726 20.4857C34.8064 20.5348 34.8441 20.5821 34.8815 20.6272L34.8874 20.6332C34.9002 20.6499 34.9141 20.6657 34.9291 20.6804L34.945 20.6961C34.6183 20.3404 34.4227 19.8858 34.3897 19.4059ZM34.3837 18.0195C34.3837 17.8582 34.3817 17.695 34.3797 17.5337C34.3753 17.5695 34.374 17.6057 34.3758 17.6417C34.3797 17.7223 34.3817 17.801 34.3797 17.8777C34.3817 17.9799 34.3837 18.0861 34.3837 18.1883C34.3857 18.1314 34.3857 18.0763 34.3857 18.0194L34.3837 18.0195ZM34.3797 18.875C34.3797 18.6528 34.3837 18.4325 34.3837 18.2103C34.3797 18.5918 34.3658 18.9772 34.3877 19.3587C34.3815 19.1974 34.3797 19.0363 34.3797 18.875ZM34.3797 18.875C34.3797 18.6528 34.3837 18.4325 34.3837 18.2103C34.3797 18.5918 34.3658 18.9772 34.3877 19.3587C34.3815 19.1974 34.3797 19.0363 34.3797 18.875ZM34.3837 18.0195C34.3837 17.8582 34.3817 17.695 34.3797 17.5337C34.3753 17.5695 34.374 17.6057 34.3758 17.6417C34.3797 17.7223 34.3817 17.801 34.3797 17.8777C34.3817 17.9799 34.3837 18.0861 34.3837 18.1883C34.3857 18.1314 34.3857 18.0763 34.3857 18.0194L34.3837 18.0195ZM34.3897 19.4059C34.3897 19.4256 34.3897 19.4472 34.3916 19.4669C34.3936 19.5004 34.3976 19.5318 34.4016 19.5653C34.4117 19.6537 34.4289 19.7411 34.4532 19.8268C34.4591 19.8525 34.467 19.876 34.4749 19.9016C34.4809 19.9193 34.4849 19.9351 34.4909 19.9508C34.5008 19.9803 34.5127 20.0078 34.5246 20.0372C34.5357 20.0683 34.549 20.0985 34.5643 20.1278C34.5741 20.153 34.5861 20.1773 34.6 20.2005C34.6239 20.2513 34.6511 20.3006 34.6813 20.348C34.7092 20.3955 34.7397 20.4415 34.7726 20.4857C34.8064 20.5348 34.8441 20.5821 34.8815 20.6272L34.8874 20.6332C34.9002 20.6499 34.9141 20.6657 34.9291 20.6804L34.945 20.6961C34.6183 20.3404 34.4227 19.8858 34.3897 19.4059ZM35.3242 21.0462C35.8359 21.4349 36.456 21.658 37.1001 21.6853C36.4576 21.6499 35.84 21.4277 35.3242 21.0462ZM37.2429 14.3516C37.2263 14.352 37.2097 14.3533 37.1933 14.3556C37.229 14.3536 37.2628 14.3536 37.2965 14.3536C37.2786 14.352 37.2609 14.3513 37.2429 14.3516ZM39.0662 14.8905C39.0563 14.8826 39.0464 14.8768 39.0344 14.8689C38.9908 14.8394 38.9471 14.8118 38.9015 14.7863C38.8778 14.7705 38.8519 14.7568 38.8261 14.743C38.7785 14.7155 38.7289 14.69 38.6773 14.6663C38.6646 14.6592 38.6514 14.6533 38.6376 14.6486C38.5741 14.6172 38.5087 14.5896 38.4412 14.5641C38.4015 14.5484 38.3598 14.5346 38.318 14.5208C38.2525 14.4973 38.1831 14.4776 38.1136 14.4598C38.0779 14.45 38.0442 14.4421 38.0085 14.4343C37.9212 14.4145 37.8319 14.3967 37.7426 14.3851C37.6752 14.3753 37.6077 14.3693 37.5382 14.3635C38.0968 14.4127 38.6336 14.6022 39.0978 14.9141C39.0879 14.9055 39.0772 14.8976 39.0662 14.8905ZM40.1535 18.0213H40.1515C40.1515 18.098 40.1535 18.1748 40.1555 18.2534C40.1535 18.1748 40.1535 18.098 40.1535 18.0213ZM40.1456 16.5739C40.142 16.5179 40.1354 16.462 40.1257 16.4067C40.126 16.402 40.1254 16.3973 40.1237 16.3929C40.1178 16.3537 40.1079 16.3124 40.098 16.273C40.0864 16.219 40.0712 16.1657 40.0523 16.1137C40.0464 16.094 40.0404 16.0762 40.0325 16.0567C40.0219 16.0244 40.0093 15.9929 39.9946 15.9623C39.9827 15.9347 39.9709 15.9072 39.9567 15.8797C39.9349 15.8364 39.913 15.7932 39.8892 15.7499C39.8734 15.7224 39.8575 15.6949 39.8396 15.6692C39.8276 15.6471 39.8137 15.626 39.798 15.6063C39.7801 15.5787 39.7623 15.5532 39.7424 15.5277C39.729 15.5078 39.7144 15.4888 39.6988 15.4706C39.6872 15.4553 39.6746 15.4409 39.6609 15.4274C39.9501 15.7735 40.1204 16.202 40.147 16.6506C40.1649 17.0715 40.151 17.4924 40.151 17.9152C40.1557 17.4688 40.1773 17.0203 40.1456 16.5739ZM40.1555 18.2534C40.1555 18.3379 40.1555 18.4245 40.1575 18.5111C40.1612 18.4738 40.1619 18.4363 40.1595 18.399C40.1575 18.3498 40.1555 18.3026 40.1555 18.2534ZM40.1575 18.5111C40.1612 18.4738 40.1619 18.4363 40.1595 18.399C40.1575 18.3498 40.1555 18.3026 40.1555 18.2534C40.1555 18.3379 40.1555 18.4245 40.1575 18.5111ZM40.1517 17.9152C40.1557 17.4688 40.1773 17.0203 40.1456 16.5739C40.142 16.5179 40.1354 16.462 40.1257 16.4067C40.126 16.402 40.1254 16.3973 40.1237 16.3929C40.1178 16.3537 40.1079 16.3124 40.098 16.273C40.0864 16.219 40.0712 16.1657 40.0523 16.1137C40.0464 16.094 40.0404 16.0762 40.0325 16.0567C40.0219 16.0244 40.0093 15.9929 39.9946 15.9623C39.9827 15.9347 39.9709 15.9072 39.9567 15.8797C39.9349 15.8364 39.913 15.7932 39.8892 15.7499C39.8734 15.7224 39.8575 15.6949 39.8396 15.6692C39.8276 15.6471 39.8137 15.626 39.798 15.6063C39.7801 15.5787 39.7623 15.5532 39.7424 15.5277C39.729 15.5078 39.7144 15.4888 39.6988 15.4706C39.6872 15.4553 39.6746 15.4409 39.6609 15.4274C39.9501 15.7735 40.1204 16.202 40.147 16.6506C40.1652 17.0715 40.1517 17.4925 40.1517 17.9152ZM40.1515 18.0213C40.1515 18.098 40.1535 18.1748 40.1555 18.2534C40.1535 18.1748 40.1535 18.098 40.1535 18.0213H40.1515ZM39.0344 14.8689C38.9908 14.8394 38.9471 14.8118 38.9015 14.7863C38.8778 14.7705 38.8519 14.7568 38.8261 14.743C38.7785 14.7155 38.7289 14.69 38.6773 14.6663C38.6646 14.6592 38.6514 14.6533 38.6376 14.6486C38.5741 14.6172 38.5087 14.5896 38.4412 14.5641C38.4015 14.5484 38.3598 14.5346 38.318 14.5208C38.2525 14.4973 38.1831 14.4776 38.1136 14.4598C38.0779 14.45 38.0442 14.4421 38.0085 14.4343C37.9212 14.4145 37.8319 14.3967 37.7426 14.3851C37.6752 14.3753 37.6077 14.3693 37.5382 14.3635C38.0968 14.4127 38.6336 14.6022 39.0978 14.9141C39.0879 14.9055 39.0772 14.8976 39.0662 14.8905C39.0563 14.8826 39.0464 14.8768 39.0344 14.8689ZM37.1933 14.3556C37.229 14.3536 37.2628 14.3536 37.2965 14.3536C37.2786 14.352 37.2609 14.3513 37.2429 14.3516C37.2263 14.352 37.2097 14.3533 37.1933 14.3556ZM37.1001 21.6853C36.4576 21.6499 35.84 21.4277 35.3242 21.0462C35.8359 21.4349 36.456 21.658 37.1001 21.6853ZM34.3916 19.4669C34.3936 19.5004 34.3976 19.5318 34.4016 19.5653C34.4117 19.6537 34.4289 19.7411 34.4532 19.8268C34.4591 19.8525 34.467 19.876 34.4749 19.9016C34.4809 19.9193 34.4849 19.9351 34.4909 19.9508C34.5008 19.9803 34.5127 20.0078 34.5246 20.0372C34.5357 20.0683 34.549 20.0985 34.5643 20.1278C34.5741 20.153 34.5861 20.1773 34.6 20.2005C34.6239 20.2513 34.6511 20.3006 34.6813 20.348C34.7092 20.3955 34.7397 20.4415 34.7726 20.4857C34.8064 20.5348 34.8441 20.5821 34.8815 20.6272L34.8874 20.6332C34.9002 20.6499 34.9141 20.6657 34.9291 20.6804L34.945 20.6961C34.6183 20.3404 34.4227 19.8858 34.3897 19.4059C34.3897 19.4256 34.3897 19.4472 34.3916 19.4669ZM34.3837 18.1883C34.3857 18.1314 34.3857 18.0763 34.3857 18.0194L34.3837 18.0195C34.3837 17.8582 34.3817 17.695 34.3797 17.5337C34.3753 17.5695 34.374 17.6057 34.3758 17.6417C34.3797 17.7223 34.3817 17.801 34.3797 17.8777C34.3817 17.9799 34.3837 18.0861 34.3837 18.1883ZM34.3837 18.2103C34.3797 18.5918 34.3658 18.9772 34.3877 19.3587C34.3815 19.1974 34.3797 19.0363 34.3797 18.875C34.3797 18.6528 34.3837 18.4325 34.3837 18.2103ZM40.1575 18.5111C40.1612 18.4738 40.1619 18.4363 40.1595 18.399C40.1575 18.3498 40.1555 18.3026 40.1555 18.2534C40.1555 18.3379 40.1555 18.4245 40.1575 18.5111ZM40.1517 17.9152C40.1557 17.4688 40.1773 17.0203 40.1456 16.5739C40.142 16.5179 40.1354 16.462 40.1257 16.4067C40.126 16.402 40.1254 16.3973 40.1237 16.3929C40.1178 16.3537 40.1079 16.3124 40.098 16.273C40.0864 16.219 40.0712 16.1657 40.0523 16.1137C40.0464 16.094 40.0404 16.0762 40.0325 16.0567C40.0219 16.0244 40.0093 15.9929 39.9946 15.9623C39.9827 15.9347 39.9709 15.9072 39.9567 15.8797C39.9349 15.8364 39.913 15.7932 39.8892 15.7499C39.8734 15.7224 39.8575 15.6949 39.8396 15.6692C39.8276 15.6471 39.8137 15.626 39.798 15.6063C39.7801 15.5787 39.7623 15.5532 39.7424 15.5277C39.729 15.5078 39.7144 15.4888 39.6988 15.4706C39.6872 15.4553 39.6746 15.4409 39.6609 15.4274C39.9501 15.7735 40.1204 16.202 40.147 16.6506C40.1652 17.0715 40.1517 17.4925 40.1517 17.9152ZM40.1515 18.0213C40.1515 18.098 40.1535 18.1748 40.1555 18.2534C40.1535 18.1748 40.1535 18.098 40.1535 18.0213H40.1515ZM39.0344 14.8689C38.9908 14.8394 38.9471 14.8118 38.9015 14.7863C38.8778 14.7705 38.8519 14.7568 38.8261 14.743C38.7785 14.7155 38.7289 14.69 38.6773 14.6663C38.6646 14.6592 38.6514 14.6533 38.6376 14.6486C38.5741 14.6172 38.5087 14.5896 38.4412 14.5641C38.4015 14.5484 38.3598 14.5346 38.318 14.5208C38.2525 14.4973 38.1831 14.4776 38.1136 14.4598C38.0779 14.45 38.0442 14.4421 38.0085 14.4343C37.9212 14.4145 37.8319 14.3967 37.7426 14.3851C37.6752 14.3753 37.6077 14.3693 37.5382 14.3635C38.0968 14.4127 38.6336 14.6022 39.0978 14.9141C39.0879 14.9055 39.0772 14.8976 39.0662 14.8905C39.0563 14.8826 39.0464 14.8768 39.0344 14.8689ZM37.1933 14.3556C37.229 14.3536 37.2628 14.3536 37.2965 14.3536C37.2786 14.352 37.2609 14.3513 37.2429 14.3516C37.2263 14.352 37.2097 14.3533 37.1933 14.3556ZM37.1001 21.6853C36.4576 21.6499 35.84 21.4277 35.3242 21.0462C35.8359 21.4349 36.456 21.658 37.1001 21.6853ZM34.3916 19.4669C34.3936 19.5004 34.3976 19.5318 34.4016 19.5653C34.4117 19.6537 34.4289 19.7411 34.4532 19.8268C34.4591 19.8525 34.467 19.876 34.4749 19.9016C34.4809 19.9193 34.4849 19.9351 34.4909 19.9508C34.5008 19.9803 34.5127 20.0078 34.5246 20.0372C34.5357 20.0683 34.549 20.0985 34.5643 20.1278C34.5741 20.153 34.5861 20.1773 34.6 20.2005C34.6239 20.2513 34.6511 20.3006 34.6813 20.348C34.7092 20.3955 34.7397 20.4415 34.7726 20.4857C34.8064 20.5348 34.8441 20.5821 34.8815 20.6272L34.8874 20.6332C34.9002 20.6499 34.9141 20.6657 34.9291 20.6804L34.945 20.6961C34.6183 20.3404 34.4227 19.8858 34.3897 19.4059C34.3897 19.4256 34.3897 19.4472 34.3916 19.4669ZM34.3837 18.1883C34.3857 18.1314 34.3857 18.0763 34.3857 18.0194L34.3837 18.0195C34.3837 17.8582 34.3817 17.695 34.3797 17.5337C34.3753 17.5695 34.374 17.6057 34.3758 17.6417C34.3797 17.7223 34.3817 17.801 34.3797 17.8777C34.3817 17.9799 34.3837 18.0861 34.3837 18.1883ZM34.3837 18.2103C34.3797 18.5918 34.3658 18.9772 34.3877 19.3587C34.3815 19.1974 34.3797 19.0363 34.3797 18.875C34.3797 18.6528 34.3837 18.4325 34.3837 18.2103ZM34.3797 18.875C34.3797 18.6528 34.3837 18.4325 34.3837 18.2103C34.3797 18.5918 34.3658 18.9772 34.3877 19.3587C34.3815 19.1974 34.3797 19.0363 34.3797 18.875ZM34.3837 18.0195C34.3837 17.8582 34.3817 17.695 34.3797 17.5337C34.3753 17.5695 34.374 17.6057 34.3758 17.6417C34.3797 17.7223 34.3817 17.801 34.3797 17.8777C34.3817 17.9799 34.3837 18.0861 34.3837 18.1883C34.3857 18.1314 34.3857 18.0763 34.3857 18.0194L34.3837 18.0195ZM34.3897 19.4059C34.3897 19.4256 34.3897 19.4472 34.3916 19.4669C34.3936 19.5004 34.3976 19.5318 34.4016 19.5653C34.4117 19.6537 34.4289 19.7411 34.4532 19.8268C34.4591 19.8525 34.467 19.876 34.4749 19.9016C34.4809 19.9193 34.4849 19.9351 34.4909 19.9508C34.5008 19.9803 34.5127 20.0078 34.5246 20.0372C34.5357 20.0683 34.549 20.0985 34.5643 20.1278C34.5741 20.153 34.5861 20.1773 34.6 20.2005C34.6239 20.2513 34.6511 20.3006 34.6813 20.348C34.7092 20.3955 34.7397 20.4415 34.7726 20.4857C34.8064 20.5348 34.8441 20.5821 34.8815 20.6272L34.8874 20.6332C34.9002 20.6499 34.9141 20.6657 34.9291 20.6804L34.945 20.6961C34.6183 20.3404 34.4227 19.8858 34.3897 19.4059ZM35.3242 21.0462C35.8359 21.4349 36.456 21.658 37.1001 21.6853C36.4576 21.6499 35.84 21.4277 35.3242 21.0462ZM37.2429 14.3516C37.2263 14.352 37.2097 14.3533 37.1933 14.3556C37.229 14.3536 37.2628 14.3536 37.2965 14.3536C37.2786 14.352 37.2609 14.3513 37.2429 14.3516ZM39.0662 14.8905C39.0563 14.8826 39.0464 14.8768 39.0344 14.8689C38.9908 14.8394 38.9471 14.8118 38.9015 14.7863C38.8778 14.7705 38.8519 14.7568 38.8261 14.743C38.7785 14.7155 38.7289 14.69 38.6773 14.6663C38.6646 14.6592 38.6514 14.6533 38.6376 14.6486C38.5741 14.6172 38.5087 14.5896 38.4412 14.5641C38.4015 14.5484 38.3598 14.5346 38.318 14.5208C38.2525 14.4973 38.1831 14.4776 38.1136 14.4598C38.0779 14.45 38.0442 14.4421 38.0085 14.4343C37.9212 14.4145 37.8319 14.3967 37.7426 14.3851C37.6752 14.3753 37.6077 14.3693 37.5382 14.3635C38.0968 14.4127 38.6336 14.6022 39.0978 14.9141C39.0879 14.9055 39.0772 14.8976 39.0662 14.8905ZM40.1535 18.0213H40.1515C40.1515 18.098 40.1535 18.1748 40.1555 18.2534C40.1535 18.1748 40.1535 18.098 40.1535 18.0213ZM40.1456 16.5739C40.142 16.5179 40.1354 16.462 40.1257 16.4067C40.126 16.402 40.1254 16.3973 40.1237 16.3929C40.1178 16.3537 40.1079 16.3124 40.098 16.273C40.0864 16.219 40.0712 16.1657 40.0523 16.1137C40.0464 16.094 40.0404 16.0762 40.0325 16.0567C40.0219 16.0244 40.0093 15.9929 39.9946 15.9623C39.9827 15.9347 39.9709 15.9072 39.9567 15.8797C39.9349 15.8364 39.913 15.7932 39.8892 15.7499C39.8734 15.7224 39.8575 15.6949 39.8396 15.6692C39.8276 15.6471 39.8137 15.626 39.798 15.6063C39.7801 15.5787 39.7623 15.5532 39.7424 15.5277C39.729 15.5078 39.7144 15.4888 39.6988 15.4706C39.6872 15.4553 39.6746 15.4409 39.6609 15.4274C39.9501 15.7735 40.1204 16.202 40.147 16.6506C40.1649 17.0715 40.151 17.4924 40.151 17.9152C40.1557 17.4688 40.1773 17.0203 40.1456 16.5739ZM40.1555 18.2534C40.1555 18.3379 40.1555 18.4245 40.1575 18.5111C40.1612 18.4738 40.1619 18.4363 40.1595 18.399C40.1575 18.3498 40.1555 18.3026 40.1555 18.2534ZM40.1555 18.2534C40.1555 18.3379 40.1555 18.4245 40.1575 18.5111C40.1612 18.4738 40.1619 18.4363 40.1595 18.399C40.1575 18.3498 40.1555 18.3026 40.1555 18.2534ZM40.1456 16.5739C40.142 16.5179 40.1354 16.462 40.1257 16.4067C40.126 16.402 40.1254 16.3973 40.1237 16.3929C40.1178 16.3537 40.1079 16.3124 40.098 16.273C40.0864 16.219 40.0712 16.1657 40.0523 16.1137C40.0464 16.094 40.0404 16.0762 40.0325 16.0567C40.0219 16.0244 40.0093 15.9929 39.9946 15.9623C39.9827 15.9347 39.9709 15.9072 39.9567 15.8797C39.9349 15.8364 39.913 15.7932 39.8892 15.7499C39.8734 15.7224 39.8575 15.6949 39.8396 15.6692C39.8276 15.6471 39.8137 15.626 39.798 15.6063C39.7801 15.5787 39.7623 15.5532 39.7424 15.5277C39.729 15.5078 39.7144 15.4888 39.6988 15.4706C39.6872 15.4553 39.6746 15.4409 39.6609 15.4274C39.9501 15.7735 40.1204 16.202 40.147 16.6506C40.1649 17.0715 40.151 17.4924 40.151 17.9152C40.1557 17.4688 40.1773 17.0203 40.1456 16.5739ZM40.1535 18.0213H40.1515C40.1515 18.098 40.1535 18.1748 40.1555 18.2534C40.1535 18.1748 40.1535 18.098 40.1535 18.0213ZM39.0662 14.8905C39.0563 14.8826 39.0464 14.8768 39.0344 14.8689C38.9908 14.8394 38.9471 14.8118 38.9015 14.7863C38.8778 14.7705 38.8519 14.7568 38.8261 14.743C38.7785 14.7155 38.7289 14.69 38.6773 14.6663C38.6646 14.6592 38.6514 14.6533 38.6376 14.6486C38.5741 14.6172 38.5087 14.5896 38.4412 14.5641C38.4015 14.5484 38.3598 14.5346 38.318 14.5208C38.2525 14.4973 38.1831 14.4776 38.1136 14.4598C38.0779 14.45 38.0442 14.4421 38.0085 14.4343C37.9212 14.4145 37.8319 14.3967 37.7426 14.3851C37.6752 14.3753 37.6077 14.3693 37.5382 14.3635C38.0968 14.4127 38.6336 14.6022 39.0978 14.9141C39.0879 14.9055 39.0772 14.8976 39.0662 14.8905ZM37.2429 14.3516C37.2263 14.352 37.2097 14.3533 37.1933 14.3556C37.229 14.3536 37.2628 14.3536 37.2965 14.3536C37.2786 14.352 37.2609 14.3513 37.2429 14.3516ZM35.3242 21.0462C35.8359 21.4349 36.456 21.658 37.1001 21.6853C36.4576 21.6499 35.84 21.4277 35.3242 21.0462ZM34.3897 19.4059C34.3897 19.4256 34.3897 19.4472 34.3916 19.4669C34.3936 19.5004 34.3976 19.5318 34.4016 19.5653C34.4117 19.6537 34.4289 19.7411 34.4532 19.8268C34.4591 19.8525 34.467 19.876 34.4749 19.9016C34.4809 19.9193 34.4849 19.9351 34.4909 19.9508C34.5008 19.9803 34.5127 20.0078 34.5246 20.0372C34.5357 20.0683 34.549 20.0985 34.5643 20.1278C34.5741 20.153 34.5861 20.1773 34.6 20.2005C34.6239 20.2513 34.6511 20.3006 34.6813 20.348C34.7092 20.3955 34.7397 20.4415 34.7726 20.4857C34.8064 20.5348 34.8441 20.5821 34.8815 20.6272L34.8874 20.6332C34.9002 20.6499 34.9141 20.6657 34.9291 20.6804L34.945 20.6961C34.6183 20.3404 34.4227 19.8858 34.3897 19.4059ZM34.3837 18.0195C34.3837 17.8582 34.3817 17.695 34.3797 17.5337C34.3753 17.5695 34.374 17.6057 34.3758 17.6417C34.3797 17.7223 34.3817 17.801 34.3797 17.8777C34.3817 17.9799 34.3837 18.0861 34.3837 18.1883C34.3857 18.1314 34.3857 18.0763 34.3857 18.0194L34.3837 18.0195ZM34.3797 18.875C34.3797 18.6528 34.3837 18.4325 34.3837 18.2103C34.3797 18.5918 34.3658 18.9772 34.3877 19.3587C34.3815 19.1974 34.3797 19.0363 34.3797 18.875ZM34.3797 18.875C34.3797 18.6528 34.3837 18.4325 34.3837 18.2103C34.3797 18.5918 34.3658 18.9772 34.3877 19.3587C34.3815 19.1974 34.3797 19.0363 34.3797 18.875ZM34.3837 18.0195C34.3837 17.8582 34.3817 17.695 34.3797 17.5337C34.3753 17.5695 34.374 17.6057 34.3758 17.6417C34.3797 17.7223 34.3817 17.801 34.3797 17.8777C34.3817 17.9799 34.3837 18.0861 34.3837 18.1883C34.3857 18.1314 34.3857 18.0763 34.3857 18.0194L34.3837 18.0195ZM34.3897 19.4059C34.3897 19.4256 34.3897 19.4472 34.3916 19.4669C34.3936 19.5004 34.3976 19.5318 34.4016 19.5653C34.4117 19.6537 34.4289 19.7411 34.4532 19.8268C34.4591 19.8525 34.467 19.876 34.4749 19.9016C34.4809 19.9193 34.4849 19.9351 34.4909 19.9508C34.5008 19.9803 34.5127 20.0078 34.5246 20.0372C34.5357 20.0683 34.549 20.0985 34.5643 20.1278C34.5741 20.153 34.5861 20.1773 34.6 20.2005C34.6239 20.2513 34.6511 20.3006 34.6813 20.348C34.7092 20.3955 34.7397 20.4415 34.7726 20.4857C34.8064 20.5348 34.8441 20.5821 34.8815 20.6272L34.8874 20.6332C34.9002 20.6499 34.9141 20.6657 34.9291 20.6804L34.945 20.6961C34.6183 20.3404 34.4227 19.8858 34.3897 19.4059ZM35.3242 21.0462C35.8359 21.4349 36.456 21.658 37.1001 21.6853C36.4576 21.6499 35.84 21.4277 35.3242 21.0462ZM37.2429 14.3516C37.2263 14.352 37.2097 14.3533 37.1933 14.3556C37.229 14.3536 37.2628 14.3536 37.2965 14.3536C37.2786 14.352 37.2609 14.3513 37.2429 14.3516ZM39.0662 14.8905C39.0563 14.8826 39.0464 14.8768 39.0344 14.8689C38.9908 14.8394 38.9471 14.8118 38.9015 14.7863C38.8778 14.7705 38.8519 14.7568 38.8261 14.743C38.7785 14.7155 38.7289 14.69 38.6773 14.6663C38.6646 14.6592 38.6514 14.6533 38.6376 14.6486C38.5741 14.6172 38.5087 14.5896 38.4412 14.5641C38.4015 14.5484 38.3598 14.5346 38.318 14.5208C38.2525 14.4973 38.1831 14.4776 38.1136 14.4598C38.0779 14.45 38.0442 14.4421 38.0085 14.4343C37.9212 14.4145 37.8319 14.3967 37.7426 14.3851C37.6752 14.3753 37.6077 14.3693 37.5382 14.3635C38.0968 14.4127 38.6336 14.6022 39.0978 14.9141C39.0879 14.9055 39.0772 14.8976 39.0662 14.8905ZM40.1535 18.0213H40.1515C40.1515 18.098 40.1535 18.1748 40.1555 18.2534C40.1535 18.1748 40.1535 18.098 40.1535 18.0213ZM40.1456 16.5739C40.142 16.5179 40.1354 16.462 40.1257 16.4067C40.126 16.402 40.1254 16.3973 40.1237 16.3929C40.1178 16.3537 40.1079 16.3124 40.098 16.273C40.0864 16.219 40.0712 16.1657 40.0523 16.1137C40.0464 16.094 40.0404 16.0762 40.0325 16.0567C40.0219 16.0244 40.0093 15.9929 39.9946 15.9623C39.9827 15.9347 39.9709 15.9072 39.9567 15.8797C39.9349 15.8364 39.913 15.7932 39.8892 15.7499C39.8734 15.7224 39.8575 15.6949 39.8396 15.6692C39.8276 15.6471 39.8137 15.626 39.798 15.6063C39.7801 15.5787 39.7623 15.5532 39.7424 15.5277C39.729 15.5078 39.7144 15.4888 39.6988 15.4706C39.6872 15.4553 39.6746 15.4409 39.6609 15.4274C39.9501 15.7735 40.1204 16.202 40.147 16.6506C40.1649 17.0715 40.151 17.4924 40.151 17.9152C40.1557 17.4688 40.1773 17.0203 40.1456 16.5739ZM40.1555 18.2534C40.1555 18.3379 40.1555 18.4245 40.1575 18.5111C40.1612 18.4738 40.1619 18.4363 40.1595 18.399C40.1575 18.3498 40.1555 18.3026 40.1555 18.2534ZM40.1555 18.2534C40.1555 18.3379 40.1555 18.4245 40.1575 18.5111C40.1612 18.4738 40.1619 18.4363 40.1595 18.399C40.1575 18.3498 40.1555 18.3026 40.1555 18.2534ZM40.1456 16.5739C40.142 16.5179 40.1354 16.462 40.1257 16.4067C40.126 16.402 40.1254 16.3973 40.1237 16.3929C40.1178 16.3537 40.1079 16.3124 40.098 16.273C40.0864 16.219 40.0712 16.1657 40.0523 16.1137C40.0464 16.094 40.0404 16.0762 40.0325 16.0567C40.0219 16.0244 40.0093 15.9929 39.9946 15.9623C39.9827 15.9347 39.9709 15.9072 39.9567 15.8797C39.9349 15.8364 39.913 15.7932 39.8892 15.7499C39.8734 15.7224 39.8575 15.6949 39.8396 15.6692C39.8276 15.6471 39.8137 15.626 39.798 15.6063C39.7801 15.5787 39.7623 15.5532 39.7424 15.5277C39.729 15.5078 39.7144 15.4888 39.6988 15.4706C39.6872 15.4553 39.6746 15.4409 39.6609 15.4274C39.9501 15.7735 40.1204 16.202 40.147 16.6506C40.1649 17.0715 40.151 17.4924 40.151 17.9152C40.1557 17.4688 40.1773 17.0203 40.1456 16.5739ZM40.1535 18.0213H40.1515C40.1515 18.098 40.1535 18.1748 40.1555 18.2534C40.1535 18.1748 40.1535 18.098 40.1535 18.0213ZM39.0662 14.8905C39.0563 14.8826 39.0464 14.8768 39.0344 14.8689C38.9908 14.8394 38.9471 14.8118 38.9015 14.7863C38.8778 14.7705 38.8519 14.7568 38.8261 14.743C38.7785 14.7155 38.7289 14.69 38.6773 14.6663C38.6646 14.6592 38.6514 14.6533 38.6376 14.6486C38.5741 14.6172 38.5087 14.5896 38.4412 14.5641C38.4015 14.5484 38.3598 14.5346 38.318 14.5208C38.2525 14.4973 38.1831 14.4776 38.1136 14.4598C38.0779 14.45 38.0442 14.4421 38.0085 14.4343C37.9212 14.4145 37.8319 14.3967 37.7426 14.3851C37.6752 14.3753 37.6077 14.3693 37.5382 14.3635C38.0968 14.4127 38.6336 14.6022 39.0978 14.9141C39.0879 14.9055 39.0772 14.8976 39.0662 14.8905ZM37.2429 14.3516C37.2263 14.352 37.2097 14.3533 37.1933 14.3556C37.229 14.3536 37.2628 14.3536 37.2965 14.3536C37.2786 14.352 37.2609 14.3513 37.2429 14.3516ZM35.3242 21.0462C35.8359 21.4349 36.456 21.658 37.1001 21.6853C36.4576 21.6499 35.84 21.4277 35.3242 21.0462ZM34.3897 19.4059C34.3897 19.4256 34.3897 19.4472 34.3916 19.4669C34.3936 19.5004 34.3976 19.5318 34.4016 19.5653C34.4117 19.6537 34.4289 19.7411 34.4532 19.8268C34.4591 19.8525 34.467 19.876 34.4749 19.9016C34.4809 19.9193 34.4849 19.9351 34.4909 19.9508C34.5008 19.9803 34.5127 20.0078 34.5246 20.0372C34.5357 20.0683 34.549 20.0985 34.5643 20.1278C34.5741 20.153 34.5861 20.1773 34.6 20.2005C34.6239 20.2513 34.6511 20.3006 34.6813 20.348C34.7092 20.3955 34.7397 20.4415 34.7726 20.4857C34.8064 20.5348 34.8441 20.5821 34.8815 20.6272L34.8874 20.6332C34.9002 20.6499 34.9141 20.6657 34.9291 20.6804L34.945 20.6961C34.6183 20.3404 34.4227 19.8858 34.3897 19.4059ZM34.3837 18.0195C34.3837 17.8582 34.3817 17.695 34.3797 17.5337C34.3753 17.5695 34.374 17.6057 34.3758 17.6417C34.3797 17.7223 34.3817 17.801 34.3797 17.8777C34.3817 17.9799 34.3837 18.0861 34.3837 18.1883C34.3857 18.1314 34.3857 18.0763 34.3857 18.0194L34.3837 18.0195ZM34.3797 18.875C34.3797 18.6528 34.3837 18.4325 34.3837 18.2103C34.3797 18.5918 34.3658 18.9772 34.3877 19.3587C34.3815 19.1974 34.3797 19.0363 34.3797 18.875ZM34.3797 18.875C34.3797 18.6528 34.3837 18.4325 34.3837 18.2103C34.3797 18.5918 34.3658 18.9772 34.3877 19.3587C34.3815 19.1974 34.3797 19.0363 34.3797 18.875ZM34.3837 18.0195C34.3837 17.8582 34.3817 17.695 34.3797 17.5337C34.3753 17.5695 34.374 17.6057 34.3758 17.6417C34.3797 17.7223 34.3817 17.801 34.3797 17.8777C34.3817 17.9799 34.3837 18.0861 34.3837 18.1883C34.3857 18.1314 34.3857 18.0763 34.3857 18.0194L34.3837 18.0195ZM34.3897 19.4059C34.3897 19.4256 34.3897 19.4472 34.3916 19.4669C34.3936 19.5004 34.3976 19.5318 34.4016 19.5653C34.4117 19.6537 34.4289 19.7411 34.4532 19.8268C34.4591 19.8525 34.467 19.876 34.4749 19.9016C34.4809 19.9193 34.4849 19.9351 34.4909 19.9508C34.5008 19.9803 34.5127 20.0078 34.5246 20.0372C34.5357 20.0683 34.549 20.0985 34.5643 20.1278C34.5741 20.153 34.5861 20.1773 34.6 20.2005C34.6239 20.2513 34.6511 20.3006 34.6813 20.348C34.7092 20.3955 34.7397 20.4415 34.7726 20.4857C34.8064 20.5348 34.8441 20.5821 34.8815 20.6272L34.8874 20.6332C34.9002 20.6499 34.9141 20.6657 34.9291 20.6804L34.945 20.6961C34.6183 20.3404 34.4227 19.8858 34.3897 19.4059ZM35.3242 21.0462C35.8359 21.4349 36.456 21.658 37.1001 21.6853C36.4576 21.6499 35.84 21.4277 35.3242 21.0462ZM37.2429 14.3516C37.2263 14.352 37.2097 14.3533 37.1933 14.3556C37.229 14.3536 37.2628 14.3536 37.2965 14.3536C37.2786 14.352 37.2609 14.3513 37.2429 14.3516ZM39.0662 14.8905C39.0563 14.8826 39.0464 14.8768 39.0344 14.8689C38.9908 14.8394 38.9471 14.8118 38.9015 14.7863C38.8778 14.7705 38.8519 14.7568 38.8261 14.743C38.7785 14.7155 38.7289 14.69 38.6773 14.6663C38.6646 14.6592 38.6514 14.6533 38.6376 14.6486C38.5741 14.6172 38.5087 14.5896 38.4412 14.5641C38.4015 14.5484 38.3598 14.5346 38.318 14.5208C38.2525 14.4973 38.1831 14.4776 38.1136 14.4598C38.0779 14.45 38.0442 14.4421 38.0085 14.4343C37.9212 14.4145 37.8319 14.3967 37.7426 14.3851C37.6752 14.3753 37.6077 14.3693 37.5382 14.3635C38.0968 14.4127 38.6336 14.6022 39.0978 14.9141C39.0879 14.9055 39.0772 14.8976 39.0662 14.8905ZM40.1535 18.0213H40.1515C40.1515 18.098 40.1535 18.1748 40.1555 18.2534C40.1535 18.1748 40.1535 18.098 40.1535 18.0213ZM40.1456 16.5739C40.142 16.5179 40.1354 16.462 40.1257 16.4067C40.126 16.402 40.1254 16.3973 40.1237 16.3929C40.1178 16.3537 40.1079 16.3124 40.098 16.273C40.0864 16.219 40.0712 16.1657 40.0523 16.1137C40.0464 16.094 40.0404 16.0762 40.0325 16.0567C40.0219 16.0244 40.0093 15.9929 39.9946 15.9623C39.9827 15.9347 39.9709 15.9072 39.9567 15.8797C39.9349 15.8364 39.913 15.7932 39.8892 15.7499C39.8734 15.7224 39.8575 15.6949 39.8396 15.6692C39.8276 15.6471 39.8137 15.626 39.798 15.6063C39.7801 15.5787 39.7623 15.5532 39.7424 15.5277C39.729 15.5078 39.7144 15.4888 39.6988 15.4706C39.6872 15.4553 39.6746 15.4409 39.6609 15.4274C39.9501 15.7735 40.1204 16.202 40.147 16.6506C40.1649 17.0715 40.151 17.4924 40.151 17.9152C40.1557 17.4688 40.1773 17.0203 40.1456 16.5739ZM40.1555 18.2534C40.1555 18.3379 40.1555 18.4245 40.1575 18.5111C40.1612 18.4738 40.1619 18.4363 40.1595 18.399C40.1575 18.3498 40.1555 18.3026 40.1555 18.2534ZM40.1555 18.2534C40.1555 18.3379 40.1555 18.4245 40.1575 18.5111C40.1612 18.4738 40.1619 18.4363 40.1595 18.399C40.1575 18.3498 40.1555 18.3026 40.1555 18.2534ZM40.1456 16.5739C40.142 16.5179 40.1354 16.462 40.1257 16.4067C40.126 16.402 40.1254 16.3973 40.1237 16.3929C40.1178 16.3537 40.1079 16.3124 40.098 16.273C40.0864 16.219 40.0712 16.1657 40.0523 16.1137C40.0464 16.094 40.0404 16.0762 40.0325 16.0567C40.0219 16.0244 40.0093 15.9929 39.9946 15.9623C39.9827 15.9347 39.9709 15.9072 39.9567 15.8797C39.9349 15.8364 39.913 15.7932 39.8892 15.7499C39.8734 15.7224 39.8575 15.6949 39.8396 15.6692C39.8276 15.6471 39.8137 15.626 39.798 15.6063C39.7801 15.5787 39.7623 15.5532 39.7424 15.5277C39.729 15.5078 39.7144 15.4888 39.6988 15.4706C39.6872 15.4553 39.6746 15.4409 39.6609 15.4274C39.9501 15.7735 40.1204 16.202 40.147 16.6506C40.1649 17.0715 40.151 17.4924 40.151 17.9152C40.1557 17.4688 40.1773 17.0203 40.1456 16.5739ZM40.1535 18.0213H40.1515C40.1515 18.098 40.1535 18.1748 40.1555 18.2534C40.1535 18.1748 40.1535 18.098 40.1535 18.0213ZM39.0662 14.8905C39.0563 14.8826 39.0464 14.8768 39.0344 14.8689C38.9908 14.8394 38.9471 14.8118 38.9015 14.7863C38.8778 14.7705 38.8519 14.7568 38.8261 14.743C38.7785 14.7155 38.7289 14.69 38.6773 14.6663C38.6646 14.6592 38.6514 14.6533 38.6376 14.6486C38.5741 14.6172 38.5087 14.5896 38.4412 14.5641C38.4015 14.5484 38.3598 14.5346 38.318 14.5208C38.2525 14.4973 38.1831 14.4776 38.1136 14.4598C38.0779 14.45 38.0442 14.4421 38.0085 14.4343C37.9212 14.4145 37.8319 14.3967 37.7426 14.3851C37.6752 14.3753 37.6077 14.3693 37.5382 14.3635C38.0968 14.4127 38.6336 14.6022 39.0978 14.9141C39.0879 14.9055 39.0772 14.8976 39.0662 14.8905ZM37.2429 14.3516C37.2263 14.352 37.2097 14.3533 37.1933 14.3556C37.229 14.3536 37.2628 14.3536 37.2965 14.3536C37.2786 14.352 37.2609 14.3513 37.2429 14.3516ZM35.3242 21.0462C35.8359 21.4349 36.456 21.658 37.1001 21.6853C36.4576 21.6499 35.84 21.4277 35.3242 21.0462ZM34.3897 19.4059C34.3897 19.4256 34.3897 19.4472 34.3916 19.4669C34.3936 19.5004 34.3976 19.5318 34.4016 19.5653C34.4117 19.6537 34.4289 19.7411 34.4532 19.8268C34.4591 19.8525 34.467 19.876 34.4749 19.9016C34.4809 19.9193 34.4849 19.9351 34.4909 19.9508C34.5008 19.9803 34.5127 20.0078 34.5246 20.0372C34.5357 20.0683 34.549 20.0985 34.5643 20.1278C34.5741 20.153 34.5861 20.1773 34.6 20.2005C34.6239 20.2513 34.6511 20.3006 34.6813 20.348C34.7092 20.3955 34.7397 20.4415 34.7726 20.4857C34.8064 20.5348 34.8441 20.5821 34.8815 20.6272L34.8874 20.6332C34.9002 20.6499 34.9141 20.6657 34.9291 20.6804L34.945 20.6961C34.6183 20.3404 34.4227 19.8858 34.3897 19.4059ZM34.3837 18.0195C34.3837 17.8582 34.3817 17.695 34.3797 17.5337C34.3753 17.5695 34.374 17.6057 34.3758 17.6417C34.3797 17.7223 34.3817 17.801 34.3797 17.8777C34.3817 17.9799 34.3837 18.0861 34.3837 18.1883C34.3857 18.1314 34.3857 18.0763 34.3857 18.0194L34.3837 18.0195ZM34.3797 18.875C34.3797 18.6528 34.3837 18.4325 34.3837 18.2103C34.3797 18.5918 34.3658 18.9772 34.3877 19.3587C34.3815 19.1974 34.3797 19.0363 34.3797 18.875ZM34.3797 18.875C34.3797 18.6528 34.3837 18.4325 34.3837 18.2103C34.3797 18.5918 34.3658 18.9772 34.3877 19.3587C34.3815 19.1974 34.3797 19.0363 34.3797 18.875ZM34.3837 18.0195C34.3837 17.8582 34.3817 17.695 34.3797 17.5337C34.3753 17.5695 34.374 17.6057 34.3758 17.6417C34.3797 17.7223 34.3817 17.801 34.3797 17.8777C34.3817 17.9799 34.3837 18.0861 34.3837 18.1883C34.3857 18.1314 34.3857 18.0763 34.3857 18.0194L34.3837 18.0195ZM34.3897 19.4059C34.3897 19.4256 34.3897 19.4472 34.3916 19.4669C34.3936 19.5004 34.3976 19.5318 34.4016 19.5653C34.4117 19.6537 34.4289 19.7411 34.4532 19.8268C34.4591 19.8525 34.467 19.876 34.4749 19.9016C34.4809 19.9193 34.4849 19.9351 34.4909 19.9508C34.5008 19.9803 34.5127 20.0078 34.5246 20.0372C34.5357 20.0683 34.549 20.0985 34.5643 20.1278C34.5741 20.153 34.5861 20.1773 34.6 20.2005C34.6239 20.2513 34.6511 20.3006 34.6813 20.348C34.7092 20.3955 34.7397 20.4415 34.7726 20.4857C34.8064 20.5348 34.8441 20.5821 34.8815 20.6272L34.8874 20.6332C34.9002 20.6499 34.9141 20.6657 34.9291 20.6804L34.945 20.6961C34.6183 20.3404 34.4227 19.8858 34.3897 19.4059ZM35.3242 21.0462C35.8359 21.4349 36.456 21.658 37.1001 21.6853C36.4576 21.6499 35.84 21.4277 35.3242 21.0462ZM37.2429 14.3516C37.2263 14.352 37.2097 14.3533 37.1933 14.3556C37.229 14.3536 37.2628 14.3536 37.2965 14.3536C37.2786 14.352 37.2609 14.3513 37.2429 14.3516ZM39.0662 14.8905C39.0563 14.8826 39.0464 14.8768 39.0344 14.8689C38.9908 14.8394 38.9471 14.8118 38.9015 14.7863C38.8778 14.7705 38.8519 14.7568 38.8261 14.743C38.7785 14.7155 38.7289 14.69 38.6773 14.6663C38.6646 14.6592 38.6514 14.6533 38.6376 14.6486C38.5741 14.6172 38.5087 14.5896 38.4412 14.5641C38.4015 14.5484 38.3598 14.5346 38.318 14.5208C38.2525 14.4973 38.1831 14.4776 38.1136 14.4598C38.0779 14.45 38.0442 14.4421 38.0085 14.4343C37.9212 14.4145 37.8319 14.3967 37.7426 14.3851C37.6752 14.3753 37.6077 14.3693 37.5382 14.3635C38.0968 14.4127 38.6336 14.6022 39.0978 14.9141C39.0879 14.9055 39.0772 14.8976 39.0662 14.8905ZM40.1535 18.0213H40.1515C40.1515 18.098 40.1535 18.1748 40.1555 18.2534C40.1535 18.1748 40.1535 18.098 40.1535 18.0213ZM40.1456 16.5739C40.142 16.5179 40.1354 16.462 40.1257 16.4067C40.126 16.402 40.1254 16.3973 40.1237 16.3929C40.1178 16.3537 40.1079 16.3124 40.098 16.273C40.0864 16.219 40.0712 16.1657 40.0523 16.1137C40.0464 16.094 40.0404 16.0762 40.0325 16.0567C40.0219 16.0244 40.0093 15.9929 39.9946 15.9623C39.9827 15.9347 39.9709 15.9072 39.9567 15.8797C39.9349 15.8364 39.913 15.7932 39.8892 15.7499C39.8734 15.7224 39.8575 15.6949 39.8396 15.6692C39.8276 15.6471 39.8137 15.626 39.798 15.6063C39.7801 15.5787 39.7623 15.5532 39.7424 15.5277C39.729 15.5078 39.7144 15.4888 39.6988 15.4706C39.6872 15.4553 39.6746 15.4409 39.6609 15.4274C39.9501 15.7735 40.1204 16.202 40.147 16.6506C40.1649 17.0715 40.151 17.4924 40.151 17.9152C40.1557 17.4688 40.1773 17.0203 40.1456 16.5739ZM40.1555 18.2534C40.1555 18.3379 40.1555 18.4245 40.1575 18.5111C40.1612 18.4738 40.1619 18.4363 40.1595 18.399C40.1575 18.3498 40.1555 18.3026 40.1555 18.2534ZM40.1456 16.5739C40.142 16.5179 40.1354 16.462 40.1257 16.4067C40.126 16.402 40.1254 16.3973 40.1237 16.3929C40.1178 16.3537 40.1079 16.3124 40.098 16.273C40.0864 16.219 40.0712 16.1657 40.0523 16.1137C40.0464 16.094 40.0404 16.0762 40.0325 16.0567C40.0219 16.0244 40.0093 15.9929 39.9946 15.9623C39.9827 15.9347 39.9709 15.9072 39.9567 15.8797C39.9349 15.8364 39.913 15.7932 39.8892 15.7499C39.8734 15.7224 39.8575 15.6949 39.8396 15.6692C39.8276 15.6471 39.8137 15.626 39.798 15.6063C39.7801 15.5787 39.7623 15.5532 39.7424 15.5277C39.729 15.5078 39.7144 15.4888 39.6988 15.4706C39.6872 15.4553 39.6746 15.4409 39.6609 15.4274C39.9501 15.7735 40.1204 16.202 40.147 16.6506C40.1649 17.0715 40.151 17.4924 40.151 17.9152C40.1557 17.4688 40.1773 17.0203 40.1456 16.5739ZM40.1555 18.2534C40.1555 18.3379 40.1555 18.4245 40.1575 18.5111C40.1612 18.4738 40.1619 18.4363 40.1595 18.399C40.1575 18.3498 40.1555 18.3026 40.1555 18.2534ZM40.1535 18.0213H40.1515C40.1515 18.098 40.1535 18.1748 40.1555 18.2534C40.1535 18.1748 40.1535 18.098 40.1535 18.0213ZM39.0662 14.8905C39.0563 14.8826 39.0464 14.8768 39.0344 14.8689C38.9908 14.8394 38.9471 14.8118 38.9015 14.7863C38.8778 14.7705 38.8519 14.7568 38.8261 14.743C38.7785 14.7155 38.7289 14.69 38.6773 14.6663C38.6646 14.6592 38.6514 14.6533 38.6376 14.6486C38.5741 14.6172 38.5087 14.5896 38.4412 14.5641C38.4015 14.5484 38.3598 14.5346 38.318 14.5208C38.2525 14.4973 38.1831 14.4776 38.1136 14.4598C38.0779 14.45 38.0442 14.4421 38.0085 14.4343C37.9212 14.4145 37.8319 14.3967 37.7426 14.3851C37.6752 14.3753 37.6077 14.3693 37.5382 14.3635C38.0968 14.4127 38.6336 14.6022 39.0978 14.9141C39.0879 14.9055 39.0772 14.8976 39.0662 14.8905ZM37.2429 14.3516C37.2263 14.352 37.2097 14.3533 37.1933 14.3556C37.229 14.3536 37.2628 14.3536 37.2965 14.3536C37.2786 14.352 37.2609 14.3513 37.2429 14.3516ZM35.3242 21.0462C35.8359 21.4349 36.456 21.658 37.1001 21.6853C36.4576 21.6499 35.84 21.4277 35.3242 21.0462ZM34.3897 19.4059C34.3897 19.4256 34.3897 19.4472 34.3916 19.4669C34.3936 19.5004 34.3976 19.5318 34.4016 19.5653C34.4117 19.6537 34.4289 19.7411 34.4532 19.8268C34.4591 19.8525 34.467 19.876 34.4749 19.9016C34.4809 19.9193 34.4849 19.9351 34.4909 19.9508C34.5008 19.9803 34.5127 20.0078 34.5246 20.0372C34.5357 20.0683 34.549 20.0985 34.5643 20.1278C34.5741 20.153 34.5861 20.1773 34.6 20.2005C34.6239 20.2513 34.6511 20.3006 34.6813 20.348C34.7092 20.3955 34.7397 20.4415 34.7726 20.4857C34.8064 20.5348 34.8441 20.5821 34.8815 20.6272L34.8874 20.6332C34.9002 20.6499 34.9141 20.6657 34.9291 20.6804L34.945 20.6961C34.6183 20.3404 34.4227 19.8858 34.3897 19.4059ZM34.3837 18.0195C34.3837 17.8582 34.3817 17.695 34.3797 17.5337C34.3753 17.5695 34.374 17.6057 34.3758 17.6417C34.3797 17.7223 34.3817 17.801 34.3797 17.8777C34.3817 17.9799 34.3837 18.0861 34.3837 18.1883C34.3857 18.1314 34.3857 18.0763 34.3857 18.0194L34.3837 18.0195ZM34.3797 18.875C34.3797 18.6528 34.3837 18.4325 34.3837 18.2103C34.3797 18.5918 34.3658 18.9772 34.3877 19.3587C34.3815 19.1974 34.3797 19.0363 34.3797 18.875ZM40.1456 16.5739C40.142 16.5179 40.1354 16.462 40.1257 16.4067C40.126 16.402 40.1254 16.3973 40.1237 16.3929C40.1178 16.3537 40.1079 16.3124 40.098 16.273C40.0864 16.219 40.0712 16.1657 40.0523 16.1137C40.0464 16.094 40.0404 16.0762 40.0325 16.0567C40.0219 16.0244 40.0093 15.9929 39.9946 15.9623C39.9827 15.9347 39.9709 15.9072 39.9567 15.8797C39.9349 15.8364 39.913 15.7932 39.8892 15.7499C39.8734 15.7224 39.8575 15.6949 39.8396 15.6692C39.8276 15.6471 39.8137 15.626 39.798 15.6063C39.7801 15.5787 39.7623 15.5532 39.7424 15.5277C39.729 15.5078 39.7144 15.4888 39.6988 15.4706C39.6872 15.4553 39.6746 15.4409 39.6609 15.4274C39.9501 15.7735 40.1204 16.202 40.147 16.6506C40.1649 17.0715 40.151 17.4924 40.151 17.9152C40.1557 17.4688 40.1773 17.0203 40.1456 16.5739ZM40.1555 18.2534C40.1555 18.3379 40.1555 18.4245 40.1575 18.5111C40.1612 18.4738 40.1619 18.4363 40.1595 18.399C40.1575 18.3498 40.1555 18.3026 40.1555 18.2534ZM40.1535 18.0213H40.1515C40.1515 18.098 40.1535 18.1748 40.1555 18.2534C40.1535 18.1748 40.1535 18.098 40.1535 18.0213ZM39.0662 14.8905C39.0563 14.8826 39.0464 14.8768 39.0344 14.8689C38.9908 14.8394 38.9471 14.8118 38.9015 14.7863C38.8778 14.7705 38.8519 14.7568 38.8261 14.743C38.7785 14.7155 38.7289 14.69 38.6773 14.6663C38.6646 14.6592 38.6514 14.6533 38.6376 14.6486C38.5741 14.6172 38.5087 14.5896 38.4412 14.5641C38.4015 14.5484 38.3598 14.5346 38.318 14.5208C38.2525 14.4973 38.1831 14.4776 38.1136 14.4598C38.0779 14.45 38.0442 14.4421 38.0085 14.4343C37.9212 14.4145 37.8319 14.3967 37.7426 14.3851C37.6752 14.3753 37.6077 14.3693 37.5382 14.3635C38.0968 14.4127 38.6336 14.6022 39.0978 14.9141C39.0879 14.9055 39.0772 14.8976 39.0662 14.8905ZM37.2429 14.3516C37.2263 14.352 37.2097 14.3533 37.1933 14.3556C37.229 14.3536 37.2628 14.3536 37.2965 14.3536C37.2786 14.352 37.2609 14.3513 37.2429 14.3516ZM35.3242 21.0462C35.8359 21.4349 36.456 21.658 37.1001 21.6853C36.4576 21.6499 35.84 21.4277 35.3242 21.0462ZM34.3897 19.4059C34.3897 19.4256 34.3897 19.4472 34.3916 19.4669C34.3936 19.5004 34.3976 19.5318 34.4016 19.5653C34.4117 19.6537 34.4289 19.7411 34.4532 19.8268C34.4591 19.8525 34.467 19.876 34.4749 19.9016C34.4809 19.9193 34.4849 19.9351 34.4909 19.9508C34.5008 19.9803 34.5127 20.0078 34.5246 20.0372C34.5357 20.0683 34.549 20.0985 34.5643 20.1278C34.5741 20.153 34.5861 20.1773 34.6 20.2005C34.6239 20.2513 34.6511 20.3006 34.6813 20.348C34.7092 20.3955 34.7397 20.4415 34.7726 20.4857C34.8064 20.5348 34.8441 20.5821 34.8815 20.6272L34.8874 20.6332C34.9002 20.6499 34.9141 20.6657 34.9291 20.6804L34.945 20.6961C34.6183 20.3404 34.4227 19.8858 34.3897 19.4059ZM34.3837 18.0195C34.3837 17.8582 34.3817 17.695 34.3797 17.5337C34.3753 17.5695 34.374 17.6057 34.3758 17.6417C34.3797 17.7223 34.3817 17.801 34.3797 17.8777C34.3817 17.9799 34.3837 18.0861 34.3837 18.1883C34.3857 18.1314 34.3857 18.0763 34.3857 18.0194L34.3837 18.0195ZM34.3797 18.875C34.3797 18.6528 34.3837 18.4325 34.3837 18.2103C34.3797 18.5918 34.3658 18.9772 34.3877 19.3587C34.3815 19.1974 34.3797 19.0363 34.3797 18.875ZM40.1456 16.5739C40.142 16.5179 40.1354 16.462 40.1257 16.4067C40.126 16.402 40.1254 16.3973 40.1237 16.3929C40.1178 16.3537 40.1079 16.3124 40.098 16.273C40.0864 16.219 40.0712 16.1657 40.0523 16.1137C40.0464 16.094 40.0404 16.0762 40.0325 16.0567C40.0219 16.0244 40.0093 15.9929 39.9946 15.9623C39.9827 15.9347 39.9709 15.9072 39.9567 15.8797C39.9349 15.8364 39.913 15.7932 39.8892 15.7499C39.8734 15.7224 39.8575 15.6949 39.8396 15.6692C39.8276 15.6471 39.8137 15.626 39.798 15.6063C39.7801 15.5787 39.7623 15.5532 39.7424 15.5277C39.729 15.5078 39.7144 15.4888 39.6988 15.4706C39.6872 15.4553 39.6746 15.4409 39.6609 15.4274C39.9501 15.7735 40.1204 16.202 40.147 16.6506C40.1649 17.0715 40.151 17.4924 40.151 17.9152C40.1557 17.4688 40.1773 17.0203 40.1456 16.5739ZM40.1555 18.2534C40.1555 18.3379 40.1555 18.4245 40.1575 18.5111C40.1612 18.4738 40.1619 18.4363 40.1595 18.399C40.1575 18.3498 40.1555 18.3026 40.1555 18.2534ZM40.1535 18.0213H40.1515C40.1515 18.098 40.1535 18.1748 40.1555 18.2534C40.1535 18.1748 40.1535 18.098 40.1535 18.0213ZM39.0662 14.8905C39.0563 14.8826 39.0464 14.8768 39.0344 14.8689C38.9908 14.8394 38.9471 14.8118 38.9015 14.7863C38.8778 14.7705 38.8519 14.7568 38.8261 14.743C38.7785 14.7155 38.7289 14.69 38.6773 14.6663C38.6646 14.6592 38.6514 14.6533 38.6376 14.6486C38.5741 14.6172 38.5087 14.5896 38.4412 14.5641C38.4015 14.5484 38.3598 14.5346 38.318 14.5208C38.2525 14.4973 38.1831 14.4776 38.1136 14.4598C38.0779 14.45 38.0442 14.4421 38.0085 14.4343C37.9212 14.4145 37.8319 14.3967 37.7426 14.3851C37.6752 14.3753 37.6077 14.3693 37.5382 14.3635C38.0968 14.4127 38.6336 14.6022 39.0978 14.9141C39.0879 14.9055 39.0772 14.8976 39.0662 14.8905ZM37.2429 14.3516C37.2263 14.352 37.2097 14.3533 37.1933 14.3556C37.229 14.3536 37.2628 14.3536 37.2965 14.3536C37.2786 14.352 37.2609 14.3513 37.2429 14.3516ZM35.3242 21.0462C35.8359 21.4349 36.456 21.658 37.1001 21.6853C36.4576 21.6499 35.84 21.4277 35.3242 21.0462ZM34.3897 19.4059C34.3897 19.4256 34.3897 19.4472 34.3916 19.4669C34.3936 19.5004 34.3976 19.5318 34.4016 19.5653C34.4117 19.6537 34.4289 19.7411 34.4532 19.8268C34.4591 19.8525 34.467 19.876 34.4749 19.9016C34.4809 19.9193 34.4849 19.9351 34.4909 19.9508C34.5008 19.9803 34.5127 20.0078 34.5246 20.0372C34.5357 20.0683 34.549 20.0985 34.5643 20.1278C34.5741 20.153 34.5861 20.1773 34.6 20.2005C34.6239 20.2513 34.6511 20.3006 34.6813 20.348C34.7092 20.3955 34.7397 20.4415 34.7726 20.4857C34.8064 20.5348 34.8441 20.5821 34.8815 20.6272L34.8874 20.6332C34.9002 20.6499 34.9141 20.6657 34.9291 20.6804L34.945 20.6961C34.6183 20.3404 34.4227 19.8858 34.3897 19.4059ZM34.3837 18.0195C34.3837 17.8582 34.3817 17.695 34.3797 17.5337C34.3753 17.5695 34.374 17.6057 34.3758 17.6417C34.3797 17.7223 34.3817 17.801 34.3797 17.8777C34.3817 17.9799 34.3837 18.0861 34.3837 18.1883C34.3857 18.1314 34.3857 18.0763 34.3857 18.0194L34.3837 18.0195ZM34.3797 18.875C34.3797 18.6528 34.3837 18.4325 34.3837 18.2103C34.3797 18.5918 34.3658 18.9772 34.3877 19.3587C34.3815 19.1974 34.3797 19.0363 34.3797 18.875Z" fill="#3A86FF"/>
<path d="M27.6258 12.9143C27.6258 5.32112 21.0899 2.10369 11.7246 0.945317V6.3911L9.49036 5.25047L7.25616 6.3911V0.549945C5.24819 0.433957 3.15289 0.384766 0.996115 0.384766V21.4924C0.989738 25.5515 2.43139 29.4821 5.06624 32.5895C7.70109 35.6968 11.3595 37.7808 15.3947 38.4731C22.7537 39.7165 27.6278 42.3888 27.6278 47.6494C27.6278 42.2143 32.8296 39.5421 40.6001 38.3541C44.4147 37.7556 47.8878 35.8253 50.3926 32.9115C52.8974 29.9978 54.2688 26.2926 54.2595 22.4646V0.384766C39.5507 0.384766 27.6258 2.65824 27.6258 12.9143ZM15.9866 24.4586C13.0738 24.1458 10.6333 21.8115 10.7801 19.2745C10.8396 18.2735 10.7662 17.2685 10.8118 16.2636C10.9289 13.5732 13.5322 11.5003 16.7902 11.4825C20.2586 11.4649 22.8796 13.585 22.959 16.4858C22.9709 16.9892 22.961 17.4928 22.961 18.1457C22.9133 19.0699 23.0423 20.1536 22.5919 21.2137C21.6633 23.4123 18.7744 24.7615 15.9866 24.4586ZM34.1259 31.6054C33.3585 32.5896 32.3738 33.3864 31.2473 33.9345C30.1209 34.4827 28.8827 34.7678 27.6277 34.7678C26.3728 34.7678 25.1346 34.4827 24.0081 33.9345C22.8817 33.3864 21.897 32.5896 21.1296 31.6054C20.9866 31.4194 20.899 31.1975 20.8766 30.9648C20.8542 30.7321 20.8978 30.4978 21.0027 30.2883C21.1075 30.0789 21.2693 29.9027 21.4698 29.7796C21.6704 29.6565 21.9016 29.5914 22.1375 29.5917H33.116C33.3519 29.5915 33.5831 29.6566 33.7837 29.7796C33.9842 29.9027 34.1461 30.0788 34.2511 30.2881C34.3561 30.4975 34.4 30.7317 34.3779 30.9644C34.3558 31.1972 34.2685 31.4192 34.1259 31.6054ZM44.0032 21.1998C43.0371 23.55 40.2412 24.8342 37.3324 24.4645C36.3636 24.3829 35.4298 24.0665 34.6133 23.5432C33.7967 23.0198 33.1225 22.3056 32.6498 21.4634C32.364 20.9958 32.2067 20.4622 32.1934 19.9157C32.2034 19.2942 32.1974 18.6708 32.1974 17.7406C32.253 17.0719 32.0427 16.0905 32.4157 15.1229C33.124 13.2762 34.5666 12.0353 36.8384 11.6085C39.9735 11.0166 42.789 12.285 44.0093 14.7256C44.1405 15.0005 44.2224 15.296 44.2513 15.5987C44.4497 17.4789 44.7453 19.4003 44.0032 21.1998Z" fill="#3A86FF"/>
<path d="M11.7223 0.9442V6.38998L9.48811 5.24936L7.25391 6.38998V0.548828C8.80161 0.637356 10.2957 0.767191 11.7223 0.9442Z" fill="white"/>
<path d="M40.1548 18.2534C40.1548 18.3379 40.1548 18.4245 40.1567 18.511C40.1605 18.4738 40.1611 18.4363 40.1587 18.399C40.1566 18.3498 40.1548 18.3026 40.1548 18.2534ZM39.0655 14.8904C39.0556 14.8825 39.0457 14.8767 39.0337 14.8688C38.9901 14.8393 38.9465 14.8118 38.9008 14.7862C38.8771 14.7705 38.8512 14.7567 38.8254 14.7429C38.7778 14.7154 38.7282 14.6899 38.6766 14.6663C38.664 14.6591 38.6507 14.6532 38.6369 14.6485C38.5735 14.6171 38.508 14.5896 38.4405 14.564C38.4008 14.5483 38.3591 14.5345 38.3174 14.5207C38.2519 14.4973 38.1824 14.4775 38.113 14.4597C38.0773 14.4499 38.0435 14.442 38.0078 14.4342C37.9205 14.4145 37.8312 14.3966 37.7419 14.385C37.6745 14.3752 37.605 14.3673 37.5376 14.3634C38.0962 14.4126 38.6329 14.6021 39.0971 14.914C39.0871 14.9054 39.0766 14.8975 39.0655 14.8904ZM37.2422 14.3516C37.2256 14.3519 37.2091 14.3532 37.1926 14.3555C37.2284 14.3535 37.2621 14.3535 37.2958 14.3535C37.2779 14.3519 37.2603 14.3512 37.2422 14.3516ZM34.9446 20.696C34.6179 20.3403 34.4221 19.8857 34.389 19.4058C34.389 19.4255 34.389 19.4471 34.391 19.4669C34.393 19.5004 34.3969 19.5318 34.4009 19.5652C34.411 19.6536 34.4282 19.7411 34.4525 19.8267C34.4584 19.8524 34.4664 19.8759 34.4743 19.9016C34.4802 19.9193 34.4842 19.935 34.4902 19.9508C34.5001 19.9802 34.512 20.0077 34.5239 20.0372C34.5351 20.0682 34.5483 20.0984 34.5636 20.1277C34.5735 20.1529 34.5854 20.1772 34.5993 20.2004C34.6233 20.2512 34.6504 20.3005 34.6807 20.3479C34.7085 20.3954 34.739 20.4414 34.7719 20.4856C34.8057 20.5348 34.8434 20.582 34.8808 20.6271L34.8868 20.6331C34.8995 20.6498 34.9134 20.6656 34.9284 20.6803C34.9424 20.696 34.9542 20.7117 34.9701 20.7275C34.984 20.7432 34.9999 20.759 35.0157 20.7744C34.9918 20.749 34.9684 20.7216 34.9446 20.696ZM34.379 18.8747C34.379 18.6525 34.383 18.4322 34.383 18.21C34.379 18.5915 34.3652 18.9769 34.387 19.3585C34.3806 19.1974 34.379 19.036 34.379 18.8747Z" fill="#F7F9FC"/>
<path d="M44.2513 15.5983C44.2224 15.2955 44.1405 15.0001 44.0093 14.7252C42.789 12.2846 39.9735 11.0161 36.8385 11.608C34.5666 12.0349 33.124 13.2757 32.4157 15.1225C32.0427 16.09 32.253 17.0715 32.1974 17.7401C32.1974 18.6703 32.2034 19.2938 32.1935 19.9152C32.2067 20.4618 32.3641 20.9953 32.6499 21.4629C33.1225 22.3052 33.7968 23.0194 34.6133 23.5427C35.4299 24.0661 36.3637 24.3824 37.3326 24.464C40.2413 24.8338 43.037 23.5496 44.0033 21.1994C44.7454 19.3998 44.4498 17.4784 44.2513 15.5983ZM40.154 18.0211C40.154 18.0978 40.154 18.1746 40.156 18.2532C40.156 18.3024 40.158 18.3496 40.16 18.3987C40.1624 18.436 40.1617 18.4735 40.158 18.5108C40.1361 18.729 39.9993 18.7842 39.6659 18.8038C38.0865 18.906 37.388 20.0251 38.1758 21.1873C38.3703 21.4784 38.3107 21.5296 37.9595 21.6122C37.9099 21.624 37.8603 21.6338 37.8107 21.6417C37.7813 21.6482 37.7515 21.6528 37.7214 21.6555C37.674 21.6634 37.6282 21.6692 37.5806 21.6732C37.4652 21.6853 37.3493 21.6905 37.2333 21.6889C37.1936 21.6889 37.1539 21.6869 37.1123 21.685H37.1004C36.4562 21.6577 35.8362 21.4345 35.3244 21.0458C35.2914 21.0226 35.2596 20.9976 35.2292 20.971C35.1835 20.9317 35.136 20.8924 35.0923 20.849C35.0665 20.8233 35.0407 20.7998 35.0168 20.7741C35.001 20.7585 34.9851 20.7427 34.9712 20.7272C34.9554 20.7114 34.9435 20.6957 34.9296 20.68C34.9146 20.6653 34.9006 20.6495 34.8879 20.6328L34.882 20.6268C34.8428 20.5819 34.8065 20.5346 34.773 20.4853C34.7401 20.4411 34.7097 20.3951 34.6818 20.3476C34.6516 20.3002 34.6244 20.2509 34.6005 20.2001C34.5866 20.1769 34.5746 20.1526 34.5647 20.1274C34.5495 20.0981 34.5362 20.0679 34.525 20.0369C34.5131 20.0074 34.5014 19.9799 34.4913 19.9504C34.4853 19.9347 34.4814 19.9189 34.4754 19.9012C34.4675 19.8756 34.4595 19.8521 34.4536 19.8264C34.4294 19.7408 34.4121 19.6533 34.402 19.5649C34.3981 19.5315 34.3941 19.5001 34.3921 19.4665C34.3901 19.4468 34.3901 19.4252 34.3901 19.4055C34.3875 19.39 34.3868 19.3742 34.3881 19.3586C34.3663 18.9771 34.3802 18.5916 34.3841 18.2101C34.3851 18.2029 34.3851 18.1956 34.3841 18.1884C34.3841 18.0861 34.3822 17.9799 34.3802 17.8777C34.3822 17.801 34.3802 17.7224 34.3762 17.6417C34.3744 17.6057 34.3758 17.5696 34.3802 17.5338C34.3782 17.2525 34.3762 16.9733 34.3861 16.6939C34.4258 15.5002 35.5231 14.5206 36.9198 14.3714H36.9237C37.0289 14.3596 37.1361 14.3536 37.2432 14.3517C37.2611 14.3514 37.2789 14.352 37.2967 14.3536C37.3318 14.3523 37.3669 14.353 37.4019 14.3556C37.4475 14.3575 37.4932 14.3596 37.5388 14.3635C37.6063 14.3674 37.6758 14.3753 37.7432 14.3851C37.8325 14.3969 37.9218 14.4146 38.0091 14.4343C38.0448 14.4421 38.0785 14.45 38.1142 14.4598C38.1837 14.4776 38.2531 14.4974 38.3186 14.5208C38.3603 14.5346 38.4019 14.5484 38.4418 14.5641C38.5093 14.5897 38.5747 14.6173 38.6382 14.6486C38.652 14.6533 38.6652 14.6592 38.6779 14.6664C38.7295 14.69 38.7791 14.7155 38.8267 14.743C38.8525 14.7568 38.8783 14.7706 38.9021 14.7863C38.9477 14.8119 38.9914 14.8394 39.035 14.8689C39.047 14.8768 39.0569 14.8826 39.0668 14.8905C39.0972 14.9097 39.1263 14.9308 39.1541 14.9535C39.1739 14.9672 39.192 14.981 39.2116 14.9948C39.2453 15.0187 39.2778 15.0442 39.3088 15.0714C39.3366 15.0949 39.3644 15.1187 39.3902 15.1423C39.4103 15.1589 39.4295 15.1767 39.4477 15.1954C39.477 15.2214 39.5048 15.249 39.531 15.278C39.5609 15.3095 39.5906 15.3429 39.6204 15.3763C39.6342 15.392 39.6482 15.4097 39.662 15.4275C39.6757 15.441 39.6884 15.4554 39.6999 15.4707C39.7156 15.4889 39.7302 15.5079 39.7436 15.5277C39.7634 15.5533 39.7815 15.5788 39.7991 15.6064C39.8148 15.6261 39.8288 15.6472 39.8408 15.6693C39.8587 15.6949 39.8745 15.7225 39.8904 15.75C39.9141 15.7932 39.9361 15.8365 39.9579 15.8798C39.9718 15.9073 39.9836 15.9348 39.9958 15.9624C40.0104 15.993 40.0231 16.0245 40.0337 16.0568C40.0416 16.0764 40.0475 16.0943 40.0535 16.1138C40.0724 16.1658 40.0876 16.219 40.0991 16.2731C40.1107 16.3124 40.1194 16.3525 40.1249 16.393C40.1265 16.3974 40.1272 16.4021 40.1269 16.4068C40.1365 16.4621 40.1432 16.5179 40.1467 16.574C40.1785 17.0204 40.1567 17.4688 40.1527 17.9153V18.0214L40.154 18.0211Z" fill="white"/>
<path d="M20.6873 18.0228V18.1388C20.6774 18.2391 20.6734 18.3414 20.6734 18.4476C20.6971 18.3072 20.7018 18.1644 20.6873 18.0228ZM19.2389 14.6797C19.5155 14.8135 19.7698 14.9886 19.9929 15.1989C19.7725 14.9854 19.5177 14.8099 19.2389 14.6797ZM17.2269 21.6178C17.2048 21.6158 17.1829 21.6119 17.1614 21.606C17.09 21.5942 17.0225 21.5785 16.9531 21.5627C16.9929 21.5746 17.0333 21.5845 17.0741 21.5922C17.1118 21.6021 17.1515 21.6099 17.1912 21.6178C17.2744 21.6339 17.3585 21.645 17.4431 21.6513C17.3698 21.6434 17.2983 21.6314 17.2269 21.6178ZM14.9352 19.4938C14.9035 19.1378 14.9233 18.774 14.9252 18.4142C14.9272 18.2707 14.9114 18.1212 14.9016 17.9757C14.8996 18.5047 14.8857 18.9394 14.9036 19.3759C14.922 19.7651 15.0535 20.1408 15.2824 20.4576C15.0852 20.1711 14.9656 19.8393 14.9352 19.4938Z" fill="#F7F9FC"/>
<path d="M22.9586 16.4858C22.8792 13.585 20.2582 11.4649 16.7898 11.4825C13.5316 11.5003 10.9285 13.5732 10.8115 16.2636C10.7658 17.2685 10.8393 18.2735 10.7797 19.2744C10.6329 21.8115 13.0734 24.1458 15.9862 24.4586C18.774 24.7615 21.663 23.4123 22.5915 21.2137C23.042 20.1536 22.913 19.0699 22.9606 18.1456C22.9606 17.4928 22.9705 16.9891 22.9586 16.4858ZM20.6748 18.4485C20.6632 18.5082 20.6446 18.5662 20.6193 18.6216C20.4605 18.9578 19.9367 18.7494 19.5875 18.8536C18.5219 19.1742 18.0081 20.2185 18.6232 21.0779C18.9327 21.5144 18.7204 21.5676 18.3017 21.6344C18.1855 21.6531 18.0682 21.6649 17.9506 21.6699C17.8422 21.6761 17.7335 21.6754 17.6251 21.6678C17.5954 21.6659 17.5636 21.664 17.5339 21.662C17.5039 21.6606 17.4741 21.6573 17.4445 21.6522C17.36 21.646 17.2758 21.6348 17.1926 21.6187C17.1529 21.6108 17.1132 21.603 17.0755 21.5931C17.0347 21.5854 16.9943 21.5756 16.9545 21.5636C16.9436 21.5622 16.933 21.5595 16.9227 21.5558C16.8811 21.544 16.8394 21.5323 16.7996 21.5204C16.7321 21.5007 16.6647 21.4771 16.5992 21.4516C16.5099 21.4182 16.4206 21.3788 16.3353 21.3375C16.2956 21.3178 16.2579 21.2982 16.2202 21.2785C16.1263 21.23 16.036 21.1748 15.9502 21.1133C15.865 21.0523 15.7836 20.9894 15.7062 20.9245C15.6446 20.8714 15.5851 20.8143 15.5295 20.7573C15.4997 20.7291 15.4718 20.6989 15.4462 20.6669C15.4105 20.6256 15.3767 20.5843 15.345 20.543C15.3232 20.5154 15.3034 20.486 15.2835 20.4585C15.0546 20.1417 14.923 19.7661 14.9046 19.3769C14.8867 18.9403 14.9006 18.5057 14.9026 17.9767C14.8891 17.8442 14.8938 17.7105 14.9165 17.5793V17.5774C14.8496 17.0171 14.9078 16.4491 15.087 15.9136C15.3228 15.4437 15.6865 15.0486 16.1371 14.773C16.5877 14.4973 17.1072 14.3522 17.6367 14.354C17.7444 14.3488 17.8524 14.3494 17.9601 14.356C17.9998 14.358 18.0395 14.3619 18.0791 14.3639C18.1009 14.3658 18.1228 14.3698 18.1446 14.3718C18.2461 14.3798 18.3469 14.3949 18.4462 14.417C18.5326 14.4324 18.618 14.4528 18.702 14.478C18.7615 14.4938 18.8191 14.5134 18.8766 14.533C18.9044 14.5429 18.9321 14.5528 18.9599 14.5626C19.0552 14.5971 19.1485 14.6365 19.2397 14.6806C19.5185 14.8108 19.7733 14.9862 19.9937 15.1998C20.0234 15.2292 20.0532 15.2587 20.083 15.2902C20.1167 15.3256 20.1484 15.361 20.1782 15.3982C20.202 15.4257 20.2238 15.4532 20.2437 15.4807C20.2615 15.5025 20.2794 15.5241 20.2953 15.5477C20.3666 15.6431 20.4285 15.7452 20.48 15.8525C20.5316 15.9585 20.5748 16.0684 20.6089 16.1811C20.6312 16.2565 20.6485 16.3334 20.6605 16.4111C20.6741 16.4898 20.6827 16.5693 20.6863 16.649C20.7022 17.0777 20.6903 17.5065 20.6883 18.0237C20.7029 18.1653 20.6983 18.3081 20.6748 18.4485Z" fill="white"/>
<path d="M40.1566 18.5106C40.1348 18.7288 39.9979 18.784 39.6646 18.8037C38.0851 18.9058 37.3866 20.0249 38.1744 21.1872C38.3689 21.4782 38.3094 21.5294 37.9582 21.612C37.9085 21.6238 37.8589 21.6336 37.8094 21.6415C37.7799 21.648 37.7501 21.6526 37.72 21.6553C37.6727 21.6632 37.6268 21.669 37.5792 21.673C37.4639 21.6851 37.3479 21.6903 37.232 21.6887C37.1922 21.6887 37.1526 21.6867 37.1109 21.6848H37.099C36.4565 21.6494 35.8388 21.4271 35.3231 21.0456C35.2913 21.0222 35.2596 20.9964 35.2278 20.9708C35.1822 20.9315 35.1346 20.8922 35.0909 20.8488C35.0651 20.8231 35.0393 20.7996 35.0155 20.7739C34.9916 20.7483 34.9681 20.721 34.9441 20.6953C34.6174 20.3397 34.4216 19.885 34.3885 19.4052C34.3859 19.3897 34.3852 19.3739 34.3865 19.3582C34.3806 19.197 34.3786 19.0357 34.3786 18.8745C34.3786 18.6523 34.3825 18.432 34.3825 18.2098C34.3835 18.2026 34.3835 18.1953 34.3825 18.188C34.3845 18.1311 34.3845 18.076 34.3845 18.0191H34.3825C34.3825 17.8578 34.3806 17.6946 34.3786 17.5333C34.3766 17.2521 34.3746 16.9728 34.3845 16.6935C34.4242 15.4998 35.5215 14.5202 36.9182 14.371H36.9221C37.0114 14.3611 37.1007 14.3569 37.192 14.3552C37.2278 14.3532 37.2615 14.3532 37.2952 14.3532C37.3303 14.3519 37.3654 14.3526 37.4004 14.3552C37.446 14.3571 37.4917 14.3591 37.5373 14.3631C38.0959 14.4123 38.6327 14.6018 39.0969 14.9137C39.1147 14.9255 39.1348 14.9393 39.1524 14.9531C39.1723 14.9668 39.1903 14.9805 39.21 14.9944C39.2437 15.0182 39.2761 15.0438 39.3072 15.071C39.335 15.0945 39.3628 15.1183 39.3886 15.1419C39.4087 15.1585 39.4279 15.1762 39.4461 15.1949L39.5294 15.2776C39.5592 15.3091 39.589 15.3425 39.6187 15.3759C39.6326 15.3916 39.6465 15.4093 39.6604 15.4271C39.9496 15.7731 40.1199 16.2016 40.1465 16.6503C40.1644 17.0712 40.1505 17.4921 40.1505 17.9149V18.021C40.1505 18.0977 40.1525 18.1744 40.1545 18.2531C40.1548 18.3376 40.1548 18.4241 40.1566 18.5106Z" fill="#4A4E69"/>
<path d="M34.3871 19.3584C34.3651 18.9769 34.3791 18.5915 34.3831 18.21C34.3831 18.4322 34.3791 18.6525 34.3791 18.8747C34.3791 19.036 34.3811 19.1972 34.3871 19.3584Z" fill="#4A4E69"/>
<path d="M35.0174 20.7749C35.0015 20.7592 34.9856 20.7435 34.9718 20.7279C34.9559 20.7121 34.944 20.6964 34.9301 20.6807C34.9151 20.666 34.9012 20.6502 34.8884 20.6335L34.8825 20.6276C34.8446 20.5825 34.8071 20.5352 34.7736 20.486C34.7406 20.4418 34.7102 20.3958 34.6823 20.3483C34.6521 20.3009 34.6249 20.2517 34.601 20.2008C34.5871 20.1776 34.5751 20.1533 34.5652 20.1281C34.55 20.0989 34.5367 20.0686 34.5255 20.0376C34.5137 20.0081 34.5019 19.9806 34.4918 19.9512C34.4859 19.9354 34.4819 19.9197 34.4759 19.902C34.468 19.8763 34.4601 19.8528 34.4541 19.8272C34.4299 19.7415 34.4126 19.654 34.4026 19.5656C34.3986 19.5322 34.3946 19.5008 34.3926 19.4673C34.3906 19.4476 34.3906 19.426 34.3906 19.4062C34.4237 19.8861 34.6195 20.3408 34.9462 20.6964C34.9698 20.7219 34.9936 20.7493 35.0174 20.7749Z" fill="#4A4E69"/>
<path d="M37.2946 14.3536C37.2609 14.3536 37.2272 14.3536 37.1914 14.3556C37.2079 14.3533 37.2244 14.352 37.241 14.3516C37.2589 14.3513 37.2768 14.352 37.2946 14.3536Z" fill="#4A4E69"/>
<path d="M39.0986 14.9139C38.6344 14.602 38.0977 14.4125 37.5391 14.3633C37.6065 14.3672 37.676 14.3751 37.7434 14.3849C37.8327 14.3967 37.922 14.4144 38.0093 14.4341C38.045 14.4419 38.0788 14.4498 38.1145 14.4596C38.1839 14.4773 38.2534 14.4972 38.3189 14.5206C38.3605 14.5344 38.4022 14.5482 38.442 14.5639C38.5095 14.5895 38.575 14.617 38.6384 14.6484C38.6522 14.6531 38.6655 14.659 38.6781 14.6661C38.7297 14.6897 38.7793 14.7153 38.8269 14.7428C38.8527 14.7566 38.8785 14.7703 38.9023 14.7861C38.948 14.8116 38.9916 14.8392 39.0352 14.8687C39.0472 14.8766 39.0571 14.8824 39.067 14.8903C39.0781 14.8974 39.0886 14.9053 39.0986 14.9139Z" fill="#4A4E69"/>
<path d="M40.1603 18.3985C40.1627 18.4359 40.162 18.4733 40.1583 18.5106C40.1562 18.4241 40.1563 18.3376 40.1563 18.2529C40.1564 18.3021 40.1583 18.3493 40.1603 18.3985Z" fill="#4A4E69"/>
<path d="M20.6879 18.0226V18.1386C20.678 18.239 20.674 18.3413 20.674 18.4474C20.6624 18.5071 20.6437 18.5652 20.6184 18.6205C20.4597 18.9568 19.9359 18.7483 19.5866 18.8526C18.5211 19.1731 18.0072 20.2174 18.6223 21.0768C18.9319 21.5133 18.7196 21.5665 18.3009 21.6334C18.1846 21.652 18.0674 21.6638 17.9497 21.6688C17.8413 21.675 17.7326 21.6743 17.6243 21.6668C17.5945 21.6649 17.5627 21.6629 17.533 21.6609C17.5031 21.6595 17.4732 21.6563 17.4437 21.6512C17.3703 21.6433 17.2989 21.6314 17.2275 21.6176C17.2053 21.6156 17.1834 21.6117 17.162 21.6059C17.0905 21.5941 17.0231 21.5784 16.9536 21.5626C16.9427 21.5611 16.9321 21.5585 16.9218 21.5547C16.8802 21.5429 16.8385 21.5313 16.7987 21.5193C16.7312 21.4977 16.6638 21.4761 16.5983 21.4505C16.509 21.4171 16.4197 21.3777 16.3344 21.3365C16.2947 21.3168 16.257 21.2971 16.2193 21.2775C16.126 21.2263 16.0367 21.1713 15.9493 21.1122C15.8641 21.0512 15.7827 20.9883 15.7053 20.9235C15.6437 20.8703 15.5842 20.8133 15.5286 20.7563C15.5009 20.7268 15.4731 20.6973 15.4453 20.6658C15.4096 20.6245 15.3758 20.5832 15.3441 20.5419C15.3223 20.5144 15.3025 20.4849 15.2826 20.4574C15.0854 20.1711 14.9658 19.8392 14.9353 19.4938C14.9036 19.1378 14.9235 18.774 14.9254 18.4142C14.9274 18.2708 14.9116 18.1213 14.9017 17.9757V17.8833C14.9117 17.7849 14.9156 17.6827 14.9156 17.5784V17.5765C14.8487 17.0162 14.9069 16.4482 15.0861 15.9127C15.3219 15.4428 15.6856 15.0477 16.1362 14.772C16.5868 14.4964 17.1063 14.3513 17.6358 14.3531C17.7435 14.3479 17.8515 14.3485 17.9592 14.3551C17.9989 14.357 18.0386 14.361 18.0782 14.363C18.1 14.3649 18.1219 14.3689 18.1437 14.3709C18.2389 14.3806 18.3342 14.3964 18.4275 14.4141C18.5207 14.4317 18.6122 14.4516 18.7012 14.4771C18.7588 14.4948 18.8184 14.5124 18.8759 14.5321C18.9036 14.542 18.9314 14.5518 18.9592 14.5616C19.0544 14.5961 19.1478 14.6355 19.239 14.6796C19.5156 14.8134 19.7699 14.9885 19.993 15.1988C20.0227 15.2283 20.0525 15.2578 20.0823 15.2893C20.116 15.3246 20.1477 15.36 20.1775 15.3972C20.2013 15.4247 20.2231 15.4523 20.243 15.4798C20.4761 15.7842 20.6184 16.1474 20.6537 16.528C20.6854 16.886 20.6656 17.2479 20.6637 17.6097C20.6641 17.7453 20.678 17.885 20.6879 18.0226Z" fill="#4A4E69"/>
<path d="M15.2824 20.4574C15.0535 20.1406 14.922 19.765 14.9036 19.3758C14.8857 18.9393 14.8996 18.5046 14.9016 17.9756C14.9115 18.1211 14.9273 18.2706 14.9252 18.4141C14.9233 18.774 14.9035 19.1378 14.9352 19.4937C14.9656 19.8391 15.0852 20.171 15.2824 20.4574Z" fill="#4A4E69"/>
<path d="M17.4432 21.6511C17.3586 21.6448 17.2745 21.6336 17.1912 21.6176C17.1516 21.6097 17.1118 21.6019 17.0742 21.592C17.0333 21.5843 16.9929 21.5744 16.9531 21.5625C17.0226 21.5783 17.09 21.594 17.1615 21.6058C17.1829 21.6116 17.2049 21.6156 17.227 21.6176C17.2984 21.6312 17.3698 21.6432 17.4432 21.6511Z" fill="#4A4E69"/>
<path d="M19.9942 15.1989C19.7712 14.9886 19.5169 14.8135 19.2402 14.6797C19.519 14.8099 19.7739 14.9854 19.9942 15.1989Z" fill="#4A4E69"/>
<path d="M20.6758 18.4482C20.6758 18.3421 20.6798 18.2398 20.6898 18.1394V18.0234C20.7044 18.165 20.6997 18.3079 20.6758 18.4482Z" fill="#4A4E69"/>
<path d="M34.1262 31.6055C33.3588 32.5897 32.3741 33.3864 31.2476 33.9346C30.1211 34.4828 28.8829 34.7679 27.628 34.7679C26.3731 34.7679 25.1349 34.4828 24.0084 33.9346C22.8819 33.3864 21.8972 32.5897 21.1298 31.6055C20.9869 31.4195 20.8992 31.1976 20.8768 30.9649C20.8544 30.7322 20.8981 30.4978 21.0029 30.2884C21.1077 30.079 21.2696 29.9028 21.4701 29.7797C21.6706 29.6566 21.9019 29.5915 22.1378 29.5918H33.1163C33.3521 29.5916 33.5834 29.6567 33.7839 29.7797C33.9845 29.9028 34.1463 30.0789 34.2513 30.2882C34.3563 30.4975 34.4002 30.7318 34.3781 30.9645C34.356 31.1973 34.2688 31.4193 34.1262 31.6055Z" fill="white"/>
</g>
<defs>
<clipPath id="clip0_77_92">
<rect width="152" height="47" fill="white" transform="translate(0.5 0.422852)"/>
</clipPath>
</defs>
</svg>
