<svg width="233" height="201" viewBox="0 0 233 201" fill="none" xmlns="http://www.w3.org/2000/svg">
<path d="M51.7324 19.7669L65.7195 29.4485C66.807 30.2013 66.8751 31.7841 65.8568 32.6277L21.9654 68.9885C21.3586 69.4915 20.4663 69.4387 19.9233 68.8676L11.8093 60.3358C4.6158 52.7721 2.50019 41.7051 6.39664 32.0214C8.99151 25.5722 14.0035 20.3923 20.3637 17.5864L21.87 16.9218C31.6413 12.6109 42.9509 13.6884 51.7324 19.7669Z" fill="#102A63" stroke="#102A63" stroke-width="1.99662"/>
<path d="M53.0832 29.8052L64.1607 37.5298C65.0305 38.1364 65.0857 39.4043 64.271 40.0838L29.435 69.157C28.9471 69.5643 28.2267 69.5215 27.7905 69.0596L21.3566 62.2445C15.6384 56.1872 13.9565 47.3616 17.0462 39.6261C19.1152 34.4458 23.1259 30.2787 28.2233 28.0132L29.3074 27.5314C37.0843 24.075 46.1024 24.9375 53.0832 29.8052Z" fill="#BBCFF9"/>
<path d="M175.881 19.7669L161.894 29.4485C160.806 30.2013 160.738 31.7841 161.757 32.6277L205.648 68.9885C206.254 69.4915 207.147 69.4387 207.69 68.8676L215.804 60.3358C222.997 52.7721 225.113 41.7051 221.217 32.0214C218.621 25.5722 213.609 20.3923 207.25 17.5864L205.743 16.9218C195.972 12.6109 184.662 13.6884 175.881 19.7669Z" fill="#102A63" stroke="#102A63" stroke-width="1.99662"/>
<path d="M174.53 29.8052L163.453 37.5298C162.582 38.1364 162.528 39.4043 163.342 40.0838L198.178 69.157C198.666 69.5643 199.386 69.5215 199.822 69.0596L206.257 62.2445C211.975 56.1872 213.657 47.3616 210.567 39.6261C208.498 34.4458 204.487 30.2787 199.39 28.0132L198.306 27.5314C190.529 24.075 181.51 24.9375 174.53 29.8052Z" fill="#BBCFF9"/>
<path d="M222.066 98.5061L213.53 76.4163C203.984 51.7079 185.327 31.6009 161.4 20.236C134.338 7.38132 103.033 6.88604 75.5772 18.8781L74.6499 19.2832C47.4435 31.1664 26.4883 53.943 16.9087 82.0436L9.82116 102.833C4.75619 117.691 4.90556 133.831 10.2446 148.591C15.8719 164.149 26.8993 177.169 41.3189 185.28L47.0694 188.515C60.0612 195.823 74.7168 199.662 89.6229 199.662H118.798H147.288C163.219 199.662 178.799 194.992 192.104 186.23L194.478 184.667C206.321 176.868 215.601 165.747 221.154 152.698C228.497 135.44 228.824 116.001 222.066 98.5061Z" fill="#6D96F2"/>
<path d="M73.8733 161.726C82.1187 171.874 94.3521 177.957 107.419 178.408L115.802 178.698L123.869 178.428C137.881 177.961 151.137 171.955 160.726 161.726" stroke="#102A63" stroke-width="5.86902" stroke-linecap="round"/>
<path d="M132.323 133.773H101.282C99.0743 133.773 96.9573 134.65 95.3967 136.211C92.2809 139.327 92.1336 144.331 95.0616 147.625L95.7659 148.417C97.1093 149.929 98.9023 150.969 100.881 151.386L109.408 153.181C114.284 154.208 119.321 154.208 124.196 153.181L132.724 151.386C134.702 150.969 136.495 149.929 137.839 148.417L138.543 147.625C141.471 144.331 141.324 139.327 138.208 136.211C136.647 134.65 134.53 133.773 132.323 133.773Z" fill="#102A63" stroke="#102A63" stroke-width="1.99662"/>
<path d="M179.023 77.8654C187.139 84.6952 192.373 93.3309 194.306 101.736C196.239 110.141 194.865 118.252 189.876 124.181C184.887 130.11 177.131 132.85 168.519 132.382C159.907 131.914 150.503 128.233 142.387 121.403C134.271 114.573 129.036 105.938 127.103 97.5319C125.17 89.1269 126.544 81.0165 131.533 75.0876C136.523 69.1587 144.279 66.4185 152.89 66.8862C161.502 67.354 170.906 71.0356 179.023 77.8654Z" fill="#102A63" stroke="#102A63" stroke-width="1.99662"/>
<path d="M44.5535 77.8654C36.4371 84.6952 31.2027 93.3309 29.2696 101.736C27.3367 110.141 28.7106 118.252 33.6998 124.181C38.6889 130.11 46.4449 132.85 55.0568 132.382C63.6688 131.914 73.0728 128.233 81.189 121.403C89.3053 114.573 94.5399 105.938 96.4731 97.5319C98.4058 89.1269 97.0313 81.0165 92.0426 75.0876C87.0534 69.1587 79.2974 66.4185 70.6858 66.8862C62.0736 67.354 52.6699 71.0356 44.5535 77.8654Z" fill="#102A63" stroke="#102A63" stroke-width="1.99662"/>
<path d="M152.157 117.615L148.534 114.25C145.602 111.528 144.448 107.391 145.547 103.545C146.85 98.9827 151.02 95.8375 155.764 95.8375H156.763C163.363 95.8375 168.714 101.188 168.714 107.788V110.395C168.714 113.764 166.992 116.899 164.151 118.707C160.37 121.114 155.441 120.665 152.157 117.615Z" fill="white"/>
<path d="M76.4534 117.615L80.0769 114.25C83.0079 111.528 84.1623 107.391 83.0636 103.545C81.7601 98.9827 77.5902 95.8375 72.8463 95.8375H71.8473C65.247 95.8375 59.8969 101.188 59.8969 107.788V110.395C59.8969 113.764 61.6176 116.899 64.46 118.707C68.2408 121.114 73.1691 120.665 76.4534 117.615Z" fill="white"/>
<path d="M72.669 112.423C75.8788 112.423 78.4809 109.821 78.4809 106.611C78.4809 103.401 75.8788 100.799 72.669 100.799C69.4591 100.799 66.8571 103.401 66.8571 106.611C66.8571 109.821 69.4591 112.423 72.669 112.423Z" fill="#102A63" stroke="#102A63" stroke-width="1.93731"/>
<path d="M156.939 112.423C160.149 112.423 162.751 109.821 162.751 106.611C162.751 103.401 160.149 100.799 156.939 100.799C153.729 100.799 151.127 103.401 151.127 106.611C151.127 109.821 153.729 112.423 156.939 112.423Z" fill="#102A63" stroke="#102A63" stroke-width="1.93731"/>
</svg>
