<svg width="24" height="24" viewBox="0 0 24 24" fill="none" xmlns="http://www.w3.org/2000/svg">
<rect width="24" height="24" fill="#787878"/>
<path d="M-238 -599C-238 -600.105 -237.105 -601 -236 -601H19908C19909.1 -601 19910 -600.105 19910 -599V1373C19910 1374.1 19909.1 1375 19908 1375H-236C-237.105 1375 -238 1374.1 -238 1373V-599Z" fill="#3A3A3A"/>
<path d="M-236 -601V-600H19908V-601V-602H-236V-601ZM19910 -599H19909V1373H19910H19911V-599H19910ZM19908 1375V1374H-236V1375V1376H19908V1375ZM-238 1373H-237V-599H-238H-239V1373H-238ZM-236 1375V1374C-236.552 1374 -237 1373.55 -237 1373H-238H-239C-239 1374.66 -237.658 1376 -236 1376V1375ZM19910 1373H19909C19909 1373.55 19908.6 1374 19908 1374V1375V1376C19909.7 1376 19911 1374.66 19911 1373H19910ZM19908 -601V-600C19908.6 -600 19909 -599.553 19909 -599H19910H19911C19911 -600.657 19909.7 -602 19908 -602V-601ZM-236 -601V-602C-237.657 -602 -239 -600.657 -239 -599H-238H-237C-237 -599.552 -236.552 -600 -236 -600V-601Z" fill="white" fill-opacity="0.1"/>
<rect width="1440" height="1024" transform="translate(-48 -278)" fill="#F8F8F8"/>
<rect width="233" height="1024" transform="translate(-48 -278)" fill="white"/>
<mask id="path-3-inside-1_77_92" fill="white">
<path d="M6.59961 3.59961C5.80396 3.59961 5.0409 3.91568 4.47829 4.47829C3.91568 5.0409 3.59961 5.80396 3.59961 6.59961V17.3996C3.59961 18.1953 3.91568 18.9583 4.47829 19.5209C5.0409 20.0835 5.80396 20.3996 6.59961 20.3996H11.5196C11.3236 20.016 11.1657 19.614 11.048 19.1996H6.59961C6.12222 19.1996 5.66438 19.01 5.32682 18.6724C4.98925 18.3348 4.79961 17.877 4.79961 17.3996V6.59961C4.79961 6.12222 4.98925 5.66438 5.32682 5.32682C5.66438 4.98925 6.12222 4.79961 6.59961 4.79961H17.3996C17.877 4.79961 18.3348 4.98925 18.6724 5.32682C19.01 5.66438 19.1996 6.12222 19.1996 6.59961V11.048C19.6188 11.1672 20.0188 11.3244 20.3996 11.5196V6.59961C20.3996 5.80396 20.0835 5.0409 19.5209 4.47829C18.9583 3.91568 18.1953 3.59961 17.3996 3.59961H6.59961ZM11.048 15.5996C11.1672 15.1804 11.3244 14.7804 11.5196 14.3996H6.59961C6.44048 14.3996 6.28787 14.4628 6.17535 14.5753C6.06282 14.6879 5.99961 14.8405 5.99961 14.9996C5.99961 15.1587 6.06282 15.3114 6.17535 15.4239C6.28787 15.5364 6.44048 15.5996 6.59961 15.5996H11.048ZM10.1996 17.9996C10.3587 17.9996 10.5114 17.9364 10.6239 17.8239C10.7364 17.7114 10.7996 17.5587 10.7996 17.3996C10.7996 17.2405 10.7364 17.0879 10.6239 16.9753C10.5114 16.8628 10.3587 16.7996 10.1996 16.7996H6.59961C6.44048 16.7996 6.28787 16.8628 6.17535 16.9753C6.06282 17.0879 5.99961 17.2405 5.99961 17.3996C5.99961 17.5587 6.06282 17.7114 6.17535 17.8239C6.28787 17.9364 6.44048 17.9996 6.59961 17.9996H10.1996ZM9.59961 5.99961C9.7157 5.99959 9.8293 6.03326 9.92664 6.09652C10.024 6.15978 10.1009 6.24992 10.148 6.35601L12.548 11.756C12.58 11.828 12.5975 11.9056 12.5995 11.9844C12.6015 12.0632 12.5879 12.1416 12.5596 12.2151C12.5313 12.2887 12.4888 12.3559 12.4345 12.413C12.3802 12.4702 12.3152 12.516 12.2432 12.548C12.1712 12.58 12.0936 12.5975 12.0148 12.5995C11.936 12.6015 11.8576 12.5879 11.7841 12.5596C11.7105 12.5313 11.6433 12.4888 11.5862 12.4345C11.5291 12.3802 11.4832 12.3152 11.4512 12.2432L10.8092 10.7996H8.39001L7.74801 12.2432C7.6834 12.3887 7.56366 12.5025 7.41514 12.5596C7.26661 12.6168 7.10145 12.6126 6.95601 12.548C6.81056 12.4834 6.69674 12.3637 6.63958 12.2151C6.58242 12.0666 6.5866 11.9015 6.65121 11.756L9.05121 6.35601C9.09834 6.24992 9.17524 6.15978 9.27258 6.09652C9.36992 6.03326 9.48352 5.99959 9.59961 5.99961ZM10.2764 9.59961L9.59961 8.07681L8.92281 9.59961H10.2764ZM16.1996 6.59961C16.1996 6.44048 16.1364 6.28787 16.0239 6.17535C15.9114 6.06282 15.7587 5.99961 15.5996 5.99961C15.4405 5.99961 15.2879 6.06282 15.1753 6.17535C15.0628 6.28787 14.9996 6.44048 14.9996 6.59961V7.79961H13.7996C13.6405 7.79961 13.4879 7.86282 13.3753 7.97535C13.2628 8.08787 13.1996 8.24048 13.1996 8.39961C13.1996 8.55874 13.2628 8.71135 13.3753 8.82387C13.4879 8.9364 13.6405 8.99961 13.7996 8.99961H14.9996V10.1996C14.9996 10.3587 15.0628 10.5114 15.1753 10.6239C15.2879 10.7364 15.4405 10.7996 15.5996 10.7996C15.7587 10.7996 15.9114 10.7364 16.0239 10.6239C16.1364 10.5114 16.1996 10.3587 16.1996 10.1996V8.99961H17.3996C17.5587 8.99961 17.7114 8.9364 17.8239 8.82387C17.9364 8.71135 17.9996 8.55874 17.9996 8.39961C17.9996 8.24048 17.9364 8.08787 17.8239 7.97535C17.7114 7.86282 17.5587 7.79961 17.3996 7.79961H16.1996V6.59961ZM22.7996 17.3996C22.7996 18.8318 22.2307 20.2053 21.218 21.218C20.2053 22.2307 18.8318 22.7996 17.3996 22.7996C15.9674 22.7996 14.5939 22.2307 13.5812 21.218C12.5685 20.2053 11.9996 18.8318 11.9996 17.3996C11.9996 15.9674 12.5685 14.5939 13.5812 13.5812C14.5939 12.5685 15.9674 11.9996 17.3996 11.9996C18.8318 11.9996 20.2053 12.5685 21.218 13.5812C22.2307 14.5939 22.7996 15.9674 22.7996 17.3996ZM17.9996 14.9996C17.9996 14.8405 17.9364 14.6879 17.8239 14.5753C17.7114 14.4628 17.5587 14.3996 17.3996 14.3996C17.2405 14.3996 17.0879 14.4628 16.9753 14.5753C16.8628 14.6879 16.7996 14.8405 16.7996 14.9996V16.7996H14.9996C14.8405 16.7996 14.6879 16.8628 14.5753 16.9753C14.4628 17.0879 14.3996 17.2405 14.3996 17.3996C14.3996 17.5587 14.4628 17.7114 14.5753 17.8239C14.6879 17.9364 14.8405 17.9996 14.9996 17.9996H16.7996V19.7996C16.7996 19.9587 16.8628 20.1114 16.9753 20.2239C17.0879 20.3364 17.2405 20.3996 17.3996 20.3996C17.5587 20.3996 17.7114 20.3364 17.8239 20.2239C17.9364 20.1114 17.9996 19.9587 17.9996 19.7996V17.9996H19.7996C19.9587 17.9996 20.1114 17.9364 20.2239 17.8239C20.3364 17.7114 20.3996 17.5587 20.3996 17.3996C20.3996 17.2405 20.3364 17.0879 20.2239 16.9753C20.1114 16.8628 19.9587 16.7996 19.7996 16.7996H17.9996V14.9996Z"/>
</mask>
<path d="M6.59961 3.59961C5.80396 3.59961 5.0409 3.91568 4.47829 4.47829C3.91568 5.0409 3.59961 5.80396 3.59961 6.59961V17.3996C3.59961 18.1953 3.91568 18.9583 4.47829 19.5209C5.0409 20.0835 5.80396 20.3996 6.59961 20.3996H11.5196C11.3236 20.016 11.1657 19.614 11.048 19.1996H6.59961C6.12222 19.1996 5.66438 19.01 5.32682 18.6724C4.98925 18.3348 4.79961 17.877 4.79961 17.3996V6.59961C4.79961 6.12222 4.98925 5.66438 5.32682 5.32682C5.66438 4.98925 6.12222 4.79961 6.59961 4.79961H17.3996C17.877 4.79961 18.3348 4.98925 18.6724 5.32682C19.01 5.66438 19.1996 6.12222 19.1996 6.59961V11.048C19.6188 11.1672 20.0188 11.3244 20.3996 11.5196V6.59961C20.3996 5.80396 20.0835 5.0409 19.5209 4.47829C18.9583 3.91568 18.1953 3.59961 17.3996 3.59961H6.59961ZM11.048 15.5996C11.1672 15.1804 11.3244 14.7804 11.5196 14.3996H6.59961C6.44048 14.3996 6.28787 14.4628 6.17535 14.5753C6.06282 14.6879 5.99961 14.8405 5.99961 14.9996C5.99961 15.1587 6.06282 15.3114 6.17535 15.4239C6.28787 15.5364 6.44048 15.5996 6.59961 15.5996H11.048ZM10.1996 17.9996C10.3587 17.9996 10.5114 17.9364 10.6239 17.8239C10.7364 17.7114 10.7996 17.5587 10.7996 17.3996C10.7996 17.2405 10.7364 17.0879 10.6239 16.9753C10.5114 16.8628 10.3587 16.7996 10.1996 16.7996H6.59961C6.44048 16.7996 6.28787 16.8628 6.17535 16.9753C6.06282 17.0879 5.99961 17.2405 5.99961 17.3996C5.99961 17.5587 6.06282 17.7114 6.17535 17.8239C6.28787 17.9364 6.44048 17.9996 6.59961 17.9996H10.1996ZM9.59961 5.99961C9.7157 5.99959 9.8293 6.03326 9.92664 6.09652C10.024 6.15978 10.1009 6.24992 10.148 6.35601L12.548 11.756C12.58 11.828 12.5975 11.9056 12.5995 11.9844C12.6015 12.0632 12.5879 12.1416 12.5596 12.2151C12.5313 12.2887 12.4888 12.3559 12.4345 12.413C12.3802 12.4702 12.3152 12.516 12.2432 12.548C12.1712 12.58 12.0936 12.5975 12.0148 12.5995C11.936 12.6015 11.8576 12.5879 11.7841 12.5596C11.7105 12.5313 11.6433 12.4888 11.5862 12.4345C11.5291 12.3802 11.4832 12.3152 11.4512 12.2432L10.8092 10.7996H8.39001L7.74801 12.2432C7.6834 12.3887 7.56366 12.5025 7.41514 12.5596C7.26661 12.6168 7.10145 12.6126 6.95601 12.548C6.81056 12.4834 6.69674 12.3637 6.63958 12.2151C6.58242 12.0666 6.5866 11.9015 6.65121 11.756L9.05121 6.35601C9.09834 6.24992 9.17524 6.15978 9.27258 6.09652C9.36992 6.03326 9.48352 5.99959 9.59961 5.99961ZM10.2764 9.59961L9.59961 8.07681L8.92281 9.59961H10.2764ZM16.1996 6.59961C16.1996 6.44048 16.1364 6.28787 16.0239 6.17535C15.9114 6.06282 15.7587 5.99961 15.5996 5.99961C15.4405 5.99961 15.2879 6.06282 15.1753 6.17535C15.0628 6.28787 14.9996 6.44048 14.9996 6.59961V7.79961H13.7996C13.6405 7.79961 13.4879 7.86282 13.3753 7.97535C13.2628 8.08787 13.1996 8.24048 13.1996 8.39961C13.1996 8.55874 13.2628 8.71135 13.3753 8.82387C13.4879 8.9364 13.6405 8.99961 13.7996 8.99961H14.9996V10.1996C14.9996 10.3587 15.0628 10.5114 15.1753 10.6239C15.2879 10.7364 15.4405 10.7996 15.5996 10.7996C15.7587 10.7996 15.9114 10.7364 16.0239 10.6239C16.1364 10.5114 16.1996 10.3587 16.1996 10.1996V8.99961H17.3996C17.5587 8.99961 17.7114 8.9364 17.8239 8.82387C17.9364 8.71135 17.9996 8.55874 17.9996 8.39961C17.9996 8.24048 17.9364 8.08787 17.8239 7.97535C17.7114 7.86282 17.5587 7.79961 17.3996 7.79961H16.1996V6.59961ZM22.7996 17.3996C22.7996 18.8318 22.2307 20.2053 21.218 21.218C20.2053 22.2307 18.8318 22.7996 17.3996 22.7996C15.9674 22.7996 14.5939 22.2307 13.5812 21.218C12.5685 20.2053 11.9996 18.8318 11.9996 17.3996C11.9996 15.9674 12.5685 14.5939 13.5812 13.5812C14.5939 12.5685 15.9674 11.9996 17.3996 11.9996C18.8318 11.9996 20.2053 12.5685 21.218 13.5812C22.2307 14.5939 22.7996 15.9674 22.7996 17.3996ZM17.9996 14.9996C17.9996 14.8405 17.9364 14.6879 17.8239 14.5753C17.7114 14.4628 17.5587 14.3996 17.3996 14.3996C17.2405 14.3996 17.0879 14.4628 16.9753 14.5753C16.8628 14.6879 16.7996 14.8405 16.7996 14.9996V16.7996H14.9996C14.8405 16.7996 14.6879 16.8628 14.5753 16.9753C14.4628 17.0879 14.3996 17.2405 14.3996 17.3996C14.3996 17.5587 14.4628 17.7114 14.5753 17.8239C14.6879 17.9364 14.8405 17.9996 14.9996 17.9996H16.7996V19.7996C16.7996 19.9587 16.8628 20.1114 16.9753 20.2239C17.0879 20.3364 17.2405 20.3996 17.3996 20.3996C17.5587 20.3996 17.7114 20.3364 17.8239 20.2239C17.9364 20.1114 17.9996 19.9587 17.9996 19.7996V17.9996H19.7996C19.9587 17.9996 20.1114 17.9364 20.2239 17.8239C20.3364 17.7114 20.3996 17.5587 20.3996 17.3996C20.3996 17.2405 20.3364 17.0879 20.2239 16.9753C20.1114 16.8628 19.9587 16.7996 19.7996 16.7996H17.9996V14.9996Z" fill="white" stroke="#3A86FF" stroke-width="2" mask="url(#path-3-inside-1_77_92)"/>
</svg>
