<svg width="413" height="585" viewBox="0 0 413 585" fill="none" xmlns="http://www.w3.org/2000/svg">
<g style="mix-blend-mode:multiply" opacity="0.51">
<path d="M289.074 584.522C238.344 584.522 197.22 577.497 197.22 568.832C197.22 560.167 238.344 553.142 289.074 553.142C339.803 553.142 380.928 560.167 380.928 568.832C380.928 577.497 339.803 584.522 289.074 584.522Z" fill="#B991BC"/>
</g>
<path d="M304.409 339.527C304.421 338.265 304.238 337.009 303.866 335.804C302.945 333.556 301.529 331.545 299.723 329.92C305.432 322.011 310.196 313.539 316.619 306.248C323.538 298.393 329.057 288.185 335.046 279.473C336.427 277.747 337.402 275.732 337.9 273.579C338.374 270.543 337.011 267.56 335.671 264.841C326.521 246.266 316.559 228.191 305.786 210.618C302.379 214.04 298.927 217.418 295.663 221.001C293.086 223.831 291.168 227.567 288.578 230.184C292.248 237.787 297.409 244.911 301.696 252.162C302.915 254.223 313.886 270.375 312.395 271.99C306.252 278.643 303.2 287.008 299.308 295.157C294.649 304.912 290.026 314.567 285.817 324.53C285.703 324.882 285.5 325.198 285.227 325.448C284.932 325.63 284.591 325.726 284.244 325.724L279.834 326.104C279.326 326.117 278.825 326.223 278.355 326.416C277.753 326.774 277.237 327.261 276.846 327.842C273.054 332.616 268.696 336.913 263.868 340.638C263.356 340.956 262.952 341.421 262.708 341.971C262.581 342.508 262.593 343.069 262.742 343.6C263.82 349.184 264.898 354.769 265.976 360.353C266.001 360.676 266.137 360.98 266.361 361.213C266.477 361.287 266.606 361.337 266.742 361.359C266.878 361.381 267.016 361.374 267.149 361.34C270.033 360.874 271.128 356.9 271.554 354.296C271.954 358.034 269.754 364.436 274.088 366.265C274.934 366.597 275.865 366.649 276.743 366.411C277.621 366.174 278.399 365.66 278.962 364.946C279.073 365.945 279.484 366.886 280.14 367.647C280.796 368.408 281.667 368.953 282.639 369.211C283.608 369.385 284.607 369.246 285.491 368.813C286.376 368.381 287.099 367.678 287.556 366.806C288.015 367.702 288.724 368.445 289.598 368.945C290.472 369.445 291.472 369.68 292.477 369.622C293.485 369.495 294.436 369.084 295.219 368.438C296.002 367.791 296.585 366.935 296.9 365.97C297.121 366.258 297.406 366.492 297.732 366.653C298.058 366.814 298.416 366.898 298.78 366.898C299.144 366.898 299.502 366.814 299.828 366.652C300.154 366.491 300.438 366.257 300.659 365.968C301.554 364.688 301.998 363.147 301.92 361.587C302.114 359.592 302.446 357.613 302.914 355.664C303.271 353.544 303.099 351.221 303.318 349.066C303.855 345.908 304.219 342.724 304.409 339.527Z" fill="#3A86FF"/>
<g style="mix-blend-mode:multiply" opacity="0.58">
<path d="M304.409 339.527C304.421 338.265 304.238 337.009 303.866 335.804C302.945 333.556 301.529 331.545 299.723 329.92C305.432 322.011 310.196 313.539 316.619 306.248C323.538 298.393 329.057 288.185 335.046 279.473C336.427 277.747 337.402 275.732 337.9 273.579C338.374 270.543 337.011 267.56 335.671 264.841C326.521 246.266 316.559 228.191 305.786 210.618C302.379 214.04 298.927 217.418 295.663 221.001C293.086 223.831 291.168 227.567 288.578 230.184C292.248 237.787 297.409 244.911 301.696 252.162C303.588 254.857 305.332 257.653 306.921 260.537C308.302 258.456 309.914 256.538 311.725 254.818C315.817 260.22 320.356 265.269 325.295 269.91C316.689 289.501 306.391 308.689 291.645 324.199C290.758 324.989 290.072 325.978 289.644 327.085C289.449 327.644 289.461 328.255 289.679 328.805C289.897 329.356 290.306 329.809 290.831 330.083C289.427 329.532 287.927 329.269 286.419 329.309C284.911 329.348 283.427 329.69 282.053 330.313C280.68 330.937 279.446 331.829 278.424 332.938C277.402 334.047 276.614 335.35 276.105 336.769C275.466 338.845 275.465 341.068 274.908 343.168C274.716 344.24 274.241 345.241 273.533 346.068C272.826 346.895 271.91 347.52 270.881 347.876L272.24 353.682C273.092 351.829 273.944 349.976 274.796 348.123C275.227 346.94 275.945 345.883 276.884 345.045C277.366 344.642 277.977 344.426 278.605 344.435C279.233 344.445 279.836 344.679 280.306 345.096C280.692 345.607 280.928 346.214 280.99 346.851C281.311 348.734 281.338 350.656 281.07 352.547C281.052 350.515 281.561 348.513 282.546 346.735C283.069 345.868 283.898 345.228 284.869 344.941C285.84 344.654 286.884 344.741 287.795 345.184C288.419 345.715 288.9 346.394 289.193 347.159C289.486 347.924 289.582 348.75 289.471 349.562C289.235 351.181 289.223 352.824 289.435 354.446C289.733 352.84 290.397 351.324 291.376 350.015C291.882 349.375 292.588 348.923 293.382 348.732C294.175 348.541 295.01 348.622 295.752 348.962C296.345 349.422 296.81 350.027 297.102 350.718C297.393 351.41 297.502 352.165 297.417 352.91C297.232 354.397 297.232 355.9 297.417 357.386C297.748 355.02 298.599 352.758 299.91 350.761C300.091 350.41 300.395 350.138 300.765 350C301.651 349.784 302.164 350.97 302.262 351.876C302.441 353.533 302.503 355.2 302.448 356.865C302.896 354.224 303.048 351.73 303.319 349.065C303.855 345.908 304.219 342.724 304.409 339.527Z" fill="#B991BC"/>
</g>
<g style="mix-blend-mode:multiply" opacity="0.43">
<path d="M291.599 331.192C292.624 334.527 290.909 338.401 288.628 340.722C286.621 342.757 283.788 341.81 281.213 342.152C280.242 342.253 279.34 342.7 278.67 343.41C281.306 342.017 284.054 343.874 286.895 343.288C291.502 342.227 294.331 334.973 291.599 331.192Z" fill="#6D342B"/>
</g>
<g style="mix-blend-mode:multiply" opacity="0.43">
<path d="M270.564 357.735C272.046 354.947 272.711 351.799 272.482 348.65C273.7 348.181 274.759 347.375 275.535 346.326C276.511 345.037 276.976 343.433 276.84 341.822C276.515 343.029 275.915 344.144 275.087 345.082C274.26 346.019 273.227 346.753 272.07 347.227C271.751 347.332 271.474 347.536 271.277 347.808C271.081 348.081 270.976 348.409 270.978 348.744C271.134 351.748 270.996 354.758 270.564 357.735Z" fill="#6D342B"/>
</g>
<g style="mix-blend-mode:multiply" opacity="0.43">
<path d="M300.967 365.012C301.743 362.965 302.323 360.85 302.701 358.694C303.066 356.157 303.978 352.589 301.822 350.283C300.418 348.756 298.844 349.804 298.288 351.359C297.375 353.996 297.062 356.803 297.373 359.576C297.773 356.949 298.482 354.377 299.483 351.914C299.632 351.547 299.882 351.229 300.203 350.996C300.425 350.931 300.554 351.103 300.767 351.306C302.338 353.255 301.606 355.972 301.542 358.544L300.967 365.012Z" fill="#6D342B"/>
</g>
<g style="mix-blend-mode:multiply" opacity="0.43">
<path d="M295.447 368.193C297.654 365.541 297.528 361.784 297.923 358.542C297.952 355.211 299.416 351.163 297.292 348.225C293.693 344.842 289.642 348.502 289.232 352.485C288.842 355.836 288.81 359.219 289.135 362.577C289.996 358.124 288.983 352.109 292.574 348.927C293.108 348.537 293.764 348.353 294.423 348.406C295.082 348.46 295.699 348.748 296.163 349.218C297.726 351.406 296.546 355.716 296.773 358.474C296.622 361.75 297.088 365.214 295.447 368.193Z" fill="#6D342B"/>
</g>
<g style="mix-blend-mode:multiply" opacity="0.43">
<path d="M284.045 368.766C289.91 369.978 289.284 356.639 290.187 352.861C290.625 350.737 290.579 348.54 290.051 346.436C289.843 345.847 289.504 345.313 289.059 344.874C288.615 344.436 288.077 344.103 287.485 343.903C286.894 343.702 286.264 343.638 285.644 343.715C285.024 343.793 284.43 344.01 283.906 344.351C283.026 345.112 282.384 346.112 282.06 347.229C280.293 352.175 280.586 357.499 280.3 362.58C281.332 357.622 281.357 352.417 283.294 347.694C284.171 344.71 287.31 344.051 288.652 346.985C289.094 348.869 289.135 350.824 288.773 352.724C288.324 356.744 288.341 360.939 287.699 364.896C287.402 366.813 286.318 368.995 284.045 368.766Z" fill="#6D342B"/>
</g>
<g style="mix-blend-mode:multiply" opacity="0.43">
<path d="M274.736 366.329C279.004 367.968 280.562 362.518 280.915 359.388C281.535 355.933 282.07 352.531 282.547 349.002C282.766 347.115 282.437 344.574 280.346 343.718C273.605 341.992 272.702 351.582 272.923 356.028C273.485 352.419 274.594 343.673 279.78 345.024C280.997 345.539 281.258 347.238 281.05 348.86C280.627 352.256 280.119 355.763 279.774 359.226C279.595 362.306 278.844 367.168 274.736 366.329Z" fill="#6D342B"/>
</g>
<path d="M284.463 193.5C284.967 191.404 285.914 189.439 287.241 187.739C287.968 186.777 288.974 186.063 290.123 185.694C291.271 185.326 292.506 185.32 293.657 185.679C294.75 186.22 295.716 186.986 296.49 187.928C301.077 192.865 303.708 198.639 307.364 204.173C312.855 212.486 316.87 221.64 324.381 228.295C320.417 235.188 315.264 241.326 309.159 246.423C305.897 248.981 302.366 251.176 298.628 252.97C295.719 254.196 292.681 255.089 289.571 255.633C290.711 255.338 283.594 228.816 283.131 226.408C281.112 215.851 281.467 204.977 284.169 194.574C284.262 194.215 284.36 193.857 284.463 193.5Z" fill="#D3BD5E"/>
<g style="mix-blend-mode:multiply" opacity="0.62">
<path d="M284.462 193.5C284.966 191.404 285.913 189.439 287.24 187.739C287.967 186.777 288.974 186.063 290.122 185.694C291.271 185.326 292.505 185.32 293.657 185.679C294.75 186.22 295.715 186.986 296.489 187.928C301.077 192.865 303.707 198.639 307.363 204.173C312.854 212.486 316.869 221.64 324.38 228.295C325.108 228.94 315.583 240.722 314.369 241.624C310.019 244.857 305.961 238.821 304.379 234.98C302.261 229.833 301.125 224.336 301.029 218.771C300.819 219 300.567 219.185 300.286 219.316C300.004 219.447 299.7 219.521 299.39 219.534L298.565 217.42C299.313 228.302 298.174 239.232 295.197 249.726C294.237 253.106 292.924 254.762 289.571 255.632C290.71 255.337 283.594 228.815 283.13 226.407C281.112 215.85 281.466 204.976 284.168 194.573C284.262 194.215 284.36 193.857 284.462 193.5Z" fill="#D3BD5E"/>
</g>
<path d="M224.763 211.611C216.805 219.586 207.59 226.352 197.221 229.843C198.778 235.602 203.381 239.695 207.743 243.416C207.997 243.757 208.335 244.026 208.724 244.197C209.113 244.367 209.54 244.434 209.962 244.39C210.385 244.346 210.789 244.193 211.135 243.946C211.48 243.698 211.755 243.366 211.933 242.98C227.865 225.56 236.836 202.405 250.619 183.194C240.669 191.259 233.909 202.444 224.763 211.611Z" fill="#51486D"/>
<g style="mix-blend-mode:multiply" opacity="0.47">
<path d="M224.764 211.611C219.905 216.167 214.784 220.435 209.426 224.392C211.395 225.007 213.495 225.074 215.5 224.587C214.006 227.147 212.429 229.657 210.769 232.115C210.142 233.188 209.293 234.116 208.279 234.836C207.353 235.317 206.319 235.554 205.275 235.524C204.232 235.493 203.213 235.197 202.316 234.663C200.537 233.576 198.959 232.188 197.653 230.562C198.798 235.976 203.752 240.011 207.743 243.415C207.997 243.756 208.335 244.025 208.724 244.196C209.113 244.367 209.54 244.433 209.962 244.389C210.385 244.346 210.789 244.192 211.135 243.945C211.48 243.698 211.755 243.365 211.933 242.979C227.865 225.559 236.836 202.404 250.619 183.193C240.669 191.259 233.909 202.444 224.764 211.611Z" fill="#51486D"/>
</g>
<path d="M297.68 198.421C297.802 200.094 297.794 201.775 297.656 203.447C295.859 225.766 282.992 246.953 272.344 265.473C270.11 269.358 244.097 314.719 244.205 314.775C224.103 304.448 205.391 291.619 188.515 276.592C208.555 251.351 226.467 224.494 242.067 196.295C244.824 191.318 247.717 186.071 252.383 183.195C255.345 181.581 258.578 180.522 261.921 180.071C267.699 178.969 273.604 178.039 279.417 178.903C282.401 179.255 285.277 180.233 287.856 181.774C290.435 183.314 292.659 185.383 294.382 187.843C296.346 191.039 297.48 194.676 297.68 198.421Z" fill="#D3BD5E"/>
<g style="mix-blend-mode:multiply" opacity="0.62">
<path d="M294.321 198.203C294.226 199.867 293.95 201.515 293.498 203.12C291.595 209.907 287.101 215.651 282.361 220.871C275.179 228.782 267.207 235.94 258.57 242.233C257.484 242.908 256.552 243.802 255.832 244.858C255.128 246.416 254.884 248.143 255.129 249.835C255.384 254.89 255.64 259.945 255.896 265C255.99 265.741 255.912 266.493 255.67 267.2C254.716 269.394 251.527 269.019 249.253 268.273C250.698 274.449 250.998 280.838 250.138 287.123L264.334 273.871C261.904 278.19 259.694 282.63 257.714 287.173C255.989 291.13 255.109 295.449 253.045 299.173C252.545 300.076 244.234 314.789 244.206 314.774C224.104 304.448 205.392 291.618 188.517 276.592C208.557 251.351 226.469 224.493 242.069 196.294C244.825 191.317 247.718 186.071 252.384 183.195C255.346 181.581 258.579 180.522 261.922 180.07C267.701 178.969 273.605 178.039 279.418 178.903C289.369 180.382 294.842 188.864 294.321 198.203Z" fill="#D3BD5E"/>
</g>
<path d="M305.043 222.729C304.055 217.998 304.498 212.884 307.364 209.835C305.258 212.075 301.698 208.96 300.824 206.013C299.045 200.013 300.044 193.174 296.862 187.786C292.836 180.969 283.446 179.168 275.751 181.039C268.055 182.911 261.389 187.563 254.311 191.113C248.984 193.786 238.539 198.247 232.69 194.657C228.486 192.076 225.014 182.999 223.92 178.472C222.522 172.686 223.217 166.069 226.773 161.482C227.787 160.44 228.586 159.208 229.123 157.857C229.259 157.366 229.312 156.855 229.279 156.347C229.094 153.463 226.222 151.016 224.425 148.5C221.673 144.648 221.254 139.316 222.26 134.576C224.205 125.405 230.365 116.344 238.692 112.878C243.604 110.833 249.048 111.063 254.3 111.468C274.962 113.062 295.533 116.918 316.241 116.332C327.434 116.015 339.163 114.01 348.091 106.182C352.712 102.13 351.855 104.417 352.36 109.789C352.853 115.019 354.718 121.088 359.638 123.253C363.502 124.953 367.851 123.469 371.907 122.406C386.415 118.606 407.156 123.055 411.392 140.767C415.725 158.88 405.538 178.746 389.553 185.115C392.577 184.108 395.501 187.94 395.072 191.323C394.644 194.705 392.071 197.287 389.416 199.143C383.799 203.087 377.047 205.089 370.187 204.843C370.995 207.962 371.09 211.222 370.467 214.383C369.844 217.544 368.518 220.525 366.587 223.104C357.166 236.042 340.809 239.168 325.732 238.253C319.894 237.899 314.329 236.375 309.845 232.277C307.342 229.635 305.672 226.314 305.043 222.729Z" fill="#3A2C39"/>
<g style="mix-blend-mode:multiply" opacity="0.46">
<path d="M359.637 123.252C362.564 124.539 366.019 123.476 369.091 124.165C365.633 123.389 362.023 125.754 360.478 128.942C359.113 132.244 358.901 135.909 359.877 139.347C360.619 141.732 361.093 144.193 361.291 146.683C361.372 147.933 361.1 149.18 360.505 150.282C359.91 151.384 359.018 152.297 357.929 152.916C355.65 153.938 352.365 152.244 352.579 149.756C356.362 159.493 349.624 170.916 340.181 175.391C337.099 176.852 331.836 176.799 329.843 179.515C327.644 182.513 329.194 187.58 330.499 190.571C331.154 192.578 332.54 194.265 334.382 195.296C335.99 195.981 337.833 195.702 339.553 196.011C341.273 196.32 343.118 197.728 342.753 199.437C341.805 191.396 344.457 173.279 357.163 177.009C360.27 177.921 362.534 180.526 364.614 183.006C362.604 176.752 362.391 170.06 364 163.691C364.192 162.49 364.78 161.387 365.671 160.559C367.135 159.447 369.229 159.934 370.934 160.622C378.318 163.6 385.136 169.542 393.053 168.691C398.453 168.111 403.079 164.3 405.989 159.717C408.9 155.134 410.367 149.808 411.797 144.571C412.758 153.456 410.913 162.419 406.521 170.204C402.736 176.472 396.679 182.742 389.553 185.113C392.577 184.107 395.501 187.939 395.072 191.321C394.643 194.704 392.071 197.286 389.415 199.141C383.799 203.086 377.047 205.087 370.187 204.841C370.994 207.96 371.09 211.221 370.467 214.382C369.844 217.543 368.518 220.523 366.587 223.103C357.166 236.041 340.809 239.167 325.732 238.252C319.893 237.897 314.328 236.374 309.845 232.276C307.342 229.634 305.672 226.313 305.044 222.729C304.056 217.997 304.499 212.884 307.365 209.835C305.259 212.075 301.699 208.96 300.825 206.012C299.046 200.013 300.044 193.174 296.862 187.786C292.836 180.969 283.447 179.167 275.751 181.039C268.056 182.91 261.39 187.562 254.311 191.113C248.984 193.785 238.54 198.247 232.69 194.656C228.486 192.076 225.014 182.999 223.921 178.472C222.736 173.569 223.181 166.698 226.99 162.892C226.192 167.007 226.199 171.631 228.743 174.964C231.288 178.296 237.086 179.199 239.544 175.802C242.208 172.12 239.361 166.889 240.391 162.463C240.515 161.806 240.808 161.193 241.242 160.684C241.768 160.215 242.424 159.916 243.124 159.828C243.823 159.739 244.533 159.865 245.16 160.188C246.4 160.859 247.488 161.779 248.355 162.89C246.819 157.431 244.082 152.384 240.344 148.117C237.244 144.583 233.505 141.647 230.469 138.059C221.988 128.035 227.259 117.636 238.692 112.877C243.604 110.832 249.048 111.062 254.3 111.467C274.962 113.061 295.533 116.917 316.241 116.331C327.434 116.014 339.163 114.009 348.091 106.181C352.712 102.128 351.855 104.415 352.36 109.788C352.852 115.018 354.717 121.087 359.637 123.252Z" fill="#3A2C39"/>
</g>
<path d="M347.234 92.9854C346.181 91.8576 345.128 90.76 344.105 89.7225C344.435 91.8919 344.591 94.0841 344.572 96.2783L347.234 92.9854Z" fill="#3A86FF"/>
<path d="M342.558 88.1587C343.069 88.6699 343.581 89.1812 344.107 89.7225C344.107 89.6924 344.092 89.6473 344.092 89.6172C344.047 89.3466 344.002 89.0909 343.957 88.8203C342.874 87.9632 341.73 87.061 340.512 86.1438C341.189 86.8056 341.866 87.4672 342.558 88.1587Z" fill="#3A86FF"/>
<path d="M328.745 117.359C328.76 117.344 328.79 117.329 328.805 117.314C328.007 117.239 327.571 116.563 327.391 115.721C327.541 116.578 327.962 117.254 328.745 117.359Z" fill="#3A86FF"/>
<path d="M313.128 137.117C313.144 137.117 313.159 137.102 313.174 137.102C316.891 129.471 322.224 122.739 328.805 117.374C328.783 117.376 328.762 117.371 328.745 117.359C322.164 122.732 316.834 129.475 313.128 137.117Z" fill="#3A86FF"/>
<path d="M324.924 129.208C321.178 132.17 317.612 135.644 313.174 137.102L313.129 137.192C317.582 135.734 321.162 132.245 324.924 129.283C327.286 127.404 330.746 124.938 334.101 124.306C335.163 124.324 336.215 124.517 337.215 124.877C338.044 125.31 338.804 125.862 339.471 126.516C344.737 131.659 342.616 140.154 339.456 145.928C336.975 150.296 333.105 153.71 328.46 155.628C323.816 157.546 318.663 157.858 313.821 156.514C318.796 158.261 324.228 158.202 329.165 156.35C334.102 154.497 338.23 150.967 340.825 146.38C342.627 143.202 343.72 139.673 344.03 136.034C344.045 135.809 344.045 135.598 344.045 135.373V135.298C344.045 134.922 344.03 134.546 344 134.17C343.901 131.463 342.777 128.894 340.856 126.983C340.809 126.934 340.759 126.889 340.705 126.847C340.615 126.757 340.525 126.682 340.434 126.607C339.291 125.602 337.924 124.885 336.448 124.517C335.874 124.348 335.284 124.247 334.687 124.216C334.559 124.19 334.427 124.18 334.296 124.186C332.953 124.124 331.611 124.339 330.355 124.817H330.34C329.978 125.043 329.617 125.253 329.241 125.464C330.637 124.708 332.197 124.306 333.785 124.291C330.517 125.288 327.498 126.963 324.924 129.208Z" fill="#3A86FF"/>
<path d="M309.73 154.484H309.715V154.499L309.73 154.484Z" fill="#3A86FF"/>
<path d="M253.54 149.477C254.523 150.692 255.573 151.852 256.685 152.951C256.79 153.056 256.91 153.161 257.016 153.266C256.096 151.804 254.918 150.52 253.54 149.477Z" fill="#3A86FF"/>
<path d="M247.325 192.225C246.875 192.448 246.407 192.634 245.926 192.782C246.153 192.718 246.384 192.673 246.618 192.646C248.9 192.649 251.17 192.978 253.358 193.624C254.466 193.89 255.593 194.076 256.728 194.18C256.924 194.18 257.104 194.195 257.3 194.195C259.442 194.268 261.586 194.228 263.724 194.075C265.017 193.985 266.311 193.849 267.59 193.684C273.171 192.947 279.866 192.992 285.222 190.842H285.237C285.553 190.707 285.869 190.571 286.17 190.421C286.2 190.406 286.245 190.391 286.275 190.376C286.11 190.226 285.929 190.075 285.779 189.925C283.562 187.884 282.001 185.23 281.295 182.301C280.996 181.09 280.824 179.85 280.784 178.602C280.752 177.685 280.772 176.766 280.844 175.851C281.371 171.193 282.551 166.632 284.349 162.303C289.886 161.431 295.016 162.799 300.627 160.634C303.778 158.91 306.778 156.924 309.594 154.695C309.158 154.452 308.736 154.186 308.33 153.898C308.992 154.349 299.98 159.882 299.258 160.168C293.632 162.333 288.517 160.965 282.98 161.852C281.135 166.261 279.944 170.917 279.445 175.67C272.735 175.009 265.514 176.663 259.15 177.79C258.654 177.881 258.172 177.971 257.676 178.046C259.115 173.526 259.985 168.843 260.263 164.107C259.962 168.848 259.082 173.534 257.646 178.061C257.15 179.577 256.567 181.063 255.901 182.512C255.89 182.556 255.869 182.597 255.84 182.632C255.828 182.668 255.813 182.704 255.795 182.737C253.779 187.008 251.011 190.557 247.325 192.225Z" fill="#3A86FF"/>
<path d="M226.668 128.11C231.182 131.298 234.852 133.929 237.876 136.155C237.91 136.169 237.94 136.19 237.967 136.215C251.025 144.44 267.769 152.078 282.408 145.537C289.855 142.214 296.203 136.756 301.815 130.937C307.205 125.009 312.253 118.779 316.934 112.277C321.478 105.944 325.522 99.2681 329.03 92.3087C325.197 90.8958 321.008 90.7744 317.1 91.9629C317.056 89.2538 316.473 86.5805 315.385 84.0989C314.745 82.5852 313.866 81.184 312.782 79.9488C314.956 78.6948 317.358 77.8854 319.848 77.5679C322.337 77.2504 324.866 77.431 327.285 78.0994C328.249 78.4513 329.156 78.9427 329.978 79.5579C333.468 82.9411 336.206 87.0761 336.537 91.7825C336.236 87.046 333.483 82.896 329.978 79.4827C329.156 78.8716 328.249 78.3852 327.285 78.0392C324.858 77.3618 322.321 77.1778 319.822 77.4981C317.323 77.8183 314.914 78.6363 312.737 79.9037C312.215 79.311 311.629 78.7766 310.992 78.3099C307.246 75.6033 296.971 75.889 299.844 83.6779C300.271 84.6146 300.883 85.4556 301.643 86.1506C302.403 86.8456 303.296 87.3803 304.267 87.7226C303.777 88.1999 303.254 88.642 302.702 89.0458C297.407 92.85 290.246 91.7825 284.454 88.9857C281.232 87.5323 278.383 85.368 276.119 82.6554C275.731 78.4711 275.786 74.2576 276.285 70.085C277.187 73.0622 280.753 74.7763 283.867 74.3252C287.118 73.6204 289.985 71.7206 291.901 69.0024C292.081 68.7768 292.247 68.5513 292.427 68.3257C291.303 68.7243 290.228 69.2489 289.223 69.8895C289.648 65.4626 289.405 60.9969 288.501 56.6425C288.234 55.3674 287.882 54.1115 287.447 52.8834C287.045 51.7505 286.557 50.6497 285.988 49.5904C284.606 47.0442 283.011 44.6197 281.219 42.3429C276.379 36.1122 269.914 31.3361 262.534 28.5395C261.167 28.0141 259.758 27.6066 258.322 27.3215C258.201 27.4268 256.2 31.7723 254.26 35.9524C252.59 39.5762 250.965 43.0947 250.664 43.621C250.649 43.636 250.634 43.6661 250.619 43.6811C250.514 43.7713 250.423 43.8766 250.318 43.9818C243.819 50.3121 238.132 61.018 233.875 68.9873C233.844 69.0343 233.818 69.0848 233.799 69.1377C233.769 69.1828 233.739 69.2429 233.709 69.288C232.205 72.1299 230.76 74.7613 229.421 77.2874C229.396 77.3191 229.376 77.3546 229.361 77.3927C226.326 82.7002 223.985 88.3752 222.396 94.2785C222.381 94.3386 222.366 94.3838 222.351 94.4439C221.234 98.8603 220.38 103.339 219.793 107.856C218.875 116.247 220.064 123.434 226.668 128.11Z" fill="#3A86FF"/>
<g style="mix-blend-mode:multiply">
<path d="M328.745 117.359C328.76 117.344 328.79 117.329 328.805 117.314C328.007 117.239 327.571 116.563 327.391 115.721C327.541 116.578 327.962 117.254 328.745 117.359Z" fill="#3A86FF"/>
</g>
<g style="mix-blend-mode:multiply">
<path d="M313.128 137.117C313.144 137.117 313.159 137.102 313.174 137.102C316.891 129.471 322.224 122.739 328.805 117.374C328.783 117.376 328.762 117.371 328.745 117.359C322.164 122.732 316.834 129.475 313.128 137.117Z" fill="#3A86FF"/>
</g>
<g style="mix-blend-mode:multiply">
<path d="M313.129 137.192C317.582 135.734 321.163 132.245 324.924 129.283C327.286 127.404 330.746 124.938 334.101 124.306C335.163 124.324 336.215 124.517 337.215 124.878C336.959 124.742 336.703 124.622 336.448 124.517C336.123 124.368 335.785 124.247 335.44 124.156C335.367 124.124 335.291 124.099 335.214 124.081C334.158 123.781 333.06 123.659 331.964 123.72C331.904 123.717 331.843 123.722 331.784 123.735C330.965 124.316 330.117 124.853 329.241 125.344C329.597 125.147 329.964 124.972 330.34 124.818C329.979 125.043 329.617 125.254 329.241 125.464C330.637 124.708 332.197 124.306 333.785 124.291C330.517 125.288 327.498 126.963 324.924 129.208C321.178 132.17 317.612 135.644 313.174 137.102L313.129 137.192Z" fill="#3A86FF"/>
</g>
<g style="mix-blend-mode:multiply">
<path d="M309.713 154.499C309.683 154.57 309.643 154.636 309.593 154.695C309.616 154.713 309.641 154.728 309.668 154.74C310.532 155.244 311.438 155.672 312.376 156.018C312.407 156.042 312.443 156.057 312.482 156.063C312.905 156.231 313.337 156.376 313.775 156.499C312.34 155.953 310.977 155.236 309.713 154.364C309.731 154.378 309.742 154.399 309.745 154.421C309.748 154.443 309.742 154.466 309.728 154.484H309.713V154.499Z" fill="#3A86FF"/>
</g>
<g style="mix-blend-mode:multiply">
<path d="M244.542 192.316C245.454 192.098 246.401 192.067 247.325 192.225C247.385 192.24 247.46 192.24 247.536 192.255C249.446 192.511 251.643 193.113 253.463 193.458C254.083 193.585 254.712 193.671 255.344 193.714C256.096 193.744 256.833 193.759 257.585 193.774C259.782 193.774 261.978 193.684 264.16 193.473C264.852 193.398 265.529 193.323 266.221 193.233C272.178 192.436 279.384 192.541 284.891 189.925C282.332 187.748 280.552 184.797 279.821 181.52C279.539 180.195 279.392 178.844 279.384 177.49C279.384 177.204 279.384 176.903 279.399 176.618C279.399 176.302 279.414 175.986 279.445 175.67C272.735 175.009 265.514 176.663 259.15 177.79C258.653 177.881 258.172 177.971 257.675 178.046C259.115 173.526 259.984 168.843 260.263 164.107C260.338 163.085 260.368 162.108 260.368 161.205C260.368 160.589 260.368 159.972 260.323 159.356C260.309 158.301 260.089 157.259 259.676 156.288C258.993 155.118 258.089 154.092 257.013 153.266C257.044 153.311 257.059 153.356 257.089 153.401C257.283 153.79 257.435 154.198 257.54 154.619C257.841 154.987 258.094 155.391 258.292 155.822C258.868 157.347 259.11 158.978 258.999 160.604C258.999 161.566 258.954 162.604 258.894 163.701C258.567 168.692 257.596 173.62 256.006 178.362C255.485 179.881 254.862 181.363 254.14 182.798C254.133 182.847 254.112 182.894 254.08 182.933C253.914 183.294 253.719 183.64 253.523 183.985C251.342 187.97 248.393 191.113 244.542 192.316Z" fill="#3A86FF"/>
</g>
<path d="M244.94 94.3982C245.278 95.73 245.962 96.9492 246.922 97.9329C247.877 98.645 249.002 99.0954 250.185 99.2394C252.758 99.8262 255.25 100.722 257.608 101.906C261.199 103.709 264.906 107.051 264.521 111.304C264.38 112.422 264.001 113.497 263.41 114.456C262.819 115.415 262.028 116.237 261.093 116.866C259.274 118.036 257.227 118.807 255.088 119.127C247.398 120.606 239.721 120.46 235.049 112.488C231.674 106.73 231.493 99.2758 233.36 92.7681C234.092 90.214 235.433 87.4584 237.843 86.8358C238.665 86.6717 239.516 86.7267 240.31 86.9954C241.104 87.2641 241.814 87.737 242.367 88.3665C243.859 89.9357 244.261 92.2753 244.94 94.3982Z" fill="white"/>
<path d="M244.94 94.3982C245.278 95.73 245.962 96.9492 246.922 97.9329C247.877 98.645 249.002 99.0954 250.185 99.2395C252.758 99.8262 255.25 100.722 257.608 101.906C261.199 103.709 264.906 107.051 264.521 111.303C264.162 113.215 263.183 114.955 261.735 116.254C258.536 112.028 253.463 109.758 248.8 107.236C245.122 105.496 241.914 102.903 239.443 99.6713C238.486 97.9928 237.774 96.1862 237.329 94.3063C236.564 92.4589 236.179 90.4764 236.197 88.477C236.469 85.5989 240.836 86.7561 242.367 88.366C243.86 89.9357 244.261 92.2753 244.94 94.3982Z" fill="white"/>
<path d="M240.357 106.149C243.583 107.63 246.682 109.374 249.621 111.363C252.159 112.905 254.24 115.094 255.653 117.704C255.728 117.804 255.776 117.922 255.794 118.046C255.811 118.17 255.797 118.296 255.752 118.413C255.707 118.53 255.634 118.633 255.538 118.714C255.442 118.795 255.328 118.85 255.205 118.875C252.862 119.731 250.359 120.063 247.874 119.845C245.276 119.863 242.72 119.191 240.466 117.898C238.213 116.605 236.343 114.738 235.048 112.487C233.516 109.875 231.627 106.63 232.138 103.491C232.183 103.218 232.286 102.899 232.553 102.829C232.683 102.806 232.816 102.819 232.94 102.865C235.5 103.749 237.982 104.847 240.357 106.149Z" fill="white"/>
<path d="M244.94 94.3982C245.278 95.73 245.962 96.9492 246.922 97.9329C247.877 98.645 249.002 99.0954 250.185 99.2394C252.758 99.8262 255.25 100.722 257.608 101.906C261.199 103.709 264.906 107.051 264.521 111.304C264.38 112.422 264.001 113.497 263.41 114.456C262.819 115.415 262.028 116.237 261.093 116.866C259.274 118.036 257.227 118.807 255.088 119.127C247.398 120.606 239.721 120.46 235.049 112.488C231.674 106.73 231.493 99.2758 233.36 92.7681C234.092 90.214 235.433 87.4584 237.843 86.8358C238.665 86.6717 239.516 86.7267 240.31 86.9954C241.104 87.2641 241.814 87.737 242.367 88.3665C243.859 89.9357 244.261 92.2753 244.94 94.3982Z" stroke="#3A86FF" stroke-width="2.2394" stroke-miterlimit="10"/>
<g style="mix-blend-mode:multiply" opacity="0.47">
<path d="M253.729 93.8602C253.303 92.4338 252.877 91.0075 252.452 89.5813C251.972 88.2092 251.687 86.7769 251.605 85.326C251.563 84.6071 251.674 83.8876 251.929 83.2143C252.184 82.5409 252.578 81.9287 253.086 81.4174C251.866 81.8628 250.841 82.7214 250.19 83.8438C249.538 84.9663 249.3 86.2815 249.519 87.5608C249.878 90.7179 253.061 91.6235 253.729 93.8602Z" fill="#C66D6D"/>
</g>
<g style="mix-blend-mode:multiply" opacity="0.5">
<path d="M262.404 81.5932C259.762 80.7573 256.996 79.6758 254.124 80.1894C252.604 80.4561 251.234 81.2696 250.273 82.4765C249.312 83.6833 248.826 85.1999 248.907 86.7403C248.948 87.7012 249.186 88.6435 249.607 89.5084C250.028 90.3734 250.622 91.1427 251.353 91.7685C249.597 88.8827 249.393 84.6863 252.261 82.607C255.103 80.4156 259.016 81.7085 262.404 81.5932Z" fill="#6D342B"/>
</g>
<g style="mix-blend-mode:multiply" opacity="0.47">
<path d="M297.42 125.694C299.337 131.695 295.474 133.999 290.363 133.303C284.59 132.518 279.522 128.692 275.486 124.17C271.86 120.108 268.731 114.959 268.89 109.322C268.843 108.615 268.951 107.905 269.207 107.244C269.463 106.583 269.861 105.986 270.373 105.495C270.871 105.202 271.422 105.011 271.995 104.934C272.567 104.856 273.149 104.894 273.707 105.044C279.579 106.006 283.651 109.549 287.852 113.733C291.342 117.21 295.74 120.579 297.385 125.584L297.42 125.694Z" fill="#C66D6D"/>
</g>
<g style="mix-blend-mode:multiply" opacity="0.47">
<path d="M238.388 76.3015C238.359 76.312 238.331 76.3233 238.302 76.3353C237.81 76.5905 237.381 76.9523 237.047 77.3943L234.925 79.8018C234.37 80.3368 233.961 81.0053 233.737 81.7434C232.823 85.9945 239.848 85.2141 241.846 85.377C242.364 85.4611 242.895 85.4177 243.392 85.2507C244.879 84.6136 244.816 82.2553 244.056 80.7365C243.184 78.9912 240.589 75.4993 238.388 76.3015Z" fill="#C66D6D"/>
</g>
<path d="M278.258 101.43C282.077 100.758 285.532 98.5577 289.075 99.7417C290.661 100.93 291.3 103.706 291.896 105.696C292.459 107.962 292.673 110.301 292.532 112.631C294.383 110.674 295.42 108.087 295.432 105.394C295.59 92.6767 284.566 92.4422 278.258 101.43Z" fill="#2B232B"/>
<path d="M250.067 78.553C254.413 76.9038 256.474 69.7527 251.951 66.8941C251.258 66.5379 250.483 66.3702 249.704 66.4079C248.926 66.4457 248.17 66.6875 247.515 67.1091C246.859 67.5307 246.326 68.1172 245.969 68.8099C245.612 69.5025 245.443 70.2769 245.48 71.0553C246.547 70.3451 247.824 70.0171 249.102 70.1245C249.518 70.2174 249.628 70.3973 249.642 70.4971C250.65 72.7255 250.118 75.7012 250.067 78.553Z" fill="#2B232B"/>
<path d="M299.846 83.6779C300.273 84.6146 300.885 85.4556 301.645 86.1506C302.405 86.8456 303.297 87.3803 304.269 87.7227C304.285 87.7386 304.306 87.7491 304.329 87.7527C304.406 87.7941 304.487 87.8293 304.569 87.858C306.609 88.4928 308.541 89.4305 310.301 90.6397C311.339 91.5393 312.171 92.6523 312.738 93.9026C313.633 95.9497 314.284 98.0945 314.679 100.293C316.082 98.7568 316.902 96.7775 316.996 94.6995C317.099 93.7912 317.134 92.8765 317.101 91.9629C317.058 89.2538 316.475 86.5805 315.386 84.0989C314.747 82.5852 313.868 81.184 312.784 79.9488L312.738 79.9037C312.216 79.311 311.631 78.7766 310.993 78.3099C307.247 75.6035 296.972 75.8892 299.846 83.6779Z" fill="#2B232B"/>
<g style="mix-blend-mode:multiply" opacity="0.5">
<path d="M335.912 140.235C338.589 137.74 335.916 133.107 332.508 133.149C326.72 132.916 319.042 138.526 317.94 144.317C317.349 148.596 322.67 149.733 325.799 148.348C328.122 147.432 328.499 144.618 328.178 142.481C327.886 140.369 326.904 138.414 325.385 136.918C327.392 139.377 328.973 145.723 325.356 147.28C324.494 147.58 323.575 147.683 322.668 147.58C321.761 147.476 320.889 147.17 320.117 146.683C316.772 142.757 326.026 135.64 329.602 134.621C330.473 134.213 331.432 134.031 332.392 134.091C333.351 134.151 334.28 134.451 335.094 134.963C335.888 135.563 336.418 136.449 336.571 137.433C336.724 138.417 336.488 139.422 335.912 140.235Z" fill="#6D342B"/>
</g>
<path d="M257.54 154.613C258.25 157.596 258.703 160.635 258.894 163.695C258.954 162.598 258.999 161.56 258.999 160.598C259.11 158.972 258.869 157.341 258.292 155.816C258.094 155.385 257.841 154.981 257.54 154.613Z" fill="#3A86FF"/>
<path d="M275.853 49.6316C273.928 47.6267 271.828 45.7966 269.579 44.1632C267.283 42.3104 265.232 40.1731 263.475 37.8028C262.993 39.3573 262.799 40.9867 262.903 42.6108C263.108 44.589 263.647 46.5181 264.497 48.3159C266.479 52.8049 269.89 55.5823 274.018 57.9754C274.291 58.1982 274.622 58.3381 274.972 58.3788C275.322 58.4195 275.676 58.3591 275.993 58.2049C276.236 58.0015 276.428 57.744 276.554 57.4531C277.294 56.2473 277.625 54.8352 277.499 53.4263C277.373 52.0174 276.796 50.6867 275.853 49.6316Z" fill="#2B232B"/>
<g style="mix-blend-mode:multiply" opacity="0.58">
<path d="M342.558 88.1587C343.069 88.6699 343.581 89.1812 344.107 89.7225C344.107 89.6924 344.092 89.6473 344.092 89.6172C344.047 89.3466 344.002 89.0909 343.957 88.8203C341.565 75.3477 333.155 63.7847 323.121 55.3192C320.992 53.5119 318.757 51.8348 316.426 50.2971C310.574 46.2547 303.953 43.46 296.974 42.0872C291.753 41.1911 286.411 41.2778 281.222 42.3429C275.399 43.5597 269.879 45.9322 264.989 49.3197C264.026 49.9813 263.094 50.673 262.191 51.4248C261.574 51.921 260.972 52.4473 260.371 52.9886C260.145 53.1991 259.919 53.4096 259.694 53.6201C259.694 54.2066 258.49 55.5448 257.091 56.9883C257.083 56.9888 257.076 56.9922 257.07 56.9977C257.065 57.0032 257.061 57.0106 257.061 57.0184C255.527 58.4642 254.075 59.9954 252.713 61.6045C254.804 66.2056 258.34 70.3857 263.109 72.0698C264.771 72.6428 266.536 72.8559 268.286 72.6952C270.037 72.5345 271.734 72.0035 273.264 71.1375L273.279 71.1225C274.376 70.4832 275.329 69.623 276.077 68.5964C276.227 68.4009 276.363 68.1904 276.498 67.9799C276.423 68.6715 276.348 69.3783 276.288 70.085C277.19 73.0622 280.756 74.7763 283.87 74.3252C287.121 73.6204 289.988 71.7206 291.904 69.0023C292.084 68.7768 292.25 68.5513 292.43 68.3257C306.376 63.1682 327.032 75.904 340.512 86.1438C341.189 86.8056 341.866 87.4672 342.558 88.1587Z" fill="#B991BC"/>
</g>
<g style="mix-blend-mode:multiply" opacity="0.58">
<path d="M331.964 123.72C332.792 123.107 333.58 122.445 334.326 121.735C333.484 122.472 332.626 123.133 331.784 123.735C330.965 124.316 330.117 124.853 329.241 125.344C329.597 125.147 329.963 124.972 330.339 124.818H330.354C330.911 124.472 331.438 124.111 331.964 123.72Z" fill="#B991BC"/>
</g>
<g style="mix-blend-mode:multiply" opacity="0.58">
<path d="M328.745 117.359C328.76 117.344 328.79 117.329 328.805 117.314C328.007 117.239 327.571 116.563 327.391 115.721C327.541 116.578 327.962 117.254 328.745 117.359Z" fill="#B991BC"/>
</g>
<g style="mix-blend-mode:multiply" opacity="0.58">
<path d="M313.128 137.117C313.144 137.117 313.159 137.102 313.174 137.102C316.891 129.471 322.224 122.739 328.805 117.374C328.783 117.376 328.762 117.371 328.745 117.359C322.164 122.732 316.834 129.475 313.128 137.117Z" fill="#B991BC"/>
</g>
<g style="mix-blend-mode:multiply" opacity="0.58">
<path d="M324.925 129.208C321.178 132.17 317.613 135.644 313.175 137.102L313.13 137.192C317.583 135.734 321.163 132.245 324.925 129.283C327.286 127.404 330.747 124.938 334.102 124.306C333.997 124.294 333.891 124.289 333.786 124.291C330.518 125.288 327.499 126.963 324.925 129.208Z" fill="#B991BC"/>
</g>
<g style="mix-blend-mode:multiply" opacity="0.58">
<path d="M309.729 154.484C310.564 155.073 311.45 155.586 312.377 156.018C312.407 156.042 312.444 156.057 312.482 156.063C317.552 158.254 323.254 158.49 328.487 156.727C333.721 154.964 338.117 151.326 340.825 146.515C342.657 143.302 343.751 139.722 344.03 136.035C344.045 135.809 344.045 135.599 344.045 135.373V135.298C344.045 134.922 344.03 134.546 344 134.17C343.985 133.893 343.954 133.617 343.91 133.343C343.894 133.253 343.879 133.163 343.864 133.057C343.571 131.006 342.669 129.089 341.277 127.554C341.247 127.539 341.247 127.524 341.232 127.509C341.126 127.389 341.006 127.268 340.901 127.163L340.856 127.118C339.82 126.115 338.577 125.35 337.215 124.878C338.044 125.31 338.804 125.862 339.471 126.517C344.737 131.659 342.616 140.155 339.456 145.929C336.975 150.296 333.105 153.711 328.46 155.628C323.816 157.546 318.663 157.858 313.821 156.514C313.813 156.515 313.804 156.514 313.797 156.512C313.789 156.509 313.782 156.505 313.776 156.499C312.341 155.953 310.977 155.236 309.714 154.364C309.731 154.378 309.742 154.399 309.745 154.421C309.748 154.443 309.742 154.466 309.729 154.484Z" fill="#B991BC"/>
</g>
<g style="mix-blend-mode:multiply" opacity="0.58">
<path d="M312.737 93.9026C313.812 93.2702 314.939 92.7319 316.107 92.2937C316.438 92.1734 316.769 92.0531 317.1 91.9629C317.056 89.2537 316.473 86.5804 315.385 84.0989C314.745 82.5851 313.866 81.1839 312.782 79.9488C314.956 78.6947 317.358 77.8854 319.848 77.5679C322.337 77.2504 324.866 77.431 327.285 78.0993C328.249 78.4513 329.156 78.9427 329.978 79.5579C333.468 82.9411 336.206 87.0761 336.537 91.7824C336.236 87.046 333.483 82.8959 329.978 79.4827C329.156 78.8716 328.249 78.3852 327.285 78.0392C324.858 77.3618 322.321 77.1778 319.822 77.498C317.323 77.8183 314.914 78.6363 312.737 79.9037C312.215 79.311 311.629 78.7766 310.992 78.3099C307.246 75.6033 296.971 75.889 299.844 83.6778C300.271 84.6146 300.883 85.4556 301.643 86.1506C302.403 86.8456 303.296 87.3802 304.267 87.7226C303.777 88.1999 303.254 88.642 302.702 89.0458C297.407 92.85 290.246 91.7824 284.454 88.9857C281.232 87.5323 278.383 85.3679 276.119 82.6554C276.117 82.6862 276.122 82.7172 276.134 82.7456C276.502 86.8697 277.967 90.8205 280.377 94.1883C281.497 95.6726 282.854 96.9628 284.393 98.0075C286.87 99.7361 289.721 100.854 292.713 101.27C295.674 101.714 298.698 101.414 301.514 100.398C305.561 98.8946 308.976 96.0078 312.737 93.9026Z" fill="#B991BC"/>
</g>
<g style="mix-blend-mode:multiply" opacity="0.58">
<path d="M246.618 192.646C246.394 192.747 246.162 192.833 245.926 192.902C247.626 192.376 250.62 193.143 253.283 193.729C254.415 194.012 255.566 194.208 256.728 194.315C256.893 194.315 257.059 194.331 257.224 194.331C259.361 194.403 261.501 194.363 263.633 194.21C264.957 194.135 266.281 194 267.59 193.819C273.141 193.082 279.791 193.128 285.117 191.023C285.508 190.857 285.899 190.692 286.275 190.511C286.245 190.481 286.2 190.451 286.17 190.421C286.019 190.286 285.869 190.15 285.733 190.015C283.496 187.942 281.934 185.244 281.25 182.271C280.981 181.065 280.825 179.837 280.784 178.602C280.752 177.685 280.772 176.766 280.844 175.851C281.393 171.241 282.572 166.728 284.349 162.438C289.886 161.566 295.016 162.935 300.627 160.769C301.289 160.514 308.796 155.928 309.669 154.74C309.744 154.619 309.774 154.544 309.714 154.499C309.684 154.57 309.644 154.636 309.594 154.695C309.158 154.452 308.736 154.186 308.33 153.898C308.992 154.349 299.98 159.882 299.258 160.168C293.632 162.333 288.517 160.965 282.98 161.852C281.135 166.261 279.944 170.917 279.445 175.67C272.735 175.009 265.514 176.663 259.15 177.79C258.654 177.881 258.172 177.971 257.676 178.046C257.203 179.566 256.631 181.053 255.961 182.497C255.947 182.545 255.927 182.59 255.901 182.632C255.897 182.655 255.886 182.676 255.87 182.692C253.9 186.963 251.162 190.526 247.536 192.256C247.243 192.414 246.935 192.545 246.618 192.646Z" fill="#B991BC"/>
</g>
<g style="mix-blend-mode:multiply" opacity="0.58">
<path d="M233.874 133.538C235.807 134.926 237.591 136.508 239.2 138.26C240.78 139.839 242.299 141.448 243.924 142.816C248.106 146.334 252.454 149.612 256.682 153.071C256.817 153.176 256.952 153.296 257.088 153.401C258.159 154.21 259.042 155.241 259.675 156.424C260.074 157.352 260.293 158.347 260.322 159.356C260.308 158.301 260.088 157.259 259.675 156.288C258.992 155.118 258.088 154.092 257.013 153.266C256.093 151.804 254.915 150.52 253.537 149.477C251.506 147.011 249.731 144.861 237.966 136.215C237.94 136.19 237.909 136.169 237.876 136.155C236.492 135.283 235.168 134.411 233.874 133.538Z" fill="#B991BC"/>
</g>
<path d="M313.173 137.102C317.611 135.644 321.177 132.17 324.923 129.208C327.497 126.963 330.517 125.288 333.784 124.291C332.197 124.306 330.637 124.708 329.241 125.464C329.617 125.253 329.978 125.043 330.339 124.817C329.963 124.971 329.596 125.147 329.241 125.344C330.116 124.853 330.965 124.316 331.783 123.735C332.626 123.133 333.483 122.472 334.326 121.735C334.341 121.735 334.341 121.735 334.341 121.72C344.39 113.209 354.049 97.4662 354.049 97.4662C354.049 97.4662 350.077 93.7071 343.954 88.8203C343.999 89.0909 344.044 89.3466 344.089 89.6172C344.089 89.6473 344.105 89.6924 344.105 89.7225" fill="#1359BF"/>
<path d="M344.107 89.7226C343.581 89.1813 343.069 88.6701 342.558 88.1589C341.866 87.4672 341.189 86.8056 340.512 86.144C327.032 75.9042 306.376 63.1684 292.43 68.3259C292.25 68.5514 292.084 68.777 291.904 69.0025C289.988 71.7208 287.121 73.6206 283.87 74.3254C280.756 74.7765 277.19 73.0623 276.288 70.0851C275.789 74.2577 275.734 78.4713 276.122 82.6555C278.386 85.3681 281.235 87.5325 284.457 88.9858C290.249 91.7826 297.41 92.8502 302.705 89.046C303.257 88.6422 303.78 88.2 304.27 87.7228C303.299 87.3804 302.406 86.8457 301.646 86.1508C300.886 85.4558 300.274 84.6148 299.847 83.678C296.974 75.8892 307.249 75.6035 310.995 78.31C311.632 78.7768 312.218 79.3112 312.74 79.9039C314.917 78.6365 317.326 77.8185 319.825 77.4982C322.324 77.178 324.861 77.362 327.288 78.0394C328.252 78.3854 329.159 78.8718 329.981 79.4829C333.486 82.8961 336.239 87.0462 336.54 91.7826C336.209 87.0762 333.471 82.9412 329.981 79.558C329.159 78.9429 328.252 78.4515 327.288 78.0995C324.869 77.4312 322.34 77.2505 319.851 77.5681C317.361 77.8856 314.959 78.6949 312.785 79.949C313.869 81.1841 314.748 82.5853 315.388 84.099C316.476 86.5806 317.059 89.2539 317.103 91.9631C321.011 90.7745 325.2 90.896 329.033 92.3089C325.525 99.2682 321.481 105.944 316.937 112.277C312.256 118.779 307.208 125.009 301.818 130.937C296.206 136.756 289.858 142.215 282.411 145.538C267.772 152.078 251.028 144.44 237.97 136.215C249.734 144.861 251.51 147.011 253.541 149.477C254.919 150.52 256.096 151.804 257.016 153.266C258.091 154.092 258.995 155.118 259.679 156.289C260.092 157.259 260.311 158.301 260.326 159.356C260.371 159.973 260.371 160.589 260.371 161.206C260.371 162.108 260.341 163.085 260.265 164.108C259.987 168.843 259.117 173.526 257.678 178.046C258.174 177.971 258.656 177.881 259.152 177.791C265.516 176.663 272.737 175.009 279.447 175.671C279.946 170.917 281.137 166.262 282.982 161.852C288.519 160.965 293.634 162.333 299.26 160.168C299.982 159.882 308.994 154.349 308.332 153.898C308.738 154.186 309.16 154.452 309.596 154.695C309.645 154.636 309.686 154.57 309.716 154.499V154.484H309.731C309.744 154.466 309.75 154.444 309.748 154.421C309.745 154.399 309.733 154.378 309.716 154.364C310.979 155.236 312.343 155.953 313.778 156.499C313.784 156.505 313.791 156.509 313.799 156.512C313.807 156.514 313.815 156.515 313.823 156.514C318.665 157.858 323.818 157.546 328.463 155.628C333.107 153.711 336.978 150.296 339.459 145.929C342.618 140.155 344.739 131.659 339.474 126.517C338.806 125.862 338.046 125.31 337.217 124.878C336.218 124.517 335.165 124.324 334.103 124.306C330.748 124.938 327.288 127.404 324.926 129.283C321.165 132.245 317.584 135.734 313.131 137.192L313.176 137.102C313.161 137.102 313.146 137.117 313.131 137.117C316.837 129.475 322.166 122.732 328.747 117.359" fill="#1359BF"/>
<path d="M313.128 137.117C313.144 137.117 313.159 137.102 313.174 137.102C316.891 129.471 322.224 122.739 328.805 117.374C328.783 117.376 328.762 117.371 328.745 117.359C322.164 122.732 316.834 129.475 313.128 137.117Z" fill="#3A2C39"/>
<path d="M299.847 83.6779C300.275 84.6146 300.887 85.4556 301.646 86.1506C302.406 86.8456 303.299 87.3803 304.27 87.7227C305.97 86.1288 307.415 84.1891 309.13 82.5802C310.225 81.5509 311.437 80.6527 312.74 79.9037C312.218 79.311 311.633 78.7766 310.995 78.3099C307.249 75.6035 296.974 75.8892 299.847 83.6779Z" fill="#3A2C39"/>
<path d="M250.047 42.2679C250.123 42.8392 250.213 43.4106 250.318 43.982C250.316 44.008 250.321 44.0341 250.333 44.0572C251.025 47.4037 252.359 50.5847 254.26 53.4248C255.104 54.6873 256.05 55.8792 257.088 56.9885C259.828 59.9199 263.03 62.3834 266.566 64.2811C269.59 65.9501 273.426 67.1531 276.36 65.7096C276.317 65.7408 276.276 65.7761 276.24 65.8148C274.715 67.2344 273.673 69.0959 273.261 71.1377C273.186 71.5136 273.11 71.9045 273.065 72.2955C272.935 73.2825 272.91 74.2804 272.99 75.2727C273.097 76.4046 273.356 77.517 273.757 78.5807C274.331 80.0517 275.128 81.426 276.119 82.6556C275.731 78.4713 275.787 74.2578 276.285 70.0851C277.187 73.0623 280.753 74.7765 283.867 74.3254C287.118 73.6206 289.985 71.7208 291.901 69.0025C292.081 68.777 292.247 68.5514 292.427 68.3259C306.373 63.1684 327.029 75.9042 340.509 86.144C341.186 86.8056 341.863 87.4672 342.555 88.1589C343.067 88.6701 343.578 89.1813 344.105 89.7226C344.105 89.6926 344.09 89.6475 344.09 89.6174C344.044 89.3467 343.999 89.0911 343.954 88.8205C350.077 93.7073 354.049 97.4664 354.049 97.4664C354.049 97.4664 344.39 113.209 334.341 121.72C334.341 121.735 334.341 121.735 334.326 121.735C333.483 122.472 332.626 123.133 331.783 123.735C330.965 124.316 330.116 124.853 329.241 125.344C329.596 125.147 329.963 124.972 330.339 124.818C329.978 125.043 329.617 125.254 329.241 125.464C330.637 124.708 332.197 124.306 333.784 124.291C333.95 124.246 334.13 124.216 334.296 124.186C334.599 124.13 334.905 124.095 335.213 124.081C336.011 124.027 336.811 124.119 337.575 124.351C338.812 124.907 339.888 125.765 340.705 126.847C340.885 127.058 341.051 127.284 341.231 127.509C341.246 127.524 341.246 127.539 341.276 127.554C342.545 129.169 343.43 131.051 343.864 133.057C343.879 133.163 343.894 133.253 343.909 133.343V133.418C343.959 133.833 343.964 134.251 343.924 134.666C343.85 135.235 343.639 135.777 343.307 136.245C343.368 136.156 343.433 136.071 343.503 135.99C343.668 135.764 343.864 135.523 344.044 135.298C348.272 130.125 356.742 123.509 357.298 116.036C357.341 115.46 357.331 114.881 357.268 114.307C357.185 113.336 356.956 112.384 356.591 111.48C356.576 111.45 356.561 111.435 356.546 111.405C356.513 111.297 356.473 111.192 356.426 111.089C356.636 111.445 356.925 111.748 357.271 111.974C357.617 112.2 358.01 112.343 358.421 112.393C358.831 112.442 359.247 112.397 359.637 112.259C360.027 112.122 360.38 111.896 360.668 111.601C361.837 110.261 362.516 108.564 362.594 106.789C362.639 106.413 362.684 106.022 362.729 105.646C363.264 99.8019 362.414 93.9141 360.247 88.4596C358.821 84.8176 356.775 81.4498 354.199 78.5055C354.184 78.4754 354.154 78.4604 354.139 78.4303C355.553 78.9416 357.013 77.483 357.253 75.8892C357.272 75.8205 357.282 75.7498 357.283 75.6787C357.294 75.3879 357.289 75.0968 357.268 74.8066C357.025 73.4131 356.481 72.0894 355.674 70.9272C350.333 62.2211 342.299 51.5002 332.641 48.7937C334.849 49.4073 337.134 49.696 339.426 49.6507C339.275 47.1848 336.808 45.6811 334.551 45.2902C332.295 44.9143 329.903 45.1849 327.812 44.1925C327.707 44.1464 327.606 44.0911 327.511 44.0271C326.18 43.2063 324.983 42.1871 323.96 41.0048C321.309 38.0931 318.254 35.5765 314.888 33.5317C314.272 33.1859 313.64 32.9002 313.023 32.6145C312.752 32.1033 312.481 31.577 312.241 31.0507C310.706 27.7277 309.638 24.1641 308.119 20.841C304.237 12.3455 297.031 5.45882 288.471 3.32366C284.13 2.24855 279.568 2.47681 275.356 3.97989C271.144 5.48297 267.469 8.19412 264.791 11.7741C263.072 14.1685 262.018 16.9752 261.737 19.9088C261.674 20.6188 261.664 21.3325 261.707 22.0439C261.816 23.914 262.511 25.7024 263.693 27.1563C263.8 27.307 263.921 27.4478 264.054 27.5773C263.982 27.5126 263.907 27.4523 263.828 27.3969C263.77 27.3338 263.704 27.2783 263.632 27.2315C262.284 26.3204 260.674 25.8732 259.049 25.9573C257.423 26.0414 255.869 26.6523 254.621 27.6976C251.911 30.1246 250.254 33.5121 250.002 37.1405V37.2156C249.822 38.8958 249.837 40.5912 250.047 42.2679Z" fill="#3A2C39"/>
<g style="mix-blend-mode:multiply" opacity="0.26">
<path d="M313.176 137.102L313.131 137.192C317.584 135.734 321.165 132.245 324.926 129.283C327.288 127.404 330.748 124.938 334.103 124.306C334.296 124.261 334.492 124.231 334.69 124.216C334.938 124.174 335.19 124.154 335.442 124.156C336.164 124.125 336.886 124.217 337.578 124.426C338.696 124.907 339.678 125.656 340.436 126.607C340.572 126.772 340.722 126.937 340.858 127.118L340.903 127.163C342.123 128.633 343.05 130.323 343.632 132.142C343.694 132.362 343.757 132.581 343.8 132.797C343.844 133.006 343.886 133.214 343.912 133.418C343.962 133.833 343.967 134.251 343.927 134.666C343.888 135.133 343.744 135.586 343.506 135.99C343.455 136.108 343.389 136.219 343.31 136.32C343.536 136.005 343.776 135.704 344.047 135.373C348.275 130.185 356.805 123.539 357.301 116.036C357.344 115.46 357.333 114.881 357.271 114.307C357.159 113.222 356.874 112.161 356.429 111.164C356.46 111.249 356.5 111.33 356.549 111.405C356.564 111.435 356.579 111.45 356.594 111.48C356.84 111.775 357.145 112.016 357.489 112.187C357.833 112.357 358.209 112.454 358.593 112.471C358.977 112.488 359.36 112.425 359.718 112.285C360.075 112.146 360.4 111.933 360.671 111.661C361.839 110.327 362.518 108.635 362.597 106.864C362.642 106.458 362.687 106.052 362.732 105.646C363.277 99.7879 362.411 93.8843 360.205 88.4295C358.773 84.7914 356.722 81.4287 354.142 78.4904C354.16 78.5023 354.181 78.5077 354.202 78.5055C355.616 78.9716 357.06 77.483 357.256 75.8892C357.274 75.8204 357.285 75.7498 357.286 75.6786C357.296 75.3879 357.291 75.0968 357.271 74.8065C357.008 73.4421 356.465 72.1469 355.676 71.0023C349.839 61.4843 341.896 54.1315 331.259 51.1994C329.308 50.6572 327.316 50.2751 325.302 50.0567C322.346 49.7383 319.36 49.8192 316.426 50.2973C309.297 51.3179 302.775 54.8734 298.057 60.3115C297.874 60.5012 297.703 60.7021 297.545 60.9129C295.695 63.2736 294.235 65.92 292.43 68.3259C306.376 63.1684 327.032 75.9042 340.512 86.144C341.189 86.8056 341.866 87.4672 342.558 88.1588C343.069 88.6701 343.581 89.1813 344.107 89.7226C344.107 89.6925 344.092 89.6474 344.092 89.6174C344.047 89.3467 344.002 89.0911 343.957 88.8204C350.08 93.7072 354.052 97.4664 354.052 97.4664C354.052 97.4664 344.393 113.209 334.344 121.72C334.344 121.735 334.344 121.735 334.328 121.735C333.486 122.472 332.628 123.133 331.786 123.735C330.968 124.316 330.119 124.853 329.244 125.344C329.599 125.147 329.966 124.972 330.342 124.817C329.981 125.043 329.62 125.254 329.244 125.464C330.639 124.708 332.199 124.306 333.787 124.291C330.52 125.288 327.5 126.963 324.926 129.208C321.18 132.17 317.614 135.644 313.176 137.102Z" fill="#3A2C39"/>
</g>
<g style="mix-blend-mode:multiply" opacity="0.26">
<path d="M250.047 42.2678C250.123 42.8392 250.213 43.4106 250.318 43.982C250.316 44.008 250.321 44.0341 250.333 44.0572V44.0722C251.011 47.4369 252.346 50.6353 254.26 53.485C255.095 54.7366 256.031 55.9184 257.058 57.0185C259.796 59.9767 263.01 62.4567 266.566 64.3563C269.545 66.0103 273.321 67.1981 276.239 65.8148C276.285 65.8148 276.315 65.7847 276.36 65.7697C274.787 67.1795 273.706 69.0552 273.276 71.1226C273.185 71.5136 273.125 71.9045 273.065 72.2955C272.935 73.2824 272.91 74.2804 272.99 75.2727C273.092 76.4299 273.35 77.5679 273.757 78.6559C274.336 80.1322 275.138 81.5114 276.134 82.7457C278.401 85.4447 281.244 87.6025 284.454 89.061C290.246 91.8428 297.407 92.9254 302.702 89.1212C303.274 88.7024 303.817 88.2452 304.327 87.7529C305.997 86.159 307.441 84.2494 309.126 82.6555C310.234 81.6126 311.461 80.7041 312.782 79.949C314.956 78.6949 317.358 77.8856 319.848 77.568C322.337 77.2505 324.866 77.4312 327.285 78.0995C328.249 78.4515 329.156 78.9429 329.978 79.558C333.468 82.9412 336.206 87.0762 336.537 91.7826C336.236 87.0462 333.483 82.8961 329.978 79.4829C329.156 78.8718 328.249 78.3854 327.285 78.0394C324.858 77.362 322.321 77.1779 319.822 77.4982C317.323 77.8185 314.914 78.6365 312.737 79.9039C312.215 79.3112 311.629 78.7768 310.992 78.31C307.246 75.6035 296.971 75.8892 299.844 83.678C300.271 84.6148 300.883 85.4558 301.643 86.1508C302.403 86.8457 303.296 87.3804 304.267 87.7228C303.777 88.2 303.254 88.6422 302.702 89.046C297.407 92.8502 290.246 91.7826 284.454 88.9858C281.232 87.5325 278.383 85.3681 276.119 82.6555C275.731 78.4713 275.786 74.2577 276.285 70.0851C276.241 69.9624 276.206 69.8368 276.179 69.7092C276.099 69.344 276.063 68.9703 276.074 68.5965C276.071 68.1833 276.151 67.7737 276.309 67.3916C276.466 67.0095 276.699 66.6626 276.992 66.3711C277.654 65.8546 278.41 65.4716 279.218 65.2434C283.313 63.6908 286.642 60.6061 288.501 56.6426C288.779 56.0465 289.02 55.4339 289.223 54.8082C289.356 54.4744 289.403 54.1123 289.358 53.7556C289.193 52.8534 288.38 52.688 287.447 52.8835C286.628 53.0818 285.856 53.4395 285.176 53.9361C282.723 55.6748 279.829 56.686 276.826 56.8531C275.076 56.9744 273.317 56.8376 271.606 56.4471C270.942 56.3126 270.288 56.1317 269.65 55.9058C266.885 54.9328 264.346 53.4083 262.188 51.425C260.323 49.7538 258.707 47.8246 257.389 45.6961C255.997 43.5045 255.027 41.0719 254.53 38.5238C254.366 37.6762 254.275 36.8159 254.26 35.9526C254.137 33.4977 254.829 31.071 256.23 29.0509C256.725 28.266 257.458 27.66 258.322 27.3217C259.861 27.0941 261.429 27.4538 262.715 28.3291C262.835 28.3893 262.94 28.4344 263.061 28.4945C265.085 29.4345 267.282 29.9465 269.513 29.9982C271.745 30.0499 273.963 29.6404 276.029 28.7953L276.751 28.4795C276.305 28.4648 275.861 28.4043 275.427 28.299C274.126 28.002 272.898 27.4471 271.815 26.6671C270.732 25.8871 269.817 24.8979 269.123 23.7581C268.179 22.339 267.567 20.7251 267.333 19.0367C267.151 16.841 267.413 14.6312 268.103 12.5387C268.793 10.4463 269.897 8.5141 271.35 6.85719C269.485 8.61645 266.431 9.56374 264.791 11.8342C263.085 14.2132 262.032 16.997 261.737 19.9088C261.674 20.6188 261.664 21.3324 261.707 22.0439C261.802 23.9253 262.486 25.7293 263.662 27.2014C263.709 27.2732 263.765 27.3388 263.828 27.3969C263.903 27.4871 263.978 27.5773 264.054 27.6525C263.903 27.5172 263.753 27.3969 263.602 27.2766C262.253 26.3773 260.648 25.9395 259.029 26.029C257.409 26.1184 255.863 26.7303 254.621 27.7728C251.908 30.1977 250.25 33.5863 250.002 37.2156C249.822 38.8958 249.837 40.5912 250.047 42.2678Z" fill="#3A2C39"/>
</g>
<path d="M337.657 4.47512C343.693 -0.10962 353.224 1.19013 357.23 7.87831C362.114 0.73874 371.534 -0.929104 379.649 0.518447C395.26 3.30303 409.526 17.3239 410.387 34.3674C410.754 41.645 407.904 49.9803 401.5 52.3036C406.708 55.2009 409.369 62.0521 408.759 68.3388C407.936 74.5464 404.999 80.2813 400.442 84.5781C396.821 88.4997 391.983 91.0858 386.709 91.9184C384.073 92.2426 381.398 91.8236 378.988 90.7087C376.577 89.5938 374.527 87.8275 373.068 85.6091C374.004 88.4752 371.528 91.6301 368.742 92.0817C365.956 92.5332 363.208 91.0201 360.993 89.1428C354.727 83.8323 351.258 75.6839 346.783 68.5706C341.944 60.878 335.896 55.1405 329.205 49.4331C323.736 44.7676 325.37 45.9164 330.086 42.2006C336.831 36.8865 332.752 32.5954 331.212 24.884C329.732 17.4762 331.69 9.00828 337.657 4.47512Z" fill="#3A2C39"/>
<g style="mix-blend-mode:multiply" opacity="0.46">
<path d="M336.963 5.61005C332.273 16.2827 334.793 29.6812 343.976 37.2165C339.47 39.7743 339.271 45.9015 341.217 50.1249C342.473 52.3777 344.084 54.4136 345.988 56.1545C346.979 57.0892 352.501 59.6243 352.757 60.3211C351.094 55.786 350.466 50.9371 350.917 46.1283C350.999 43.9561 351.678 41.8485 352.879 40.0363C357.85 33.444 366.925 38.2549 369.204 44.6049C370.926 49.4023 370.173 54.6892 369.399 59.7268L371.646 52.6858C371.782 51.9118 372.079 51.1752 372.519 50.5237C372.958 49.8723 373.53 49.3208 374.197 48.9052C376.537 47.9086 378.869 50.3798 379.914 52.6972C381.292 55.7611 382.007 59.0815 382.01 62.4408C386.563 50.3666 381.522 36.9349 382.103 24.0448C382.062 20.7506 382.979 17.5155 384.744 14.7331C396.209 -1.0682 409.893 24.5675 410.387 34.3695C410.753 41.6471 407.904 49.9806 401.5 52.3035C406.708 55.2009 409.369 62.0521 408.759 68.3388C407.936 74.5464 404.999 80.2813 400.442 84.5781C396.821 88.4996 391.983 91.0858 386.709 91.9184C384.073 92.2426 381.398 91.8236 378.988 90.7087C376.577 89.5938 374.527 87.8274 373.068 85.6091C374.004 88.4752 371.528 91.6301 368.742 92.0817C365.956 92.5332 363.208 91.0201 360.993 89.1428C354.727 83.8323 351.257 75.6839 346.783 68.5706C341.944 60.878 335.896 55.1405 329.205 49.4331C323.736 44.7676 325.37 45.9164 330.086 42.2006C336.831 36.8865 332.752 32.5954 331.212 24.884C329.92 18.1041 331.13 9.95721 336.963 5.61005Z" fill="#3A2C39"/>
</g>
<path d="M27.4464 119.206C36.1527 132.721 40.2535 149.275 47.7141 163.745C55.146 178.279 66.1727 190.673 79.7467 199.748C80.7292 200.573 81.9826 201.005 83.2649 200.961C84.2087 200.707 85.0675 200.207 85.7525 199.51C87.2118 198.27 103.585 182.326 101.418 180.201C101.18 179.998 100.952 179.783 100.724 179.567C90.3599 169.771 81.1142 158.284 71.6764 147.485C59.4798 133.53 47.6037 120.051 37.0554 104.5C37.6917 105.438 26.0911 115.108 25.0721 115.762C25.9016 116.885 26.6931 118.033 27.4464 119.206Z" fill="#3A86FF"/>
<g style="mix-blend-mode:multiply" opacity="0.58">
<path d="M38.5572 142.929C42.7227 148.735 44.4169 157.35 47.7141 163.745C55.146 178.279 66.1727 190.673 79.7467 199.748C80.7292 200.573 81.9826 201.005 83.2649 200.961C84.2087 200.707 85.0675 200.207 85.7525 199.51C87.2118 198.27 103.585 182.326 101.418 180.201C101.18 179.998 100.952 179.783 100.724 179.567C92.9373 171.942 85.5546 163.916 78.6059 155.521C76.4026 152.953 71.7862 145.198 68.2758 145.469C66.5865 145.599 63.8329 148.649 62.3739 149.571C60.2095 150.938 57.9388 152.129 55.5837 153.133C53.0317 154.221 50.0359 155.069 47.5614 153.815C46.2362 153.017 45.1053 151.934 44.2506 150.645C42.3018 148.111 40.404 145.539 38.5572 142.929Z" fill="#B991BC"/>
</g>
<path d="M42.8012 86.7842C45.6704 80.0076 49.3391 73.5977 53.7294 67.6907C55.2317 65.9708 56.2419 63.8776 56.6536 61.6318C56.9406 58.1694 54.3925 55.2741 52.0402 52.8981C33.8542 65.5554 19.5013 83.5422 5.41919 101.271C13.1068 109.058 19.3953 118.57 27.0349 126.212C30.8215 119.931 39.3786 117.881 44.0627 112.386C44.4291 112.023 44.6831 111.563 44.7945 111.06C44.9149 110.17 44.2408 109.417 43.6905 108.741C38.7833 102.711 39.768 94.5637 42.8012 86.7842Z" fill="#3E2A51"/>
<g style="mix-blend-mode:multiply" opacity="0.39">
<path d="M35.0799 80.7213C37.1588 78.0794 39.3688 75.5388 41.6633 73.0838C44.1166 70.4592 46.6695 67.9291 49.2773 65.4583C50.8127 64.0034 54.3773 59.3446 56.634 59.9042C56.9151 57.5714 53.5142 54.3866 52.0406 52.8981C33.8546 65.5554 19.5017 83.5422 5.41959 101.271C9.26567 105.167 12.7088 109.431 16.1514 113.679C19.4689 117.774 22.8351 122.919 27.0285 126.141C27.9613 124.953 28.6187 124.401 28.1475 122.95C27.2426 120.161 25.1146 117.925 27.5976 115.31C29.7939 113 32.4164 111.135 35.3207 109.82C34.6049 109.727 33.9167 109.485 33.3004 109.11C32.6841 108.734 32.1535 108.234 31.743 107.641C30.9301 106.449 30.3182 105.133 29.9316 103.744C28.4999 99.9599 28.0352 95.8789 28.5797 91.8704C29.3882 87.6088 32.4672 84.0419 35.0799 80.7213Z" fill="#3E2A51"/>
</g>
<path d="M45.4256 104.88C42.2578 101.574 40.2887 97.3027 39.8319 92.7478C37.5474 96.6902 39.0423 102.347 36.413 106.03C35.1025 107.571 33.4668 108.801 31.6236 109.634C26.6433 112.445 22.0739 115.927 18.0441 119.984C19.7663 124.103 22.6693 127.62 26.3876 130.094C26.8665 130.45 27.4202 130.693 28.0068 130.805C28.7307 130.846 29.448 130.647 30.0474 130.239C34.5279 127.562 35.2588 120.902 38.6747 116.784C42.3591 112.344 45.2759 117.817 48.7462 115.677C53.5677 112.703 47.5321 107.03 45.4256 104.88Z" fill="#643366"/>
<g style="mix-blend-mode:multiply" opacity="0.54">
<path d="M48.7463 115.677C51.8153 113.784 50.3959 110.782 48.5769 108.648C48.7977 108.933 48.9587 109.259 49.0504 109.608C49.142 109.956 49.1624 110.319 49.1102 110.676C49.0581 111.033 48.9345 111.375 48.7468 111.683C48.5592 111.99 48.3114 112.257 48.0183 112.467C46.5173 113.439 44.5218 112.632 43.0171 111.666C41.5123 110.7 39.8849 109.524 38.1212 109.822C35.8352 110.208 34.7371 112.752 33.763 114.855C33.0844 116.71 31.756 118.257 30.0239 119.209C25.9563 120.974 23.7698 115.987 25.9318 112.959C23.2178 115.194 20.5297 117.487 18.0442 119.983C19.7664 124.102 22.6694 127.62 26.3877 130.093C26.8666 130.45 27.4203 130.693 28.0069 130.805C28.7308 130.846 29.4481 130.647 30.0475 130.239C34.528 127.561 35.2589 120.901 38.6748 116.784C42.3592 112.344 45.276 117.817 48.7463 115.677Z" fill="#643366"/>
</g>
<path d="M56.769 53.7068C57.1178 54.4463 57.4035 55.2139 57.623 56.0015C47.7601 57.9213 38.5746 70.6077 31.7785 77.8451C23.1936 86.783 15.5085 96.5427 8.83412 106.983C8.58183 107.388 8.28425 107.829 7.83954 107.917C7.33721 108.016 6.87532 107.625 6.50057 107.251C4.38993 105.148 2.51606 102.821 0.912388 100.31C15.4248 80.4157 29.9879 63.5693 49.8826 49.8958C50.474 49.4053 51.187 49.0836 51.9462 48.9644C52.5078 49.0069 53.0525 49.1753 53.5401 49.4569C54.0277 49.7385 54.4456 50.1263 54.7628 50.5914C55.5668 51.5364 56.2414 52.584 56.769 53.7068Z" fill="white"/>
<path d="M313.084 546.098L300.258 547.874C299.707 548.011 299.126 547.963 298.605 547.735C298.125 547.376 297.764 546.88 297.573 546.312C286.669 522.411 274.395 499.928 261.456 477.382L255.646 467.256C254.328 464.961 249.723 459.465 249.823 456.788C249.951 453.407 258.133 449.22 260.649 447.258C263.928 444.701 267.377 442.252 270.469 439.428C278.833 455.322 291.653 468.087 298.981 484.665C303.411 495.112 306.807 505.966 309.122 517.074C309.622 519.31 313.963 545.976 313.951 545.978L313.084 546.098Z" fill="#3A86FF"/>
<g style="mix-blend-mode:multiply" opacity="0.58">
<path d="M310.246 542.667C310.106 542.776 309.96 542.878 309.808 542.97C307.015 536.232 307.033 526.796 304.874 519.401C302.236 510.363 298.777 501.587 295.281 492.854C295.869 494.322 276.336 500.608 273.724 499.011C268.838 496.025 264.363 482.448 261.455 477.382L255.645 467.256C254.327 464.961 249.722 459.465 249.822 456.787C249.95 453.406 258.132 449.219 260.648 447.258C263.927 444.701 267.376 442.252 270.468 439.428C278.831 455.322 291.652 468.087 298.98 484.665C303.41 495.112 306.806 505.967 309.121 517.075C310.408 522.83 315.658 538.423 310.246 542.667Z" fill="#B991BC"/>
</g>
<path d="M293.812 528.666C293.312 528.666 288.573 536.539 287.741 537.468C285.246 540.263 282.382 542.707 279.229 544.732C272.39 549.097 263.495 550.609 255.903 553.043C254.214 553.39 252.695 554.305 251.602 555.637C250.381 557.495 250.795 560.026 251.26 562.247C251.315 562.844 251.575 563.403 251.995 563.83C252.386 564.071 252.844 564.184 253.302 564.151C258.596 564.305 319.58 565.509 319.494 563.799C318.856 551.141 314.607 539.741 312.148 527.414C311.995 526.661 295.349 528.666 293.812 528.666Z" fill="#3E2A51"/>
<g style="mix-blend-mode:multiply" opacity="0.44">
<path d="M300.24 532.674C298.742 537.637 297.917 542.848 295.523 547.44C295.11 548.307 294.554 549.098 293.879 549.781C292.946 550.572 291.867 551.172 290.702 551.546C284.353 553.941 277.524 554.706 270.779 555.452L252.076 557.519C250.375 557.708 250.811 558.832 250.936 560.155C250.977 561.063 251.091 561.967 251.276 562.857C251.675 564.363 252.012 565.201 253.701 565.25C258.994 565.405 319.979 566.609 319.892 564.898C319.254 552.24 314.799 540.688 312.34 528.36C312.22 527.757 307.217 528.567 306.755 528.605C305.302 528.606 303.853 528.756 302.43 529.053C301.362 529.381 300.959 530.439 300.619 531.47C300.488 531.869 300.361 532.271 300.24 532.674Z" fill="#3E2A51"/>
</g>
<path d="M322.653 559.304L248.505 559.22C248.336 562.317 247.068 565.043 250.234 566.152C252.125 566.814 254.415 566.083 256.356 566.094L268.017 566.16C275.577 566.203 283.137 566.289 290.696 566.289L311.762 566.409C318.107 566.445 324.5 568.454 322.653 559.304Z" fill="white"/>
<path d="M315.005 525.77L314.989 525.678C314.941 525.215 314.793 524.769 314.555 524.37C314.303 524.095 313.996 523.875 313.654 523.726C313.312 523.577 312.943 523.5 312.569 523.502C306.024 522.722 299.389 523.19 293.018 524.883C292.183 525.015 291.422 525.437 290.868 526.076C290.166 527.476 289.831 529.032 289.895 530.597C289.23 528.973 288.503 527.38 287.715 525.818C287.193 526.156 286.606 526.382 285.991 526.48C286.743 526.361 287.705 532.902 287.716 533.677C287.791 534.892 287.597 536.108 287.148 537.24C286.699 538.371 286.006 539.389 285.118 540.222L289.173 536.092C289.751 535.429 290.441 534.874 291.213 534.451C292.06 534.121 292.964 533.961 293.873 533.981C297.891 533.81 301.916 533.796 305.933 534.005C308.302 534.127 312.889 533.796 314.487 536.059C314.53 535.464 315.237 535.271 315.786 535.204C317.426 535.001 316.994 533.317 316.491 532.116C315.759 530.063 315.261 527.934 315.005 525.77Z" fill="#643366"/>
<g style="mix-blend-mode:multiply" opacity="0.44">
<path d="M286.796 526.273C287.119 526.157 287.427 526.004 287.715 525.818C288.502 527.378 289.229 528.971 289.895 530.597C289.831 529.032 290.166 527.476 290.868 526.075C291.422 525.437 292.183 525.014 293.018 524.883C299.389 523.19 306.024 522.721 312.569 523.502C312.943 523.5 313.312 523.576 313.654 523.726C313.996 523.875 314.303 524.094 314.555 524.369C314.793 524.769 314.941 525.215 314.989 525.677L315.005 525.769C315.261 527.934 315.759 530.063 316.491 532.116C316.994 533.317 317.426 535.001 315.787 535.203C315.237 535.271 314.53 535.464 314.487 536.058C314.501 535.868 313.907 535.566 313.785 535.496C314.016 535.881 314.126 536.327 314.099 536.775C308.395 536.182 302.69 535.589 297.001 534.867C295.113 534.58 293.209 534.419 291.3 534.385C295.109 533.592 299.219 534.31 302.907 532.937C304.798 532.143 306.61 531.175 308.32 530.045C308.434 529.988 308.531 529.901 308.598 529.792C308.657 529.62 308.646 529.431 308.568 529.266C308.326 528.531 308.084 527.796 307.842 527.061C307.784 526.794 307.642 526.554 307.437 526.374C307.247 526.265 307.031 526.208 306.812 526.209C302.075 525.818 297.309 525.932 292.595 526.549C292.326 526.504 292.049 526.521 291.787 526.6C291.525 526.679 291.285 526.818 291.086 527.005C290.887 527.192 290.733 527.422 290.638 527.679C290.542 527.935 290.507 528.209 290.535 528.481C290.465 529.77 290.833 532.203 289.896 533.218C289.707 533.423 288.453 530.648 288.371 530.456C287.78 529.088 287.246 527.693 286.796 526.273Z" fill="#643366"/>
</g>
<path d="M138.886 291.751C126.883 273.903 116.823 254.824 108.879 234.839C107.269 234.886 105.693 234.373 104.421 233.387C103.783 232.837 103.351 232.087 103.194 231.26C103.038 230.433 103.167 229.577 103.559 228.833C99.7983 230.227 95.3753 225.964 96.2381 221.776C82.7778 213.49 70.9136 202.858 61.2091 190.385C66.9141 178.624 75.083 169.834 82.4206 159.431C81.9106 160.154 99.4255 175.659 100.853 176.777L125.26 195.895C128.069 197.981 130.712 200.282 133.165 202.777C135.259 205.121 137.194 207.603 138.957 210.205C154.197 231.643 170.327 251.823 186.356 272.588C185.326 270.289 188.998 267.832 190.449 269.849C203.35 251.699 215.753 233.155 227.658 214.215C232.935 205.82 238.189 197.253 245.179 190.468C252.169 183.683 261.231 178.764 270.625 179.226C258.064 188.862 249.819 205.526 246.148 221.525C240.524 245.93 240.899 273.895 243.831 298.682C254.62 285.938 264.052 271.845 274.624 259.057C279.673 252.949 283.168 244.955 286.451 237.626C289.43 230.976 294.174 222.969 295.658 215.771C291.677 235.078 282.389 252.904 273.908 270.253C267.722 282.906 261 295.231 253.741 307.227C253.133 308.125 252.666 309.11 252.354 310.149C252.11 311.632 252.137 313.148 252.433 314.622C253.34 322.277 252.438 330.039 249.798 337.282C248.595 340.769 246.868 344.052 244.677 347.02C243.379 348.734 240.497 350.468 239.804 352.446C239.591 353.3 239.603 354.196 239.841 355.044C242.737 370.223 246.003 385.287 248.917 400.406L251.683 399.336C252.454 401.445 252.561 403.74 251.988 405.912C255.246 405.513 258.134 409.722 256.829 412.966C257.805 410.545 268.364 423.11 269.429 424.668C274.889 432.657 279.291 441.904 283.747 450.571C283.953 450.891 284.057 451.266 284.045 451.647C283.964 451.996 283.781 452.313 283.519 452.558C276.678 460.282 268.853 467.875 260.152 473.154C259.018 474.045 257.613 474.524 256.171 474.51C254.467 474.296 253.188 472.788 252.076 471.379C236.48 451.632 220.854 431.844 207.171 410.51C204.646 406.81 202.512 402.857 200.802 398.717C193.655 379.929 188.238 360.416 182.734 341.016C182.41 339.617 181.884 338.273 181.173 337.026C180.262 335.767 179.15 334.668 177.881 333.773C162.892 321.752 149.753 307.593 138.886 291.751Z" fill="#6C679B"/>
<g style="mix-blend-mode:multiply" opacity="0.5">
<path d="M138.886 291.751C126.883 273.903 116.823 254.824 108.879 234.839C107.269 234.886 105.693 234.373 104.421 233.387C103.783 232.837 103.351 232.087 103.194 231.26C103.038 230.433 103.167 229.577 103.559 228.833C99.7983 230.227 95.3753 225.964 96.2381 221.776C82.7778 213.49 70.9136 202.858 61.2091 190.385C66.9141 178.624 75.083 169.834 82.4206 159.431C81.9106 160.154 99.4255 175.659 100.853 176.777C102.873 178.359 109.103 184.891 111.846 184.635C107.962 185.043 104.251 186.453 101.076 188.725C97.9005 190.997 95.3698 194.054 93.7312 197.597L98.8115 196.308C99.0954 196.191 99.4013 196.138 99.7078 196.153C100.014 196.168 100.314 196.25 100.585 196.393C101.312 196.944 101.016 198.085 100.627 198.911C99.125 202.105 97.2808 205.128 95.1272 207.925L109.615 204.106C109.818 204.022 110.037 203.981 110.257 203.986C110.477 203.991 110.694 204.041 110.894 204.133C111.057 204.28 111.187 204.46 111.274 204.662C111.36 204.864 111.402 205.083 111.395 205.302C111.671 208.37 110.878 211.44 109.151 213.991C113.542 211.639 117.657 208.805 121.42 205.541C122.974 209.228 123.515 213.264 122.986 217.231C122.456 221.197 120.876 224.95 118.408 228.102C122.444 225.471 126.976 223.694 131.725 222.879C132.575 222.648 133.478 222.707 134.292 223.045C134.82 223.465 135.237 224.008 135.505 224.627C135.773 225.245 135.885 225.921 135.83 226.593C136.408 235.95 134.594 245.3 130.558 253.763C134.212 254.959 138.236 250.122 141.565 252.045C143.788 253.329 143.644 256.529 143.208 259.058C142.338 264.115 141.467 269.172 140.596 274.229C142.648 269.417 145.934 265.231 150.122 262.093C152.224 260.547 154.639 259.48 157.199 258.968C159.758 258.456 162.398 258.512 164.933 259.13C165.658 259.337 166.471 259.711 166.629 260.448C166.676 260.987 166.529 261.525 166.214 261.966C162.59 268.531 158.966 275.096 155.342 281.661C156.929 281.202 158.02 279.791 159.351 278.813C160.681 277.834 162.817 277.404 163.806 278.726C164.155 279.27 164.343 279.9 164.349 280.546C164.677 284.802 162.881 288.906 162.215 293.122C161.313 298.993 162.604 304.991 165.842 309.971C165.537 302.53 169.853 295.739 174.402 289.84C177.702 285.56 181.295 281.371 183.691 276.488C184.219 275.412 187.499 265.548 190.448 269.846C189.56 268.553 208.87 242.211 212.109 239.844C204.892 255.241 197.6 270.869 194.691 287.623C191.781 304.376 193.737 322.684 203.719 336.453C206.173 333.37 206.006 329.046 206.021 325.107C206.09 311.57 209.681 298.285 216.439 286.555C220.756 294.566 225.522 302.327 230.716 309.801C228.054 302.191 226.879 294.141 227.257 286.089C227.528 280.382 227.944 273.327 223.025 270.417C222.092 270.016 221.235 269.458 220.492 268.766C220.133 268.202 219.889 267.573 219.773 266.915C219.657 266.256 219.673 265.582 219.818 264.929C221.101 253.397 228.032 241.776 224.01 230.891C220.781 222.151 223.184 221.334 227.658 214.215C232.936 205.82 238.189 197.254 245.179 190.468C252.169 183.683 261.232 178.764 270.625 179.226C258.065 188.862 249.82 205.526 246.148 221.525C239.977 250.82 242.125 279.59 244.706 309.127C258.917 285.708 275.256 262.619 286.451 237.626C289.43 230.976 294.174 222.968 295.658 215.771C291.677 235.077 282.389 252.904 273.908 270.253C267.722 282.906 261 295.23 253.741 307.226C253.133 308.124 252.666 309.109 252.354 310.148C252.11 311.632 252.137 313.147 252.433 314.621C253.34 322.277 252.438 330.038 249.798 337.281C248.595 340.768 246.868 344.052 244.677 347.02C243.379 348.734 240.497 350.468 239.804 352.445C239.591 353.3 239.603 354.195 239.841 355.044C240.883 360.502 241.63 365.899 242.87 371.313C228.819 366.549 215.973 358.79 205.219 348.573C205.022 354.462 206.154 360.319 208.533 365.71C210.911 371.101 214.474 375.887 218.956 379.714C222.794 382.938 227.296 385.454 230.463 389.339C226.16 390.121 221.756 390.181 217.433 389.517C218.045 391.81 220.494 393.041 222.736 393.824C227.365 395.438 232.209 396.353 237.108 396.539C239.388 396.759 241.687 396.409 243.797 395.519C244.842 395.055 245.726 394.291 246.335 393.325C246.945 392.358 247.253 391.231 247.221 390.089C247.371 393.502 247.976 396.88 249.019 400.133C249.952 400.053 250.859 399.782 251.682 399.336C252.454 401.445 252.56 403.739 251.987 405.91C252.255 404.909 257.9 410.108 256.8 413.641C255.452 417.974 248.603 421.566 244.795 423.165C239.361 425.198 233.707 426.586 227.95 427.3C237.439 428.613 247.029 425.362 255.415 420.732C258.669 418.935 262.691 416.908 265.847 418.873C269.279 421.011 268.81 426.277 266.78 429.773C264.75 433.268 261.589 436.217 260.63 440.144C264.615 438.013 268.828 436.341 273.19 435.161C274.526 435.161 279.67 444.519 280.631 445.884C283.935 450.573 284.701 450.616 281.201 455.124C275.289 462.314 268.165 468.416 260.151 473.154C259.017 474.045 257.612 474.523 256.169 474.509C254.465 474.295 253.187 472.787 252.074 471.378C236.478 451.631 220.853 431.843 207.17 410.51C204.645 406.809 202.511 402.857 200.801 398.716C193.653 379.928 188.236 360.416 182.733 341.015C182.409 339.616 181.883 338.272 181.171 337.025C180.261 335.767 179.149 334.668 177.88 333.772C162.891 321.751 149.753 307.593 138.886 291.751Z" fill="#B991BC"/>
</g>
<path d="M250.868 220.249C248.828 226.907 247.627 233.792 247.292 240.747C247.139 246.611 247.368 252.478 247.977 258.311C248.099 258.95 248.015 259.611 247.74 260.199C247.507 260.524 247.201 260.79 246.847 260.975C243.377 263.051 239.349 264.001 235.317 263.695C233.169 263.543 227.132 262.851 225.722 260.774C223 256.764 229.75 241.562 231.319 237.132C236.753 221.508 244.287 206.696 253.715 193.102C257.13 188.309 260.926 182.645 265.625 179.249C267.591 177.819 269.749 176.673 272.037 175.848C273.515 175.367 280.198 176.858 280.326 176.76C266.753 187.095 256.139 202.885 250.868 220.249Z" fill="#51486D"/>
<g style="mix-blend-mode:multiply" opacity="0.47">
<path d="M250.867 220.249C248.366 228.118 247.139 236.337 247.233 244.593C242.518 247.939 238.364 252.009 234.923 256.654C230.786 250.281 228.81 244.213 231.319 237.131C236.753 221.508 244.287 206.696 253.715 193.102C257.13 188.309 260.926 182.645 265.625 179.249C267.591 177.818 269.749 176.673 272.037 175.848C273.515 175.367 280.198 176.857 280.326 176.76C266.752 187.095 256.139 202.885 250.867 220.249Z" fill="#51486D"/>
</g>
<path d="M235.382 255.811C232.497 255.49 230.103 251.78 232.021 247.379C232.301 246.585 232.754 245.864 233.347 245.266C233.94 244.669 234.659 244.211 235.451 243.926C240.909 242.534 242.283 248.269 240.041 252.649C238.787 255.099 237.007 255.992 235.382 255.811Z" fill="white"/>
<g style="mix-blend-mode:multiply" opacity="0.4">
<path d="M183.857 333.872C170.476 326.507 181.791 299.379 185.39 288.25C186.127 286.005 186.911 283.773 187.576 281.502C185.639 285.817 183.728 290.133 181.995 294.541C177.98 304.555 170.46 328.3 183.857 333.872Z" fill="#51486D"/>
</g>
<g style="mix-blend-mode:multiply" opacity="0.4">
<path d="M183.816 327.265C177.249 322.606 183.474 309.364 184.796 302.876C187.169 294.491 189.978 286.272 193.029 278.098C191.981 280.018 191.048 281.996 190.109 283.973C187.414 289.966 185.156 296.145 183.352 302.462C181.939 309.076 176.222 323.029 183.816 327.265Z" fill="#51486D"/>
</g>
<g style="mix-blend-mode:multiply" opacity="0.4">
<path d="M234.648 351.744C232.938 351.627 231.326 350.9 230.106 349.695C226.099 346.35 222.391 342.663 219.022 338.677C220.702 343.341 229.146 353.46 234.648 351.744Z" fill="#51486D"/>
</g>
<g style="mix-blend-mode:multiply" opacity="0.4">
<path d="M236.457 323.484C231.97 312.143 228.372 300.471 225.696 288.572C226.351 300.918 230.048 312.91 236.457 323.484Z" fill="#51486D"/>
</g>
<g style="mix-blend-mode:multiply" opacity="0.4">
<path d="M211.914 300.764C207.796 306.711 204.953 313.445 203.565 320.543C202.177 327.641 202.274 334.949 203.849 342.008C203.771 340.472 203.651 338.222 203.645 336.659C203.472 324.204 206.308 311.89 211.914 300.764Z" fill="#51486D"/>
</g>
<g style="mix-blend-mode:multiply" opacity="0.4">
<path d="M188.322 323.41C185.95 326.12 184.283 329.373 183.47 332.88C182.658 336.388 182.724 340.042 183.664 343.518C183.828 336.568 185.413 329.725 188.322 323.41Z" fill="#51486D"/>
</g>
<g style="mix-blend-mode:multiply" opacity="0.4">
<path d="M182.406 284.878C179.251 289.615 174.62 292.901 171.672 297.848C168.733 302.817 167.74 308.697 168.885 314.355C168.818 308.838 170.227 303.403 172.966 298.613C175.726 293.885 180.353 290.107 182.406 284.878Z" fill="#51486D"/>
</g>
<g style="mix-blend-mode:multiply" opacity="0.4">
<path d="M166.773 261.444C155.51 258.106 146.985 270.484 145.745 280.29C149.31 271.167 155.665 260.54 166.773 261.444Z" fill="#51486D"/>
</g>
<g style="mix-blend-mode:multiply" opacity="0.4">
<path d="M103.232 227.605C107.467 225.68 111.123 222.678 113.834 218.898C116.545 215.119 118.216 210.694 118.68 206.067C115.834 214.645 110.446 222.157 103.232 227.605Z" fill="#51486D"/>
</g>
<g style="mix-blend-mode:multiply" opacity="0.4">
<path d="M126.754 223.39C123.726 225.802 120.559 228.033 117.269 230.072C114.324 232.052 109.884 233.987 107.656 230.059C110.802 239.144 123.864 227.909 126.754 223.39Z" fill="#51486D"/>
</g>
<g style="mix-blend-mode:multiply" opacity="0.4">
<path d="M101.779 214.383C98.7826 215.61 96.4837 216.595 93.4899 217.831C95.0586 218.252 96.7228 218.143 98.2225 217.519C99.7222 216.895 100.973 215.792 101.779 214.383Z" fill="#51486D"/>
</g>
<g style="mix-blend-mode:multiply" opacity="0.4">
<path d="M103.334 185.757C99.047 187.186 95.1597 189.61 91.9904 192.83C88.8211 196.05 86.4599 199.975 85.1002 204.282C89.5739 196.712 95.8341 190.352 103.334 185.757Z" fill="#51486D"/>
</g>
<g style="mix-blend-mode:multiply" opacity="0.4">
<path d="M247.35 400.105C242.662 401.724 237.69 402.36 232.746 401.971C227.801 401.582 222.99 400.178 218.613 397.847C222.6 401.109 227.49 403.075 232.627 403.478C237.764 403.882 242.902 402.705 247.35 400.105Z" fill="#51486D"/>
</g>
<g style="mix-blend-mode:multiply" opacity="0.4">
<path d="M226.98 390.698C219.675 388.396 213.225 383.965 208.456 377.974C210.051 381.609 212.631 384.726 215.904 386.975C219.177 389.223 223.013 390.512 226.98 390.698Z" fill="#51486D"/>
</g>
<g style="mix-blend-mode:multiply" opacity="0.4">
<path d="M252.145 405.143C248.499 409.179 243.905 412.245 238.778 414.064C233.651 415.884 228.152 416.399 222.776 415.565C221.234 415.274 219.709 414.901 218.207 414.447C219.621 415.18 221.094 415.794 222.609 416.283C228.079 417.765 233.877 417.486 239.179 415.487C244.481 413.487 249.018 409.868 252.145 405.143Z" fill="#51486D"/>
</g>
<g style="mix-blend-mode:multiply" opacity="0.4">
<path d="M244.146 421.771C240.964 423.342 237.67 424.675 234.292 425.76C236.145 426.221 238.097 426.083 239.868 425.366C241.638 424.65 243.136 423.391 244.146 421.771Z" fill="#51486D"/>
</g>
<g style="mix-blend-mode:multiply" opacity="0.4">
<path d="M261.854 424.622C257.082 428.868 252.047 432.808 246.779 436.42C253.135 434.57 258.533 430.345 261.854 424.622Z" fill="#51486D"/>
</g>
<path d="M224.474 244.821C220.557 250.899 216.641 256.977 212.725 263.054C211.39 265.408 209.669 267.521 207.632 269.303C202.842 273.008 196.122 272.138 190.772 269.472C196.452 261.434 201.874 253.195 207.038 244.753C207.838 243.445 214.499 235.281 213.692 234.389C214.644 235.441 224.779 244.322 224.474 244.821Z" fill="#51486D"/>
<g style="mix-blend-mode:multiply" opacity="0.47">
<path d="M214.444 240.521C213.177 243.433 211.605 246.259 210.218 249.108C207.068 255.579 203.918 262.049 200.768 268.52C200.658 268.676 200.59 268.857 200.569 269.046C200.547 269.236 200.574 269.428 200.646 269.604C200.743 269.714 200.86 269.804 200.992 269.867C201.123 269.931 201.266 269.968 201.412 269.975C202.516 270.149 203.632 270.233 204.75 270.228C202.505 271.122 200.091 271.518 197.678 271.387C195.264 271.257 192.908 270.603 190.772 269.472C196.452 261.434 201.874 253.195 207.038 244.753C207.838 243.446 214.488 235.294 213.694 234.391C215.915 236.917 216.116 236.503 214.754 239.791C214.653 240.035 214.549 240.278 214.444 240.521Z" fill="#51486D"/>
</g>
<path d="M99.2435 165.127C100.433 165.945 101.699 166.645 103.024 167.217C103.741 167.431 104.356 167.899 104.753 168.533C104.986 169.231 104.969 169.989 104.705 170.676C104.04 173.117 103.043 175.456 101.743 177.627C100.564 176.97 99.4784 176.159 98.5147 175.215C97.3131 174.178 86.8609 187.214 85.8137 188.399C82.4101 192.251 77.3878 197.755 76.2338 203.152C76.0506 204.035 76.1112 204.952 76.409 205.803C76.7068 206.655 77.2306 207.41 77.9245 207.987C77.2335 207.452 73.9654 210.237 73.2388 210.495C72.5463 210.782 71.8034 210.927 71.0539 210.922C70.3044 210.917 69.5635 210.762 68.875 210.466C67.8209 209.928 67.0003 209.023 66.5683 207.922C66.1363 206.821 66.1228 205.6 66.5303 204.49C64.5407 205.923 61.8914 204.688 59.7956 203.443C58.0644 202.557 56.5218 201.343 55.2533 199.87C52.2752 195.95 53.35 190.103 55.1395 185.417C59.8785 173.007 68.4134 162.68 77.8626 153.947C80.0713 151.906 82.6633 149.822 85.5602 150.1C88.219 150.356 90.3669 152.572 91.8444 154.97C93.1213 157.484 94.552 159.916 96.1283 162.254C97.0254 163.354 98.0742 164.322 99.2435 165.127Z" fill="#51486D"/>
<g style="mix-blend-mode:multiply" opacity="0.47">
<path d="M99.7216 168.588C100.394 168.419 101.098 168.414 101.773 168.573C102.448 168.733 103.075 169.052 103.601 169.505C105.635 171.66 103.117 175.424 101.744 177.628C100.565 176.971 99.479 176.16 98.5154 175.216C97.3138 174.178 86.8616 187.215 85.8143 188.4C82.4107 192.252 77.3885 197.755 76.2344 203.153C76.0512 204.036 76.1118 204.953 76.4096 205.804C76.7074 206.656 77.2313 207.41 77.9251 207.987C77.2341 207.452 73.966 210.237 73.2394 210.496C72.5469 210.783 71.804 210.928 71.0545 210.923C70.3051 210.918 69.5642 210.763 68.8756 210.467C67.8215 209.929 67.001 209.024 66.569 207.923C66.1369 206.822 66.1234 205.601 66.531 204.49C64.5414 205.924 61.892 204.689 59.7962 203.444C58.065 202.558 56.5224 201.344 55.2539 199.871C52.2759 195.951 53.3506 190.104 55.1402 185.418C57.9617 178.266 61.8911 171.602 66.7845 165.671C69.2457 162.609 71.892 159.7 74.7085 156.961C75.7724 155.931 82.4941 151.564 82.4941 150.882C72.9175 161.077 65.5442 173.133 60.8338 186.301C64.1622 183.325 66.3712 179.338 68.9041 175.662C71.4369 171.986 74.5621 168.411 78.7924 166.982C76.3905 173.474 73.2921 179.686 69.5516 185.511C73.23 179.666 77.4068 174.15 82.0355 169.024C83.2538 167.574 84.8077 166.444 86.5624 165.731C87.4459 165.394 88.4126 165.34 89.3282 165.577C90.2438 165.814 91.0629 166.33 91.6717 167.053C87.6712 174.064 83.1384 180.757 78.113 187.074L89.3289 175.596C91.2478 173.461 93.4275 171.576 95.8167 169.983C97.0207 169.281 98.3448 168.807 99.7216 168.588Z" fill="#51486D"/>
</g>
<g style="mix-blend-mode:multiply" opacity="0.37">
<path d="M95.0254 166.598C90.9306 166.272 88.0657 170.081 85.4396 172.644C78.7867 179.645 73.0143 187.776 69.9453 197.009C69.3506 198.851 68.8809 200.732 68.5394 202.637C69.205 200.822 69.8189 199.007 70.6348 197.27C74.4211 188.472 80.1831 180.729 86.2985 173.411C88.7743 170.685 91.0224 166.948 95.0254 166.598Z" fill="#6C679B"/>
</g>
<g style="mix-blend-mode:multiply" opacity="0.37">
<path d="M90.5469 161.785C87.0915 162.83 83.9783 164.779 81.5294 167.43C79.0805 170.082 77.3848 173.339 76.6178 176.864C79.9505 170.77 84.7346 165.591 90.5469 161.785Z" fill="#6C679B"/>
</g>
<g style="mix-blend-mode:multiply" opacity="0.37">
<path d="M83.1133 160.064C71.1344 170.258 63.0994 184.319 60.3992 199.81C60.9415 198.241 61.7231 195.921 62.3262 194.344C66.9868 181.688 74.0446 170.049 83.1133 160.064Z" fill="#6C679B"/>
</g>
<path d="M257.298 483.71C269.099 480.85 279.415 472.735 288.46 463.926C291.216 461.242 294.033 458.226 294.824 454.313C295.156 452.739 295.017 451.101 294.424 449.606C293.831 448.11 292.811 446.822 291.49 445.902C288.213 443.695 287.489 443.137 286.253 438.865C285.294 435.552 281.186 431.23 277.723 431.464C277.201 431.466 276.695 431.643 276.285 431.965C275.874 432.287 275.583 432.737 275.457 433.244C275.472 433.946 275.555 434.645 275.705 435.331C275.912 439.385 269.341 444.836 266.681 446.995C262.539 450.18 258.084 452.938 253.386 455.225C249.487 457.253 244.941 459.251 240.984 457.357C239.939 458.092 239.106 459.089 238.57 460.249C238.035 461.408 237.815 462.689 237.934 463.96C238.136 465.494 238.805 466.928 239.851 468.068C240.131 468.366 243.9 470.722 243.95 470.21C243.606 472.633 243.587 475.091 243.895 477.52C244.041 478.709 244.43 479.856 245.036 480.889C245.643 481.923 246.455 482.821 247.422 483.529C249.544 484.619 251.992 484.898 254.306 484.315C255.314 484.152 256.311 483.95 257.298 483.71Z" fill="#51486D"/>
<g style="mix-blend-mode:multiply" opacity="0.47">
<path d="M257.296 483.71C262.867 482.36 278.123 477.579 277.599 470.099C274.92 469.807 272.222 470.446 269.96 471.91C271.925 470.876 273.662 469.46 275.071 467.745C276.479 466.03 277.531 464.051 278.163 461.923C275.58 461.674 273.153 463.036 270.87 464.269C265.234 467.314 259.33 469.835 253.233 471.801C261.053 467.271 269.051 462.591 274.777 455.601C276.898 453.314 278.246 450.417 278.631 447.322C278.157 446.713 277.189 447.103 276.552 447.539C272.516 450.56 268.301 453.336 263.931 455.853C259.523 458.376 254.44 459.472 249.383 458.988C254.726 457.795 259.748 455.461 264.104 452.146C268.46 448.83 272.046 444.612 274.617 439.78C271.912 442.135 269.47 444.729 266.679 446.994C262.536 450.18 258.082 452.937 253.383 455.225C249.484 457.252 244.938 459.25 240.981 457.357C239.936 458.091 239.103 459.089 238.568 460.248C238.032 461.408 237.813 462.688 237.932 463.96C238.133 465.493 238.803 466.927 239.848 468.068C240.128 468.365 243.898 470.722 243.948 470.209C243.603 472.633 243.585 475.091 243.892 477.519C244.039 478.708 244.427 479.855 245.034 480.889C245.64 481.922 246.452 482.821 247.419 483.529C249.542 484.618 251.989 484.898 254.303 484.315C255.312 484.152 256.309 483.951 257.296 483.71Z" fill="#51486D"/>
</g>
<g style="mix-blend-mode:multiply" opacity="0.37">
<path d="M240.59 468.979C248.964 473.11 258.632 468.687 265.344 463.355C270.716 459.477 275.614 454.984 279.939 449.966C281.327 448.254 282.6 446.452 283.748 444.57C280.989 447.959 277.949 451.11 274.661 453.989C265.043 461.593 254.015 473.137 240.59 468.979Z" fill="#6C679B"/>
</g>
<g style="mix-blend-mode:multiply" opacity="0.37">
<path d="M289.842 450.456C284.097 460.567 274.901 467.43 264.944 473.084C275.73 469.46 286.076 461.505 289.842 450.456Z" fill="#6C679B"/>
</g>
<path d="M283.157 183.792C282.397 183.045 281.535 182.409 280.598 181.901C276.493 179.692 271.633 180.215 267.079 180.812C261.217 181.58 196.64 193.16 195.775 189.347C189.636 162.272 177.724 136.827 173.654 109.302C176.833 106.264 182.282 106.06 184.138 101.939C184.636 100.624 184.898 99.2312 184.914 97.825C185.325 91.9473 185.735 86.0694 186.145 80.1915C184.065 78.713 182.397 76.7272 181.301 74.4229C180.205 72.1186 179.717 69.5723 179.883 67.0263C178.822 67.1228 177.827 67.5784 177.061 68.3178C176.295 69.0572 175.804 70.0359 175.671 71.0918C175.559 69.2877 174.759 67.5952 173.436 66.3627C172.113 65.1302 170.367 64.4514 168.559 64.4659C166.761 64.7598 165.139 65.7167 164.014 67.1476C162.888 68.5785 162.34 70.3794 162.478 72.1946C162.182 70.9338 161.434 69.8248 160.376 69.077C159.318 68.3291 158.023 67.994 156.735 68.1348C155.456 68.4425 154.325 69.1881 153.539 70.2421C152.753 71.2962 152.361 72.5922 152.431 73.9051C152.815 71.481 149.131 70.4443 147.541 72.2077C145.952 73.971 146.02 76.7513 146.192 79.2038C145.537 78.5228 144.882 77.8419 144.226 77.1611C141.393 79.179 141.933 83.7536 142.805 87.2938C144.03 92.2633 145.254 97.2328 146.479 102.202C146.84 104.018 147.446 105.776 148.282 107.428C150.718 111.717 155.705 113.259 160.233 114.455L168.83 204.309C169.114 207.287 169.57 210.609 171.773 212.429C172.895 213.246 174.188 213.796 175.555 214.036C181.907 215.387 188.362 216.204 194.85 216.481C208.853 217.465 222.87 218.425 236.907 218.488C248.851 218.541 263.354 219.655 274.514 214.306C277.559 212.925 280.268 210.9 282.453 208.369C284.637 205.838 286.245 202.864 287.166 199.65C287.877 196.883 287.882 193.981 287.182 191.211C286.482 188.441 285.098 185.89 283.157 183.792Z" fill="#3A86FF"/>
<g style="mix-blend-mode:multiply" opacity="0.58">
<path d="M283.157 183.792C282.397 183.045 281.535 182.409 280.598 181.901C276.493 179.692 271.633 180.215 267.079 180.812C257.249 182.101 247.482 184.037 237.686 185.561C230.946 186.609 223.213 186.661 216.694 188.586C212.713 189.761 212.595 192.913 211.651 197.036C210.619 201.54 210.107 206.148 210.127 210.769L182.018 205.705C180.944 201.358 179.901 197.003 178.888 192.641C175.621 178.57 172.677 164.43 170.054 150.22C168.743 143.118 167.514 136.001 166.365 128.87C165.135 122.261 164.348 115.577 164.01 108.863C159.945 109.706 155.993 107.016 153.138 104.004C147.044 97.531 143.405 89.1333 142.85 80.2628C142.981 82.4781 142.336 84.6743 142.601 86.9025C142.801 88.8551 143.137 90.7913 143.607 92.6968C144.445 95.8977 145.688 98.9936 146.479 102.202C146.84 104.018 147.446 105.776 148.282 107.428C150.718 111.716 155.705 113.259 160.233 114.455L168.83 204.308C169.115 207.286 169.57 210.609 171.773 212.429C172.895 213.246 174.188 213.795 175.555 214.036C181.907 215.386 188.362 216.204 194.85 216.481C208.853 217.465 222.87 218.425 236.907 218.488C248.851 218.541 263.354 219.655 274.514 214.306C277.559 212.925 280.268 210.899 282.453 208.369C284.637 205.838 286.245 202.863 287.166 199.65C287.877 196.883 287.882 193.981 287.182 191.211C286.482 188.441 285.098 185.89 283.157 183.792Z" fill="#B991BC"/>
</g>
<path d="M228.85 181.294C228.85 182.737 228.865 184.196 228.895 185.654C228.895 185.955 228.91 186.256 228.91 186.557C228.908 186.667 228.913 186.778 228.925 186.887C228.985 189.368 229.091 191.865 229.271 194.361C229.286 194.631 229.316 194.902 229.331 195.173C229.422 196.451 229.542 197.744 229.662 199.022C229.722 199.668 229.798 200.3 229.873 200.946C229.978 201.894 230.099 202.841 230.234 203.788C230.309 204.345 230.384 204.886 230.475 205.442C230.535 205.848 230.61 206.269 230.685 206.69C230.791 207.322 230.896 207.953 231.016 208.585L231.061 208.811C231.167 209.367 231.272 209.923 231.392 210.48C231.513 211.081 231.648 211.697 231.783 212.299C232.25 214.359 232.791 216.419 233.408 218.449C233.529 218.84 233.649 219.231 233.784 219.622C233.965 220.208 234.176 220.81 234.386 221.411C234.807 222.599 235.259 223.772 235.74 224.93C235.755 224.96 235.77 225.005 235.8 225.065C235.83 225.155 235.876 225.245 235.921 225.351C237.362 228.783 239.135 232.067 241.216 235.154C241.218 235.166 241.223 235.176 241.231 235.184C241.728 235.921 242.239 236.658 242.781 237.365C242.992 237.199 243.202 237.034 243.413 236.868C243.489 236.808 243.57 236.753 243.653 236.703C244.937 235.809 246.32 235.067 247.776 234.493C247.798 234.489 247.819 234.478 247.836 234.463C251.161 233.109 254.771 232.373 258.171 230.989C263.965 228.849 269.493 226.049 274.645 222.644C280.328 219.523 285.49 215.536 289.945 210.825C290.682 209.998 291.374 209.126 292.051 208.209C292.367 207.758 292.683 207.307 292.954 206.841L293.36 206.119C293.375 206.104 293.39 206.089 293.39 206.074C295.601 201.606 296.388 196.568 295.647 191.639C295.571 191.158 295.496 190.677 295.391 190.211C295.346 189.97 295.301 189.744 295.24 189.519C295.032 188.611 294.765 187.717 294.443 186.842C294.428 186.812 294.428 186.782 294.413 186.752C294.278 186.391 294.127 186.03 293.962 185.639C293.841 185.369 293.721 185.098 293.586 184.812C293.568 184.776 293.548 184.741 293.525 184.707C292.281 182.11 290.358 179.897 287.959 178.302H287.944C287.122 177.771 286.244 177.332 285.326 176.994C283.874 176.462 282.372 176.079 280.843 175.851C280.377 175.776 279.91 175.73 279.444 175.67C272.734 175.009 265.513 176.663 259.149 177.79C258.653 177.881 258.171 177.971 257.675 178.046C257.66 178.061 257.66 178.061 257.645 178.061C257.103 178.151 256.546 178.257 256.005 178.362C247.023 179.986 237.997 181.73 228.85 181.294Z" fill="#FFE783"/>
<g style="mix-blend-mode:multiply" opacity="0.47">
<path d="M289.942 210.828C285.493 215.538 280.332 219.523 274.649 222.637C269.496 226.045 263.967 228.847 258.17 230.987C252.932 233.118 247.22 233.729 242.782 237.362C242.329 237.733 236.198 226.013 235.746 224.93C233.836 220.265 232.377 215.429 231.389 210.486C230.373 205.433 229.684 200.319 229.328 195.178C228.997 190.724 228.08 185.629 229.894 181.483C229.894 191.284 236.415 202.217 242.486 209.495C243.356 210.767 244.624 211.714 246.091 212.187C247.168 212.337 248.265 212.226 249.29 211.864C253.236 210.992 257.13 209.902 260.956 208.6C265.836 206.356 270.466 203.603 274.767 200.387C279.596 197.064 285.915 192.392 287.178 186.314C287.83 183.181 285.847 181.645 285.637 179.077C285.495 177.344 285.808 177.27 287.946 178.298C291.082 179.805 293.303 183.738 294.45 186.84C296.964 193.637 296.388 202.253 292.049 208.209C291.383 209.12 290.681 209.993 289.942 210.828Z" fill="#FFE783"/>
</g>
<path d="M324.224 75.5457L312.947 90.7324L321.488 92.1347L325.305 99.8991L337.4 83.6091C332.937 80.682 328.536 77.9789 324.224 75.5457Z" fill="white"/>
</svg>
