<svg width="153" height="47" viewBox="0 0 153 47" fill="none" xmlns="http://www.w3.org/2000/svg">
<rect width="153" height="47" fill="#787878"/>
<path d="M-922 -556C-922 -557.105 -921.105 -558 -920 -558H19224C19225.1 -558 19226 -557.105 19226 -556V1416C19226 1417.1 19225.1 1418 19224 1418H-920C-921.105 1418 -922 1417.1 -922 1416V-556Z" fill="#3A3A3A"/>
<path d="M-920 -558V-557H19224V-558V-559H-920V-558ZM19226 -556H19225V1416H19226H19227V-556H19226ZM19224 1418V1417H-920V1418V1419H19224V1418ZM-922 1416H-921V-556H-922H-923V1416H-922ZM-920 1418V1417C-920.552 1417 -921 1416.55 -921 1416H-922H-923C-923 1417.66 -921.658 1419 -920 1419V1418ZM19226 1416H19225C19225 1416.55 19224.6 1417 19224 1417V1418V1419C19225.7 1419 19227 1417.66 19227 1416H19226ZM19224 -558V-557C19224.6 -557 19225 -556.553 19225 -556H19226H19227C19227 -557.657 19225.7 -559 19224 -559V-558ZM-920 -558V-559C-921.657 -559 -923 -557.657 -923 -556H-922H-921C-921 -556.552 -920.552 -557 -920 -557V-558Z" fill="white" fill-opacity="0.1"/>
<rect width="1440" height="1024" transform="translate(-732 -235)" fill="#F8F8F8"/>
<g clip-path="url(#clip0_77_92)">
<rect x="-369" y="-71" width="892" height="800" rx="16" fill="white"/>
<rect x="-336" y="-42" width="825" height="250" rx="8" fill="#D9EAFF"/>
<g clip-path="url(#clip1_77_92)">
<path d="M65.9203 32.9588L65.8066 32.8743C65.5292 32.6268 65.3073 32.3242 65.1556 31.9862C65.0038 31.6481 64.9255 31.2822 64.9258 30.9123C64.9262 30.7342 64.9437 30.5566 64.9779 30.3818C64.9478 30.5524 64.932 30.7251 64.9305 30.8982C64.9303 31.2682 65.0086 31.6341 65.1603 31.9721C65.3121 32.3101 65.5339 32.6127 65.8114 32.8602C65.8493 32.8931 65.8824 32.9306 65.9203 32.9588Z" fill="#4A4E69"/>
<path d="M92.4092 22.2521V33.5934C92.4092 34.243 92.1488 34.8661 91.6854 35.3254C91.2219 35.7848 90.5933 36.0429 89.9379 36.0429C89.5721 36.0429 89.2099 35.9715 88.8719 35.8328C88.534 35.694 88.2269 35.4907 87.9683 35.2343C87.7096 34.9779 87.5045 34.6736 87.3645 34.3386C87.2245 34.0037 87.1525 33.6447 87.1525 33.2821V22.2521C87.1486 21.9099 87.2169 21.5707 87.3531 21.2562C87.4893 20.9417 87.6904 20.659 87.9434 20.4261C88.2625 20.1034 88.6632 19.8716 89.1036 19.7549H90.4723C91.023 19.9096 91.5088 20.236 91.8576 20.6858C92.2065 21.1356 92.3999 21.6848 92.4092 22.2521Z" fill="#4A4E69"/>
<path d="M90.4702 19.7541H89.1016C89.3262 19.6898 89.5591 19.6582 89.793 19.6603C90.022 19.6605 90.2499 19.6921 90.4702 19.7541Z" fill="#4A4E69"/>
<path d="M92.4092 13.7355C92.4092 14.4264 92.1323 15.0891 91.6394 15.5776C91.1465 16.0662 90.478 16.3407 89.7809 16.3407C89.0838 16.3407 88.4153 16.0662 87.9223 15.5776C87.4294 15.0891 87.1525 14.4264 87.1525 13.7355C87.1484 13.393 87.2165 13.0534 87.3525 12.7386C87.4884 12.4237 87.6892 12.1404 87.9421 11.9069C88.1838 11.6634 88.4723 11.4704 88.7906 11.3395C89.109 11.2086 89.4506 11.1423 89.7952 11.1446C90.4855 11.1541 91.1448 11.4301 91.633 11.914C92.1212 12.3978 92.3997 13.0513 92.4092 13.7355Z" fill="#4A4E69"/>
<path d="M83.2856 28.2887C83.3115 29.7825 82.8643 31.2468 82.0069 32.4757C81.1489 33.588 80.0284 34.4745 78.744 35.0573C77.4111 35.7003 75.9396 36.0097 74.4581 35.9586C73.6239 35.949 72.7927 35.8578 71.9765 35.6863C69.9267 35.2593 67.9875 34.4189 66.2794 33.2173C66.1989 33.1657 66.1184 33.1093 66.0426 33.053L66.0379 33.0483C66 33.0202 65.9574 32.992 65.9195 32.9591C65.8816 32.931 65.8484 32.8934 65.8105 32.8606C65.5331 32.6131 65.3113 32.3105 65.1595 31.9724C65.0078 31.6344 64.9294 31.2685 64.9297 30.8985C64.9311 30.7254 64.947 30.5527 64.977 30.3822C65.0323 30.1108 65.1332 29.8506 65.2754 29.6124L65.9621 28.8379C66.4357 28.4528 67.0308 28.2451 67.6433 28.2511C68.1757 28.2538 68.6951 28.414 69.1351 28.7111C69.1587 28.7299 69.1872 28.7487 69.2108 28.7674C69.2582 28.805 69.3103 28.8378 69.3577 28.8707C70.4377 29.6607 71.6713 30.2202 72.9805 30.5136L73.061 30.523C73.5205 30.6197 73.9884 30.6716 74.4581 30.6779C75.1528 30.6866 75.8412 30.5457 76.4755 30.2648C76.8942 30.1247 77.2587 29.8594 77.5191 29.5056C77.7794 29.1517 77.9228 28.7266 77.9294 28.2887C77.9212 28.0039 77.8325 27.7271 77.6735 27.4897C77.5144 27.2524 77.2913 27.0641 77.0296 26.9462C76.118 26.4638 75.1297 26.1399 74.1076 25.9886C73.653 25.9135 70.2338 25.2094 68.6283 24.3317C67.5833 23.713 66.7032 22.855 66.0615 21.8298C65.4597 20.7976 65.1505 19.6234 65.1665 18.4314C65.1845 17.0378 65.6143 15.6801 66.4025 14.526C67.2249 13.4687 68.2921 12.6234 69.5139 12.0617C70.8114 11.4577 72.2291 11.1497 73.6625 11.1604C74.2675 11.1734 74.8714 11.2189 75.4716 11.2966C77.2241 11.614 78.8972 12.2677 80.3968 13.2211C80.4962 13.2821 80.5957 13.3478 80.6904 13.4088C80.6951 13.4135 80.7046 13.4182 80.7093 13.4276C81.0491 13.6735 81.3262 13.9946 81.5186 14.3654C81.711 14.7362 81.8133 15.1464 81.8175 15.5634C81.8156 16.0326 81.69 16.4931 81.4531 16.8993C81.2162 17.3056 80.8763 17.6433 80.467 17.8791C80.0577 18.1149 79.5934 18.2406 79.12 18.2436C78.6466 18.2466 78.1807 18.1268 77.7684 17.8962C77.6453 17.8118 77.5269 17.732 77.4085 17.6616L77.4038 17.6569C76.2887 16.9017 74.9791 16.4783 73.6293 16.4364C72.9887 16.4348 72.3547 16.5659 71.7682 16.8213C71.435 16.9464 71.1428 17.1595 70.9233 17.4376C70.7037 17.7156 70.5652 18.0479 70.5227 18.3985C70.5077 18.6462 70.5649 18.893 70.6875 19.1094C70.8101 19.3258 70.9929 19.5027 71.2141 19.6189C71.7776 20.0038 72.6869 20.3183 74.1597 20.6328C74.3492 20.6657 74.6239 20.7314 74.9033 20.8018C76.4708 21.0975 78.2704 21.5059 79.5728 22.2663C80.6991 22.8482 81.6476 23.7186 82.3195 24.787C82.9634 25.8426 83.2979 27.0552 83.2856 28.2887Z" fill="#4A4E69"/>
<path d="M69.3597 28.8701C69.3124 28.8373 69.2603 28.8044 69.2129 28.7669C69.1892 28.7481 69.1608 28.7293 69.1371 28.7105C68.6972 28.4134 68.1777 28.2533 67.6454 28.2505C67.0329 28.2446 66.4378 28.4523 65.9642 28.8373L65.2775 29.6118C65.2772 29.6092 65.2774 29.6066 65.2782 29.6042C65.2791 29.6018 65.2804 29.5995 65.2822 29.5977C65.4068 29.3833 65.5633 29.1886 65.7463 29.0203C65.817 28.9509 65.8913 28.8851 65.9689 28.8232C66.4425 28.4382 67.0376 28.2305 67.6501 28.2365C68.1825 28.2392 68.7019 28.3993 69.1419 28.6965C69.1655 28.7152 69.194 28.734 69.2176 28.7528C69.2673 28.7891 69.3147 28.8283 69.3597 28.8701Z" fill="#4A4E69"/>
<path d="M77.7701 17.8958L77.7417 17.8817C77.6255 17.817 77.5146 17.7432 77.4102 17.6611C77.5286 17.7316 77.6469 17.8114 77.7701 17.8958Z" fill="#4A4E69"/>
<path d="M80.6921 13.4085C80.5973 13.3474 80.4979 13.2817 80.3984 13.2207C80.4742 13.2629 80.5453 13.3052 80.6163 13.3521C80.64 13.3709 80.6684 13.3897 80.6921 13.4085Z" fill="#4A4E69"/>
<path d="M152.013 13.7366C152.013 14.4276 151.736 15.0902 151.243 15.5787C150.75 16.0673 150.081 16.3418 149.384 16.3418C148.687 16.3418 148.019 16.0673 147.526 15.5787C147.033 15.0902 146.756 14.4276 146.756 13.7366C146.752 13.3937 146.82 13.0538 146.957 12.7386C147.093 12.4234 147.294 12.1398 147.547 11.906C147.789 11.6631 148.077 11.4706 148.395 11.34C148.713 11.2094 149.054 11.1433 149.399 11.1456C150.089 11.1549 150.748 11.4309 151.237 11.9148C151.725 12.3987 152.003 13.0523 152.013 13.7366Z" fill="#4A4E69"/>
<path d="M122.805 27.223V36.0429H117.714V27.223C117.725 26.857 117.662 26.4926 117.529 26.1513C117.395 25.8101 117.194 25.4988 116.936 25.2361C116.679 24.9734 116.371 24.7646 116.031 24.6219C115.691 24.4793 115.325 24.4058 114.956 24.4058C114.586 24.4058 114.221 24.4793 113.881 24.6219C113.54 24.7646 113.233 24.9734 112.975 25.2361C112.718 25.4988 112.517 25.8101 112.383 26.1513C112.249 26.4926 112.186 26.857 112.197 27.223L112.187 36.0429H107.077L107.106 27.223C107.11 26.492 106.825 25.7887 106.313 25.2627C105.801 24.7367 105.102 24.4295 104.364 24.4066C103.63 24.4382 102.936 24.7481 102.426 25.2722C101.916 25.7963 101.628 26.4946 101.622 27.223L101.623 36.0429H96.5312V19.7549H101.622V20.3088C102.425 19.7511 103.384 19.4542 104.364 19.4592C105.409 19.4613 106.442 19.6754 107.4 20.0882C108.225 20.4724 108.987 20.9754 109.664 21.5808C110.331 20.9661 111.096 20.4635 111.927 20.0929C112.888 19.6773 113.924 19.4616 114.972 19.4592C116.003 19.4519 117.025 19.6477 117.979 20.0353C118.932 20.4229 119.799 20.9945 120.528 21.7169C121.256 22.4393 121.833 23.2981 122.224 24.2433C122.615 25.1885 122.813 26.2014 122.805 27.223Z" fill="#4A4E69"/>
<path d="M140.804 21.8665C140.024 21.0957 139.097 20.486 138.078 20.0727C137.059 19.6594 135.967 19.4506 134.865 19.4585C133.63 19.45 132.425 19.835 131.427 20.5569V11.1455H126.469V36.0422H131.427V35.1175C132.446 35.7771 133.65 36.1007 134.865 36.0422C136.524 36.0465 138.147 35.5623 139.528 34.6512C140.909 33.7401 141.985 32.443 142.622 30.9245C143.258 29.406 143.425 27.7345 143.101 26.1218C142.777 24.5092 141.978 23.0282 140.804 21.8665ZM134.865 31.2591C134.161 31.2795 133.466 31.0911 132.871 30.718C132.275 30.3449 131.805 29.8042 131.521 29.1649C131.237 28.5256 131.152 27.8168 131.276 27.1294C131.401 26.4419 131.73 25.8069 132.221 25.3056C132.712 24.8044 133.342 24.4597 134.032 24.3157C134.721 24.1716 135.439 24.2348 136.092 24.497C136.745 24.7593 137.304 25.2088 137.698 25.7879C138.092 26.367 138.303 27.0495 138.303 27.748C138.305 28.6619 137.946 29.5402 137.304 30.196C136.662 30.8518 135.787 31.2333 134.865 31.2591Z" fill="#4A4E69"/>
<path d="M152.013 22.4633V33.4659C152.013 34.1492 151.739 34.8045 151.251 35.2877C150.764 35.7708 150.103 36.0423 149.413 36.0423C148.709 36.0423 148.033 35.7648 147.534 35.2708C147.036 34.7769 146.756 34.107 146.756 33.4084V22.3455C146.753 22.0027 146.821 21.6629 146.957 21.3478C147.094 21.0327 147.294 20.749 147.547 20.5148C148.013 20.046 148.644 19.7741 149.308 19.7559C149.666 19.756 150.019 19.8263 150.349 19.9627C150.679 20.0991 150.978 20.299 151.23 20.5507C151.481 20.8025 151.68 21.1011 151.814 21.4294C151.949 21.7576 152.016 22.109 152.013 22.4633Z" fill="#4A4E69"/>
<path d="M14.9161 17.1562C14.9161 17.2605 14.9122 17.3628 14.9021 17.4611V17.5536C14.8885 17.4211 14.8932 17.2875 14.9161 17.1562Z" fill="#3A86FF"/>
<path d="M15.2824 20.0346C15.0535 19.7178 14.922 19.3421 14.9036 18.9529C14.8857 18.5164 14.8996 18.0817 14.9016 17.5527C14.9115 17.6982 14.9273 17.8478 14.9252 17.9912C14.9233 18.3511 14.9035 18.715 14.9352 19.0708C14.9656 19.4163 15.0852 19.7481 15.2824 20.0346Z" fill="#3A86FF"/>
<path d="M17.4432 21.2292C17.3586 21.223 17.2745 21.2118 17.1912 21.1957C17.1516 21.1878 17.1118 21.18 17.0742 21.1701C17.0333 21.1624 16.9929 21.1526 16.9531 21.1406C17.0226 21.1564 17.09 21.1721 17.1615 21.184C17.1829 21.1898 17.2049 21.1937 17.227 21.1957C17.2984 21.2093 17.3698 21.2213 17.4432 21.2292Z" fill="#3A86FF"/>
<path d="M18.7035 14.0543C18.6142 14.0287 18.5229 14.009 18.4297 13.9913C18.4357 13.991 18.4417 13.9916 18.4475 13.9933C18.534 14.0087 18.6194 14.029 18.7035 14.0543Z" fill="#3A86FF"/>
<path d="M19.9942 14.776C19.7712 14.5658 19.5169 14.3907 19.2402 14.2568C19.519 14.387 19.7739 14.5625 19.9942 14.776Z" fill="#3A86FF"/>
<path d="M20.6885 17.6006C20.6786 17.463 20.6648 17.3232 20.6648 17.1875C20.6668 16.8257 20.6866 16.4639 20.6549 16.1059C20.6196 15.7253 20.4773 15.3621 20.2441 15.0576C20.262 15.0794 20.2798 15.1009 20.2957 15.1245C20.3671 15.22 20.4289 15.3221 20.4804 15.4294C20.5321 15.5354 20.5752 15.6452 20.6094 15.758C20.6317 15.8334 20.6489 15.9102 20.661 15.988C20.6746 16.0667 20.6832 16.1461 20.6867 16.2259C20.7024 16.6546 20.6905 17.0833 20.6885 17.6006Z" fill="#3A86FF"/>
<path d="M20.6758 18.0254C20.6758 17.9192 20.6798 17.8169 20.6898 17.7166V17.6006C20.7044 17.7422 20.6997 17.885 20.6758 18.0254Z" fill="#3A86FF"/>
<path d="M40.1456 16.151C40.142 16.095 40.1354 16.0392 40.1257 15.9838C40.126 15.9792 40.1254 15.9745 40.1237 15.9701C40.1178 15.9309 40.1079 15.8896 40.098 15.8502C40.0864 15.7961 40.0712 15.7429 40.0523 15.6909C40.0464 15.6712 40.0404 15.6533 40.0325 15.6338C40.0219 15.6016 40.0093 15.5701 39.9946 15.5394C39.9827 15.5119 39.9709 15.4843 39.9567 15.4569C39.9349 15.4135 39.913 15.3703 39.8892 15.327C39.8734 15.2996 39.8575 15.272 39.8396 15.2463C39.8276 15.2242 39.8137 15.2032 39.798 15.1834C39.7801 15.1559 39.7623 15.1303 39.7424 15.1048C39.729 15.085 39.7144 15.0659 39.6988 15.0478C39.6872 15.0325 39.6746 15.018 39.6609 15.0046C39.9501 15.3506 40.1204 15.7791 40.147 16.2278C40.1649 16.6487 40.151 17.0696 40.151 17.4923C40.1557 17.0459 40.1773 16.5975 40.1456 16.151ZM40.1555 17.8305C40.1555 17.915 40.1555 18.0017 40.1575 18.0882C40.1612 18.051 40.1619 18.0135 40.1595 17.9762C40.1575 17.927 40.1555 17.8797 40.1555 17.8305ZM40.1535 17.5985H40.1515C40.1515 17.6752 40.1535 17.7519 40.1555 17.8305C40.1535 17.7519 40.1535 17.6752 40.1535 17.5985ZM39.0662 14.4676C39.0563 14.4597 39.0464 14.4539 39.0344 14.446C38.9908 14.4165 38.9471 14.389 38.9015 14.3634C38.8778 14.3477 38.8519 14.3339 38.8261 14.3201C38.7785 14.2927 38.7289 14.2671 38.6773 14.2435C38.6646 14.2364 38.6514 14.2304 38.6376 14.2257C38.5741 14.1943 38.5087 14.1668 38.4412 14.1412C38.4015 14.1255 38.3598 14.1118 38.318 14.098C38.2525 14.0745 38.1831 14.0547 38.1136 14.0369C38.0779 14.0271 38.0442 14.0192 38.0085 14.0114C37.9212 13.9917 37.8319 13.9739 37.7426 13.9622C37.6752 13.9524 37.6077 13.9465 37.5382 13.9406C38.0968 13.9899 38.6336 14.1793 39.0978 14.4912C39.0879 14.4826 39.0772 14.4748 39.0662 14.4676ZM37.2429 13.9288C37.2263 13.9291 37.2097 13.9304 37.1933 13.9327C37.229 13.9307 37.2628 13.9307 37.2965 13.9307C37.2786 13.9291 37.2609 13.9284 37.2429 13.9288ZM35.3242 20.6233C35.8359 21.012 36.456 21.2352 37.1001 21.2625C36.4576 21.2271 35.84 21.0048 35.3242 20.6233ZM34.3897 18.9831C34.3897 19.0027 34.3897 19.0243 34.3916 19.0441C34.3936 19.0776 34.3976 19.109 34.4016 19.1424C34.4117 19.2308 34.4289 19.3183 34.4532 19.404C34.4591 19.4296 34.467 19.4532 34.4749 19.4788C34.4809 19.4965 34.4849 19.5122 34.4909 19.528C34.5008 19.5574 34.5127 19.5849 34.5246 19.6144C34.5357 19.6454 34.549 19.6757 34.5643 19.7049C34.5741 19.7301 34.5861 19.7544 34.6 19.7776C34.6239 19.8285 34.6511 19.8777 34.6813 19.9251C34.7092 19.9726 34.7397 20.0186 34.7726 20.0629C34.8064 20.112 34.8441 20.1593 34.8815 20.2044L34.8874 20.2103C34.9002 20.227 34.9141 20.2428 34.9291 20.2576L34.945 20.2732C34.6183 19.9176 34.4227 19.4629 34.3897 18.9831ZM34.3837 17.5966C34.3837 17.4354 34.3817 17.2721 34.3797 17.1109C34.3753 17.1467 34.374 17.1828 34.3758 17.2188C34.3797 17.2995 34.3817 17.3781 34.3797 17.4548C34.3817 17.557 34.3837 17.6633 34.3837 17.7655C34.3857 17.7086 34.3857 17.6534 34.3857 17.5965L34.3837 17.5966ZM34.3797 18.4521C34.3797 18.2299 34.3837 18.0096 34.3837 17.7874C34.3797 18.1689 34.3658 18.5544 34.3877 18.9359C34.3815 18.7746 34.3797 18.6135 34.3797 18.4521ZM40.1456 16.151C40.142 16.095 40.1354 16.0392 40.1257 15.9838C40.126 15.9792 40.1254 15.9745 40.1237 15.9701C40.1178 15.9309 40.1079 15.8896 40.098 15.8502C40.0864 15.7961 40.0712 15.7429 40.0523 15.6909C40.0464 15.6712 40.0404 15.6533 40.0325 15.6338C40.0219 15.6016 40.0093 15.5701 39.9946 15.5394C39.9827 15.5119 39.9709 15.4843 39.9567 15.4569C39.9349 15.4135 39.913 15.3703 39.8892 15.327C39.8734 15.2996 39.8575 15.272 39.8396 15.2463C39.8276 15.2242 39.8137 15.2032 39.798 15.1834C39.7801 15.1559 39.7623 15.1303 39.7424 15.1048C39.729 15.085 39.7144 15.0659 39.6988 15.0478C39.6872 15.0325 39.6746 15.018 39.6609 15.0046C39.9501 15.3506 40.1204 15.7791 40.147 16.2278C40.1649 16.6487 40.151 17.0696 40.151 17.4923C40.1557 17.0459 40.1773 16.5975 40.1456 16.151ZM40.1555 17.8305C40.1555 17.915 40.1555 18.0017 40.1575 18.0882C40.1612 18.051 40.1619 18.0135 40.1595 17.9762C40.1575 17.927 40.1555 17.8797 40.1555 17.8305ZM40.1535 17.5985H40.1515C40.1515 17.6752 40.1535 17.7519 40.1555 17.8305C40.1535 17.7519 40.1535 17.6752 40.1535 17.5985ZM39.0662 14.4676C39.0563 14.4597 39.0464 14.4539 39.0344 14.446C38.9908 14.4165 38.9471 14.389 38.9015 14.3634C38.8778 14.3477 38.8519 14.3339 38.8261 14.3201C38.7785 14.2927 38.7289 14.2671 38.6773 14.2435C38.6646 14.2364 38.6514 14.2304 38.6376 14.2257C38.5741 14.1943 38.5087 14.1668 38.4412 14.1412C38.4015 14.1255 38.3598 14.1118 38.318 14.098C38.2525 14.0745 38.1831 14.0547 38.1136 14.0369C38.0779 14.0271 38.0442 14.0192 38.0085 14.0114C37.9212 13.9917 37.8319 13.9739 37.7426 13.9622C37.6752 13.9524 37.6077 13.9465 37.5382 13.9406C38.0968 13.9899 38.6336 14.1793 39.0978 14.4912C39.0879 14.4826 39.0772 14.4748 39.0662 14.4676ZM37.2429 13.9288C37.2263 13.9291 37.2097 13.9304 37.1933 13.9327C37.229 13.9307 37.2628 13.9307 37.2965 13.9307C37.2786 13.9291 37.2609 13.9284 37.2429 13.9288ZM35.3242 20.6233C35.8359 21.012 36.456 21.2352 37.1001 21.2625C36.4576 21.2271 35.84 21.0048 35.3242 20.6233ZM34.3897 18.9831C34.3897 19.0027 34.3897 19.0243 34.3916 19.0441C34.3936 19.0776 34.3976 19.109 34.4016 19.1424C34.4117 19.2308 34.4289 19.3183 34.4532 19.404C34.4591 19.4296 34.467 19.4532 34.4749 19.4788C34.4809 19.4965 34.4849 19.5122 34.4909 19.528C34.5008 19.5574 34.5127 19.5849 34.5246 19.6144C34.5357 19.6454 34.549 19.6757 34.5643 19.7049C34.5741 19.7301 34.5861 19.7544 34.6 19.7776C34.6239 19.8285 34.6511 19.8777 34.6813 19.9251C34.7092 19.9726 34.7397 20.0186 34.7726 20.0629C34.8064 20.112 34.8441 20.1593 34.8815 20.2044L34.8874 20.2103C34.9002 20.227 34.9141 20.2428 34.9291 20.2576L34.945 20.2732C34.6183 19.9176 34.4227 19.4629 34.3897 18.9831ZM34.3837 17.5966C34.3837 17.4354 34.3817 17.2721 34.3797 17.1109C34.3753 17.1467 34.374 17.1828 34.3758 17.2188C34.3797 17.2995 34.3817 17.3781 34.3797 17.4548C34.3817 17.557 34.3837 17.6633 34.3837 17.7655C34.3857 17.7086 34.3857 17.6534 34.3857 17.5965L34.3837 17.5966ZM34.3797 18.4521C34.3797 18.2299 34.3837 18.0096 34.3837 17.7874C34.3797 18.1689 34.3658 18.5544 34.3877 18.9359C34.3815 18.7746 34.3797 18.6135 34.3797 18.4521ZM34.3797 18.4521C34.3797 18.2299 34.3837 18.0096 34.3837 17.7874C34.3797 18.1689 34.3658 18.5544 34.3877 18.9359C34.3815 18.7746 34.3797 18.6135 34.3797 18.4521ZM34.3837 17.5966C34.3837 17.4354 34.3817 17.2721 34.3797 17.1109C34.3753 17.1467 34.374 17.1828 34.3758 17.2188C34.3797 17.2995 34.3817 17.3781 34.3797 17.4548C34.3817 17.557 34.3837 17.6633 34.3837 17.7655C34.3857 17.7086 34.3857 17.6534 34.3857 17.5965L34.3837 17.5966ZM34.3897 18.9831C34.3897 19.0027 34.3897 19.0243 34.3916 19.0441C34.3936 19.0776 34.3976 19.109 34.4016 19.1424C34.4117 19.2308 34.4289 19.3183 34.4532 19.404C34.4591 19.4296 34.467 19.4532 34.4749 19.4788C34.4809 19.4965 34.4849 19.5122 34.4909 19.528C34.5008 19.5574 34.5127 19.5849 34.5246 19.6144C34.5357 19.6454 34.549 19.6757 34.5643 19.7049C34.5741 19.7301 34.5861 19.7544 34.6 19.7776C34.6239 19.8285 34.6511 19.8777 34.6813 19.9251C34.7092 19.9726 34.7397 20.0186 34.7726 20.0629C34.8064 20.112 34.8441 20.1593 34.8815 20.2044L34.8874 20.2103C34.9002 20.227 34.9141 20.2428 34.9291 20.2576L34.945 20.2732C34.6183 19.9176 34.4227 19.4629 34.3897 18.9831ZM35.3242 20.6233C35.8359 21.012 36.456 21.2352 37.1001 21.2625C36.4576 21.2271 35.84 21.0048 35.3242 20.6233ZM37.2429 13.9288C37.2263 13.9291 37.2097 13.9304 37.1933 13.9327C37.229 13.9307 37.2628 13.9307 37.2965 13.9307C37.2786 13.9291 37.2609 13.9284 37.2429 13.9288ZM39.0662 14.4676C39.0563 14.4597 39.0464 14.4539 39.0344 14.446C38.9908 14.4165 38.9471 14.389 38.9015 14.3634C38.8778 14.3477 38.8519 14.3339 38.8261 14.3201C38.7785 14.2927 38.7289 14.2671 38.6773 14.2435C38.6646 14.2364 38.6514 14.2304 38.6376 14.2257C38.5741 14.1943 38.5087 14.1668 38.4412 14.1412C38.4015 14.1255 38.3598 14.1118 38.318 14.098C38.2525 14.0745 38.1831 14.0547 38.1136 14.0369C38.0779 14.0271 38.0442 14.0192 38.0085 14.0114C37.9212 13.9917 37.8319 13.9739 37.7426 13.9622C37.6752 13.9524 37.6077 13.9465 37.5382 13.9406C38.0968 13.9899 38.6336 14.1793 39.0978 14.4912C39.0879 14.4826 39.0772 14.4748 39.0662 14.4676ZM40.1535 17.5985H40.1515C40.1515 17.6752 40.1535 17.7519 40.1555 17.8305C40.1535 17.7519 40.1535 17.6752 40.1535 17.5985ZM40.1456 16.151C40.142 16.095 40.1354 16.0392 40.1257 15.9838C40.126 15.9792 40.1254 15.9745 40.1237 15.9701C40.1178 15.9309 40.1079 15.8896 40.098 15.8502C40.0864 15.7961 40.0712 15.7429 40.0523 15.6909C40.0464 15.6712 40.0404 15.6533 40.0325 15.6338C40.0219 15.6016 40.0093 15.5701 39.9946 15.5394C39.9827 15.5119 39.9709 15.4843 39.9567 15.4569C39.9349 15.4135 39.913 15.3703 39.8892 15.327C39.8734 15.2996 39.8575 15.272 39.8396 15.2463C39.8276 15.2242 39.8137 15.2032 39.798 15.1834C39.7801 15.1559 39.7623 15.1303 39.7424 15.1048C39.729 15.085 39.7144 15.0659 39.6988 15.0478C39.6872 15.0325 39.6746 15.018 39.6609 15.0046C39.9501 15.3506 40.1204 15.7791 40.147 16.2278C40.1649 16.6487 40.151 17.0696 40.151 17.4923C40.1557 17.0459 40.1773 16.5975 40.1456 16.151ZM40.1555 17.8305C40.1555 17.915 40.1555 18.0017 40.1575 18.0882C40.1612 18.051 40.1619 18.0135 40.1595 17.9762C40.1575 17.927 40.1555 17.8797 40.1555 17.8305ZM40.1555 17.8305C40.1555 17.915 40.1555 18.0017 40.1575 18.0882C40.1612 18.051 40.1619 18.0135 40.1595 17.9762C40.1575 17.927 40.1555 17.8797 40.1555 17.8305ZM40.1456 16.151C40.142 16.095 40.1354 16.0392 40.1257 15.9838C40.126 15.9792 40.1254 15.9745 40.1237 15.9701C40.1178 15.9309 40.1079 15.8896 40.098 15.8502C40.0864 15.7961 40.0712 15.7429 40.0523 15.6909C40.0464 15.6712 40.0404 15.6533 40.0325 15.6338C40.0219 15.6016 40.0093 15.5701 39.9946 15.5394C39.9827 15.5119 39.9709 15.4843 39.9567 15.4569C39.9349 15.4135 39.913 15.3703 39.8892 15.327C39.8734 15.2996 39.8575 15.272 39.8396 15.2463C39.8276 15.2242 39.8137 15.2032 39.798 15.1834C39.7801 15.1559 39.7623 15.1303 39.7424 15.1048C39.729 15.085 39.7144 15.0659 39.6988 15.0478C39.6872 15.0325 39.6746 15.018 39.6609 15.0046C39.9501 15.3506 40.1204 15.7791 40.147 16.2278C40.1649 16.6487 40.151 17.0696 40.151 17.4923C40.1557 17.0459 40.1773 16.5975 40.1456 16.151ZM40.1535 17.5985H40.1515C40.1515 17.6752 40.1535 17.7519 40.1555 17.8305C40.1535 17.7519 40.1535 17.6752 40.1535 17.5985ZM39.0662 14.4676C39.0563 14.4597 39.0464 14.4539 39.0344 14.446C38.9908 14.4165 38.9471 14.389 38.9015 14.3634C38.8778 14.3477 38.8519 14.3339 38.8261 14.3201C38.7785 14.2927 38.7289 14.2671 38.6773 14.2435C38.6646 14.2364 38.6514 14.2304 38.6376 14.2257C38.5741 14.1943 38.5087 14.1668 38.4412 14.1412C38.4015 14.1255 38.3598 14.1118 38.318 14.098C38.2525 14.0745 38.1831 14.0547 38.1136 14.0369C38.0779 14.0271 38.0442 14.0192 38.0085 14.0114C37.9212 13.9917 37.8319 13.9739 37.7426 13.9622C37.6752 13.9524 37.6077 13.9465 37.5382 13.9406C38.0968 13.9899 38.6336 14.1793 39.0978 14.4912C39.0879 14.4826 39.0772 14.4748 39.0662 14.4676ZM37.2429 13.9288C37.2263 13.9291 37.2097 13.9304 37.1933 13.9327C37.229 13.9307 37.2628 13.9307 37.2965 13.9307C37.2786 13.9291 37.2609 13.9284 37.2429 13.9288ZM35.3242 20.6233C35.8359 21.012 36.456 21.2352 37.1001 21.2625C36.4576 21.2271 35.84 21.0048 35.3242 20.6233ZM34.3897 18.9831C34.3897 19.0027 34.3897 19.0243 34.3916 19.0441C34.3936 19.0776 34.3976 19.109 34.4016 19.1424C34.4117 19.2308 34.4289 19.3183 34.4532 19.404C34.4591 19.4296 34.467 19.4532 34.4749 19.4788C34.4809 19.4965 34.4849 19.5122 34.4909 19.528C34.5008 19.5574 34.5127 19.5849 34.5246 19.6144C34.5357 19.6454 34.549 19.6757 34.5643 19.7049C34.5741 19.7301 34.5861 19.7544 34.6 19.7776C34.6239 19.8285 34.6511 19.8777 34.6813 19.9251C34.7092 19.9726 34.7397 20.0186 34.7726 20.0629C34.8064 20.112 34.8441 20.1593 34.8815 20.2044L34.8874 20.2103C34.9002 20.227 34.9141 20.2428 34.9291 20.2576L34.945 20.2732C34.6183 19.9176 34.4227 19.4629 34.3897 18.9831ZM34.3837 17.5966C34.3837 17.4354 34.3817 17.2721 34.3797 17.1109C34.3753 17.1467 34.374 17.1828 34.3758 17.2188C34.3797 17.2995 34.3817 17.3781 34.3797 17.4548C34.3817 17.557 34.3837 17.6633 34.3837 17.7655C34.3857 17.7086 34.3857 17.6534 34.3857 17.5965L34.3837 17.5966ZM34.3797 18.4521C34.3797 18.2299 34.3837 18.0096 34.3837 17.7874C34.3797 18.1689 34.3658 18.5544 34.3877 18.9359C34.3815 18.7746 34.3797 18.6135 34.3797 18.4521ZM34.3797 18.4521C34.3797 18.2299 34.3837 18.0096 34.3837 17.7874C34.3797 18.1689 34.3658 18.5544 34.3877 18.9359C34.3815 18.7746 34.3797 18.6135 34.3797 18.4521ZM34.3837 17.5966C34.3837 17.4354 34.3817 17.2721 34.3797 17.1109C34.3753 17.1467 34.374 17.1828 34.3758 17.2188C34.3797 17.2995 34.3817 17.3781 34.3797 17.4548C34.3817 17.557 34.3837 17.6633 34.3837 17.7655C34.3857 17.7086 34.3857 17.6534 34.3857 17.5965L34.3837 17.5966ZM34.3897 18.9831C34.3897 19.0027 34.3897 19.0243 34.3916 19.0441C34.3936 19.0776 34.3976 19.109 34.4016 19.1424C34.4117 19.2308 34.4289 19.3183 34.4532 19.404C34.4591 19.4296 34.467 19.4532 34.4749 19.4788C34.4809 19.4965 34.4849 19.5122 34.4909 19.528C34.5008 19.5574 34.5127 19.5849 34.5246 19.6144C34.5357 19.6454 34.549 19.6757 34.5643 19.7049C34.5741 19.7301 34.5861 19.7544 34.6 19.7776C34.6239 19.8285 34.6511 19.8777 34.6813 19.9251C34.7092 19.9726 34.7397 20.0186 34.7726 20.0629C34.8064 20.112 34.8441 20.1593 34.8815 20.2044L34.8874 20.2103C34.9002 20.227 34.9141 20.2428 34.9291 20.2576L34.945 20.2732C34.6183 19.9176 34.4227 19.4629 34.3897 18.9831ZM35.3242 20.6233C35.8359 21.012 36.456 21.2352 37.1001 21.2625C36.4576 21.2271 35.84 21.0048 35.3242 20.6233ZM37.2429 13.9288C37.2263 13.9291 37.2097 13.9304 37.1933 13.9327C37.229 13.9307 37.2628 13.9307 37.2965 13.9307C37.2786 13.9291 37.2609 13.9284 37.2429 13.9288ZM39.0662 14.4676C39.0563 14.4597 39.0464 14.4539 39.0344 14.446C38.9908 14.4165 38.9471 14.389 38.9015 14.3634C38.8778 14.3477 38.8519 14.3339 38.8261 14.3201C38.7785 14.2927 38.7289 14.2671 38.6773 14.2435C38.6646 14.2364 38.6514 14.2304 38.6376 14.2257C38.5741 14.1943 38.5087 14.1668 38.4412 14.1412C38.4015 14.1255 38.3598 14.1118 38.318 14.098C38.2525 14.0745 38.1831 14.0547 38.1136 14.0369C38.0779 14.0271 38.0442 14.0192 38.0085 14.0114C37.9212 13.9917 37.8319 13.9739 37.7426 13.9622C37.6752 13.9524 37.6077 13.9465 37.5382 13.9406C38.0968 13.9899 38.6336 14.1793 39.0978 14.4912C39.0879 14.4826 39.0772 14.4748 39.0662 14.4676ZM40.1535 17.5985H40.1515C40.1515 17.6752 40.1535 17.7519 40.1555 17.8305C40.1535 17.7519 40.1535 17.6752 40.1535 17.5985ZM40.1456 16.151C40.142 16.095 40.1354 16.0392 40.1257 15.9838C40.126 15.9792 40.1254 15.9745 40.1237 15.9701C40.1178 15.9309 40.1079 15.8896 40.098 15.8502C40.0864 15.7961 40.0712 15.7429 40.0523 15.6909C40.0464 15.6712 40.0404 15.6533 40.0325 15.6338C40.0219 15.6016 40.0093 15.5701 39.9946 15.5394C39.9827 15.5119 39.9709 15.4843 39.9567 15.4569C39.9349 15.4135 39.913 15.3703 39.8892 15.327C39.8734 15.2996 39.8575 15.272 39.8396 15.2463C39.8276 15.2242 39.8137 15.2032 39.798 15.1834C39.7801 15.1559 39.7623 15.1303 39.7424 15.1048C39.729 15.085 39.7144 15.0659 39.6988 15.0478C39.6872 15.0325 39.6746 15.018 39.6609 15.0046C39.9501 15.3506 40.1204 15.7791 40.147 16.2278C40.1649 16.6487 40.151 17.0696 40.151 17.4923C40.1557 17.0459 40.1773 16.5975 40.1456 16.151ZM40.1555 17.8305C40.1555 17.915 40.1555 18.0017 40.1575 18.0882C40.1612 18.051 40.1619 18.0135 40.1595 17.9762C40.1575 17.927 40.1555 17.8797 40.1555 17.8305ZM40.1555 17.8305C40.1555 17.915 40.1555 18.0017 40.1575 18.0882C40.1612 18.051 40.1619 18.0135 40.1595 17.9762C40.1575 17.927 40.1555 17.8797 40.1555 17.8305ZM40.1456 16.151C40.142 16.095 40.1354 16.0392 40.1257 15.9838C40.126 15.9792 40.1254 15.9745 40.1237 15.9701C40.1178 15.9309 40.1079 15.8896 40.098 15.8502C40.0864 15.7961 40.0712 15.7429 40.0523 15.6909C40.0464 15.6712 40.0404 15.6533 40.0325 15.6338C40.0219 15.6016 40.0093 15.5701 39.9946 15.5394C39.9827 15.5119 39.9709 15.4843 39.9567 15.4569C39.9349 15.4135 39.913 15.3703 39.8892 15.327C39.8734 15.2996 39.8575 15.272 39.8396 15.2463C39.8276 15.2242 39.8137 15.2032 39.798 15.1834C39.7801 15.1559 39.7623 15.1303 39.7424 15.1048C39.729 15.085 39.7144 15.0659 39.6988 15.0478C39.6872 15.0325 39.6746 15.018 39.6609 15.0046C39.9501 15.3506 40.1204 15.7791 40.147 16.2278C40.1649 16.6487 40.151 17.0696 40.151 17.4923C40.1557 17.0459 40.1773 16.5975 40.1456 16.151ZM40.1535 17.5985H40.1515C40.1515 17.6752 40.1535 17.7519 40.1555 17.8305C40.1535 17.7519 40.1535 17.6752 40.1535 17.5985ZM39.0662 14.4676C39.0563 14.4597 39.0464 14.4539 39.0344 14.446C38.9908 14.4165 38.9471 14.389 38.9015 14.3634C38.8778 14.3477 38.8519 14.3339 38.8261 14.3201C38.7785 14.2927 38.7289 14.2671 38.6773 14.2435C38.6646 14.2364 38.6514 14.2304 38.6376 14.2257C38.5741 14.1943 38.5087 14.1668 38.4412 14.1412C38.4015 14.1255 38.3598 14.1118 38.318 14.098C38.2525 14.0745 38.1831 14.0547 38.1136 14.0369C38.0779 14.0271 38.0442 14.0192 38.0085 14.0114C37.9212 13.9917 37.8319 13.9739 37.7426 13.9622C37.6752 13.9524 37.6077 13.9465 37.5382 13.9406C38.0968 13.9899 38.6336 14.1793 39.0978 14.4912C39.0879 14.4826 39.0772 14.4748 39.0662 14.4676ZM37.2429 13.9288C37.2263 13.9291 37.2097 13.9304 37.1933 13.9327C37.229 13.9307 37.2628 13.9307 37.2965 13.9307C37.2786 13.9291 37.2609 13.9284 37.2429 13.9288ZM35.3242 20.6233C35.8359 21.012 36.456 21.2352 37.1001 21.2625C36.4576 21.2271 35.84 21.0048 35.3242 20.6233ZM34.3897 18.9831C34.3897 19.0027 34.3897 19.0243 34.3916 19.0441C34.3936 19.0776 34.3976 19.109 34.4016 19.1424C34.4117 19.2308 34.4289 19.3183 34.4532 19.404C34.4591 19.4296 34.467 19.4532 34.4749 19.4788C34.4809 19.4965 34.4849 19.5122 34.4909 19.528C34.5008 19.5574 34.5127 19.5849 34.5246 19.6144C34.5357 19.6454 34.549 19.6757 34.5643 19.7049C34.5741 19.7301 34.5861 19.7544 34.6 19.7776C34.6239 19.8285 34.6511 19.8777 34.6813 19.9251C34.7092 19.9726 34.7397 20.0186 34.7726 20.0629C34.8064 20.112 34.8441 20.1593 34.8815 20.2044L34.8874 20.2103C34.9002 20.227 34.9141 20.2428 34.9291 20.2576L34.945 20.2732C34.6183 19.9176 34.4227 19.4629 34.3897 18.9831ZM34.3837 17.5966C34.3837 17.4354 34.3817 17.2721 34.3797 17.1109C34.3753 17.1467 34.374 17.1828 34.3758 17.2188C34.3797 17.2995 34.3817 17.3781 34.3797 17.4548C34.3817 17.557 34.3837 17.6633 34.3837 17.7655C34.3857 17.7086 34.3857 17.6534 34.3857 17.5965L34.3837 17.5966ZM34.3797 18.4521C34.3797 18.2299 34.3837 18.0096 34.3837 17.7874C34.3797 18.1689 34.3658 18.5544 34.3877 18.9359C34.3815 18.7746 34.3797 18.6135 34.3797 18.4521ZM34.3797 18.4521C34.3797 18.2299 34.3837 18.0096 34.3837 17.7874C34.3797 18.1689 34.3658 18.5544 34.3877 18.9359C34.3815 18.7746 34.3797 18.6135 34.3797 18.4521ZM34.3837 17.5966C34.3837 17.4354 34.3817 17.2721 34.3797 17.1109C34.3753 17.1467 34.374 17.1828 34.3758 17.2188C34.3797 17.2995 34.3817 17.3781 34.3797 17.4548C34.3817 17.557 34.3837 17.6633 34.3837 17.7655C34.3857 17.7086 34.3857 17.6534 34.3857 17.5965L34.3837 17.5966ZM34.3897 18.9831C34.3897 19.0027 34.3897 19.0243 34.3916 19.0441C34.3936 19.0776 34.3976 19.109 34.4016 19.1424C34.4117 19.2308 34.4289 19.3183 34.4532 19.404C34.4591 19.4296 34.467 19.4532 34.4749 19.4788C34.4809 19.4965 34.4849 19.5122 34.4909 19.528C34.5008 19.5574 34.5127 19.5849 34.5246 19.6144C34.5357 19.6454 34.549 19.6757 34.5643 19.7049C34.5741 19.7301 34.5861 19.7544 34.6 19.7776C34.6239 19.8285 34.6511 19.8777 34.6813 19.9251C34.7092 19.9726 34.7397 20.0186 34.7726 20.0629C34.8064 20.112 34.8441 20.1593 34.8815 20.2044L34.8874 20.2103C34.9002 20.227 34.9141 20.2428 34.9291 20.2576L34.945 20.2732C34.6183 19.9176 34.4227 19.4629 34.3897 18.9831ZM35.3242 20.6233C35.8359 21.012 36.456 21.2352 37.1001 21.2625C36.4576 21.2271 35.84 21.0048 35.3242 20.6233ZM37.2429 13.9288C37.2263 13.9291 37.2097 13.9304 37.1933 13.9327C37.229 13.9307 37.2628 13.9307 37.2965 13.9307C37.2786 13.9291 37.2609 13.9284 37.2429 13.9288ZM39.0662 14.4676C39.0563 14.4597 39.0464 14.4539 39.0344 14.446C38.9908 14.4165 38.9471 14.389 38.9015 14.3634C38.8778 14.3477 38.8519 14.3339 38.8261 14.3201C38.7785 14.2927 38.7289 14.2671 38.6773 14.2435C38.6646 14.2364 38.6514 14.2304 38.6376 14.2257C38.5741 14.1943 38.5087 14.1668 38.4412 14.1412C38.4015 14.1255 38.3598 14.1118 38.318 14.098C38.2525 14.0745 38.1831 14.0547 38.1136 14.0369C38.0779 14.0271 38.0442 14.0192 38.0085 14.0114C37.9212 13.9917 37.8319 13.9739 37.7426 13.9622C37.6752 13.9524 37.6077 13.9465 37.5382 13.9406C38.0968 13.9899 38.6336 14.1793 39.0978 14.4912C39.0879 14.4826 39.0772 14.4748 39.0662 14.4676ZM40.1535 17.5985H40.1515C40.1515 17.6752 40.1535 17.7519 40.1555 17.8305C40.1535 17.7519 40.1535 17.6752 40.1535 17.5985ZM40.1456 16.151C40.142 16.095 40.1354 16.0392 40.1257 15.9838C40.126 15.9792 40.1254 15.9745 40.1237 15.9701C40.1178 15.9309 40.1079 15.8896 40.098 15.8502C40.0864 15.7961 40.0712 15.7429 40.0523 15.6909C40.0464 15.6712 40.0404 15.6533 40.0325 15.6338C40.0219 15.6016 40.0093 15.5701 39.9946 15.5394C39.9827 15.5119 39.9709 15.4843 39.9567 15.4569C39.9349 15.4135 39.913 15.3703 39.8892 15.327C39.8734 15.2996 39.8575 15.272 39.8396 15.2463C39.8276 15.2242 39.8137 15.2032 39.798 15.1834C39.7801 15.1559 39.7623 15.1303 39.7424 15.1048C39.729 15.085 39.7144 15.0659 39.6988 15.0478C39.6872 15.0325 39.6746 15.018 39.6609 15.0046C39.9501 15.3506 40.1204 15.7791 40.147 16.2278C40.1649 16.6487 40.151 17.0696 40.151 17.4923C40.1557 17.0459 40.1773 16.5975 40.1456 16.151ZM40.1555 17.8305C40.1555 17.915 40.1555 18.0017 40.1575 18.0882C40.1612 18.051 40.1619 18.0135 40.1595 17.9762C40.1575 17.927 40.1555 17.8797 40.1555 17.8305ZM40.1555 17.8305C40.1555 17.915 40.1555 18.0017 40.1575 18.0882C40.1612 18.051 40.1619 18.0135 40.1595 17.9762C40.1575 17.927 40.1555 17.8797 40.1555 17.8305ZM40.1456 16.151C40.142 16.095 40.1354 16.0392 40.1257 15.9838C40.126 15.9792 40.1254 15.9745 40.1237 15.9701C40.1178 15.9309 40.1079 15.8896 40.098 15.8502C40.0864 15.7961 40.0712 15.7429 40.0523 15.6909C40.0464 15.6712 40.0404 15.6533 40.0325 15.6338C40.0219 15.6016 40.0093 15.5701 39.9946 15.5394C39.9827 15.5119 39.9709 15.4843 39.9567 15.4569C39.9349 15.4135 39.913 15.3703 39.8892 15.327C39.8734 15.2996 39.8575 15.272 39.8396 15.2463C39.8276 15.2242 39.8137 15.2032 39.798 15.1834C39.7801 15.1559 39.7623 15.1303 39.7424 15.1048C39.729 15.085 39.7144 15.0659 39.6988 15.0478C39.6872 15.0325 39.6746 15.018 39.6609 15.0046C39.9501 15.3506 40.1204 15.7791 40.147 16.2278C40.1649 16.6487 40.151 17.0696 40.151 17.4923C40.1557 17.0459 40.1773 16.5975 40.1456 16.151ZM40.1535 17.5985H40.1515C40.1515 17.6752 40.1535 17.7519 40.1555 17.8305C40.1535 17.7519 40.1535 17.6752 40.1535 17.5985ZM39.0662 14.4676C39.0563 14.4597 39.0464 14.4539 39.0344 14.446C38.9908 14.4165 38.9471 14.389 38.9015 14.3634C38.8778 14.3477 38.8519 14.3339 38.8261 14.3201C38.7785 14.2927 38.7289 14.2671 38.6773 14.2435C38.6646 14.2364 38.6514 14.2304 38.6376 14.2257C38.5741 14.1943 38.5087 14.1668 38.4412 14.1412C38.4015 14.1255 38.3598 14.1118 38.318 14.098C38.2525 14.0745 38.1831 14.0547 38.1136 14.0369C38.0779 14.0271 38.0442 14.0192 38.0085 14.0114C37.9212 13.9917 37.8319 13.9739 37.7426 13.9622C37.6752 13.9524 37.6077 13.9465 37.5382 13.9406C38.0968 13.9899 38.6336 14.1793 39.0978 14.4912C39.0879 14.4826 39.0772 14.4748 39.0662 14.4676ZM37.2429 13.9288C37.2263 13.9291 37.2097 13.9304 37.1933 13.9327C37.229 13.9307 37.2628 13.9307 37.2965 13.9307C37.2786 13.9291 37.2609 13.9284 37.2429 13.9288ZM35.3242 20.6233C35.8359 21.012 36.456 21.2352 37.1001 21.2625C36.4576 21.2271 35.84 21.0048 35.3242 20.6233ZM34.3897 18.9831C34.3897 19.0027 34.3897 19.0243 34.3916 19.0441C34.3936 19.0776 34.3976 19.109 34.4016 19.1424C34.4117 19.2308 34.4289 19.3183 34.4532 19.404C34.4591 19.4296 34.467 19.4532 34.4749 19.4788C34.4809 19.4965 34.4849 19.5122 34.4909 19.528C34.5008 19.5574 34.5127 19.5849 34.5246 19.6144C34.5357 19.6454 34.549 19.6757 34.5643 19.7049C34.5741 19.7301 34.5861 19.7544 34.6 19.7776C34.6239 19.8285 34.6511 19.8777 34.6813 19.9251C34.7092 19.9726 34.7397 20.0186 34.7726 20.0629C34.8064 20.112 34.8441 20.1593 34.8815 20.2044L34.8874 20.2103C34.9002 20.227 34.9141 20.2428 34.9291 20.2576L34.945 20.2732C34.6183 19.9176 34.4227 19.4629 34.3897 18.9831ZM34.3837 17.5966C34.3837 17.4354 34.3817 17.2721 34.3797 17.1109C34.3753 17.1467 34.374 17.1828 34.3758 17.2188C34.3797 17.2995 34.3817 17.3781 34.3797 17.4548C34.3817 17.557 34.3837 17.6633 34.3837 17.7655C34.3857 17.7086 34.3857 17.6534 34.3857 17.5965L34.3837 17.5966ZM34.3797 18.4521C34.3797 18.2299 34.3837 18.0096 34.3837 17.7874C34.3797 18.1689 34.3658 18.5544 34.3877 18.9359C34.3815 18.7746 34.3797 18.6135 34.3797 18.4521ZM34.3797 18.4521C34.3797 18.2299 34.3837 18.0096 34.3837 17.7874C34.3797 18.1689 34.3658 18.5544 34.3877 18.9359C34.3815 18.7746 34.3797 18.6135 34.3797 18.4521ZM34.3837 17.5966C34.3837 17.4354 34.3817 17.2721 34.3797 17.1109C34.3753 17.1467 34.374 17.1828 34.3758 17.2188C34.3797 17.2995 34.3817 17.3781 34.3797 17.4548C34.3817 17.557 34.3837 17.6633 34.3837 17.7655C34.3857 17.7086 34.3857 17.6534 34.3857 17.5965L34.3837 17.5966ZM34.3897 18.9831C34.3897 19.0027 34.3897 19.0243 34.3916 19.0441C34.3936 19.0776 34.3976 19.109 34.4016 19.1424C34.4117 19.2308 34.4289 19.3183 34.4532 19.404C34.4591 19.4296 34.467 19.4532 34.4749 19.4788C34.4809 19.4965 34.4849 19.5122 34.4909 19.528C34.5008 19.5574 34.5127 19.5849 34.5246 19.6144C34.5357 19.6454 34.549 19.6757 34.5643 19.7049C34.5741 19.7301 34.5861 19.7544 34.6 19.7776C34.6239 19.8285 34.6511 19.8777 34.6813 19.9251C34.7092 19.9726 34.7397 20.0186 34.7726 20.0629C34.8064 20.112 34.8441 20.1593 34.8815 20.2044L34.8874 20.2103C34.9002 20.227 34.9141 20.2428 34.9291 20.2576L34.945 20.2732C34.6183 19.9176 34.4227 19.4629 34.3897 18.9831ZM35.3242 20.6233C35.8359 21.012 36.456 21.2352 37.1001 21.2625C36.4576 21.2271 35.84 21.0048 35.3242 20.6233ZM37.2429 13.9288C37.2263 13.9291 37.2097 13.9304 37.1933 13.9327C37.229 13.9307 37.2628 13.9307 37.2965 13.9307C37.2786 13.9291 37.2609 13.9284 37.2429 13.9288ZM39.0662 14.4676C39.0563 14.4597 39.0464 14.4539 39.0344 14.446C38.9908 14.4165 38.9471 14.389 38.9015 14.3634C38.8778 14.3477 38.8519 14.3339 38.8261 14.3201C38.7785 14.2927 38.7289 14.2671 38.6773 14.2435C38.6646 14.2364 38.6514 14.2304 38.6376 14.2257C38.5741 14.1943 38.5087 14.1668 38.4412 14.1412C38.4015 14.1255 38.3598 14.1118 38.318 14.098C38.2525 14.0745 38.1831 14.0547 38.1136 14.0369C38.0779 14.0271 38.0442 14.0192 38.0085 14.0114C37.9212 13.9917 37.8319 13.9739 37.7426 13.9622C37.6752 13.9524 37.6077 13.9465 37.5382 13.9406C38.0968 13.9899 38.6336 14.1793 39.0978 14.4912C39.0879 14.4826 39.0772 14.4748 39.0662 14.4676ZM40.1535 17.5985H40.1515C40.1515 17.6752 40.1535 17.7519 40.1555 17.8305C40.1535 17.7519 40.1535 17.6752 40.1535 17.5985ZM40.1456 16.151C40.142 16.095 40.1354 16.0392 40.1257 15.9838C40.126 15.9792 40.1254 15.9745 40.1237 15.9701C40.1178 15.9309 40.1079 15.8896 40.098 15.8502C40.0864 15.7961 40.0712 15.7429 40.0523 15.6909C40.0464 15.6712 40.0404 15.6533 40.0325 15.6338C40.0219 15.6016 40.0093 15.5701 39.9946 15.5394C39.9827 15.5119 39.9709 15.4843 39.9567 15.4569C39.9349 15.4135 39.913 15.3703 39.8892 15.327C39.8734 15.2996 39.8575 15.272 39.8396 15.2463C39.8276 15.2242 39.8137 15.2032 39.798 15.1834C39.7801 15.1559 39.7623 15.1303 39.7424 15.1048C39.729 15.085 39.7144 15.0659 39.6988 15.0478C39.6872 15.0325 39.6746 15.018 39.6609 15.0046C39.9501 15.3506 40.1204 15.7791 40.147 16.2278C40.1649 16.6487 40.151 17.0696 40.151 17.4923C40.1557 17.0459 40.1773 16.5975 40.1456 16.151ZM40.1555 17.8305C40.1555 17.915 40.1555 18.0017 40.1575 18.0882C40.1612 18.051 40.1619 18.0135 40.1595 17.9762C40.1575 17.927 40.1555 17.8797 40.1555 17.8305ZM40.1575 18.0882C40.1612 18.051 40.1619 18.0135 40.1595 17.9762C40.1575 17.927 40.1555 17.8797 40.1555 17.8305C40.1555 17.915 40.1555 18.0017 40.1575 18.0882ZM40.1517 17.4924C40.1557 17.046 40.1773 16.5975 40.1456 16.151C40.142 16.095 40.1354 16.0392 40.1257 15.9838C40.126 15.9792 40.1254 15.9745 40.1237 15.9701C40.1178 15.9309 40.1079 15.8896 40.098 15.8502C40.0864 15.7961 40.0712 15.7429 40.0523 15.6909C40.0464 15.6712 40.0404 15.6533 40.0325 15.6338C40.0219 15.6016 40.0093 15.5701 39.9946 15.5394C39.9827 15.5119 39.9709 15.4843 39.9567 15.4569C39.9349 15.4135 39.913 15.3703 39.8892 15.327C39.8734 15.2996 39.8575 15.272 39.8396 15.2463C39.8276 15.2242 39.8137 15.2032 39.798 15.1834C39.7801 15.1559 39.7623 15.1303 39.7424 15.1048C39.729 15.085 39.7144 15.0659 39.6988 15.0478C39.6872 15.0325 39.6746 15.018 39.6609 15.0046C39.9501 15.3506 40.1204 15.7791 40.147 16.2278C40.1652 16.6486 40.1517 17.0696 40.1517 17.4924ZM40.1515 17.5985C40.1515 17.6752 40.1535 17.7519 40.1555 17.8305C40.1535 17.7519 40.1535 17.6752 40.1535 17.5985H40.1515ZM39.0344 14.446C38.9908 14.4165 38.9471 14.389 38.9015 14.3634C38.8778 14.3477 38.8519 14.3339 38.8261 14.3201C38.7785 14.2927 38.7289 14.2671 38.6773 14.2435C38.6646 14.2364 38.6514 14.2304 38.6376 14.2257C38.5741 14.1943 38.5087 14.1668 38.4412 14.1412C38.4015 14.1255 38.3598 14.1118 38.318 14.098C38.2525 14.0745 38.1831 14.0547 38.1136 14.0369C38.0779 14.0271 38.0442 14.0192 38.0085 14.0114C37.9212 13.9917 37.8319 13.9739 37.7426 13.9622C37.6752 13.9524 37.6077 13.9465 37.5382 13.9406C38.0968 13.9899 38.6336 14.1793 39.0978 14.4912C39.0879 14.4826 39.0772 14.4748 39.0662 14.4676C39.0563 14.4597 39.0464 14.4539 39.0344 14.446ZM37.1933 13.9327C37.229 13.9307 37.2628 13.9307 37.2965 13.9307C37.2786 13.9291 37.2609 13.9284 37.2429 13.9288C37.2263 13.9291 37.2097 13.9304 37.1933 13.9327ZM37.1001 21.2625C36.4576 21.2271 35.84 21.0048 35.3242 20.6233C35.8359 21.012 36.456 21.2352 37.1001 21.2625ZM34.3916 19.0441C34.3936 19.0776 34.3976 19.109 34.4016 19.1424C34.4117 19.2308 34.4289 19.3183 34.4532 19.404C34.4591 19.4296 34.467 19.4532 34.4749 19.4788C34.4809 19.4965 34.4849 19.5122 34.4909 19.528C34.5008 19.5574 34.5127 19.5849 34.5246 19.6144C34.5357 19.6454 34.549 19.6757 34.5643 19.7049C34.5741 19.7301 34.5861 19.7544 34.6 19.7776C34.6239 19.8285 34.6511 19.8777 34.6813 19.9251C34.7092 19.9726 34.7397 20.0186 34.7726 20.0629C34.8064 20.112 34.8441 20.1593 34.8815 20.2044L34.8874 20.2103C34.9002 20.227 34.9141 20.2428 34.9291 20.2576L34.945 20.2732C34.6183 19.9176 34.4227 19.4629 34.3897 18.9831C34.3897 19.0027 34.3897 19.0243 34.3916 19.0441ZM34.3837 17.7655C34.3857 17.7086 34.3857 17.6534 34.3857 17.5965L34.3837 17.5966C34.3837 17.4354 34.3817 17.2721 34.3797 17.1109C34.3753 17.1467 34.374 17.1828 34.3758 17.2188C34.3797 17.2995 34.3817 17.3781 34.3797 17.4548C34.3817 17.557 34.3837 17.6633 34.3837 17.7655ZM34.3837 17.7874C34.3797 18.1689 34.3658 18.5544 34.3877 18.9359C34.3815 18.7746 34.3797 18.6135 34.3797 18.4521C34.3797 18.2299 34.3837 18.0096 34.3837 17.7874ZM40.1575 18.0882C40.1612 18.051 40.1619 18.0135 40.1595 17.9762C40.1575 17.927 40.1555 17.8797 40.1555 17.8305C40.1555 17.915 40.1555 18.0017 40.1575 18.0882ZM40.1517 17.4924C40.1557 17.046 40.1773 16.5975 40.1456 16.151C40.142 16.095 40.1354 16.0392 40.1257 15.9838C40.126 15.9792 40.1254 15.9745 40.1237 15.9701C40.1178 15.9309 40.1079 15.8896 40.098 15.8502C40.0864 15.7961 40.0712 15.7429 40.0523 15.6909C40.0464 15.6712 40.0404 15.6533 40.0325 15.6338C40.0219 15.6016 40.0093 15.5701 39.9946 15.5394C39.9827 15.5119 39.9709 15.4843 39.9567 15.4569C39.9349 15.4135 39.913 15.3703 39.8892 15.327C39.8734 15.2996 39.8575 15.272 39.8396 15.2463C39.8276 15.2242 39.8137 15.2032 39.798 15.1834C39.7801 15.1559 39.7623 15.1303 39.7424 15.1048C39.729 15.085 39.7144 15.0659 39.6988 15.0478C39.6872 15.0325 39.6746 15.018 39.6609 15.0046C39.9501 15.3506 40.1204 15.7791 40.147 16.2278C40.1652 16.6486 40.1517 17.0696 40.1517 17.4924ZM40.1515 17.5985C40.1515 17.6752 40.1535 17.7519 40.1555 17.8305C40.1535 17.7519 40.1535 17.6752 40.1535 17.5985H40.1515ZM39.0344 14.446C38.9908 14.4165 38.9471 14.389 38.9015 14.3634C38.8778 14.3477 38.8519 14.3339 38.8261 14.3201C38.7785 14.2927 38.7289 14.2671 38.6773 14.2435C38.6646 14.2364 38.6514 14.2304 38.6376 14.2257C38.5741 14.1943 38.5087 14.1668 38.4412 14.1412C38.4015 14.1255 38.3598 14.1118 38.318 14.098C38.2525 14.0745 38.1831 14.0547 38.1136 14.0369C38.0779 14.0271 38.0442 14.0192 38.0085 14.0114C37.9212 13.9917 37.8319 13.9739 37.7426 13.9622C37.6752 13.9524 37.6077 13.9465 37.5382 13.9406C38.0968 13.9899 38.6336 14.1793 39.0978 14.4912C39.0879 14.4826 39.0772 14.4748 39.0662 14.4676C39.0563 14.4597 39.0464 14.4539 39.0344 14.446ZM37.1933 13.9327C37.229 13.9307 37.2628 13.9307 37.2965 13.9307C37.2786 13.9291 37.2609 13.9284 37.2429 13.9288C37.2263 13.9291 37.2097 13.9304 37.1933 13.9327ZM37.1001 21.2625C36.4576 21.2271 35.84 21.0048 35.3242 20.6233C35.8359 21.012 36.456 21.2352 37.1001 21.2625ZM34.3916 19.0441C34.3936 19.0776 34.3976 19.109 34.4016 19.1424C34.4117 19.2308 34.4289 19.3183 34.4532 19.404C34.4591 19.4296 34.467 19.4532 34.4749 19.4788C34.4809 19.4965 34.4849 19.5122 34.4909 19.528C34.5008 19.5574 34.5127 19.5849 34.5246 19.6144C34.5357 19.6454 34.549 19.6757 34.5643 19.7049C34.5741 19.7301 34.5861 19.7544 34.6 19.7776C34.6239 19.8285 34.6511 19.8777 34.6813 19.9251C34.7092 19.9726 34.7397 20.0186 34.7726 20.0629C34.8064 20.112 34.8441 20.1593 34.8815 20.2044L34.8874 20.2103C34.9002 20.227 34.9141 20.2428 34.9291 20.2576L34.945 20.2732C34.6183 19.9176 34.4227 19.4629 34.3897 18.9831C34.3897 19.0027 34.3897 19.0243 34.3916 19.0441ZM34.3837 17.7655C34.3857 17.7086 34.3857 17.6534 34.3857 17.5965L34.3837 17.5966C34.3837 17.4354 34.3817 17.2721 34.3797 17.1109C34.3753 17.1467 34.374 17.1828 34.3758 17.2188C34.3797 17.2995 34.3817 17.3781 34.3797 17.4548C34.3817 17.557 34.3837 17.6633 34.3837 17.7655ZM34.3837 17.7874C34.3797 18.1689 34.3658 18.5544 34.3877 18.9359C34.3815 18.7746 34.3797 18.6135 34.3797 18.4521C34.3797 18.2299 34.3837 18.0096 34.3837 17.7874ZM34.3797 18.4521C34.3797 18.2299 34.3837 18.0096 34.3837 17.7874C34.3797 18.1689 34.3658 18.5544 34.3877 18.9359C34.3815 18.7746 34.3797 18.6135 34.3797 18.4521ZM34.3837 17.5966C34.3837 17.4354 34.3817 17.2721 34.3797 17.1109C34.3753 17.1467 34.374 17.1828 34.3758 17.2188C34.3797 17.2995 34.3817 17.3781 34.3797 17.4548C34.3817 17.557 34.3837 17.6633 34.3837 17.7655C34.3857 17.7086 34.3857 17.6534 34.3857 17.5965L34.3837 17.5966ZM34.3897 18.9831C34.3897 19.0027 34.3897 19.0243 34.3916 19.0441C34.3936 19.0776 34.3976 19.109 34.4016 19.1424C34.4117 19.2308 34.4289 19.3183 34.4532 19.404C34.4591 19.4296 34.467 19.4532 34.4749 19.4788C34.4809 19.4965 34.4849 19.5122 34.4909 19.528C34.5008 19.5574 34.5127 19.5849 34.5246 19.6144C34.5357 19.6454 34.549 19.6757 34.5643 19.7049C34.5741 19.7301 34.5861 19.7544 34.6 19.7776C34.6239 19.8285 34.6511 19.8777 34.6813 19.9251C34.7092 19.9726 34.7397 20.0186 34.7726 20.0629C34.8064 20.112 34.8441 20.1593 34.8815 20.2044L34.8874 20.2103C34.9002 20.227 34.9141 20.2428 34.9291 20.2576L34.945 20.2732C34.6183 19.9176 34.4227 19.4629 34.3897 18.9831ZM35.3242 20.6233C35.8359 21.012 36.456 21.2352 37.1001 21.2625C36.4576 21.2271 35.84 21.0048 35.3242 20.6233ZM37.2429 13.9288C37.2263 13.9291 37.2097 13.9304 37.1933 13.9327C37.229 13.9307 37.2628 13.9307 37.2965 13.9307C37.2786 13.9291 37.2609 13.9284 37.2429 13.9288ZM39.0662 14.4676C39.0563 14.4597 39.0464 14.4539 39.0344 14.446C38.9908 14.4165 38.9471 14.389 38.9015 14.3634C38.8778 14.3477 38.8519 14.3339 38.8261 14.3201C38.7785 14.2927 38.7289 14.2671 38.6773 14.2435C38.6646 14.2364 38.6514 14.2304 38.6376 14.2257C38.5741 14.1943 38.5087 14.1668 38.4412 14.1412C38.4015 14.1255 38.3598 14.1118 38.318 14.098C38.2525 14.0745 38.1831 14.0547 38.1136 14.0369C38.0779 14.0271 38.0442 14.0192 38.0085 14.0114C37.9212 13.9917 37.8319 13.9739 37.7426 13.9622C37.6752 13.9524 37.6077 13.9465 37.5382 13.9406C38.0968 13.9899 38.6336 14.1793 39.0978 14.4912C39.0879 14.4826 39.0772 14.4748 39.0662 14.4676ZM40.1535 17.5985H40.1515C40.1515 17.6752 40.1535 17.7519 40.1555 17.8305C40.1535 17.7519 40.1535 17.6752 40.1535 17.5985ZM40.1456 16.151C40.142 16.095 40.1354 16.0392 40.1257 15.9838C40.126 15.9792 40.1254 15.9745 40.1237 15.9701C40.1178 15.9309 40.1079 15.8896 40.098 15.8502C40.0864 15.7961 40.0712 15.7429 40.0523 15.6909C40.0464 15.6712 40.0404 15.6533 40.0325 15.6338C40.0219 15.6016 40.0093 15.5701 39.9946 15.5394C39.9827 15.5119 39.9709 15.4843 39.9567 15.4569C39.9349 15.4135 39.913 15.3703 39.8892 15.327C39.8734 15.2996 39.8575 15.272 39.8396 15.2463C39.8276 15.2242 39.8137 15.2032 39.798 15.1834C39.7801 15.1559 39.7623 15.1303 39.7424 15.1048C39.729 15.085 39.7144 15.0659 39.6988 15.0478C39.6872 15.0325 39.6746 15.018 39.6609 15.0046C39.9501 15.3506 40.1204 15.7791 40.147 16.2278C40.1649 16.6487 40.151 17.0696 40.151 17.4923C40.1557 17.0459 40.1773 16.5975 40.1456 16.151ZM40.1555 17.8305C40.1555 17.915 40.1555 18.0017 40.1575 18.0882C40.1612 18.051 40.1619 18.0135 40.1595 17.9762C40.1575 17.927 40.1555 17.8797 40.1555 17.8305ZM40.1555 17.8305C40.1555 17.915 40.1555 18.0017 40.1575 18.0882C40.1612 18.051 40.1619 18.0135 40.1595 17.9762C40.1575 17.927 40.1555 17.8797 40.1555 17.8305ZM40.1456 16.151C40.142 16.095 40.1354 16.0392 40.1257 15.9838C40.126 15.9792 40.1254 15.9745 40.1237 15.9701C40.1178 15.9309 40.1079 15.8896 40.098 15.8502C40.0864 15.7961 40.0712 15.7429 40.0523 15.6909C40.0464 15.6712 40.0404 15.6533 40.0325 15.6338C40.0219 15.6016 40.0093 15.5701 39.9946 15.5394C39.9827 15.5119 39.9709 15.4843 39.9567 15.4569C39.9349 15.4135 39.913 15.3703 39.8892 15.327C39.8734 15.2996 39.8575 15.272 39.8396 15.2463C39.8276 15.2242 39.8137 15.2032 39.798 15.1834C39.7801 15.1559 39.7623 15.1303 39.7424 15.1048C39.729 15.085 39.7144 15.0659 39.6988 15.0478C39.6872 15.0325 39.6746 15.018 39.6609 15.0046C39.9501 15.3506 40.1204 15.7791 40.147 16.2278C40.1649 16.6487 40.151 17.0696 40.151 17.4923C40.1557 17.0459 40.1773 16.5975 40.1456 16.151ZM40.1535 17.5985H40.1515C40.1515 17.6752 40.1535 17.7519 40.1555 17.8305C40.1535 17.7519 40.1535 17.6752 40.1535 17.5985ZM39.0662 14.4676C39.0563 14.4597 39.0464 14.4539 39.0344 14.446C38.9908 14.4165 38.9471 14.389 38.9015 14.3634C38.8778 14.3477 38.8519 14.3339 38.8261 14.3201C38.7785 14.2927 38.7289 14.2671 38.6773 14.2435C38.6646 14.2364 38.6514 14.2304 38.6376 14.2257C38.5741 14.1943 38.5087 14.1668 38.4412 14.1412C38.4015 14.1255 38.3598 14.1118 38.318 14.098C38.2525 14.0745 38.1831 14.0547 38.1136 14.0369C38.0779 14.0271 38.0442 14.0192 38.0085 14.0114C37.9212 13.9917 37.8319 13.9739 37.7426 13.9622C37.6752 13.9524 37.6077 13.9465 37.5382 13.9406C38.0968 13.9899 38.6336 14.1793 39.0978 14.4912C39.0879 14.4826 39.0772 14.4748 39.0662 14.4676ZM37.2429 13.9288C37.2263 13.9291 37.2097 13.9304 37.1933 13.9327C37.229 13.9307 37.2628 13.9307 37.2965 13.9307C37.2786 13.9291 37.2609 13.9284 37.2429 13.9288ZM35.3242 20.6233C35.8359 21.012 36.456 21.2352 37.1001 21.2625C36.4576 21.2271 35.84 21.0048 35.3242 20.6233ZM34.3897 18.9831C34.3897 19.0027 34.3897 19.0243 34.3916 19.0441C34.3936 19.0776 34.3976 19.109 34.4016 19.1424C34.4117 19.2308 34.4289 19.3183 34.4532 19.404C34.4591 19.4296 34.467 19.4532 34.4749 19.4788C34.4809 19.4965 34.4849 19.5122 34.4909 19.528C34.5008 19.5574 34.5127 19.5849 34.5246 19.6144C34.5357 19.6454 34.549 19.6757 34.5643 19.7049C34.5741 19.7301 34.5861 19.7544 34.6 19.7776C34.6239 19.8285 34.6511 19.8777 34.6813 19.9251C34.7092 19.9726 34.7397 20.0186 34.7726 20.0629C34.8064 20.112 34.8441 20.1593 34.8815 20.2044L34.8874 20.2103C34.9002 20.227 34.9141 20.2428 34.9291 20.2576L34.945 20.2732C34.6183 19.9176 34.4227 19.4629 34.3897 18.9831ZM34.3837 17.5966C34.3837 17.4354 34.3817 17.2721 34.3797 17.1109C34.3753 17.1467 34.374 17.1828 34.3758 17.2188C34.3797 17.2995 34.3817 17.3781 34.3797 17.4548C34.3817 17.557 34.3837 17.6633 34.3837 17.7655C34.3857 17.7086 34.3857 17.6534 34.3857 17.5965L34.3837 17.5966ZM34.3797 18.4521C34.3797 18.2299 34.3837 18.0096 34.3837 17.7874C34.3797 18.1689 34.3658 18.5544 34.3877 18.9359C34.3815 18.7746 34.3797 18.6135 34.3797 18.4521ZM34.3797 18.4521C34.3797 18.2299 34.3837 18.0096 34.3837 17.7874C34.3797 18.1689 34.3658 18.5544 34.3877 18.9359C34.3815 18.7746 34.3797 18.6135 34.3797 18.4521ZM34.3837 17.5966C34.3837 17.4354 34.3817 17.2721 34.3797 17.1109C34.3753 17.1467 34.374 17.1828 34.3758 17.2188C34.3797 17.2995 34.3817 17.3781 34.3797 17.4548C34.3817 17.557 34.3837 17.6633 34.3837 17.7655C34.3857 17.7086 34.3857 17.6534 34.3857 17.5965L34.3837 17.5966ZM34.3897 18.9831C34.3897 19.0027 34.3897 19.0243 34.3916 19.0441C34.3936 19.0776 34.3976 19.109 34.4016 19.1424C34.4117 19.2308 34.4289 19.3183 34.4532 19.404C34.4591 19.4296 34.467 19.4532 34.4749 19.4788C34.4809 19.4965 34.4849 19.5122 34.4909 19.528C34.5008 19.5574 34.5127 19.5849 34.5246 19.6144C34.5357 19.6454 34.549 19.6757 34.5643 19.7049C34.5741 19.7301 34.5861 19.7544 34.6 19.7776C34.6239 19.8285 34.6511 19.8777 34.6813 19.9251C34.7092 19.9726 34.7397 20.0186 34.7726 20.0629C34.8064 20.112 34.8441 20.1593 34.8815 20.2044L34.8874 20.2103C34.9002 20.227 34.9141 20.2428 34.9291 20.2576L34.945 20.2732C34.6183 19.9176 34.4227 19.4629 34.3897 18.9831ZM35.3242 20.6233C35.8359 21.012 36.456 21.2352 37.1001 21.2625C36.4576 21.2271 35.84 21.0048 35.3242 20.6233ZM37.2429 13.9288C37.2263 13.9291 37.2097 13.9304 37.1933 13.9327C37.229 13.9307 37.2628 13.9307 37.2965 13.9307C37.2786 13.9291 37.2609 13.9284 37.2429 13.9288ZM39.0662 14.4676C39.0563 14.4597 39.0464 14.4539 39.0344 14.446C38.9908 14.4165 38.9471 14.389 38.9015 14.3634C38.8778 14.3477 38.8519 14.3339 38.8261 14.3201C38.7785 14.2927 38.7289 14.2671 38.6773 14.2435C38.6646 14.2364 38.6514 14.2304 38.6376 14.2257C38.5741 14.1943 38.5087 14.1668 38.4412 14.1412C38.4015 14.1255 38.3598 14.1118 38.318 14.098C38.2525 14.0745 38.1831 14.0547 38.1136 14.0369C38.0779 14.0271 38.0442 14.0192 38.0085 14.0114C37.9212 13.9917 37.8319 13.9739 37.7426 13.9622C37.6752 13.9524 37.6077 13.9465 37.5382 13.9406C38.0968 13.9899 38.6336 14.1793 39.0978 14.4912C39.0879 14.4826 39.0772 14.4748 39.0662 14.4676ZM40.1535 17.5985H40.1515C40.1515 17.6752 40.1535 17.7519 40.1555 17.8305C40.1535 17.7519 40.1535 17.6752 40.1535 17.5985ZM40.1456 16.151C40.142 16.095 40.1354 16.0392 40.1257 15.9838C40.126 15.9792 40.1254 15.9745 40.1237 15.9701C40.1178 15.9309 40.1079 15.8896 40.098 15.8502C40.0864 15.7961 40.0712 15.7429 40.0523 15.6909C40.0464 15.6712 40.0404 15.6533 40.0325 15.6338C40.0219 15.6016 40.0093 15.5701 39.9946 15.5394C39.9827 15.5119 39.9709 15.4843 39.9567 15.4569C39.9349 15.4135 39.913 15.3703 39.8892 15.327C39.8734 15.2996 39.8575 15.272 39.8396 15.2463C39.8276 15.2242 39.8137 15.2032 39.798 15.1834C39.7801 15.1559 39.7623 15.1303 39.7424 15.1048C39.729 15.085 39.7144 15.0659 39.6988 15.0478C39.6872 15.0325 39.6746 15.018 39.6609 15.0046C39.9501 15.3506 40.1204 15.7791 40.147 16.2278C40.1649 16.6487 40.151 17.0696 40.151 17.4923C40.1557 17.0459 40.1773 16.5975 40.1456 16.151ZM40.1555 17.8305C40.1555 17.915 40.1555 18.0017 40.1575 18.0882C40.1612 18.051 40.1619 18.0135 40.1595 17.9762C40.1575 17.927 40.1555 17.8797 40.1555 17.8305ZM40.1555 17.8305C40.1555 17.915 40.1555 18.0017 40.1575 18.0882C40.1612 18.051 40.1619 18.0135 40.1595 17.9762C40.1575 17.927 40.1555 17.8797 40.1555 17.8305ZM40.1456 16.151C40.142 16.095 40.1354 16.0392 40.1257 15.9838C40.126 15.9792 40.1254 15.9745 40.1237 15.9701C40.1178 15.9309 40.1079 15.8896 40.098 15.8502C40.0864 15.7961 40.0712 15.7429 40.0523 15.6909C40.0464 15.6712 40.0404 15.6533 40.0325 15.6338C40.0219 15.6016 40.0093 15.5701 39.9946 15.5394C39.9827 15.5119 39.9709 15.4843 39.9567 15.4569C39.9349 15.4135 39.913 15.3703 39.8892 15.327C39.8734 15.2996 39.8575 15.272 39.8396 15.2463C39.8276 15.2242 39.8137 15.2032 39.798 15.1834C39.7801 15.1559 39.7623 15.1303 39.7424 15.1048C39.729 15.085 39.7144 15.0659 39.6988 15.0478C39.6872 15.0325 39.6746 15.018 39.6609 15.0046C39.9501 15.3506 40.1204 15.7791 40.147 16.2278C40.1649 16.6487 40.151 17.0696 40.151 17.4923C40.1557 17.0459 40.1773 16.5975 40.1456 16.151ZM40.1535 17.5985H40.1515C40.1515 17.6752 40.1535 17.7519 40.1555 17.8305C40.1535 17.7519 40.1535 17.6752 40.1535 17.5985ZM39.0662 14.4676C39.0563 14.4597 39.0464 14.4539 39.0344 14.446C38.9908 14.4165 38.9471 14.389 38.9015 14.3634C38.8778 14.3477 38.8519 14.3339 38.8261 14.3201C38.7785 14.2927 38.7289 14.2671 38.6773 14.2435C38.6646 14.2364 38.6514 14.2304 38.6376 14.2257C38.5741 14.1943 38.5087 14.1668 38.4412 14.1412C38.4015 14.1255 38.3598 14.1118 38.318 14.098C38.2525 14.0745 38.1831 14.0547 38.1136 14.0369C38.0779 14.0271 38.0442 14.0192 38.0085 14.0114C37.9212 13.9917 37.8319 13.9739 37.7426 13.9622C37.6752 13.9524 37.6077 13.9465 37.5382 13.9406C38.0968 13.9899 38.6336 14.1793 39.0978 14.4912C39.0879 14.4826 39.0772 14.4748 39.0662 14.4676ZM37.2429 13.9288C37.2263 13.9291 37.2097 13.9304 37.1933 13.9327C37.229 13.9307 37.2628 13.9307 37.2965 13.9307C37.2786 13.9291 37.2609 13.9284 37.2429 13.9288ZM35.3242 20.6233C35.8359 21.012 36.456 21.2352 37.1001 21.2625C36.4576 21.2271 35.84 21.0048 35.3242 20.6233ZM34.3897 18.9831C34.3897 19.0027 34.3897 19.0243 34.3916 19.0441C34.3936 19.0776 34.3976 19.109 34.4016 19.1424C34.4117 19.2308 34.4289 19.3183 34.4532 19.404C34.4591 19.4296 34.467 19.4532 34.4749 19.4788C34.4809 19.4965 34.4849 19.5122 34.4909 19.528C34.5008 19.5574 34.5127 19.5849 34.5246 19.6144C34.5357 19.6454 34.549 19.6757 34.5643 19.7049C34.5741 19.7301 34.5861 19.7544 34.6 19.7776C34.6239 19.8285 34.6511 19.8777 34.6813 19.9251C34.7092 19.9726 34.7397 20.0186 34.7726 20.0629C34.8064 20.112 34.8441 20.1593 34.8815 20.2044L34.8874 20.2103C34.9002 20.227 34.9141 20.2428 34.9291 20.2576L34.945 20.2732C34.6183 19.9176 34.4227 19.4629 34.3897 18.9831ZM34.3837 17.5966C34.3837 17.4354 34.3817 17.2721 34.3797 17.1109C34.3753 17.1467 34.374 17.1828 34.3758 17.2188C34.3797 17.2995 34.3817 17.3781 34.3797 17.4548C34.3817 17.557 34.3837 17.6633 34.3837 17.7655C34.3857 17.7086 34.3857 17.6534 34.3857 17.5965L34.3837 17.5966ZM34.3797 18.4521C34.3797 18.2299 34.3837 18.0096 34.3837 17.7874C34.3797 18.1689 34.3658 18.5544 34.3877 18.9359C34.3815 18.7746 34.3797 18.6135 34.3797 18.4521ZM34.3797 18.4521C34.3797 18.2299 34.3837 18.0096 34.3837 17.7874C34.3797 18.1689 34.3658 18.5544 34.3877 18.9359C34.3815 18.7746 34.3797 18.6135 34.3797 18.4521ZM34.3837 17.5966C34.3837 17.4354 34.3817 17.2721 34.3797 17.1109C34.3753 17.1467 34.374 17.1828 34.3758 17.2188C34.3797 17.2995 34.3817 17.3781 34.3797 17.4548C34.3817 17.557 34.3837 17.6633 34.3837 17.7655C34.3857 17.7086 34.3857 17.6534 34.3857 17.5965L34.3837 17.5966ZM34.3897 18.9831C34.3897 19.0027 34.3897 19.0243 34.3916 19.0441C34.3936 19.0776 34.3976 19.109 34.4016 19.1424C34.4117 19.2308 34.4289 19.3183 34.4532 19.404C34.4591 19.4296 34.467 19.4532 34.4749 19.4788C34.4809 19.4965 34.4849 19.5122 34.4909 19.528C34.5008 19.5574 34.5127 19.5849 34.5246 19.6144C34.5357 19.6454 34.549 19.6757 34.5643 19.7049C34.5741 19.7301 34.5861 19.7544 34.6 19.7776C34.6239 19.8285 34.6511 19.8777 34.6813 19.9251C34.7092 19.9726 34.7397 20.0186 34.7726 20.0629C34.8064 20.112 34.8441 20.1593 34.8815 20.2044L34.8874 20.2103C34.9002 20.227 34.9141 20.2428 34.9291 20.2576L34.945 20.2732C34.6183 19.9176 34.4227 19.4629 34.3897 18.9831ZM35.3242 20.6233C35.8359 21.012 36.456 21.2352 37.1001 21.2625C36.4576 21.2271 35.84 21.0048 35.3242 20.6233ZM37.2429 13.9288C37.2263 13.9291 37.2097 13.9304 37.1933 13.9327C37.229 13.9307 37.2628 13.9307 37.2965 13.9307C37.2786 13.9291 37.2609 13.9284 37.2429 13.9288ZM39.0662 14.4676C39.0563 14.4597 39.0464 14.4539 39.0344 14.446C38.9908 14.4165 38.9471 14.389 38.9015 14.3634C38.8778 14.3477 38.8519 14.3339 38.8261 14.3201C38.7785 14.2927 38.7289 14.2671 38.6773 14.2435C38.6646 14.2364 38.6514 14.2304 38.6376 14.2257C38.5741 14.1943 38.5087 14.1668 38.4412 14.1412C38.4015 14.1255 38.3598 14.1118 38.318 14.098C38.2525 14.0745 38.1831 14.0547 38.1136 14.0369C38.0779 14.0271 38.0442 14.0192 38.0085 14.0114C37.9212 13.9917 37.8319 13.9739 37.7426 13.9622C37.6752 13.9524 37.6077 13.9465 37.5382 13.9406C38.0968 13.9899 38.6336 14.1793 39.0978 14.4912C39.0879 14.4826 39.0772 14.4748 39.0662 14.4676ZM40.1535 17.5985H40.1515C40.1515 17.6752 40.1535 17.7519 40.1555 17.8305C40.1535 17.7519 40.1535 17.6752 40.1535 17.5985ZM40.1456 16.151C40.142 16.095 40.1354 16.0392 40.1257 15.9838C40.126 15.9792 40.1254 15.9745 40.1237 15.9701C40.1178 15.9309 40.1079 15.8896 40.098 15.8502C40.0864 15.7961 40.0712 15.7429 40.0523 15.6909C40.0464 15.6712 40.0404 15.6533 40.0325 15.6338C40.0219 15.6016 40.0093 15.5701 39.9946 15.5394C39.9827 15.5119 39.9709 15.4843 39.9567 15.4569C39.9349 15.4135 39.913 15.3703 39.8892 15.327C39.8734 15.2996 39.8575 15.272 39.8396 15.2463C39.8276 15.2242 39.8137 15.2032 39.798 15.1834C39.7801 15.1559 39.7623 15.1303 39.7424 15.1048C39.729 15.085 39.7144 15.0659 39.6988 15.0478C39.6872 15.0325 39.6746 15.018 39.6609 15.0046C39.9501 15.3506 40.1204 15.7791 40.147 16.2278C40.1649 16.6487 40.151 17.0696 40.151 17.4923C40.1557 17.0459 40.1773 16.5975 40.1456 16.151ZM40.1555 17.8305C40.1555 17.915 40.1555 18.0017 40.1575 18.0882C40.1612 18.051 40.1619 18.0135 40.1595 17.9762C40.1575 17.927 40.1555 17.8797 40.1555 17.8305ZM40.1555 17.8305C40.1555 17.915 40.1555 18.0017 40.1575 18.0882C40.1612 18.051 40.1619 18.0135 40.1595 17.9762C40.1575 17.927 40.1555 17.8797 40.1555 17.8305ZM40.1456 16.151C40.142 16.095 40.1354 16.0392 40.1257 15.9838C40.126 15.9792 40.1254 15.9745 40.1237 15.9701C40.1178 15.9309 40.1079 15.8896 40.098 15.8502C40.0864 15.7961 40.0712 15.7429 40.0523 15.6909C40.0464 15.6712 40.0404 15.6533 40.0325 15.6338C40.0219 15.6016 40.0093 15.5701 39.9946 15.5394C39.9827 15.5119 39.9709 15.4843 39.9567 15.4569C39.9349 15.4135 39.913 15.3703 39.8892 15.327C39.8734 15.2996 39.8575 15.272 39.8396 15.2463C39.8276 15.2242 39.8137 15.2032 39.798 15.1834C39.7801 15.1559 39.7623 15.1303 39.7424 15.1048C39.729 15.085 39.7144 15.0659 39.6988 15.0478C39.6872 15.0325 39.6746 15.018 39.6609 15.0046C39.9501 15.3506 40.1204 15.7791 40.147 16.2278C40.1649 16.6487 40.151 17.0696 40.151 17.4923C40.1557 17.0459 40.1773 16.5975 40.1456 16.151ZM40.1535 17.5985H40.1515C40.1515 17.6752 40.1535 17.7519 40.1555 17.8305C40.1535 17.7519 40.1535 17.6752 40.1535 17.5985ZM39.0662 14.4676C39.0563 14.4597 39.0464 14.4539 39.0344 14.446C38.9908 14.4165 38.9471 14.389 38.9015 14.3634C38.8778 14.3477 38.8519 14.3339 38.8261 14.3201C38.7785 14.2927 38.7289 14.2671 38.6773 14.2435C38.6646 14.2364 38.6514 14.2304 38.6376 14.2257C38.5741 14.1943 38.5087 14.1668 38.4412 14.1412C38.4015 14.1255 38.3598 14.1118 38.318 14.098C38.2525 14.0745 38.1831 14.0547 38.1136 14.0369C38.0779 14.0271 38.0442 14.0192 38.0085 14.0114C37.9212 13.9917 37.8319 13.9739 37.7426 13.9622C37.6752 13.9524 37.6077 13.9465 37.5382 13.9406C38.0968 13.9899 38.6336 14.1793 39.0978 14.4912C39.0879 14.4826 39.0772 14.4748 39.0662 14.4676ZM37.2429 13.9288C37.2263 13.9291 37.2097 13.9304 37.1933 13.9327C37.229 13.9307 37.2628 13.9307 37.2965 13.9307C37.2786 13.9291 37.2609 13.9284 37.2429 13.9288ZM35.3242 20.6233C35.8359 21.012 36.456 21.2352 37.1001 21.2625C36.4576 21.2271 35.84 21.0048 35.3242 20.6233ZM34.3897 18.9831C34.3897 19.0027 34.3897 19.0243 34.3916 19.0441C34.3936 19.0776 34.3976 19.109 34.4016 19.1424C34.4117 19.2308 34.4289 19.3183 34.4532 19.404C34.4591 19.4296 34.467 19.4532 34.4749 19.4788C34.4809 19.4965 34.4849 19.5122 34.4909 19.528C34.5008 19.5574 34.5127 19.5849 34.5246 19.6144C34.5357 19.6454 34.549 19.6757 34.5643 19.7049C34.5741 19.7301 34.5861 19.7544 34.6 19.7776C34.6239 19.8285 34.6511 19.8777 34.6813 19.9251C34.7092 19.9726 34.7397 20.0186 34.7726 20.0629C34.8064 20.112 34.8441 20.1593 34.8815 20.2044L34.8874 20.2103C34.9002 20.227 34.9141 20.2428 34.9291 20.2576L34.945 20.2732C34.6183 19.9176 34.4227 19.4629 34.3897 18.9831ZM34.3837 17.5966C34.3837 17.4354 34.3817 17.2721 34.3797 17.1109C34.3753 17.1467 34.374 17.1828 34.3758 17.2188C34.3797 17.2995 34.3817 17.3781 34.3797 17.4548C34.3817 17.557 34.3837 17.6633 34.3837 17.7655C34.3857 17.7086 34.3857 17.6534 34.3857 17.5965L34.3837 17.5966ZM34.3797 18.4521C34.3797 18.2299 34.3837 18.0096 34.3837 17.7874C34.3797 18.1689 34.3658 18.5544 34.3877 18.9359C34.3815 18.7746 34.3797 18.6135 34.3797 18.4521ZM34.3797 18.4521C34.3797 18.2299 34.3837 18.0096 34.3837 17.7874C34.3797 18.1689 34.3658 18.5544 34.3877 18.9359C34.3815 18.7746 34.3797 18.6135 34.3797 18.4521ZM34.3837 17.5966C34.3837 17.4354 34.3817 17.2721 34.3797 17.1109C34.3753 17.1467 34.374 17.1828 34.3758 17.2188C34.3797 17.2995 34.3817 17.3781 34.3797 17.4548C34.3817 17.557 34.3837 17.6633 34.3837 17.7655C34.3857 17.7086 34.3857 17.6534 34.3857 17.5965L34.3837 17.5966ZM34.3897 18.9831C34.3897 19.0027 34.3897 19.0243 34.3916 19.0441C34.3936 19.0776 34.3976 19.109 34.4016 19.1424C34.4117 19.2308 34.4289 19.3183 34.4532 19.404C34.4591 19.4296 34.467 19.4532 34.4749 19.4788C34.4809 19.4965 34.4849 19.5122 34.4909 19.528C34.5008 19.5574 34.5127 19.5849 34.5246 19.6144C34.5357 19.6454 34.549 19.6757 34.5643 19.7049C34.5741 19.7301 34.5861 19.7544 34.6 19.7776C34.6239 19.8285 34.6511 19.8777 34.6813 19.9251C34.7092 19.9726 34.7397 20.0186 34.7726 20.0629C34.8064 20.112 34.8441 20.1593 34.8815 20.2044L34.8874 20.2103C34.9002 20.227 34.9141 20.2428 34.9291 20.2576L34.945 20.2732C34.6183 19.9176 34.4227 19.4629 34.3897 18.9831ZM35.3242 20.6233C35.8359 21.012 36.456 21.2352 37.1001 21.2625C36.4576 21.2271 35.84 21.0048 35.3242 20.6233ZM37.2429 13.9288C37.2263 13.9291 37.2097 13.9304 37.1933 13.9327C37.229 13.9307 37.2628 13.9307 37.2965 13.9307C37.2786 13.9291 37.2609 13.9284 37.2429 13.9288ZM39.0662 14.4676C39.0563 14.4597 39.0464 14.4539 39.0344 14.446C38.9908 14.4165 38.9471 14.389 38.9015 14.3634C38.8778 14.3477 38.8519 14.3339 38.8261 14.3201C38.7785 14.2927 38.7289 14.2671 38.6773 14.2435C38.6646 14.2364 38.6514 14.2304 38.6376 14.2257C38.5741 14.1943 38.5087 14.1668 38.4412 14.1412C38.4015 14.1255 38.3598 14.1118 38.318 14.098C38.2525 14.0745 38.1831 14.0547 38.1136 14.0369C38.0779 14.0271 38.0442 14.0192 38.0085 14.0114C37.9212 13.9917 37.8319 13.9739 37.7426 13.9622C37.6752 13.9524 37.6077 13.9465 37.5382 13.9406C38.0968 13.9899 38.6336 14.1793 39.0978 14.4912C39.0879 14.4826 39.0772 14.4748 39.0662 14.4676ZM40.1535 17.5985H40.1515C40.1515 17.6752 40.1535 17.7519 40.1555 17.8305C40.1535 17.7519 40.1535 17.6752 40.1535 17.5985ZM40.1456 16.151C40.142 16.095 40.1354 16.0392 40.1257 15.9838C40.126 15.9792 40.1254 15.9745 40.1237 15.9701C40.1178 15.9309 40.1079 15.8896 40.098 15.8502C40.0864 15.7961 40.0712 15.7429 40.0523 15.6909C40.0464 15.6712 40.0404 15.6533 40.0325 15.6338C40.0219 15.6016 40.0093 15.5701 39.9946 15.5394C39.9827 15.5119 39.9709 15.4843 39.9567 15.4569C39.9349 15.4135 39.913 15.3703 39.8892 15.327C39.8734 15.2996 39.8575 15.272 39.8396 15.2463C39.8276 15.2242 39.8137 15.2032 39.798 15.1834C39.7801 15.1559 39.7623 15.1303 39.7424 15.1048C39.729 15.085 39.7144 15.0659 39.6988 15.0478C39.6872 15.0325 39.6746 15.018 39.6609 15.0046C39.9501 15.3506 40.1204 15.7791 40.147 16.2278C40.1649 16.6487 40.151 17.0696 40.151 17.4923C40.1557 17.0459 40.1773 16.5975 40.1456 16.151ZM40.1555 17.8305C40.1555 17.915 40.1555 18.0017 40.1575 18.0882C40.1612 18.051 40.1619 18.0135 40.1595 17.9762C40.1575 17.927 40.1555 17.8797 40.1555 17.8305ZM40.1456 16.151C40.142 16.095 40.1354 16.0392 40.1257 15.9838C40.126 15.9792 40.1254 15.9745 40.1237 15.9701C40.1178 15.9309 40.1079 15.8896 40.098 15.8502C40.0864 15.7961 40.0712 15.7429 40.0523 15.6909C40.0464 15.6712 40.0404 15.6533 40.0325 15.6338C40.0219 15.6016 40.0093 15.5701 39.9946 15.5394C39.9827 15.5119 39.9709 15.4843 39.9567 15.4569C39.9349 15.4135 39.913 15.3703 39.8892 15.327C39.8734 15.2996 39.8575 15.272 39.8396 15.2463C39.8276 15.2242 39.8137 15.2032 39.798 15.1834C39.7801 15.1559 39.7623 15.1303 39.7424 15.1048C39.729 15.085 39.7144 15.0659 39.6988 15.0478C39.6872 15.0325 39.6746 15.018 39.6609 15.0046C39.9501 15.3506 40.1204 15.7791 40.147 16.2278C40.1649 16.6487 40.151 17.0696 40.151 17.4923C40.1557 17.0459 40.1773 16.5975 40.1456 16.151ZM40.1555 17.8305C40.1555 17.915 40.1555 18.0017 40.1575 18.0882C40.1612 18.051 40.1619 18.0135 40.1595 17.9762C40.1575 17.927 40.1555 17.8797 40.1555 17.8305ZM40.1535 17.5985H40.1515C40.1515 17.6752 40.1535 17.7519 40.1555 17.8305C40.1535 17.7519 40.1535 17.6752 40.1535 17.5985ZM39.0662 14.4676C39.0563 14.4597 39.0464 14.4539 39.0344 14.446C38.9908 14.4165 38.9471 14.389 38.9015 14.3634C38.8778 14.3477 38.8519 14.3339 38.8261 14.3201C38.7785 14.2927 38.7289 14.2671 38.6773 14.2435C38.6646 14.2364 38.6514 14.2304 38.6376 14.2257C38.5741 14.1943 38.5087 14.1668 38.4412 14.1412C38.4015 14.1255 38.3598 14.1118 38.318 14.098C38.2525 14.0745 38.1831 14.0547 38.1136 14.0369C38.0779 14.0271 38.0442 14.0192 38.0085 14.0114C37.9212 13.9917 37.8319 13.9739 37.7426 13.9622C37.6752 13.9524 37.6077 13.9465 37.5382 13.9406C38.0968 13.9899 38.6336 14.1793 39.0978 14.4912C39.0879 14.4826 39.0772 14.4748 39.0662 14.4676ZM37.2429 13.9288C37.2263 13.9291 37.2097 13.9304 37.1933 13.9327C37.229 13.9307 37.2628 13.9307 37.2965 13.9307C37.2786 13.9291 37.2609 13.9284 37.2429 13.9288ZM35.3242 20.6233C35.8359 21.012 36.456 21.2352 37.1001 21.2625C36.4576 21.2271 35.84 21.0048 35.3242 20.6233ZM34.3897 18.9831C34.3897 19.0027 34.3897 19.0243 34.3916 19.0441C34.3936 19.0776 34.3976 19.109 34.4016 19.1424C34.4117 19.2308 34.4289 19.3183 34.4532 19.404C34.4591 19.4296 34.467 19.4532 34.4749 19.4788C34.4809 19.4965 34.4849 19.5122 34.4909 19.528C34.5008 19.5574 34.5127 19.5849 34.5246 19.6144C34.5357 19.6454 34.549 19.6757 34.5643 19.7049C34.5741 19.7301 34.5861 19.7544 34.6 19.7776C34.6239 19.8285 34.6511 19.8777 34.6813 19.9251C34.7092 19.9726 34.7397 20.0186 34.7726 20.0629C34.8064 20.112 34.8441 20.1593 34.8815 20.2044L34.8874 20.2103C34.9002 20.227 34.9141 20.2428 34.9291 20.2576L34.945 20.2732C34.6183 19.9176 34.4227 19.4629 34.3897 18.9831ZM34.3837 17.5966C34.3837 17.4354 34.3817 17.2721 34.3797 17.1109C34.3753 17.1467 34.374 17.1828 34.3758 17.2188C34.3797 17.2995 34.3817 17.3781 34.3797 17.4548C34.3817 17.557 34.3837 17.6633 34.3837 17.7655C34.3857 17.7086 34.3857 17.6534 34.3857 17.5965L34.3837 17.5966ZM34.3797 18.4521C34.3797 18.2299 34.3837 18.0096 34.3837 17.7874C34.3797 18.1689 34.3658 18.5544 34.3877 18.9359C34.3815 18.7746 34.3797 18.6135 34.3797 18.4521ZM40.1456 16.151C40.142 16.095 40.1354 16.0392 40.1257 15.9838C40.126 15.9792 40.1254 15.9745 40.1237 15.9701C40.1178 15.9309 40.1079 15.8896 40.098 15.8502C40.0864 15.7961 40.0712 15.7429 40.0523 15.6909C40.0464 15.6712 40.0404 15.6533 40.0325 15.6338C40.0219 15.6016 40.0093 15.5701 39.9946 15.5394C39.9827 15.5119 39.9709 15.4843 39.9567 15.4569C39.9349 15.4135 39.913 15.3703 39.8892 15.327C39.8734 15.2996 39.8575 15.272 39.8396 15.2463C39.8276 15.2242 39.8137 15.2032 39.798 15.1834C39.7801 15.1559 39.7623 15.1303 39.7424 15.1048C39.729 15.085 39.7144 15.0659 39.6988 15.0478C39.6872 15.0325 39.6746 15.018 39.6609 15.0046C39.9501 15.3506 40.1204 15.7791 40.147 16.2278C40.1649 16.6487 40.151 17.0696 40.151 17.4923C40.1557 17.0459 40.1773 16.5975 40.1456 16.151ZM40.1555 17.8305C40.1555 17.915 40.1555 18.0017 40.1575 18.0882C40.1612 18.051 40.1619 18.0135 40.1595 17.9762C40.1575 17.927 40.1555 17.8797 40.1555 17.8305ZM40.1535 17.5985H40.1515C40.1515 17.6752 40.1535 17.7519 40.1555 17.8305C40.1535 17.7519 40.1535 17.6752 40.1535 17.5985ZM39.0662 14.4676C39.0563 14.4597 39.0464 14.4539 39.0344 14.446C38.9908 14.4165 38.9471 14.389 38.9015 14.3634C38.8778 14.3477 38.8519 14.3339 38.8261 14.3201C38.7785 14.2927 38.7289 14.2671 38.6773 14.2435C38.6646 14.2364 38.6514 14.2304 38.6376 14.2257C38.5741 14.1943 38.5087 14.1668 38.4412 14.1412C38.4015 14.1255 38.3598 14.1118 38.318 14.098C38.2525 14.0745 38.1831 14.0547 38.1136 14.0369C38.0779 14.0271 38.0442 14.0192 38.0085 14.0114C37.9212 13.9917 37.8319 13.9739 37.7426 13.9622C37.6752 13.9524 37.6077 13.9465 37.5382 13.9406C38.0968 13.9899 38.6336 14.1793 39.0978 14.4912C39.0879 14.4826 39.0772 14.4748 39.0662 14.4676ZM37.2429 13.9288C37.2263 13.9291 37.2097 13.9304 37.1933 13.9327C37.229 13.9307 37.2628 13.9307 37.2965 13.9307C37.2786 13.9291 37.2609 13.9284 37.2429 13.9288ZM35.3242 20.6233C35.8359 21.012 36.456 21.2352 37.1001 21.2625C36.4576 21.2271 35.84 21.0048 35.3242 20.6233ZM34.3897 18.9831C34.3897 19.0027 34.3897 19.0243 34.3916 19.0441C34.3936 19.0776 34.3976 19.109 34.4016 19.1424C34.4117 19.2308 34.4289 19.3183 34.4532 19.404C34.4591 19.4296 34.467 19.4532 34.4749 19.4788C34.4809 19.4965 34.4849 19.5122 34.4909 19.528C34.5008 19.5574 34.5127 19.5849 34.5246 19.6144C34.5357 19.6454 34.549 19.6757 34.5643 19.7049C34.5741 19.7301 34.5861 19.7544 34.6 19.7776C34.6239 19.8285 34.6511 19.8777 34.6813 19.9251C34.7092 19.9726 34.7397 20.0186 34.7726 20.0629C34.8064 20.112 34.8441 20.1593 34.8815 20.2044L34.8874 20.2103C34.9002 20.227 34.9141 20.2428 34.9291 20.2576L34.945 20.2732C34.6183 19.9176 34.4227 19.4629 34.3897 18.9831ZM34.3837 17.5966C34.3837 17.4354 34.3817 17.2721 34.3797 17.1109C34.3753 17.1467 34.374 17.1828 34.3758 17.2188C34.3797 17.2995 34.3817 17.3781 34.3797 17.4548C34.3817 17.557 34.3837 17.6633 34.3837 17.7655C34.3857 17.7086 34.3857 17.6534 34.3857 17.5965L34.3837 17.5966ZM34.3797 18.4521C34.3797 18.2299 34.3837 18.0096 34.3837 17.7874C34.3797 18.1689 34.3658 18.5544 34.3877 18.9359C34.3815 18.7746 34.3797 18.6135 34.3797 18.4521ZM40.1456 16.151C40.142 16.095 40.1354 16.0392 40.1257 15.9838C40.126 15.9792 40.1254 15.9745 40.1237 15.9701C40.1178 15.9309 40.1079 15.8896 40.098 15.8502C40.0864 15.7961 40.0712 15.7429 40.0523 15.6909C40.0464 15.6712 40.0404 15.6533 40.0325 15.6338C40.0219 15.6016 40.0093 15.5701 39.9946 15.5394C39.9827 15.5119 39.9709 15.4843 39.9567 15.4569C39.9349 15.4135 39.913 15.3703 39.8892 15.327C39.8734 15.2996 39.8575 15.272 39.8396 15.2463C39.8276 15.2242 39.8137 15.2032 39.798 15.1834C39.7801 15.1559 39.7623 15.1303 39.7424 15.1048C39.729 15.085 39.7144 15.0659 39.6988 15.0478C39.6872 15.0325 39.6746 15.018 39.6609 15.0046C39.9501 15.3506 40.1204 15.7791 40.147 16.2278C40.1649 16.6487 40.151 17.0696 40.151 17.4923C40.1557 17.0459 40.1773 16.5975 40.1456 16.151ZM40.1555 17.8305C40.1555 17.915 40.1555 18.0017 40.1575 18.0882C40.1612 18.051 40.1619 18.0135 40.1595 17.9762C40.1575 17.927 40.1555 17.8797 40.1555 17.8305ZM40.1535 17.5985H40.1515C40.1515 17.6752 40.1535 17.7519 40.1555 17.8305C40.1535 17.7519 40.1535 17.6752 40.1535 17.5985ZM39.0662 14.4676C39.0563 14.4597 39.0464 14.4539 39.0344 14.446C38.9908 14.4165 38.9471 14.389 38.9015 14.3634C38.8778 14.3477 38.8519 14.3339 38.8261 14.3201C38.7785 14.2927 38.7289 14.2671 38.6773 14.2435C38.6646 14.2364 38.6514 14.2304 38.6376 14.2257C38.5741 14.1943 38.5087 14.1668 38.4412 14.1412C38.4015 14.1255 38.3598 14.1118 38.318 14.098C38.2525 14.0745 38.1831 14.0547 38.1136 14.0369C38.0779 14.0271 38.0442 14.0192 38.0085 14.0114C37.9212 13.9917 37.8319 13.9739 37.7426 13.9622C37.6752 13.9524 37.6077 13.9465 37.5382 13.9406C38.0968 13.9899 38.6336 14.1793 39.0978 14.4912C39.0879 14.4826 39.0772 14.4748 39.0662 14.4676ZM37.2429 13.9288C37.2263 13.9291 37.2097 13.9304 37.1933 13.9327C37.229 13.9307 37.2628 13.9307 37.2965 13.9307C37.2786 13.9291 37.2609 13.9284 37.2429 13.9288ZM35.3242 20.6233C35.8359 21.012 36.456 21.2352 37.1001 21.2625C36.4576 21.2271 35.84 21.0048 35.3242 20.6233ZM34.3897 18.9831C34.3897 19.0027 34.3897 19.0243 34.3916 19.0441C34.3936 19.0776 34.3976 19.109 34.4016 19.1424C34.4117 19.2308 34.4289 19.3183 34.4532 19.404C34.4591 19.4296 34.467 19.4532 34.4749 19.4788C34.4809 19.4965 34.4849 19.5122 34.4909 19.528C34.5008 19.5574 34.5127 19.5849 34.5246 19.6144C34.5357 19.6454 34.549 19.6757 34.5643 19.7049C34.5741 19.7301 34.5861 19.7544 34.6 19.7776C34.6239 19.8285 34.6511 19.8777 34.6813 19.9251C34.7092 19.9726 34.7397 20.0186 34.7726 20.0629C34.8064 20.112 34.8441 20.1593 34.8815 20.2044L34.8874 20.2103C34.9002 20.227 34.9141 20.2428 34.9291 20.2576L34.945 20.2732C34.6183 19.9176 34.4227 19.4629 34.3897 18.9831ZM34.3837 17.5966C34.3837 17.4354 34.3817 17.2721 34.3797 17.1109C34.3753 17.1467 34.374 17.1828 34.3758 17.2188C34.3797 17.2995 34.3817 17.3781 34.3797 17.4548C34.3817 17.557 34.3837 17.6633 34.3837 17.7655C34.3857 17.7086 34.3857 17.6534 34.3857 17.5965L34.3837 17.5966ZM34.3797 18.4521C34.3797 18.2299 34.3837 18.0096 34.3837 17.7874C34.3797 18.1689 34.3658 18.5544 34.3877 18.9359C34.3815 18.7746 34.3797 18.6135 34.3797 18.4521Z" fill="#3A86FF"/>
<path d="M27.6258 12.4905C27.6258 4.89729 21.0899 1.67986 11.7246 0.521489V5.96727L9.49036 4.82664L7.25616 5.96727V0.126117C5.24819 0.0101293 3.15289 -0.0390625 0.996115 -0.0390625V21.0686C0.989738 25.1277 2.43139 29.0583 5.06624 32.1656C7.70109 35.273 11.3595 37.357 15.3947 38.0493C22.7537 39.2926 27.6278 41.965 27.6278 47.2256C27.6278 41.7905 32.8296 39.1183 40.6001 37.9303C44.4147 37.3317 47.8878 35.4014 50.3926 32.4877C52.8974 29.574 54.2688 25.8687 54.2595 22.0408V-0.0390625C39.5507 -0.0390625 27.6258 2.23441 27.6258 12.4905ZM15.9866 24.0348C13.0738 23.722 10.6333 21.3877 10.7801 18.8506C10.8396 17.8496 10.7662 16.8447 10.8118 15.8398C10.9289 13.1494 13.5322 11.0765 16.7902 11.0587C20.2586 11.0411 22.8796 13.1612 22.959 16.062C22.9709 16.5653 22.961 17.0689 22.961 17.7218C22.9133 18.6461 23.0423 19.7298 22.5919 20.7898C21.6633 22.9885 18.7744 24.3377 15.9866 24.0348ZM34.1259 31.1816C33.3585 32.1658 32.3738 32.9625 31.2473 33.5107C30.1209 34.0589 28.8827 34.3439 27.6277 34.3439C26.3728 34.3439 25.1346 34.0589 24.0081 33.5107C22.8817 32.9625 21.897 32.1658 21.1296 31.1816C20.9866 30.9956 20.899 30.7737 20.8766 30.541C20.8542 30.3082 20.8978 30.0739 21.0027 29.8645C21.1075 29.6551 21.2693 29.4789 21.4698 29.3558C21.6704 29.2327 21.9016 29.1676 22.1375 29.1679H33.116C33.3519 29.1677 33.5831 29.2328 33.7837 29.3558C33.9842 29.4788 34.1461 29.655 34.2511 29.8643C34.3561 30.0736 34.4 30.3079 34.3779 30.5406C34.3558 30.7734 34.2685 30.9954 34.1259 31.1816ZM44.0032 20.776C43.0371 23.1262 40.2412 24.4104 37.3324 24.0406C36.3636 23.959 35.4298 23.6426 34.6133 23.1193C33.7967 22.596 33.1225 21.8818 32.6498 21.0396C32.364 20.572 32.2067 20.0384 32.1934 19.4919C32.2034 18.8703 32.1974 18.2469 32.1974 17.3167C32.253 16.6481 32.0427 15.6667 32.4157 14.6991C33.124 12.8524 34.5666 11.6115 36.8384 11.1846C39.9735 10.5927 42.789 11.8612 44.0093 14.3018C44.1405 14.5767 44.2224 14.8721 44.2513 15.1749C44.4497 17.0551 44.7453 18.9765 44.0032 20.776Z" fill="#3A86FF"/>
<path d="M11.7223 0.522325V5.96811L9.48811 4.82748L7.25391 5.96811V0.126953C8.80161 0.215481 10.2957 0.345316 11.7223 0.522325Z" fill="white"/>
<path d="M40.1548 17.8305C40.1548 17.915 40.1548 18.0017 40.1567 18.0882C40.1605 18.0509 40.1611 18.0135 40.1587 17.9761C40.1566 17.9269 40.1548 17.8797 40.1548 17.8305ZM39.0655 14.4675C39.0556 14.4596 39.0457 14.4538 39.0337 14.4459C38.9901 14.4165 38.9465 14.3889 38.9008 14.3633C38.8771 14.3476 38.8512 14.3339 38.8254 14.3201C38.7778 14.2926 38.7282 14.267 38.6766 14.2434C38.664 14.2363 38.6507 14.2304 38.6369 14.2257C38.5735 14.1943 38.508 14.1667 38.4405 14.1412C38.4008 14.1254 38.3591 14.1117 38.3174 14.0979C38.2519 14.0744 38.1824 14.0547 38.113 14.0369C38.0773 14.0271 38.0435 14.0192 38.0078 14.0113C37.9205 13.9916 37.8312 13.9738 37.7419 13.9621C37.6745 13.9523 37.605 13.9445 37.5376 13.9405C38.0962 13.9898 38.6329 14.1793 39.0971 14.4911C39.0871 14.4826 39.0766 14.4747 39.0655 14.4675ZM37.2422 13.9287C37.2256 13.929 37.2091 13.9303 37.1926 13.9327C37.2284 13.9306 37.2621 13.9306 37.2958 13.9306C37.2779 13.9291 37.2603 13.9284 37.2422 13.9287ZM34.9446 20.2731C34.6179 19.9175 34.4221 19.4628 34.389 18.983C34.389 19.0026 34.389 19.0242 34.391 19.044C34.393 19.0775 34.3969 19.1089 34.4009 19.1423C34.411 19.2308 34.4282 19.3182 34.4525 19.4039C34.4584 19.4296 34.4664 19.4531 34.4743 19.4787C34.4802 19.4964 34.4842 19.5121 34.4902 19.5279C34.5001 19.5574 34.512 19.5848 34.5239 19.6143C34.5351 19.6453 34.5483 19.6756 34.5636 19.7049C34.5735 19.73 34.5854 19.7543 34.5993 19.7776C34.6233 19.8284 34.6504 19.8776 34.6807 19.9251C34.7085 19.9726 34.739 20.0185 34.7719 20.0628C34.8057 20.1119 34.8434 20.1592 34.8808 20.2043L34.8868 20.2103C34.8995 20.2269 34.9134 20.2427 34.9284 20.2575C34.9424 20.2732 34.9542 20.2889 34.9701 20.3047C34.984 20.3204 34.9999 20.3361 35.0157 20.3516C34.9918 20.3262 34.9684 20.2987 34.9446 20.2731ZM34.379 18.4519C34.379 18.2296 34.383 18.0094 34.383 17.7872C34.379 18.1687 34.3652 18.5541 34.387 18.9356C34.3806 18.7746 34.379 18.6132 34.379 18.4519Z" fill="#F7F9FC"/>
<path d="M44.2513 15.1754C44.2224 14.8727 44.1405 14.5772 44.0093 14.3023C42.789 11.8617 39.9735 10.5933 36.8385 11.1852C34.5666 11.612 33.124 12.8529 32.4157 14.6996C32.0427 15.6672 32.253 16.6486 32.1974 17.3173C32.1974 18.2475 32.2034 18.8709 32.1935 19.4924C32.2067 20.0389 32.3641 20.5725 32.6499 21.0401C33.1225 21.8823 33.7968 22.5966 34.6133 23.1199C35.4299 23.6432 36.3637 23.9596 37.3326 24.0412C40.2413 24.4109 43.037 23.1267 44.0033 20.7766C44.7454 18.9769 44.4498 17.0555 44.2513 15.1754ZM40.154 17.5983C40.154 17.675 40.154 17.7517 40.156 17.8303C40.156 17.8795 40.158 17.9268 40.16 17.9759C40.1624 18.0132 40.1617 18.0507 40.158 18.0879C40.1361 18.3062 39.9993 18.3613 39.6659 18.381C38.0865 18.4832 37.388 19.6023 38.1758 20.7645C38.3703 21.0555 38.3107 21.1067 37.9595 21.1893C37.9099 21.2011 37.8603 21.2109 37.8107 21.2188C37.7813 21.2254 37.7515 21.23 37.7214 21.2326C37.674 21.2405 37.6282 21.2464 37.5806 21.2503C37.4652 21.2624 37.3493 21.2677 37.2333 21.266C37.1936 21.266 37.1539 21.264 37.1123 21.2621H37.1004C36.4562 21.2348 35.8362 21.0117 35.3244 20.623C35.2914 20.5997 35.2596 20.5748 35.2292 20.5481C35.1835 20.5089 35.136 20.4695 35.0923 20.4261C35.0665 20.4005 35.0407 20.377 35.0168 20.3513C35.001 20.3357 34.9851 20.3199 34.9712 20.3043C34.9554 20.2886 34.9435 20.2728 34.9296 20.2572C34.9146 20.2424 34.9006 20.2266 34.8879 20.2099L34.882 20.204C34.8428 20.159 34.8065 20.1117 34.773 20.0625C34.7401 20.0182 34.7097 19.9723 34.6818 19.9247C34.6516 19.8773 34.6244 19.8281 34.6005 19.7773C34.5866 19.754 34.5746 19.7297 34.5647 19.7045C34.5495 19.6753 34.5362 19.645 34.525 19.614C34.5131 19.5845 34.5014 19.5571 34.4913 19.5276C34.4853 19.5118 34.4814 19.4961 34.4754 19.4784C34.4675 19.4528 34.4595 19.4293 34.4536 19.4036C34.4294 19.3179 34.4121 19.2304 34.402 19.142C34.3981 19.1086 34.3941 19.0772 34.3921 19.0437C34.3901 19.024 34.3901 19.0024 34.3901 18.9827C34.3875 18.9672 34.3868 18.9514 34.3881 18.9357C34.3663 18.5542 34.3802 18.1688 34.3841 17.7873C34.3851 17.78 34.3851 17.7727 34.3841 17.7655C34.3841 17.6633 34.3822 17.5571 34.3802 17.4549C34.3822 17.3782 34.3802 17.2995 34.3762 17.2189C34.3744 17.1828 34.3758 17.1467 34.3802 17.1109C34.3782 16.8296 34.3762 16.5504 34.3861 16.2711C34.4258 15.0773 35.5231 14.0978 36.9198 13.9485H36.9237C37.0289 13.9367 37.1361 13.9308 37.2432 13.9288C37.2611 13.9285 37.2789 13.9292 37.2967 13.9308C37.3318 13.9295 37.3669 13.9301 37.4019 13.9328C37.4475 13.9347 37.4932 13.9367 37.5388 13.9407C37.6063 13.9446 37.6758 13.9524 37.7432 13.9622C37.8325 13.9741 37.9218 13.9917 38.0091 14.0114C38.0448 14.0193 38.0785 14.0272 38.1142 14.037C38.1837 14.0547 38.2531 14.0745 38.3186 14.098C38.3603 14.1118 38.4019 14.1256 38.4418 14.1413C38.5093 14.1669 38.5747 14.1944 38.6382 14.2258C38.652 14.2305 38.6652 14.2364 38.6779 14.2435C38.7295 14.2671 38.7791 14.2927 38.8267 14.3202C38.8525 14.334 38.8783 14.3477 38.9021 14.3634C38.9477 14.389 38.9914 14.4166 39.035 14.4461C39.047 14.4539 39.0569 14.4598 39.0668 14.4676C39.0972 14.4869 39.1263 14.5079 39.1541 14.5306C39.1739 14.5444 39.192 14.5581 39.2116 14.5719C39.2453 14.5958 39.2778 14.6214 39.3088 14.6485C39.3366 14.672 39.3644 14.6958 39.3902 14.7194C39.4103 14.7361 39.4295 14.7538 39.4477 14.7725C39.477 14.7985 39.5048 14.8261 39.531 14.8551C39.5609 14.8866 39.5906 14.92 39.6204 14.9535C39.6342 14.9692 39.6482 14.9869 39.662 15.0046C39.6757 15.0181 39.6884 15.0326 39.6999 15.0479C39.7156 15.066 39.7302 15.085 39.7436 15.1049C39.7634 15.1304 39.7815 15.156 39.7991 15.1835C39.8148 15.2033 39.8288 15.2243 39.8408 15.2464C39.8587 15.2721 39.8745 15.2996 39.8904 15.3271C39.9141 15.3704 39.9361 15.4136 39.9579 15.4569C39.9718 15.4844 39.9836 15.512 39.9958 15.5395C40.0104 15.5701 40.0231 15.6017 40.0337 15.6339C40.0416 15.6536 40.0475 15.6715 40.0535 15.6909C40.0724 15.7429 40.0876 15.7962 40.0991 15.8502C40.1107 15.8895 40.1194 15.9296 40.1249 15.9702C40.1265 15.9746 40.1272 15.9793 40.1269 15.9839C40.1365 16.0393 40.1432 16.0951 40.1467 16.1511C40.1785 16.5976 40.1567 17.046 40.1527 17.4924V17.5986L40.154 17.5983Z" fill="white"/>
<path d="M20.6873 17.5999V17.7159C20.6774 17.8163 20.6734 17.9185 20.6734 18.0247C20.6971 17.8844 20.7018 17.7415 20.6873 17.5999ZM19.2389 14.2568C19.5155 14.3907 19.7698 14.5658 19.9929 14.776C19.7725 14.5625 19.5177 14.387 19.2389 14.2568ZM17.2269 21.1949C17.2048 21.1929 17.1829 21.189 17.1614 21.1832C17.09 21.1714 17.0225 21.1556 16.9531 21.1399C16.9929 21.1518 17.0333 21.1616 17.0741 21.1693C17.1118 21.1792 17.1515 21.187 17.1912 21.1949C17.2744 21.211 17.3585 21.2222 17.4431 21.2284C17.3698 21.2205 17.2983 21.2086 17.2269 21.1949ZM14.9352 19.071C14.9035 18.715 14.9233 18.3511 14.9252 17.9913C14.9272 17.8479 14.9114 17.6984 14.9016 17.5529C14.8996 18.0819 14.8857 18.5166 14.9036 18.9531C14.922 19.3423 15.0535 19.7179 15.2824 20.0347C15.0852 19.7483 14.9656 19.4164 14.9352 19.071Z" fill="#F7F9FC"/>
<path d="M22.9586 16.062C22.8792 13.1611 20.2582 11.0411 16.7898 11.0587C13.5316 11.0765 10.9285 13.1493 10.8115 15.8398C10.7658 16.8447 10.8393 17.8496 10.7797 18.8506C10.6329 21.3877 13.0734 23.722 15.9862 24.0348C18.774 24.3377 21.663 22.9885 22.5915 20.7898C23.042 19.7297 22.913 18.6461 22.9606 17.7218C22.9606 17.0689 22.9705 16.5653 22.9586 16.062ZM20.6748 18.0247C20.6632 18.0843 20.6446 18.1424 20.6193 18.1977C20.4605 18.534 19.9367 18.3256 19.5875 18.4298C18.5219 18.7504 18.0081 19.7947 18.6232 20.654C18.9327 21.0906 18.7204 21.1438 18.3017 21.2106C18.1855 21.2292 18.0682 21.2411 17.9506 21.246C17.8422 21.2522 17.7335 21.2516 17.6251 21.244C17.5954 21.2421 17.5636 21.2402 17.5339 21.2381C17.5039 21.2368 17.4741 21.2335 17.4445 21.2284C17.36 21.2221 17.2758 21.211 17.1926 21.1949C17.1529 21.187 17.1132 21.1792 17.0755 21.1693C17.0347 21.1616 16.9943 21.1517 16.9545 21.1398C16.9436 21.1383 16.933 21.1357 16.9227 21.132C16.8811 21.1201 16.8394 21.1085 16.7996 21.0965C16.7321 21.0769 16.6647 21.0533 16.5992 21.0278C16.5099 20.9943 16.4206 20.955 16.3353 20.9137C16.2956 20.894 16.2579 20.8743 16.2202 20.8547C16.1263 20.8062 16.036 20.751 15.9502 20.6895C15.865 20.6285 15.7836 20.5656 15.7062 20.5007C15.6446 20.4475 15.5851 20.3905 15.5295 20.3335C15.4997 20.3053 15.4718 20.2751 15.4462 20.243C15.4105 20.2017 15.3767 20.1604 15.345 20.1192C15.3232 20.0916 15.3034 20.0621 15.2835 20.0347C15.0546 19.7179 14.923 19.3422 14.9046 18.953C14.8867 18.5165 14.9006 18.0818 14.9026 17.5528C14.8891 17.4204 14.8938 17.2867 14.9165 17.1555V17.1536C14.8496 16.5933 14.9078 16.0253 15.087 15.4898C15.3228 15.0199 15.6865 14.6248 16.1371 14.3491C16.5877 14.0735 17.1072 13.9284 17.6367 13.9302C17.7444 13.9249 17.8524 13.9256 17.9601 13.9322C17.9998 13.9341 18.0395 13.9381 18.0791 13.9401C18.1009 13.942 18.1228 13.946 18.1446 13.948C18.2461 13.956 18.3469 13.9711 18.4462 13.9932C18.5326 14.0086 18.618 14.0289 18.702 14.0542C18.7615 14.07 18.8191 14.0895 18.8766 14.1092C18.9044 14.1191 18.9321 14.1289 18.9599 14.1387C19.0552 14.1733 19.1485 14.2127 19.2397 14.2567C19.5185 14.3869 19.7733 14.5624 19.9937 14.7759C20.0234 14.8054 20.0532 14.8349 20.083 14.8664C20.1167 14.9017 20.1484 14.9372 20.1782 14.9744C20.202 15.0019 20.2238 15.0294 20.2437 15.0569C20.2615 15.0787 20.2794 15.1002 20.2953 15.1239C20.3666 15.2193 20.4285 15.3214 20.48 15.4287C20.5316 15.5347 20.5748 15.6445 20.6089 15.7573C20.6312 15.8327 20.6485 15.9095 20.6605 15.9873C20.6741 16.066 20.6827 16.1454 20.6863 16.2252C20.7022 16.6539 20.6903 17.0826 20.6883 17.5999C20.7029 17.7414 20.6983 17.8843 20.6748 18.0247Z" fill="white"/>
<path d="M40.1566 18.0877C40.1348 18.306 39.9979 18.3611 39.6646 18.3808C38.0851 18.483 37.3866 19.6021 38.1744 20.7643C38.3689 21.0553 38.3094 21.1065 37.9582 21.1892C37.9085 21.2009 37.8589 21.2107 37.8094 21.2186C37.7799 21.2252 37.7501 21.2298 37.72 21.2324C37.6727 21.2403 37.6268 21.2462 37.5792 21.2501C37.4639 21.2622 37.3479 21.2675 37.232 21.2658C37.1922 21.2658 37.1526 21.2638 37.1109 21.262H37.099C36.4565 21.2265 35.8388 21.0042 35.3231 20.6228C35.2913 20.5993 35.2596 20.5736 35.2278 20.548C35.1822 20.5087 35.1346 20.4693 35.0909 20.4259C35.0651 20.4003 35.0393 20.3768 35.0155 20.3511C34.9916 20.3254 34.9681 20.2981 34.9441 20.2725C34.6174 19.9169 34.4216 19.4622 34.3885 18.9823C34.3859 18.9668 34.3852 18.9511 34.3865 18.9354C34.3806 18.7742 34.3786 18.6129 34.3786 18.4516C34.3786 18.2294 34.3825 18.0091 34.3825 17.7869C34.3835 17.7797 34.3835 17.7724 34.3825 17.7652C34.3845 17.7083 34.3845 17.6531 34.3845 17.5962H34.3825C34.3825 17.435 34.3806 17.2717 34.3786 17.1105C34.3766 16.8292 34.3746 16.55 34.3845 16.2706C34.4242 15.0769 35.5215 14.0973 36.9182 13.9481H36.9221C37.0114 13.9382 37.1007 13.934 37.192 13.9323C37.2278 13.9303 37.2615 13.9303 37.2952 13.9303C37.3303 13.929 37.3654 13.9297 37.4004 13.9323C37.446 13.9343 37.4917 13.9363 37.5373 13.9402C38.0959 13.9895 38.6327 14.179 39.0969 14.4908C39.1147 14.5027 39.1348 14.5164 39.1524 14.5302C39.1723 14.544 39.1903 14.5577 39.21 14.5715C39.2437 14.5954 39.2761 14.621 39.3072 14.6481C39.335 14.6716 39.3628 14.6954 39.3886 14.719C39.4087 14.7357 39.4279 14.7534 39.4461 14.7721L39.5294 14.8547C39.5592 14.8862 39.589 14.9196 39.6187 14.953C39.6326 14.9688 39.6465 14.9865 39.6604 15.0042C39.9496 15.3503 40.1199 15.7788 40.1465 16.2274C40.1644 16.6483 40.1505 17.0692 40.1505 17.492V17.5981C40.1505 17.6748 40.1525 17.7516 40.1545 17.8302C40.1548 17.9147 40.1548 18.0012 40.1566 18.0877Z" fill="#4A4E69"/>
<path d="M34.3871 18.9356C34.3651 18.5541 34.3791 18.1686 34.3831 17.7871C34.3831 18.0093 34.3791 18.2296 34.3791 18.4518C34.3791 18.6131 34.3811 18.7743 34.3871 18.9356Z" fill="#4A4E69"/>
<path d="M35.0174 20.351C35.0015 20.3354 34.9856 20.3196 34.9718 20.3041C34.9559 20.2883 34.944 20.2726 34.9301 20.2569C34.9151 20.2422 34.9012 20.2264 34.8884 20.2097L34.8825 20.2037C34.8446 20.1586 34.8071 20.1114 34.7736 20.0622C34.7406 20.018 34.7102 19.972 34.6823 19.9245C34.6521 19.8771 34.6249 19.8278 34.601 19.777C34.5871 19.7538 34.5751 19.7295 34.5652 19.7043C34.55 19.675 34.5367 19.6448 34.5255 19.6138C34.5137 19.5843 34.5019 19.5568 34.4918 19.5273C34.4859 19.5116 34.4819 19.4958 34.4759 19.4781C34.468 19.4525 34.4601 19.429 34.4541 19.4033C34.4299 19.3177 34.4126 19.2302 34.4026 19.1418C34.3986 19.1084 34.3946 19.077 34.3926 19.0434C34.3906 19.0237 34.3906 19.0021 34.3906 18.9824C34.4237 19.4623 34.6195 19.9169 34.9462 20.2725C34.9698 20.298 34.9936 20.3255 35.0174 20.351Z" fill="#4A4E69"/>
<path d="M37.2946 13.9307C37.2609 13.9307 37.2272 13.9307 37.1914 13.9327C37.2079 13.9304 37.2244 13.9291 37.241 13.9288C37.2589 13.9285 37.2768 13.9291 37.2946 13.9307Z" fill="#4A4E69"/>
<path d="M39.0986 14.491C38.6344 14.1792 38.0977 13.9897 37.5391 13.9404C37.6065 13.9444 37.676 13.9522 37.7434 13.962C37.8327 13.9739 37.922 13.9915 38.0093 14.0112C38.045 14.0191 38.0788 14.0269 38.1145 14.0367C38.1839 14.0545 38.2534 14.0743 38.3189 14.0978C38.3605 14.1116 38.4022 14.1253 38.442 14.141C38.5095 14.1666 38.575 14.1942 38.6384 14.2255C38.6522 14.2302 38.6655 14.2362 38.6781 14.2433C38.7297 14.2669 38.7793 14.2924 38.8269 14.3199C38.8527 14.3337 38.8785 14.3475 38.9023 14.3632C38.948 14.3888 38.9916 14.4164 39.0352 14.4458C39.0472 14.4537 39.0571 14.4595 39.067 14.4674C39.0781 14.4745 39.0886 14.4824 39.0986 14.491Z" fill="#4A4E69"/>
<path d="M40.1603 17.9757C40.1627 18.013 40.162 18.0505 40.1583 18.0877C40.1562 18.0012 40.1563 17.9147 40.1563 17.8301C40.1564 17.8793 40.1583 17.9265 40.1603 17.9757Z" fill="#4A4E69"/>
<path d="M20.6879 17.6008V17.7167C20.678 17.8171 20.674 17.9194 20.674 18.0256C20.6624 18.0852 20.6437 18.1433 20.6184 18.1986C20.4597 18.5349 19.9359 18.3264 19.5866 18.4307C18.5211 18.7512 18.0072 19.7956 18.6223 20.6549C18.9319 21.0915 18.7196 21.1446 18.3009 21.2115C18.1846 21.2301 18.0674 21.242 17.9497 21.2469C17.8413 21.2531 17.7326 21.2525 17.6243 21.2449C17.5945 21.243 17.5627 21.2411 17.533 21.239C17.5031 21.2377 17.4732 21.2344 17.4437 21.2293C17.3703 21.2214 17.2989 21.2096 17.2275 21.1958C17.2053 21.1938 17.1834 21.1898 17.162 21.184C17.0905 21.1722 17.0231 21.1565 16.9536 21.1407C16.9427 21.1392 16.9321 21.1366 16.9218 21.1329C16.8802 21.121 16.8385 21.1094 16.7987 21.0974C16.7312 21.0758 16.6638 21.0542 16.5983 21.0287C16.509 20.9952 16.4197 20.9559 16.3344 20.9146C16.2947 20.8949 16.257 20.8752 16.2193 20.8556C16.126 20.8044 16.0367 20.7494 15.9493 20.6904C15.8641 20.6294 15.7827 20.5664 15.7053 20.5016C15.6437 20.4484 15.5842 20.3914 15.5286 20.3344C15.5009 20.3049 15.4731 20.2754 15.4453 20.2439C15.4096 20.2026 15.3758 20.1613 15.3441 20.12C15.3223 20.0925 15.3025 20.063 15.2826 20.0356C15.0854 19.7492 14.9658 19.4173 14.9353 19.0719C14.9036 18.7159 14.9235 18.3521 14.9254 17.9923C14.9274 17.8489 14.9116 17.6994 14.9017 17.5539V17.4614C14.9117 17.3631 14.9156 17.2608 14.9156 17.1565V17.1546C14.8487 16.5943 14.9069 16.0263 15.0861 15.4908C15.3219 15.0209 15.6856 14.6258 16.1362 14.3502C16.5868 14.0745 17.1063 13.9294 17.6358 13.9312C17.7435 13.926 17.8515 13.9266 17.9592 13.9332C17.9989 13.9352 18.0386 13.9391 18.0782 13.9411C18.1 13.943 18.1219 13.947 18.1437 13.949C18.2389 13.9588 18.3342 13.9745 18.4275 13.9922C18.5207 14.0098 18.6122 14.0297 18.7012 14.0552C18.7588 14.0729 18.8184 14.0905 18.8759 14.1102C18.9036 14.1201 18.9314 14.1299 18.9592 14.1397C19.0544 14.1743 19.1478 14.2136 19.239 14.2577C19.5156 14.3915 19.7699 14.5667 19.993 14.7769C20.0227 14.8064 20.0525 14.8359 20.0823 14.8674C20.116 14.9027 20.1477 14.9382 20.1775 14.9753C20.2013 15.0029 20.2231 15.0304 20.243 15.0579C20.4761 15.3624 20.6184 15.7255 20.6537 16.1062C20.6854 16.4642 20.6656 16.826 20.6637 17.1878C20.6641 17.3234 20.678 17.4631 20.6879 17.6008Z" fill="#4A4E69"/>
<path d="M15.2824 20.0346C15.0535 19.7178 14.922 19.3421 14.9036 18.9529C14.8857 18.5164 14.8996 18.0817 14.9016 17.5527C14.9115 17.6982 14.9273 17.8478 14.9252 17.9912C14.9233 18.3511 14.9035 18.715 14.9352 19.0708C14.9656 19.4163 15.0852 19.7481 15.2824 20.0346Z" fill="#4A4E69"/>
<path d="M17.4432 21.2292C17.3586 21.223 17.2745 21.2118 17.1912 21.1957C17.1516 21.1878 17.1118 21.18 17.0742 21.1701C17.0333 21.1624 16.9929 21.1526 16.9531 21.1406C17.0226 21.1564 17.09 21.1721 17.1615 21.184C17.1829 21.1898 17.2049 21.1937 17.227 21.1957C17.2984 21.2093 17.3698 21.2213 17.4432 21.2292Z" fill="#4A4E69"/>
<path d="M19.9942 14.776C19.7712 14.5658 19.5169 14.3907 19.2402 14.2568C19.519 14.387 19.7739 14.5625 19.9942 14.776Z" fill="#4A4E69"/>
<path d="M20.6758 18.0254C20.6758 17.9192 20.6798 17.8169 20.6898 17.7166V17.6006C20.7044 17.7422 20.6997 17.885 20.6758 18.0254Z" fill="#4A4E69"/>
<path d="M34.1262 31.1817C33.3588 32.1658 32.3741 32.9626 31.2476 33.5108C30.1211 34.059 28.8829 34.344 27.628 34.344C26.3731 34.344 25.1349 34.059 24.0084 33.5108C22.8819 32.9626 21.8972 32.1658 21.1298 31.1817C20.9869 30.9957 20.8992 30.7738 20.8768 30.5411C20.8544 30.3083 20.8981 30.074 21.0029 29.8646C21.1077 29.6551 21.2696 29.4789 21.4701 29.3558C21.6706 29.2327 21.9019 29.1677 22.1378 29.168H33.1163C33.3521 29.1678 33.5834 29.2328 33.7839 29.3559C33.9845 29.4789 34.1463 29.655 34.2513 29.8644C34.3563 30.0737 34.4002 30.3079 34.3781 30.5407C34.356 30.7734 34.2688 30.9954 34.1262 31.1817Z" fill="white"/>
</g>
</g>
<defs>
<clipPath id="clip0_77_92">
<rect x="-369" y="-71" width="892" height="800" rx="16" fill="white"/>
</clipPath>
<clipPath id="clip1_77_92">
<rect width="152" height="47" fill="white" transform="translate(0.5)"/>
</clipPath>
</defs>
</svg>
