<svg width="128" height="40" viewBox="0 0 128 40" fill="none" xmlns="http://www.w3.org/2000/svg">
<rect width="128" height="40" fill="#787878"/>
<path d="M-221 -389C-221 -390.105 -220.105 -391 -219 -391H19925C19926.1 -391 19927 -390.105 19927 -389V1583C19927 1584.1 19926.1 1585 19925 1585H-219C-220.105 1585 -221 1584.1 -221 1583V-389Z" fill="#3A3A3A"/>
<path d="M-219 -391V-390H19925V-391V-392H-219V-391ZM19927 -389H19926V1583H19927H19928V-389H19927ZM19925 1585V1584H-219V1585V1586H19925V1585ZM-221 1583H-220V-389H-221H-222V1583H-221ZM-219 1585V1584C-219.552 1584 -220 1583.55 -220 1583H-221H-222C-222 1584.66 -220.658 1586 -219 1586V1585ZM19927 1583H19926C19926 1583.55 19925.6 1584 19925 1584V1585V1586C19926.7 1586 19928 1584.66 19928 1583H19927ZM19925 -391V-390C19925.6 -390 19926 -389.553 19926 -389H19927H19928C19928 -390.657 19926.7 -392 19925 -392V-391ZM-219 -391V-392C-220.657 -392 -222 -390.657 -222 -389H-221H-220C-220 -389.552 -219.552 -390 -219 -390V-391Z" fill="white" fill-opacity="0.1"/>
<rect width="1440" height="1024" transform="translate(-31 -68)" fill="#F8F8F8"/>
<rect width="233" height="1024" transform="translate(-31 -68)" fill="white"/>
<g clip-path="url(#clip0_77_92)">
<path d="M55.0914 27.755L54.9957 27.6839C54.762 27.4755 54.5752 27.2207 54.4474 26.936C54.3196 26.6513 54.2537 26.3432 54.2539 26.0316C54.2543 25.8817 54.269 25.7321 54.2978 25.585C54.2725 25.7286 54.2591 25.874 54.2579 26.0198C54.2577 26.3313 54.3236 26.6395 54.4514 26.9241C54.5792 27.2088 54.766 27.4636 54.9997 27.672C55.0316 27.6997 55.0595 27.7313 55.0914 27.755Z" fill="#4A4E69"/>
<path d="M77.3975 18.7386V28.2892C77.3975 28.8363 77.1783 29.361 76.788 29.7478C76.3977 30.1346 75.8684 30.352 75.3164 30.352C75.0084 30.352 74.7034 30.2918 74.4188 30.175C74.1342 30.0582 73.8756 29.8869 73.6578 29.671C73.44 29.4552 73.2672 29.1989 73.1494 28.9168C73.0315 28.6347 72.9708 28.3324 72.9708 28.0271V18.7386C72.9675 18.4505 73.0251 18.1648 73.1398 17.9C73.2545 17.6352 73.4238 17.3971 73.6368 17.201C73.9055 16.9292 74.243 16.734 74.6139 16.6357H75.7664C76.2302 16.766 76.6393 17.0409 76.933 17.4197C77.2268 17.7984 77.3897 18.2609 77.3975 18.7386Z" fill="#4A4E69"/>
<path d="M75.7639 16.6348H74.6113C74.8005 16.5806 74.9967 16.554 75.1936 16.5557C75.3864 16.556 75.5783 16.5826 75.7639 16.6348Z" fill="#4A4E69"/>
<path d="M77.3976 11.5666C77.3976 12.1485 77.1644 12.7065 76.7493 13.1179C76.3342 13.5293 75.7712 13.7604 75.1842 13.7604C74.5972 13.7604 74.0342 13.5293 73.6191 13.1179C73.204 12.7065 72.9709 12.1485 72.9709 11.5666C72.9674 11.2782 73.0247 10.9923 73.1392 10.7271C73.2537 10.4619 73.4228 10.2234 73.6357 10.0268C73.8393 9.82169 74.0823 9.65921 74.3503 9.54894C74.6184 9.43868 74.906 9.38286 75.1963 9.38482C75.7776 9.39281 76.3328 9.62525 76.7439 10.0327C77.155 10.4402 77.3895 10.9905 77.3976 11.5666Z" fill="#4A4E69"/>
<path d="M69.7135 23.8224C69.7353 25.0804 69.3587 26.3135 68.6367 27.3483C67.9141 28.285 66.9706 29.0316 65.889 29.5224C64.7665 30.0638 63.5273 30.3244 62.2798 30.2813C61.5773 30.2732 60.8773 30.1964 60.1901 30.0521C58.4639 29.6925 56.8308 28.9848 55.3925 27.9729C55.3247 27.9294 55.2569 27.882 55.193 27.8345L55.1891 27.8306C55.1572 27.8069 55.1213 27.7831 55.0894 27.7555C55.0575 27.7318 55.0295 27.7001 54.9976 27.6725C54.764 27.464 54.5772 27.2092 54.4494 26.9246C54.3216 26.6399 54.2557 26.3318 54.2559 26.0202C54.2571 25.8744 54.2704 25.729 54.2957 25.5854C54.3423 25.3569 54.4272 25.1377 54.547 24.9371L55.1253 24.2849C55.5241 23.9607 56.0252 23.7858 56.541 23.7908C56.9893 23.7931 57.4267 23.928 57.7972 24.1782C57.8172 24.194 57.8411 24.2098 57.861 24.2256C57.9009 24.2573 57.9448 24.2849 57.9847 24.3126C58.8942 24.9779 59.933 25.449 61.0355 25.6961L61.1033 25.704C61.4902 25.7854 61.8843 25.8291 62.2798 25.8344C62.8648 25.8418 63.4445 25.7231 63.9787 25.4866C64.3312 25.3685 64.6382 25.1452 64.8574 24.8472C65.0767 24.5492 65.1974 24.1912 65.203 23.8224C65.1961 23.5826 65.1214 23.3495 64.9874 23.1497C64.8535 22.9498 64.6657 22.7912 64.4453 22.6919C63.6776 22.2857 62.8453 22.013 61.9847 21.8856C61.6018 21.8223 58.7225 21.2294 57.3705 20.4902C56.4905 19.9692 55.7493 19.2468 55.209 18.3834C54.7022 17.5142 54.4418 16.5254 54.4553 15.5216C54.4705 14.348 54.8323 13.2047 55.4961 12.2328C56.1886 11.3425 57.0874 10.6307 58.1163 10.1576C59.2089 9.64901 60.4027 9.38967 61.6098 9.39866C62.1193 9.40963 62.6279 9.4479 63.1332 9.5133C64.609 9.7806 66.018 10.3311 67.2808 11.1339C67.3645 11.1853 67.4483 11.2407 67.528 11.2921C67.532 11.296 67.54 11.3 67.544 11.3079C67.8301 11.5149 68.0634 11.7854 68.2254 12.0976C68.3875 12.4098 68.4737 12.7553 68.4772 13.1064C68.4756 13.5015 68.3698 13.8894 68.1703 14.2314C67.9708 14.5735 67.6846 14.858 67.3399 15.0565C66.9953 15.2551 66.6042 15.3609 66.2056 15.3634C65.807 15.3659 65.4146 15.2651 65.0674 15.0709C64.9637 14.9998 64.864 14.9326 64.7643 14.8733L64.7603 14.8693C63.8214 14.2334 62.7185 13.8769 61.5819 13.8416C61.0424 13.8403 60.5085 13.9507 60.0146 14.1657C59.7341 14.2711 59.488 14.4506 59.3031 14.6847C59.1182 14.9188 59.0015 15.1987 58.9657 15.4939C58.9531 15.7025 59.0013 15.9103 59.1045 16.0925C59.2078 16.2748 59.3617 16.4237 59.548 16.5216C60.0226 16.8457 60.7883 17.1106 62.0285 17.3754C62.1881 17.4031 62.4194 17.4584 62.6547 17.5177C63.9747 17.7667 65.4902 18.1106 66.5869 18.751C67.5354 19.241 68.3341 19.9739 68.8999 20.8736C69.4421 21.7626 69.7238 22.7837 69.7135 23.8224Z" fill="#4A4E69"/>
<path d="M57.9866 24.312C57.9467 24.2844 57.9029 24.2567 57.863 24.2251C57.843 24.2093 57.8191 24.1935 57.7992 24.1777C57.4287 23.9275 56.9913 23.7926 56.543 23.7903C56.0272 23.7853 55.526 23.9602 55.1272 24.2844L54.5489 24.9366C54.5487 24.9344 54.5489 24.9323 54.5496 24.9302C54.5503 24.9282 54.5514 24.9263 54.5529 24.9247C54.6578 24.7441 54.7896 24.5803 54.9437 24.4385C55.0033 24.38 55.0659 24.3246 55.1312 24.2725C55.53 23.9483 56.0312 23.7734 56.5469 23.7784C56.9953 23.7807 57.4327 23.9156 57.8032 24.1658C57.8231 24.1816 57.847 24.1974 57.867 24.2132C57.9088 24.2438 57.9487 24.2768 57.9866 24.312Z" fill="#4A4E69"/>
<path d="M65.0687 15.0697L65.0448 15.0579C64.9469 15.0033 64.8536 14.9412 64.7656 14.8721C64.8653 14.9314 64.965 14.9986 65.0687 15.0697Z" fill="#4A4E69"/>
<path d="M67.5305 11.2909C67.4507 11.2395 67.367 11.1842 67.2832 11.1328C67.347 11.1684 67.4068 11.204 67.4667 11.2435C67.4866 11.2593 67.5105 11.2752 67.5305 11.2909Z" fill="#4A4E69"/>
<path d="M127.589 11.5677C127.589 12.1496 127.356 12.7076 126.941 13.119C126.526 13.5304 125.963 13.7615 125.376 13.7615C124.789 13.7615 124.226 13.5304 123.811 13.119C123.395 12.7076 123.162 12.1496 123.162 11.5677C123.159 11.279 123.216 10.9927 123.331 10.7273C123.446 10.4618 123.615 10.223 123.828 10.0261C124.032 9.82158 124.275 9.65953 124.543 9.54954C124.81 9.43956 125.098 9.38388 125.388 9.38579C125.969 9.39365 126.524 9.62606 126.935 10.0336C127.347 10.4411 127.581 10.9915 127.589 11.5677Z" fill="#4A4E69"/>
<path d="M102.995 22.9248V30.3521H98.7076V22.9248C98.7169 22.6167 98.6637 22.3098 98.5511 22.0224C98.4386 21.735 98.2689 21.4729 98.0523 21.2517C97.8357 21.0304 97.5764 20.8546 97.29 20.7345C97.0035 20.6144 96.6956 20.5525 96.3846 20.5525C96.0735 20.5525 95.7657 20.6144 95.4792 20.7345C95.1927 20.8546 94.9335 21.0304 94.7169 21.2517C94.5002 21.4729 94.3306 21.735 94.218 22.0224C94.1055 22.3098 94.0523 22.6167 94.0615 22.9248L94.0527 30.3521H89.7496L89.7745 22.9248C89.7772 22.3093 89.5374 21.717 89.1061 21.274C88.6748 20.8311 88.0862 20.5724 87.4655 20.5531C86.8472 20.5797 86.2629 20.8407 85.8332 21.282C85.4035 21.7234 85.1612 22.3115 85.1564 22.9248L85.1569 30.3521H80.8691V16.6359H85.1563V17.1023C85.8327 16.6327 86.6395 16.3827 87.4653 16.3869C88.345 16.3887 89.215 16.5689 90.0217 16.9166C90.7161 17.2401 91.3585 17.6637 91.928 18.1736C92.4904 17.6558 93.1343 17.2326 93.8342 16.9205C94.6431 16.5705 95.5159 16.3889 96.3985 16.3869C97.2665 16.3808 98.127 16.5457 98.9301 16.8721C99.7332 17.1985 100.463 17.6798 101.077 18.2881C101.69 18.8965 102.176 19.6196 102.505 20.4156C102.835 21.2116 103.001 22.0645 102.995 22.9248Z" fill="#4A4E69"/>
<path d="M118.15 18.4139C117.493 17.7649 116.713 17.2514 115.854 16.9034C114.996 16.5553 114.076 16.3795 113.149 16.3862C112.109 16.379 111.094 16.7032 110.254 17.3111V9.38574H106.078V30.3514H110.254V29.5727C111.112 30.1281 112.125 30.4007 113.149 30.3514C114.546 30.355 115.912 29.9473 117.075 29.18C118.238 28.4127 119.145 27.3205 119.681 26.0417C120.216 24.763 120.357 23.3554 120.084 21.9974C119.812 20.6394 119.139 19.3922 118.15 18.4139ZM113.149 26.3235C112.556 26.3407 111.971 26.182 111.469 25.8678C110.967 25.5537 110.572 25.0983 110.332 24.5599C110.093 24.0216 110.022 23.4248 110.127 22.8458C110.232 22.2669 110.509 21.7322 110.922 21.3101C111.335 20.888 111.866 20.5977 112.447 20.4764C113.028 20.3551 113.632 20.4083 114.182 20.6291C114.732 20.85 115.203 21.2285 115.535 21.7162C115.866 22.2039 116.044 22.7786 116.044 23.3668C116.045 24.1364 115.744 24.876 115.203 25.4283C114.662 25.9805 113.925 26.3017 113.149 26.3235Z" fill="#4A4E69"/>
<path d="M127.589 18.9167V28.182C127.589 28.7574 127.358 29.3093 126.948 29.7161C126.537 30.123 125.981 30.3516 125.4 30.3516C124.806 30.3516 124.237 30.1179 123.818 29.702C123.398 29.286 123.162 28.7219 123.162 28.1336V18.8174C123.159 18.5288 123.217 18.2427 123.332 17.9773C123.446 17.7119 123.616 17.4731 123.828 17.2758C124.221 16.8811 124.752 16.6521 125.311 16.6367C125.612 16.6368 125.91 16.696 126.188 16.8109C126.466 16.9258 126.718 17.0941 126.93 17.3061C127.142 17.5181 127.309 17.7695 127.422 18.046C127.535 18.3224 127.592 18.6183 127.589 18.9167Z" fill="#4A4E69"/>
<path d="M12.1393 14.4473C12.1393 14.5351 12.1359 14.6212 12.1275 14.704V14.7819C12.116 14.6703 12.12 14.5578 12.1393 14.4473Z" fill="#3A86FF"/>
<path d="M12.4477 16.8712C12.255 16.6044 12.1442 16.2881 12.1287 15.9604C12.1136 15.5928 12.1253 15.2267 12.127 14.7812C12.1354 14.9038 12.1487 15.0297 12.147 15.1505C12.1453 15.4536 12.1286 15.76 12.1553 16.0596C12.181 16.3505 12.2817 16.63 12.4477 16.8712Z" fill="#3A86FF"/>
<path d="M14.2681 17.8773C14.1969 17.8721 14.1261 17.8626 14.056 17.8491C14.0226 17.8425 13.9891 17.8359 13.9574 17.8276C13.923 17.8211 13.889 17.8128 13.8555 17.8027C13.9139 17.816 13.9708 17.8293 14.0309 17.8392C14.049 17.8441 14.0675 17.8474 14.0861 17.8491C14.1462 17.8606 14.2063 17.8707 14.2681 17.8773Z" fill="#3A86FF"/>
<path d="M15.3302 11.8353C15.255 11.8138 15.1781 11.7972 15.0996 11.7823C15.1047 11.782 15.1098 11.7826 15.1146 11.784C15.1874 11.7969 15.2594 11.8141 15.3302 11.8353Z" fill="#3A86FF"/>
<path d="M16.4162 12.4431C16.2283 12.266 16.0142 12.1186 15.7812 12.0059C16.016 12.1155 16.2306 12.2633 16.4162 12.4431Z" fill="#3A86FF"/>
<path d="M17.0012 14.8212C16.9928 14.7053 16.9812 14.5876 16.9812 14.4733C16.9829 14.1686 16.9996 13.8639 16.9728 13.5624C16.9431 13.2419 16.8233 12.9361 16.627 12.6797C16.642 12.698 16.657 12.7162 16.6704 12.7361C16.7305 12.8164 16.7826 12.9024 16.8259 12.9928C16.8694 13.082 16.9057 13.1745 16.9345 13.2694C16.9533 13.333 16.9678 13.3977 16.978 13.4631C16.9894 13.5294 16.9967 13.5963 16.9997 13.6635C17.0129 14.0246 17.0028 14.3855 17.0012 14.8212Z" fill="#3A86FF"/>
<path d="M16.9902 15.179C16.9902 15.0896 16.9936 15.0035 17.002 14.919V14.8213C17.0143 14.9405 17.0103 15.0608 16.9902 15.179Z" fill="#3A86FF"/>
<path d="M33.3848 13.6009C33.3818 13.5537 33.3762 13.5067 33.3681 13.4601C33.3684 13.4562 33.3678 13.4523 33.3664 13.4486C33.3614 13.4155 33.3531 13.3807 33.3447 13.3476C33.335 13.302 33.3222 13.2572 33.3063 13.2134C33.3013 13.1968 33.2962 13.1818 33.2896 13.1654C33.2807 13.1382 33.27 13.1117 33.2577 13.0859C33.2476 13.0627 33.2377 13.0395 33.2258 13.0164C33.2074 12.9799 33.189 12.9435 33.1689 12.907C33.1556 12.8839 33.1422 12.8607 33.1272 12.8391C33.1171 12.8204 33.1053 12.8027 33.0921 12.7861C33.0771 12.7629 33.062 12.7414 33.0453 12.7199C33.034 12.7032 33.0218 12.6871 33.0086 12.6719C32.9988 12.659 32.9882 12.6468 32.9766 12.6355C33.2202 12.9269 33.3636 13.2877 33.386 13.6655C33.4011 14.02 33.3894 14.3744 33.3894 14.7304C33.3933 14.3545 33.4115 13.9769 33.3848 13.6009ZM33.3932 15.0152C33.3932 15.0864 33.3932 15.1594 33.3949 15.2322C33.398 15.2009 33.3986 15.1693 33.3965 15.1379C33.3949 15.0964 33.3932 15.0567 33.3932 15.0152ZM33.3915 14.8198H33.3898C33.3898 14.8844 33.3915 14.949 33.3932 15.0152C33.3915 14.949 33.3915 14.8844 33.3915 14.8198ZM32.4759 12.1833C32.4675 12.1767 32.4592 12.1718 32.4491 12.1651C32.4123 12.1403 32.3756 12.1171 32.3372 12.0956C32.3172 12.0823 32.2954 12.0707 32.2737 12.0591C32.2336 12.036 32.1918 12.0145 32.1484 11.9946C32.1377 11.9886 32.1265 11.9836 32.115 11.9796C32.0615 11.9532 32.0064 11.93 31.9495 11.9085C31.9161 11.8952 31.881 11.8836 31.8458 11.872C31.7907 11.8523 31.7322 11.8356 31.6737 11.8206C31.6436 11.8124 31.6152 11.8057 31.5851 11.7991C31.5116 11.7825 31.4364 11.7675 31.3613 11.7577C31.3045 11.7494 31.2476 11.7445 31.1892 11.7395C31.6596 11.781 32.1116 11.9405 32.5025 12.2032C32.4941 12.1959 32.4851 12.1893 32.4759 12.1833ZM30.9405 11.7296C30.9265 11.7298 30.9125 11.7309 30.8987 11.7329C30.9288 11.7312 30.9572 11.7312 30.9856 11.7312C30.9705 11.7298 30.9556 11.7293 30.9405 11.7296ZM29.3247 17.367C29.7557 17.6944 30.2778 17.8823 30.8202 17.9053C30.2791 17.8755 29.7591 17.6883 29.3247 17.367ZM28.5377 15.9858C28.5377 16.0023 28.5377 16.0205 28.5394 16.0372C28.5411 16.0654 28.5444 16.0918 28.5478 16.12C28.5563 16.1944 28.5708 16.2681 28.5912 16.3402C28.5962 16.3619 28.6029 16.3817 28.6096 16.4032C28.6146 16.4181 28.6179 16.4314 28.623 16.4447C28.6313 16.4695 28.6413 16.4926 28.6513 16.5174C28.6608 16.5436 28.6719 16.569 28.6848 16.5937C28.6931 16.6149 28.7032 16.6354 28.7149 16.6549C28.735 16.6977 28.7579 16.7392 28.7834 16.7791C28.8068 16.8191 28.8325 16.8578 28.8602 16.8951C28.8886 16.9365 28.9204 16.9763 28.9519 17.0143L28.9569 17.0193C28.9677 17.0333 28.9794 17.0466 28.992 17.059L29.0054 17.0722C28.7303 16.7728 28.5656 16.3899 28.5377 15.9858ZM28.5327 14.8182C28.5327 14.6825 28.531 14.545 28.5294 14.4092C28.5256 14.4394 28.5245 14.4698 28.526 14.5001C28.5294 14.568 28.531 14.6343 28.5294 14.6989C28.531 14.7849 28.5327 14.8744 28.5327 14.9605C28.5344 14.9125 28.5344 14.8661 28.5344 14.8182L28.5327 14.8182ZM28.5294 15.5387C28.5294 15.3516 28.5327 15.166 28.5327 14.9789C28.5294 15.3002 28.5177 15.6248 28.5361 15.9461C28.5309 15.8102 28.5294 15.6745 28.5294 15.5387ZM33.3848 13.6009C33.3818 13.5537 33.3762 13.5067 33.3681 13.4601C33.3684 13.4562 33.3678 13.4523 33.3664 13.4486C33.3614 13.4155 33.3531 13.3807 33.3447 13.3476C33.335 13.302 33.3222 13.2572 33.3063 13.2134C33.3013 13.1968 33.2962 13.1818 33.2896 13.1654C33.2807 13.1382 33.27 13.1117 33.2577 13.0859C33.2476 13.0627 33.2377 13.0395 33.2258 13.0164C33.2074 12.9799 33.189 12.9435 33.1689 12.907C33.1556 12.8839 33.1422 12.8607 33.1272 12.8391C33.1171 12.8204 33.1053 12.8027 33.0921 12.7861C33.0771 12.7629 33.062 12.7414 33.0453 12.7199C33.034 12.7032 33.0218 12.6871 33.0086 12.6719C32.9988 12.659 32.9882 12.6468 32.9766 12.6355C33.2202 12.9269 33.3636 13.2877 33.386 13.6655C33.4011 14.02 33.3894 14.3744 33.3894 14.7304C33.3933 14.3545 33.4115 13.9769 33.3848 13.6009ZM33.3932 15.0152C33.3932 15.0864 33.3932 15.1594 33.3949 15.2322C33.398 15.2009 33.3986 15.1693 33.3965 15.1379C33.3949 15.0964 33.3932 15.0567 33.3932 15.0152ZM33.3915 14.8198H33.3898C33.3898 14.8844 33.3915 14.949 33.3932 15.0152C33.3915 14.949 33.3915 14.8844 33.3915 14.8198ZM32.4759 12.1833C32.4675 12.1767 32.4592 12.1718 32.4491 12.1651C32.4123 12.1403 32.3756 12.1171 32.3372 12.0956C32.3172 12.0823 32.2954 12.0707 32.2737 12.0591C32.2336 12.036 32.1918 12.0145 32.1484 11.9946C32.1377 11.9886 32.1265 11.9836 32.115 11.9796C32.0615 11.9532 32.0064 11.93 31.9495 11.9085C31.9161 11.8952 31.881 11.8836 31.8458 11.872C31.7907 11.8523 31.7322 11.8356 31.6737 11.8206C31.6436 11.8124 31.6152 11.8057 31.5851 11.7991C31.5116 11.7825 31.4364 11.7675 31.3613 11.7577C31.3045 11.7494 31.2476 11.7445 31.1892 11.7395C31.6596 11.781 32.1116 11.9405 32.5025 12.2032C32.4941 12.1959 32.4851 12.1893 32.4759 12.1833ZM30.9405 11.7296C30.9265 11.7298 30.9125 11.7309 30.8987 11.7329C30.9288 11.7312 30.9572 11.7312 30.9856 11.7312C30.9705 11.7298 30.9556 11.7293 30.9405 11.7296ZM29.3247 17.367C29.7557 17.6944 30.2778 17.8823 30.8202 17.9053C30.2791 17.8755 29.7591 17.6883 29.3247 17.367ZM28.5377 15.9858C28.5377 16.0023 28.5377 16.0205 28.5394 16.0372C28.5411 16.0654 28.5444 16.0918 28.5478 16.12C28.5563 16.1944 28.5708 16.2681 28.5912 16.3402C28.5962 16.3619 28.6029 16.3817 28.6096 16.4032C28.6146 16.4181 28.6179 16.4314 28.623 16.4447C28.6313 16.4695 28.6413 16.4926 28.6513 16.5174C28.6608 16.5436 28.6719 16.569 28.6848 16.5937C28.6931 16.6149 28.7032 16.6354 28.7149 16.6549C28.735 16.6977 28.7579 16.7392 28.7834 16.7791C28.8068 16.8191 28.8325 16.8578 28.8602 16.8951C28.8886 16.9365 28.9204 16.9763 28.9519 17.0143L28.9569 17.0193C28.9677 17.0333 28.9794 17.0466 28.992 17.059L29.0054 17.0722C28.7303 16.7728 28.5656 16.3899 28.5377 15.9858ZM28.5327 14.8182C28.5327 14.6825 28.531 14.545 28.5294 14.4092C28.5256 14.4394 28.5245 14.4698 28.526 14.5001C28.5294 14.568 28.531 14.6343 28.5294 14.6989C28.531 14.7849 28.5327 14.8744 28.5327 14.9605C28.5344 14.9125 28.5344 14.8661 28.5344 14.8182L28.5327 14.8182ZM28.5294 15.5387C28.5294 15.3516 28.5327 15.166 28.5327 14.9789C28.5294 15.3002 28.5177 15.6248 28.5361 15.9461C28.5309 15.8102 28.5294 15.6745 28.5294 15.5387ZM28.5294 15.5387C28.5294 15.3516 28.5327 15.166 28.5327 14.9789C28.5294 15.3002 28.5177 15.6248 28.5361 15.9461C28.5309 15.8102 28.5294 15.6745 28.5294 15.5387ZM28.5327 14.8182C28.5327 14.6825 28.531 14.545 28.5294 14.4092C28.5256 14.4394 28.5245 14.4698 28.526 14.5001C28.5294 14.568 28.531 14.6343 28.5294 14.6989C28.531 14.7849 28.5327 14.8744 28.5327 14.9605C28.5344 14.9125 28.5344 14.8661 28.5344 14.8182L28.5327 14.8182ZM28.5377 15.9858C28.5377 16.0023 28.5377 16.0205 28.5394 16.0372C28.5411 16.0654 28.5444 16.0918 28.5478 16.12C28.5563 16.1944 28.5708 16.2681 28.5912 16.3402C28.5962 16.3619 28.6029 16.3817 28.6096 16.4032C28.6146 16.4181 28.6179 16.4314 28.623 16.4447C28.6313 16.4695 28.6413 16.4926 28.6513 16.5174C28.6608 16.5436 28.6719 16.569 28.6848 16.5937C28.6931 16.6149 28.7032 16.6354 28.7149 16.6549C28.735 16.6977 28.7579 16.7392 28.7834 16.7791C28.8068 16.8191 28.8325 16.8578 28.8602 16.8951C28.8886 16.9365 28.9204 16.9763 28.9519 17.0143L28.9569 17.0193C28.9677 17.0333 28.9794 17.0466 28.992 17.059L29.0054 17.0722C28.7303 16.7728 28.5656 16.3899 28.5377 15.9858ZM29.3247 17.367C29.7557 17.6944 30.2778 17.8823 30.8202 17.9053C30.2791 17.8755 29.7591 17.6883 29.3247 17.367ZM30.9405 11.7296C30.9265 11.7298 30.9125 11.7309 30.8987 11.7329C30.9288 11.7312 30.9572 11.7312 30.9856 11.7312C30.9705 11.7298 30.9556 11.7293 30.9405 11.7296ZM32.4759 12.1833C32.4675 12.1767 32.4592 12.1718 32.4491 12.1651C32.4123 12.1403 32.3756 12.1171 32.3372 12.0956C32.3172 12.0823 32.2954 12.0707 32.2737 12.0591C32.2336 12.036 32.1918 12.0145 32.1484 11.9946C32.1377 11.9886 32.1265 11.9836 32.115 11.9796C32.0615 11.9532 32.0064 11.93 31.9495 11.9085C31.9161 11.8952 31.881 11.8836 31.8458 11.872C31.7907 11.8523 31.7322 11.8356 31.6737 11.8206C31.6436 11.8124 31.6152 11.8057 31.5851 11.7991C31.5116 11.7825 31.4364 11.7675 31.3613 11.7577C31.3045 11.7494 31.2476 11.7445 31.1892 11.7395C31.6596 11.781 32.1116 11.9405 32.5025 12.2032C32.4941 12.1959 32.4851 12.1893 32.4759 12.1833ZM33.3915 14.8198H33.3898C33.3898 14.8844 33.3915 14.949 33.3932 15.0152C33.3915 14.949 33.3915 14.8844 33.3915 14.8198ZM33.3848 13.6009C33.3818 13.5537 33.3762 13.5067 33.3681 13.4601C33.3684 13.4562 33.3678 13.4523 33.3664 13.4486C33.3614 13.4155 33.3531 13.3807 33.3447 13.3476C33.335 13.302 33.3222 13.2572 33.3063 13.2134C33.3013 13.1968 33.2962 13.1818 33.2896 13.1654C33.2807 13.1382 33.27 13.1117 33.2577 13.0859C33.2476 13.0627 33.2377 13.0395 33.2258 13.0164C33.2074 12.9799 33.189 12.9435 33.1689 12.907C33.1556 12.8839 33.1422 12.8607 33.1272 12.8391C33.1171 12.8204 33.1053 12.8027 33.0921 12.7861C33.0771 12.7629 33.062 12.7414 33.0453 12.7199C33.034 12.7032 33.0218 12.6871 33.0086 12.6719C32.9988 12.659 32.9882 12.6468 32.9766 12.6355C33.2202 12.9269 33.3636 13.2877 33.386 13.6655C33.4011 14.02 33.3894 14.3744 33.3894 14.7304C33.3933 14.3545 33.4115 13.9769 33.3848 13.6009ZM33.3932 15.0152C33.3932 15.0864 33.3932 15.1594 33.3949 15.2322C33.398 15.2009 33.3986 15.1693 33.3965 15.1379C33.3949 15.0964 33.3932 15.0567 33.3932 15.0152ZM33.3932 15.0152C33.3932 15.0864 33.3932 15.1594 33.3949 15.2322C33.398 15.2009 33.3986 15.1693 33.3965 15.1379C33.3949 15.0964 33.3932 15.0567 33.3932 15.0152ZM33.3848 13.6009C33.3818 13.5537 33.3762 13.5067 33.3681 13.4601C33.3684 13.4562 33.3678 13.4523 33.3664 13.4486C33.3614 13.4155 33.3531 13.3807 33.3447 13.3476C33.335 13.302 33.3222 13.2572 33.3063 13.2134C33.3013 13.1968 33.2962 13.1818 33.2896 13.1654C33.2807 13.1382 33.27 13.1117 33.2577 13.0859C33.2476 13.0627 33.2377 13.0395 33.2258 13.0164C33.2074 12.9799 33.189 12.9435 33.1689 12.907C33.1556 12.8839 33.1422 12.8607 33.1272 12.8391C33.1171 12.8204 33.1053 12.8027 33.0921 12.7861C33.0771 12.7629 33.062 12.7414 33.0453 12.7199C33.034 12.7032 33.0218 12.6871 33.0086 12.6719C32.9988 12.659 32.9882 12.6468 32.9766 12.6355C33.2202 12.9269 33.3636 13.2877 33.386 13.6655C33.4011 14.02 33.3894 14.3744 33.3894 14.7304C33.3933 14.3545 33.4115 13.9769 33.3848 13.6009ZM33.3915 14.8198H33.3898C33.3898 14.8844 33.3915 14.949 33.3932 15.0152C33.3915 14.949 33.3915 14.8844 33.3915 14.8198ZM32.4759 12.1833C32.4675 12.1767 32.4592 12.1718 32.4491 12.1651C32.4123 12.1403 32.3756 12.1171 32.3372 12.0956C32.3172 12.0823 32.2954 12.0707 32.2737 12.0591C32.2336 12.036 32.1918 12.0145 32.1484 11.9946C32.1377 11.9886 32.1265 11.9836 32.115 11.9796C32.0615 11.9532 32.0064 11.93 31.9495 11.9085C31.9161 11.8952 31.881 11.8836 31.8458 11.872C31.7907 11.8523 31.7322 11.8356 31.6737 11.8206C31.6436 11.8124 31.6152 11.8057 31.5851 11.7991C31.5116 11.7825 31.4364 11.7675 31.3613 11.7577C31.3045 11.7494 31.2476 11.7445 31.1892 11.7395C31.6596 11.781 32.1116 11.9405 32.5025 12.2032C32.4941 12.1959 32.4851 12.1893 32.4759 12.1833ZM30.9405 11.7296C30.9265 11.7298 30.9125 11.7309 30.8987 11.7329C30.9288 11.7312 30.9572 11.7312 30.9856 11.7312C30.9705 11.7298 30.9556 11.7293 30.9405 11.7296ZM29.3247 17.367C29.7557 17.6944 30.2778 17.8823 30.8202 17.9053C30.2791 17.8755 29.7591 17.6883 29.3247 17.367ZM28.5377 15.9858C28.5377 16.0023 28.5377 16.0205 28.5394 16.0372C28.5411 16.0654 28.5444 16.0918 28.5478 16.12C28.5563 16.1944 28.5708 16.2681 28.5912 16.3402C28.5962 16.3619 28.6029 16.3817 28.6096 16.4032C28.6146 16.4181 28.6179 16.4314 28.623 16.4447C28.6313 16.4695 28.6413 16.4926 28.6513 16.5174C28.6608 16.5436 28.6719 16.569 28.6848 16.5937C28.6931 16.6149 28.7032 16.6354 28.7149 16.6549C28.735 16.6977 28.7579 16.7392 28.7834 16.7791C28.8068 16.8191 28.8325 16.8578 28.8602 16.8951C28.8886 16.9365 28.9204 16.9763 28.9519 17.0143L28.9569 17.0193C28.9677 17.0333 28.9794 17.0466 28.992 17.059L29.0054 17.0722C28.7303 16.7728 28.5656 16.3899 28.5377 15.9858ZM28.5327 14.8182C28.5327 14.6825 28.531 14.545 28.5294 14.4092C28.5256 14.4394 28.5245 14.4698 28.526 14.5001C28.5294 14.568 28.531 14.6343 28.5294 14.6989C28.531 14.7849 28.5327 14.8744 28.5327 14.9605C28.5344 14.9125 28.5344 14.8661 28.5344 14.8182L28.5327 14.8182ZM28.5294 15.5387C28.5294 15.3516 28.5327 15.166 28.5327 14.9789C28.5294 15.3002 28.5177 15.6248 28.5361 15.9461C28.5309 15.8102 28.5294 15.6745 28.5294 15.5387ZM28.5294 15.5387C28.5294 15.3516 28.5327 15.166 28.5327 14.9789C28.5294 15.3002 28.5177 15.6248 28.5361 15.9461C28.5309 15.8102 28.5294 15.6745 28.5294 15.5387ZM28.5327 14.8182C28.5327 14.6825 28.531 14.545 28.5294 14.4092C28.5256 14.4394 28.5245 14.4698 28.526 14.5001C28.5294 14.568 28.531 14.6343 28.5294 14.6989C28.531 14.7849 28.5327 14.8744 28.5327 14.9605C28.5344 14.9125 28.5344 14.8661 28.5344 14.8182L28.5327 14.8182ZM28.5377 15.9858C28.5377 16.0023 28.5377 16.0205 28.5394 16.0372C28.5411 16.0654 28.5444 16.0918 28.5478 16.12C28.5563 16.1944 28.5708 16.2681 28.5912 16.3402C28.5962 16.3619 28.6029 16.3817 28.6096 16.4032C28.6146 16.4181 28.6179 16.4314 28.623 16.4447C28.6313 16.4695 28.6413 16.4926 28.6513 16.5174C28.6608 16.5436 28.6719 16.569 28.6848 16.5937C28.6931 16.6149 28.7032 16.6354 28.7149 16.6549C28.735 16.6977 28.7579 16.7392 28.7834 16.7791C28.8068 16.8191 28.8325 16.8578 28.8602 16.8951C28.8886 16.9365 28.9204 16.9763 28.9519 17.0143L28.9569 17.0193C28.9677 17.0333 28.9794 17.0466 28.992 17.059L29.0054 17.0722C28.7303 16.7728 28.5656 16.3899 28.5377 15.9858ZM29.3247 17.367C29.7557 17.6944 30.2778 17.8823 30.8202 17.9053C30.2791 17.8755 29.7591 17.6883 29.3247 17.367ZM30.9405 11.7296C30.9265 11.7298 30.9125 11.7309 30.8987 11.7329C30.9288 11.7312 30.9572 11.7312 30.9856 11.7312C30.9705 11.7298 30.9556 11.7293 30.9405 11.7296ZM32.4759 12.1833C32.4675 12.1767 32.4592 12.1718 32.4491 12.1651C32.4123 12.1403 32.3756 12.1171 32.3372 12.0956C32.3172 12.0823 32.2954 12.0707 32.2737 12.0591C32.2336 12.036 32.1918 12.0145 32.1484 11.9946C32.1377 11.9886 32.1265 11.9836 32.115 11.9796C32.0615 11.9532 32.0064 11.93 31.9495 11.9085C31.9161 11.8952 31.881 11.8836 31.8458 11.872C31.7907 11.8523 31.7322 11.8356 31.6737 11.8206C31.6436 11.8124 31.6152 11.8057 31.5851 11.7991C31.5116 11.7825 31.4364 11.7675 31.3613 11.7577C31.3045 11.7494 31.2476 11.7445 31.1892 11.7395C31.6596 11.781 32.1116 11.9405 32.5025 12.2032C32.4941 12.1959 32.4851 12.1893 32.4759 12.1833ZM33.3915 14.8198H33.3898C33.3898 14.8844 33.3915 14.949 33.3932 15.0152C33.3915 14.949 33.3915 14.8844 33.3915 14.8198ZM33.3848 13.6009C33.3818 13.5537 33.3762 13.5067 33.3681 13.4601C33.3684 13.4562 33.3678 13.4523 33.3664 13.4486C33.3614 13.4155 33.3531 13.3807 33.3447 13.3476C33.335 13.302 33.3222 13.2572 33.3063 13.2134C33.3013 13.1968 33.2962 13.1818 33.2896 13.1654C33.2807 13.1382 33.27 13.1117 33.2577 13.0859C33.2476 13.0627 33.2377 13.0395 33.2258 13.0164C33.2074 12.9799 33.189 12.9435 33.1689 12.907C33.1556 12.8839 33.1422 12.8607 33.1272 12.8391C33.1171 12.8204 33.1053 12.8027 33.0921 12.7861C33.0771 12.7629 33.062 12.7414 33.0453 12.7199C33.034 12.7032 33.0218 12.6871 33.0086 12.6719C32.9988 12.659 32.9882 12.6468 32.9766 12.6355C33.2202 12.9269 33.3636 13.2877 33.386 13.6655C33.4011 14.02 33.3894 14.3744 33.3894 14.7304C33.3933 14.3545 33.4115 13.9769 33.3848 13.6009ZM33.3932 15.0152C33.3932 15.0864 33.3932 15.1594 33.3949 15.2322C33.398 15.2009 33.3986 15.1693 33.3965 15.1379C33.3949 15.0964 33.3932 15.0567 33.3932 15.0152ZM33.3932 15.0152C33.3932 15.0864 33.3932 15.1594 33.3949 15.2322C33.398 15.2009 33.3986 15.1693 33.3965 15.1379C33.3949 15.0964 33.3932 15.0567 33.3932 15.0152ZM33.3848 13.6009C33.3818 13.5537 33.3762 13.5067 33.3681 13.4601C33.3684 13.4562 33.3678 13.4523 33.3664 13.4486C33.3614 13.4155 33.3531 13.3807 33.3447 13.3476C33.335 13.302 33.3222 13.2572 33.3063 13.2134C33.3013 13.1968 33.2962 13.1818 33.2896 13.1654C33.2807 13.1382 33.27 13.1117 33.2577 13.0859C33.2476 13.0627 33.2377 13.0395 33.2258 13.0164C33.2074 12.9799 33.189 12.9435 33.1689 12.907C33.1556 12.8839 33.1422 12.8607 33.1272 12.8391C33.1171 12.8204 33.1053 12.8027 33.0921 12.7861C33.0771 12.7629 33.062 12.7414 33.0453 12.7199C33.034 12.7032 33.0218 12.6871 33.0086 12.6719C32.9988 12.659 32.9882 12.6468 32.9766 12.6355C33.2202 12.9269 33.3636 13.2877 33.386 13.6655C33.4011 14.02 33.3894 14.3744 33.3894 14.7304C33.3933 14.3545 33.4115 13.9769 33.3848 13.6009ZM33.3915 14.8198H33.3898C33.3898 14.8844 33.3915 14.949 33.3932 15.0152C33.3915 14.949 33.3915 14.8844 33.3915 14.8198ZM32.4759 12.1833C32.4675 12.1767 32.4592 12.1718 32.4491 12.1651C32.4123 12.1403 32.3756 12.1171 32.3372 12.0956C32.3172 12.0823 32.2954 12.0707 32.2737 12.0591C32.2336 12.036 32.1918 12.0145 32.1484 11.9946C32.1377 11.9886 32.1265 11.9836 32.115 11.9796C32.0615 11.9532 32.0064 11.93 31.9495 11.9085C31.9161 11.8952 31.881 11.8836 31.8458 11.872C31.7907 11.8523 31.7322 11.8356 31.6737 11.8206C31.6436 11.8124 31.6152 11.8057 31.5851 11.7991C31.5116 11.7825 31.4364 11.7675 31.3613 11.7577C31.3045 11.7494 31.2476 11.7445 31.1892 11.7395C31.6596 11.781 32.1116 11.9405 32.5025 12.2032C32.4941 12.1959 32.4851 12.1893 32.4759 12.1833ZM30.9405 11.7296C30.9265 11.7298 30.9125 11.7309 30.8987 11.7329C30.9288 11.7312 30.9572 11.7312 30.9856 11.7312C30.9705 11.7298 30.9556 11.7293 30.9405 11.7296ZM29.3247 17.367C29.7557 17.6944 30.2778 17.8823 30.8202 17.9053C30.2791 17.8755 29.7591 17.6883 29.3247 17.367ZM28.5377 15.9858C28.5377 16.0023 28.5377 16.0205 28.5394 16.0372C28.5411 16.0654 28.5444 16.0918 28.5478 16.12C28.5563 16.1944 28.5708 16.2681 28.5912 16.3402C28.5962 16.3619 28.6029 16.3817 28.6096 16.4032C28.6146 16.4181 28.6179 16.4314 28.623 16.4447C28.6313 16.4695 28.6413 16.4926 28.6513 16.5174C28.6608 16.5436 28.6719 16.569 28.6848 16.5937C28.6931 16.6149 28.7032 16.6354 28.7149 16.6549C28.735 16.6977 28.7579 16.7392 28.7834 16.7791C28.8068 16.8191 28.8325 16.8578 28.8602 16.8951C28.8886 16.9365 28.9204 16.9763 28.9519 17.0143L28.9569 17.0193C28.9677 17.0333 28.9794 17.0466 28.992 17.059L29.0054 17.0722C28.7303 16.7728 28.5656 16.3899 28.5377 15.9858ZM28.5327 14.8182C28.5327 14.6825 28.531 14.545 28.5294 14.4092C28.5256 14.4394 28.5245 14.4698 28.526 14.5001C28.5294 14.568 28.531 14.6343 28.5294 14.6989C28.531 14.7849 28.5327 14.8744 28.5327 14.9605C28.5344 14.9125 28.5344 14.8661 28.5344 14.8182L28.5327 14.8182ZM28.5294 15.5387C28.5294 15.3516 28.5327 15.166 28.5327 14.9789C28.5294 15.3002 28.5177 15.6248 28.5361 15.9461C28.5309 15.8102 28.5294 15.6745 28.5294 15.5387ZM28.5294 15.5387C28.5294 15.3516 28.5327 15.166 28.5327 14.9789C28.5294 15.3002 28.5177 15.6248 28.5361 15.9461C28.5309 15.8102 28.5294 15.6745 28.5294 15.5387ZM28.5327 14.8182C28.5327 14.6825 28.531 14.545 28.5294 14.4092C28.5256 14.4394 28.5245 14.4698 28.526 14.5001C28.5294 14.568 28.531 14.6343 28.5294 14.6989C28.531 14.7849 28.5327 14.8744 28.5327 14.9605C28.5344 14.9125 28.5344 14.8661 28.5344 14.8182L28.5327 14.8182ZM28.5377 15.9858C28.5377 16.0023 28.5377 16.0205 28.5394 16.0372C28.5411 16.0654 28.5444 16.0918 28.5478 16.12C28.5563 16.1944 28.5708 16.2681 28.5912 16.3402C28.5962 16.3619 28.6029 16.3817 28.6096 16.4032C28.6146 16.4181 28.6179 16.4314 28.623 16.4447C28.6313 16.4695 28.6413 16.4926 28.6513 16.5174C28.6608 16.5436 28.6719 16.569 28.6848 16.5937C28.6931 16.6149 28.7032 16.6354 28.7149 16.6549C28.735 16.6977 28.7579 16.7392 28.7834 16.7791C28.8068 16.8191 28.8325 16.8578 28.8602 16.8951C28.8886 16.9365 28.9204 16.9763 28.9519 17.0143L28.9569 17.0193C28.9677 17.0333 28.9794 17.0466 28.992 17.059L29.0054 17.0722C28.7303 16.7728 28.5656 16.3899 28.5377 15.9858ZM29.3247 17.367C29.7557 17.6944 30.2778 17.8823 30.8202 17.9053C30.2791 17.8755 29.7591 17.6883 29.3247 17.367ZM30.9405 11.7296C30.9265 11.7298 30.9125 11.7309 30.8987 11.7329C30.9288 11.7312 30.9572 11.7312 30.9856 11.7312C30.9705 11.7298 30.9556 11.7293 30.9405 11.7296ZM32.4759 12.1833C32.4675 12.1767 32.4592 12.1718 32.4491 12.1651C32.4123 12.1403 32.3756 12.1171 32.3372 12.0956C32.3172 12.0823 32.2954 12.0707 32.2737 12.0591C32.2336 12.036 32.1918 12.0145 32.1484 11.9946C32.1377 11.9886 32.1265 11.9836 32.115 11.9796C32.0615 11.9532 32.0064 11.93 31.9495 11.9085C31.9161 11.8952 31.881 11.8836 31.8458 11.872C31.7907 11.8523 31.7322 11.8356 31.6737 11.8206C31.6436 11.8124 31.6152 11.8057 31.5851 11.7991C31.5116 11.7825 31.4364 11.7675 31.3613 11.7577C31.3045 11.7494 31.2476 11.7445 31.1892 11.7395C31.6596 11.781 32.1116 11.9405 32.5025 12.2032C32.4941 12.1959 32.4851 12.1893 32.4759 12.1833ZM33.3915 14.8198H33.3898C33.3898 14.8844 33.3915 14.949 33.3932 15.0152C33.3915 14.949 33.3915 14.8844 33.3915 14.8198ZM33.3848 13.6009C33.3818 13.5537 33.3762 13.5067 33.3681 13.4601C33.3684 13.4562 33.3678 13.4523 33.3664 13.4486C33.3614 13.4155 33.3531 13.3807 33.3447 13.3476C33.335 13.302 33.3222 13.2572 33.3063 13.2134C33.3013 13.1968 33.2962 13.1818 33.2896 13.1654C33.2807 13.1382 33.27 13.1117 33.2577 13.0859C33.2476 13.0627 33.2377 13.0395 33.2258 13.0164C33.2074 12.9799 33.189 12.9435 33.1689 12.907C33.1556 12.8839 33.1422 12.8607 33.1272 12.8391C33.1171 12.8204 33.1053 12.8027 33.0921 12.7861C33.0771 12.7629 33.062 12.7414 33.0453 12.7199C33.034 12.7032 33.0218 12.6871 33.0086 12.6719C32.9988 12.659 32.9882 12.6468 32.9766 12.6355C33.2202 12.9269 33.3636 13.2877 33.386 13.6655C33.4011 14.02 33.3894 14.3744 33.3894 14.7304C33.3933 14.3545 33.4115 13.9769 33.3848 13.6009ZM33.3932 15.0152C33.3932 15.0864 33.3932 15.1594 33.3949 15.2322C33.398 15.2009 33.3986 15.1693 33.3965 15.1379C33.3949 15.0964 33.3932 15.0567 33.3932 15.0152ZM33.3932 15.0152C33.3932 15.0864 33.3932 15.1594 33.3949 15.2322C33.398 15.2009 33.3986 15.1693 33.3965 15.1379C33.3949 15.0964 33.3932 15.0567 33.3932 15.0152ZM33.3848 13.6009C33.3818 13.5537 33.3762 13.5067 33.3681 13.4601C33.3684 13.4562 33.3678 13.4523 33.3664 13.4486C33.3614 13.4155 33.3531 13.3807 33.3447 13.3476C33.335 13.302 33.3222 13.2572 33.3063 13.2134C33.3013 13.1968 33.2962 13.1818 33.2896 13.1654C33.2807 13.1382 33.27 13.1117 33.2577 13.0859C33.2476 13.0627 33.2377 13.0395 33.2258 13.0164C33.2074 12.9799 33.189 12.9435 33.1689 12.907C33.1556 12.8839 33.1422 12.8607 33.1272 12.8391C33.1171 12.8204 33.1053 12.8027 33.0921 12.7861C33.0771 12.7629 33.062 12.7414 33.0453 12.7199C33.034 12.7032 33.0218 12.6871 33.0086 12.6719C32.9988 12.659 32.9882 12.6468 32.9766 12.6355C33.2202 12.9269 33.3636 13.2877 33.386 13.6655C33.4011 14.02 33.3894 14.3744 33.3894 14.7304C33.3933 14.3545 33.4115 13.9769 33.3848 13.6009ZM33.3915 14.8198H33.3898C33.3898 14.8844 33.3915 14.949 33.3932 15.0152C33.3915 14.949 33.3915 14.8844 33.3915 14.8198ZM32.4759 12.1833C32.4675 12.1767 32.4592 12.1718 32.4491 12.1651C32.4123 12.1403 32.3756 12.1171 32.3372 12.0956C32.3172 12.0823 32.2954 12.0707 32.2737 12.0591C32.2336 12.036 32.1918 12.0145 32.1484 11.9946C32.1377 11.9886 32.1265 11.9836 32.115 11.9796C32.0615 11.9532 32.0064 11.93 31.9495 11.9085C31.9161 11.8952 31.881 11.8836 31.8458 11.872C31.7907 11.8523 31.7322 11.8356 31.6737 11.8206C31.6436 11.8124 31.6152 11.8057 31.5851 11.7991C31.5116 11.7825 31.4364 11.7675 31.3613 11.7577C31.3045 11.7494 31.2476 11.7445 31.1892 11.7395C31.6596 11.781 32.1116 11.9405 32.5025 12.2032C32.4941 12.1959 32.4851 12.1893 32.4759 12.1833ZM30.9405 11.7296C30.9265 11.7298 30.9125 11.7309 30.8987 11.7329C30.9288 11.7312 30.9572 11.7312 30.9856 11.7312C30.9705 11.7298 30.9556 11.7293 30.9405 11.7296ZM29.3247 17.367C29.7557 17.6944 30.2778 17.8823 30.8202 17.9053C30.2791 17.8755 29.7591 17.6883 29.3247 17.367ZM28.5377 15.9858C28.5377 16.0023 28.5377 16.0205 28.5394 16.0372C28.5411 16.0654 28.5444 16.0918 28.5478 16.12C28.5563 16.1944 28.5708 16.2681 28.5912 16.3402C28.5962 16.3619 28.6029 16.3817 28.6096 16.4032C28.6146 16.4181 28.6179 16.4314 28.623 16.4447C28.6313 16.4695 28.6413 16.4926 28.6513 16.5174C28.6608 16.5436 28.6719 16.569 28.6848 16.5937C28.6931 16.6149 28.7032 16.6354 28.7149 16.6549C28.735 16.6977 28.7579 16.7392 28.7834 16.7791C28.8068 16.8191 28.8325 16.8578 28.8602 16.8951C28.8886 16.9365 28.9204 16.9763 28.9519 17.0143L28.9569 17.0193C28.9677 17.0333 28.9794 17.0466 28.992 17.059L29.0054 17.0722C28.7303 16.7728 28.5656 16.3899 28.5377 15.9858ZM28.5327 14.8182C28.5327 14.6825 28.531 14.545 28.5294 14.4092C28.5256 14.4394 28.5245 14.4698 28.526 14.5001C28.5294 14.568 28.531 14.6343 28.5294 14.6989C28.531 14.7849 28.5327 14.8744 28.5327 14.9605C28.5344 14.9125 28.5344 14.8661 28.5344 14.8182L28.5327 14.8182ZM28.5294 15.5387C28.5294 15.3516 28.5327 15.166 28.5327 14.9789C28.5294 15.3002 28.5177 15.6248 28.5361 15.9461C28.5309 15.8102 28.5294 15.6745 28.5294 15.5387ZM28.5294 15.5387C28.5294 15.3516 28.5327 15.166 28.5327 14.9789C28.5294 15.3002 28.5177 15.6248 28.5361 15.9461C28.5309 15.8102 28.5294 15.6745 28.5294 15.5387ZM28.5327 14.8182C28.5327 14.6825 28.531 14.545 28.5294 14.4092C28.5256 14.4394 28.5245 14.4698 28.526 14.5001C28.5294 14.568 28.531 14.6343 28.5294 14.6989C28.531 14.7849 28.5327 14.8744 28.5327 14.9605C28.5344 14.9125 28.5344 14.8661 28.5344 14.8182L28.5327 14.8182ZM28.5377 15.9858C28.5377 16.0023 28.5377 16.0205 28.5394 16.0372C28.5411 16.0654 28.5444 16.0918 28.5478 16.12C28.5563 16.1944 28.5708 16.2681 28.5912 16.3402C28.5962 16.3619 28.6029 16.3817 28.6096 16.4032C28.6146 16.4181 28.6179 16.4314 28.623 16.4447C28.6313 16.4695 28.6413 16.4926 28.6513 16.5174C28.6608 16.5436 28.6719 16.569 28.6848 16.5937C28.6931 16.6149 28.7032 16.6354 28.7149 16.6549C28.735 16.6977 28.7579 16.7392 28.7834 16.7791C28.8068 16.8191 28.8325 16.8578 28.8602 16.8951C28.8886 16.9365 28.9204 16.9763 28.9519 17.0143L28.9569 17.0193C28.9677 17.0333 28.9794 17.0466 28.992 17.059L29.0054 17.0722C28.7303 16.7728 28.5656 16.3899 28.5377 15.9858ZM29.3247 17.367C29.7557 17.6944 30.2778 17.8823 30.8202 17.9053C30.2791 17.8755 29.7591 17.6883 29.3247 17.367ZM30.9405 11.7296C30.9265 11.7298 30.9125 11.7309 30.8987 11.7329C30.9288 11.7312 30.9572 11.7312 30.9856 11.7312C30.9705 11.7298 30.9556 11.7293 30.9405 11.7296ZM32.4759 12.1833C32.4675 12.1767 32.4592 12.1718 32.4491 12.1651C32.4123 12.1403 32.3756 12.1171 32.3372 12.0956C32.3172 12.0823 32.2954 12.0707 32.2737 12.0591C32.2336 12.036 32.1918 12.0145 32.1484 11.9946C32.1377 11.9886 32.1265 11.9836 32.115 11.9796C32.0615 11.9532 32.0064 11.93 31.9495 11.9085C31.9161 11.8952 31.881 11.8836 31.8458 11.872C31.7907 11.8523 31.7322 11.8356 31.6737 11.8206C31.6436 11.8124 31.6152 11.8057 31.5851 11.7991C31.5116 11.7825 31.4364 11.7675 31.3613 11.7577C31.3045 11.7494 31.2476 11.7445 31.1892 11.7395C31.6596 11.781 32.1116 11.9405 32.5025 12.2032C32.4941 12.1959 32.4851 12.1893 32.4759 12.1833ZM33.3915 14.8198H33.3898C33.3898 14.8844 33.3915 14.949 33.3932 15.0152C33.3915 14.949 33.3915 14.8844 33.3915 14.8198ZM33.3848 13.6009C33.3818 13.5537 33.3762 13.5067 33.3681 13.4601C33.3684 13.4562 33.3678 13.4523 33.3664 13.4486C33.3614 13.4155 33.3531 13.3807 33.3447 13.3476C33.335 13.302 33.3222 13.2572 33.3063 13.2134C33.3013 13.1968 33.2962 13.1818 33.2896 13.1654C33.2807 13.1382 33.27 13.1117 33.2577 13.0859C33.2476 13.0627 33.2377 13.0395 33.2258 13.0164C33.2074 12.9799 33.189 12.9435 33.1689 12.907C33.1556 12.8839 33.1422 12.8607 33.1272 12.8391C33.1171 12.8204 33.1053 12.8027 33.0921 12.7861C33.0771 12.7629 33.062 12.7414 33.0453 12.7199C33.034 12.7032 33.0218 12.6871 33.0086 12.6719C32.9988 12.659 32.9882 12.6468 32.9766 12.6355C33.2202 12.9269 33.3636 13.2877 33.386 13.6655C33.4011 14.02 33.3894 14.3744 33.3894 14.7304C33.3933 14.3545 33.4115 13.9769 33.3848 13.6009ZM33.3932 15.0152C33.3932 15.0864 33.3932 15.1594 33.3949 15.2322C33.398 15.2009 33.3986 15.1693 33.3965 15.1379C33.3949 15.0964 33.3932 15.0567 33.3932 15.0152ZM33.3949 15.2322C33.398 15.2009 33.3986 15.1693 33.3965 15.1379C33.3949 15.0964 33.3932 15.0567 33.3932 15.0152C33.3932 15.0864 33.3932 15.1594 33.3949 15.2322ZM33.39 14.7305C33.3934 14.3545 33.4115 13.9769 33.3848 13.6009C33.3818 13.5537 33.3762 13.5067 33.3681 13.4601C33.3684 13.4562 33.3678 13.4523 33.3664 13.4486C33.3614 13.4155 33.3531 13.3807 33.3447 13.3476C33.335 13.302 33.3222 13.2572 33.3063 13.2134C33.3013 13.1968 33.2962 13.1818 33.2896 13.1654C33.2807 13.1382 33.27 13.1117 33.2577 13.0859C33.2476 13.0627 33.2377 13.0395 33.2258 13.0164C33.2074 12.9799 33.189 12.9435 33.1689 12.907C33.1556 12.8839 33.1422 12.8607 33.1272 12.8391C33.1171 12.8204 33.1053 12.8027 33.0921 12.7861C33.0771 12.7629 33.062 12.7414 33.0453 12.7199C33.034 12.7032 33.0218 12.6871 33.0086 12.6719C32.9988 12.659 32.9882 12.6468 32.9766 12.6355C33.2202 12.9269 33.3636 13.2877 33.386 13.6655C33.4014 14.0199 33.39 14.3745 33.39 14.7305ZM33.3898 14.8198C33.3898 14.8844 33.3915 14.949 33.3932 15.0152C33.3915 14.949 33.3915 14.8844 33.3915 14.8198H33.3898ZM32.4491 12.1651C32.4123 12.1403 32.3756 12.1171 32.3372 12.0956C32.3172 12.0823 32.2954 12.0707 32.2737 12.0591C32.2336 12.036 32.1918 12.0145 32.1484 11.9946C32.1377 11.9886 32.1265 11.9836 32.115 11.9796C32.0615 11.9532 32.0064 11.93 31.9495 11.9085C31.9161 11.8952 31.881 11.8836 31.8458 11.872C31.7907 11.8523 31.7322 11.8356 31.6737 11.8206C31.6436 11.8124 31.6152 11.8057 31.5851 11.7991C31.5116 11.7825 31.4364 11.7675 31.3613 11.7577C31.3045 11.7494 31.2476 11.7445 31.1892 11.7395C31.6596 11.781 32.1116 11.9405 32.5025 12.2032C32.4941 12.1959 32.4851 12.1893 32.4759 12.1833C32.4675 12.1767 32.4592 12.1718 32.4491 12.1651ZM30.8987 11.7329C30.9288 11.7312 30.9572 11.7312 30.9856 11.7312C30.9705 11.7298 30.9556 11.7293 30.9405 11.7296C30.9265 11.7298 30.9125 11.7309 30.8987 11.7329ZM30.8202 17.9053C30.2791 17.8755 29.7591 17.6883 29.3247 17.367C29.7557 17.6944 30.2778 17.8823 30.8202 17.9053ZM28.5394 16.0372C28.5411 16.0654 28.5444 16.0918 28.5478 16.12C28.5563 16.1944 28.5708 16.2681 28.5912 16.3402C28.5962 16.3619 28.6029 16.3817 28.6096 16.4032C28.6146 16.4181 28.6179 16.4314 28.623 16.4447C28.6313 16.4695 28.6413 16.4926 28.6513 16.5174C28.6608 16.5436 28.6719 16.569 28.6848 16.5937C28.6931 16.6149 28.7032 16.6354 28.7149 16.6549C28.735 16.6977 28.7579 16.7392 28.7834 16.7791C28.8068 16.8191 28.8325 16.8578 28.8602 16.8951C28.8886 16.9365 28.9204 16.9763 28.9519 17.0143L28.9569 17.0193C28.9677 17.0333 28.9794 17.0466 28.992 17.059L29.0054 17.0722C28.7303 16.7728 28.5656 16.3899 28.5377 15.9858C28.5377 16.0023 28.5377 16.0205 28.5394 16.0372ZM28.5327 14.9605C28.5344 14.9125 28.5344 14.8661 28.5344 14.8182L28.5327 14.8182C28.5327 14.6825 28.531 14.545 28.5294 14.4092C28.5256 14.4394 28.5245 14.4698 28.526 14.5001C28.5294 14.568 28.531 14.6343 28.5294 14.6989C28.531 14.7849 28.5327 14.8744 28.5327 14.9605ZM28.5327 14.9789C28.5294 15.3002 28.5177 15.6248 28.5361 15.9461C28.5309 15.8102 28.5294 15.6745 28.5294 15.5387C28.5294 15.3516 28.5327 15.166 28.5327 14.9789ZM33.3949 15.2322C33.398 15.2009 33.3986 15.1693 33.3965 15.1379C33.3949 15.0964 33.3932 15.0567 33.3932 15.0152C33.3932 15.0864 33.3932 15.1594 33.3949 15.2322ZM33.39 14.7305C33.3934 14.3545 33.4115 13.9769 33.3848 13.6009C33.3818 13.5537 33.3762 13.5067 33.3681 13.4601C33.3684 13.4562 33.3678 13.4523 33.3664 13.4486C33.3614 13.4155 33.3531 13.3807 33.3447 13.3476C33.335 13.302 33.3222 13.2572 33.3063 13.2134C33.3013 13.1968 33.2962 13.1818 33.2896 13.1654C33.2807 13.1382 33.27 13.1117 33.2577 13.0859C33.2476 13.0627 33.2377 13.0395 33.2258 13.0164C33.2074 12.9799 33.189 12.9435 33.1689 12.907C33.1556 12.8839 33.1422 12.8607 33.1272 12.8391C33.1171 12.8204 33.1053 12.8027 33.0921 12.7861C33.0771 12.7629 33.062 12.7414 33.0453 12.7199C33.034 12.7032 33.0218 12.6871 33.0086 12.6719C32.9988 12.659 32.9882 12.6468 32.9766 12.6355C33.2202 12.9269 33.3636 13.2877 33.386 13.6655C33.4014 14.0199 33.39 14.3745 33.39 14.7305ZM33.3898 14.8198C33.3898 14.8844 33.3915 14.949 33.3932 15.0152C33.3915 14.949 33.3915 14.8844 33.3915 14.8198H33.3898ZM32.4491 12.1651C32.4123 12.1403 32.3756 12.1171 32.3372 12.0956C32.3172 12.0823 32.2954 12.0707 32.2737 12.0591C32.2336 12.036 32.1918 12.0145 32.1484 11.9946C32.1377 11.9886 32.1265 11.9836 32.115 11.9796C32.0615 11.9532 32.0064 11.93 31.9495 11.9085C31.9161 11.8952 31.881 11.8836 31.8458 11.872C31.7907 11.8523 31.7322 11.8356 31.6737 11.8206C31.6436 11.8124 31.6152 11.8057 31.5851 11.7991C31.5116 11.7825 31.4364 11.7675 31.3613 11.7577C31.3045 11.7494 31.2476 11.7445 31.1892 11.7395C31.6596 11.781 32.1116 11.9405 32.5025 12.2032C32.4941 12.1959 32.4851 12.1893 32.4759 12.1833C32.4675 12.1767 32.4592 12.1718 32.4491 12.1651ZM30.8987 11.7329C30.9288 11.7312 30.9572 11.7312 30.9856 11.7312C30.9705 11.7298 30.9556 11.7293 30.9405 11.7296C30.9265 11.7298 30.9125 11.7309 30.8987 11.7329ZM30.8202 17.9053C30.2791 17.8755 29.7591 17.6883 29.3247 17.367C29.7557 17.6944 30.2778 17.8823 30.8202 17.9053ZM28.5394 16.0372C28.5411 16.0654 28.5444 16.0918 28.5478 16.12C28.5563 16.1944 28.5708 16.2681 28.5912 16.3402C28.5962 16.3619 28.6029 16.3817 28.6096 16.4032C28.6146 16.4181 28.6179 16.4314 28.623 16.4447C28.6313 16.4695 28.6413 16.4926 28.6513 16.5174C28.6608 16.5436 28.6719 16.569 28.6848 16.5937C28.6931 16.6149 28.7032 16.6354 28.7149 16.6549C28.735 16.6977 28.7579 16.7392 28.7834 16.7791C28.8068 16.8191 28.8325 16.8578 28.8602 16.8951C28.8886 16.9365 28.9204 16.9763 28.9519 17.0143L28.9569 17.0193C28.9677 17.0333 28.9794 17.0466 28.992 17.059L29.0054 17.0722C28.7303 16.7728 28.5656 16.3899 28.5377 15.9858C28.5377 16.0023 28.5377 16.0205 28.5394 16.0372ZM28.5327 14.9605C28.5344 14.9125 28.5344 14.8661 28.5344 14.8182L28.5327 14.8182C28.5327 14.6825 28.531 14.545 28.5294 14.4092C28.5256 14.4394 28.5245 14.4698 28.526 14.5001C28.5294 14.568 28.531 14.6343 28.5294 14.6989C28.531 14.7849 28.5327 14.8744 28.5327 14.9605ZM28.5327 14.9789C28.5294 15.3002 28.5177 15.6248 28.5361 15.9461C28.5309 15.8102 28.5294 15.6745 28.5294 15.5387C28.5294 15.3516 28.5327 15.166 28.5327 14.9789ZM28.5294 15.5387C28.5294 15.3516 28.5327 15.166 28.5327 14.9789C28.5294 15.3002 28.5177 15.6248 28.5361 15.9461C28.5309 15.8102 28.5294 15.6745 28.5294 15.5387ZM28.5327 14.8182C28.5327 14.6825 28.531 14.545 28.5294 14.4092C28.5256 14.4394 28.5245 14.4698 28.526 14.5001C28.5294 14.568 28.531 14.6343 28.5294 14.6989C28.531 14.7849 28.5327 14.8744 28.5327 14.9605C28.5344 14.9125 28.5344 14.8661 28.5344 14.8182L28.5327 14.8182ZM28.5377 15.9858C28.5377 16.0023 28.5377 16.0205 28.5394 16.0372C28.5411 16.0654 28.5444 16.0918 28.5478 16.12C28.5563 16.1944 28.5708 16.2681 28.5912 16.3402C28.5962 16.3619 28.6029 16.3817 28.6096 16.4032C28.6146 16.4181 28.6179 16.4314 28.623 16.4447C28.6313 16.4695 28.6413 16.4926 28.6513 16.5174C28.6608 16.5436 28.6719 16.569 28.6848 16.5937C28.6931 16.6149 28.7032 16.6354 28.7149 16.6549C28.735 16.6977 28.7579 16.7392 28.7834 16.7791C28.8068 16.8191 28.8325 16.8578 28.8602 16.8951C28.8886 16.9365 28.9204 16.9763 28.9519 17.0143L28.9569 17.0193C28.9677 17.0333 28.9794 17.0466 28.992 17.059L29.0054 17.0722C28.7303 16.7728 28.5656 16.3899 28.5377 15.9858ZM29.3247 17.367C29.7557 17.6944 30.2778 17.8823 30.8202 17.9053C30.2791 17.8755 29.7591 17.6883 29.3247 17.367ZM30.9405 11.7296C30.9265 11.7298 30.9125 11.7309 30.8987 11.7329C30.9288 11.7312 30.9572 11.7312 30.9856 11.7312C30.9705 11.7298 30.9556 11.7293 30.9405 11.7296ZM32.4759 12.1833C32.4675 12.1767 32.4592 12.1718 32.4491 12.1651C32.4123 12.1403 32.3756 12.1171 32.3372 12.0956C32.3172 12.0823 32.2954 12.0707 32.2737 12.0591C32.2336 12.036 32.1918 12.0145 32.1484 11.9946C32.1377 11.9886 32.1265 11.9836 32.115 11.9796C32.0615 11.9532 32.0064 11.93 31.9495 11.9085C31.9161 11.8952 31.881 11.8836 31.8458 11.872C31.7907 11.8523 31.7322 11.8356 31.6737 11.8206C31.6436 11.8124 31.6152 11.8057 31.5851 11.7991C31.5116 11.7825 31.4364 11.7675 31.3613 11.7577C31.3045 11.7494 31.2476 11.7445 31.1892 11.7395C31.6596 11.781 32.1116 11.9405 32.5025 12.2032C32.4941 12.1959 32.4851 12.1893 32.4759 12.1833ZM33.3915 14.8198H33.3898C33.3898 14.8844 33.3915 14.949 33.3932 15.0152C33.3915 14.949 33.3915 14.8844 33.3915 14.8198ZM33.3848 13.6009C33.3818 13.5537 33.3762 13.5067 33.3681 13.4601C33.3684 13.4562 33.3678 13.4523 33.3664 13.4486C33.3614 13.4155 33.3531 13.3807 33.3447 13.3476C33.335 13.302 33.3222 13.2572 33.3063 13.2134C33.3013 13.1968 33.2962 13.1818 33.2896 13.1654C33.2807 13.1382 33.27 13.1117 33.2577 13.0859C33.2476 13.0627 33.2377 13.0395 33.2258 13.0164C33.2074 12.9799 33.189 12.9435 33.1689 12.907C33.1556 12.8839 33.1422 12.8607 33.1272 12.8391C33.1171 12.8204 33.1053 12.8027 33.0921 12.7861C33.0771 12.7629 33.062 12.7414 33.0453 12.7199C33.034 12.7032 33.0218 12.6871 33.0086 12.6719C32.9988 12.659 32.9882 12.6468 32.9766 12.6355C33.2202 12.9269 33.3636 13.2877 33.386 13.6655C33.4011 14.02 33.3894 14.3744 33.3894 14.7304C33.3933 14.3545 33.4115 13.9769 33.3848 13.6009ZM33.3932 15.0152C33.3932 15.0864 33.3932 15.1594 33.3949 15.2322C33.398 15.2009 33.3986 15.1693 33.3965 15.1379C33.3949 15.0964 33.3932 15.0567 33.3932 15.0152ZM33.3932 15.0152C33.3932 15.0864 33.3932 15.1594 33.3949 15.2322C33.398 15.2009 33.3986 15.1693 33.3965 15.1379C33.3949 15.0964 33.3932 15.0567 33.3932 15.0152ZM33.3848 13.6009C33.3818 13.5537 33.3762 13.5067 33.3681 13.4601C33.3684 13.4562 33.3678 13.4523 33.3664 13.4486C33.3614 13.4155 33.3531 13.3807 33.3447 13.3476C33.335 13.302 33.3222 13.2572 33.3063 13.2134C33.3013 13.1968 33.2962 13.1818 33.2896 13.1654C33.2807 13.1382 33.27 13.1117 33.2577 13.0859C33.2476 13.0627 33.2377 13.0395 33.2258 13.0164C33.2074 12.9799 33.189 12.9435 33.1689 12.907C33.1556 12.8839 33.1422 12.8607 33.1272 12.8391C33.1171 12.8204 33.1053 12.8027 33.0921 12.7861C33.0771 12.7629 33.062 12.7414 33.0453 12.7199C33.034 12.7032 33.0218 12.6871 33.0086 12.6719C32.9988 12.659 32.9882 12.6468 32.9766 12.6355C33.2202 12.9269 33.3636 13.2877 33.386 13.6655C33.4011 14.02 33.3894 14.3744 33.3894 14.7304C33.3933 14.3545 33.4115 13.9769 33.3848 13.6009ZM33.3915 14.8198H33.3898C33.3898 14.8844 33.3915 14.949 33.3932 15.0152C33.3915 14.949 33.3915 14.8844 33.3915 14.8198ZM32.4759 12.1833C32.4675 12.1767 32.4592 12.1718 32.4491 12.1651C32.4123 12.1403 32.3756 12.1171 32.3372 12.0956C32.3172 12.0823 32.2954 12.0707 32.2737 12.0591C32.2336 12.036 32.1918 12.0145 32.1484 11.9946C32.1377 11.9886 32.1265 11.9836 32.115 11.9796C32.0615 11.9532 32.0064 11.93 31.9495 11.9085C31.9161 11.8952 31.881 11.8836 31.8458 11.872C31.7907 11.8523 31.7322 11.8356 31.6737 11.8206C31.6436 11.8124 31.6152 11.8057 31.5851 11.7991C31.5116 11.7825 31.4364 11.7675 31.3613 11.7577C31.3045 11.7494 31.2476 11.7445 31.1892 11.7395C31.6596 11.781 32.1116 11.9405 32.5025 12.2032C32.4941 12.1959 32.4851 12.1893 32.4759 12.1833ZM30.9405 11.7296C30.9265 11.7298 30.9125 11.7309 30.8987 11.7329C30.9288 11.7312 30.9572 11.7312 30.9856 11.7312C30.9705 11.7298 30.9556 11.7293 30.9405 11.7296ZM29.3247 17.367C29.7557 17.6944 30.2778 17.8823 30.8202 17.9053C30.2791 17.8755 29.7591 17.6883 29.3247 17.367ZM28.5377 15.9858C28.5377 16.0023 28.5377 16.0205 28.5394 16.0372C28.5411 16.0654 28.5444 16.0918 28.5478 16.12C28.5563 16.1944 28.5708 16.2681 28.5912 16.3402C28.5962 16.3619 28.6029 16.3817 28.6096 16.4032C28.6146 16.4181 28.6179 16.4314 28.623 16.4447C28.6313 16.4695 28.6413 16.4926 28.6513 16.5174C28.6608 16.5436 28.6719 16.569 28.6848 16.5937C28.6931 16.6149 28.7032 16.6354 28.7149 16.6549C28.735 16.6977 28.7579 16.7392 28.7834 16.7791C28.8068 16.8191 28.8325 16.8578 28.8602 16.8951C28.8886 16.9365 28.9204 16.9763 28.9519 17.0143L28.9569 17.0193C28.9677 17.0333 28.9794 17.0466 28.992 17.059L29.0054 17.0722C28.7303 16.7728 28.5656 16.3899 28.5377 15.9858ZM28.5327 14.8182C28.5327 14.6825 28.531 14.545 28.5294 14.4092C28.5256 14.4394 28.5245 14.4698 28.526 14.5001C28.5294 14.568 28.531 14.6343 28.5294 14.6989C28.531 14.7849 28.5327 14.8744 28.5327 14.9605C28.5344 14.9125 28.5344 14.8661 28.5344 14.8182L28.5327 14.8182ZM28.5294 15.5387C28.5294 15.3516 28.5327 15.166 28.5327 14.9789C28.5294 15.3002 28.5177 15.6248 28.5361 15.9461C28.5309 15.8102 28.5294 15.6745 28.5294 15.5387ZM28.5294 15.5387C28.5294 15.3516 28.5327 15.166 28.5327 14.9789C28.5294 15.3002 28.5177 15.6248 28.5361 15.9461C28.5309 15.8102 28.5294 15.6745 28.5294 15.5387ZM28.5327 14.8182C28.5327 14.6825 28.531 14.545 28.5294 14.4092C28.5256 14.4394 28.5245 14.4698 28.526 14.5001C28.5294 14.568 28.531 14.6343 28.5294 14.6989C28.531 14.7849 28.5327 14.8744 28.5327 14.9605C28.5344 14.9125 28.5344 14.8661 28.5344 14.8182L28.5327 14.8182ZM28.5377 15.9858C28.5377 16.0023 28.5377 16.0205 28.5394 16.0372C28.5411 16.0654 28.5444 16.0918 28.5478 16.12C28.5563 16.1944 28.5708 16.2681 28.5912 16.3402C28.5962 16.3619 28.6029 16.3817 28.6096 16.4032C28.6146 16.4181 28.6179 16.4314 28.623 16.4447C28.6313 16.4695 28.6413 16.4926 28.6513 16.5174C28.6608 16.5436 28.6719 16.569 28.6848 16.5937C28.6931 16.6149 28.7032 16.6354 28.7149 16.6549C28.735 16.6977 28.7579 16.7392 28.7834 16.7791C28.8068 16.8191 28.8325 16.8578 28.8602 16.8951C28.8886 16.9365 28.9204 16.9763 28.9519 17.0143L28.9569 17.0193C28.9677 17.0333 28.9794 17.0466 28.992 17.059L29.0054 17.0722C28.7303 16.7728 28.5656 16.3899 28.5377 15.9858ZM29.3247 17.367C29.7557 17.6944 30.2778 17.8823 30.8202 17.9053C30.2791 17.8755 29.7591 17.6883 29.3247 17.367ZM30.9405 11.7296C30.9265 11.7298 30.9125 11.7309 30.8987 11.7329C30.9288 11.7312 30.9572 11.7312 30.9856 11.7312C30.9705 11.7298 30.9556 11.7293 30.9405 11.7296ZM32.4759 12.1833C32.4675 12.1767 32.4592 12.1718 32.4491 12.1651C32.4123 12.1403 32.3756 12.1171 32.3372 12.0956C32.3172 12.0823 32.2954 12.0707 32.2737 12.0591C32.2336 12.036 32.1918 12.0145 32.1484 11.9946C32.1377 11.9886 32.1265 11.9836 32.115 11.9796C32.0615 11.9532 32.0064 11.93 31.9495 11.9085C31.9161 11.8952 31.881 11.8836 31.8458 11.872C31.7907 11.8523 31.7322 11.8356 31.6737 11.8206C31.6436 11.8124 31.6152 11.8057 31.5851 11.7991C31.5116 11.7825 31.4364 11.7675 31.3613 11.7577C31.3045 11.7494 31.2476 11.7445 31.1892 11.7395C31.6596 11.781 32.1116 11.9405 32.5025 12.2032C32.4941 12.1959 32.4851 12.1893 32.4759 12.1833ZM33.3915 14.8198H33.3898C33.3898 14.8844 33.3915 14.949 33.3932 15.0152C33.3915 14.949 33.3915 14.8844 33.3915 14.8198ZM33.3848 13.6009C33.3818 13.5537 33.3762 13.5067 33.3681 13.4601C33.3684 13.4562 33.3678 13.4523 33.3664 13.4486C33.3614 13.4155 33.3531 13.3807 33.3447 13.3476C33.335 13.302 33.3222 13.2572 33.3063 13.2134C33.3013 13.1968 33.2962 13.1818 33.2896 13.1654C33.2807 13.1382 33.27 13.1117 33.2577 13.0859C33.2476 13.0627 33.2377 13.0395 33.2258 13.0164C33.2074 12.9799 33.189 12.9435 33.1689 12.907C33.1556 12.8839 33.1422 12.8607 33.1272 12.8391C33.1171 12.8204 33.1053 12.8027 33.0921 12.7861C33.0771 12.7629 33.062 12.7414 33.0453 12.7199C33.034 12.7032 33.0218 12.6871 33.0086 12.6719C32.9988 12.659 32.9882 12.6468 32.9766 12.6355C33.2202 12.9269 33.3636 13.2877 33.386 13.6655C33.4011 14.02 33.3894 14.3744 33.3894 14.7304C33.3933 14.3545 33.4115 13.9769 33.3848 13.6009ZM33.3932 15.0152C33.3932 15.0864 33.3932 15.1594 33.3949 15.2322C33.398 15.2009 33.3986 15.1693 33.3965 15.1379C33.3949 15.0964 33.3932 15.0567 33.3932 15.0152ZM33.3932 15.0152C33.3932 15.0864 33.3932 15.1594 33.3949 15.2322C33.398 15.2009 33.3986 15.1693 33.3965 15.1379C33.3949 15.0964 33.3932 15.0567 33.3932 15.0152ZM33.3848 13.6009C33.3818 13.5537 33.3762 13.5067 33.3681 13.4601C33.3684 13.4562 33.3678 13.4523 33.3664 13.4486C33.3614 13.4155 33.3531 13.3807 33.3447 13.3476C33.335 13.302 33.3222 13.2572 33.3063 13.2134C33.3013 13.1968 33.2962 13.1818 33.2896 13.1654C33.2807 13.1382 33.27 13.1117 33.2577 13.0859C33.2476 13.0627 33.2377 13.0395 33.2258 13.0164C33.2074 12.9799 33.189 12.9435 33.1689 12.907C33.1556 12.8839 33.1422 12.8607 33.1272 12.8391C33.1171 12.8204 33.1053 12.8027 33.0921 12.7861C33.0771 12.7629 33.062 12.7414 33.0453 12.7199C33.034 12.7032 33.0218 12.6871 33.0086 12.6719C32.9988 12.659 32.9882 12.6468 32.9766 12.6355C33.2202 12.9269 33.3636 13.2877 33.386 13.6655C33.4011 14.02 33.3894 14.3744 33.3894 14.7304C33.3933 14.3545 33.4115 13.9769 33.3848 13.6009ZM33.3915 14.8198H33.3898C33.3898 14.8844 33.3915 14.949 33.3932 15.0152C33.3915 14.949 33.3915 14.8844 33.3915 14.8198ZM32.4759 12.1833C32.4675 12.1767 32.4592 12.1718 32.4491 12.1651C32.4123 12.1403 32.3756 12.1171 32.3372 12.0956C32.3172 12.0823 32.2954 12.0707 32.2737 12.0591C32.2336 12.036 32.1918 12.0145 32.1484 11.9946C32.1377 11.9886 32.1265 11.9836 32.115 11.9796C32.0615 11.9532 32.0064 11.93 31.9495 11.9085C31.9161 11.8952 31.881 11.8836 31.8458 11.872C31.7907 11.8523 31.7322 11.8356 31.6737 11.8206C31.6436 11.8124 31.6152 11.8057 31.5851 11.7991C31.5116 11.7825 31.4364 11.7675 31.3613 11.7577C31.3045 11.7494 31.2476 11.7445 31.1892 11.7395C31.6596 11.781 32.1116 11.9405 32.5025 12.2032C32.4941 12.1959 32.4851 12.1893 32.4759 12.1833ZM30.9405 11.7296C30.9265 11.7298 30.9125 11.7309 30.8987 11.7329C30.9288 11.7312 30.9572 11.7312 30.9856 11.7312C30.9705 11.7298 30.9556 11.7293 30.9405 11.7296ZM29.3247 17.367C29.7557 17.6944 30.2778 17.8823 30.8202 17.9053C30.2791 17.8755 29.7591 17.6883 29.3247 17.367ZM28.5377 15.9858C28.5377 16.0023 28.5377 16.0205 28.5394 16.0372C28.5411 16.0654 28.5444 16.0918 28.5478 16.12C28.5563 16.1944 28.5708 16.2681 28.5912 16.3402C28.5962 16.3619 28.6029 16.3817 28.6096 16.4032C28.6146 16.4181 28.6179 16.4314 28.623 16.4447C28.6313 16.4695 28.6413 16.4926 28.6513 16.5174C28.6608 16.5436 28.6719 16.569 28.6848 16.5937C28.6931 16.6149 28.7032 16.6354 28.7149 16.6549C28.735 16.6977 28.7579 16.7392 28.7834 16.7791C28.8068 16.8191 28.8325 16.8578 28.8602 16.8951C28.8886 16.9365 28.9204 16.9763 28.9519 17.0143L28.9569 17.0193C28.9677 17.0333 28.9794 17.0466 28.992 17.059L29.0054 17.0722C28.7303 16.7728 28.5656 16.3899 28.5377 15.9858ZM28.5327 14.8182C28.5327 14.6825 28.531 14.545 28.5294 14.4092C28.5256 14.4394 28.5245 14.4698 28.526 14.5001C28.5294 14.568 28.531 14.6343 28.5294 14.6989C28.531 14.7849 28.5327 14.8744 28.5327 14.9605C28.5344 14.9125 28.5344 14.8661 28.5344 14.8182L28.5327 14.8182ZM28.5294 15.5387C28.5294 15.3516 28.5327 15.166 28.5327 14.9789C28.5294 15.3002 28.5177 15.6248 28.5361 15.9461C28.5309 15.8102 28.5294 15.6745 28.5294 15.5387ZM28.5294 15.5387C28.5294 15.3516 28.5327 15.166 28.5327 14.9789C28.5294 15.3002 28.5177 15.6248 28.5361 15.9461C28.5309 15.8102 28.5294 15.6745 28.5294 15.5387ZM28.5327 14.8182C28.5327 14.6825 28.531 14.545 28.5294 14.4092C28.5256 14.4394 28.5245 14.4698 28.526 14.5001C28.5294 14.568 28.531 14.6343 28.5294 14.6989C28.531 14.7849 28.5327 14.8744 28.5327 14.9605C28.5344 14.9125 28.5344 14.8661 28.5344 14.8182L28.5327 14.8182ZM28.5377 15.9858C28.5377 16.0023 28.5377 16.0205 28.5394 16.0372C28.5411 16.0654 28.5444 16.0918 28.5478 16.12C28.5563 16.1944 28.5708 16.2681 28.5912 16.3402C28.5962 16.3619 28.6029 16.3817 28.6096 16.4032C28.6146 16.4181 28.6179 16.4314 28.623 16.4447C28.6313 16.4695 28.6413 16.4926 28.6513 16.5174C28.6608 16.5436 28.6719 16.569 28.6848 16.5937C28.6931 16.6149 28.7032 16.6354 28.7149 16.6549C28.735 16.6977 28.7579 16.7392 28.7834 16.7791C28.8068 16.8191 28.8325 16.8578 28.8602 16.8951C28.8886 16.9365 28.9204 16.9763 28.9519 17.0143L28.9569 17.0193C28.9677 17.0333 28.9794 17.0466 28.992 17.059L29.0054 17.0722C28.7303 16.7728 28.5656 16.3899 28.5377 15.9858ZM29.3247 17.367C29.7557 17.6944 30.2778 17.8823 30.8202 17.9053C30.2791 17.8755 29.7591 17.6883 29.3247 17.367ZM30.9405 11.7296C30.9265 11.7298 30.9125 11.7309 30.8987 11.7329C30.9288 11.7312 30.9572 11.7312 30.9856 11.7312C30.9705 11.7298 30.9556 11.7293 30.9405 11.7296ZM32.4759 12.1833C32.4675 12.1767 32.4592 12.1718 32.4491 12.1651C32.4123 12.1403 32.3756 12.1171 32.3372 12.0956C32.3172 12.0823 32.2954 12.0707 32.2737 12.0591C32.2336 12.036 32.1918 12.0145 32.1484 11.9946C32.1377 11.9886 32.1265 11.9836 32.115 11.9796C32.0615 11.9532 32.0064 11.93 31.9495 11.9085C31.9161 11.8952 31.881 11.8836 31.8458 11.872C31.7907 11.8523 31.7322 11.8356 31.6737 11.8206C31.6436 11.8124 31.6152 11.8057 31.5851 11.7991C31.5116 11.7825 31.4364 11.7675 31.3613 11.7577C31.3045 11.7494 31.2476 11.7445 31.1892 11.7395C31.6596 11.781 32.1116 11.9405 32.5025 12.2032C32.4941 12.1959 32.4851 12.1893 32.4759 12.1833ZM33.3915 14.8198H33.3898C33.3898 14.8844 33.3915 14.949 33.3932 15.0152C33.3915 14.949 33.3915 14.8844 33.3915 14.8198ZM33.3848 13.6009C33.3818 13.5537 33.3762 13.5067 33.3681 13.4601C33.3684 13.4562 33.3678 13.4523 33.3664 13.4486C33.3614 13.4155 33.3531 13.3807 33.3447 13.3476C33.335 13.302 33.3222 13.2572 33.3063 13.2134C33.3013 13.1968 33.2962 13.1818 33.2896 13.1654C33.2807 13.1382 33.27 13.1117 33.2577 13.0859C33.2476 13.0627 33.2377 13.0395 33.2258 13.0164C33.2074 12.9799 33.189 12.9435 33.1689 12.907C33.1556 12.8839 33.1422 12.8607 33.1272 12.8391C33.1171 12.8204 33.1053 12.8027 33.0921 12.7861C33.0771 12.7629 33.062 12.7414 33.0453 12.7199C33.034 12.7032 33.0218 12.6871 33.0086 12.6719C32.9988 12.659 32.9882 12.6468 32.9766 12.6355C33.2202 12.9269 33.3636 13.2877 33.386 13.6655C33.4011 14.02 33.3894 14.3744 33.3894 14.7304C33.3933 14.3545 33.4115 13.9769 33.3848 13.6009ZM33.3932 15.0152C33.3932 15.0864 33.3932 15.1594 33.3949 15.2322C33.398 15.2009 33.3986 15.1693 33.3965 15.1379C33.3949 15.0964 33.3932 15.0567 33.3932 15.0152ZM33.3932 15.0152C33.3932 15.0864 33.3932 15.1594 33.3949 15.2322C33.398 15.2009 33.3986 15.1693 33.3965 15.1379C33.3949 15.0964 33.3932 15.0567 33.3932 15.0152ZM33.3848 13.6009C33.3818 13.5537 33.3762 13.5067 33.3681 13.4601C33.3684 13.4562 33.3678 13.4523 33.3664 13.4486C33.3614 13.4155 33.3531 13.3807 33.3447 13.3476C33.335 13.302 33.3222 13.2572 33.3063 13.2134C33.3013 13.1968 33.2962 13.1818 33.2896 13.1654C33.2807 13.1382 33.27 13.1117 33.2577 13.0859C33.2476 13.0627 33.2377 13.0395 33.2258 13.0164C33.2074 12.9799 33.189 12.9435 33.1689 12.907C33.1556 12.8839 33.1422 12.8607 33.1272 12.8391C33.1171 12.8204 33.1053 12.8027 33.0921 12.7861C33.0771 12.7629 33.062 12.7414 33.0453 12.7199C33.034 12.7032 33.0218 12.6871 33.0086 12.6719C32.9988 12.659 32.9882 12.6468 32.9766 12.6355C33.2202 12.9269 33.3636 13.2877 33.386 13.6655C33.4011 14.02 33.3894 14.3744 33.3894 14.7304C33.3933 14.3545 33.4115 13.9769 33.3848 13.6009ZM33.3915 14.8198H33.3898C33.3898 14.8844 33.3915 14.949 33.3932 15.0152C33.3915 14.949 33.3915 14.8844 33.3915 14.8198ZM32.4759 12.1833C32.4675 12.1767 32.4592 12.1718 32.4491 12.1651C32.4123 12.1403 32.3756 12.1171 32.3372 12.0956C32.3172 12.0823 32.2954 12.0707 32.2737 12.0591C32.2336 12.036 32.1918 12.0145 32.1484 11.9946C32.1377 11.9886 32.1265 11.9836 32.115 11.9796C32.0615 11.9532 32.0064 11.93 31.9495 11.9085C31.9161 11.8952 31.881 11.8836 31.8458 11.872C31.7907 11.8523 31.7322 11.8356 31.6737 11.8206C31.6436 11.8124 31.6152 11.8057 31.5851 11.7991C31.5116 11.7825 31.4364 11.7675 31.3613 11.7577C31.3045 11.7494 31.2476 11.7445 31.1892 11.7395C31.6596 11.781 32.1116 11.9405 32.5025 12.2032C32.4941 12.1959 32.4851 12.1893 32.4759 12.1833ZM30.9405 11.7296C30.9265 11.7298 30.9125 11.7309 30.8987 11.7329C30.9288 11.7312 30.9572 11.7312 30.9856 11.7312C30.9705 11.7298 30.9556 11.7293 30.9405 11.7296ZM29.3247 17.367C29.7557 17.6944 30.2778 17.8823 30.8202 17.9053C30.2791 17.8755 29.7591 17.6883 29.3247 17.367ZM28.5377 15.9858C28.5377 16.0023 28.5377 16.0205 28.5394 16.0372C28.5411 16.0654 28.5444 16.0918 28.5478 16.12C28.5563 16.1944 28.5708 16.2681 28.5912 16.3402C28.5962 16.3619 28.6029 16.3817 28.6096 16.4032C28.6146 16.4181 28.6179 16.4314 28.623 16.4447C28.6313 16.4695 28.6413 16.4926 28.6513 16.5174C28.6608 16.5436 28.6719 16.569 28.6848 16.5937C28.6931 16.6149 28.7032 16.6354 28.7149 16.6549C28.735 16.6977 28.7579 16.7392 28.7834 16.7791C28.8068 16.8191 28.8325 16.8578 28.8602 16.8951C28.8886 16.9365 28.9204 16.9763 28.9519 17.0143L28.9569 17.0193C28.9677 17.0333 28.9794 17.0466 28.992 17.059L29.0054 17.0722C28.7303 16.7728 28.5656 16.3899 28.5377 15.9858ZM28.5327 14.8182C28.5327 14.6825 28.531 14.545 28.5294 14.4092C28.5256 14.4394 28.5245 14.4698 28.526 14.5001C28.5294 14.568 28.531 14.6343 28.5294 14.6989C28.531 14.7849 28.5327 14.8744 28.5327 14.9605C28.5344 14.9125 28.5344 14.8661 28.5344 14.8182L28.5327 14.8182ZM28.5294 15.5387C28.5294 15.3516 28.5327 15.166 28.5327 14.9789C28.5294 15.3002 28.5177 15.6248 28.5361 15.9461C28.5309 15.8102 28.5294 15.6745 28.5294 15.5387ZM28.5294 15.5387C28.5294 15.3516 28.5327 15.166 28.5327 14.9789C28.5294 15.3002 28.5177 15.6248 28.5361 15.9461C28.5309 15.8102 28.5294 15.6745 28.5294 15.5387ZM28.5327 14.8182C28.5327 14.6825 28.531 14.545 28.5294 14.4092C28.5256 14.4394 28.5245 14.4698 28.526 14.5001C28.5294 14.568 28.531 14.6343 28.5294 14.6989C28.531 14.7849 28.5327 14.8744 28.5327 14.9605C28.5344 14.9125 28.5344 14.8661 28.5344 14.8182L28.5327 14.8182ZM28.5377 15.9858C28.5377 16.0023 28.5377 16.0205 28.5394 16.0372C28.5411 16.0654 28.5444 16.0918 28.5478 16.12C28.5563 16.1944 28.5708 16.2681 28.5912 16.3402C28.5962 16.3619 28.6029 16.3817 28.6096 16.4032C28.6146 16.4181 28.6179 16.4314 28.623 16.4447C28.6313 16.4695 28.6413 16.4926 28.6513 16.5174C28.6608 16.5436 28.6719 16.569 28.6848 16.5937C28.6931 16.6149 28.7032 16.6354 28.7149 16.6549C28.735 16.6977 28.7579 16.7392 28.7834 16.7791C28.8068 16.8191 28.8325 16.8578 28.8602 16.8951C28.8886 16.9365 28.9204 16.9763 28.9519 17.0143L28.9569 17.0193C28.9677 17.0333 28.9794 17.0466 28.992 17.059L29.0054 17.0722C28.7303 16.7728 28.5656 16.3899 28.5377 15.9858ZM29.3247 17.367C29.7557 17.6944 30.2778 17.8823 30.8202 17.9053C30.2791 17.8755 29.7591 17.6883 29.3247 17.367ZM30.9405 11.7296C30.9265 11.7298 30.9125 11.7309 30.8987 11.7329C30.9288 11.7312 30.9572 11.7312 30.9856 11.7312C30.9705 11.7298 30.9556 11.7293 30.9405 11.7296ZM32.4759 12.1833C32.4675 12.1767 32.4592 12.1718 32.4491 12.1651C32.4123 12.1403 32.3756 12.1171 32.3372 12.0956C32.3172 12.0823 32.2954 12.0707 32.2737 12.0591C32.2336 12.036 32.1918 12.0145 32.1484 11.9946C32.1377 11.9886 32.1265 11.9836 32.115 11.9796C32.0615 11.9532 32.0064 11.93 31.9495 11.9085C31.9161 11.8952 31.881 11.8836 31.8458 11.872C31.7907 11.8523 31.7322 11.8356 31.6737 11.8206C31.6436 11.8124 31.6152 11.8057 31.5851 11.7991C31.5116 11.7825 31.4364 11.7675 31.3613 11.7577C31.3045 11.7494 31.2476 11.7445 31.1892 11.7395C31.6596 11.781 32.1116 11.9405 32.5025 12.2032C32.4941 12.1959 32.4851 12.1893 32.4759 12.1833ZM33.3915 14.8198H33.3898C33.3898 14.8844 33.3915 14.949 33.3932 15.0152C33.3915 14.949 33.3915 14.8844 33.3915 14.8198ZM33.3848 13.6009C33.3818 13.5537 33.3762 13.5067 33.3681 13.4601C33.3684 13.4562 33.3678 13.4523 33.3664 13.4486C33.3614 13.4155 33.3531 13.3807 33.3447 13.3476C33.335 13.302 33.3222 13.2572 33.3063 13.2134C33.3013 13.1968 33.2962 13.1818 33.2896 13.1654C33.2807 13.1382 33.27 13.1117 33.2577 13.0859C33.2476 13.0627 33.2377 13.0395 33.2258 13.0164C33.2074 12.9799 33.189 12.9435 33.1689 12.907C33.1556 12.8839 33.1422 12.8607 33.1272 12.8391C33.1171 12.8204 33.1053 12.8027 33.0921 12.7861C33.0771 12.7629 33.062 12.7414 33.0453 12.7199C33.034 12.7032 33.0218 12.6871 33.0086 12.6719C32.9988 12.659 32.9882 12.6468 32.9766 12.6355C33.2202 12.9269 33.3636 13.2877 33.386 13.6655C33.4011 14.02 33.3894 14.3744 33.3894 14.7304C33.3933 14.3545 33.4115 13.9769 33.3848 13.6009ZM33.3932 15.0152C33.3932 15.0864 33.3932 15.1594 33.3949 15.2322C33.398 15.2009 33.3986 15.1693 33.3965 15.1379C33.3949 15.0964 33.3932 15.0567 33.3932 15.0152ZM33.3848 13.6009C33.3818 13.5537 33.3762 13.5067 33.3681 13.4601C33.3684 13.4562 33.3678 13.4523 33.3664 13.4486C33.3614 13.4155 33.3531 13.3807 33.3447 13.3476C33.335 13.302 33.3222 13.2572 33.3063 13.2134C33.3013 13.1968 33.2962 13.1818 33.2896 13.1654C33.2807 13.1382 33.27 13.1117 33.2577 13.0859C33.2476 13.0627 33.2377 13.0395 33.2258 13.0164C33.2074 12.9799 33.189 12.9435 33.1689 12.907C33.1556 12.8839 33.1422 12.8607 33.1272 12.8391C33.1171 12.8204 33.1053 12.8027 33.0921 12.7861C33.0771 12.7629 33.062 12.7414 33.0453 12.7199C33.034 12.7032 33.0218 12.6871 33.0086 12.6719C32.9988 12.659 32.9882 12.6468 32.9766 12.6355C33.2202 12.9269 33.3636 13.2877 33.386 13.6655C33.4011 14.02 33.3894 14.3744 33.3894 14.7304C33.3933 14.3545 33.4115 13.9769 33.3848 13.6009ZM33.3932 15.0152C33.3932 15.0864 33.3932 15.1594 33.3949 15.2322C33.398 15.2009 33.3986 15.1693 33.3965 15.1379C33.3949 15.0964 33.3932 15.0567 33.3932 15.0152ZM33.3915 14.8198H33.3898C33.3898 14.8844 33.3915 14.949 33.3932 15.0152C33.3915 14.949 33.3915 14.8844 33.3915 14.8198ZM32.4759 12.1833C32.4675 12.1767 32.4592 12.1718 32.4491 12.1651C32.4123 12.1403 32.3756 12.1171 32.3372 12.0956C32.3172 12.0823 32.2954 12.0707 32.2737 12.0591C32.2336 12.036 32.1918 12.0145 32.1484 11.9946C32.1377 11.9886 32.1265 11.9836 32.115 11.9796C32.0615 11.9532 32.0064 11.93 31.9495 11.9085C31.9161 11.8952 31.881 11.8836 31.8458 11.872C31.7907 11.8523 31.7322 11.8356 31.6737 11.8206C31.6436 11.8124 31.6152 11.8057 31.5851 11.7991C31.5116 11.7825 31.4364 11.7675 31.3613 11.7577C31.3045 11.7494 31.2476 11.7445 31.1892 11.7395C31.6596 11.781 32.1116 11.9405 32.5025 12.2032C32.4941 12.1959 32.4851 12.1893 32.4759 12.1833ZM30.9405 11.7296C30.9265 11.7298 30.9125 11.7309 30.8987 11.7329C30.9288 11.7312 30.9572 11.7312 30.9856 11.7312C30.9705 11.7298 30.9556 11.7293 30.9405 11.7296ZM29.3247 17.367C29.7557 17.6944 30.2778 17.8823 30.8202 17.9053C30.2791 17.8755 29.7591 17.6883 29.3247 17.367ZM28.5377 15.9858C28.5377 16.0023 28.5377 16.0205 28.5394 16.0372C28.5411 16.0654 28.5444 16.0918 28.5478 16.12C28.5563 16.1944 28.5708 16.2681 28.5912 16.3402C28.5962 16.3619 28.6029 16.3817 28.6096 16.4032C28.6146 16.4181 28.6179 16.4314 28.623 16.4447C28.6313 16.4695 28.6413 16.4926 28.6513 16.5174C28.6608 16.5436 28.6719 16.569 28.6848 16.5937C28.6931 16.6149 28.7032 16.6354 28.7149 16.6549C28.735 16.6977 28.7579 16.7392 28.7834 16.7791C28.8068 16.8191 28.8325 16.8578 28.8602 16.8951C28.8886 16.9365 28.9204 16.9763 28.9519 17.0143L28.9569 17.0193C28.9677 17.0333 28.9794 17.0466 28.992 17.059L29.0054 17.0722C28.7303 16.7728 28.5656 16.3899 28.5377 15.9858ZM28.5327 14.8182C28.5327 14.6825 28.531 14.545 28.5294 14.4092C28.5256 14.4394 28.5245 14.4698 28.526 14.5001C28.5294 14.568 28.531 14.6343 28.5294 14.6989C28.531 14.7849 28.5327 14.8744 28.5327 14.9605C28.5344 14.9125 28.5344 14.8661 28.5344 14.8182L28.5327 14.8182ZM28.5294 15.5387C28.5294 15.3516 28.5327 15.166 28.5327 14.9789C28.5294 15.3002 28.5177 15.6248 28.5361 15.9461C28.5309 15.8102 28.5294 15.6745 28.5294 15.5387ZM33.3848 13.6009C33.3818 13.5537 33.3762 13.5067 33.3681 13.4601C33.3684 13.4562 33.3678 13.4523 33.3664 13.4486C33.3614 13.4155 33.3531 13.3807 33.3447 13.3476C33.335 13.302 33.3222 13.2572 33.3063 13.2134C33.3013 13.1968 33.2962 13.1818 33.2896 13.1654C33.2807 13.1382 33.27 13.1117 33.2577 13.0859C33.2476 13.0627 33.2377 13.0395 33.2258 13.0164C33.2074 12.9799 33.189 12.9435 33.1689 12.907C33.1556 12.8839 33.1422 12.8607 33.1272 12.8391C33.1171 12.8204 33.1053 12.8027 33.0921 12.7861C33.0771 12.7629 33.062 12.7414 33.0453 12.7199C33.034 12.7032 33.0218 12.6871 33.0086 12.6719C32.9988 12.659 32.9882 12.6468 32.9766 12.6355C33.2202 12.9269 33.3636 13.2877 33.386 13.6655C33.4011 14.02 33.3894 14.3744 33.3894 14.7304C33.3933 14.3545 33.4115 13.9769 33.3848 13.6009ZM33.3932 15.0152C33.3932 15.0864 33.3932 15.1594 33.3949 15.2322C33.398 15.2009 33.3986 15.1693 33.3965 15.1379C33.3949 15.0964 33.3932 15.0567 33.3932 15.0152ZM33.3915 14.8198H33.3898C33.3898 14.8844 33.3915 14.949 33.3932 15.0152C33.3915 14.949 33.3915 14.8844 33.3915 14.8198ZM32.4759 12.1833C32.4675 12.1767 32.4592 12.1718 32.4491 12.1651C32.4123 12.1403 32.3756 12.1171 32.3372 12.0956C32.3172 12.0823 32.2954 12.0707 32.2737 12.0591C32.2336 12.036 32.1918 12.0145 32.1484 11.9946C32.1377 11.9886 32.1265 11.9836 32.115 11.9796C32.0615 11.9532 32.0064 11.93 31.9495 11.9085C31.9161 11.8952 31.881 11.8836 31.8458 11.872C31.7907 11.8523 31.7322 11.8356 31.6737 11.8206C31.6436 11.8124 31.6152 11.8057 31.5851 11.7991C31.5116 11.7825 31.4364 11.7675 31.3613 11.7577C31.3045 11.7494 31.2476 11.7445 31.1892 11.7395C31.6596 11.781 32.1116 11.9405 32.5025 12.2032C32.4941 12.1959 32.4851 12.1893 32.4759 12.1833ZM30.9405 11.7296C30.9265 11.7298 30.9125 11.7309 30.8987 11.7329C30.9288 11.7312 30.9572 11.7312 30.9856 11.7312C30.9705 11.7298 30.9556 11.7293 30.9405 11.7296ZM29.3247 17.367C29.7557 17.6944 30.2778 17.8823 30.8202 17.9053C30.2791 17.8755 29.7591 17.6883 29.3247 17.367ZM28.5377 15.9858C28.5377 16.0023 28.5377 16.0205 28.5394 16.0372C28.5411 16.0654 28.5444 16.0918 28.5478 16.12C28.5563 16.1944 28.5708 16.2681 28.5912 16.3402C28.5962 16.3619 28.6029 16.3817 28.6096 16.4032C28.6146 16.4181 28.6179 16.4314 28.623 16.4447C28.6313 16.4695 28.6413 16.4926 28.6513 16.5174C28.6608 16.5436 28.6719 16.569 28.6848 16.5937C28.6931 16.6149 28.7032 16.6354 28.7149 16.6549C28.735 16.6977 28.7579 16.7392 28.7834 16.7791C28.8068 16.8191 28.8325 16.8578 28.8602 16.8951C28.8886 16.9365 28.9204 16.9763 28.9519 17.0143L28.9569 17.0193C28.9677 17.0333 28.9794 17.0466 28.992 17.059L29.0054 17.0722C28.7303 16.7728 28.5656 16.3899 28.5377 15.9858ZM28.5327 14.8182C28.5327 14.6825 28.531 14.545 28.5294 14.4092C28.5256 14.4394 28.5245 14.4698 28.526 14.5001C28.5294 14.568 28.531 14.6343 28.5294 14.6989C28.531 14.7849 28.5327 14.8744 28.5327 14.9605C28.5344 14.9125 28.5344 14.8661 28.5344 14.8182L28.5327 14.8182ZM28.5294 15.5387C28.5294 15.3516 28.5327 15.166 28.5327 14.9789C28.5294 15.3002 28.5177 15.6248 28.5361 15.9461C28.5309 15.8102 28.5294 15.6745 28.5294 15.5387ZM33.3848 13.6009C33.3818 13.5537 33.3762 13.5067 33.3681 13.4601C33.3684 13.4562 33.3678 13.4523 33.3664 13.4486C33.3614 13.4155 33.3531 13.3807 33.3447 13.3476C33.335 13.302 33.3222 13.2572 33.3063 13.2134C33.3013 13.1968 33.2962 13.1818 33.2896 13.1654C33.2807 13.1382 33.27 13.1117 33.2577 13.0859C33.2476 13.0627 33.2377 13.0395 33.2258 13.0164C33.2074 12.9799 33.189 12.9435 33.1689 12.907C33.1556 12.8839 33.1422 12.8607 33.1272 12.8391C33.1171 12.8204 33.1053 12.8027 33.0921 12.7861C33.0771 12.7629 33.062 12.7414 33.0453 12.7199C33.034 12.7032 33.0218 12.6871 33.0086 12.6719C32.9988 12.659 32.9882 12.6468 32.9766 12.6355C33.2202 12.9269 33.3636 13.2877 33.386 13.6655C33.4011 14.02 33.3894 14.3744 33.3894 14.7304C33.3933 14.3545 33.4115 13.9769 33.3848 13.6009ZM33.3932 15.0152C33.3932 15.0864 33.3932 15.1594 33.3949 15.2322C33.398 15.2009 33.3986 15.1693 33.3965 15.1379C33.3949 15.0964 33.3932 15.0567 33.3932 15.0152ZM33.3915 14.8198H33.3898C33.3898 14.8844 33.3915 14.949 33.3932 15.0152C33.3915 14.949 33.3915 14.8844 33.3915 14.8198ZM32.4759 12.1833C32.4675 12.1767 32.4592 12.1718 32.4491 12.1651C32.4123 12.1403 32.3756 12.1171 32.3372 12.0956C32.3172 12.0823 32.2954 12.0707 32.2737 12.0591C32.2336 12.036 32.1918 12.0145 32.1484 11.9946C32.1377 11.9886 32.1265 11.9836 32.115 11.9796C32.0615 11.9532 32.0064 11.93 31.9495 11.9085C31.9161 11.8952 31.881 11.8836 31.8458 11.872C31.7907 11.8523 31.7322 11.8356 31.6737 11.8206C31.6436 11.8124 31.6152 11.8057 31.5851 11.7991C31.5116 11.7825 31.4364 11.7675 31.3613 11.7577C31.3045 11.7494 31.2476 11.7445 31.1892 11.7395C31.6596 11.781 32.1116 11.9405 32.5025 12.2032C32.4941 12.1959 32.4851 12.1893 32.4759 12.1833ZM30.9405 11.7296C30.9265 11.7298 30.9125 11.7309 30.8987 11.7329C30.9288 11.7312 30.9572 11.7312 30.9856 11.7312C30.9705 11.7298 30.9556 11.7293 30.9405 11.7296ZM29.3247 17.367C29.7557 17.6944 30.2778 17.8823 30.8202 17.9053C30.2791 17.8755 29.7591 17.6883 29.3247 17.367ZM28.5377 15.9858C28.5377 16.0023 28.5377 16.0205 28.5394 16.0372C28.5411 16.0654 28.5444 16.0918 28.5478 16.12C28.5563 16.1944 28.5708 16.2681 28.5912 16.3402C28.5962 16.3619 28.6029 16.3817 28.6096 16.4032C28.6146 16.4181 28.6179 16.4314 28.623 16.4447C28.6313 16.4695 28.6413 16.4926 28.6513 16.5174C28.6608 16.5436 28.6719 16.569 28.6848 16.5937C28.6931 16.6149 28.7032 16.6354 28.7149 16.6549C28.735 16.6977 28.7579 16.7392 28.7834 16.7791C28.8068 16.8191 28.8325 16.8578 28.8602 16.8951C28.8886 16.9365 28.9204 16.9763 28.9519 17.0143L28.9569 17.0193C28.9677 17.0333 28.9794 17.0466 28.992 17.059L29.0054 17.0722C28.7303 16.7728 28.5656 16.3899 28.5377 15.9858ZM28.5327 14.8182C28.5327 14.6825 28.531 14.545 28.5294 14.4092C28.5256 14.4394 28.5245 14.4698 28.526 14.5001C28.5294 14.568 28.531 14.6343 28.5294 14.6989C28.531 14.7849 28.5327 14.8744 28.5327 14.9605C28.5344 14.9125 28.5344 14.8661 28.5344 14.8182L28.5327 14.8182ZM28.5294 15.5387C28.5294 15.3516 28.5327 15.166 28.5327 14.9789C28.5294 15.3002 28.5177 15.6248 28.5361 15.9461C28.5309 15.8102 28.5294 15.6745 28.5294 15.5387Z" fill="#3A86FF"/>
<path d="M22.843 10.518C22.843 4.12373 17.339 1.41431 9.45247 0.43884V5.02476L7.57104 4.06423L5.68961 5.02476V0.105895C3.99868 0.00822153 2.23422 -0.0332031 0.417986 -0.0332031V17.7417C0.412616 21.1598 1.62664 24.4698 3.84546 27.0865C6.06428 29.7033 9.14502 31.4582 12.5431 32.0412C18.7402 33.0882 22.8446 35.3386 22.8446 39.7686C22.8446 35.1917 27.2251 32.9414 33.7687 31.941C36.981 31.437 39.9057 29.8114 42.015 27.3577C44.1243 24.9041 45.2792 21.7839 45.2713 18.5603V-0.0332031C32.885 -0.0332031 22.843 1.8813 22.843 10.518ZM13.0415 20.2395C10.5887 19.9761 8.53347 18.0104 8.65714 15.8739C8.70727 15.031 8.64542 14.1847 8.68386 13.3385C8.78244 11.0728 10.9747 9.32727 13.7183 9.31229C16.639 9.29743 18.8462 11.0828 18.913 13.5256C18.9231 13.9494 18.9147 14.3735 18.9147 14.9233C18.8746 15.7016 18.9832 16.6142 18.6039 17.5069C17.822 19.3584 15.3891 20.4946 13.0415 20.2395ZM28.3168 26.2579C27.6706 27.0866 26.8413 27.7576 25.8927 28.2192C24.9441 28.6809 23.9014 28.9209 22.8446 28.9209C21.7879 28.9209 20.7451 28.6809 19.7965 28.2192C18.8479 27.7576 18.0187 27.0866 17.3725 26.2579C17.2521 26.1013 17.1783 25.9144 17.1594 25.7184C17.1405 25.5224 17.1773 25.3251 17.2656 25.1487C17.3539 24.9724 17.4902 24.824 17.659 24.7203C17.8279 24.6167 18.0226 24.5619 18.2213 24.5621H27.4663C27.6649 24.5619 27.8597 24.6167 28.0285 24.7204C28.1974 24.824 28.3338 24.9723 28.4222 25.1486C28.5106 25.3249 28.5476 25.5221 28.5289 25.7181C28.5103 25.9141 28.4368 26.101 28.3168 26.2579ZM36.6345 17.4953C35.8209 19.4744 33.4665 20.5558 31.017 20.2444C30.2011 20.1757 29.4148 19.9093 28.7272 19.4686C28.0396 19.0279 27.4718 18.4265 27.0737 17.7172C26.8331 17.3235 26.7006 16.8741 26.6894 16.4139C26.6978 15.8905 26.6928 15.3655 26.6928 14.5822C26.7395 14.0191 26.5624 13.1927 26.8766 12.3779C27.4731 10.8227 28.6878 9.77781 30.601 9.41834C33.2411 8.91989 35.612 9.98806 36.6396 12.0433C36.7501 12.2748 36.8191 12.5236 36.8434 12.7785C37.0104 14.3619 37.2594 15.9799 36.6345 17.4953Z" fill="#3A86FF"/>
<path d="M9.45037 0.43939V5.02531L7.56893 4.06478L5.6875 5.02531V0.106445C6.99083 0.180995 8.24901 0.29033 9.45037 0.43939Z" fill="white"/>
<path d="M33.3926 15.0152C33.3926 15.0864 33.3925 15.1593 33.3942 15.2322C33.3974 15.2008 33.3979 15.1693 33.3959 15.1378C33.3941 15.0964 33.3926 15.0567 33.3926 15.0152ZM32.4753 12.1832C32.4669 12.1766 32.4586 12.1717 32.4485 12.1651C32.4118 12.1402 32.375 12.117 32.3366 12.0955C32.3167 12.0822 32.2948 12.0707 32.2731 12.059C32.233 12.0359 32.1913 12.0144 32.1478 11.9945C32.1372 11.9885 32.126 11.9835 32.1144 11.9796C32.0609 11.9531 32.0058 11.9299 31.949 11.9084C31.9155 11.8952 31.8805 11.8836 31.8453 11.872C31.7901 11.8522 31.7316 11.8356 31.6732 11.8206C31.6431 11.8123 31.6146 11.8057 31.5846 11.7991C31.5111 11.7825 31.4359 11.7674 31.3607 11.7576C31.3039 11.7494 31.2454 11.7428 31.1886 11.7395C31.659 11.7809 32.111 11.9405 32.5019 12.2031C32.4935 12.1959 32.4846 12.1892 32.4753 12.1832ZM30.9399 11.7295C30.9259 11.7298 30.912 11.7309 30.8981 11.7328C30.9282 11.7311 30.9566 11.7311 30.985 11.7311C30.9699 11.7298 30.9551 11.7292 30.9399 11.7295ZM29.005 17.0721C28.7299 16.7727 28.565 16.3898 28.5372 15.9857C28.5372 16.0023 28.5372 16.0205 28.5388 16.0371C28.5405 16.0653 28.5439 16.0918 28.5472 16.1199C28.5557 16.1944 28.5702 16.268 28.5906 16.3402C28.5956 16.3618 28.6023 16.3816 28.609 16.4032C28.614 16.4181 28.6174 16.4313 28.6224 16.4446C28.6308 16.4694 28.6408 16.4925 28.6508 16.5174C28.6602 16.5435 28.6714 16.569 28.6842 16.5936C28.6925 16.6148 28.7026 16.6353 28.7143 16.6548C28.7345 16.6976 28.7573 16.7391 28.7828 16.779C28.8063 16.8191 28.8319 16.8578 28.8596 16.895C28.8881 16.9364 28.9198 16.9762 28.9514 17.0142L28.9563 17.0192C28.9671 17.0333 28.9788 17.0466 28.9914 17.059C29.0032 17.0722 29.0132 17.0854 29.0265 17.0987C29.0382 17.112 29.0516 17.1252 29.0649 17.1382C29.0448 17.1168 29.0251 17.0937 29.005 17.0721ZM28.5288 15.5385C28.5288 15.3513 28.5321 15.1658 28.5321 14.9787C28.5288 15.3 28.5171 15.6245 28.5355 15.9458C28.5301 15.8102 28.5288 15.6743 28.5288 15.5385Z" fill="#F7F9FC"/>
<path d="M36.8426 12.7794C36.8183 12.5245 36.7493 12.2757 36.6388 12.0442C35.6112 9.98896 33.2402 8.92079 30.6002 9.41924C28.687 9.77871 27.4723 10.8236 26.8758 12.3788C26.5616 13.1936 26.7387 14.02 26.692 14.5831C26.692 15.3664 26.697 15.8915 26.6886 16.4148C26.6998 16.875 26.8323 17.3244 27.0729 17.7181C27.471 18.4274 28.0388 19.0288 28.7264 19.4695C29.414 19.9102 30.2004 20.1767 31.0163 20.2454C33.4658 20.5567 35.8201 19.4753 36.6338 17.4962C37.2587 15.9807 37.0097 14.3627 36.8426 12.7794ZM33.3923 14.8198C33.3923 14.8843 33.3923 14.949 33.3939 15.0152C33.3939 15.0566 33.3956 15.0964 33.3973 15.1377C33.3993 15.1692 33.3987 15.2007 33.3956 15.2321C33.3772 15.4159 33.2619 15.4623 32.9812 15.4789C31.6512 15.5649 31.063 16.5073 31.7264 17.486C31.8901 17.7311 31.84 17.7742 31.5442 17.8438C31.5024 17.8537 31.4607 17.862 31.4189 17.8686C31.3942 17.8741 31.369 17.878 31.3437 17.8803C31.3038 17.8869 31.2652 17.8918 31.2251 17.8952C31.128 17.9053 31.0304 17.9098 30.9327 17.9084C30.8993 17.9084 30.8658 17.9067 30.8308 17.9051H30.8207C30.2783 17.8821 29.7562 17.6942 29.3252 17.3669C29.2974 17.3473 29.2706 17.3263 29.245 17.3039C29.2066 17.2708 29.1665 17.2376 29.1297 17.2011C29.108 17.1795 29.0863 17.1597 29.0662 17.1381C29.0529 17.1249 29.0395 17.1116 29.0278 17.0985C29.0144 17.0853 29.0044 17.072 28.9927 17.0588C28.9801 17.0464 28.9684 17.0331 28.9576 17.0191L28.9526 17.014C28.9197 16.9762 28.889 16.9364 28.8609 16.8949C28.8332 16.8576 28.8075 16.8189 28.784 16.7789C28.7586 16.739 28.7357 16.6975 28.7156 16.6547C28.7039 16.6351 28.6938 16.6147 28.6855 16.5935C28.6726 16.5688 28.6614 16.5433 28.652 16.5172C28.642 16.4924 28.6321 16.4693 28.6236 16.4444C28.6186 16.4312 28.6153 16.4179 28.6102 16.403C28.6036 16.3814 28.5969 16.3616 28.5919 16.34C28.5715 16.2679 28.557 16.1942 28.5485 16.1198C28.5451 16.0916 28.5418 16.0652 28.5401 16.0369C28.5384 16.0203 28.5384 16.0022 28.5384 15.9856C28.5362 15.9725 28.5356 15.9592 28.5367 15.946C28.5184 15.6247 28.53 15.3002 28.5334 14.9789C28.5342 14.9728 28.5342 14.9667 28.5334 14.9606C28.5334 14.8745 28.5317 14.7851 28.53 14.699C28.5317 14.6344 28.53 14.5682 28.5267 14.5002C28.5252 14.4699 28.5263 14.4395 28.53 14.4093C28.5284 14.1725 28.5267 13.9373 28.5351 13.7021C28.5685 12.6969 29.4925 11.872 30.6687 11.7463H30.672C30.7606 11.7363 30.8508 11.7313 30.941 11.7297C30.9561 11.7294 30.9711 11.73 30.9861 11.7313C31.0156 11.7302 31.0452 11.7308 31.0747 11.733C31.1131 11.7346 31.1515 11.7363 31.19 11.7397C31.2468 11.743 31.3053 11.7496 31.3621 11.7578C31.4372 11.7678 31.5125 11.7827 31.586 11.7993C31.616 11.8059 31.6445 11.8125 31.6745 11.8208C31.733 11.8357 31.7915 11.8524 31.8467 11.8722C31.8817 11.8838 31.9168 11.8954 31.9503 11.9086C32.0072 11.9301 32.0623 11.9533 32.1158 11.9797C32.1273 11.9837 32.1385 11.9887 32.1492 11.9947C32.1926 12.0146 32.2344 12.0361 32.2745 12.0592C32.2962 12.0709 32.3179 12.0824 32.338 12.0957C32.3764 12.1172 32.4132 12.1404 32.4499 12.1653C32.46 12.1719 32.4683 12.1768 32.4767 12.1834C32.5023 12.1996 32.5268 12.2173 32.5502 12.2365C32.5669 12.2481 32.5821 12.2596 32.5986 12.2713C32.627 12.2914 32.6544 12.3129 32.6805 12.3358C32.7039 12.3555 32.7273 12.3756 32.749 12.3955C32.766 12.4095 32.7822 12.4244 32.7975 12.4402C32.8221 12.4621 32.8455 12.4853 32.8676 12.5097C32.8928 12.5363 32.9178 12.5644 32.9428 12.5925C32.9545 12.6058 32.9663 12.6207 32.9779 12.6356C32.9895 12.647 33.0001 12.6591 33.0098 12.672C33.023 12.6873 33.0353 12.7034 33.0466 12.7201C33.0633 12.7416 33.0785 12.7631 33.0934 12.7863C33.1066 12.8029 33.1183 12.8206 33.1285 12.8392C33.1435 12.8609 33.1569 12.8841 33.1702 12.9072C33.1902 12.9436 33.2087 12.98 33.2271 13.0165C33.2388 13.0396 33.2488 13.0629 33.259 13.0861C33.2713 13.1118 33.282 13.1384 33.2909 13.1655C33.2975 13.1821 33.3026 13.1972 33.3076 13.2136C33.3235 13.2574 33.3363 13.3022 33.346 13.3477C33.3558 13.3808 33.3631 13.4146 33.3677 13.4487C33.3691 13.4524 33.3697 13.4564 33.3694 13.4603C33.3775 13.5069 33.3831 13.5539 33.3861 13.6011C33.4128 13.9771 33.3945 14.3547 33.3911 14.7306V14.82L33.3923 14.8198Z" fill="white"/>
<path d="M16.9992 14.8211V14.9188C16.9909 15.0033 16.9876 15.0894 16.9876 15.1788C17.0075 15.0606 17.0114 14.9403 16.9992 14.8211ZM15.7795 12.0059C16.0125 12.1186 16.2266 12.266 16.4144 12.4431C16.2289 12.2633 16.0143 12.1155 15.7795 12.0059ZM14.0852 17.8485C14.0666 17.8468 14.0481 17.8435 14.0301 17.8386C13.9699 17.8286 13.9131 17.8154 13.8546 17.8021C13.8881 17.8121 13.9221 17.8204 13.9565 17.8269C13.9882 17.8353 14.0217 17.8418 14.0551 17.8485C14.1252 17.862 14.1961 17.8714 14.2673 17.8767C14.2055 17.87 14.1454 17.86 14.0852 17.8485ZM12.1553 16.0599C12.1286 15.7601 12.1453 15.4537 12.147 15.1507C12.1486 15.0299 12.1353 14.904 12.127 14.7815C12.1253 15.227 12.1136 15.593 12.1287 15.9606C12.1442 16.2884 12.255 16.6047 12.4477 16.8714C12.2817 16.6302 12.181 16.3508 12.1553 16.0599Z" fill="#F7F9FC"/>
<path d="M18.9116 13.5259C18.8448 11.0831 16.6375 9.29773 13.7168 9.31259C10.9731 9.32757 8.781 11.0731 8.68241 13.3388C8.64397 14.185 8.70582 15.0313 8.65569 15.8742C8.53206 18.0107 10.5872 19.9764 13.0401 20.2398C15.3877 20.4949 17.8205 19.3587 18.6025 17.5072C18.9818 16.6145 18.8732 15.7019 18.9133 14.9236C18.9133 14.3738 18.9216 13.9497 18.9116 13.5259ZM16.9884 15.1787C16.9787 15.2289 16.9629 15.2778 16.9416 15.3244C16.8079 15.6076 16.3668 15.432 16.0728 15.5198C15.1754 15.7898 14.7427 16.6692 15.2607 17.3929C15.5214 17.7605 15.3426 17.8053 14.99 17.8616C14.8921 17.8773 14.7934 17.8872 14.6943 17.8914C14.603 17.8966 14.5115 17.8961 14.4202 17.8897C14.3952 17.8881 14.3684 17.8865 14.3434 17.8848C14.3182 17.8836 14.293 17.8809 14.2682 17.8765C14.1969 17.8713 14.1261 17.8619 14.056 17.8483C14.0226 17.8417 13.9891 17.8351 13.9574 17.8268C13.923 17.8203 13.889 17.812 13.8555 17.8019C13.8464 17.8007 13.8374 17.7985 13.8287 17.7953C13.7937 17.7854 13.7586 17.7756 13.725 17.7655C13.6682 17.749 13.6114 17.7291 13.5563 17.7076C13.4811 17.6794 13.4059 17.6463 13.3341 17.6115C13.3006 17.5949 13.2689 17.5784 13.2371 17.5619C13.158 17.521 13.0821 17.4745 13.0098 17.4227C12.938 17.3714 12.8695 17.3184 12.8043 17.2637C12.7524 17.219 12.7023 17.171 12.6555 17.1229C12.6304 17.0992 12.6069 17.0737 12.5854 17.0468C12.5553 17.012 12.5268 16.9772 12.5002 16.9424C12.4818 16.9192 12.4651 16.8944 12.4483 16.8713C12.2556 16.6045 12.1448 16.2882 12.1293 15.9605C12.1142 15.5928 12.1259 15.2268 12.1276 14.7813C12.1163 14.6698 12.1202 14.5572 12.1393 14.4467V14.4451C12.0829 13.9733 12.1319 13.495 12.2828 13.044C12.4814 12.6483 12.7877 12.3156 13.1672 12.0835C13.5466 11.8514 13.9841 11.7292 14.43 11.7307C14.5207 11.7263 14.6116 11.7268 14.7023 11.7324C14.7357 11.734 14.7691 11.7373 14.8026 11.739C14.8209 11.7406 14.8393 11.744 14.8577 11.7457C14.9431 11.7524 15.028 11.7651 15.1117 11.7837C15.1844 11.7967 15.2563 11.8139 15.327 11.8351C15.3772 11.8484 15.4257 11.8649 15.4741 11.8814C15.4975 11.8898 15.5209 11.8981 15.5443 11.9063C15.6245 11.9354 15.7031 11.9686 15.7799 12.0057C16.0146 12.1153 16.2292 12.2631 16.4148 12.4429C16.4399 12.4677 16.4649 12.4925 16.49 12.5191C16.5184 12.5488 16.5451 12.5787 16.5702 12.61C16.5902 12.6332 16.6086 12.6563 16.6253 12.6795C16.6404 12.6978 16.6554 12.716 16.6688 12.7359C16.7289 12.8163 16.781 12.9022 16.8243 12.9926C16.8678 13.0818 16.9041 13.1743 16.9329 13.2693C16.9517 13.3328 16.9662 13.3975 16.9764 13.463C16.9878 13.5292 16.995 13.5962 16.9981 13.6633C17.0115 14.0243 17.0014 14.3854 16.9997 14.8209C17.012 14.9402 17.0082 15.0605 16.9884 15.1787Z" fill="white"/>
<path d="M33.3945 15.232C33.376 15.4158 33.2608 15.4622 32.9801 15.4788C31.65 15.5648 31.0618 16.5072 31.7252 17.4859C31.889 17.731 31.8388 17.7741 31.5431 17.8437C31.5013 17.8536 31.4595 17.8619 31.4178 17.8685C31.393 17.874 31.3679 17.8779 31.3426 17.8801C31.3027 17.8868 31.2641 17.8917 31.224 17.895C31.1269 17.9052 31.0292 17.9097 30.9316 17.9083C30.8981 17.9083 30.8647 17.9066 30.8296 17.905H30.8196C30.2785 17.8752 29.7584 17.688 29.3241 17.3668C29.2974 17.347 29.2706 17.3253 29.2439 17.3038C29.2054 17.2707 29.1654 17.2375 29.1286 17.201C29.1068 17.1794 29.0852 17.1596 29.0651 17.138C29.045 17.1163 29.0252 17.0933 29.005 17.0718C28.7298 16.7723 28.5649 16.3894 28.5371 15.9853C28.5349 15.9723 28.5343 15.959 28.5354 15.9458C28.5304 15.81 28.5287 15.6742 28.5287 15.5384C28.5287 15.3513 28.5321 15.1658 28.5321 14.9787C28.5329 14.9726 28.5329 14.9664 28.5321 14.9604C28.5337 14.9124 28.5337 14.866 28.5337 14.8181H28.5321C28.5321 14.6823 28.5304 14.5448 28.5287 14.409C28.527 14.1722 28.5254 13.937 28.5337 13.7018C28.5671 12.6966 29.4911 11.8717 30.6673 11.746H30.6706C30.7458 11.7377 30.821 11.7341 30.898 11.7327C30.9281 11.731 30.9565 11.731 30.9849 11.731C31.0144 11.7299 31.0439 11.7305 31.0734 11.7327C31.1118 11.7343 31.1503 11.736 31.1887 11.7394C31.6591 11.7808 32.1111 11.9404 32.502 12.203C32.5171 12.213 32.5339 12.2246 32.5488 12.2362C32.5655 12.2478 32.5807 12.2593 32.5973 12.271C32.6256 12.2911 32.653 12.3126 32.6791 12.3355C32.7025 12.3552 32.7259 12.3753 32.7476 12.3952C32.7646 12.4092 32.7808 12.4241 32.7961 12.4399L32.8662 12.5094C32.8914 12.536 32.9164 12.5641 32.9415 12.5922C32.9531 12.6055 32.9649 12.6204 32.9766 12.6353C33.2201 12.9268 33.3635 13.2876 33.3859 13.6654C33.401 14.0198 33.3893 14.3743 33.3893 14.7303V14.8197C33.3893 14.8843 33.3909 14.9489 33.3926 15.0151C33.3929 15.0863 33.3929 15.1591 33.3945 15.232Z" fill="#4A4E69"/>
<path d="M28.5356 15.9456C28.517 15.6244 28.5288 15.2998 28.5322 14.9785C28.5322 15.1656 28.5288 15.3511 28.5288 15.5383C28.5288 15.6741 28.5305 15.8099 28.5356 15.9456Z" fill="#4A4E69"/>
<path d="M29.0668 17.1379C29.0535 17.1247 29.0401 17.1114 29.0284 17.0983C29.0151 17.0851 29.0051 17.0718 28.9933 17.0586C28.9807 17.0462 28.969 17.0329 28.9582 17.0188L28.9533 17.0138C28.9214 16.9758 28.8898 16.936 28.8615 16.8947C28.8338 16.8574 28.8082 16.8187 28.7847 16.7787C28.7592 16.7388 28.7364 16.6973 28.7162 16.6545C28.7045 16.6349 28.6944 16.6145 28.6861 16.5933C28.6733 16.5686 28.6621 16.5431 28.6527 16.517C28.6427 16.4922 28.6327 16.4691 28.6243 16.4442C28.6193 16.4309 28.6159 16.4177 28.6109 16.4028C28.6042 16.3812 28.5975 16.3614 28.5925 16.3398C28.5721 16.2677 28.5576 16.194 28.5491 16.1195C28.5458 16.0914 28.5424 16.065 28.5407 16.0367C28.5391 16.0201 28.5391 16.002 28.5391 15.9854C28.5669 16.3894 28.7318 16.7723 29.0069 17.0718C29.0268 17.0932 29.0468 17.1164 29.0668 17.1379Z" fill="#4A4E69"/>
<path d="M30.9853 11.7312C30.9569 11.7312 30.9285 11.7312 30.8984 11.7329C30.9123 11.7309 30.9262 11.7298 30.9402 11.7296C30.9553 11.7293 30.9703 11.7298 30.9853 11.7312Z" fill="#4A4E69"/>
<path d="M32.5047 12.2029C32.1138 11.9403 31.6618 11.7807 31.1914 11.7393C31.2482 11.7426 31.3067 11.7492 31.3635 11.7574C31.4387 11.7674 31.5139 11.7823 31.5874 11.7989C31.6174 11.8055 31.6459 11.8121 31.676 11.8204C31.7344 11.8353 31.7929 11.852 31.8481 11.8718C31.8831 11.8834 31.9182 11.895 31.9518 11.9082C32.0086 11.9297 32.0637 11.9529 32.1172 11.9794C32.1288 11.9833 32.14 11.9883 32.1506 11.9943C32.1941 12.0142 32.2358 12.0357 32.2759 12.0588C32.2976 12.0705 32.3193 12.082 32.3394 12.0953C32.3778 12.1168 32.4146 12.14 32.4513 12.1649C32.4614 12.1715 32.4697 12.1764 32.4781 12.183C32.4874 12.189 32.4963 12.1957 32.5047 12.2029Z" fill="#4A4E69"/>
<path d="M33.3979 15.1373C33.4 15.1687 33.3994 15.2003 33.3962 15.2316C33.3945 15.1588 33.3945 15.0859 33.3945 15.0146C33.3947 15.0561 33.3962 15.0958 33.3979 15.1373Z" fill="#4A4E69"/>
<path d="M17.0007 14.8216V14.9193C16.9924 15.0038 16.989 15.0899 16.989 15.1793C16.9793 15.2296 16.9636 15.2785 16.9422 15.3251C16.8086 15.6082 16.3674 15.4327 16.0734 15.5205C15.1761 15.7904 14.7433 16.6698 15.2613 17.3935C15.522 17.7611 15.3432 17.8059 14.9906 17.8622C14.8927 17.8779 14.794 17.8879 14.6949 17.892C14.6036 17.8973 14.5121 17.8967 14.4208 17.8903C14.3958 17.8887 14.369 17.8871 14.344 17.8854C14.3188 17.8842 14.2937 17.8815 14.2688 17.8772C14.207 17.8705 14.1468 17.8606 14.0867 17.849C14.0681 17.8473 14.0496 17.844 14.0315 17.8391C13.9714 17.8291 13.9146 17.8159 13.8561 17.8026C13.8469 17.8014 13.838 17.7991 13.8293 17.796C13.7942 17.786 13.7592 17.7762 13.7256 17.7661C13.6688 17.7479 13.612 17.7297 13.5569 17.7082C13.4817 17.6801 13.4065 17.6469 13.3346 17.6122C13.3012 17.5956 13.2695 17.579 13.2377 17.5625C13.1592 17.5194 13.084 17.4731 13.0104 17.4234C12.9386 17.372 12.8701 17.319 12.8049 17.2644C12.753 17.2196 12.7029 17.1716 12.6561 17.1236C12.6327 17.0988 12.6093 17.0739 12.586 17.0474C12.5558 17.0126 12.5274 16.9779 12.5007 16.9431C12.4823 16.9199 12.4656 16.8951 12.4489 16.8719C12.2828 16.6308 12.1821 16.3513 12.1565 16.0605C12.1298 15.7607 12.1465 15.4543 12.1481 15.1513C12.1498 15.0305 12.1365 14.9046 12.1282 14.7821V14.7042C12.1365 14.6214 12.1399 14.5353 12.1399 14.4475V14.4459C12.0835 13.9741 12.1325 13.4958 12.2834 13.0448C12.482 12.6491 12.7883 12.3163 13.1678 12.0842C13.5472 11.8521 13.9846 11.7299 14.4305 11.7314C14.5213 11.727 14.6122 11.7276 14.7029 11.7331C14.7363 11.7348 14.7697 11.7381 14.8031 11.7398C14.8215 11.7414 14.8399 11.7447 14.8583 11.7464C14.9385 11.7546 15.0187 11.7679 15.0972 11.7828C15.1757 11.7977 15.2528 11.8144 15.3278 11.8358C15.3763 11.8507 15.4264 11.8656 15.4748 11.8822C15.4982 11.8905 15.5216 11.8988 15.545 11.907C15.6252 11.9361 15.7038 11.9693 15.7806 12.0064C16.0136 12.1191 16.2277 12.2666 16.4155 12.4436C16.4406 12.4684 16.4657 12.4933 16.4908 12.5198C16.5192 12.5496 16.5459 12.5794 16.571 12.6107C16.591 12.6339 16.6093 12.6571 16.6261 12.6802C16.8224 12.9366 16.9422 13.2425 16.972 13.563C16.9987 13.8645 16.982 14.1691 16.9803 14.4739C16.9807 14.588 16.9924 14.7057 17.0007 14.8216Z" fill="#4A4E69"/>
<path d="M12.4477 16.8712C12.255 16.6044 12.1442 16.2881 12.1287 15.9604C12.1136 15.5928 12.1253 15.2267 12.127 14.7812C12.1354 14.9038 12.1487 15.0297 12.147 15.1505C12.1453 15.4536 12.1286 15.76 12.1553 16.0596C12.181 16.3505 12.2817 16.63 12.4477 16.8712Z" fill="#4A4E69"/>
<path d="M14.2681 17.8773C14.1969 17.8721 14.1261 17.8626 14.056 17.8491C14.0226 17.8425 13.9891 17.8359 13.9574 17.8276C13.923 17.8211 13.889 17.8128 13.8555 17.8027C13.9139 17.816 13.9708 17.8293 14.0309 17.8392C14.049 17.8441 14.0675 17.8474 14.0861 17.8491C14.1462 17.8606 14.2063 17.8707 14.2681 17.8773Z" fill="#4A4E69"/>
<path d="M16.4162 12.4431C16.2283 12.266 16.0142 12.1186 15.7812 12.0059C16.016 12.1155 16.2306 12.2633 16.4162 12.4431Z" fill="#4A4E69"/>
<path d="M16.9902 15.179C16.9902 15.0896 16.9936 15.0035 17.002 14.919V14.8213C17.0143 14.9405 17.0103 15.0608 16.9902 15.179Z" fill="#4A4E69"/>
<path d="M28.3165 26.2583C27.6703 27.087 26.841 27.758 25.8924 28.2196C24.9438 28.6813 23.9011 28.9213 22.8443 28.9213C21.7875 28.9213 20.7448 28.6813 19.7962 28.2196C18.8476 27.758 18.0184 27.087 17.3722 26.2583C17.2518 26.1016 17.178 25.9148 17.1591 25.7188C17.1402 25.5228 17.177 25.3255 17.2653 25.1491C17.3536 24.9728 17.4898 24.8244 17.6587 24.7207C17.8276 24.617 18.0223 24.5623 18.221 24.5625H27.466C27.6646 24.5623 27.8594 24.6171 28.0282 24.7207C28.1971 24.8244 28.3335 24.9727 28.4219 25.1489C28.5103 25.3252 28.5473 25.5225 28.5286 25.7185C28.51 25.9145 28.4365 26.1014 28.3165 26.2583Z" fill="white"/>
</g>
<defs>
<clipPath id="clip0_77_92">
<rect width="128" height="39.5789" fill="white"/>
</clipPath>
</defs>
</svg>
