<svg width="24" height="24" viewBox="0 0 24 24" fill="none" xmlns="http://www.w3.org/2000/svg">
<rect width="24" height="24" fill="#787878"/>
<path d="M-238 -779C-238 -780.105 -237.105 -781 -236 -781H19908C19909.1 -781 19910 -780.105 19910 -779V1193C19910 1194.1 19909.1 1195 19908 1195H-236C-237.105 1195 -238 1194.1 -238 1193V-779Z" fill="#3A3A3A"/>
<path d="M-236 -781V-780H19908V-781V-782H-236V-781ZM19910 -779H19909V1193H19910H19911V-779H19910ZM19908 1195V1194H-236V1195V1196H19908V1195ZM-238 1193H-237V-779H-238H-239V1193H-238ZM-236 1195V1194C-236.552 1194 -237 1193.55 -237 1193H-238H-239C-239 1194.66 -237.658 1196 -236 1196V1195ZM19910 1193H19909C19909 1193.55 19908.6 1194 19908 1194V1195V1196C19909.7 1196 19911 1194.66 19911 1193H19910ZM19908 -781V-780C19908.6 -780 19909 -779.553 19909 -779H19910H19911C19911 -780.657 19909.7 -782 19908 -782V-781ZM-236 -781V-782C-237.657 -782 -239 -780.657 -239 -779H-238H-237C-237 -779.552 -236.552 -780 -236 -780V-781Z" fill="white" fill-opacity="0.1"/>
<rect width="1440" height="1024" transform="translate(-48 -458)" fill="#F8F8F8"/>
<rect width="233" height="1024" transform="translate(-48 -458)" fill="white"/>
<rect x="-16" y="-6" width="169" height="36" rx="8" fill="url(#paint0_radial_77_92)"/>
<path d="M9 10.75H14C14.0663 10.75 14.1299 10.7764 14.1768 10.8232C14.2236 10.8701 14.25 10.9337 14.25 11C14.25 11.0663 14.2236 11.1299 14.1768 11.1768C14.1299 11.2236 14.0663 11.25 14 11.25H9C8.95028 11.25 8.90209 11.2352 8.86133 11.208L8.82324 11.1768C8.77636 11.1299 8.75 11.0663 8.75 11C8.75 10.9503 8.76482 10.9021 8.79199 10.8613L8.82324 10.8232C8.87013 10.7764 8.9337 10.75 9 10.75ZM9 7.75H16C16.0497 7.75 16.0979 7.76482 16.1387 7.79199L16.1768 7.82324C16.2236 7.87012 16.25 7.93369 16.25 8C16.25 8.06631 16.2236 8.12987 16.1768 8.17676C16.1299 8.22364 16.0663 8.25 16 8.25H9C8.95028 8.25 8.90209 8.23518 8.86133 8.20801L8.82324 8.17676C8.77636 8.12987 8.75 8.0663 8.75 8C8.75 7.95028 8.76482 7.90209 8.79199 7.86133L8.82324 7.82324C8.85844 7.78804 8.90306 7.76447 8.95117 7.75488L9 7.75Z" fill="#737373" stroke="#737373"/>
<path fill-rule="evenodd" clip-rule="evenodd" d="M8.5 3.25C7.24022 3.25 6.03204 3.75045 5.14124 4.64124C4.25045 5.53204 3.75 6.74022 3.75 8V18C3.75 18.9946 4.14509 19.9484 4.84835 20.6517C5.55161 21.3549 6.50544 21.75 7.5 21.75H18.5C18.9641 21.75 19.4092 21.5656 19.7374 21.2374C20.0656 20.9092 20.25 20.4641 20.25 20V5C20.25 4.53587 20.0656 4.09075 19.7374 3.76256C19.4092 3.43437 18.9641 3.25 18.5 3.25H8.5ZM18.75 14.25V5C18.75 4.9337 18.7237 4.87011 18.6768 4.82322C18.6299 4.77634 18.5663 4.75 18.5 4.75H8.5C7.63805 4.75 6.8114 5.09241 6.2019 5.7019C5.59241 6.3114 5.25 7.13805 5.25 8V15C5.89843 14.5119 6.68838 14.2485 7.5 14.25H18.75ZM18.75 15.75H7.5C6.90326 15.75 6.33097 15.9871 5.90901 16.409C5.48705 16.831 5.25 17.4033 5.25 18C5.25 18.5967 5.48705 19.169 5.90901 19.591C6.33097 20.0129 6.90326 20.25 7.5 20.25H18.5C18.5663 20.25 18.6299 20.2237 18.6768 20.1768C18.7237 20.1299 18.75 20.0663 18.75 20V15.75Z" fill="#737373"/>
<defs>
<radialGradient id="paint0_radial_77_92" cx="0" cy="0" r="1" gradientUnits="userSpaceOnUse" gradientTransform="translate(68.5 -6) rotate(90) scale(37.0867 174.101)">
<stop stop-color="white" stop-opacity="0.65"/>
<stop offset="1" stop-color="white" stop-opacity="0.67"/>
</radialGradient>
</defs>
</svg>
