<svg width="24" height="24" viewBox="0 0 24 24" fill="none" xmlns="http://www.w3.org/2000/svg">
<rect width="24" height="24" fill="#787878"/>
<path d="M-238 -539C-238 -540.105 -237.105 -541 -236 -541H19908C19909.1 -541 19910 -540.105 19910 -539V1433C19910 1434.1 19909.1 1435 19908 1435H-236C-237.105 1435 -238 1434.1 -238 1433V-539Z" fill="#3A3A3A"/>
<path d="M-236 -541V-540H19908V-541V-542H-236V-541ZM19910 -539H19909V1433H19910H19911V-539H19910ZM19908 1435V1434H-236V1435V1436H19908V1435ZM-238 1433H-237V-539H-238H-239V1433H-238ZM-236 1435V1434C-236.552 1434 -237 1433.55 -237 1433H-238H-239C-239 1434.66 -237.658 1436 -236 1436V1435ZM19910 1433H19909C19909 1433.55 19908.6 1434 19908 1434V1435V1436C19909.7 1436 19911 1434.66 19911 1433H19910ZM19908 -541V-540C19908.6 -540 19909 -539.553 19909 -539H19910H19911C19911 -540.657 19909.7 -542 19908 -542V-541ZM-236 -541V-542C-237.657 -542 -239 -540.657 -239 -539H-238H-237C-237 -539.552 -236.552 -540 -236 -540V-541Z" fill="white" fill-opacity="0.1"/>
<rect width="1440" height="1024" transform="translate(-48 -218)" fill="#F8F8F8"/>
<rect width="233" height="1024" transform="translate(-48 -218)" fill="white"/>
<rect x="-16" y="-6" width="169" height="36" rx="8" fill="url(#paint0_linear_77_92)"/>
<mask id="path-4-inside-1_77_92" fill="white">
<path d="M6.27145 8.73145C6.27145 8.78438 6.26966 8.83632 6.26513 8.88625V8.93321C6.25901 8.86595 6.26113 8.79808 6.27145 8.73145Z"/>
</mask>
<path d="M6.27145 8.73145C6.27145 8.78438 6.26966 8.83632 6.26513 8.88625V8.93321C6.25901 8.86595 6.26113 8.79808 6.27145 8.73145Z" fill="#3A86FF"/>
<path d="M6.27145 8.73145H7.11355L5.43925 8.60262L6.27145 8.73145ZM6.26513 8.88625L5.42646 8.81026L5.42303 8.84818V8.88625H6.26513ZM6.26513 8.93321L5.4265 9.00959L7.10724 8.93321H6.26513ZM6.27145 8.73145H5.42934C5.42934 8.76624 5.42813 8.79189 5.42646 8.81026L6.26513 8.88625L7.1038 8.96225C7.11119 8.88075 7.11355 8.80253 7.11355 8.73145H6.27145ZM6.26513 8.88625H5.42303V8.93321H6.26513H7.10724V8.88625H6.26513ZM6.26513 8.93321L7.10377 8.85683C7.10386 8.85785 7.10385 8.8589 7.10364 8.86028L6.27145 8.73145L5.43925 8.60262C5.41841 8.73725 5.41415 8.87404 5.4265 9.00959L6.26513 8.93321Z" fill="#737373" mask="url(#path-4-inside-1_77_92)"/>
<mask id="path-6-inside-2_77_92" fill="white">
<path d="M6.4365 10.1928C6.33337 10.032 6.27409 9.84125 6.26578 9.64361C6.25772 9.42195 6.26399 9.20124 6.26489 8.93262C6.26937 9.00651 6.2765 9.08242 6.27556 9.15526C6.27468 9.33803 6.26574 9.52277 6.28004 9.70346C6.29375 9.87888 6.34763 10.0474 6.4365 10.1928Z"/>
</mask>
<path d="M6.4365 10.1928C6.33337 10.032 6.27409 9.84125 6.26578 9.64361C6.25772 9.42195 6.26399 9.20124 6.26489 8.93262C6.26937 9.00651 6.2765 9.08242 6.27556 9.15526C6.27468 9.33803 6.26574 9.52277 6.28004 9.70346C6.29375 9.87888 6.34763 10.0474 6.4365 10.1928Z" fill="#3A86FF"/>
<path d="M6.4365 10.1928L5.72756 10.6473L7.15509 9.75379L6.4365 10.1928ZM6.26578 9.64361L5.42422 9.67424L5.42442 9.67896L6.26578 9.64361ZM6.26489 8.93262L7.10545 8.88164L5.42279 8.92981L6.26489 8.93262ZM6.27556 9.15526L5.43349 9.14441L5.43346 9.15123L6.27556 9.15526ZM6.28004 9.70346L7.11958 9.63782L7.11952 9.63704L6.28004 9.70346ZM6.4365 10.1928L7.14543 9.73836C7.12569 9.70757 7.10942 9.66241 7.10715 9.60827L6.26578 9.64361L5.42442 9.67896C5.43875 10.0201 5.54105 10.3564 5.72756 10.6473L6.4365 10.1928ZM6.26578 9.64361L7.10733 9.61299C7.10007 9.41344 7.106 9.23197 7.10699 8.93543L6.26489 8.93262L5.42279 8.92981C5.42198 9.1705 5.41537 9.43046 5.42424 9.67424L6.26578 9.64361ZM6.26489 8.93262L5.42433 8.9836C5.43117 9.09637 5.43393 9.11281 5.43352 9.14441L6.27556 9.15526L7.11759 9.16612C7.11906 9.05204 7.10757 8.91664 7.10545 8.88164L6.26489 8.93262ZM6.27556 9.15526L5.43346 9.15123C5.43283 9.28401 5.42255 9.54232 5.44056 9.76989L6.28004 9.70346L7.11952 9.63704C7.10893 9.50322 7.11654 9.39204 7.11765 9.15929L6.27556 9.15526ZM6.28004 9.70346L5.4405 9.76911C5.46421 10.0724 5.5576 10.3695 5.7179 10.6319L6.4365 10.1928L7.15509 9.75379C7.13767 9.72528 7.1233 9.6854 7.11958 9.63782L6.28004 9.70346Z" fill="#737373" mask="url(#path-6-inside-2_77_92)"/>
<mask id="path-8-inside-3_77_92" fill="white">
<path d="M7.41027 10.7999C7.37216 10.7967 7.33425 10.791 7.29675 10.7828C7.27886 10.7788 7.26096 10.7749 7.244 10.7698C7.22559 10.7659 7.20739 10.7609 7.18945 10.7549C7.22074 10.7629 7.25114 10.7709 7.28335 10.7769C7.29301 10.7798 7.30288 10.7818 7.31286 10.7828C7.34501 10.7898 7.37719 10.7959 7.41027 10.7999Z"/>
</mask>
<path d="M7.41027 10.7999C7.37216 10.7967 7.33425 10.791 7.29675 10.7828C7.27886 10.7788 7.26096 10.7749 7.244 10.7698C7.22559 10.7659 7.20739 10.7609 7.18945 10.7549C7.22074 10.7629 7.25114 10.7709 7.28335 10.7769C7.29301 10.7798 7.30288 10.7818 7.31286 10.7828C7.34501 10.7898 7.37719 10.7959 7.41027 10.7999Z" fill="#3A86FF"/>
<path d="M7.41027 10.7999L7.34053 11.6391L7.51148 9.96385L7.41027 10.7999ZM7.29675 10.7828L7.11273 11.6046L7.11755 11.6057L7.29675 10.7828ZM7.244 10.7698L7.48334 9.96247L7.45159 9.95306L7.4192 9.94617L7.244 10.7698ZM7.18945 10.7549L7.3983 9.93909L6.91997 11.5527L7.18945 10.7549ZM7.28335 10.7769L7.5294 9.97153L7.48421 9.95772L7.43776 9.94905L7.28335 10.7769ZM7.31286 10.7828L7.4904 9.95966L7.44457 9.94978L7.39793 9.94504L7.31286 10.7828ZM7.41027 10.7999L7.48001 9.96064C7.47883 9.96055 7.47749 9.96036 7.47594 9.96002L7.29675 10.7828L7.11755 11.6057C7.19102 11.6217 7.26549 11.6328 7.34053 11.6391L7.41027 10.7999ZM7.29675 10.7828L7.48075 9.96108C7.47547 9.9599 7.47272 9.95929 7.46988 9.95864C7.46736 9.95807 7.46645 9.95785 7.46646 9.95785C7.46651 9.95786 7.4681 9.95825 7.4708 9.95896C7.47351 9.95967 7.47781 9.96083 7.48334 9.96247L7.244 10.7698L7.00465 11.5772C7.05454 11.592 7.10258 11.6023 7.11274 11.6046L7.29675 10.7828ZM7.244 10.7698L7.4192 9.94617C7.43282 9.94907 7.44609 9.95272 7.45894 9.95706L7.18945 10.7549L6.91997 11.5527C6.96868 11.5692 7.01837 11.5828 7.0688 11.5935L7.244 10.7698ZM7.18945 10.7549L6.98061 11.5707C7.00297 11.5764 7.06341 11.5925 7.12893 11.6047L7.28335 10.7769L7.43776 9.94905C7.4406 9.94959 7.44009 9.94959 7.43352 9.94801C7.43024 9.94721 7.42603 9.94617 7.42004 9.94465C7.41331 9.94294 7.4078 9.94152 7.3983 9.93909L7.18945 10.7549ZM7.28335 10.7769L7.03729 11.5822C7.0991 11.6011 7.16288 11.614 7.22778 11.6206L7.31286 10.7828L7.39793 9.94504C7.44288 9.94961 7.48691 9.95855 7.5294 9.97153L7.28335 10.7769ZM7.31286 10.7828L7.13531 11.606C7.18066 11.6158 7.2405 11.6276 7.30906 11.6359L7.41027 10.7999L7.51148 9.96385C7.51389 9.96415 7.50937 9.96375 7.4904 9.95966L7.31286 10.7828Z" fill="#737373" mask="url(#path-8-inside-3_77_92)"/>
<mask id="path-10-inside-4_77_92" fill="white">
<path d="M7.97883 7.15605C7.93861 7.14304 7.89749 7.13305 7.85547 7.12406C7.85818 7.1239 7.8609 7.12424 7.86351 7.12509C7.90246 7.1329 7.94096 7.14323 7.97883 7.15605Z"/>
</mask>
<path d="M7.97883 7.15605C7.93861 7.14304 7.89749 7.13305 7.85547 7.12406C7.85818 7.1239 7.8609 7.12424 7.86351 7.12509C7.90246 7.1329 7.94096 7.14323 7.97883 7.15605Z" fill="#3A86FF"/>
<path d="M7.97883 7.15605L7.71961 7.95727L8.24881 6.3584L7.97883 7.15605ZM7.85547 7.12406L7.8038 6.28355L7.67936 7.94755L7.85547 7.12406ZM7.86351 7.12509L7.60414 7.92626L7.65037 7.94122L7.698 7.95077L7.86351 7.12509ZM7.97883 7.15605L8.23805 6.35484C8.15924 6.32934 8.087 6.31243 8.03158 6.30058L7.85547 7.12406L7.67936 7.94755C7.70797 7.95367 7.71797 7.95674 7.71961 7.95727L7.97883 7.15605ZM7.85547 7.12406L7.90713 7.96458C7.80351 7.97095 7.70077 7.95754 7.60414 7.92626L7.86351 7.12509L8.12289 6.32392C8.02103 6.29095 7.91285 6.27684 7.8038 6.28355L7.85547 7.12406ZM7.86351 7.12509L7.698 7.95077C7.70134 7.95144 7.70495 7.95239 7.70885 7.95371L7.97883 7.15605L8.24881 6.3584C8.17697 6.33408 8.10358 6.31436 8.02903 6.29941L7.86351 7.12509Z" fill="#737373" mask="url(#path-10-inside-4_77_92)"/>
<mask id="path-12-inside-5_77_92" fill="white">
<path d="M8.56044 7.52243C8.45993 7.41566 8.34535 7.32674 8.2207 7.25879C8.34632 7.32489 8.46115 7.41401 8.56044 7.52243Z"/>
</mask>
<path d="M8.56044 7.52243C8.45993 7.41566 8.34535 7.32674 8.2207 7.25879C8.34632 7.32489 8.46115 7.41401 8.56044 7.52243Z" fill="#3A86FF"/>
<path d="M8.56044 7.52243L7.94728 8.09964L9.18148 6.9537L8.56044 7.52243ZM8.2207 7.25879L8.61287 6.51357L7.81763 7.99816L8.2207 7.25879ZM8.56044 7.52243L9.17361 6.94522C9.01411 6.77579 8.82915 6.63138 8.62378 6.51942L8.2207 7.25879L7.81763 7.99816C7.86156 8.02211 7.90576 8.05553 7.94728 8.09964L8.56044 7.52243ZM8.2207 7.25879L7.82853 8.004C7.8652 8.0233 7.90328 8.05172 7.93941 8.09116L8.56044 7.52243L9.18148 6.9537C9.01902 6.77629 8.82744 6.62649 8.61287 6.51357L8.2207 7.25879Z" fill="#737373" mask="url(#path-12-inside-5_77_92)"/>
<path d="M8.87405 8.9573C8.86959 8.88741 8.86338 8.81645 8.86338 8.74755C8.86428 8.5638 8.8732 8.38009 8.8589 8.1983C8.84299 8.00503 8.77887 7.82062 8.67383 7.66602C8.68187 7.67705 8.68992 7.68801 8.69707 7.7C8.72922 7.74847 8.7571 7.80031 8.78029 7.85479C8.80357 7.9086 8.823 7.96439 8.83839 8.02163C8.84845 8.05995 8.85622 8.09896 8.86165 8.13842C8.86777 8.17839 8.87165 8.21874 8.87326 8.25924C8.88033 8.47695 8.87495 8.69461 8.87405 8.9573Z" fill="#3A86FF"/>
<path d="M8.86719 9.17274C8.86719 9.11882 8.869 9.06689 8.8735 9.01593V8.95703C8.88007 9.02892 8.87795 9.10147 8.86719 9.17274Z" fill="#3A86FF"/>
<path d="M17.6412 8.22123C17.6396 8.19277 17.6366 8.16443 17.6322 8.13633C17.6324 8.13396 17.6321 8.13158 17.6313 8.12935C17.6287 8.10942 17.6242 8.08845 17.6197 8.06845C17.6145 8.04099 17.6077 8.01397 17.5992 7.98755C17.5965 7.97757 17.5938 7.96849 17.5902 7.95859C17.5855 7.94222 17.5798 7.92621 17.5732 7.91066C17.5678 7.89667 17.5625 7.88268 17.5561 7.86874C17.5462 7.84674 17.5364 7.82479 17.5257 7.80281C17.5185 7.78887 17.5114 7.77487 17.5033 7.76184C17.4979 7.75061 17.4916 7.73992 17.4846 7.7299C17.4765 7.71591 17.4685 7.70294 17.4595 7.68997C17.4535 7.6799 17.4469 7.67023 17.4398 7.66101C17.4347 7.65324 17.4289 7.6459 17.4228 7.63906C17.5531 7.81479 17.6298 8.03238 17.6418 8.26018C17.6499 8.47391 17.6436 8.68763 17.6436 8.90231C17.6457 8.67562 17.6555 8.44792 17.6412 8.22123ZM17.6457 9.07404C17.6457 9.11695 17.6457 9.16095 17.6466 9.20488C17.6482 9.18597 17.6485 9.16694 17.6475 9.14798C17.6466 9.123 17.6457 9.09902 17.6457 9.07404ZM17.6448 8.9562H17.6439C17.6439 8.99515 17.6448 9.03412 17.6457 9.07404C17.6448 9.03412 17.6448 8.99515 17.6448 8.9562ZM17.1548 7.36642C17.1503 7.36241 17.1459 7.35945 17.1405 7.35545C17.1208 7.34048 17.1012 7.32649 17.0806 7.3135C17.0699 7.30552 17.0583 7.29854 17.0466 7.29153C17.0252 7.27758 17.0028 7.2646 16.9796 7.25261C16.9739 7.249 16.9679 7.24598 16.9617 7.24359C16.9331 7.22765 16.9036 7.21366 16.8732 7.20069C16.8553 7.19271 16.8365 7.18572 16.8177 7.17871C16.7882 7.1668 16.7569 7.15676 16.7256 7.14773C16.7095 7.14275 16.6943 7.13875 16.6782 7.13477C16.6389 7.12476 16.5986 7.11569 16.5584 7.10978C16.528 7.1048 16.4976 7.1018 16.4663 7.09882C16.718 7.12382 16.9599 7.22004 17.1691 7.3784C17.1646 7.37404 17.1598 7.37005 17.1548 7.36642ZM16.3333 7.09281C16.3258 7.09297 16.3183 7.09364 16.3109 7.09482C16.327 7.09379 16.3422 7.09379 16.3574 7.09379C16.3494 7.09298 16.3414 7.09264 16.3333 7.09281ZM15.4687 10.4922C15.6993 10.6895 15.9787 10.8028 16.2689 10.8167C15.9794 10.7987 15.7011 10.6859 15.4687 10.4922ZM15.0476 9.65927C15.0476 9.66925 15.0476 9.68021 15.0485 9.69025C15.0494 9.70727 15.0512 9.72321 15.053 9.74018C15.0575 9.78508 15.0653 9.82949 15.0762 9.87299C15.0789 9.88603 15.0825 9.89797 15.086 9.91098C15.0887 9.91997 15.0905 9.92795 15.0932 9.93596C15.0977 9.95093 15.1031 9.96488 15.1084 9.97985C15.1134 9.9956 15.1194 10.011 15.1263 10.0258C15.1307 10.0386 15.1361 10.051 15.1424 10.0627C15.1532 10.0885 15.1654 10.1136 15.179 10.1376C15.1916 10.1618 15.2053 10.1851 15.2202 10.2076C15.2354 10.2325 15.2524 10.2565 15.2692 10.2794L15.2719 10.2825C15.2777 10.2909 15.2839 10.2989 15.2907 10.3064L15.2979 10.3144C15.1506 10.1338 15.0625 9.90294 15.0476 9.65927ZM15.0449 8.95525C15.0449 8.87338 15.044 8.79048 15.0431 8.70861C15.0412 8.72679 15.0406 8.74513 15.0414 8.76343C15.0431 8.80438 15.044 8.84432 15.0431 8.88327C15.044 8.93516 15.0449 8.9891 15.0449 9.04101C15.0458 9.0121 15.0458 8.98412 15.0458 8.9552L15.0449 8.95525ZM15.0431 9.38967C15.0431 9.27683 15.0449 9.16497 15.0449 9.05214C15.0431 9.24587 15.0369 9.44158 15.0467 9.63531C15.0439 9.55341 15.0431 9.47159 15.0431 9.38967ZM17.6412 8.22123C17.6396 8.19277 17.6366 8.16443 17.6322 8.13633C17.6324 8.13396 17.6321 8.13158 17.6313 8.12935C17.6287 8.10942 17.6242 8.08845 17.6197 8.06845C17.6145 8.04099 17.6077 8.01397 17.5992 7.98755C17.5965 7.97757 17.5938 7.96849 17.5902 7.95859C17.5855 7.94222 17.5798 7.92621 17.5732 7.91066C17.5678 7.89667 17.5625 7.88268 17.5561 7.86874C17.5462 7.84674 17.5364 7.82479 17.5257 7.80281C17.5185 7.78887 17.5114 7.77487 17.5033 7.76184C17.4979 7.75061 17.4916 7.73992 17.4846 7.7299C17.4765 7.71591 17.4685 7.70294 17.4595 7.68997C17.4535 7.6799 17.4469 7.67023 17.4398 7.66101C17.4347 7.65324 17.4289 7.6459 17.4228 7.63906C17.5531 7.81479 17.6298 8.03238 17.6418 8.26018C17.6499 8.47391 17.6436 8.68763 17.6436 8.90231C17.6457 8.67562 17.6555 8.44792 17.6412 8.22123ZM17.6457 9.07404C17.6457 9.11695 17.6457 9.16095 17.6466 9.20488C17.6482 9.18597 17.6485 9.16694 17.6475 9.14798C17.6466 9.123 17.6457 9.09902 17.6457 9.07404ZM17.6448 8.9562H17.6439C17.6439 8.99515 17.6448 9.03412 17.6457 9.07404C17.6448 9.03412 17.6448 8.99515 17.6448 8.9562ZM17.1548 7.36642C17.1503 7.36241 17.1459 7.35945 17.1405 7.35545C17.1208 7.34048 17.1012 7.32649 17.0806 7.3135C17.0699 7.30552 17.0583 7.29854 17.0466 7.29153C17.0252 7.27758 17.0028 7.2646 16.9796 7.25261C16.9739 7.249 16.9679 7.24598 16.9617 7.24359C16.9331 7.22765 16.9036 7.21366 16.8732 7.20069C16.8553 7.19271 16.8365 7.18572 16.8177 7.17871C16.7882 7.1668 16.7569 7.15676 16.7256 7.14773C16.7095 7.14275 16.6943 7.13875 16.6782 7.13477C16.6389 7.12476 16.5986 7.11569 16.5584 7.10978C16.528 7.1048 16.4976 7.1018 16.4663 7.09882C16.718 7.12382 16.9599 7.22004 17.1691 7.3784C17.1646 7.37404 17.1598 7.37005 17.1548 7.36642ZM16.3333 7.09281C16.3258 7.09297 16.3183 7.09364 16.3109 7.09482C16.327 7.09379 16.3422 7.09379 16.3574 7.09379C16.3494 7.09298 16.3414 7.09264 16.3333 7.09281ZM15.4687 10.4922C15.6993 10.6895 15.9787 10.8028 16.2689 10.8167C15.9794 10.7987 15.7011 10.6859 15.4687 10.4922ZM15.0476 9.65927C15.0476 9.66925 15.0476 9.68021 15.0485 9.69025C15.0494 9.70727 15.0512 9.72321 15.053 9.74018C15.0575 9.78508 15.0653 9.82949 15.0762 9.87299C15.0789 9.88603 15.0825 9.89797 15.086 9.91098C15.0887 9.91997 15.0905 9.92795 15.0932 9.93596C15.0977 9.95093 15.1031 9.96488 15.1084 9.97985C15.1134 9.9956 15.1194 10.011 15.1263 10.0258C15.1307 10.0386 15.1361 10.051 15.1424 10.0627C15.1532 10.0885 15.1654 10.1136 15.179 10.1376C15.1916 10.1618 15.2053 10.1851 15.2202 10.2076C15.2354 10.2325 15.2524 10.2565 15.2692 10.2794L15.2719 10.2825C15.2777 10.2909 15.2839 10.2989 15.2907 10.3064L15.2979 10.3144C15.1506 10.1338 15.0625 9.90294 15.0476 9.65927ZM15.0449 8.95525C15.0449 8.87338 15.044 8.79048 15.0431 8.70861C15.0412 8.72679 15.0406 8.74513 15.0414 8.76343C15.0431 8.80438 15.044 8.84432 15.0431 8.88327C15.044 8.93516 15.0449 8.9891 15.0449 9.04101C15.0458 9.0121 15.0458 8.98412 15.0458 8.9552L15.0449 8.95525ZM15.0431 9.38967C15.0431 9.27683 15.0449 9.16497 15.0449 9.05214C15.0431 9.24587 15.0369 9.44158 15.0467 9.63531C15.0439 9.55341 15.0431 9.47159 15.0431 9.38967ZM15.0431 9.38967C15.0431 9.27683 15.0449 9.16497 15.0449 9.05214C15.0431 9.24587 15.0369 9.44158 15.0467 9.63531C15.0439 9.55341 15.0431 9.47159 15.0431 9.38967ZM15.0449 8.95525C15.0449 8.87338 15.044 8.79048 15.0431 8.70861C15.0412 8.72679 15.0406 8.74513 15.0414 8.76343C15.0431 8.80438 15.044 8.84432 15.0431 8.88327C15.044 8.93516 15.0449 8.9891 15.0449 9.04101C15.0458 9.0121 15.0458 8.98412 15.0458 8.9552L15.0449 8.95525ZM15.0476 9.65927C15.0476 9.66925 15.0476 9.68021 15.0485 9.69025C15.0494 9.70727 15.0512 9.72321 15.053 9.74018C15.0575 9.78508 15.0653 9.82949 15.0762 9.87299C15.0789 9.88603 15.0825 9.89797 15.086 9.91098C15.0887 9.91997 15.0905 9.92795 15.0932 9.93596C15.0977 9.95093 15.1031 9.96488 15.1084 9.97985C15.1134 9.9956 15.1194 10.011 15.1263 10.0258C15.1307 10.0386 15.1361 10.051 15.1424 10.0627C15.1532 10.0885 15.1654 10.1136 15.179 10.1376C15.1916 10.1618 15.2053 10.1851 15.2202 10.2076C15.2354 10.2325 15.2524 10.2565 15.2692 10.2794L15.2719 10.2825C15.2777 10.2909 15.2839 10.2989 15.2907 10.3064L15.2979 10.3144C15.1506 10.1338 15.0625 9.90294 15.0476 9.65927ZM15.4687 10.4922C15.6993 10.6895 15.9787 10.8028 16.2689 10.8167C15.9794 10.7987 15.7011 10.6859 15.4687 10.4922ZM16.3333 7.09281C16.3258 7.09297 16.3183 7.09364 16.3109 7.09482C16.327 7.09379 16.3422 7.09379 16.3574 7.09379C16.3494 7.09298 16.3414 7.09264 16.3333 7.09281ZM17.1548 7.36642C17.1503 7.36241 17.1459 7.35945 17.1405 7.35545C17.1208 7.34048 17.1012 7.32649 17.0806 7.3135C17.0699 7.30552 17.0583 7.29854 17.0466 7.29153C17.0252 7.27758 17.0028 7.2646 16.9796 7.25261C16.9739 7.249 16.9679 7.24598 16.9617 7.24359C16.9331 7.22765 16.9036 7.21366 16.8732 7.20069C16.8553 7.19271 16.8365 7.18572 16.8177 7.17871C16.7882 7.1668 16.7569 7.15676 16.7256 7.14773C16.7095 7.14275 16.6943 7.13875 16.6782 7.13477C16.6389 7.12476 16.5986 7.11569 16.5584 7.10978C16.528 7.1048 16.4976 7.1018 16.4663 7.09882C16.718 7.12382 16.9599 7.22004 17.1691 7.3784C17.1646 7.37404 17.1598 7.37005 17.1548 7.36642ZM17.6448 8.9562H17.6439C17.6439 8.99515 17.6448 9.03412 17.6457 9.07404C17.6448 9.03412 17.6448 8.99515 17.6448 8.9562ZM17.6412 8.22123C17.6396 8.19277 17.6366 8.16443 17.6322 8.13633C17.6324 8.13396 17.6321 8.13158 17.6313 8.12935C17.6287 8.10942 17.6242 8.08845 17.6197 8.06845C17.6145 8.04099 17.6077 8.01397 17.5992 7.98755C17.5965 7.97757 17.5938 7.96849 17.5902 7.95859C17.5855 7.94222 17.5798 7.92621 17.5732 7.91066C17.5678 7.89667 17.5625 7.88268 17.5561 7.86874C17.5462 7.84674 17.5364 7.82479 17.5257 7.80281C17.5185 7.78887 17.5114 7.77487 17.5033 7.76184C17.4979 7.75061 17.4916 7.73992 17.4846 7.7299C17.4765 7.71591 17.4685 7.70294 17.4595 7.68997C17.4535 7.6799 17.4469 7.67023 17.4398 7.66101C17.4347 7.65324 17.4289 7.6459 17.4228 7.63906C17.5531 7.81479 17.6298 8.03238 17.6418 8.26018C17.6499 8.47391 17.6436 8.68763 17.6436 8.90231C17.6457 8.67562 17.6555 8.44792 17.6412 8.22123ZM17.6457 9.07404C17.6457 9.11695 17.6457 9.16095 17.6466 9.20488C17.6482 9.18597 17.6485 9.16694 17.6475 9.14798C17.6466 9.123 17.6457 9.09902 17.6457 9.07404ZM17.6457 9.07404C17.6457 9.11695 17.6457 9.16095 17.6466 9.20488C17.6482 9.18597 17.6485 9.16694 17.6475 9.14798C17.6466 9.123 17.6457 9.09902 17.6457 9.07404ZM17.6412 8.22123C17.6396 8.19277 17.6366 8.16443 17.6322 8.13633C17.6324 8.13396 17.6321 8.13158 17.6313 8.12935C17.6287 8.10942 17.6242 8.08845 17.6197 8.06845C17.6145 8.04099 17.6077 8.01397 17.5992 7.98755C17.5965 7.97757 17.5938 7.96849 17.5902 7.95859C17.5855 7.94222 17.5798 7.92621 17.5732 7.91066C17.5678 7.89667 17.5625 7.88268 17.5561 7.86874C17.5462 7.84674 17.5364 7.82479 17.5257 7.80281C17.5185 7.78887 17.5114 7.77487 17.5033 7.76184C17.4979 7.75061 17.4916 7.73992 17.4846 7.7299C17.4765 7.71591 17.4685 7.70294 17.4595 7.68997C17.4535 7.6799 17.4469 7.67023 17.4398 7.66101C17.4347 7.65324 17.4289 7.6459 17.4228 7.63906C17.5531 7.81479 17.6298 8.03238 17.6418 8.26018C17.6499 8.47391 17.6436 8.68763 17.6436 8.90231C17.6457 8.67562 17.6555 8.44792 17.6412 8.22123ZM17.6448 8.9562H17.6439C17.6439 8.99515 17.6448 9.03412 17.6457 9.07404C17.6448 9.03412 17.6448 8.99515 17.6448 8.9562ZM17.1548 7.36642C17.1503 7.36241 17.1459 7.35945 17.1405 7.35545C17.1208 7.34048 17.1012 7.32649 17.0806 7.3135C17.0699 7.30552 17.0583 7.29854 17.0466 7.29153C17.0252 7.27758 17.0028 7.2646 16.9796 7.25261C16.9739 7.249 16.9679 7.24598 16.9617 7.24359C16.9331 7.22765 16.9036 7.21366 16.8732 7.20069C16.8553 7.19271 16.8365 7.18572 16.8177 7.17871C16.7882 7.1668 16.7569 7.15676 16.7256 7.14773C16.7095 7.14275 16.6943 7.13875 16.6782 7.13477C16.6389 7.12476 16.5986 7.11569 16.5584 7.10978C16.528 7.1048 16.4976 7.1018 16.4663 7.09882C16.718 7.12382 16.9599 7.22004 17.1691 7.3784C17.1646 7.37404 17.1598 7.37005 17.1548 7.36642ZM16.3333 7.09281C16.3258 7.09297 16.3183 7.09364 16.3109 7.09482C16.327 7.09379 16.3422 7.09379 16.3574 7.09379C16.3494 7.09298 16.3414 7.09264 16.3333 7.09281ZM15.4687 10.4922C15.6993 10.6895 15.9787 10.8028 16.2689 10.8167C15.9794 10.7987 15.7011 10.6859 15.4687 10.4922ZM15.0476 9.65927C15.0476 9.66925 15.0476 9.68021 15.0485 9.69025C15.0494 9.70727 15.0512 9.72321 15.053 9.74018C15.0575 9.78508 15.0653 9.82949 15.0762 9.87299C15.0789 9.88603 15.0825 9.89797 15.086 9.91098C15.0887 9.91997 15.0905 9.92795 15.0932 9.93596C15.0977 9.95093 15.1031 9.96488 15.1084 9.97985C15.1134 9.9956 15.1194 10.011 15.1263 10.0258C15.1307 10.0386 15.1361 10.051 15.1424 10.0627C15.1532 10.0885 15.1654 10.1136 15.179 10.1376C15.1916 10.1618 15.2053 10.1851 15.2202 10.2076C15.2354 10.2325 15.2524 10.2565 15.2692 10.2794L15.2719 10.2825C15.2777 10.2909 15.2839 10.2989 15.2907 10.3064L15.2979 10.3144C15.1506 10.1338 15.0625 9.90294 15.0476 9.65927ZM15.0449 8.95525C15.0449 8.87338 15.044 8.79048 15.0431 8.70861C15.0412 8.72679 15.0406 8.74513 15.0414 8.76343C15.0431 8.80438 15.044 8.84432 15.0431 8.88327C15.044 8.93516 15.0449 8.9891 15.0449 9.04101C15.0458 9.0121 15.0458 8.98412 15.0458 8.9552L15.0449 8.95525ZM15.0431 9.38967C15.0431 9.27683 15.0449 9.16497 15.0449 9.05214C15.0431 9.24587 15.0369 9.44158 15.0467 9.63531C15.0439 9.55341 15.0431 9.47159 15.0431 9.38967ZM15.0431 9.38967C15.0431 9.27683 15.0449 9.16497 15.0449 9.05214C15.0431 9.24587 15.0369 9.44158 15.0467 9.63531C15.0439 9.55341 15.0431 9.47159 15.0431 9.38967ZM15.0449 8.95525C15.0449 8.87338 15.044 8.79048 15.0431 8.70861C15.0412 8.72679 15.0406 8.74513 15.0414 8.76343C15.0431 8.80438 15.044 8.84432 15.0431 8.88327C15.044 8.93516 15.0449 8.9891 15.0449 9.04101C15.0458 9.0121 15.0458 8.98412 15.0458 8.9552L15.0449 8.95525ZM15.0476 9.65927C15.0476 9.66925 15.0476 9.68021 15.0485 9.69025C15.0494 9.70727 15.0512 9.72321 15.053 9.74018C15.0575 9.78508 15.0653 9.82949 15.0762 9.87299C15.0789 9.88603 15.0825 9.89797 15.086 9.91098C15.0887 9.91997 15.0905 9.92795 15.0932 9.93596C15.0977 9.95093 15.1031 9.96488 15.1084 9.97985C15.1134 9.9956 15.1194 10.011 15.1263 10.0258C15.1307 10.0386 15.1361 10.051 15.1424 10.0627C15.1532 10.0885 15.1654 10.1136 15.179 10.1376C15.1916 10.1618 15.2053 10.1851 15.2202 10.2076C15.2354 10.2325 15.2524 10.2565 15.2692 10.2794L15.2719 10.2825C15.2777 10.2909 15.2839 10.2989 15.2907 10.3064L15.2979 10.3144C15.1506 10.1338 15.0625 9.90294 15.0476 9.65927ZM15.4687 10.4922C15.6993 10.6895 15.9787 10.8028 16.2689 10.8167C15.9794 10.7987 15.7011 10.6859 15.4687 10.4922ZM16.3333 7.09281C16.3258 7.09297 16.3183 7.09364 16.3109 7.09482C16.327 7.09379 16.3422 7.09379 16.3574 7.09379C16.3494 7.09298 16.3414 7.09264 16.3333 7.09281ZM17.1548 7.36642C17.1503 7.36241 17.1459 7.35945 17.1405 7.35545C17.1208 7.34048 17.1012 7.32649 17.0806 7.3135C17.0699 7.30552 17.0583 7.29854 17.0466 7.29153C17.0252 7.27758 17.0028 7.2646 16.9796 7.25261C16.9739 7.249 16.9679 7.24598 16.9617 7.24359C16.9331 7.22765 16.9036 7.21366 16.8732 7.20069C16.8553 7.19271 16.8365 7.18572 16.8177 7.17871C16.7882 7.1668 16.7569 7.15676 16.7256 7.14773C16.7095 7.14275 16.6943 7.13875 16.6782 7.13477C16.6389 7.12476 16.5986 7.11569 16.5584 7.10978C16.528 7.1048 16.4976 7.1018 16.4663 7.09882C16.718 7.12382 16.9599 7.22004 17.1691 7.3784C17.1646 7.37404 17.1598 7.37005 17.1548 7.36642ZM17.6448 8.9562H17.6439C17.6439 8.99515 17.6448 9.03412 17.6457 9.07404C17.6448 9.03412 17.6448 8.99515 17.6448 8.9562ZM17.6412 8.22123C17.6396 8.19277 17.6366 8.16443 17.6322 8.13633C17.6324 8.13396 17.6321 8.13158 17.6313 8.12935C17.6287 8.10942 17.6242 8.08845 17.6197 8.06845C17.6145 8.04099 17.6077 8.01397 17.5992 7.98755C17.5965 7.97757 17.5938 7.96849 17.5902 7.95859C17.5855 7.94222 17.5798 7.92621 17.5732 7.91066C17.5678 7.89667 17.5625 7.88268 17.5561 7.86874C17.5462 7.84674 17.5364 7.82479 17.5257 7.80281C17.5185 7.78887 17.5114 7.77487 17.5033 7.76184C17.4979 7.75061 17.4916 7.73992 17.4846 7.7299C17.4765 7.71591 17.4685 7.70294 17.4595 7.68997C17.4535 7.6799 17.4469 7.67023 17.4398 7.66101C17.4347 7.65324 17.4289 7.6459 17.4228 7.63906C17.5531 7.81479 17.6298 8.03238 17.6418 8.26018C17.6499 8.47391 17.6436 8.68763 17.6436 8.90231C17.6457 8.67562 17.6555 8.44792 17.6412 8.22123ZM17.6457 9.07404C17.6457 9.11695 17.6457 9.16095 17.6466 9.20488C17.6482 9.18597 17.6485 9.16694 17.6475 9.14798C17.6466 9.123 17.6457 9.09902 17.6457 9.07404ZM17.6457 9.07404C17.6457 9.11695 17.6457 9.16095 17.6466 9.20488C17.6482 9.18597 17.6485 9.16694 17.6475 9.14798C17.6466 9.123 17.6457 9.09902 17.6457 9.07404ZM17.6412 8.22123C17.6396 8.19277 17.6366 8.16443 17.6322 8.13633C17.6324 8.13396 17.6321 8.13158 17.6313 8.12935C17.6287 8.10942 17.6242 8.08845 17.6197 8.06845C17.6145 8.04099 17.6077 8.01397 17.5992 7.98755C17.5965 7.97757 17.5938 7.96849 17.5902 7.95859C17.5855 7.94222 17.5798 7.92621 17.5732 7.91066C17.5678 7.89667 17.5625 7.88268 17.5561 7.86874C17.5462 7.84674 17.5364 7.82479 17.5257 7.80281C17.5185 7.78887 17.5114 7.77487 17.5033 7.76184C17.4979 7.75061 17.4916 7.73992 17.4846 7.7299C17.4765 7.71591 17.4685 7.70294 17.4595 7.68997C17.4535 7.6799 17.4469 7.67023 17.4398 7.66101C17.4347 7.65324 17.4289 7.6459 17.4228 7.63906C17.5531 7.81479 17.6298 8.03238 17.6418 8.26018C17.6499 8.47391 17.6436 8.68763 17.6436 8.90231C17.6457 8.67562 17.6555 8.44792 17.6412 8.22123ZM17.6448 8.9562H17.6439C17.6439 8.99515 17.6448 9.03412 17.6457 9.07404C17.6448 9.03412 17.6448 8.99515 17.6448 8.9562ZM17.1548 7.36642C17.1503 7.36241 17.1459 7.35945 17.1405 7.35545C17.1208 7.34048 17.1012 7.32649 17.0806 7.3135C17.0699 7.30552 17.0583 7.29854 17.0466 7.29153C17.0252 7.27758 17.0028 7.2646 16.9796 7.25261C16.9739 7.249 16.9679 7.24598 16.9617 7.24359C16.9331 7.22765 16.9036 7.21366 16.8732 7.20069C16.8553 7.19271 16.8365 7.18572 16.8177 7.17871C16.7882 7.1668 16.7569 7.15676 16.7256 7.14773C16.7095 7.14275 16.6943 7.13875 16.6782 7.13477C16.6389 7.12476 16.5986 7.11569 16.5584 7.10978C16.528 7.1048 16.4976 7.1018 16.4663 7.09882C16.718 7.12382 16.9599 7.22004 17.1691 7.3784C17.1646 7.37404 17.1598 7.37005 17.1548 7.36642ZM16.3333 7.09281C16.3258 7.09297 16.3183 7.09364 16.3109 7.09482C16.327 7.09379 16.3422 7.09379 16.3574 7.09379C16.3494 7.09298 16.3414 7.09264 16.3333 7.09281ZM15.4687 10.4922C15.6993 10.6895 15.9787 10.8028 16.2689 10.8167C15.9794 10.7987 15.7011 10.6859 15.4687 10.4922ZM15.0476 9.65927C15.0476 9.66925 15.0476 9.68021 15.0485 9.69025C15.0494 9.70727 15.0512 9.72321 15.053 9.74018C15.0575 9.78508 15.0653 9.82949 15.0762 9.87299C15.0789 9.88603 15.0825 9.89797 15.086 9.91098C15.0887 9.91997 15.0905 9.92795 15.0932 9.93596C15.0977 9.95093 15.1031 9.96488 15.1084 9.97985C15.1134 9.9956 15.1194 10.011 15.1263 10.0258C15.1307 10.0386 15.1361 10.051 15.1424 10.0627C15.1532 10.0885 15.1654 10.1136 15.179 10.1376C15.1916 10.1618 15.2053 10.1851 15.2202 10.2076C15.2354 10.2325 15.2524 10.2565 15.2692 10.2794L15.2719 10.2825C15.2777 10.2909 15.2839 10.2989 15.2907 10.3064L15.2979 10.3144C15.1506 10.1338 15.0625 9.90294 15.0476 9.65927ZM15.0449 8.95525C15.0449 8.87338 15.044 8.79048 15.0431 8.70861C15.0412 8.72679 15.0406 8.74513 15.0414 8.76343C15.0431 8.80438 15.044 8.84432 15.0431 8.88327C15.044 8.93516 15.0449 8.9891 15.0449 9.04101C15.0458 9.0121 15.0458 8.98412 15.0458 8.9552L15.0449 8.95525ZM15.0431 9.38967C15.0431 9.27683 15.0449 9.16497 15.0449 9.05214C15.0431 9.24587 15.0369 9.44158 15.0467 9.63531C15.0439 9.55341 15.0431 9.47159 15.0431 9.38967ZM15.0431 9.38967C15.0431 9.27683 15.0449 9.16497 15.0449 9.05214C15.0431 9.24587 15.0369 9.44158 15.0467 9.63531C15.0439 9.55341 15.0431 9.47159 15.0431 9.38967ZM15.0449 8.95525C15.0449 8.87338 15.044 8.79048 15.0431 8.70861C15.0412 8.72679 15.0406 8.74513 15.0414 8.76343C15.0431 8.80438 15.044 8.84432 15.0431 8.88327C15.044 8.93516 15.0449 8.9891 15.0449 9.04101C15.0458 9.0121 15.0458 8.98412 15.0458 8.9552L15.0449 8.95525ZM15.0476 9.65927C15.0476 9.66925 15.0476 9.68021 15.0485 9.69025C15.0494 9.70727 15.0512 9.72321 15.053 9.74018C15.0575 9.78508 15.0653 9.82949 15.0762 9.87299C15.0789 9.88603 15.0825 9.89797 15.086 9.91098C15.0887 9.91997 15.0905 9.92795 15.0932 9.93596C15.0977 9.95093 15.1031 9.96488 15.1084 9.97985C15.1134 9.9956 15.1194 10.011 15.1263 10.0258C15.1307 10.0386 15.1361 10.051 15.1424 10.0627C15.1532 10.0885 15.1654 10.1136 15.179 10.1376C15.1916 10.1618 15.2053 10.1851 15.2202 10.2076C15.2354 10.2325 15.2524 10.2565 15.2692 10.2794L15.2719 10.2825C15.2777 10.2909 15.2839 10.2989 15.2907 10.3064L15.2979 10.3144C15.1506 10.1338 15.0625 9.90294 15.0476 9.65927ZM15.4687 10.4922C15.6993 10.6895 15.9787 10.8028 16.2689 10.8167C15.9794 10.7987 15.7011 10.6859 15.4687 10.4922ZM16.3333 7.09281C16.3258 7.09297 16.3183 7.09364 16.3109 7.09482C16.327 7.09379 16.3422 7.09379 16.3574 7.09379C16.3494 7.09298 16.3414 7.09264 16.3333 7.09281ZM17.1548 7.36642C17.1503 7.36241 17.1459 7.35945 17.1405 7.35545C17.1208 7.34048 17.1012 7.32649 17.0806 7.3135C17.0699 7.30552 17.0583 7.29854 17.0466 7.29153C17.0252 7.27758 17.0028 7.2646 16.9796 7.25261C16.9739 7.249 16.9679 7.24598 16.9617 7.24359C16.9331 7.22765 16.9036 7.21366 16.8732 7.20069C16.8553 7.19271 16.8365 7.18572 16.8177 7.17871C16.7882 7.1668 16.7569 7.15676 16.7256 7.14773C16.7095 7.14275 16.6943 7.13875 16.6782 7.13477C16.6389 7.12476 16.5986 7.11569 16.5584 7.10978C16.528 7.1048 16.4976 7.1018 16.4663 7.09882C16.718 7.12382 16.9599 7.22004 17.1691 7.3784C17.1646 7.37404 17.1598 7.37005 17.1548 7.36642ZM17.6448 8.9562H17.6439C17.6439 8.99515 17.6448 9.03412 17.6457 9.07404C17.6448 9.03412 17.6448 8.99515 17.6448 8.9562ZM17.6412 8.22123C17.6396 8.19277 17.6366 8.16443 17.6322 8.13633C17.6324 8.13396 17.6321 8.13158 17.6313 8.12935C17.6287 8.10942 17.6242 8.08845 17.6197 8.06845C17.6145 8.04099 17.6077 8.01397 17.5992 7.98755C17.5965 7.97757 17.5938 7.96849 17.5902 7.95859C17.5855 7.94222 17.5798 7.92621 17.5732 7.91066C17.5678 7.89667 17.5625 7.88268 17.5561 7.86874C17.5462 7.84674 17.5364 7.82479 17.5257 7.80281C17.5185 7.78887 17.5114 7.77487 17.5033 7.76184C17.4979 7.75061 17.4916 7.73992 17.4846 7.7299C17.4765 7.71591 17.4685 7.70294 17.4595 7.68997C17.4535 7.6799 17.4469 7.67023 17.4398 7.66101C17.4347 7.65324 17.4289 7.6459 17.4228 7.63906C17.5531 7.81479 17.6298 8.03238 17.6418 8.26018C17.6499 8.47391 17.6436 8.68763 17.6436 8.90231C17.6457 8.67562 17.6555 8.44792 17.6412 8.22123ZM17.6457 9.07404C17.6457 9.11695 17.6457 9.16095 17.6466 9.20488C17.6482 9.18597 17.6485 9.16694 17.6475 9.14798C17.6466 9.123 17.6457 9.09902 17.6457 9.07404ZM17.6457 9.07404C17.6457 9.11695 17.6457 9.16095 17.6466 9.20488C17.6482 9.18597 17.6485 9.16694 17.6475 9.14798C17.6466 9.123 17.6457 9.09902 17.6457 9.07404ZM17.6412 8.22123C17.6396 8.19277 17.6366 8.16443 17.6322 8.13633C17.6324 8.13396 17.6321 8.13158 17.6313 8.12935C17.6287 8.10942 17.6242 8.08845 17.6197 8.06845C17.6145 8.04099 17.6077 8.01397 17.5992 7.98755C17.5965 7.97757 17.5938 7.96849 17.5902 7.95859C17.5855 7.94222 17.5798 7.92621 17.5732 7.91066C17.5678 7.89667 17.5625 7.88268 17.5561 7.86874C17.5462 7.84674 17.5364 7.82479 17.5257 7.80281C17.5185 7.78887 17.5114 7.77487 17.5033 7.76184C17.4979 7.75061 17.4916 7.73992 17.4846 7.7299C17.4765 7.71591 17.4685 7.70294 17.4595 7.68997C17.4535 7.6799 17.4469 7.67023 17.4398 7.66101C17.4347 7.65324 17.4289 7.6459 17.4228 7.63906C17.5531 7.81479 17.6298 8.03238 17.6418 8.26018C17.6499 8.47391 17.6436 8.68763 17.6436 8.90231C17.6457 8.67562 17.6555 8.44792 17.6412 8.22123ZM17.6448 8.9562H17.6439C17.6439 8.99515 17.6448 9.03412 17.6457 9.07404C17.6448 9.03412 17.6448 8.99515 17.6448 8.9562ZM17.1548 7.36642C17.1503 7.36241 17.1459 7.35945 17.1405 7.35545C17.1208 7.34048 17.1012 7.32649 17.0806 7.3135C17.0699 7.30552 17.0583 7.29854 17.0466 7.29153C17.0252 7.27758 17.0028 7.2646 16.9796 7.25261C16.9739 7.249 16.9679 7.24598 16.9617 7.24359C16.9331 7.22765 16.9036 7.21366 16.8732 7.20069C16.8553 7.19271 16.8365 7.18572 16.8177 7.17871C16.7882 7.1668 16.7569 7.15676 16.7256 7.14773C16.7095 7.14275 16.6943 7.13875 16.6782 7.13477C16.6389 7.12476 16.5986 7.11569 16.5584 7.10978C16.528 7.1048 16.4976 7.1018 16.4663 7.09882C16.718 7.12382 16.9599 7.22004 17.1691 7.3784C17.1646 7.37404 17.1598 7.37005 17.1548 7.36642ZM16.3333 7.09281C16.3258 7.09297 16.3183 7.09364 16.3109 7.09482C16.327 7.09379 16.3422 7.09379 16.3574 7.09379C16.3494 7.09298 16.3414 7.09264 16.3333 7.09281ZM15.4687 10.4922C15.6993 10.6895 15.9787 10.8028 16.2689 10.8167C15.9794 10.7987 15.7011 10.6859 15.4687 10.4922ZM15.0476 9.65927C15.0476 9.66925 15.0476 9.68021 15.0485 9.69025C15.0494 9.70727 15.0512 9.72321 15.053 9.74018C15.0575 9.78508 15.0653 9.82949 15.0762 9.87299C15.0789 9.88603 15.0825 9.89797 15.086 9.91098C15.0887 9.91997 15.0905 9.92795 15.0932 9.93596C15.0977 9.95093 15.1031 9.96488 15.1084 9.97985C15.1134 9.9956 15.1194 10.011 15.1263 10.0258C15.1307 10.0386 15.1361 10.051 15.1424 10.0627C15.1532 10.0885 15.1654 10.1136 15.179 10.1376C15.1916 10.1618 15.2053 10.1851 15.2202 10.2076C15.2354 10.2325 15.2524 10.2565 15.2692 10.2794L15.2719 10.2825C15.2777 10.2909 15.2839 10.2989 15.2907 10.3064L15.2979 10.3144C15.1506 10.1338 15.0625 9.90294 15.0476 9.65927ZM15.0449 8.95525C15.0449 8.87338 15.044 8.79048 15.0431 8.70861C15.0412 8.72679 15.0406 8.74513 15.0414 8.76343C15.0431 8.80438 15.044 8.84432 15.0431 8.88327C15.044 8.93516 15.0449 8.9891 15.0449 9.04101C15.0458 9.0121 15.0458 8.98412 15.0458 8.9552L15.0449 8.95525ZM15.0431 9.38967C15.0431 9.27683 15.0449 9.16497 15.0449 9.05214C15.0431 9.24587 15.0369 9.44158 15.0467 9.63531C15.0439 9.55341 15.0431 9.47159 15.0431 9.38967ZM15.0431 9.38967C15.0431 9.27683 15.0449 9.16497 15.0449 9.05214C15.0431 9.24587 15.0369 9.44158 15.0467 9.63531C15.0439 9.55341 15.0431 9.47159 15.0431 9.38967ZM15.0449 8.95525C15.0449 8.87338 15.044 8.79048 15.0431 8.70861C15.0412 8.72679 15.0406 8.74513 15.0414 8.76343C15.0431 8.80438 15.044 8.84432 15.0431 8.88327C15.044 8.93516 15.0449 8.9891 15.0449 9.04101C15.0458 9.0121 15.0458 8.98412 15.0458 8.9552L15.0449 8.95525ZM15.0476 9.65927C15.0476 9.66925 15.0476 9.68021 15.0485 9.69025C15.0494 9.70727 15.0512 9.72321 15.053 9.74018C15.0575 9.78508 15.0653 9.82949 15.0762 9.87299C15.0789 9.88603 15.0825 9.89797 15.086 9.91098C15.0887 9.91997 15.0905 9.92795 15.0932 9.93596C15.0977 9.95093 15.1031 9.96488 15.1084 9.97985C15.1134 9.9956 15.1194 10.011 15.1263 10.0258C15.1307 10.0386 15.1361 10.051 15.1424 10.0627C15.1532 10.0885 15.1654 10.1136 15.179 10.1376C15.1916 10.1618 15.2053 10.1851 15.2202 10.2076C15.2354 10.2325 15.2524 10.2565 15.2692 10.2794L15.2719 10.2825C15.2777 10.2909 15.2839 10.2989 15.2907 10.3064L15.2979 10.3144C15.1506 10.1338 15.0625 9.90294 15.0476 9.65927ZM15.4687 10.4922C15.6993 10.6895 15.9787 10.8028 16.2689 10.8167C15.9794 10.7987 15.7011 10.6859 15.4687 10.4922ZM16.3333 7.09281C16.3258 7.09297 16.3183 7.09364 16.3109 7.09482C16.327 7.09379 16.3422 7.09379 16.3574 7.09379C16.3494 7.09298 16.3414 7.09264 16.3333 7.09281ZM17.1548 7.36642C17.1503 7.36241 17.1459 7.35945 17.1405 7.35545C17.1208 7.34048 17.1012 7.32649 17.0806 7.3135C17.0699 7.30552 17.0583 7.29854 17.0466 7.29153C17.0252 7.27758 17.0028 7.2646 16.9796 7.25261C16.9739 7.249 16.9679 7.24598 16.9617 7.24359C16.9331 7.22765 16.9036 7.21366 16.8732 7.20069C16.8553 7.19271 16.8365 7.18572 16.8177 7.17871C16.7882 7.1668 16.7569 7.15676 16.7256 7.14773C16.7095 7.14275 16.6943 7.13875 16.6782 7.13477C16.6389 7.12476 16.5986 7.11569 16.5584 7.10978C16.528 7.1048 16.4976 7.1018 16.4663 7.09882C16.718 7.12382 16.9599 7.22004 17.1691 7.3784C17.1646 7.37404 17.1598 7.37005 17.1548 7.36642ZM17.6448 8.9562H17.6439C17.6439 8.99515 17.6448 9.03412 17.6457 9.07404C17.6448 9.03412 17.6448 8.99515 17.6448 8.9562ZM17.6412 8.22123C17.6396 8.19277 17.6366 8.16443 17.6322 8.13633C17.6324 8.13396 17.6321 8.13158 17.6313 8.12935C17.6287 8.10942 17.6242 8.08845 17.6197 8.06845C17.6145 8.04099 17.6077 8.01397 17.5992 7.98755C17.5965 7.97757 17.5938 7.96849 17.5902 7.95859C17.5855 7.94222 17.5798 7.92621 17.5732 7.91066C17.5678 7.89667 17.5625 7.88268 17.5561 7.86874C17.5462 7.84674 17.5364 7.82479 17.5257 7.80281C17.5185 7.78887 17.5114 7.77487 17.5033 7.76184C17.4979 7.75061 17.4916 7.73992 17.4846 7.7299C17.4765 7.71591 17.4685 7.70294 17.4595 7.68997C17.4535 7.6799 17.4469 7.67023 17.4398 7.66101C17.4347 7.65324 17.4289 7.6459 17.4228 7.63906C17.5531 7.81479 17.6298 8.03238 17.6418 8.26018C17.6499 8.47391 17.6436 8.68763 17.6436 8.90231C17.6457 8.67562 17.6555 8.44792 17.6412 8.22123ZM17.6457 9.07404C17.6457 9.11695 17.6457 9.16095 17.6466 9.20488C17.6482 9.18597 17.6485 9.16694 17.6475 9.14798C17.6466 9.123 17.6457 9.09902 17.6457 9.07404ZM17.6466 9.20488C17.6482 9.18597 17.6485 9.16694 17.6475 9.14798C17.6466 9.123 17.6457 9.09902 17.6457 9.07404C17.6457 9.11695 17.6457 9.16095 17.6466 9.20488ZM17.644 8.90234C17.6457 8.67564 17.6555 8.44792 17.6412 8.22123C17.6396 8.19277 17.6366 8.16443 17.6322 8.13633C17.6324 8.13396 17.6321 8.13158 17.6313 8.12935C17.6287 8.10942 17.6242 8.08845 17.6197 8.06845C17.6145 8.04099 17.6077 8.01397 17.5992 7.98755C17.5965 7.97757 17.5938 7.96849 17.5902 7.95859C17.5855 7.94222 17.5798 7.92621 17.5732 7.91066C17.5678 7.89667 17.5625 7.88268 17.5561 7.86874C17.5462 7.84674 17.5364 7.82479 17.5257 7.80281C17.5185 7.78887 17.5114 7.77487 17.5033 7.76184C17.4979 7.75061 17.4916 7.73992 17.4846 7.7299C17.4765 7.71591 17.4685 7.70294 17.4595 7.68997C17.4535 7.6799 17.4469 7.67023 17.4398 7.66101C17.4347 7.65324 17.4289 7.6459 17.4228 7.63906C17.5531 7.81479 17.6298 8.03238 17.6418 8.26018C17.65 8.47388 17.644 8.68766 17.644 8.90234ZM17.6439 8.9562C17.6439 8.99515 17.6448 9.03412 17.6457 9.07404C17.6448 9.03412 17.6448 8.99515 17.6448 8.9562H17.6439ZM17.1405 7.35545C17.1208 7.34048 17.1012 7.32649 17.0806 7.3135C17.0699 7.30552 17.0583 7.29854 17.0466 7.29153C17.0252 7.27758 17.0028 7.2646 16.9796 7.25261C16.9739 7.249 16.9679 7.24598 16.9617 7.24359C16.9331 7.22765 16.9036 7.21366 16.8732 7.20069C16.8553 7.19271 16.8365 7.18572 16.8177 7.17871C16.7882 7.1668 16.7569 7.15676 16.7256 7.14773C16.7095 7.14275 16.6943 7.13875 16.6782 7.13477C16.6389 7.12476 16.5986 7.11569 16.5584 7.10978C16.528 7.1048 16.4976 7.1018 16.4663 7.09882C16.718 7.12382 16.9599 7.22004 17.1691 7.3784C17.1646 7.37404 17.1598 7.37005 17.1548 7.36642C17.1503 7.36241 17.1459 7.35945 17.1405 7.35545ZM16.3109 7.09482C16.327 7.09379 16.3422 7.09379 16.3574 7.09379C16.3494 7.09298 16.3414 7.09264 16.3333 7.09281C16.3258 7.09297 16.3183 7.09364 16.3109 7.09482ZM16.2689 10.8167C15.9794 10.7987 15.7011 10.6859 15.4687 10.4922C15.6993 10.6895 15.9787 10.8028 16.2689 10.8167ZM15.0485 9.69025C15.0494 9.70727 15.0512 9.72321 15.053 9.74018C15.0575 9.78508 15.0653 9.82949 15.0762 9.87299C15.0789 9.88603 15.0825 9.89797 15.086 9.91098C15.0887 9.91997 15.0905 9.92795 15.0932 9.93596C15.0977 9.95093 15.1031 9.96488 15.1084 9.97985C15.1134 9.9956 15.1194 10.011 15.1263 10.0258C15.1307 10.0386 15.1361 10.051 15.1424 10.0627C15.1532 10.0885 15.1654 10.1136 15.179 10.1376C15.1916 10.1618 15.2053 10.1851 15.2202 10.2076C15.2354 10.2325 15.2524 10.2565 15.2692 10.2794L15.2719 10.2825C15.2777 10.2909 15.2839 10.2989 15.2907 10.3064L15.2979 10.3144C15.1506 10.1338 15.0625 9.90294 15.0476 9.65927C15.0476 9.66925 15.0476 9.68021 15.0485 9.69025ZM15.0449 9.04101C15.0458 9.0121 15.0458 8.98412 15.0458 8.9552L15.0449 8.95525C15.0449 8.87338 15.044 8.79048 15.0431 8.70861C15.0412 8.72679 15.0406 8.74513 15.0414 8.76343C15.0431 8.80438 15.044 8.84432 15.0431 8.88327C15.044 8.93516 15.0449 8.9891 15.0449 9.04101ZM15.0449 9.05214C15.0431 9.24587 15.0369 9.44158 15.0467 9.63531C15.0439 9.55341 15.0431 9.47159 15.0431 9.38967C15.0431 9.27683 15.0449 9.16497 15.0449 9.05214ZM17.6466 9.20488C17.6482 9.18597 17.6485 9.16694 17.6475 9.14798C17.6466 9.123 17.6457 9.09902 17.6457 9.07404C17.6457 9.11695 17.6457 9.16095 17.6466 9.20488ZM17.644 8.90234C17.6457 8.67564 17.6555 8.44792 17.6412 8.22123C17.6396 8.19277 17.6366 8.16443 17.6322 8.13633C17.6324 8.13396 17.6321 8.13158 17.6313 8.12935C17.6287 8.10942 17.6242 8.08845 17.6197 8.06845C17.6145 8.04099 17.6077 8.01397 17.5992 7.98755C17.5965 7.97757 17.5938 7.96849 17.5902 7.95859C17.5855 7.94222 17.5798 7.92621 17.5732 7.91066C17.5678 7.89667 17.5625 7.88268 17.5561 7.86874C17.5462 7.84674 17.5364 7.82479 17.5257 7.80281C17.5185 7.78887 17.5114 7.77487 17.5033 7.76184C17.4979 7.75061 17.4916 7.73992 17.4846 7.7299C17.4765 7.71591 17.4685 7.70294 17.4595 7.68997C17.4535 7.6799 17.4469 7.67023 17.4398 7.66101C17.4347 7.65324 17.4289 7.6459 17.4228 7.63906C17.5531 7.81479 17.6298 8.03238 17.6418 8.26018C17.65 8.47388 17.644 8.68766 17.644 8.90234ZM17.6439 8.9562C17.6439 8.99515 17.6448 9.03412 17.6457 9.07404C17.6448 9.03412 17.6448 8.99515 17.6448 8.9562H17.6439ZM17.1405 7.35545C17.1208 7.34048 17.1012 7.32649 17.0806 7.3135C17.0699 7.30552 17.0583 7.29854 17.0466 7.29153C17.0252 7.27758 17.0028 7.2646 16.9796 7.25261C16.9739 7.249 16.9679 7.24598 16.9617 7.24359C16.9331 7.22765 16.9036 7.21366 16.8732 7.20069C16.8553 7.19271 16.8365 7.18572 16.8177 7.17871C16.7882 7.1668 16.7569 7.15676 16.7256 7.14773C16.7095 7.14275 16.6943 7.13875 16.6782 7.13477C16.6389 7.12476 16.5986 7.11569 16.5584 7.10978C16.528 7.1048 16.4976 7.1018 16.4663 7.09882C16.718 7.12382 16.9599 7.22004 17.1691 7.3784C17.1646 7.37404 17.1598 7.37005 17.1548 7.36642C17.1503 7.36241 17.1459 7.35945 17.1405 7.35545ZM16.3109 7.09482C16.327 7.09379 16.3422 7.09379 16.3574 7.09379C16.3494 7.09298 16.3414 7.09264 16.3333 7.09281C16.3258 7.09297 16.3183 7.09364 16.3109 7.09482ZM16.2689 10.8167C15.9794 10.7987 15.7011 10.6859 15.4687 10.4922C15.6993 10.6895 15.9787 10.8028 16.2689 10.8167ZM15.0485 9.69025C15.0494 9.70727 15.0512 9.72321 15.053 9.74018C15.0575 9.78508 15.0653 9.82949 15.0762 9.87299C15.0789 9.88603 15.0825 9.89797 15.086 9.91098C15.0887 9.91997 15.0905 9.92795 15.0932 9.93596C15.0977 9.95093 15.1031 9.96488 15.1084 9.97985C15.1134 9.9956 15.1194 10.011 15.1263 10.0258C15.1307 10.0386 15.1361 10.051 15.1424 10.0627C15.1532 10.0885 15.1654 10.1136 15.179 10.1376C15.1916 10.1618 15.2053 10.1851 15.2202 10.2076C15.2354 10.2325 15.2524 10.2565 15.2692 10.2794L15.2719 10.2825C15.2777 10.2909 15.2839 10.2989 15.2907 10.3064L15.2979 10.3144C15.1506 10.1338 15.0625 9.90294 15.0476 9.65927C15.0476 9.66925 15.0476 9.68021 15.0485 9.69025ZM15.0449 9.04101C15.0458 9.0121 15.0458 8.98412 15.0458 8.9552L15.0449 8.95525C15.0449 8.87338 15.044 8.79048 15.0431 8.70861C15.0412 8.72679 15.0406 8.74513 15.0414 8.76343C15.0431 8.80438 15.044 8.84432 15.0431 8.88327C15.044 8.93516 15.0449 8.9891 15.0449 9.04101ZM15.0449 9.05214C15.0431 9.24587 15.0369 9.44158 15.0467 9.63531C15.0439 9.55341 15.0431 9.47159 15.0431 9.38967C15.0431 9.27683 15.0449 9.16497 15.0449 9.05214ZM15.0431 9.38967C15.0431 9.27683 15.0449 9.16497 15.0449 9.05214C15.0431 9.24587 15.0369 9.44158 15.0467 9.63531C15.0439 9.55341 15.0431 9.47159 15.0431 9.38967ZM15.0449 8.95525C15.0449 8.87338 15.044 8.79048 15.0431 8.70861C15.0412 8.72679 15.0406 8.74513 15.0414 8.76343C15.0431 8.80438 15.044 8.84432 15.0431 8.88327C15.044 8.93516 15.0449 8.9891 15.0449 9.04101C15.0458 9.0121 15.0458 8.98412 15.0458 8.9552L15.0449 8.95525ZM15.0476 9.65927C15.0476 9.66925 15.0476 9.68021 15.0485 9.69025C15.0494 9.70727 15.0512 9.72321 15.053 9.74018C15.0575 9.78508 15.0653 9.82949 15.0762 9.87299C15.0789 9.88603 15.0825 9.89797 15.086 9.91098C15.0887 9.91997 15.0905 9.92795 15.0932 9.93596C15.0977 9.95093 15.1031 9.96488 15.1084 9.97985C15.1134 9.9956 15.1194 10.011 15.1263 10.0258C15.1307 10.0386 15.1361 10.051 15.1424 10.0627C15.1532 10.0885 15.1654 10.1136 15.179 10.1376C15.1916 10.1618 15.2053 10.1851 15.2202 10.2076C15.2354 10.2325 15.2524 10.2565 15.2692 10.2794L15.2719 10.2825C15.2777 10.2909 15.2839 10.2989 15.2907 10.3064L15.2979 10.3144C15.1506 10.1338 15.0625 9.90294 15.0476 9.65927ZM15.4687 10.4922C15.6993 10.6895 15.9787 10.8028 16.2689 10.8167C15.9794 10.7987 15.7011 10.6859 15.4687 10.4922ZM16.3333 7.09281C16.3258 7.09297 16.3183 7.09364 16.3109 7.09482C16.327 7.09379 16.3422 7.09379 16.3574 7.09379C16.3494 7.09298 16.3414 7.09264 16.3333 7.09281ZM17.1548 7.36642C17.1503 7.36241 17.1459 7.35945 17.1405 7.35545C17.1208 7.34048 17.1012 7.32649 17.0806 7.3135C17.0699 7.30552 17.0583 7.29854 17.0466 7.29153C17.0252 7.27758 17.0028 7.2646 16.9796 7.25261C16.9739 7.249 16.9679 7.24598 16.9617 7.24359C16.9331 7.22765 16.9036 7.21366 16.8732 7.20069C16.8553 7.19271 16.8365 7.18572 16.8177 7.17871C16.7882 7.1668 16.7569 7.15676 16.7256 7.14773C16.7095 7.14275 16.6943 7.13875 16.6782 7.13477C16.6389 7.12476 16.5986 7.11569 16.5584 7.10978C16.528 7.1048 16.4976 7.1018 16.4663 7.09882C16.718 7.12382 16.9599 7.22004 17.1691 7.3784C17.1646 7.37404 17.1598 7.37005 17.1548 7.36642ZM17.6448 8.9562H17.6439C17.6439 8.99515 17.6448 9.03412 17.6457 9.07404C17.6448 9.03412 17.6448 8.99515 17.6448 8.9562ZM17.6412 8.22123C17.6396 8.19277 17.6366 8.16443 17.6322 8.13633C17.6324 8.13396 17.6321 8.13158 17.6313 8.12935C17.6287 8.10942 17.6242 8.08845 17.6197 8.06845C17.6145 8.04099 17.6077 8.01397 17.5992 7.98755C17.5965 7.97757 17.5938 7.96849 17.5902 7.95859C17.5855 7.94222 17.5798 7.92621 17.5732 7.91066C17.5678 7.89667 17.5625 7.88268 17.5561 7.86874C17.5462 7.84674 17.5364 7.82479 17.5257 7.80281C17.5185 7.78887 17.5114 7.77487 17.5033 7.76184C17.4979 7.75061 17.4916 7.73992 17.4846 7.7299C17.4765 7.71591 17.4685 7.70294 17.4595 7.68997C17.4535 7.6799 17.4469 7.67023 17.4398 7.66101C17.4347 7.65324 17.4289 7.6459 17.4228 7.63906C17.5531 7.81479 17.6298 8.03238 17.6418 8.26018C17.6499 8.47391 17.6436 8.68763 17.6436 8.90231C17.6457 8.67562 17.6555 8.44792 17.6412 8.22123ZM17.6457 9.07404C17.6457 9.11695 17.6457 9.16095 17.6466 9.20488C17.6482 9.18597 17.6485 9.16694 17.6475 9.14798C17.6466 9.123 17.6457 9.09902 17.6457 9.07404ZM17.6457 9.07404C17.6457 9.11695 17.6457 9.16095 17.6466 9.20488C17.6482 9.18597 17.6485 9.16694 17.6475 9.14798C17.6466 9.123 17.6457 9.09902 17.6457 9.07404ZM17.6412 8.22123C17.6396 8.19277 17.6366 8.16443 17.6322 8.13633C17.6324 8.13396 17.6321 8.13158 17.6313 8.12935C17.6287 8.10942 17.6242 8.08845 17.6197 8.06845C17.6145 8.04099 17.6077 8.01397 17.5992 7.98755C17.5965 7.97757 17.5938 7.96849 17.5902 7.95859C17.5855 7.94222 17.5798 7.92621 17.5732 7.91066C17.5678 7.89667 17.5625 7.88268 17.5561 7.86874C17.5462 7.84674 17.5364 7.82479 17.5257 7.80281C17.5185 7.78887 17.5114 7.77487 17.5033 7.76184C17.4979 7.75061 17.4916 7.73992 17.4846 7.7299C17.4765 7.71591 17.4685 7.70294 17.4595 7.68997C17.4535 7.6799 17.4469 7.67023 17.4398 7.66101C17.4347 7.65324 17.4289 7.6459 17.4228 7.63906C17.5531 7.81479 17.6298 8.03238 17.6418 8.26018C17.6499 8.47391 17.6436 8.68763 17.6436 8.90231C17.6457 8.67562 17.6555 8.44792 17.6412 8.22123ZM17.6448 8.9562H17.6439C17.6439 8.99515 17.6448 9.03412 17.6457 9.07404C17.6448 9.03412 17.6448 8.99515 17.6448 8.9562ZM17.1548 7.36642C17.1503 7.36241 17.1459 7.35945 17.1405 7.35545C17.1208 7.34048 17.1012 7.32649 17.0806 7.3135C17.0699 7.30552 17.0583 7.29854 17.0466 7.29153C17.0252 7.27758 17.0028 7.2646 16.9796 7.25261C16.9739 7.249 16.9679 7.24598 16.9617 7.24359C16.9331 7.22765 16.9036 7.21366 16.8732 7.20069C16.8553 7.19271 16.8365 7.18572 16.8177 7.17871C16.7882 7.1668 16.7569 7.15676 16.7256 7.14773C16.7095 7.14275 16.6943 7.13875 16.6782 7.13477C16.6389 7.12476 16.5986 7.11569 16.5584 7.10978C16.528 7.1048 16.4976 7.1018 16.4663 7.09882C16.718 7.12382 16.9599 7.22004 17.1691 7.3784C17.1646 7.37404 17.1598 7.37005 17.1548 7.36642ZM16.3333 7.09281C16.3258 7.09297 16.3183 7.09364 16.3109 7.09482C16.327 7.09379 16.3422 7.09379 16.3574 7.09379C16.3494 7.09298 16.3414 7.09264 16.3333 7.09281ZM15.4687 10.4922C15.6993 10.6895 15.9787 10.8028 16.2689 10.8167C15.9794 10.7987 15.7011 10.6859 15.4687 10.4922ZM15.0476 9.65927C15.0476 9.66925 15.0476 9.68021 15.0485 9.69025C15.0494 9.70727 15.0512 9.72321 15.053 9.74018C15.0575 9.78508 15.0653 9.82949 15.0762 9.87299C15.0789 9.88603 15.0825 9.89797 15.086 9.91098C15.0887 9.91997 15.0905 9.92795 15.0932 9.93596C15.0977 9.95093 15.1031 9.96488 15.1084 9.97985C15.1134 9.9956 15.1194 10.011 15.1263 10.0258C15.1307 10.0386 15.1361 10.051 15.1424 10.0627C15.1532 10.0885 15.1654 10.1136 15.179 10.1376C15.1916 10.1618 15.2053 10.1851 15.2202 10.2076C15.2354 10.2325 15.2524 10.2565 15.2692 10.2794L15.2719 10.2825C15.2777 10.2909 15.2839 10.2989 15.2907 10.3064L15.2979 10.3144C15.1506 10.1338 15.0625 9.90294 15.0476 9.65927ZM15.0449 8.95525C15.0449 8.87338 15.044 8.79048 15.0431 8.70861C15.0412 8.72679 15.0406 8.74513 15.0414 8.76343C15.0431 8.80438 15.044 8.84432 15.0431 8.88327C15.044 8.93516 15.0449 8.9891 15.0449 9.04101C15.0458 9.0121 15.0458 8.98412 15.0458 8.9552L15.0449 8.95525ZM15.0431 9.38967C15.0431 9.27683 15.0449 9.16497 15.0449 9.05214C15.0431 9.24587 15.0369 9.44158 15.0467 9.63531C15.0439 9.55341 15.0431 9.47159 15.0431 9.38967ZM15.0431 9.38967C15.0431 9.27683 15.0449 9.16497 15.0449 9.05214C15.0431 9.24587 15.0369 9.44158 15.0467 9.63531C15.0439 9.55341 15.0431 9.47159 15.0431 9.38967ZM15.0449 8.95525C15.0449 8.87338 15.044 8.79048 15.0431 8.70861C15.0412 8.72679 15.0406 8.74513 15.0414 8.76343C15.0431 8.80438 15.044 8.84432 15.0431 8.88327C15.044 8.93516 15.0449 8.9891 15.0449 9.04101C15.0458 9.0121 15.0458 8.98412 15.0458 8.9552L15.0449 8.95525ZM15.0476 9.65927C15.0476 9.66925 15.0476 9.68021 15.0485 9.69025C15.0494 9.70727 15.0512 9.72321 15.053 9.74018C15.0575 9.78508 15.0653 9.82949 15.0762 9.87299C15.0789 9.88603 15.0825 9.89797 15.086 9.91098C15.0887 9.91997 15.0905 9.92795 15.0932 9.93596C15.0977 9.95093 15.1031 9.96488 15.1084 9.97985C15.1134 9.9956 15.1194 10.011 15.1263 10.0258C15.1307 10.0386 15.1361 10.051 15.1424 10.0627C15.1532 10.0885 15.1654 10.1136 15.179 10.1376C15.1916 10.1618 15.2053 10.1851 15.2202 10.2076C15.2354 10.2325 15.2524 10.2565 15.2692 10.2794L15.2719 10.2825C15.2777 10.2909 15.2839 10.2989 15.2907 10.3064L15.2979 10.3144C15.1506 10.1338 15.0625 9.90294 15.0476 9.65927ZM15.4687 10.4922C15.6993 10.6895 15.9787 10.8028 16.2689 10.8167C15.9794 10.7987 15.7011 10.6859 15.4687 10.4922ZM16.3333 7.09281C16.3258 7.09297 16.3183 7.09364 16.3109 7.09482C16.327 7.09379 16.3422 7.09379 16.3574 7.09379C16.3494 7.09298 16.3414 7.09264 16.3333 7.09281ZM17.1548 7.36642C17.1503 7.36241 17.1459 7.35945 17.1405 7.35545C17.1208 7.34048 17.1012 7.32649 17.0806 7.3135C17.0699 7.30552 17.0583 7.29854 17.0466 7.29153C17.0252 7.27758 17.0028 7.2646 16.9796 7.25261C16.9739 7.249 16.9679 7.24598 16.9617 7.24359C16.9331 7.22765 16.9036 7.21366 16.8732 7.20069C16.8553 7.19271 16.8365 7.18572 16.8177 7.17871C16.7882 7.1668 16.7569 7.15676 16.7256 7.14773C16.7095 7.14275 16.6943 7.13875 16.6782 7.13477C16.6389 7.12476 16.5986 7.11569 16.5584 7.10978C16.528 7.1048 16.4976 7.1018 16.4663 7.09882C16.718 7.12382 16.9599 7.22004 17.1691 7.3784C17.1646 7.37404 17.1598 7.37005 17.1548 7.36642ZM17.6448 8.9562H17.6439C17.6439 8.99515 17.6448 9.03412 17.6457 9.07404C17.6448 9.03412 17.6448 8.99515 17.6448 8.9562ZM17.6412 8.22123C17.6396 8.19277 17.6366 8.16443 17.6322 8.13633C17.6324 8.13396 17.6321 8.13158 17.6313 8.12935C17.6287 8.10942 17.6242 8.08845 17.6197 8.06845C17.6145 8.04099 17.6077 8.01397 17.5992 7.98755C17.5965 7.97757 17.5938 7.96849 17.5902 7.95859C17.5855 7.94222 17.5798 7.92621 17.5732 7.91066C17.5678 7.89667 17.5625 7.88268 17.5561 7.86874C17.5462 7.84674 17.5364 7.82479 17.5257 7.80281C17.5185 7.78887 17.5114 7.77487 17.5033 7.76184C17.4979 7.75061 17.4916 7.73992 17.4846 7.7299C17.4765 7.71591 17.4685 7.70294 17.4595 7.68997C17.4535 7.6799 17.4469 7.67023 17.4398 7.66101C17.4347 7.65324 17.4289 7.6459 17.4228 7.63906C17.5531 7.81479 17.6298 8.03238 17.6418 8.26018C17.6499 8.47391 17.6436 8.68763 17.6436 8.90231C17.6457 8.67562 17.6555 8.44792 17.6412 8.22123ZM17.6457 9.07404C17.6457 9.11695 17.6457 9.16095 17.6466 9.20488C17.6482 9.18597 17.6485 9.16694 17.6475 9.14798C17.6466 9.123 17.6457 9.09902 17.6457 9.07404ZM17.6457 9.07404C17.6457 9.11695 17.6457 9.16095 17.6466 9.20488C17.6482 9.18597 17.6485 9.16694 17.6475 9.14798C17.6466 9.123 17.6457 9.09902 17.6457 9.07404ZM17.6412 8.22123C17.6396 8.19277 17.6366 8.16443 17.6322 8.13633C17.6324 8.13396 17.6321 8.13158 17.6313 8.12935C17.6287 8.10942 17.6242 8.08845 17.6197 8.06845C17.6145 8.04099 17.6077 8.01397 17.5992 7.98755C17.5965 7.97757 17.5938 7.96849 17.5902 7.95859C17.5855 7.94222 17.5798 7.92621 17.5732 7.91066C17.5678 7.89667 17.5625 7.88268 17.5561 7.86874C17.5462 7.84674 17.5364 7.82479 17.5257 7.80281C17.5185 7.78887 17.5114 7.77487 17.5033 7.76184C17.4979 7.75061 17.4916 7.73992 17.4846 7.7299C17.4765 7.71591 17.4685 7.70294 17.4595 7.68997C17.4535 7.6799 17.4469 7.67023 17.4398 7.66101C17.4347 7.65324 17.4289 7.6459 17.4228 7.63906C17.5531 7.81479 17.6298 8.03238 17.6418 8.26018C17.6499 8.47391 17.6436 8.68763 17.6436 8.90231C17.6457 8.67562 17.6555 8.44792 17.6412 8.22123ZM17.6448 8.9562H17.6439C17.6439 8.99515 17.6448 9.03412 17.6457 9.07404C17.6448 9.03412 17.6448 8.99515 17.6448 8.9562ZM17.1548 7.36642C17.1503 7.36241 17.1459 7.35945 17.1405 7.35545C17.1208 7.34048 17.1012 7.32649 17.0806 7.3135C17.0699 7.30552 17.0583 7.29854 17.0466 7.29153C17.0252 7.27758 17.0028 7.2646 16.9796 7.25261C16.9739 7.249 16.9679 7.24598 16.9617 7.24359C16.9331 7.22765 16.9036 7.21366 16.8732 7.20069C16.8553 7.19271 16.8365 7.18572 16.8177 7.17871C16.7882 7.1668 16.7569 7.15676 16.7256 7.14773C16.7095 7.14275 16.6943 7.13875 16.6782 7.13477C16.6389 7.12476 16.5986 7.11569 16.5584 7.10978C16.528 7.1048 16.4976 7.1018 16.4663 7.09882C16.718 7.12382 16.9599 7.22004 17.1691 7.3784C17.1646 7.37404 17.1598 7.37005 17.1548 7.36642ZM16.3333 7.09281C16.3258 7.09297 16.3183 7.09364 16.3109 7.09482C16.327 7.09379 16.3422 7.09379 16.3574 7.09379C16.3494 7.09298 16.3414 7.09264 16.3333 7.09281ZM15.4687 10.4922C15.6993 10.6895 15.9787 10.8028 16.2689 10.8167C15.9794 10.7987 15.7011 10.6859 15.4687 10.4922ZM15.0476 9.65927C15.0476 9.66925 15.0476 9.68021 15.0485 9.69025C15.0494 9.70727 15.0512 9.72321 15.053 9.74018C15.0575 9.78508 15.0653 9.82949 15.0762 9.87299C15.0789 9.88603 15.0825 9.89797 15.086 9.91098C15.0887 9.91997 15.0905 9.92795 15.0932 9.93596C15.0977 9.95093 15.1031 9.96488 15.1084 9.97985C15.1134 9.9956 15.1194 10.011 15.1263 10.0258C15.1307 10.0386 15.1361 10.051 15.1424 10.0627C15.1532 10.0885 15.1654 10.1136 15.179 10.1376C15.1916 10.1618 15.2053 10.1851 15.2202 10.2076C15.2354 10.2325 15.2524 10.2565 15.2692 10.2794L15.2719 10.2825C15.2777 10.2909 15.2839 10.2989 15.2907 10.3064L15.2979 10.3144C15.1506 10.1338 15.0625 9.90294 15.0476 9.65927ZM15.0449 8.95525C15.0449 8.87338 15.044 8.79048 15.0431 8.70861C15.0412 8.72679 15.0406 8.74513 15.0414 8.76343C15.0431 8.80438 15.044 8.84432 15.0431 8.88327C15.044 8.93516 15.0449 8.9891 15.0449 9.04101C15.0458 9.0121 15.0458 8.98412 15.0458 8.9552L15.0449 8.95525ZM15.0431 9.38967C15.0431 9.27683 15.0449 9.16497 15.0449 9.05214C15.0431 9.24587 15.0369 9.44158 15.0467 9.63531C15.0439 9.55341 15.0431 9.47159 15.0431 9.38967ZM15.0431 9.38967C15.0431 9.27683 15.0449 9.16497 15.0449 9.05214C15.0431 9.24587 15.0369 9.44158 15.0467 9.63531C15.0439 9.55341 15.0431 9.47159 15.0431 9.38967ZM15.0449 8.95525C15.0449 8.87338 15.044 8.79048 15.0431 8.70861C15.0412 8.72679 15.0406 8.74513 15.0414 8.76343C15.0431 8.80438 15.044 8.84432 15.0431 8.88327C15.044 8.93516 15.0449 8.9891 15.0449 9.04101C15.0458 9.0121 15.0458 8.98412 15.0458 8.9552L15.0449 8.95525ZM15.0476 9.65927C15.0476 9.66925 15.0476 9.68021 15.0485 9.69025C15.0494 9.70727 15.0512 9.72321 15.053 9.74018C15.0575 9.78508 15.0653 9.82949 15.0762 9.87299C15.0789 9.88603 15.0825 9.89797 15.086 9.91098C15.0887 9.91997 15.0905 9.92795 15.0932 9.93596C15.0977 9.95093 15.1031 9.96488 15.1084 9.97985C15.1134 9.9956 15.1194 10.011 15.1263 10.0258C15.1307 10.0386 15.1361 10.051 15.1424 10.0627C15.1532 10.0885 15.1654 10.1136 15.179 10.1376C15.1916 10.1618 15.2053 10.1851 15.2202 10.2076C15.2354 10.2325 15.2524 10.2565 15.2692 10.2794L15.2719 10.2825C15.2777 10.2909 15.2839 10.2989 15.2907 10.3064L15.2979 10.3144C15.1506 10.1338 15.0625 9.90294 15.0476 9.65927ZM15.4687 10.4922C15.6993 10.6895 15.9787 10.8028 16.2689 10.8167C15.9794 10.7987 15.7011 10.6859 15.4687 10.4922ZM16.3333 7.09281C16.3258 7.09297 16.3183 7.09364 16.3109 7.09482C16.327 7.09379 16.3422 7.09379 16.3574 7.09379C16.3494 7.09298 16.3414 7.09264 16.3333 7.09281ZM17.1548 7.36642C17.1503 7.36241 17.1459 7.35945 17.1405 7.35545C17.1208 7.34048 17.1012 7.32649 17.0806 7.3135C17.0699 7.30552 17.0583 7.29854 17.0466 7.29153C17.0252 7.27758 17.0028 7.2646 16.9796 7.25261C16.9739 7.249 16.9679 7.24598 16.9617 7.24359C16.9331 7.22765 16.9036 7.21366 16.8732 7.20069C16.8553 7.19271 16.8365 7.18572 16.8177 7.17871C16.7882 7.1668 16.7569 7.15676 16.7256 7.14773C16.7095 7.14275 16.6943 7.13875 16.6782 7.13477C16.6389 7.12476 16.5986 7.11569 16.5584 7.10978C16.528 7.1048 16.4976 7.1018 16.4663 7.09882C16.718 7.12382 16.9599 7.22004 17.1691 7.3784C17.1646 7.37404 17.1598 7.37005 17.1548 7.36642ZM17.6448 8.9562H17.6439C17.6439 8.99515 17.6448 9.03412 17.6457 9.07404C17.6448 9.03412 17.6448 8.99515 17.6448 8.9562ZM17.6412 8.22123C17.6396 8.19277 17.6366 8.16443 17.6322 8.13633C17.6324 8.13396 17.6321 8.13158 17.6313 8.12935C17.6287 8.10942 17.6242 8.08845 17.6197 8.06845C17.6145 8.04099 17.6077 8.01397 17.5992 7.98755C17.5965 7.97757 17.5938 7.96849 17.5902 7.95859C17.5855 7.94222 17.5798 7.92621 17.5732 7.91066C17.5678 7.89667 17.5625 7.88268 17.5561 7.86874C17.5462 7.84674 17.5364 7.82479 17.5257 7.80281C17.5185 7.78887 17.5114 7.77487 17.5033 7.76184C17.4979 7.75061 17.4916 7.73992 17.4846 7.7299C17.4765 7.71591 17.4685 7.70294 17.4595 7.68997C17.4535 7.6799 17.4469 7.67023 17.4398 7.66101C17.4347 7.65324 17.4289 7.6459 17.4228 7.63906C17.5531 7.81479 17.6298 8.03238 17.6418 8.26018C17.6499 8.47391 17.6436 8.68763 17.6436 8.90231C17.6457 8.67562 17.6555 8.44792 17.6412 8.22123ZM17.6457 9.07404C17.6457 9.11695 17.6457 9.16095 17.6466 9.20488C17.6482 9.18597 17.6485 9.16694 17.6475 9.14798C17.6466 9.123 17.6457 9.09902 17.6457 9.07404ZM17.6457 9.07404C17.6457 9.11695 17.6457 9.16095 17.6466 9.20488C17.6482 9.18597 17.6485 9.16694 17.6475 9.14798C17.6466 9.123 17.6457 9.09902 17.6457 9.07404ZM17.6412 8.22123C17.6396 8.19277 17.6366 8.16443 17.6322 8.13633C17.6324 8.13396 17.6321 8.13158 17.6313 8.12935C17.6287 8.10942 17.6242 8.08845 17.6197 8.06845C17.6145 8.04099 17.6077 8.01397 17.5992 7.98755C17.5965 7.97757 17.5938 7.96849 17.5902 7.95859C17.5855 7.94222 17.5798 7.92621 17.5732 7.91066C17.5678 7.89667 17.5625 7.88268 17.5561 7.86874C17.5462 7.84674 17.5364 7.82479 17.5257 7.80281C17.5185 7.78887 17.5114 7.77487 17.5033 7.76184C17.4979 7.75061 17.4916 7.73992 17.4846 7.7299C17.4765 7.71591 17.4685 7.70294 17.4595 7.68997C17.4535 7.6799 17.4469 7.67023 17.4398 7.66101C17.4347 7.65324 17.4289 7.6459 17.4228 7.63906C17.5531 7.81479 17.6298 8.03238 17.6418 8.26018C17.6499 8.47391 17.6436 8.68763 17.6436 8.90231C17.6457 8.67562 17.6555 8.44792 17.6412 8.22123ZM17.6448 8.9562H17.6439C17.6439 8.99515 17.6448 9.03412 17.6457 9.07404C17.6448 9.03412 17.6448 8.99515 17.6448 8.9562ZM17.1548 7.36642C17.1503 7.36241 17.1459 7.35945 17.1405 7.35545C17.1208 7.34048 17.1012 7.32649 17.0806 7.3135C17.0699 7.30552 17.0583 7.29854 17.0466 7.29153C17.0252 7.27758 17.0028 7.2646 16.9796 7.25261C16.9739 7.249 16.9679 7.24598 16.9617 7.24359C16.9331 7.22765 16.9036 7.21366 16.8732 7.20069C16.8553 7.19271 16.8365 7.18572 16.8177 7.17871C16.7882 7.1668 16.7569 7.15676 16.7256 7.14773C16.7095 7.14275 16.6943 7.13875 16.6782 7.13477C16.6389 7.12476 16.5986 7.11569 16.5584 7.10978C16.528 7.1048 16.4976 7.1018 16.4663 7.09882C16.718 7.12382 16.9599 7.22004 17.1691 7.3784C17.1646 7.37404 17.1598 7.37005 17.1548 7.36642ZM16.3333 7.09281C16.3258 7.09297 16.3183 7.09364 16.3109 7.09482C16.327 7.09379 16.3422 7.09379 16.3574 7.09379C16.3494 7.09298 16.3414 7.09264 16.3333 7.09281ZM15.4687 10.4922C15.6993 10.6895 15.9787 10.8028 16.2689 10.8167C15.9794 10.7987 15.7011 10.6859 15.4687 10.4922ZM15.0476 9.65927C15.0476 9.66925 15.0476 9.68021 15.0485 9.69025C15.0494 9.70727 15.0512 9.72321 15.053 9.74018C15.0575 9.78508 15.0653 9.82949 15.0762 9.87299C15.0789 9.88603 15.0825 9.89797 15.086 9.91098C15.0887 9.91997 15.0905 9.92795 15.0932 9.93596C15.0977 9.95093 15.1031 9.96488 15.1084 9.97985C15.1134 9.9956 15.1194 10.011 15.1263 10.0258C15.1307 10.0386 15.1361 10.051 15.1424 10.0627C15.1532 10.0885 15.1654 10.1136 15.179 10.1376C15.1916 10.1618 15.2053 10.1851 15.2202 10.2076C15.2354 10.2325 15.2524 10.2565 15.2692 10.2794L15.2719 10.2825C15.2777 10.2909 15.2839 10.2989 15.2907 10.3064L15.2979 10.3144C15.1506 10.1338 15.0625 9.90294 15.0476 9.65927ZM15.0449 8.95525C15.0449 8.87338 15.044 8.79048 15.0431 8.70861C15.0412 8.72679 15.0406 8.74513 15.0414 8.76343C15.0431 8.80438 15.044 8.84432 15.0431 8.88327C15.044 8.93516 15.0449 8.9891 15.0449 9.04101C15.0458 9.0121 15.0458 8.98412 15.0458 8.9552L15.0449 8.95525ZM15.0431 9.38967C15.0431 9.27683 15.0449 9.16497 15.0449 9.05214C15.0431 9.24587 15.0369 9.44158 15.0467 9.63531C15.0439 9.55341 15.0431 9.47159 15.0431 9.38967ZM15.0431 9.38967C15.0431 9.27683 15.0449 9.16497 15.0449 9.05214C15.0431 9.24587 15.0369 9.44158 15.0467 9.63531C15.0439 9.55341 15.0431 9.47159 15.0431 9.38967ZM15.0449 8.95525C15.0449 8.87338 15.044 8.79048 15.0431 8.70861C15.0412 8.72679 15.0406 8.74513 15.0414 8.76343C15.0431 8.80438 15.044 8.84432 15.0431 8.88327C15.044 8.93516 15.0449 8.9891 15.0449 9.04101C15.0458 9.0121 15.0458 8.98412 15.0458 8.9552L15.0449 8.95525ZM15.0476 9.65927C15.0476 9.66925 15.0476 9.68021 15.0485 9.69025C15.0494 9.70727 15.0512 9.72321 15.053 9.74018C15.0575 9.78508 15.0653 9.82949 15.0762 9.87299C15.0789 9.88603 15.0825 9.89797 15.086 9.91098C15.0887 9.91997 15.0905 9.92795 15.0932 9.93596C15.0977 9.95093 15.1031 9.96488 15.1084 9.97985C15.1134 9.9956 15.1194 10.011 15.1263 10.0258C15.1307 10.0386 15.1361 10.051 15.1424 10.0627C15.1532 10.0885 15.1654 10.1136 15.179 10.1376C15.1916 10.1618 15.2053 10.1851 15.2202 10.2076C15.2354 10.2325 15.2524 10.2565 15.2692 10.2794L15.2719 10.2825C15.2777 10.2909 15.2839 10.2989 15.2907 10.3064L15.2979 10.3144C15.1506 10.1338 15.0625 9.90294 15.0476 9.65927ZM15.4687 10.4922C15.6993 10.6895 15.9787 10.8028 16.2689 10.8167C15.9794 10.7987 15.7011 10.6859 15.4687 10.4922ZM16.3333 7.09281C16.3258 7.09297 16.3183 7.09364 16.3109 7.09482C16.327 7.09379 16.3422 7.09379 16.3574 7.09379C16.3494 7.09298 16.3414 7.09264 16.3333 7.09281ZM17.1548 7.36642C17.1503 7.36241 17.1459 7.35945 17.1405 7.35545C17.1208 7.34048 17.1012 7.32649 17.0806 7.3135C17.0699 7.30552 17.0583 7.29854 17.0466 7.29153C17.0252 7.27758 17.0028 7.2646 16.9796 7.25261C16.9739 7.249 16.9679 7.24598 16.9617 7.24359C16.9331 7.22765 16.9036 7.21366 16.8732 7.20069C16.8553 7.19271 16.8365 7.18572 16.8177 7.17871C16.7882 7.1668 16.7569 7.15676 16.7256 7.14773C16.7095 7.14275 16.6943 7.13875 16.6782 7.13477C16.6389 7.12476 16.5986 7.11569 16.5584 7.10978C16.528 7.1048 16.4976 7.1018 16.4663 7.09882C16.718 7.12382 16.9599 7.22004 17.1691 7.3784C17.1646 7.37404 17.1598 7.37005 17.1548 7.36642ZM17.6448 8.9562H17.6439C17.6439 8.99515 17.6448 9.03412 17.6457 9.07404C17.6448 9.03412 17.6448 8.99515 17.6448 8.9562ZM17.6412 8.22123C17.6396 8.19277 17.6366 8.16443 17.6322 8.13633C17.6324 8.13396 17.6321 8.13158 17.6313 8.12935C17.6287 8.10942 17.6242 8.08845 17.6197 8.06845C17.6145 8.04099 17.6077 8.01397 17.5992 7.98755C17.5965 7.97757 17.5938 7.96849 17.5902 7.95859C17.5855 7.94222 17.5798 7.92621 17.5732 7.91066C17.5678 7.89667 17.5625 7.88268 17.5561 7.86874C17.5462 7.84674 17.5364 7.82479 17.5257 7.80281C17.5185 7.78887 17.5114 7.77487 17.5033 7.76184C17.4979 7.75061 17.4916 7.73992 17.4846 7.7299C17.4765 7.71591 17.4685 7.70294 17.4595 7.68997C17.4535 7.6799 17.4469 7.67023 17.4398 7.66101C17.4347 7.65324 17.4289 7.6459 17.4228 7.63906C17.5531 7.81479 17.6298 8.03238 17.6418 8.26018C17.6499 8.47391 17.6436 8.68763 17.6436 8.90231C17.6457 8.67562 17.6555 8.44792 17.6412 8.22123ZM17.6457 9.07404C17.6457 9.11695 17.6457 9.16095 17.6466 9.20488C17.6482 9.18597 17.6485 9.16694 17.6475 9.14798C17.6466 9.123 17.6457 9.09902 17.6457 9.07404ZM17.6412 8.22123C17.6396 8.19277 17.6366 8.16443 17.6322 8.13633C17.6324 8.13396 17.6321 8.13158 17.6313 8.12935C17.6287 8.10942 17.6242 8.08845 17.6197 8.06845C17.6145 8.04099 17.6077 8.01397 17.5992 7.98755C17.5965 7.97757 17.5938 7.96849 17.5902 7.95859C17.5855 7.94222 17.5798 7.92621 17.5732 7.91066C17.5678 7.89667 17.5625 7.88268 17.5561 7.86874C17.5462 7.84674 17.5364 7.82479 17.5257 7.80281C17.5185 7.78887 17.5114 7.77487 17.5033 7.76184C17.4979 7.75061 17.4916 7.73992 17.4846 7.7299C17.4765 7.71591 17.4685 7.70294 17.4595 7.68997C17.4535 7.6799 17.4469 7.67023 17.4398 7.66101C17.4347 7.65324 17.4289 7.6459 17.4228 7.63906C17.5531 7.81479 17.6298 8.03238 17.6418 8.26018C17.6499 8.47391 17.6436 8.68763 17.6436 8.90231C17.6457 8.67562 17.6555 8.44792 17.6412 8.22123ZM17.6457 9.07404C17.6457 9.11695 17.6457 9.16095 17.6466 9.20488C17.6482 9.18597 17.6485 9.16694 17.6475 9.14798C17.6466 9.123 17.6457 9.09902 17.6457 9.07404ZM17.6448 8.9562H17.6439C17.6439 8.99515 17.6448 9.03412 17.6457 9.07404C17.6448 9.03412 17.6448 8.99515 17.6448 8.9562ZM17.1548 7.36642C17.1503 7.36241 17.1459 7.35945 17.1405 7.35545C17.1208 7.34048 17.1012 7.32649 17.0806 7.3135C17.0699 7.30552 17.0583 7.29854 17.0466 7.29153C17.0252 7.27758 17.0028 7.2646 16.9796 7.25261C16.9739 7.249 16.9679 7.24598 16.9617 7.24359C16.9331 7.22765 16.9036 7.21366 16.8732 7.20069C16.8553 7.19271 16.8365 7.18572 16.8177 7.17871C16.7882 7.1668 16.7569 7.15676 16.7256 7.14773C16.7095 7.14275 16.6943 7.13875 16.6782 7.13477C16.6389 7.12476 16.5986 7.11569 16.5584 7.10978C16.528 7.1048 16.4976 7.1018 16.4663 7.09882C16.718 7.12382 16.9599 7.22004 17.1691 7.3784C17.1646 7.37404 17.1598 7.37005 17.1548 7.36642ZM16.3333 7.09281C16.3258 7.09297 16.3183 7.09364 16.3109 7.09482C16.327 7.09379 16.3422 7.09379 16.3574 7.09379C16.3494 7.09298 16.3414 7.09264 16.3333 7.09281ZM15.4687 10.4922C15.6993 10.6895 15.9787 10.8028 16.2689 10.8167C15.9794 10.7987 15.7011 10.6859 15.4687 10.4922ZM15.0476 9.65927C15.0476 9.66925 15.0476 9.68021 15.0485 9.69025C15.0494 9.70727 15.0512 9.72321 15.053 9.74018C15.0575 9.78508 15.0653 9.82949 15.0762 9.87299C15.0789 9.88603 15.0825 9.89797 15.086 9.91098C15.0887 9.91997 15.0905 9.92795 15.0932 9.93596C15.0977 9.95093 15.1031 9.96488 15.1084 9.97985C15.1134 9.9956 15.1194 10.011 15.1263 10.0258C15.1307 10.0386 15.1361 10.051 15.1424 10.0627C15.1532 10.0885 15.1654 10.1136 15.179 10.1376C15.1916 10.1618 15.2053 10.1851 15.2202 10.2076C15.2354 10.2325 15.2524 10.2565 15.2692 10.2794L15.2719 10.2825C15.2777 10.2909 15.2839 10.2989 15.2907 10.3064L15.2979 10.3144C15.1506 10.1338 15.0625 9.90294 15.0476 9.65927ZM15.0449 8.95525C15.0449 8.87338 15.044 8.79048 15.0431 8.70861C15.0412 8.72679 15.0406 8.74513 15.0414 8.76343C15.0431 8.80438 15.044 8.84432 15.0431 8.88327C15.044 8.93516 15.0449 8.9891 15.0449 9.04101C15.0458 9.0121 15.0458 8.98412 15.0458 8.9552L15.0449 8.95525ZM15.0431 9.38967C15.0431 9.27683 15.0449 9.16497 15.0449 9.05214C15.0431 9.24587 15.0369 9.44158 15.0467 9.63531C15.0439 9.55341 15.0431 9.47159 15.0431 9.38967ZM17.6412 8.22123C17.6396 8.19277 17.6366 8.16443 17.6322 8.13633C17.6324 8.13396 17.6321 8.13158 17.6313 8.12935C17.6287 8.10942 17.6242 8.08845 17.6197 8.06845C17.6145 8.04099 17.6077 8.01397 17.5992 7.98755C17.5965 7.97757 17.5938 7.96849 17.5902 7.95859C17.5855 7.94222 17.5798 7.92621 17.5732 7.91066C17.5678 7.89667 17.5625 7.88268 17.5561 7.86874C17.5462 7.84674 17.5364 7.82479 17.5257 7.80281C17.5185 7.78887 17.5114 7.77487 17.5033 7.76184C17.4979 7.75061 17.4916 7.73992 17.4846 7.7299C17.4765 7.71591 17.4685 7.70294 17.4595 7.68997C17.4535 7.6799 17.4469 7.67023 17.4398 7.66101C17.4347 7.65324 17.4289 7.6459 17.4228 7.63906C17.5531 7.81479 17.6298 8.03238 17.6418 8.26018C17.6499 8.47391 17.6436 8.68763 17.6436 8.90231C17.6457 8.67562 17.6555 8.44792 17.6412 8.22123ZM17.6457 9.07404C17.6457 9.11695 17.6457 9.16095 17.6466 9.20488C17.6482 9.18597 17.6485 9.16694 17.6475 9.14798C17.6466 9.123 17.6457 9.09902 17.6457 9.07404ZM17.6448 8.9562H17.6439C17.6439 8.99515 17.6448 9.03412 17.6457 9.07404C17.6448 9.03412 17.6448 8.99515 17.6448 8.9562ZM17.1548 7.36642C17.1503 7.36241 17.1459 7.35945 17.1405 7.35545C17.1208 7.34048 17.1012 7.32649 17.0806 7.3135C17.0699 7.30552 17.0583 7.29854 17.0466 7.29153C17.0252 7.27758 17.0028 7.2646 16.9796 7.25261C16.9739 7.249 16.9679 7.24598 16.9617 7.24359C16.9331 7.22765 16.9036 7.21366 16.8732 7.20069C16.8553 7.19271 16.8365 7.18572 16.8177 7.17871C16.7882 7.1668 16.7569 7.15676 16.7256 7.14773C16.7095 7.14275 16.6943 7.13875 16.6782 7.13477C16.6389 7.12476 16.5986 7.11569 16.5584 7.10978C16.528 7.1048 16.4976 7.1018 16.4663 7.09882C16.718 7.12382 16.9599 7.22004 17.1691 7.3784C17.1646 7.37404 17.1598 7.37005 17.1548 7.36642ZM16.3333 7.09281C16.3258 7.09297 16.3183 7.09364 16.3109 7.09482C16.327 7.09379 16.3422 7.09379 16.3574 7.09379C16.3494 7.09298 16.3414 7.09264 16.3333 7.09281ZM15.4687 10.4922C15.6993 10.6895 15.9787 10.8028 16.2689 10.8167C15.9794 10.7987 15.7011 10.6859 15.4687 10.4922ZM15.0476 9.65927C15.0476 9.66925 15.0476 9.68021 15.0485 9.69025C15.0494 9.70727 15.0512 9.72321 15.053 9.74018C15.0575 9.78508 15.0653 9.82949 15.0762 9.87299C15.0789 9.88603 15.0825 9.89797 15.086 9.91098C15.0887 9.91997 15.0905 9.92795 15.0932 9.93596C15.0977 9.95093 15.1031 9.96488 15.1084 9.97985C15.1134 9.9956 15.1194 10.011 15.1263 10.0258C15.1307 10.0386 15.1361 10.051 15.1424 10.0627C15.1532 10.0885 15.1654 10.1136 15.179 10.1376C15.1916 10.1618 15.2053 10.1851 15.2202 10.2076C15.2354 10.2325 15.2524 10.2565 15.2692 10.2794L15.2719 10.2825C15.2777 10.2909 15.2839 10.2989 15.2907 10.3064L15.2979 10.3144C15.1506 10.1338 15.0625 9.90294 15.0476 9.65927ZM15.0449 8.95525C15.0449 8.87338 15.044 8.79048 15.0431 8.70861C15.0412 8.72679 15.0406 8.74513 15.0414 8.76343C15.0431 8.80438 15.044 8.84432 15.0431 8.88327C15.044 8.93516 15.0449 8.9891 15.0449 9.04101C15.0458 9.0121 15.0458 8.98412 15.0458 8.9552L15.0449 8.95525ZM15.0431 9.38967C15.0431 9.27683 15.0449 9.16497 15.0449 9.05214C15.0431 9.24587 15.0369 9.44158 15.0467 9.63531C15.0439 9.55341 15.0431 9.47159 15.0431 9.38967ZM17.6412 8.22123C17.6396 8.19277 17.6366 8.16443 17.6322 8.13633C17.6324 8.13396 17.6321 8.13158 17.6313 8.12935C17.6287 8.10942 17.6242 8.08845 17.6197 8.06845C17.6145 8.04099 17.6077 8.01397 17.5992 7.98755C17.5965 7.97757 17.5938 7.96849 17.5902 7.95859C17.5855 7.94222 17.5798 7.92621 17.5732 7.91066C17.5678 7.89667 17.5625 7.88268 17.5561 7.86874C17.5462 7.84674 17.5364 7.82479 17.5257 7.80281C17.5185 7.78887 17.5114 7.77487 17.5033 7.76184C17.4979 7.75061 17.4916 7.73992 17.4846 7.7299C17.4765 7.71591 17.4685 7.70294 17.4595 7.68997C17.4535 7.6799 17.4469 7.67023 17.4398 7.66101C17.4347 7.65324 17.4289 7.6459 17.4228 7.63906C17.5531 7.81479 17.6298 8.03238 17.6418 8.26018C17.6499 8.47391 17.6436 8.68763 17.6436 8.90231C17.6457 8.67562 17.6555 8.44792 17.6412 8.22123ZM17.6457 9.07404C17.6457 9.11695 17.6457 9.16095 17.6466 9.20488C17.6482 9.18597 17.6485 9.16694 17.6475 9.14798C17.6466 9.123 17.6457 9.09902 17.6457 9.07404ZM17.6448 8.9562H17.6439C17.6439 8.99515 17.6448 9.03412 17.6457 9.07404C17.6448 9.03412 17.6448 8.99515 17.6448 8.9562ZM17.1548 7.36642C17.1503 7.36241 17.1459 7.35945 17.1405 7.35545C17.1208 7.34048 17.1012 7.32649 17.0806 7.3135C17.0699 7.30552 17.0583 7.29854 17.0466 7.29153C17.0252 7.27758 17.0028 7.2646 16.9796 7.25261C16.9739 7.249 16.9679 7.24598 16.9617 7.24359C16.9331 7.22765 16.9036 7.21366 16.8732 7.20069C16.8553 7.19271 16.8365 7.18572 16.8177 7.17871C16.7882 7.1668 16.7569 7.15676 16.7256 7.14773C16.7095 7.14275 16.6943 7.13875 16.6782 7.13477C16.6389 7.12476 16.5986 7.11569 16.5584 7.10978C16.528 7.1048 16.4976 7.1018 16.4663 7.09882C16.718 7.12382 16.9599 7.22004 17.1691 7.3784C17.1646 7.37404 17.1598 7.37005 17.1548 7.36642ZM16.3333 7.09281C16.3258 7.09297 16.3183 7.09364 16.3109 7.09482C16.327 7.09379 16.3422 7.09379 16.3574 7.09379C16.3494 7.09298 16.3414 7.09264 16.3333 7.09281ZM15.4687 10.4922C15.6993 10.6895 15.9787 10.8028 16.2689 10.8167C15.9794 10.7987 15.7011 10.6859 15.4687 10.4922ZM15.0476 9.65927C15.0476 9.66925 15.0476 9.68021 15.0485 9.69025C15.0494 9.70727 15.0512 9.72321 15.053 9.74018C15.0575 9.78508 15.0653 9.82949 15.0762 9.87299C15.0789 9.88603 15.0825 9.89797 15.086 9.91098C15.0887 9.91997 15.0905 9.92795 15.0932 9.93596C15.0977 9.95093 15.1031 9.96488 15.1084 9.97985C15.1134 9.9956 15.1194 10.011 15.1263 10.0258C15.1307 10.0386 15.1361 10.051 15.1424 10.0627C15.1532 10.0885 15.1654 10.1136 15.179 10.1376C15.1916 10.1618 15.2053 10.1851 15.2202 10.2076C15.2354 10.2325 15.2524 10.2565 15.2692 10.2794L15.2719 10.2825C15.2777 10.2909 15.2839 10.2989 15.2907 10.3064L15.2979 10.3144C15.1506 10.1338 15.0625 9.90294 15.0476 9.65927ZM15.0449 8.95525C15.0449 8.87338 15.044 8.79048 15.0431 8.70861C15.0412 8.72679 15.0406 8.74513 15.0414 8.76343C15.0431 8.80438 15.044 8.84432 15.0431 8.88327C15.044 8.93516 15.0449 8.9891 15.0449 9.04101C15.0458 9.0121 15.0458 8.98412 15.0458 8.9552L15.0449 8.95525ZM15.0431 9.38967C15.0431 9.27683 15.0449 9.16497 15.0449 9.05214C15.0431 9.24587 15.0369 9.44158 15.0467 9.63531C15.0439 9.55341 15.0431 9.47159 15.0431 9.38967Z" fill="#3A86FF"/>
<path d="M11.9991 6.36226C11.9991 2.50658 9.05407 0.872834 4.83415 0.284636V3.04989L3.82744 2.47071L2.82073 3.04989V0.0838747C1.91595 0.0249786 0.971831 0 9.49249e-06 0V10.718C-0.00286401 12.7791 0.646731 14.775 1.83397 16.3529C3.02121 17.9307 4.66964 18.989 6.48788 19.3405C9.80377 19.9718 12 21.3288 12 24C12 21.2402 14.3439 19.8833 17.8452 19.28C19.564 18.9761 21.129 17.9959 22.2576 16.5164C23.3862 15.0369 24.0042 13.1554 24 11.2117V0C17.3724 0 11.9991 1.15442 11.9991 6.36226ZM6.75457 12.2242C5.4421 12.0654 4.34241 10.8801 4.40859 9.59179C4.43541 9.08351 4.40231 8.57323 4.42288 8.06295C4.47563 6.6968 5.64864 5.64425 7.11668 5.63522C8.67948 5.62626 9.86051 6.70281 9.89628 8.17578C9.90163 8.43136 9.89717 8.68709 9.89717 9.01861C9.87571 9.48792 9.93383 10.0382 9.73088 10.5765C9.31246 11.6929 8.01072 12.378 6.75457 12.2242ZM14.928 15.8532C14.5822 16.3529 14.1385 16.7575 13.6309 17.0359C13.1234 17.3142 12.5654 17.459 12 17.459C11.4345 17.459 10.8766 17.3142 10.369 17.0359C9.86144 16.7575 9.41773 16.3529 9.07195 15.8532C9.00755 15.7588 8.96806 15.6461 8.95796 15.5279C8.94785 15.4097 8.96753 15.2908 9.01477 15.1844C9.06201 15.0781 9.13492 14.9886 9.22528 14.9261C9.31564 14.8636 9.41985 14.8305 9.52613 14.8307H14.4729C14.5792 14.8306 14.6834 14.8636 14.7738 14.9261C14.8641 14.9886 14.9371 15.078 14.9844 15.1843C15.0317 15.2906 15.0515 15.4095 15.0415 15.5277C15.0315 15.6459 14.9922 15.7586 14.928 15.8532ZM19.3786 10.5695C18.9433 11.7628 17.6835 12.4149 16.3728 12.2272C15.9363 12.1857 15.5155 12.0251 15.1476 11.7594C14.7797 11.4936 14.4758 11.131 14.2629 10.7033C14.1341 10.4659 14.0632 10.1949 14.0572 9.9174C14.0617 9.6018 14.059 9.28525 14.059 8.81292C14.0841 8.47339 13.9893 7.97504 14.1574 7.48373C14.4765 6.546 15.1265 5.91592 16.1502 5.69917C17.5629 5.39861 18.8315 6.0427 19.3813 7.282C19.4405 7.42158 19.4774 7.5716 19.4904 7.72533C19.5798 8.68006 19.713 9.65572 19.3786 10.5695Z" fill="#3A86FF"/>
<path d="M4.83373 0.284746V3.05L3.82702 2.47081L2.82031 3.05V0.0839844C3.51769 0.128937 4.19092 0.194865 4.83373 0.284746Z" fill="white"/>
<path d="M17.6453 9.07403C17.6453 9.11693 17.6453 9.16093 17.6462 9.20486C17.6479 9.18596 17.6482 9.16693 17.6471 9.14797C17.6461 9.12299 17.6453 9.09901 17.6453 9.07403ZM17.1545 7.36638C17.15 7.36237 17.1456 7.35942 17.1402 7.35542C17.1205 7.34045 17.1009 7.32645 17.0803 7.31346C17.0696 7.30548 17.058 7.2985 17.0463 7.29149C17.0249 7.27754 17.0025 7.26456 16.9793 7.25257C16.9736 7.24896 16.9676 7.24594 16.9614 7.24356C16.9328 7.22761 16.9033 7.21362 16.8729 7.20065C16.855 7.19267 16.8362 7.18569 16.8174 7.17868C16.7879 7.16676 16.7566 7.15673 16.7253 7.14769C16.7092 7.14271 16.694 7.13871 16.6779 7.13473C16.6386 7.12472 16.5983 7.11566 16.5581 7.10975C16.5277 7.10477 16.4964 7.10079 16.466 7.09878C16.7177 7.12378 16.9596 7.22 17.1688 7.37837C17.1643 7.37401 17.1595 7.37 17.1545 7.36638ZM16.333 7.09278C16.3255 7.09294 16.318 7.0936 16.3106 7.09478C16.3267 7.09375 16.3419 7.09375 16.3571 7.09375C16.349 7.09295 16.3411 7.09259 16.333 7.09278ZM15.2977 10.3143C15.1504 10.1338 15.0622 9.90288 15.0473 9.65923C15.0473 9.66921 15.0473 9.68018 15.0482 9.69021C15.0491 9.70723 15.0509 9.72318 15.0527 9.74015C15.0572 9.78504 15.065 9.82945 15.0759 9.87295C15.0786 9.88599 15.0822 9.89793 15.0857 9.91095C15.0884 9.91993 15.0902 9.92792 15.0929 9.93593C15.0974 9.9509 15.1028 9.96484 15.1081 9.97981C15.1131 9.99556 15.1191 10.0109 15.126 10.0258C15.1304 10.0386 15.1358 10.0509 15.1421 10.0627C15.1529 10.0885 15.1651 10.1135 15.1787 10.1376C15.1913 10.1617 15.205 10.1851 15.2199 10.2075C15.2351 10.2325 15.2521 10.2565 15.2689 10.2794L15.2716 10.2824C15.2774 10.2909 15.2836 10.2989 15.2904 10.3064C15.2967 10.3144 15.302 10.3223 15.3092 10.3303C15.3154 10.3383 15.3226 10.3463 15.3297 10.3542C15.3189 10.3413 15.3084 10.3273 15.2977 10.3143ZM15.0428 9.38953C15.0428 9.2767 15.0446 9.16484 15.0446 9.05201C15.0428 9.24574 15.0366 9.44145 15.0464 9.63518C15.0435 9.5534 15.0428 9.47145 15.0428 9.38953Z" fill="#F7F9FC"/>
<path d="M19.4905 7.72533C19.4775 7.5716 19.4406 7.42159 19.3815 7.282C18.8316 6.04271 17.563 5.39861 16.1504 5.69917C15.1267 5.91593 14.4767 6.546 14.1575 7.48374C13.9894 7.97505 14.0842 8.47339 14.0592 8.81292C14.0592 9.28526 14.0619 9.60185 14.0574 9.91741C14.0633 10.1949 14.1342 10.4659 14.263 10.7033C14.476 11.131 14.7798 11.4936 15.1477 11.7594C15.5157 12.0251 15.9364 12.1858 16.373 12.2272C17.6837 12.4149 18.9434 11.7628 19.3788 10.5695C19.7132 9.65567 19.58 8.68002 19.4905 7.72533ZM17.6443 8.95562C17.6443 8.99456 17.6443 9.03353 17.6452 9.07346C17.6452 9.09844 17.6461 9.12241 17.647 9.14735C17.6481 9.16631 17.6478 9.18534 17.6461 9.20424C17.6363 9.31507 17.5746 9.34308 17.4244 9.35306C16.7127 9.40495 16.398 9.9732 16.753 10.5634C16.8406 10.7111 16.8138 10.7371 16.6555 10.7791C16.6331 10.7851 16.6108 10.79 16.5885 10.7941C16.5752 10.7974 16.5618 10.7997 16.5482 10.8011C16.5269 10.8051 16.5062 10.808 16.4848 10.81C16.4328 10.8162 16.3805 10.8189 16.3283 10.818C16.3104 10.818 16.2925 10.817 16.2738 10.8161H16.2684C15.9781 10.8022 15.6987 10.6889 15.4682 10.4915C15.4533 10.4797 15.4389 10.467 15.4252 10.4535C15.4047 10.4335 15.3832 10.4136 15.3636 10.3915C15.3519 10.3785 15.3403 10.3666 15.3296 10.3535C15.3224 10.3456 15.3153 10.3376 15.309 10.3297C15.3019 10.3217 15.2965 10.3137 15.2902 10.3057C15.2835 10.2983 15.2772 10.2902 15.2715 10.2818L15.2688 10.2787C15.2512 10.2559 15.2348 10.2319 15.2197 10.2069C15.2049 10.1844 15.1911 10.1611 15.1786 10.1369C15.165 10.1129 15.1527 10.0879 15.142 10.0621C15.1357 10.0503 15.1303 10.0379 15.1258 10.0251C15.119 10.0103 15.113 9.99492 15.108 9.97916C15.1026 9.96419 15.0973 9.95025 15.0928 9.93528C15.0901 9.92727 15.0883 9.91929 15.0856 9.9103C15.082 9.89729 15.0784 9.88535 15.0758 9.87231C15.0649 9.82881 15.0571 9.7844 15.0525 9.7395C15.0507 9.72253 15.049 9.70658 15.0481 9.68957C15.0472 9.67956 15.0472 9.66859 15.0472 9.65858C15.046 9.65071 15.0457 9.6427 15.0463 9.63475C15.0364 9.44102 15.0427 9.24531 15.0445 9.05158C15.0449 9.04792 15.0449 9.04421 15.0445 9.04054C15.0445 8.98863 15.0436 8.93469 15.0427 8.8828C15.0436 8.84386 15.0427 8.80391 15.0409 8.76296C15.0401 8.74466 15.0407 8.72632 15.0427 8.70814C15.0418 8.56532 15.0409 8.42353 15.0454 8.28169C15.0633 7.67554 15.5577 7.17813 16.187 7.10236H16.1888C16.2362 7.09635 16.2845 7.09332 16.3327 7.09235C16.3408 7.09218 16.3488 7.09251 16.3569 7.09333C16.3727 7.09267 16.3885 7.09301 16.4042 7.09435C16.4248 7.09532 16.4454 7.09635 16.466 7.09835C16.4963 7.10035 16.5276 7.10434 16.558 7.10932C16.5983 7.11532 16.6385 7.12428 16.6778 7.1343C16.6939 7.13828 16.7091 7.14228 16.7252 7.14726C16.7565 7.15627 16.7878 7.16633 16.8173 7.17825C16.8361 7.18526 16.8549 7.19224 16.8728 7.20023C16.9032 7.21322 16.9327 7.22721 16.9613 7.24313C16.9675 7.24551 16.9735 7.24853 16.9792 7.25214C17.0024 7.26412 17.0248 7.27709 17.0462 7.29106C17.0579 7.29807 17.0695 7.30505 17.0802 7.31304C17.1008 7.32603 17.1204 7.34002 17.1401 7.35498C17.1455 7.35899 17.15 7.36195 17.1544 7.36595C17.1681 7.37571 17.1812 7.38639 17.1938 7.39794C17.2027 7.40492 17.2108 7.41188 17.2197 7.41891C17.2349 7.43103 17.2495 7.44401 17.2635 7.45781C17.276 7.46972 17.2886 7.48181 17.3002 7.4938C17.3092 7.50226 17.3179 7.51126 17.3261 7.52075C17.3393 7.53397 17.3518 7.54798 17.3636 7.56271C17.3771 7.5787 17.3905 7.59567 17.4039 7.61264C17.4101 7.62062 17.4164 7.62961 17.4226 7.63862C17.4288 7.64546 17.4345 7.6528 17.4397 7.66057C17.4468 7.66978 17.4533 7.67945 17.4594 7.68953C17.4683 7.7025 17.4765 7.71546 17.4844 7.72946C17.4915 7.73948 17.4978 7.75016 17.5032 7.76139C17.5112 7.77443 17.5184 7.78842 17.5255 7.80237C17.5362 7.82434 17.5461 7.84629 17.5559 7.86829C17.5622 7.88224 17.5676 7.89623 17.573 7.91022C17.5796 7.92577 17.5853 7.94178 17.5901 7.95815C17.5937 7.96814 17.5963 7.97722 17.599 7.98711C17.6075 8.01352 17.6144 8.04055 17.6196 8.06801C17.6248 8.08795 17.6287 8.10831 17.6312 8.1289C17.6319 8.13113 17.6322 8.13352 17.6321 8.13589C17.6365 8.16399 17.6394 8.19233 17.6411 8.22079C17.6553 8.44748 17.6455 8.67518 17.6437 8.90187V8.95576L17.6443 8.95562Z" fill="white"/>
<path d="M8.8719 8.95634V9.01523C8.86744 9.06619 8.86564 9.11813 8.86564 9.17204C8.8763 9.10077 8.87841 9.02823 8.8719 8.95634ZM8.21924 7.25879C8.34389 7.32674 8.45847 7.41566 8.55898 7.52243C8.45969 7.414 8.34486 7.32489 8.21924 7.25879ZM7.31268 10.7818C7.3027 10.7808 7.29283 10.7788 7.28316 10.7758C7.25099 10.7698 7.22058 10.7619 7.18927 10.7538C7.2072 10.7599 7.22541 10.7649 7.24381 10.7688C7.26078 10.7738 7.27868 10.7778 7.29656 10.7818C7.33407 10.79 7.37198 10.7957 7.41009 10.7988C7.37703 10.7948 7.34486 10.7887 7.31268 10.7818ZM6.28004 9.7033C6.26574 9.52253 6.27468 9.33779 6.27556 9.15509C6.27645 9.08225 6.26933 9.00634 6.26489 8.93245C6.26399 9.20107 6.25772 9.42178 6.26578 9.64345C6.27409 9.84108 6.33337 10.0318 6.4365 10.1927C6.34763 10.0472 6.29375 9.87871 6.28004 9.7033Z" fill="#F7F9FC"/>
<path d="M9.89678 8.17538C9.86101 6.70239 8.67998 5.62586 7.11718 5.63482C5.64905 5.64385 4.47613 6.69641 4.42338 8.06255C4.40281 8.57283 4.43591 9.08311 4.40909 9.59139C4.34294 10.8797 5.4426 12.065 6.75508 12.2238C8.01122 12.3776 9.31296 11.6925 9.73138 10.5761C9.93433 10.0378 9.87621 9.48752 9.89767 9.01821C9.89767 8.68669 9.90213 8.43097 9.89678 8.17538ZM8.86773 9.172C8.86251 9.20229 8.8541 9.23178 8.84269 9.25987C8.77117 9.43063 8.53513 9.32478 8.37778 9.37771C7.89765 9.54048 7.6661 10.0708 7.94328 10.5071C8.08275 10.7288 7.98709 10.7558 7.79843 10.7897C7.74605 10.7992 7.69321 10.8052 7.6402 10.8077C7.59135 10.8109 7.54237 10.8106 7.49356 10.8067C7.48015 10.8057 7.46582 10.8048 7.45244 10.8037C7.43894 10.803 7.4255 10.8014 7.41219 10.7988C7.37408 10.7956 7.33617 10.7899 7.29867 10.7818C7.28078 10.7778 7.26288 10.7738 7.24592 10.7688C7.22751 10.7649 7.20931 10.7599 7.19137 10.7538C7.18649 10.7531 7.18169 10.7517 7.17706 10.7498C7.1583 10.7438 7.13952 10.7379 7.12157 10.7318C7.09117 10.7219 7.06078 10.7099 7.03129 10.6969C6.99104 10.6799 6.9508 10.6599 6.91237 10.639C6.89448 10.629 6.8775 10.619 6.86049 10.609C6.81818 10.5844 6.77753 10.5564 6.73886 10.5251C6.70045 10.4942 6.66379 10.4622 6.6289 10.4293C6.60116 10.4023 6.57434 10.3733 6.54931 10.3444C6.53585 10.3301 6.5233 10.3147 6.51177 10.2984C6.49565 10.2775 6.48045 10.2565 6.46617 10.2355C6.45633 10.2215 6.44739 10.2066 6.43843 10.1926C6.3353 10.0318 6.27602 9.84103 6.26772 9.6434C6.25965 9.42174 6.26592 9.20103 6.26682 8.93241C6.26075 8.86514 6.26286 8.79728 6.27307 8.73064V8.72967C6.24292 8.44517 6.26915 8.15675 6.34989 7.88484C6.45614 7.64622 6.62005 7.44559 6.82309 7.30563C7.02612 7.16567 7.26018 7.09198 7.49876 7.0929C7.54732 7.09024 7.59597 7.09058 7.64449 7.09392C7.66237 7.0949 7.68025 7.0969 7.69813 7.09793C7.70795 7.09891 7.71781 7.10091 7.72762 7.10193C7.77335 7.10601 7.81877 7.11368 7.86353 7.12489C7.90245 7.1327 7.94092 7.14305 7.97876 7.15587C8.00561 7.16388 8.03153 7.17382 8.05746 7.1838C8.06997 7.18883 8.08248 7.19383 8.095 7.1988C8.13792 7.21634 8.17999 7.23633 8.22107 7.25872C8.34668 7.32482 8.46151 7.41393 8.56081 7.52236C8.57421 7.53733 8.58763 7.55229 8.60105 7.56829C8.61624 7.58624 8.63054 7.60423 8.64396 7.62311C8.65468 7.63709 8.66451 7.65107 8.67345 7.66503C8.6815 7.67607 8.68954 7.68703 8.69669 7.69902C8.72885 7.74749 8.75672 7.79932 8.77991 7.8538C8.8032 7.90762 8.82263 7.96341 8.83802 8.02065C8.84808 8.05896 8.85585 8.09798 8.86128 8.13744C8.8674 8.1774 8.87128 8.21776 8.87289 8.25826C8.88006 8.47594 8.87468 8.69365 8.87379 8.95629C8.88036 9.02817 8.87832 9.10071 8.86773 9.172Z" fill="white"/>
<path d="M17.6453 9.20413C17.6354 9.31497 17.5738 9.34297 17.4236 9.35296C16.7119 9.40485 16.3972 9.9731 16.7521 10.5632C16.8397 10.711 16.8129 10.737 16.6547 10.779C16.6323 10.785 16.61 10.7899 16.5876 10.7939C16.5744 10.7973 16.5609 10.7996 16.5474 10.801C16.526 10.805 16.5054 10.8079 16.4839 10.8099C16.432 10.8161 16.3797 10.8187 16.3275 10.8179C16.3096 10.8179 16.2917 10.8169 16.2729 10.8159H16.2675C15.978 10.798 15.6997 10.6851 15.4673 10.4914C15.453 10.4795 15.4387 10.4664 15.4244 10.4534C15.4038 10.4334 15.3824 10.4135 15.3627 10.3914C15.3511 10.3784 15.3395 10.3665 15.3287 10.3534C15.318 10.3404 15.3074 10.3265 15.2966 10.3135C15.1494 10.1329 15.0611 9.90206 15.0462 9.6584C15.045 9.65053 15.0447 9.64252 15.0453 9.63457C15.0426 9.5527 15.0417 9.4708 15.0417 9.38893C15.0417 9.27609 15.0435 9.16423 15.0435 9.0514C15.044 9.04774 15.044 9.04403 15.0435 9.04036C15.0444 9.01145 15.0444 8.98347 15.0444 8.95456H15.0435C15.0435 8.87269 15.0426 8.78979 15.0417 8.70791C15.0408 8.56509 15.04 8.4233 15.0444 8.28146C15.0623 7.67531 15.5567 7.1779 16.1861 7.10213H16.1878C16.2281 7.0971 16.2683 7.09498 16.3095 7.09412C16.3256 7.0931 16.3408 7.0931 16.356 7.0931C16.3718 7.09244 16.3876 7.09278 16.4033 7.09412C16.4239 7.0951 16.4445 7.09613 16.4651 7.09813C16.7168 7.12313 16.9586 7.21935 17.1678 7.37771C17.1758 7.38372 17.1848 7.3907 17.1928 7.39771C17.2017 7.40469 17.2099 7.41165 17.2187 7.41868C17.2339 7.4308 17.2485 7.44378 17.2625 7.45758C17.2751 7.4695 17.2876 7.48159 17.2992 7.49358C17.3083 7.50204 17.3169 7.51103 17.3251 7.52053L17.3627 7.56248C17.3761 7.57847 17.3895 7.59544 17.4029 7.61242C17.4092 7.6204 17.4154 7.62938 17.4217 7.63839C17.552 7.81412 17.6288 8.03171 17.6407 8.25951C17.6488 8.47323 17.6425 8.68696 17.6425 8.90164V8.95554C17.6425 8.99448 17.6434 9.03345 17.6443 9.07338C17.6445 9.11628 17.6445 9.16021 17.6453 9.20413Z" fill="#4A4E69"/>
<path d="M15.0465 9.63493C15.0365 9.4412 15.0429 9.24549 15.0447 9.05176C15.0447 9.16459 15.0429 9.27645 15.0429 9.38928C15.0429 9.4712 15.0438 9.55305 15.0465 9.63493Z" fill="#4A4E69"/>
<path d="M15.3293 10.3541C15.3221 10.3462 15.315 10.3382 15.3087 10.3303C15.3016 10.3223 15.2962 10.3143 15.2899 10.3063C15.2832 10.2989 15.2769 10.2908 15.2712 10.2824L15.2685 10.2793C15.2514 10.2564 15.2345 10.2324 15.2194 10.2075C15.2046 10.185 15.1909 10.1617 15.1783 10.1375C15.1647 10.1135 15.1524 10.0885 15.1417 10.0627C15.1354 10.0509 15.13 10.0385 15.1256 10.0257C15.1187 10.0109 15.1127 9.99552 15.1077 9.97976C15.1023 9.96479 15.097 9.95085 15.0925 9.93588C15.0898 9.92787 15.088 9.91988 15.0853 9.9109C15.0817 9.89788 15.0782 9.88594 15.0755 9.87291C15.0646 9.82941 15.0568 9.78499 15.0523 9.7401C15.0505 9.72313 15.0487 9.70718 15.0478 9.69016C15.0469 9.68015 15.0469 9.66919 15.0469 9.65918C15.0618 9.90284 15.15 10.1337 15.2972 10.3143C15.3078 10.3272 15.3186 10.3412 15.3293 10.3541Z" fill="#4A4E69"/>
<path d="M16.3551 7.09367C16.3399 7.09367 16.3247 7.09368 16.3086 7.09458C16.316 7.09354 16.3235 7.09295 16.331 7.09281C16.339 7.09267 16.3471 7.09295 16.3551 7.09367Z" fill="#4A4E69"/>
<path d="M17.1676 7.37822C16.9584 7.21985 16.7165 7.12363 16.4648 7.09863C16.4952 7.10063 16.5265 7.10462 16.5569 7.1096C16.5971 7.1156 16.6374 7.12457 16.6767 7.13458C16.6928 7.13856 16.708 7.14256 16.7241 7.14754C16.7554 7.15655 16.7867 7.16661 16.8162 7.17853C16.835 7.18554 16.8537 7.19252 16.8717 7.2005C16.9021 7.21349 16.9316 7.22749 16.9602 7.24341C16.9664 7.24579 16.9724 7.24881 16.9781 7.25242C17.0013 7.2644 17.0237 7.27737 17.0451 7.29134C17.0568 7.29835 17.0684 7.30533 17.0791 7.31331C17.0997 7.3263 17.1193 7.3403 17.139 7.35527C17.1444 7.35927 17.1488 7.36222 17.1533 7.36623C17.1583 7.36985 17.1631 7.37386 17.1676 7.37822Z" fill="#4A4E69"/>
<path d="M17.6463 9.14718C17.6474 9.16614 17.6471 9.18517 17.6454 9.20407C17.6445 9.16015 17.6445 9.11622 17.6445 9.07324C17.6446 9.09822 17.6454 9.1222 17.6463 9.14718Z" fill="#4A4E69"/>
<path d="M8.87282 8.95688V9.01578C8.86836 9.06674 8.86657 9.11867 8.86657 9.17259C8.86135 9.20288 8.85295 9.23238 8.84154 9.26047C8.77001 9.43122 8.53398 9.32537 8.37662 9.37831C7.8965 9.54108 7.66495 10.0714 7.94212 10.5077C8.08159 10.7294 7.98593 10.7564 7.79727 10.7903C7.74489 10.7998 7.69206 10.8058 7.63904 10.8083C7.59019 10.8115 7.54121 10.8111 7.4924 10.8073C7.479 10.8063 7.46466 10.8054 7.45128 10.8043C7.43779 10.8036 7.42434 10.802 7.41103 10.7994C7.37796 10.7954 7.34578 10.7894 7.3136 10.7824C7.30363 10.7813 7.29375 10.7793 7.28409 10.7764C7.25191 10.7704 7.2215 10.7624 7.1902 10.7544C7.18531 10.7536 7.18051 10.7523 7.17588 10.7504C7.15712 10.7444 7.13834 10.7385 7.1204 10.7324C7.08999 10.7214 7.0596 10.7105 7.03011 10.6975C6.98987 10.6805 6.94962 10.6605 6.91119 10.6396C6.89331 10.6296 6.87632 10.6196 6.85932 10.6096C6.8173 10.5836 6.77707 10.5557 6.73768 10.5257C6.69927 10.4947 6.66262 10.4628 6.62772 10.4299C6.59998 10.4029 6.57316 10.3739 6.54813 10.345C6.53562 10.33 6.5231 10.315 6.51059 10.299C6.49447 10.2781 6.47927 10.2571 6.46499 10.2361C6.45515 10.2221 6.44621 10.2072 6.43725 10.1932C6.3484 10.0478 6.29452 9.87931 6.28079 9.70392C6.26649 9.52315 6.27544 9.33841 6.27631 9.15571C6.27721 9.08287 6.27008 9.00696 6.26564 8.93307V8.88612C6.27012 8.83618 6.27189 8.78425 6.27189 8.73131V8.73033C6.24174 8.44584 6.26797 8.15742 6.34872 7.8855C6.45496 7.64689 6.61887 7.44625 6.82191 7.3063C7.02495 7.16634 7.259 7.09265 7.49759 7.09356C7.54614 7.09091 7.59479 7.09125 7.64331 7.09459C7.66119 7.09556 7.67907 7.09757 7.69696 7.09859C7.70677 7.09957 7.71663 7.10157 7.72645 7.1026C7.76936 7.10755 7.81229 7.11556 7.85431 7.12453C7.89633 7.13349 7.93753 7.14359 7.97767 7.15651C8.00362 7.1655 8.03044 7.17446 8.05637 7.18445C8.06887 7.18947 8.08139 7.19447 8.0939 7.19944C8.13682 7.21698 8.1789 7.23697 8.21998 7.25936C8.34463 7.32731 8.45921 7.41623 8.55971 7.523C8.57311 7.53797 8.58654 7.55294 8.59996 7.56893C8.61515 7.58688 8.62945 7.60487 8.64287 7.62375C8.65358 7.63773 8.66341 7.65171 8.67236 7.66567C8.77741 7.82028 8.84153 8.00469 8.85744 8.19796C8.87173 8.37974 8.86281 8.56346 8.86192 8.74721C8.86211 8.81604 8.86836 8.887 8.87282 8.95688Z" fill="#4A4E69"/>
<path d="M6.4365 10.1928C6.33337 10.032 6.27409 9.84125 6.26578 9.64361C6.25772 9.42195 6.26399 9.20124 6.26489 8.93262C6.26937 9.00651 6.2765 9.08242 6.27556 9.15526C6.27468 9.33803 6.26574 9.52277 6.28004 9.70346C6.29375 9.87888 6.34763 10.0474 6.4365 10.1928Z" fill="#4A4E69"/>
<path d="M7.41027 10.7999C7.37216 10.7967 7.33425 10.791 7.29675 10.7828C7.27886 10.7788 7.26096 10.7749 7.244 10.7698C7.22559 10.7659 7.20739 10.7609 7.18945 10.7549C7.22074 10.7629 7.25114 10.7709 7.28335 10.7769C7.29301 10.7798 7.30288 10.7818 7.31286 10.7828C7.34501 10.7898 7.37719 10.7959 7.41027 10.7999Z" fill="#4A4E69"/>
<path d="M8.56044 7.52243C8.45993 7.41566 8.34535 7.32674 8.2207 7.25879C8.34632 7.32489 8.46115 7.41401 8.56044 7.52243Z" fill="#4A4E69"/>
<path d="M8.86719 9.17274C8.86719 9.11882 8.869 9.06689 8.8735 9.01593V8.95703C8.88007 9.02892 8.87795 9.10147 8.86719 9.17274Z" fill="#4A4E69"/>
<path d="M14.9277 15.8536C14.5819 16.3533 14.1382 16.7579 13.6306 17.0363C13.1231 17.3146 12.5651 17.4594 11.9997 17.4594C11.4342 17.4594 10.8763 17.3146 10.3687 17.0363C9.86114 16.7579 9.41743 16.3533 9.07165 15.8536C9.00725 15.7591 8.96776 15.6465 8.95766 15.5283C8.94756 15.4101 8.96723 15.2911 9.01447 15.1848C9.06171 15.0784 9.13462 14.989 9.22498 14.9265C9.31534 14.8639 9.41955 14.8309 9.52583 14.8311H14.4726C14.5789 14.8309 14.6831 14.864 14.7735 14.9265C14.8638 14.989 14.9368 15.0784 14.9841 15.1847C15.0314 15.291 15.0512 15.4099 15.0412 15.5281C15.0313 15.6463 14.9919 15.759 14.9277 15.8536Z" fill="white"/>
<defs>
<linearGradient id="paint0_linear_77_92" x1="159.89" y1="32.5914" x2="151.78" y2="-31.3566" gradientUnits="userSpaceOnUse">
<stop stop-color="white" stop-opacity="0.81"/>
<stop offset="1" stop-color="white" stop-opacity="0.79"/>
</linearGradient>
</defs>
</svg>
