<svg width="593" height="591" viewBox="0 0 593 591" fill="none" xmlns="http://www.w3.org/2000/svg">
<path d="M318.009 498.92C319.957 489.621 319.084 479.571 313.435 473.579C317.586 477.982 324.602 471.86 326.325 466.067C329.831 454.277 327.863 440.837 334.135 430.248C342.069 416.851 360.574 413.311 375.74 416.989C390.907 420.666 404.045 429.809 417.995 436.787C428.495 442.039 449.079 450.806 460.607 443.751C468.892 438.68 475.735 420.841 477.891 411.944C480.646 400.573 479.276 387.57 472.269 378.555C470.269 376.507 468.695 374.086 467.637 371.431C467.368 370.465 467.264 369.462 467.329 368.462C467.695 362.796 473.354 357.987 476.897 353.042C482.32 345.471 483.145 334.994 481.163 325.677C477.33 307.655 465.188 289.847 448.778 283.036C439.096 279.017 428.368 279.469 418.017 280.266C377.295 283.398 336.753 290.977 295.942 289.823C273.882 289.201 250.765 285.261 233.17 269.877C224.062 261.913 225.752 266.407 224.755 276.965C223.785 287.244 220.109 299.171 210.413 303.424C202.797 306.766 194.226 303.849 186.233 301.762C157.639 294.293 116.763 303.037 108.414 337.845C99.8747 373.441 119.95 412.483 151.454 424.998C145.495 423.021 139.732 430.552 140.577 437.198C141.422 443.845 146.492 448.92 151.725 452.567C162.794 460.318 176.102 464.252 189.621 463.768C188.03 469.898 187.841 476.305 189.069 482.517C190.297 488.729 192.911 494.587 196.716 499.657C215.284 525.083 247.52 531.227 277.235 529.428C288.742 528.731 299.71 525.737 308.546 517.684C313.48 512.491 316.771 505.965 318.009 498.92Z" fill="#3A2C39"/>
<g style="mix-blend-mode:multiply" opacity="0.46">
<path d="M210.413 303.423C204.645 305.953 197.836 303.863 191.782 305.218C198.597 303.692 205.712 308.34 208.757 314.605C211.447 321.094 211.864 328.298 209.94 335.053C208.479 339.742 207.544 344.577 207.153 349.471C206.994 351.927 207.532 354.377 208.703 356.543C209.875 358.709 211.634 360.503 213.78 361.719C218.272 363.729 224.745 360.4 224.324 355.511C216.869 374.646 230.148 397.094 248.759 405.888C254.833 408.759 265.206 408.656 269.132 413.993C273.467 419.885 270.412 429.843 267.839 435.722C266.55 439.665 263.818 442.98 260.187 445.007C257.018 446.352 253.387 445.805 249.996 446.412C246.606 447.019 242.971 449.787 243.69 453.145C245.558 437.343 240.332 401.737 215.29 409.068C209.167 410.862 204.705 415.98 200.605 420.854C204.567 408.564 204.986 395.412 201.815 382.896C201.437 380.535 200.278 378.368 198.522 376.74C195.637 374.555 191.51 375.512 188.15 376.864C173.596 382.717 160.16 394.395 144.557 392.722C133.914 391.582 124.797 384.092 119.061 375.086C113.324 366.08 110.432 355.612 107.616 345.321C105.72 362.782 109.356 380.398 118.013 395.696C125.472 408.016 137.409 420.337 151.454 424.997C145.494 423.02 139.732 430.551 140.577 437.198C141.421 443.844 146.491 448.919 151.725 452.566C162.794 460.317 176.101 464.251 189.621 463.767C188.03 469.897 187.841 476.304 189.069 482.516C190.297 488.729 192.91 494.586 196.716 499.656C215.284 525.082 247.52 531.226 277.235 529.427C288.742 528.73 299.71 525.736 308.545 517.683C313.479 512.49 316.769 505.965 318.008 498.921C319.956 489.622 319.082 479.572 313.433 473.58C317.584 477.983 324.6 471.861 326.323 466.068C329.829 454.278 327.861 440.838 334.133 430.249C342.067 416.852 360.572 413.312 375.738 416.99C390.905 420.667 404.043 429.81 417.993 436.788C428.493 442.04 449.077 450.807 460.605 443.751C468.89 438.68 475.733 420.842 477.889 411.945C480.224 402.309 479.347 388.807 471.84 381.326C473.413 389.415 473.399 398.502 468.384 405.051C463.368 411.6 451.942 413.374 447.097 406.698C441.847 399.462 447.459 389.181 445.428 380.484C445.184 379.193 444.606 377.988 443.751 376.988C442.714 376.066 441.421 375.479 440.043 375.305C438.664 375.131 437.265 375.378 436.03 376.013C433.585 377.331 431.441 379.139 429.732 381.324C432.76 370.595 438.154 360.676 445.52 352.29C451.63 345.347 458.999 339.576 464.982 332.525C481.697 312.825 471.31 292.388 448.777 283.035C439.095 279.017 428.367 279.469 418.016 280.265C377.295 283.397 336.753 290.976 295.941 289.823C273.881 289.2 250.765 285.261 233.169 269.877C224.061 261.912 225.751 266.407 224.755 276.964C223.785 287.242 220.109 299.169 210.413 303.423Z" fill="#3A2C39"/>
</g>
<path d="M234.857 243.942C236.933 241.726 239.008 239.569 241.025 237.53C240.375 241.793 240.068 246.102 240.105 250.414L234.857 243.942Z" fill="#3A86FF"/>
<path d="M244.079 234.457C243.071 235.461 242.063 236.466 241.025 237.53C241.025 237.471 241.055 237.382 241.055 237.323C241.144 236.791 241.233 236.289 241.322 235.757C243.457 234.073 245.71 232.3 248.112 230.497C246.777 231.798 245.443 233.098 244.079 234.457Z" fill="#3A86FF"/>
<path d="M271.297 291.843C271.268 291.814 271.208 291.784 271.179 291.755C272.75 291.607 273.61 290.277 273.966 288.622C273.669 290.306 272.839 291.636 271.297 291.843Z" fill="#3A86FF"/>
<path d="M302.074 330.672C302.044 330.672 302.015 330.642 301.985 330.642C294.659 315.645 284.147 302.416 271.179 291.872C271.22 291.877 271.262 291.866 271.297 291.843C284.267 302.401 294.77 315.652 302.074 330.672Z" fill="#3A86FF"/>
<path d="M278.829 315.128C286.212 320.95 293.239 327.776 301.985 330.642L302.074 330.819C293.298 327.953 286.241 321.097 278.829 315.276C274.174 311.582 267.354 306.736 260.742 305.495C258.648 305.53 256.574 305.909 254.605 306.618C252.971 307.467 251.472 308.553 250.157 309.839C239.78 319.945 243.96 336.641 250.187 347.988C255.077 356.572 262.704 363.281 271.858 367.05C281.012 370.82 291.167 371.432 300.71 368.791C290.904 372.223 280.199 372.109 270.469 368.468C260.739 364.827 252.605 357.891 247.489 348.874C243.938 342.631 241.783 335.695 241.173 328.544C241.144 328.101 241.144 327.687 241.144 327.244V327.096C241.144 326.357 241.173 325.619 241.233 324.88C241.428 319.559 243.643 314.511 247.429 310.755C247.521 310.659 247.621 310.57 247.726 310.489C247.904 310.312 248.082 310.164 248.26 310.016C250.512 308.041 253.206 306.633 256.117 305.909C257.246 305.578 258.41 305.38 259.586 305.318C259.84 305.267 260.098 305.248 260.357 305.259C263.004 305.138 265.648 305.56 268.125 306.5H268.155C268.866 306.943 269.578 307.357 270.319 307.77C267.568 306.285 264.494 305.494 261.365 305.465C267.804 307.424 273.756 310.717 278.829 315.128Z" fill="#3A86FF"/>
<path d="M419.518 354.962C417.582 357.35 415.513 359.629 413.321 361.788C413.114 361.995 412.876 362.201 412.669 362.408C414.482 359.534 416.803 357.011 419.518 354.962Z" fill="#3A86FF"/>
<path d="M472.473 312.971C463.578 319.236 456.344 324.407 450.384 328.78C450.318 328.809 450.258 328.849 450.206 328.899C424.47 345.062 391.47 360.074 362.62 347.22C347.943 340.689 335.431 329.962 324.372 318.527C313.749 306.876 303.8 294.632 294.573 281.855C285.619 269.41 277.649 256.289 270.735 242.613C278.288 239.836 286.545 239.597 294.247 241.933C294.334 236.609 295.483 231.355 297.627 226.478C298.888 223.503 300.62 220.75 302.757 218.322C298.472 215.858 293.739 214.267 288.832 213.643C283.925 213.019 278.942 213.374 274.174 214.688C272.274 215.38 270.486 216.345 268.867 217.554C261.988 224.203 256.592 232.329 255.939 241.578C256.532 232.27 261.958 224.114 268.867 217.406C270.486 216.205 272.275 215.25 274.174 214.57C278.956 213.238 283.958 212.877 288.883 213.506C293.807 214.136 298.555 215.743 302.846 218.234C303.875 217.069 305.029 216.019 306.285 215.102C313.668 209.783 333.919 210.344 328.256 225.651C327.414 227.492 326.208 229.145 324.71 230.51C323.212 231.876 321.453 232.927 319.539 233.6C320.504 234.538 321.534 235.407 322.622 236.2C333.059 243.676 347.173 241.578 358.588 236.082C364.936 233.226 370.552 228.972 375.014 223.642C375.779 215.418 375.67 207.138 374.688 198.938C372.909 204.789 365.882 208.157 359.744 207.271C353.337 205.885 347.686 202.152 343.911 196.81C343.555 196.367 343.229 195.924 342.873 195.48C345.088 196.264 347.207 197.295 349.189 198.554C348.35 189.854 348.829 181.078 350.612 172.52C351.138 170.014 351.831 167.546 352.687 165.132C353.481 162.906 354.442 160.743 355.563 158.661C358.287 153.657 361.431 148.892 364.963 144.418C374.502 132.173 387.244 122.787 401.788 117.291C404.481 116.258 407.259 115.458 410.09 114.897C410.327 115.104 414.27 123.644 418.095 131.859C421.386 138.981 424.589 145.895 425.182 146.93C425.211 146.959 425.241 147.018 425.271 147.048C425.478 147.225 425.656 147.432 425.864 147.639C438.672 160.079 449.88 181.119 458.271 196.781C458.332 196.873 458.382 196.972 458.419 197.076C458.479 197.165 458.538 197.283 458.597 197.372C461.562 202.956 464.409 208.128 467.047 213.092C467.098 213.154 467.138 213.224 467.166 213.299C473.148 223.73 477.761 234.882 480.894 246.484C480.924 246.602 480.953 246.69 480.983 246.809C483.184 255.488 484.867 264.29 486.023 273.167C487.832 289.656 485.49 303.781 472.473 312.971Z" fill="#3A86FF"/>
<g style="mix-blend-mode:multiply">
<path d="M271.297 291.843C271.268 291.814 271.208 291.784 271.179 291.755C272.75 291.607 273.61 290.277 273.966 288.622C273.669 290.306 272.839 291.636 271.297 291.843Z" fill="#3A86FF"/>
</g>
<g style="mix-blend-mode:multiply">
<path d="M302.074 330.672C302.044 330.672 302.015 330.642 301.985 330.642C294.659 315.645 284.147 302.416 271.179 291.872C271.22 291.877 271.262 291.866 271.297 291.843C284.267 302.401 294.77 315.652 302.074 330.672Z" fill="#3A86FF"/>
</g>
<g style="mix-blend-mode:multiply">
<path d="M302.074 330.82C293.298 327.953 286.241 321.098 278.829 315.276C274.173 311.583 267.354 306.736 260.742 305.495C258.648 305.53 256.574 305.909 254.604 306.618C255.108 306.352 255.612 306.115 256.117 305.909C256.757 305.616 257.422 305.379 258.103 305.2C258.247 305.137 258.396 305.088 258.548 305.052C260.628 304.462 262.793 304.223 264.952 304.343C265.072 304.338 265.191 304.348 265.308 304.372C266.921 305.514 268.594 306.569 270.319 307.534C269.618 307.148 268.895 306.803 268.155 306.5C268.866 306.943 269.578 307.357 270.319 307.771C267.568 306.286 264.493 305.494 261.365 305.466C267.804 307.424 273.755 310.717 278.829 315.129C286.211 320.95 293.238 327.776 301.985 330.642L302.074 330.82Z" fill="#3A86FF"/>
</g>
<g style="mix-blend-mode:multiply">
<path d="M308.805 364.831C308.865 364.971 308.944 365.1 309.043 365.216C308.997 365.252 308.947 365.281 308.894 365.304C307.192 366.296 305.407 367.136 303.557 367.816C303.497 367.863 303.425 367.893 303.35 367.905C302.515 368.234 301.664 368.52 300.8 368.762C303.628 367.689 306.316 366.28 308.805 364.565C308.771 364.594 308.749 364.634 308.744 364.678C308.738 364.722 308.75 364.766 308.776 364.802H308.805V364.831Z" fill="#3A86FF"/>
</g>
<g style="mix-blend-mode:multiply">
<path d="M437.249 439.15C435.451 438.722 433.585 438.662 431.764 438.972C431.645 439.002 431.497 439.002 431.348 439.031C427.583 439.534 423.254 440.716 419.666 441.395C418.444 441.645 417.205 441.813 415.96 441.898C414.478 441.957 413.025 441.986 411.542 442.016C407.213 442.016 402.884 441.839 398.585 441.425C397.221 441.277 395.887 441.129 394.523 440.952C382.782 439.386 368.579 439.593 357.728 434.451C362.77 430.173 366.278 424.375 367.72 417.933C368.275 415.329 368.564 412.675 368.579 410.013C368.579 409.452 368.579 408.861 368.55 408.299C368.55 407.679 368.52 407.058 368.461 406.438C381.685 405.138 395.917 408.388 408.459 410.604C409.437 410.782 410.386 410.959 411.364 411.107C408.527 402.223 406.814 393.021 406.265 383.714C406.116 381.704 406.057 379.784 406.057 378.011C406.057 376.799 406.057 375.588 406.146 374.376C406.174 372.303 406.607 370.256 407.421 368.348C408.768 366.048 410.55 364.031 412.669 362.408C412.61 362.497 412.58 362.586 412.521 362.674C412.137 363.437 411.839 364.24 411.631 365.068C411.038 365.79 410.54 366.584 410.149 367.432C409.013 370.428 408.538 373.633 408.755 376.829C408.755 378.72 408.844 380.759 408.963 382.916C409.608 392.724 411.521 402.408 414.656 411.727C415.681 414.713 416.909 417.625 418.332 420.444C418.346 420.542 418.387 420.635 418.451 420.71C418.777 421.42 419.162 422.099 419.548 422.779C423.847 430.61 429.658 436.786 437.249 439.15Z" fill="#3A86FF"/>
</g>
<path d="M436.466 246.719C435.799 249.336 434.452 251.732 432.56 253.665C430.677 255.065 428.46 255.95 426.129 256.233C421.058 257.386 416.146 259.146 411.499 261.474C404.421 265.017 397.115 271.585 397.874 279.943C398.152 282.14 398.899 284.252 400.064 286.137C401.23 288.023 402.787 289.637 404.631 290.872C408.215 293.173 412.249 294.688 416.465 295.316C431.62 298.224 446.751 297.937 455.959 282.269C462.61 270.954 462.967 256.305 459.288 243.515C457.844 238.496 455.203 233.081 450.452 231.857C448.832 231.534 447.155 231.643 445.59 232.171C444.025 232.699 442.626 233.628 441.536 234.865C438.595 237.949 437.803 242.546 436.466 246.719Z" fill="white"/>
<path d="M436.466 246.719C435.799 249.336 434.451 251.732 432.56 253.665C430.677 255.065 428.46 255.95 426.129 256.233C421.058 257.386 416.146 259.146 411.499 261.474C404.422 265.016 397.116 271.584 397.874 279.941C398.581 283.698 400.511 287.117 403.365 289.67C409.671 281.365 419.667 276.904 428.857 271.948C436.107 268.529 442.43 263.432 447.3 257.082C449.185 253.783 450.588 250.233 451.465 246.538C452.973 242.908 453.732 239.012 453.696 235.082C453.161 229.426 444.554 231.7 441.537 234.864C438.595 237.949 437.802 242.546 436.466 246.719Z" fill="white"/>
<path d="M445.496 269.812C439.139 272.723 433.032 276.15 427.238 280.059C422.238 283.09 418.136 287.391 415.351 292.521C415.203 292.718 415.108 292.949 415.074 293.193C415.04 293.436 415.068 293.684 415.156 293.914C415.244 294.144 415.389 294.348 415.577 294.506C415.766 294.665 415.992 294.774 416.233 294.822C420.851 296.505 425.784 297.157 430.682 296.73C435.802 296.764 440.84 295.443 445.281 292.902C449.722 290.362 453.407 286.692 455.96 282.268C458.979 277.136 462.703 270.758 461.696 264.59C461.607 264.053 461.404 263.426 460.877 263.288C460.621 263.244 460.358 263.268 460.115 263.358C455.068 265.096 450.178 267.255 445.496 269.812Z" fill="white"/>
<path d="M436.466 246.719C435.799 249.336 434.452 251.732 432.56 253.665C430.677 255.065 428.46 255.95 426.129 256.233C421.058 257.386 416.146 259.146 411.499 261.474C404.421 265.017 397.115 271.585 397.874 279.943C398.152 282.14 398.899 284.252 400.064 286.137C401.23 288.023 402.787 289.637 404.631 290.872C408.215 293.173 412.249 294.688 416.465 295.316C431.62 298.224 446.751 297.937 455.959 282.269C462.61 270.954 462.967 256.305 459.288 243.515C457.844 238.496 455.203 233.081 450.452 231.857C448.832 231.534 447.155 231.643 445.59 232.171C444.025 232.699 442.626 233.628 441.536 234.865C438.595 237.949 437.803 242.546 436.466 246.719Z" stroke="#3A86FF" stroke-width="2" stroke-miterlimit="10"/>
<g style="mix-blend-mode:multiply" opacity="0.47">
<path d="M419.146 245.662C419.985 242.858 420.824 240.055 421.662 237.253C422.607 234.556 423.169 231.741 423.331 228.89C423.413 227.477 423.195 226.063 422.692 224.74C422.189 223.417 421.412 222.213 420.412 221.209C422.816 222.084 424.836 223.771 426.12 225.977C427.405 228.183 427.873 230.768 427.443 233.282C426.734 239.486 420.461 241.267 419.146 245.662Z" fill="#C66D6D"/>
</g>
<g style="mix-blend-mode:multiply" opacity="0.5">
<path d="M402.046 221.554C407.253 219.912 412.706 217.786 418.365 218.795C421.361 219.319 424.061 220.918 425.955 223.29C427.849 225.661 428.807 228.642 428.648 231.669C428.567 233.558 428.097 235.409 427.268 237.109C426.438 238.809 425.267 240.321 423.827 241.551C427.287 235.88 427.69 227.633 422.036 223.546C416.436 219.24 408.724 221.781 402.046 221.554Z" fill="#6D342B"/>
</g>
<g style="mix-blend-mode:multiply" opacity="0.47">
<path d="M333.035 308.222C329.257 320.016 336.87 324.543 346.944 323.176C358.32 321.633 368.31 314.114 376.263 305.228C383.409 297.244 389.575 287.126 389.263 276.048C389.357 274.658 389.144 273.264 388.639 271.964C388.134 270.665 387.349 269.491 386.34 268.526C385.359 267.951 384.273 267.576 383.144 267.424C382.016 267.271 380.868 267.345 379.769 267.64C368.196 269.531 360.172 276.493 351.892 284.717C345.013 291.55 336.346 298.171 333.105 308.006L333.035 308.222Z" fill="#C66D6D"/>
</g>
<g style="mix-blend-mode:multiply" opacity="0.47">
<path d="M449.379 211.154C449.436 211.175 449.492 211.197 449.549 211.221C450.519 211.722 451.364 212.433 452.022 213.302L456.204 218.033C457.299 219.085 458.105 220.398 458.545 221.849C460.347 230.203 446.501 228.67 442.563 228.99C441.543 229.155 440.497 229.07 439.517 228.742C436.587 227.49 436.711 222.855 438.208 219.87C439.928 216.44 445.041 209.578 449.379 211.154Z" fill="#C66D6D"/>
</g>
<path d="M370.796 260.537C363.271 259.217 356.461 254.893 349.477 257.22C346.352 259.554 345.094 265.011 343.918 268.923C342.809 273.377 342.387 277.972 342.666 282.552C339.017 278.707 336.974 273.621 336.95 268.329C336.637 243.337 358.365 242.875 370.796 260.537Z" fill="#2B232B"/>
<path d="M426.36 215.579C417.795 212.338 413.734 198.285 422.647 192.667C424.014 191.967 425.541 191.637 427.076 191.712C428.61 191.786 430.099 192.261 431.391 193.089C432.683 193.918 433.734 195.071 434.438 196.432C435.142 197.793 435.474 199.315 435.402 200.844C433.298 199.449 430.782 198.804 428.264 199.015C427.442 199.198 427.226 199.551 427.198 199.747C425.211 204.127 426.261 209.975 426.36 215.579Z" fill="#2B232B"/>
<path d="M328.256 225.651C327.414 227.492 326.207 229.145 324.71 230.51C323.212 231.876 321.453 232.927 319.539 233.6C319.506 233.631 319.465 233.652 319.42 233.659C319.268 233.74 319.109 233.809 318.946 233.866C314.926 235.113 311.118 236.956 307.649 239.333C305.603 241.101 303.965 243.288 302.846 245.745C301.083 249.768 299.799 253.983 299.021 258.304C296.255 255.285 294.64 251.395 294.455 247.311C294.252 245.526 294.182 243.728 294.247 241.933C294.334 236.609 295.483 231.355 297.627 226.478C298.888 223.503 300.62 220.75 302.757 218.323L302.846 218.234C303.875 217.069 305.028 216.019 306.285 215.102C313.668 209.783 333.919 210.344 328.256 225.651Z" fill="#2B232B"/>
<g style="mix-blend-mode:multiply" opacity="0.5">
<path d="M257.172 336.798C251.897 331.895 257.166 322.792 263.88 322.874C275.289 322.415 290.421 333.441 292.592 344.82C293.757 353.23 283.27 355.466 277.104 352.743C272.526 350.942 271.783 345.412 272.414 341.213C272.989 337.063 274.925 333.22 277.92 330.281C273.965 335.114 270.848 347.585 277.976 350.644C279.675 351.235 281.486 351.436 283.274 351.233C285.062 351.03 286.781 350.427 288.302 349.47C294.894 341.758 276.656 327.768 269.608 325.766C267.892 324.965 266.001 324.607 264.11 324.725C262.219 324.842 260.388 325.431 258.785 326.438C257.219 327.618 256.175 329.359 255.874 331.293C255.572 333.226 256.038 335.201 257.172 336.798Z" fill="#6D342B"/>
</g>
<path d="M411.631 365.056C410.232 370.918 409.339 376.889 408.963 382.904C408.844 380.747 408.755 378.708 408.755 376.817C408.538 373.621 409.013 370.416 410.149 367.42C410.54 366.572 411.038 365.777 411.631 365.056Z" fill="#3A86FF"/>
<path d="M375.54 158.743C379.334 154.802 383.472 151.206 387.904 147.996C392.43 144.355 396.473 140.154 399.935 135.496C400.885 138.551 401.267 141.753 401.062 144.945C400.659 148.833 399.597 152.624 397.921 156.157C394.014 164.979 387.293 170.437 379.156 175.14C378.619 175.578 377.966 175.853 377.277 175.933C376.587 176.013 375.889 175.894 375.264 175.591C374.785 175.191 374.406 174.685 374.159 174.114C372.7 171.744 372.047 168.969 372.296 166.2C372.545 163.431 373.682 160.816 375.54 158.743Z" fill="#2B232B"/>
<g style="mix-blend-mode:multiply" opacity="0.58">
<path d="M244.079 234.457C243.071 235.462 242.063 236.466 241.025 237.53C241.025 237.471 241.055 237.382 241.055 237.323C241.144 236.791 241.233 236.289 241.322 235.757C246.036 209.28 262.611 186.556 282.387 169.92C286.582 166.368 290.988 163.072 295.581 160.05C307.114 152.106 320.164 146.613 333.919 143.916C344.208 142.155 354.736 142.325 364.962 144.418C371.642 145.787 378.132 147.949 384.294 150.86C388.717 152.913 392.954 155.345 396.955 158.129C398.852 159.429 400.691 160.789 402.47 162.266C403.685 163.241 404.871 164.276 406.057 165.339C406.502 165.753 406.947 166.167 407.392 166.58C407.392 167.733 409.764 170.363 412.521 173.2C412.536 173.201 412.551 173.207 412.562 173.218C412.573 173.229 412.579 173.243 412.58 173.259C415.604 176.1 418.465 179.109 421.149 182.272C417.028 191.314 410.06 199.529 400.661 202.838C397.385 203.964 393.907 204.383 390.456 204.067C387.006 203.752 383.662 202.708 380.647 201.006L380.618 200.977C378.454 199.72 376.576 198.03 375.103 196.012C374.806 195.628 374.539 195.214 374.272 194.801C374.421 196.16 374.569 197.549 374.688 198.938C372.909 204.789 365.882 208.157 359.744 207.271C353.337 205.885 347.686 202.152 343.911 196.81C343.555 196.367 343.229 195.924 342.873 195.48C315.388 185.345 274.678 210.374 248.112 230.497C246.777 231.798 245.443 233.098 244.079 234.457Z" fill="#B991BC"/>
</g>
<g style="mix-blend-mode:multiply" opacity="0.58">
<path d="M264.953 304.343C263.322 303.139 261.767 301.836 260.298 300.442C261.958 301.89 263.648 303.19 265.309 304.372C266.922 305.514 268.594 306.569 270.32 307.534C269.619 307.148 268.896 306.802 268.155 306.5H268.125C267.028 305.82 265.991 305.111 264.953 304.343Z" fill="#B991BC"/>
</g>
<g style="mix-blend-mode:multiply" opacity="0.58">
<path d="M271.297 291.843C271.268 291.814 271.208 291.784 271.179 291.755C272.75 291.607 273.61 290.277 273.966 288.622C273.669 290.306 272.839 291.636 271.297 291.843Z" fill="#B991BC"/>
</g>
<g style="mix-blend-mode:multiply" opacity="0.58">
<path d="M302.074 330.672C302.044 330.672 302.015 330.642 301.985 330.642C294.659 315.645 284.147 302.416 271.179 291.872C271.22 291.877 271.262 291.866 271.297 291.843C284.267 302.401 294.77 315.652 302.074 330.672Z" fill="#B991BC"/>
</g>
<g style="mix-blend-mode:multiply" opacity="0.58">
<path d="M278.829 315.128C286.212 320.95 293.239 327.776 301.985 330.642L302.074 330.819C293.298 327.953 286.241 321.097 278.829 315.276C274.174 311.582 267.354 306.736 260.742 305.495C260.949 305.47 261.157 305.46 261.365 305.465C267.804 307.424 273.756 310.717 278.829 315.128Z" fill="#B991BC"/>
</g>
<g style="mix-blend-mode:multiply" opacity="0.58">
<path d="M308.775 364.802C307.128 365.958 305.382 366.967 303.557 367.816C303.496 367.863 303.425 367.894 303.349 367.905C293.357 372.21 282.12 372.674 271.805 369.209C261.49 365.744 252.827 358.595 247.489 349.141C243.879 342.826 241.722 335.791 241.173 328.544C241.144 328.101 241.144 327.687 241.144 327.244V327.096C241.144 326.358 241.173 325.619 241.233 324.88C241.263 324.336 241.322 323.793 241.41 323.255C241.44 323.078 241.47 322.9 241.499 322.693C242.078 318.662 243.854 314.895 246.599 311.878C246.658 311.849 246.658 311.819 246.688 311.789C246.896 311.553 247.133 311.317 247.34 311.11L247.429 311.021C249.47 309.049 251.919 307.546 254.605 306.618C252.971 307.468 251.472 308.553 250.157 309.839C239.78 319.945 243.96 336.641 250.187 347.988C255.077 356.572 262.704 363.282 271.858 367.051C281.012 370.82 291.167 371.433 300.71 368.791C300.726 368.793 300.743 368.792 300.758 368.787C300.774 368.782 300.788 368.773 300.799 368.762C303.628 367.689 306.315 366.28 308.805 364.566C308.771 364.594 308.749 364.634 308.743 364.678C308.738 364.722 308.749 364.766 308.775 364.802Z" fill="#B991BC"/>
</g>
<g style="mix-blend-mode:multiply" opacity="0.58">
<path d="M302.846 245.745C300.727 244.502 298.505 243.444 296.204 242.583C295.552 242.347 294.9 242.11 294.247 241.933C294.334 236.609 295.483 231.355 297.627 226.478C298.888 223.503 300.62 220.75 302.757 218.323C298.472 215.858 293.739 214.267 288.832 213.643C283.925 213.019 278.942 213.374 274.174 214.688C272.274 215.38 270.486 216.345 268.867 217.554C261.988 224.203 256.592 232.329 255.939 241.578C256.532 232.27 261.958 224.114 268.867 217.406C270.486 216.205 272.275 215.25 274.174 214.57C278.956 213.238 283.958 212.877 288.883 213.506C293.807 214.136 298.555 215.743 302.846 218.234C303.875 217.069 305.029 216.019 306.285 215.102C313.668 209.783 333.919 210.344 328.256 225.651C327.414 227.492 326.208 229.145 324.71 230.51C323.212 231.876 321.453 232.927 319.539 233.6C320.504 234.538 321.534 235.407 322.622 236.2C333.059 243.676 347.173 241.578 358.588 236.082C364.936 233.226 370.552 228.972 375.014 223.642C375.019 223.702 375.008 223.763 374.984 223.819C374.259 231.924 371.373 239.688 366.623 246.306C364.414 249.223 361.74 251.759 358.706 253.812C353.825 257.209 348.207 259.407 342.31 260.224C336.475 261.096 330.514 260.507 324.965 258.511C316.989 255.556 310.258 249.882 302.846 245.745Z" fill="#B991BC"/>
</g>
<g style="mix-blend-mode:multiply" opacity="0.58">
<path d="M458.27 323.639C454.462 326.365 450.945 329.475 447.774 332.917C444.661 336.02 441.666 339.182 438.464 341.871C430.221 348.786 421.652 355.228 413.321 362.024C413.054 362.231 412.787 362.467 412.52 362.674C410.409 364.263 408.669 366.289 407.42 368.614C406.635 370.437 406.203 372.392 406.146 374.376C406.174 372.303 406.607 370.256 407.42 368.348C408.767 366.048 410.55 364.031 412.668 362.408C414.481 359.534 416.802 357.011 419.518 354.962C423.52 350.115 427.019 345.89 450.205 328.899C450.257 328.849 450.318 328.809 450.383 328.78C453.111 327.066 455.72 325.353 458.27 323.639Z" fill="#B991BC"/>
</g>
<path d="M301.986 330.642C293.239 327.776 286.212 320.95 278.829 315.128C273.756 310.717 267.805 307.424 261.365 305.465C264.494 305.494 267.568 306.285 270.32 307.77C269.578 307.357 268.867 306.943 268.155 306.5C268.896 306.802 269.619 307.148 270.32 307.534C268.594 306.569 266.922 305.514 265.309 304.372C263.648 303.19 261.958 301.89 260.298 300.442C260.268 300.442 260.268 300.442 260.268 300.412C240.462 283.687 221.427 252.748 221.427 252.748C221.427 252.748 229.254 245.361 241.322 235.757C241.233 236.289 241.144 236.791 241.055 237.323C241.055 237.382 241.025 237.471 241.025 237.53" fill="#1359BF"/>
<path d="M241.025 237.53C242.063 236.467 243.071 235.462 244.079 234.457C245.443 233.098 246.777 231.798 248.112 230.497C274.678 210.374 315.388 185.345 342.873 195.481C343.229 195.924 343.555 196.367 343.911 196.81C347.686 202.152 353.337 205.886 359.744 207.271C365.882 208.158 372.909 204.789 374.688 198.938C375.669 207.138 375.779 215.419 375.014 223.642C370.552 228.973 364.936 233.226 358.588 236.082C347.172 241.579 333.059 243.677 322.622 236.201C321.534 235.407 320.504 234.538 319.539 233.6C321.453 232.927 323.212 231.877 324.71 230.511C326.207 229.145 327.414 227.492 328.256 225.651C333.919 210.344 313.668 209.783 306.285 215.102C305.028 216.019 303.875 217.069 302.846 218.234C298.555 215.743 293.807 214.136 288.882 213.506C283.958 212.877 278.956 213.239 274.174 214.57C272.274 215.25 270.486 216.206 268.867 217.407C261.958 224.115 256.532 232.27 255.939 241.579C256.592 232.33 261.988 224.203 268.867 217.554C270.486 216.346 272.274 215.38 274.174 214.688C278.942 213.375 283.925 213.02 288.832 213.644C293.739 214.268 298.472 215.858 302.757 218.323C300.62 220.75 298.888 223.504 297.627 226.479C295.483 231.356 294.334 236.609 294.247 241.933C286.545 239.598 278.288 239.836 270.735 242.613C277.648 256.29 285.619 269.41 294.573 281.855C303.8 294.633 313.749 306.876 324.372 318.527C335.431 329.963 347.943 340.689 362.62 347.22C391.469 360.074 424.47 345.063 450.206 328.899C427.02 345.89 423.521 350.116 419.518 354.962C416.803 357.011 414.482 359.534 412.669 362.409C410.55 364.031 408.768 366.048 407.421 368.348C406.607 370.256 406.174 372.303 406.146 374.376C406.057 375.588 406.057 376.799 406.057 378.011C406.057 379.784 406.117 381.705 406.265 383.714C406.814 393.021 408.528 402.223 411.365 411.107C410.386 410.959 409.437 410.782 408.459 410.605C395.917 408.388 381.685 405.138 368.461 406.438C367.478 397.096 365.131 387.947 361.493 379.282C350.582 377.538 340.501 380.227 329.412 375.972C327.989 375.411 310.228 364.536 311.533 363.65C310.732 364.217 309.901 364.739 309.043 365.216C308.944 365.1 308.864 364.971 308.805 364.832V364.802H308.776C308.749 364.766 308.738 364.722 308.744 364.678C308.749 364.634 308.771 364.594 308.805 364.566C306.316 366.28 303.628 367.689 300.8 368.762C300.788 368.773 300.774 368.782 300.759 368.787C300.743 368.792 300.727 368.793 300.711 368.791C291.168 371.433 281.013 370.82 271.859 367.051C262.705 363.282 255.077 356.572 250.187 347.988C243.961 336.641 239.78 319.945 250.158 309.839C251.473 308.553 252.972 307.468 254.605 306.618C256.575 305.909 258.649 305.53 260.743 305.495C267.355 306.736 274.174 311.583 278.829 315.276C286.242 321.098 293.298 327.953 302.075 330.82L301.986 330.642C302.015 330.642 302.045 330.672 302.075 330.672C294.771 315.652 284.268 302.402 271.298 291.843" fill="#1359BF"/>
<path d="M302.074 330.672C302.044 330.672 302.015 330.642 301.985 330.642C294.659 315.645 284.147 302.416 271.179 291.872C271.22 291.877 271.262 291.866 271.297 291.843C284.267 302.401 294.77 315.652 302.074 330.672Z" fill="#3A2C39"/>
<path d="M328.256 225.651C327.414 227.492 326.208 229.145 324.71 230.51C323.212 231.876 321.453 232.927 319.539 233.6C316.188 230.468 313.342 226.656 309.962 223.494C307.803 221.471 305.415 219.706 302.846 218.234C303.875 217.069 305.028 216.019 306.285 215.102C313.668 209.783 333.919 210.344 328.256 225.651Z" fill="#3A2C39"/>
<path d="M426.397 144.271C426.249 145.393 426.071 146.516 425.864 147.639C425.868 147.69 425.858 147.742 425.834 147.787C424.47 154.364 421.842 160.615 418.095 166.197C416.431 168.678 414.566 171.02 412.521 173.2C407.121 178.961 400.811 183.802 393.842 187.532C387.882 190.812 380.321 193.176 374.539 190.339C374.625 190.4 374.704 190.47 374.777 190.546C377.782 193.336 379.835 196.994 380.647 201.006C380.796 201.745 380.944 202.514 381.033 203.282C381.289 205.221 381.339 207.183 381.181 209.133C380.969 211.357 380.461 213.543 379.669 215.634C378.537 218.525 376.967 221.225 375.014 223.642C375.779 215.419 375.669 207.138 374.688 198.938C372.909 204.789 365.882 208.158 359.744 207.271C353.337 205.886 347.686 202.152 343.911 196.81C343.555 196.367 343.229 195.924 342.873 195.481C315.388 185.345 274.678 210.374 248.112 230.497C246.778 231.798 245.443 233.098 244.079 234.457C243.071 235.462 242.063 236.466 241.025 237.53C241.025 237.471 241.055 237.383 241.055 237.323C241.144 236.792 241.233 236.289 241.322 235.757C229.254 245.361 221.427 252.749 221.427 252.749C221.427 252.749 240.462 283.687 260.268 300.413C260.268 300.442 260.268 300.442 260.298 300.442C261.958 301.89 263.648 303.19 265.309 304.372C266.922 305.514 268.594 306.569 270.32 307.534C269.619 307.148 268.896 306.803 268.155 306.5C268.867 306.943 269.578 307.357 270.32 307.771C267.568 306.286 264.494 305.494 261.365 305.466C261.039 305.377 260.683 305.318 260.357 305.259C258.206 304.873 255.995 304.984 253.894 305.584C251.456 306.676 249.335 308.363 247.726 310.489C247.371 310.903 247.044 311.346 246.689 311.789C246.659 311.819 246.659 311.849 246.6 311.878C244.1 315.052 242.356 318.75 241.5 322.693C241.47 322.9 241.441 323.078 241.411 323.255V323.403C241.313 324.217 241.303 325.039 241.381 325.855C241.527 326.973 241.944 328.038 242.597 328.958C242.478 328.784 242.349 328.616 242.211 328.456C241.885 328.012 241.5 327.54 241.144 327.096C232.812 316.931 216.119 303.929 215.022 289.243C214.939 288.111 214.959 286.973 215.082 285.845C215.247 283.937 215.696 282.065 216.416 280.289C216.446 280.23 216.475 280.2 216.505 280.141C216.571 279.93 216.65 279.723 216.742 279.521C216.328 280.22 215.758 280.815 215.077 281.26C214.395 281.704 213.619 281.986 212.811 282.083C212.002 282.18 211.181 282.09 210.413 281.82C209.645 281.55 208.949 281.107 208.381 280.526C206.078 277.893 204.74 274.559 204.586 271.07C204.497 270.331 204.408 269.562 204.319 268.824C203.265 257.339 204.941 245.767 209.211 235.048C212.022 227.891 216.054 221.272 221.13 215.486C221.16 215.427 221.219 215.397 221.249 215.338C218.462 216.343 215.586 213.477 215.111 210.344C215.075 210.209 215.055 210.07 215.052 209.931C215.032 209.359 215.042 208.787 215.082 208.217C215.562 205.478 216.634 202.877 218.225 200.593C228.75 183.483 244.583 162.414 263.619 157.095C259.267 158.301 254.762 158.869 250.247 158.78C250.543 153.933 255.406 150.978 259.853 150.21C264.301 149.471 269.015 150.003 273.136 148.053C273.343 147.962 273.542 147.854 273.729 147.728C276.352 146.115 278.712 144.112 280.727 141.788C285.951 136.066 291.972 131.12 298.606 127.102C299.821 126.422 301.067 125.861 302.282 125.299C302.816 124.295 303.35 123.26 303.824 122.226C306.848 115.696 308.954 108.692 311.948 102.162C319.598 85.466 333.8 71.9321 350.671 67.736C359.227 65.6232 368.217 66.0717 376.518 69.0257C384.82 71.9796 392.062 77.3076 397.34 84.3431C400.728 89.0486 402.805 94.5645 403.359 100.33C403.482 101.725 403.502 103.127 403.418 104.526C403.203 108.201 401.834 111.716 399.505 114.573C399.292 114.869 399.054 115.146 398.793 115.4C398.934 115.273 399.082 115.155 399.238 115.046C399.352 114.922 399.482 114.813 399.623 114.72C402.282 112.93 405.453 112.051 408.657 112.216C411.862 112.382 414.925 113.582 417.384 115.637C422.725 120.406 425.991 127.063 426.486 134.194V134.342C426.842 137.644 426.812 140.975 426.397 144.271Z" fill="#3A2C39"/>
<g style="mix-blend-mode:multiply" opacity="0.26">
<path d="M301.985 330.642L302.074 330.819C293.298 327.953 286.241 321.097 278.829 315.276C274.174 311.582 267.354 306.736 260.742 305.495C260.362 305.407 259.975 305.348 259.586 305.318C259.096 305.235 258.6 305.196 258.103 305.2C256.68 305.139 255.256 305.319 253.893 305.731C251.69 306.676 249.755 308.147 248.259 310.016C247.993 310.341 247.696 310.666 247.429 311.021L247.34 311.11C244.935 313.997 243.109 317.319 241.961 320.894C241.838 321.326 241.716 321.758 241.631 322.181C241.544 322.592 241.46 323.002 241.41 323.403C241.312 324.217 241.302 325.039 241.381 325.855C241.457 326.773 241.741 327.662 242.211 328.456C242.31 328.688 242.44 328.907 242.596 329.106C242.152 328.485 241.677 327.894 241.143 327.244C232.812 317.049 216 303.988 215.022 289.243C214.938 288.111 214.958 286.973 215.081 285.845C215.303 283.711 215.863 281.627 216.741 279.669C216.681 279.835 216.601 279.993 216.504 280.141C216.475 280.201 216.445 280.23 216.415 280.289C215.931 280.869 215.331 281.342 214.652 281.677C213.974 282.013 213.233 282.203 212.476 282.237C211.72 282.27 210.965 282.146 210.259 281.871C209.554 281.597 208.914 281.179 208.38 280.644C206.078 278.022 204.739 274.698 204.585 271.217C204.496 270.42 204.407 269.622 204.318 268.824C203.244 257.311 204.952 245.709 209.299 234.989C212.121 227.839 216.164 221.231 221.248 215.456C221.213 215.48 221.171 215.49 221.13 215.486C218.343 216.402 215.496 213.477 215.111 210.344C215.074 210.209 215.054 210.07 215.051 209.931C215.031 209.359 215.041 208.787 215.081 208.217C215.6 205.535 216.67 202.99 218.224 200.741C229.728 182.035 245.383 167.585 266.346 161.823C270.192 160.758 274.119 160.007 278.087 159.577C283.913 158.952 289.797 159.111 295.581 160.05C309.631 162.056 322.485 169.043 331.783 179.731C332.144 180.103 332.48 180.498 332.792 180.913C336.439 185.552 339.315 190.753 342.873 195.481C315.387 185.345 274.678 210.374 248.111 230.497C246.777 231.798 245.443 233.098 244.079 234.457C243.071 235.462 242.063 236.467 241.025 237.53C241.025 237.471 241.054 237.383 241.054 237.323C241.143 236.792 241.232 236.289 241.321 235.757C229.254 245.361 221.426 252.749 221.426 252.749C221.426 252.749 240.461 283.687 260.268 300.413C260.268 300.442 260.268 300.442 260.297 300.442C261.958 301.89 263.648 303.19 265.308 304.372C266.921 305.514 268.594 306.569 270.319 307.534C269.618 307.148 268.896 306.803 268.155 306.5C268.866 306.943 269.578 307.357 270.319 307.771C267.568 306.286 264.493 305.494 261.365 305.466C267.804 307.424 273.756 310.717 278.829 315.129C286.211 320.95 293.238 327.776 301.985 330.642Z" fill="#3A2C39"/>
</g>
<g style="mix-blend-mode:multiply" opacity="0.26">
<path d="M426.397 144.27C426.249 145.393 426.071 146.516 425.864 147.639C425.868 147.69 425.858 147.742 425.834 147.787V147.816C424.497 154.429 421.868 160.714 418.095 166.315C416.449 168.775 414.604 171.097 412.58 173.259C407.184 179.072 400.85 183.946 393.842 187.679C387.971 190.93 380.529 193.264 374.777 190.546C374.688 190.546 374.628 190.487 374.539 190.457C377.64 193.228 379.769 196.914 380.618 200.977C380.796 201.745 380.914 202.514 381.033 203.282C381.289 205.221 381.339 207.183 381.181 209.133C380.98 211.407 380.472 213.643 379.669 215.781C378.527 218.683 376.947 221.393 374.984 223.819C370.516 229.123 364.914 233.364 358.588 236.23C347.173 241.697 333.059 243.824 322.622 236.348C321.495 235.525 320.425 234.627 319.42 233.659C316.129 230.527 313.283 226.774 309.962 223.642C307.779 221.592 305.36 219.807 302.757 218.323C298.472 215.858 293.739 214.268 288.832 213.644C283.925 213.02 278.942 213.375 274.174 214.688C272.274 215.38 270.486 216.346 268.867 217.554C261.988 224.203 256.592 232.329 255.939 241.579C256.532 232.27 261.958 224.115 268.867 217.407C270.486 216.206 272.275 215.25 274.174 214.57C278.956 213.239 283.958 212.877 288.883 213.506C293.807 214.136 298.555 215.743 302.846 218.234C303.875 217.069 305.029 216.019 306.285 215.102C313.668 209.783 333.919 210.344 328.256 225.651C327.414 227.492 326.208 229.145 324.71 230.511C323.212 231.877 321.453 232.927 319.539 233.6C320.504 234.538 321.534 235.407 322.622 236.201C333.059 243.677 347.173 241.579 358.588 236.082C364.936 233.226 370.552 228.973 375.014 223.642C375.779 215.419 375.67 207.138 374.688 198.938C374.774 198.697 374.843 198.45 374.895 198.199C375.054 197.481 375.123 196.747 375.103 196.013C375.108 195.2 374.95 194.395 374.64 193.645C374.329 192.894 373.872 192.212 373.294 191.639C371.989 190.624 370.499 189.871 368.906 189.423C360.836 186.372 354.275 180.309 350.612 172.52C350.064 171.349 349.588 170.145 349.189 168.915C348.926 168.259 348.834 167.548 348.922 166.847C349.248 165.074 350.849 164.749 352.687 165.133C354.302 165.522 355.823 166.225 357.165 167.201C361.999 170.618 367.703 172.606 373.62 172.934C377.071 173.172 380.537 172.903 383.909 172.136C385.217 171.872 386.505 171.516 387.763 171.072C393.213 169.16 398.217 166.164 402.47 162.266C406.145 158.982 409.33 155.191 411.928 151.008C414.672 146.701 416.583 141.92 417.562 136.913C417.886 135.247 418.065 133.556 418.095 131.859C418.338 127.035 416.972 122.266 414.211 118.296C413.237 116.754 411.793 115.563 410.09 114.898C407.057 114.451 403.966 115.157 401.432 116.878C401.195 116.996 400.987 117.084 400.75 117.203C396.76 119.05 392.431 120.056 388.033 120.158C383.635 120.259 379.263 119.454 375.192 117.794L373.769 117.173C374.648 117.144 375.522 117.025 376.378 116.819C378.942 116.235 381.363 115.144 383.497 113.611C385.631 112.078 387.435 110.134 388.801 107.894C390.663 105.106 391.869 101.934 392.329 98.6157C392.689 94.3008 392.173 89.9579 390.813 85.8458C389.453 81.7337 387.276 77.9364 384.413 74.6802C388.089 78.1376 394.108 79.9992 397.34 84.4613C400.702 89.1365 402.777 94.6073 403.359 100.33C403.482 101.725 403.502 103.127 403.419 104.526C403.23 108.223 401.882 111.768 399.564 114.661C399.472 114.802 399.362 114.932 399.238 115.046C399.09 115.223 398.941 115.4 398.793 115.548C399.09 115.282 399.386 115.046 399.683 114.809C402.342 113.042 405.505 112.181 408.696 112.357C411.888 112.533 414.936 113.735 417.384 115.784C422.731 120.55 425.997 127.209 426.486 134.342C426.842 137.644 426.812 140.975 426.397 144.27Z" fill="#3A2C39"/>
</g>
<path d="M253.734 69.9989C241.84 60.9888 223.054 63.5431 215.158 76.687C205.534 62.6561 186.967 59.3784 170.974 62.2232C140.208 67.6955 112.092 95.2497 110.396 128.744C109.672 143.047 115.288 159.427 127.909 163.993C117.645 169.687 112.402 183.151 113.604 195.506C115.225 207.705 121.013 218.976 129.995 227.42C137.131 235.127 146.667 240.209 157.061 241.845C162.256 242.483 167.527 241.659 172.278 239.468C177.028 237.277 181.07 233.806 183.945 229.446C182.1 235.079 186.981 241.279 192.471 242.166C197.961 243.054 203.376 240.08 207.742 236.391C220.093 225.955 226.93 209.942 235.748 195.962C245.284 180.845 257.205 169.569 270.391 158.353C281.169 149.184 277.95 151.441 268.656 144.139C255.363 133.695 263.401 125.262 266.436 110.108C269.353 95.5491 265.495 78.9077 253.734 69.9989Z" fill="#3A2C39"/>
<g style="mix-blend-mode:multiply" opacity="0.46">
<path d="M255.103 72.2294C264.345 93.2037 259.378 119.535 241.28 134.343C250.161 139.37 250.553 151.412 246.718 159.712C244.242 164.139 241.067 168.14 237.315 171.561C235.362 173.398 224.48 178.38 223.975 179.749C227.252 170.837 228.491 161.308 227.602 151.857C227.44 147.588 226.102 143.446 223.735 139.885C213.937 126.93 196.052 136.384 191.56 148.863C188.167 158.291 189.651 168.681 191.177 178.582L186.747 164.744C186.48 163.223 185.894 161.775 185.028 160.495C184.161 159.215 183.034 158.131 181.719 157.314C177.109 155.356 172.512 160.212 170.452 164.766C167.736 170.788 166.328 177.313 166.321 183.915C157.349 160.186 167.284 133.79 166.138 108.458C166.22 101.984 164.412 95.626 160.934 90.1579C138.336 59.1041 111.367 109.484 110.394 128.748C109.671 143.05 115.286 159.427 127.907 163.992C117.643 169.686 112.4 183.15 113.602 195.505C115.223 207.705 121.011 218.975 129.993 227.419C137.129 235.126 146.665 240.208 157.059 241.845C162.254 242.482 167.525 241.658 172.276 239.467C177.027 237.276 181.068 233.805 183.943 229.445C182.098 235.078 186.979 241.278 192.469 242.166C197.959 243.053 203.375 240.079 207.74 236.39C220.092 225.955 226.929 209.942 235.747 195.962C245.284 180.845 257.205 169.569 270.39 158.353C281.169 149.184 277.949 151.441 268.655 144.139C255.362 133.695 263.4 125.262 266.436 110.108C268.983 96.7831 266.598 80.7726 255.103 72.2294Z" fill="#3A2C39"/>
</g>
<path d="M280.211 209.669L302.436 239.515L285.603 242.271L278.081 257.529L254.242 225.516C263.038 219.763 271.713 214.451 280.211 209.669Z" fill="white"/>
</svg>
