<svg width="32" height="32" viewBox="0 0 32 32" fill="none" xmlns="http://www.w3.org/2000/svg">
<circle cx="16" cy="16" r="16" fill="#3B99FC"/>
<path d="M24.6314 14.8959C24.8053 14.7223 25.0874 14.7224 25.2613 14.8959L26.5367 16.1683C26.7106 16.3419 26.7104 16.6235 26.5367 16.7972L20.7887 22.5365C20.6148 22.7101 20.3327 22.71 20.1588 22.5365L16.0787 18.4633C16.0352 18.4201 15.9649 18.4199 15.9215 18.4633L11.8424 22.5365C11.6685 22.7101 11.3865 22.71 11.2125 22.5365L5.46445 16.7972C5.2905 16.6236 5.2905 16.342 5.46445 16.1683L6.73886 14.8959C6.91281 14.7222 7.1948 14.7222 7.36874 14.8959L11.4488 18.9691C11.4923 19.0122 11.5627 19.0124 11.606 18.9691L15.6852 14.8959C15.8591 14.7222 16.1411 14.7222 16.315 14.8959L20.3951 18.9691C20.4386 19.0123 20.5089 19.0124 20.5523 18.9691L24.6314 14.8959ZM9.70078 11.9388C13.1798 8.46537 18.8204 8.46537 22.2994 11.9388L22.7184 12.3568C22.8921 12.5305 22.8922 12.8121 22.7184 12.9857L21.2857 14.4154C21.1988 14.5021 21.0582 14.5021 20.9713 14.4154L20.3951 13.8402C17.9681 11.4171 14.0331 11.4172 11.606 13.8402L10.9889 14.4564C10.9019 14.5433 10.7604 14.5433 10.6734 14.4564L9.24179 13.0258C9.06788 12.8521 9.06785 12.5705 9.24179 12.3968L9.70078 11.9388Z" fill="white"/>
</svg>
