<svg width="32" height="32" viewBox="0 0 32 32" fill="none" xmlns="http://www.w3.org/2000/svg">
<circle cx="16" cy="16" r="16" fill="#F7F9FB"/>
<path d="M25.6112 6L17.2773 12.25L18.8271 8.56667L25.6112 6Z" fill="#E17726" stroke="#E17726" stroke-width="0.25" stroke-linecap="round" stroke-linejoin="round"/>
<path d="M6.3877 6L14.6474 12.3083L13.1719 8.56666L6.3877 6Z" fill="#E27625" stroke="#E27625" stroke-width="0.25" stroke-linecap="round" stroke-linejoin="round"/>
<path d="M22.611 20.4917L20.3936 23.925L25.1416 25.25L26.5018 20.5668L22.611 20.4917Z" fill="#E27625" stroke="#E27625" stroke-width="0.25" stroke-linecap="round" stroke-linejoin="round"/>
<path d="M5.50586 20.5668L6.85773 25.25L11.5976 23.925L9.38839 20.4917L5.50586 20.5668Z" fill="#E27625" stroke="#E27625" stroke-width="0.25" stroke-linecap="round" stroke-linejoin="round"/>
<path d="M11.3423 14.6917L10.0234 16.7084L14.722 16.925L14.5654 11.8L11.3423 14.6917Z" fill="#E27625" stroke="#E27625" stroke-width="0.25" stroke-linecap="round" stroke-linejoin="round"/>
<path d="M20.657 14.6917L17.3845 11.7417L17.2773 16.925L21.9759 16.7084L20.657 14.6917Z" fill="#E27625" stroke="#E27625" stroke-width="0.25" stroke-linecap="round" stroke-linejoin="round"/>
<path d="M11.5977 23.9248L14.4415 22.5332L11.9933 20.5999L11.5977 23.9248Z" fill="#E27625" stroke="#E27625" stroke-width="0.25" stroke-linecap="round" stroke-linejoin="round"/>
<path opacity="0.8" d="M17.5576 22.5332L20.3932 23.9248L20.0058 20.5999L17.5576 22.5332Z" fill="#E27625" stroke="#E27625" stroke-width="0.25" stroke-linecap="round" stroke-linejoin="round"/>
<path d="M20.3932 23.9251L17.5576 22.5334L17.7884 24.4001L17.7636 25.1918L20.3932 23.9251Z" fill="#D5BFB2" stroke="#D5BFB2" stroke-width="0.25" stroke-linecap="round" stroke-linejoin="round"/>
<path d="M11.5977 23.9251L14.2355 25.1918L14.219 24.4001L14.4415 22.5334L11.5977 23.9251Z" fill="#D5BFB2" stroke="#D5BFB2" stroke-width="0.25" stroke-linecap="round" stroke-linejoin="round"/>
<path d="M14.2853 19.3666L11.9277 18.6666L13.5928 17.8916L14.2853 19.3666Z" fill="#233447" stroke="#233447" stroke-width="0.25" stroke-linecap="round" stroke-linejoin="round"/>
<path d="M17.7139 19.3666L18.4063 17.8916L20.0797 18.6666L17.7139 19.3666Z" fill="#233447" stroke="#233447" stroke-width="0.25" stroke-linecap="round" stroke-linejoin="round"/>
<path d="M11.5978 23.925L12.01 20.4917L9.38867 20.5668L11.5978 23.925Z" fill="#CC6228" stroke="#CC6228" stroke-width="0.25" stroke-linecap="round" stroke-linejoin="round"/>
<path d="M19.9893 20.4917L20.3932 23.925L22.6106 20.5668L19.9893 20.4917Z" fill="#CC6228" stroke="#CC6228" stroke-width="0.25" stroke-linecap="round" stroke-linejoin="round"/>
<path d="M21.9759 16.7083L17.2773 16.9249L17.7142 19.3666L18.4067 17.8916L20.08 18.6666L21.9759 16.7083Z" fill="#CC6228" stroke="#CC6228" stroke-width="0.25" stroke-linecap="round" stroke-linejoin="round"/>
<path d="M11.9276 18.6666L13.5927 17.8916L14.2852 19.3666L14.722 16.9249L10.0234 16.7083L11.9276 18.6666Z" fill="#CC6228" stroke="#CC6228" stroke-width="0.25" stroke-linecap="round" stroke-linejoin="round"/>
<path d="M10.0234 16.7083L11.9936 20.5999L11.9276 18.6666L10.0234 16.7083Z" fill="#E27525" stroke="#E27525" stroke-width="0.25" stroke-linecap="round" stroke-linejoin="round"/>
<path d="M20.08 18.6666L20.0059 20.5999L21.976 16.7083L20.08 18.6666Z" fill="#E27525" stroke="#E27525" stroke-width="0.25" stroke-linecap="round" stroke-linejoin="round"/>
<path d="M14.7221 16.925L14.2852 19.3668L14.8374 22.25L14.9611 18.4501L14.7221 16.925Z" fill="#E27525" stroke="#E27525" stroke-width="0.25" stroke-linecap="round" stroke-linejoin="round"/>
<path d="M17.2777 16.925L17.0469 18.4418L17.1623 22.25L17.7146 19.3668L17.2777 16.925Z" fill="#E27525" stroke="#E27525" stroke-width="0.25" stroke-linecap="round" stroke-linejoin="round"/>
<path d="M17.7144 19.3668L17.1621 22.2501L17.5578 22.5334L20.006 20.6001L20.0802 18.6667L17.7144 19.3668Z" fill="#F5841F" stroke="#F5841F" stroke-width="0.25" stroke-linecap="round" stroke-linejoin="round"/>
<path d="M11.9277 18.6667L11.9937 20.6001L14.4419 22.5334L14.8376 22.2501L14.2853 19.3668L11.9277 18.6667Z" fill="#F5841F" stroke="#F5841F" stroke-width="0.25" stroke-linecap="round" stroke-linejoin="round"/>
<path d="M17.7636 25.1917L17.7882 24.4001L17.574 24.2167H14.4251L14.219 24.4001L14.2355 25.1917L11.5977 23.925L12.5209 24.6917L14.3921 26.0001H17.5987L19.4781 24.6917L20.3931 23.925L17.7636 25.1917Z" fill="#C0AC9D" stroke="#C0AC9D" stroke-width="0.25" stroke-linecap="round" stroke-linejoin="round"/>
<path d="M17.5572 22.5333L17.1615 22.25H14.837L14.4413 22.5333L14.2188 24.4L14.4248 24.2166H17.5737L17.7881 24.4L17.5572 22.5333Z" fill="#161616" stroke="#161616" stroke-width="0.25" stroke-linecap="round" stroke-linejoin="round"/>
<path d="M25.9656 12.6583L26.6663 9.20833L25.6112 6L17.5576 12.0417L20.657 14.6916L25.0341 15.9833L25.9986 14.8417L25.5782 14.5333L26.2459 13.9167L25.7348 13.5167L26.4025 13L25.9656 12.6583Z" fill="#763E1A" stroke="#763E1A" stroke-width="0.25" stroke-linecap="round" stroke-linejoin="round"/>
<path d="M5.33301 9.20833L6.04192 12.6583L5.58855 13L6.26449 13.5167L5.75341 13.9167L6.42111 14.5333L6.0007 14.8417L6.96516 15.9833L11.3423 14.6916L14.4417 12.0417L6.38814 6L5.33301 9.20833Z" fill="#763E1A" stroke="#763E1A" stroke-width="0.25" stroke-linecap="round" stroke-linejoin="round"/>
<path d="M25.0342 15.9833L20.6571 14.6917L21.976 16.7083L20.0059 20.6L22.6107 20.5666H26.5015L25.0342 15.9833Z" fill="#F5841F" stroke="#F5841F" stroke-width="0.25" stroke-linecap="round" stroke-linejoin="round"/>
<path d="M11.342 14.6917L6.9649 15.9833L5.50586 20.5666H9.38839L11.9932 20.6L10.0231 16.7083L11.342 14.6917Z" fill="#F5841F" stroke="#F5841F" stroke-width="0.25" stroke-linecap="round" stroke-linejoin="round"/>
<path d="M17.277 16.925L17.5572 12.0416L18.8267 8.56665H13.1719L14.4413 12.0416L14.7216 16.925L14.8287 18.4583L14.837 22.25H17.1616L17.1698 18.4583L17.277 16.925Z" fill="#F5841F" stroke="#F5841F" stroke-width="0.25" stroke-linecap="round" stroke-linejoin="round"/>
</svg>
