<svg width="24" height="24" viewBox="0 0 24 24" fill="none" xmlns="http://www.w3.org/2000/svg">
<path d="M9 10.75H14C14.0663 10.75 14.1299 10.7764 14.1768 10.8232C14.2236 10.8701 14.25 10.9337 14.25 11C14.25 11.0663 14.2236 11.1299 14.1768 11.1768C14.1299 11.2236 14.0663 11.25 14 11.25H9C8.95028 11.25 8.90209 11.2352 8.86133 11.208L8.82324 11.1768C8.77636 11.1299 8.75 11.0663 8.75 11C8.75 10.9503 8.76482 10.9021 8.79199 10.8613L8.82324 10.8232C8.87013 10.7764 8.9337 10.75 9 10.75ZM9 7.75H16C16.0497 7.75 16.0979 7.76482 16.1387 7.79199L16.1768 7.82324C16.2236 7.87012 16.25 7.93369 16.25 8C16.25 8.06631 16.2236 8.12987 16.1768 8.17676C16.1299 8.22364 16.0663 8.25 16 8.25H9C8.95028 8.25 8.90209 8.23518 8.86133 8.20801L8.82324 8.17676C8.77636 8.12987 8.75 8.0663 8.75 8C8.75 7.95028 8.76482 7.90209 8.79199 7.86133L8.82324 7.82324C8.85844 7.78804 8.90306 7.76447 8.95117 7.75488L9 7.75Z" fill="#3A86FF" stroke="#3A86FF"/>
<path fill-rule="evenodd" clip-rule="evenodd" d="M8.5 3.25C7.24022 3.25 6.03204 3.75045 5.14124 4.64124C4.25045 5.53204 3.75 6.74022 3.75 8V18C3.75 18.9946 4.14509 19.9484 4.84835 20.6517C5.55161 21.3549 6.50544 21.75 7.5 21.75H18.5C18.9641 21.75 19.4092 21.5656 19.7374 21.2374C20.0656 20.9092 20.25 20.4641 20.25 20V5C20.25 4.53587 20.0656 4.09075 19.7374 3.76256C19.4092 3.43437 18.9641 3.25 18.5 3.25H8.5ZM18.75 14.25V5C18.75 4.9337 18.7237 4.87011 18.6768 4.82322C18.6299 4.77634 18.5663 4.75 18.5 4.75H8.5C7.63805 4.75 6.8114 5.09241 6.2019 5.7019C5.59241 6.3114 5.25 7.13805 5.25 8V15C5.89843 14.5119 6.68838 14.2485 7.5 14.25H18.75ZM18.75 15.75H7.5C6.90326 15.75 6.33097 15.9871 5.90901 16.409C5.48705 16.831 5.25 17.4033 5.25 18C5.25 18.5967 5.48705 19.169 5.90901 19.591C6.33097 20.0129 6.90326 20.25 7.5 20.25H18.5C18.5663 20.25 18.6299 20.2237 18.6768 20.1768C18.7237 20.1299 18.75 20.0663 18.75 20V15.75Z" fill="#3A86FF"/>
</svg>
