<svg width="57" height="56" viewBox="0 0 57 56" fill="none" xmlns="http://www.w3.org/2000/svg">
<rect x="0.5" width="56" height="56" rx="28" fill="#FFE395"/>
<path fill-rule="evenodd" clip-rule="evenodd" d="M14.75 28.4166C14.75 20.8166 20.9 14.6666 28.5 14.6666C36.1 14.6666 42.25 20.8166 42.25 28.4166C42.25 36.0166 36.1 42.1666 28.5 42.1666C20.9 42.1666 14.75 36.0166 14.75 28.4166ZM28.5 12.1666C19.5333 12.1666 12.25 19.45 12.25 28.4166C12.25 37.3833 19.5333 44.6666 28.5 44.6666C37.4667 44.6666 44.75 37.3833 44.75 28.4166C44.75 19.45 37.4667 12.1666 28.5 12.1666ZM28.5 17.1666C27.8167 17.1666 27.25 17.7333 27.25 18.4166V27.7L19.2167 32.3333C19.075 32.4149 18.9509 32.5237 18.8515 32.6535C18.7521 32.7833 18.6793 32.9315 18.6375 33.0895C18.5957 33.2476 18.5855 33.4124 18.6077 33.5743C18.6299 33.7363 18.6839 33.8923 18.7667 34.0333C19.7516 35.7491 21.1715 37.1748 22.8833 38.1666C24.5833 39.15 26.5333 39.6666 28.5 39.6666C30.4667 39.6666 32.4167 39.15 34.1333 38.1666C35.8333 37.1666 37.25 35.75 38.25 34.05C39.2333 32.3333 39.75 30.3833 39.75 28.4166C39.75 26.45 39.2333 24.5 38.25 22.7833C37.25 21.0834 35.8332 19.6666 34.1333 18.6666C32.4167 17.6833 30.4833 17.1666 28.5 17.1666ZM29.75 28.4166V19.75C30.85 19.9166 31.9167 20.2833 32.8833 20.8333C34.2 21.6 35.3167 22.7166 36.0833 24.05C36.85 25.3666 37.25 26.8833 37.25 28.4166C37.25 29.95 36.85 31.4666 36.0833 32.7833C35.3167 34.1166 34.2 35.2333 32.8833 36C31.55 36.7666 30.0333 37.1666 28.5 37.1666C27.1774 37.1695 25.8715 36.8708 24.6816 36.2932C23.4917 35.7156 22.4492 34.8743 21.6333 33.8333L29.1333 29.5C29.5167 29.2833 29.75 28.8666 29.75 28.4166Z" fill="#59A5FF"/>
</svg>
