<svg width="25" height="25" viewBox="0 0 25 25" fill="none" xmlns="http://www.w3.org/2000/svg">
<path d="M12.5 3.57812C17.6039 3.57812 21.75 7.72427 21.75 12.8281C21.75 17.932 17.6039 22.0781 12.5 22.0781C7.39614 22.0781 3.25 17.932 3.25 12.8281C3.25 7.72427 7.39614 3.57812 12.5 3.57812ZM12.5 4.07812C7.66386 4.07812 3.75 7.99198 3.75 12.8281C3.75 17.6643 7.66386 21.5781 12.5 21.5781C17.3361 21.5781 21.25 17.6643 21.25 12.8281C21.25 7.99198 17.3361 4.07812 12.5 4.07812ZM12.5 6.57812C13.4648 6.57812 14.4083 6.79743 15.2686 7.21875L15.6318 7.41211C16.4579 7.89911 17.1633 8.56332 17.6992 9.35449L17.9189 9.70117C18.4638 10.6543 18.75 11.737 18.75 12.8281C18.75 13.9193 18.4638 15.002 17.9189 15.9551C17.3631 16.8999 16.5761 17.6875 15.6318 18.2441C14.6776 18.7907 13.5929 19.0781 12.5 19.0781C11.4067 19.0781 10.3228 18.7905 9.37988 18.2451H9.38086C8.54865 17.7629 7.84015 17.0967 7.30957 16.2988L7.09375 15.9492L7.09082 15.9453L7.07129 15.9014C7.06608 15.8863 7.06174 15.8703 7.05957 15.8545C7.05531 15.8229 7.05728 15.7906 7.06543 15.7598C7.07364 15.7288 7.08792 15.6993 7.10742 15.6738C7.11712 15.6612 7.1287 15.6501 7.14062 15.6396L7.17969 15.6113L12 12.8311L12.25 12.6865V6.82812C12.25 6.69427 12.3661 6.57812 12.5 6.57812ZM12.75 12.8281C12.75 12.9027 12.7213 12.9656 12.6797 13.0078L12.6338 13.043L12.6299 13.0449L8.12988 15.6455L7.63086 15.9336L7.98633 16.3867C8.52268 17.0711 9.20807 17.6242 9.99023 18.0039C10.7722 18.3835 11.6308 18.5789 12.5 18.5771C13.3806 18.5771 14.2533 18.3771 15.0449 17.9893L15.3789 17.8115L15.3818 17.8105C16.2462 17.3073 16.9776 16.5745 17.4814 15.6992L17.4824 15.7002C17.9881 14.8318 18.25 13.8342 18.25 12.8281C18.25 11.8221 17.9881 10.8245 17.4824 9.95605H17.4814C17.0407 9.19056 16.425 8.53497 15.6992 8.0459L15.3818 7.8457L15.377 7.84375L15.1367 7.71387C14.5684 7.42476 13.9549 7.22923 13.3252 7.13379L12.75 7.04688V12.8281Z" fill="black" stroke="#737373"/>
</svg>
