<svg width="56" height="57" viewBox="0 0 56 57" fill="none" xmlns="http://www.w3.org/2000/svg">
<rect y="0.5" width="56" height="56" rx="28" fill="#FFF085"/>
<path d="M28 32.25C26.5561 32.2513 25.1344 31.8947 23.8621 31.2121C22.5897 30.5296 21.5063 29.5424 20.7088 28.3388L22.7913 26.955C23.3613 27.8147 24.1353 28.5199 25.0442 29.0077C25.953 29.4955 26.9685 29.7508 28 29.7508C29.0315 29.7508 30.047 29.4955 30.9558 29.0077C31.8647 28.5199 32.6387 27.8147 33.2088 26.955L35.2913 28.3388C34.4937 29.5424 33.4103 30.5296 32.1379 31.2121C30.8656 31.8947 29.4439 32.2513 28 32.25ZM33 18.5C32.5055 18.5 32.0222 18.6466 31.6111 18.9213C31.2 19.196 30.8795 19.5865 30.6903 20.0433C30.5011 20.5001 30.4516 21.0028 30.548 21.4877C30.6445 21.9727 30.8826 22.4181 31.2322 22.7678C31.5819 23.1174 32.0273 23.3555 32.5123 23.452C32.9972 23.5484 33.4999 23.4989 33.9567 23.3097C34.4135 23.1205 34.804 22.8001 35.0787 22.3889C35.3534 21.9778 35.5 21.4945 35.5 21C35.5033 20.6708 35.441 20.3442 35.3165 20.0394C35.1921 19.7345 35.008 19.4576 34.7752 19.2248C34.5424 18.992 34.2655 18.808 33.9607 18.6835C33.6558 18.559 33.3292 18.4967 33 18.5ZM23 18.5C22.5055 18.5 22.0222 18.6466 21.6111 18.9213C21.2 19.196 20.8795 19.5865 20.6903 20.0433C20.5011 20.5001 20.4516 21.0028 20.548 21.4877C20.6445 21.9727 20.8826 22.4181 21.2322 22.7678C21.5819 23.1174 22.0273 23.3555 22.5123 23.452C22.9972 23.5484 23.4999 23.4989 23.9567 23.3097C24.4135 23.1205 24.804 22.8001 25.0787 22.3889C25.3534 21.9778 25.5 21.4945 25.5 21C25.5033 20.6708 25.441 20.3442 25.3165 20.0394C25.1921 19.7345 25.008 19.4576 24.7752 19.2248C24.5424 18.992 24.2655 18.808 23.9607 18.6835C23.6558 18.559 23.3292 18.4967 23 18.5Z" fill="#59A5FF"/>
<path d="M30.17 46L28 44.75L33 36H40.5C40.8284 36.0005 41.1538 35.9362 41.4573 35.8107C41.7608 35.6852 42.0366 35.5011 42.2689 35.2689C42.5011 35.0366 42.6852 34.7608 42.8107 34.4573C42.9362 34.1538 43.0005 33.8284 43 33.5V16C43.0005 15.6716 42.9362 15.3462 42.8107 15.0427C42.6852 14.7392 42.5011 14.4634 42.2689 14.2311C42.0366 13.9989 41.7608 13.8148 41.4573 13.6893C41.1538 13.5638 40.8284 13.4995 40.5 13.5H15.5C15.1716 13.4995 14.8462 13.5638 14.5427 13.6893C14.2392 13.8148 13.9634 13.9989 13.7311 14.2311C13.4989 14.4634 13.3148 14.7392 13.1893 15.0427C13.0638 15.3462 12.9995 15.6716 13 16V33.5C12.9995 33.8284 13.0638 34.1538 13.1893 34.4573C13.3148 34.7608 13.4989 35.0366 13.7311 35.2689C13.9634 35.5011 14.2392 35.6852 14.5427 35.8107C14.8462 35.9362 15.1716 36.0005 15.5 36H26.75V38.5H15.5C14.1739 38.5 12.9021 37.9732 11.9645 37.0355C11.0268 36.0979 10.5 34.8261 10.5 33.5V16C10.5 14.6739 11.0268 13.4021 11.9645 12.4645C12.9021 11.5268 14.1739 11 15.5 11H40.5C41.8261 11 43.0979 11.5268 44.0355 12.4645C44.9732 13.4021 45.5 14.6739 45.5 16V33.5C45.5 34.8261 44.9732 36.0979 44.0355 37.0355C43.0979 37.9732 41.8261 38.5 40.5 38.5H34.4563L30.17 46Z" fill="#59A5FF"/>
</svg>
