<svg width="57" height="56" viewBox="0 0 57 56" fill="none" xmlns="http://www.w3.org/2000/svg">
<rect x="0.5" width="56" height="56" rx="28" fill="#FFE395"/>
<path d="M28.4999 45.9166C20.0332 45.9166 12.6499 39.8999 10.9499 31.6166C10.8166 30.9333 11.2499 30.2832 11.9166 30.1332C12.5999 29.9999 13.2499 30.4332 13.3999 31.0999C14.8666 38.2332 21.2165 43.4166 28.4999 43.4166C35.7665 43.4166 42.1165 38.2666 43.5999 31.1666C43.7332 30.4832 44.3999 30.0499 45.0832 30.1999C45.7665 30.3332 46.1999 30.9999 46.0499 31.6832C44.3165 39.9166 36.9499 45.9166 28.4999 45.9166Z" fill="#59A5FF"/>
<path d="M44.8496 26.0167C44.2663 26.0167 43.7496 25.6 43.6329 25C42.2163 17.8 35.8496 12.5667 28.4996 12.5667C21.1996 12.5667 14.8496 17.75 13.3996 24.8833C13.2663 25.5667 12.5996 25.9833 11.9163 25.85C11.2329 25.7167 10.7996 25.05 10.9496 24.3667C12.6496 16.0833 20.0329 10.0667 28.4996 10.0667C37.0496 10.0667 44.4329 16.15 46.0829 24.5167C46.2163 25.2 45.7663 25.85 45.0996 25.9833C45.0163 26.0167 44.9329 26.0167 44.8496 26.0167Z" fill="#3A86FF"/>
<path d="M28.5 31.75C26.4333 31.75 24.75 30.0667 24.75 28C24.75 25.9333 26.4333 24.25 28.5 24.25C30.5667 24.25 32.25 25.9333 32.25 28C32.25 30.0667 30.5667 31.75 28.5 31.75ZM28.5 26.75C27.8167 26.75 27.25 27.3167 27.25 28C27.25 28.6833 27.8167 29.25 28.5 29.25C29.1833 29.25 29.75 28.6833 29.75 28C29.75 27.3167 29.1833 26.75 28.5 26.75Z" fill="#3A86FF"/>
</svg>
