<svg width="16" height="17" viewBox="0 0 16 17" fill="none" xmlns="http://www.w3.org/2000/svg">
<path fill-rule="evenodd" clip-rule="evenodd" d="M4.27798 4.01003C3.80944 4.01003 3.36008 4.19616 3.02876 4.52748C2.69745 4.85879 2.51132 5.30815 2.51132 5.7767V11.6647C2.51132 12.1332 2.69745 12.5826 3.02876 12.9139C3.36008 13.2452 3.80944 13.4314 4.27798 13.4314H5.25198V4.01003H4.27798ZM4.27798 2.83203C3.49719 2.83203 2.74837 3.1422 2.19626 3.69431C1.64416 4.24642 1.33398 4.99523 1.33398 5.77603V11.6647C1.3339 12.0514 1.40998 12.4343 1.55789 12.7915C1.7058 13.1488 1.92264 13.4734 2.19603 13.7469C2.46941 14.0203 2.79398 14.2372 3.15121 14.3852C3.50844 14.5332 3.89132 14.6094 4.27798 14.6094H11.7233C12.11 14.6094 12.493 14.5332 12.8502 14.3851C13.2075 14.2371 13.5321 14.0201 13.8055 13.7466C14.0789 13.4731 14.2957 13.1484 14.4436 12.7911C14.5915 12.4337 14.6675 12.0508 14.6673 11.664V5.77603C14.6673 4.99523 14.3571 4.24642 13.805 3.69431C13.2529 3.1422 12.5041 2.83203 11.7233 2.83203H4.27798ZM6.42998 4.01003V13.4314H11.7233C12.1919 13.4314 12.6412 13.2452 12.9725 12.9139C13.3039 12.5826 13.49 12.1332 13.49 11.6647V5.77603C13.49 5.30748 13.3039 4.85812 12.9725 4.52681C12.6412 4.1955 12.1919 4.00936 11.7233 4.00936H6.42998V4.01003Z" fill="black"/>
</svg>
