<svg width="32" height="33" viewBox="0 0 32 33" fill="none" xmlns="http://www.w3.org/2000/svg">
<path d="M11.9999 19.5254C12.8868 19.5252 13.7487 19.8197 14.45 20.3628C15.1513 20.9059 15.6522 21.6666 15.8739 22.5254H26.9999C27.2498 22.5249 27.4908 22.618 27.6755 22.7864C27.8601 22.9548 27.9751 23.1862 27.9976 23.435C28.0202 23.6839 27.9488 23.9322 27.7974 24.1311C27.6461 24.3299 27.4258 24.4649 27.1799 24.5094L26.9999 24.5254L15.8739 24.5274C15.6529 25.3869 15.1523 26.1485 14.451 26.6924C13.7497 27.2362 12.8874 27.5313 11.9999 27.5313C11.1124 27.5313 10.2501 27.2362 9.54879 26.6924C8.84745 26.1485 8.34689 25.3869 8.12589 24.5274L4.99989 24.5254C4.75 24.5259 4.50899 24.4327 4.32432 24.2644C4.13966 24.096 4.02472 23.8646 4.00214 23.6157C3.97956 23.3669 4.05098 23.1186 4.20233 22.9197C4.35368 22.7209 4.574 22.5859 4.81989 22.5414L4.99989 22.5254H8.12589C8.34763 21.6666 8.84852 20.9059 9.54979 20.3628C10.2511 19.8197 11.1129 19.5252 11.9999 19.5254ZM11.9999 21.5254C11.4695 21.5254 10.9608 21.7361 10.5857 22.1112C10.2106 22.4862 9.99989 22.995 9.99989 23.5254C9.99989 24.0558 10.2106 24.5645 10.5857 24.9396C10.9608 25.3147 11.4695 25.5254 11.9999 25.5254C12.5303 25.5254 13.039 25.3147 13.4141 24.9396C13.7892 24.5645 13.9999 24.0558 13.9999 23.5254C13.9999 22.995 13.7892 22.4862 13.4141 22.1112C13.039 21.7361 12.5303 21.5254 11.9999 21.5254ZM19.9999 5.52539C20.8868 5.52517 21.7487 5.81974 22.45 6.3628C23.1513 6.90586 23.6522 7.6666 23.8739 8.52539H26.9999C27.2498 8.52493 27.4908 8.61805 27.6755 8.78641C27.8601 8.95477 27.9751 9.18616 27.9976 9.43503C28.0202 9.6839 27.9488 9.93221 27.7974 10.1311C27.6461 10.3299 27.4258 10.4649 27.1799 10.5094L26.9999 10.5254L23.8739 10.5274C23.6529 11.3869 23.1523 12.1485 22.451 12.6924C21.7497 13.2362 20.8874 13.5313 19.9999 13.5313C19.1124 13.5313 18.2501 13.2362 17.5488 12.6924C16.8475 12.1485 16.3469 11.3869 16.1259 10.5274L4.99989 10.5254C4.75 10.5259 4.50899 10.4327 4.32432 10.2644C4.13966 10.096 4.02472 9.86462 4.00214 9.61575C3.97956 9.36688 4.05098 9.11857 4.20233 8.91973C4.35368 8.72088 4.574 8.58591 4.81989 8.54139L4.99989 8.52539H16.1259C16.3476 7.6666 16.8485 6.90586 17.5498 6.3628C18.2511 5.81974 19.1129 5.52517 19.9999 5.52539ZM19.9999 7.52539C19.4695 7.52539 18.9607 7.7361 18.5857 8.11118C18.2106 8.48625 17.9999 8.99496 17.9999 9.52539C17.9999 10.0558 18.2106 10.5645 18.5857 10.9396C18.9607 11.3147 19.4695 11.5254 19.9999 11.5254C20.5303 11.5254 21.039 11.3147 21.4141 10.9396C21.7892 10.5645 21.9999 10.0558 21.9999 9.52539C21.9999 8.99496 21.7892 8.48625 21.4141 8.11118C21.039 7.7361 20.5303 7.52539 19.9999 7.52539Z" fill="black"/>
</svg>
