<svg width="24" height="24" viewBox="0 0 24 24" fill="none" xmlns="http://www.w3.org/2000/svg">
<rect opacity="0.01" width="24" height="24" fill="#070E45"/>
<mask id="mask0_543_6760" style="mask-type:alpha" maskUnits="userSpaceOnUse" x="2" y="2" width="20" height="20">
<path d="M21.5682 10.1818H12.25V14.0455H17.6136C17.1136 16.5 15.0227 17.9091 12.25 17.9091C8.97727 17.9091 6.34091 15.2727 6.34091 12C6.34091 8.72727 8.97727 6.09091 12.25 6.09091C13.6591 6.09091 14.9318 6.59091 15.9318 7.40909L18.8409 4.5C17.0682 2.95455 14.7955 2 12.25 2C6.70455 2 2.25 6.45455 2.25 12C2.25 17.5455 6.70455 22 12.25 22C17.25 22 21.7955 18.3636 21.7955 12C21.7955 11.4091 21.7045 10.7727 21.5682 10.1818H21.5682Z" fill="black"/>
</mask>
<g mask="url(#mask0_543_6760)">
<path d="M1.34082 17.9091V6.09094L9.06809 12L1.34082 17.9091Z" fill="#FBBC05"/>
</g>
<mask id="mask1_543_6760" style="mask-type:alpha" maskUnits="userSpaceOnUse" x="2" y="2" width="20" height="20">
<path d="M21.5682 10.1818H12.25V14.0455H17.6136C17.1136 16.5 15.0227 17.9091 12.25 17.9091C8.97727 17.9091 6.34091 15.2727 6.34091 12C6.34091 8.72727 8.97727 6.09091 12.25 6.09091C13.6591 6.09091 14.9318 6.59091 15.9318 7.40909L18.8409 4.5C17.0682 2.95455 14.7955 2 12.25 2C6.70455 2 2.25 6.45455 2.25 12C2.25 17.5455 6.70455 22 12.25 22C17.25 22 21.7955 18.3636 21.7955 12C21.7955 11.4091 21.7045 10.7727 21.5682 10.1818H21.5682Z" fill="black"/>
</mask>
<g mask="url(#mask1_543_6760)">
<path d="M1.34082 6.09095L9.06809 12L12.2499 9.22731L23.159 7.45458V1.09094H1.34082L1.34082 6.09095Z" fill="#EA4335"/>
</g>
<mask id="mask2_543_6760" style="mask-type:alpha" maskUnits="userSpaceOnUse" x="2" y="2" width="20" height="20">
<path d="M21.5682 10.1818H12.25V14.0455H17.6136C17.1136 16.5 15.0227 17.9091 12.25 17.9091C8.97727 17.9091 6.34091 15.2727 6.34091 12C6.34091 8.72727 8.97727 6.09091 12.25 6.09091C13.6591 6.09091 14.9318 6.59091 15.9318 7.40909L18.8409 4.5C17.0682 2.95455 14.7955 2 12.25 2C6.70455 2 2.25 6.45455 2.25 12C2.25 17.5455 6.70455 22 12.25 22C17.25 22 21.7955 18.3636 21.7955 12C21.7955 11.4091 21.7045 10.7727 21.5682 10.1818H21.5682Z" fill="black"/>
</mask>
<g mask="url(#mask2_543_6760)">
<path d="M1.34082 17.9091L14.9772 7.45457L18.5681 7.90912L23.159 1.09094V22.9091H1.34082V17.9091Z" fill="#34A853"/>
</g>
<mask id="mask3_543_6760" style="mask-type:alpha" maskUnits="userSpaceOnUse" x="2" y="2" width="20" height="20">
<path d="M21.5682 10.1818H12.25V14.0455H17.6136C17.1136 16.5 15.0227 17.9091 12.25 17.9091C8.97727 17.9091 6.34091 15.2727 6.34091 12C6.34091 8.72727 8.97727 6.09091 12.25 6.09091C13.6591 6.09091 14.9318 6.59091 15.9318 7.40909L18.8409 4.5C17.0682 2.95455 14.7955 2 12.25 2C6.70455 2 2.25 6.45455 2.25 12C2.25 17.5455 6.70455 22 12.25 22C17.25 22 21.7955 18.3636 21.7955 12C21.7955 11.4091 21.7045 10.7727 21.5682 10.1818H21.5682Z" fill="black"/>
</mask>
<g mask="url(#mask3_543_6760)">
<path d="M23.1591 22.9091L9.06818 12L7.25 10.6364L23.1591 6.09094V22.9091Z" fill="#4285F4"/>
</g>
</svg>
