<svg width="56" height="57" viewBox="0 0 56 57" fill="none" xmlns="http://www.w3.org/2000/svg">
<rect y="0.5" width="56" height="56" rx="28" fill="#FFF085"/>
<path d="M19 14.5C17.6739 14.5 16.4021 15.0268 15.4645 15.9645C14.5268 16.9021 14 18.1739 14 19.5V37.5C14 38.8261 14.5268 40.0979 15.4645 41.0355C16.4021 41.9732 17.6739 42.5 19 42.5H27.2C26.8734 41.8606 26.6101 41.1907 26.414 40.5H19C18.2044 40.5 17.4413 40.1839 16.8787 39.6213C16.3161 39.0587 16 38.2956 16 37.5V19.5C16 18.7044 16.3161 17.9413 16.8787 17.3787C17.4413 16.8161 18.2044 16.5 19 16.5H37C37.7956 16.5 38.5587 16.8161 39.1213 17.3787C39.6839 17.9413 40 18.7044 40 19.5V26.914C40.6987 27.1127 41.3653 27.3747 42 27.7V19.5C42 18.1739 41.4732 16.9021 40.5355 15.9645C39.5979 15.0268 38.3261 14.5 37 14.5H19ZM26.414 34.5C26.6127 33.8013 26.8747 33.1347 27.2 32.5H19C18.7348 32.5 18.4804 32.6054 18.2929 32.7929C18.1054 32.9804 18 33.2348 18 33.5C18 33.7652 18.1054 34.0196 18.2929 34.2071C18.4804 34.3946 18.7348 34.5 19 34.5H26.414ZM25 38.5C25.2652 38.5 25.5196 38.3946 25.7071 38.2071C25.8946 38.0196 26 37.7652 26 37.5C26 37.2348 25.8946 36.9804 25.7071 36.7929C25.5196 36.6054 25.2652 36.5 25 36.5H19C18.7348 36.5 18.4804 36.6054 18.2929 36.7929C18.1054 36.9804 18 37.2348 18 37.5C18 37.7652 18.1054 38.0196 18.2929 38.2071C18.4804 38.3946 18.7348 38.5 19 38.5H25ZM24 18.5C24.1935 18.5 24.3828 18.5561 24.5451 18.6615C24.7073 18.7669 24.8354 18.9172 24.914 19.094L28.914 28.094C28.9673 28.214 28.9965 28.3434 28.9998 28.4747C29.0031 28.606 28.9806 28.7366 28.9334 28.8592C28.8862 28.9818 28.8154 29.0939 28.7249 29.1891C28.6344 29.2842 28.526 29.3607 28.406 29.414C28.286 29.4673 28.1566 29.4965 28.0253 29.4998C27.894 29.5031 27.7634 29.4806 27.6408 29.4334C27.5182 29.3862 27.4061 29.3154 27.3109 29.2249C27.2158 29.1344 27.1393 29.026 27.086 28.906L26.016 26.5H21.984L20.914 28.906C20.8063 29.1484 20.6068 29.3381 20.3592 29.4334C20.1117 29.5286 19.8364 29.5217 19.594 29.414C19.3516 29.3063 19.1619 29.1068 19.0666 28.8592C18.9714 28.6117 18.9783 28.3364 19.086 28.094L23.086 19.094C23.1646 18.9172 23.2927 18.7669 23.4549 18.6615C23.6172 18.5561 23.8065 18.5 24 18.5ZM25.128 24.5L24 21.962L22.872 24.5H25.128ZM35 19.5C35 19.2348 34.8946 18.9804 34.7071 18.7929C34.5196 18.6054 34.2652 18.5 34 18.5C33.7348 18.5 33.4804 18.6054 33.2929 18.7929C33.1054 18.9804 33 19.2348 33 19.5V21.5H31C30.7348 21.5 30.4804 21.6054 30.2929 21.7929C30.1054 21.9804 30 22.2348 30 22.5C30 22.7652 30.1054 23.0196 30.2929 23.2071C30.4804 23.3946 30.7348 23.5 31 23.5H33V25.5C33 25.7652 33.1054 26.0196 33.2929 26.2071C33.4804 26.3946 33.7348 26.5 34 26.5C34.2652 26.5 34.5196 26.3946 34.7071 26.2071C34.8946 26.0196 35 25.7652 35 25.5V23.5H37C37.2652 23.5 37.5196 23.3946 37.7071 23.2071C37.8946 23.0196 38 22.7652 38 22.5C38 22.2348 37.8946 21.9804 37.7071 21.7929C37.5196 21.6054 37.2652 21.5 37 21.5H35V19.5ZM46 37.5C46 39.8869 45.0518 42.1761 43.364 43.864C41.6761 45.5518 39.3869 46.5 37 46.5C34.6131 46.5 32.3239 45.5518 30.636 43.864C28.9482 42.1761 28 39.8869 28 37.5C28 35.1131 28.9482 32.8239 30.636 31.136C32.3239 29.4482 34.6131 28.5 37 28.5C39.3869 28.5 41.6761 29.4482 43.364 31.136C45.0518 32.8239 46 35.1131 46 37.5ZM38 33.5C38 33.2348 37.8946 32.9804 37.7071 32.7929C37.5196 32.6054 37.2652 32.5 37 32.5C36.7348 32.5 36.4804 32.6054 36.2929 32.7929C36.1054 32.9804 36 33.2348 36 33.5V36.5H33C32.7348 36.5 32.4804 36.6054 32.2929 36.7929C32.1054 36.9804 32 37.2348 32 37.5C32 37.7652 32.1054 38.0196 32.2929 38.2071C32.4804 38.3946 32.7348 38.5 33 38.5H36V41.5C36 41.7652 36.1054 42.0196 36.2929 42.2071C36.4804 42.3946 36.7348 42.5 37 42.5C37.2652 42.5 37.5196 42.3946 37.7071 42.2071C37.8946 42.0196 38 41.7652 38 41.5V38.5H41C41.2652 38.5 41.5196 38.3946 41.7071 38.2071C41.8946 38.0196 42 37.7652 42 37.5C42 37.2348 41.8946 36.9804 41.7071 36.7929C41.5196 36.6054 41.2652 36.5 41 36.5H38V33.5Z" fill="#59A5FF"/>
</svg>
