<svg width="32" height="33" viewBox="0 0 32 33" fill="none" xmlns="http://www.w3.org/2000/svg">
<path d="M19.9991 5.06934C19.9991 4.27821 19.7645 3.50485 19.325 2.84706C18.8855 2.18926 18.2607 1.67657 17.5298 1.37382C16.7989 1.07107 15.9947 0.991856 15.2187 1.1462C14.4428 1.30054 13.7301 1.6815 13.1707 2.24091C12.6113 2.80032 12.2303 3.51305 12.076 4.28898C11.9216 5.0649 12.0008 5.86917 12.3036 6.60007C12.6063 7.33098 13.119 7.95569 13.7768 8.39522C14.4346 8.83474 15.208 9.06934 15.9991 9.06934C17.06 9.06934 18.0774 8.64791 18.8275 7.89777C19.5777 7.14762 19.9991 6.1302 19.9991 5.06934ZM15.9991 7.06934C15.6035 7.06934 15.2169 6.95204 14.888 6.73228C14.5591 6.51251 14.3027 6.20016 14.1513 5.8347C14 5.46925 13.9604 5.06712 14.0375 4.67916C14.1147 4.2912 14.3052 3.93483 14.5849 3.65512C14.8646 3.37542 15.221 3.18494 15.6089 3.10777C15.9969 3.0306 16.399 3.0702 16.7645 3.22158C17.1299 3.37295 17.4423 3.6293 17.662 3.9582C17.8818 4.2871 17.9991 4.67378 17.9991 5.06934C17.9991 5.59977 17.7884 6.10848 17.4133 6.48355C17.0382 6.85862 16.5295 7.06934 15.9991 7.06934ZM27.2916 16.8256L21.6454 10.4231C21.2699 9.99755 20.8083 9.65676 20.291 9.42336C19.7738 9.18995 19.2128 9.06928 18.6454 9.06934H13.3529C12.7854 9.06928 12.2244 9.18995 11.7072 9.42336C11.1899 9.65676 10.7283 9.99755 10.3529 10.4231L4.70661 16.8256C4.24808 17.2945 3.9922 17.9249 3.99415 18.5808C3.9961 19.2367 4.25571 19.8655 4.71702 20.3317C5.17833 20.798 5.80438 21.0642 6.46019 21.0731C7.11601 21.082 7.74906 20.8329 8.22286 20.3793L10.2604 18.7443L8.19286 26.6043C7.91902 27.2085 7.89642 27.8968 8.13002 28.5176C8.36362 29.1385 8.83428 29.6411 9.43848 29.915C10.0427 30.1888 10.7309 30.2114 11.3518 29.9778C11.9726 29.7442 12.4753 29.2735 12.7491 28.6693L15.9991 23.0606L19.2491 28.6693C19.5352 29.2533 20.0375 29.7027 20.6495 29.9224C21.2615 30.1421 21.935 30.1147 22.5271 29.8461C23.1192 29.5774 23.5834 29.0886 23.8211 28.4834C24.0588 27.8782 24.0514 27.2042 23.8004 26.6043L21.7379 18.7443L23.7754 20.3793C24.2492 20.8329 24.8822 21.082 25.538 21.0731C26.1938 21.0642 26.8199 20.798 27.2812 20.3317C27.7425 19.8655 28.0021 19.2367 28.0041 18.5808C28.006 17.9249 27.7501 17.2945 27.2916 16.8256ZM25.8529 18.9218C25.8064 18.9683 25.7513 19.0052 25.6906 19.0304C25.6299 19.0555 25.5648 19.0685 25.4991 19.0685C25.4334 19.0685 25.3683 19.0555 25.3076 19.0304C25.2469 19.0052 25.1918 18.9683 25.1454 18.9218C25.1191 18.8968 25.0929 18.8718 25.0641 18.8493L20.6241 15.2893C20.4602 15.1585 20.2594 15.0825 20.05 15.0721C19.8406 15.0617 19.6332 15.1173 19.4572 15.2312C19.2811 15.3451 19.1453 15.5114 19.0689 15.7067C18.9926 15.9019 18.9795 16.1162 19.0316 16.3193L21.8916 27.1943C21.9063 27.2523 21.9264 27.3088 21.9516 27.3631C21.9805 27.4227 21.9972 27.4875 22.0008 27.5537C22.0044 27.6199 21.9948 27.6861 21.9725 27.7485C21.9503 27.8109 21.9159 27.8683 21.8713 27.9173C21.8267 27.9663 21.7728 28.006 21.7128 28.034C21.6527 28.062 21.5877 28.0778 21.5215 28.0804C21.4553 28.0831 21.3892 28.0725 21.3271 28.0494C21.265 28.0263 21.2081 27.9911 21.1597 27.9458C21.1114 27.9005 21.0725 27.846 21.0454 27.7856C21.0332 27.7585 21.0194 27.7323 21.0041 27.7068L16.8641 20.5693C16.7762 20.4178 16.65 20.292 16.4982 20.2046C16.3464 20.1171 16.1743 20.0711 15.9991 20.0711C15.8239 20.0711 15.6518 20.1171 15.5 20.2046C15.3482 20.292 15.222 20.4178 15.1341 20.5693L10.9991 27.7006C10.9838 27.726 10.97 27.7523 10.9579 27.7793C10.9301 27.8389 10.8908 27.8924 10.8424 27.9368C10.7939 27.9812 10.7371 28.0156 10.6754 28.0381C10.5824 28.0722 10.4814 28.0779 10.3851 28.0545C10.2889 28.0311 10.2018 27.9796 10.1348 27.9066C10.0679 27.8337 10.0241 27.7425 10.0091 27.6446C9.99404 27.5467 10.0084 27.4465 10.0504 27.3568C10.0756 27.3026 10.0956 27.2461 10.1104 27.1881L12.9666 16.3193C13.0187 16.1162 13.0056 15.9019 12.9293 15.7067C12.8529 15.5114 12.7171 15.3451 12.5411 15.2312C12.365 15.1173 12.1576 15.0617 11.9482 15.0721C11.7388 15.0825 11.538 15.1585 11.3741 15.2893L6.93411 18.8493C6.90536 18.8718 6.87911 18.8968 6.85286 18.9218C6.80693 18.9703 6.75178 19.009 6.69064 19.0358C6.62951 19.0625 6.56364 19.0768 6.49691 19.0777C6.43018 19.0786 6.36394 19.0662 6.30209 19.0411C6.24025 19.016 6.18406 18.9788 6.13683 18.9316C6.08959 18.8845 6.05228 18.8284 6.02708 18.7666C6.00188 18.7048 5.98931 18.6385 5.9901 18.5718C5.9909 18.5051 6.00504 18.4392 6.03171 18.378C6.05837 18.3168 6.09701 18.2616 6.14536 18.2156C6.16036 18.2006 6.17411 18.1856 6.18786 18.1693L11.8529 11.7456C12.0406 11.5329 12.2715 11.3627 12.5301 11.2461C12.7887 11.1295 13.0692 11.0692 13.3529 11.0693H18.6454C18.929 11.0692 19.2095 11.1295 19.4681 11.2461C19.7267 11.3627 19.9576 11.5329 20.1454 11.7456L25.8104 18.1693C25.8241 18.1856 25.8379 18.2006 25.8529 18.2156C25.9464 18.3093 25.9989 18.4363 25.9989 18.5687C25.9989 18.7011 25.9464 18.8281 25.8529 18.9218Z" fill="black"/>
</svg>
