<svg width="24" height="24" viewBox="0 0 24 24" fill="none" xmlns="http://www.w3.org/2000/svg">
<mask id="path-1-inside-1_1826_3111" fill="white">
<path d="M6.27145 8.73047C6.27145 8.78341 6.26966 8.83534 6.26513 8.88528V8.93223C6.25901 8.86497 6.26113 8.7971 6.27145 8.73047Z"/>
</mask>
<path d="M6.27145 8.73047C6.27145 8.78341 6.26966 8.83534 6.26513 8.88528V8.93223C6.25901 8.86497 6.26113 8.7971 6.27145 8.73047Z" fill="#3A86FF"/>
<path d="M6.27145 8.73047H7.11355L5.43925 8.60164L6.27145 8.73047ZM6.26513 8.88528L5.42646 8.80929L5.42303 8.8472V8.88528H6.26513ZM6.26513 8.93223L5.4265 9.00861L7.10724 8.93223H6.26513ZM6.27145 8.73047H5.42934C5.42934 8.76526 5.42813 8.79091 5.42646 8.80929L6.26513 8.88528L7.1038 8.96127C7.11119 8.87977 7.11355 8.80155 7.11355 8.73047H6.27145ZM6.26513 8.88528H5.42303V8.93223H6.26513H7.10724V8.88528H6.26513ZM6.26513 8.93223L7.10377 8.85585C7.10386 8.85688 7.10385 8.85792 7.10364 8.8593L6.27145 8.73047L5.43925 8.60164C5.41841 8.73628 5.41415 8.87306 5.4265 9.00861L6.26513 8.93223Z" fill="#737373" mask="url(#path-1-inside-1_1826_3111)"/>
<mask id="path-3-inside-2_1826_3111" fill="white">
<path d="M6.4365 10.1938C6.33337 10.033 6.27409 9.84222 6.26578 9.64459C6.25772 9.42293 6.26399 9.20221 6.26489 8.93359C6.26937 9.00748 6.2765 9.0834 6.27556 9.15624C6.27468 9.33901 6.26574 9.52375 6.28004 9.70444C6.29375 9.87985 6.34763 10.0484 6.4365 10.1938Z"/>
</mask>
<path d="M6.4365 10.1938C6.33337 10.033 6.27409 9.84222 6.26578 9.64459C6.25772 9.42293 6.26399 9.20221 6.26489 8.93359C6.26937 9.00748 6.2765 9.0834 6.27556 9.15624C6.27468 9.33901 6.26574 9.52375 6.28004 9.70444C6.29375 9.87985 6.34763 10.0484 6.4365 10.1938Z" fill="#3A86FF"/>
<path d="M6.4365 10.1938L5.72756 10.6483L7.15509 9.75477L6.4365 10.1938ZM6.26578 9.64459L5.42422 9.67521L5.42442 9.67994L6.26578 9.64459ZM6.26489 8.93359L7.10545 8.88262L5.42279 8.93078L6.26489 8.93359ZM6.27556 9.15624L5.43349 9.14538L5.43346 9.15221L6.27556 9.15624ZM6.28004 9.70444L7.11958 9.63879L7.11952 9.63802L6.28004 9.70444ZM6.4365 10.1938L7.14543 9.73934C7.12569 9.70854 7.10942 9.66339 7.10715 9.60924L6.26578 9.64459L5.42442 9.67994C5.43875 10.0211 5.54105 10.3574 5.72756 10.6483L6.4365 10.1938ZM6.26578 9.64459L7.10733 9.61397C7.10007 9.41442 7.106 9.23295 7.10699 8.9364L6.26489 8.93359L5.42279 8.93078C5.42198 9.17148 5.41537 9.43143 5.42424 9.67521L6.26578 9.64459ZM6.26489 8.93359L5.42433 8.98457C5.43117 9.09735 5.43393 9.11379 5.43352 9.14538L6.27556 9.15624L7.11759 9.16709C7.11906 9.05301 7.10757 8.91762 7.10545 8.88262L6.26489 8.93359ZM6.27556 9.15624L5.43346 9.15221C5.43283 9.28499 5.42255 9.5433 5.44056 9.77086L6.28004 9.70444L7.11952 9.63802C7.10893 9.5042 7.11654 9.39302 7.11765 9.16027L6.27556 9.15624ZM6.28004 9.70444L5.4405 9.77009C5.46421 10.0733 5.5576 10.3705 5.7179 10.6329L6.4365 10.1938L7.15509 9.75477C7.13767 9.72626 7.1233 9.68637 7.11958 9.63879L6.28004 9.70444Z" fill="#737373" mask="url(#path-3-inside-2_1826_3111)"/>
<mask id="path-5-inside-3_1826_3111" fill="white">
<path d="M7.41027 10.7989C7.37216 10.7957 7.33425 10.79 7.29675 10.7819C7.27886 10.7779 7.26096 10.7739 7.244 10.7689C7.22559 10.765 7.20739 10.76 7.18945 10.7539C7.22074 10.7619 7.25114 10.7699 7.28335 10.7759C7.29301 10.7789 7.30288 10.7808 7.31286 10.7819C7.34501 10.7888 7.37719 10.7949 7.41027 10.7989Z"/>
</mask>
<path d="M7.41027 10.7989C7.37216 10.7957 7.33425 10.79 7.29675 10.7819C7.27886 10.7779 7.26096 10.7739 7.244 10.7689C7.22559 10.765 7.20739 10.76 7.18945 10.7539C7.22074 10.7619 7.25114 10.7699 7.28335 10.7759C7.29301 10.7789 7.30288 10.7808 7.31286 10.7819C7.34501 10.7888 7.37719 10.7949 7.41027 10.7989Z" fill="#3A86FF"/>
<path d="M7.41027 10.7989L7.34053 11.6381L7.51148 9.96288L7.41027 10.7989ZM7.29675 10.7819L7.11273 11.6036L7.11755 11.6047L7.29675 10.7819ZM7.244 10.7689L7.48334 9.9615L7.45159 9.95208L7.4192 9.94519L7.244 10.7689ZM7.18945 10.7539L7.3983 9.93811L6.91997 11.5517L7.18945 10.7539ZM7.28335 10.7759L7.5294 9.97055L7.48421 9.95674L7.43776 9.94808L7.28335 10.7759ZM7.31286 10.7819L7.4904 9.95869L7.44457 9.9488L7.39793 9.94407L7.31286 10.7819ZM7.41027 10.7989L7.48001 9.95967C7.47883 9.95957 7.47749 9.95938 7.47594 9.95904L7.29675 10.7819L7.11755 11.6047C7.19102 11.6207 7.26549 11.6319 7.34053 11.6381L7.41027 10.7989ZM7.29675 10.7819L7.48075 9.96011C7.47547 9.95892 7.47272 9.95831 7.46988 9.95767C7.46736 9.95709 7.46645 9.95688 7.46646 9.95688C7.46651 9.95689 7.4681 9.95727 7.4708 9.95798C7.47351 9.95869 7.47781 9.95986 7.48334 9.9615L7.244 10.7689L7.00465 11.5762C7.05454 11.591 7.10258 11.6013 7.11274 11.6036L7.29675 10.7819ZM7.244 10.7689L7.4192 9.94519C7.43282 9.94809 7.44609 9.95174 7.45894 9.95608L7.18945 10.7539L6.91997 11.5517C6.96868 11.5682 7.01837 11.5818 7.0688 11.5926L7.244 10.7689ZM7.18945 10.7539L6.98061 11.5697C7.00297 11.5754 7.06341 11.5915 7.12893 11.6037L7.28335 10.7759L7.43776 9.94808C7.4406 9.94861 7.44009 9.94862 7.43352 9.94703C7.43024 9.94624 7.42603 9.94519 7.42004 9.94367C7.41331 9.94196 7.4078 9.94054 7.3983 9.93811L7.18945 10.7539ZM7.28335 10.7759L7.03729 11.5813C7.0991 11.6001 7.16288 11.6131 7.22778 11.6197L7.31286 10.7819L7.39793 9.94407C7.44288 9.94863 7.48691 9.95757 7.5294 9.97055L7.28335 10.7759ZM7.31286 10.7819L7.13531 11.605C7.18066 11.6148 7.2405 11.6266 7.30906 11.6349L7.41027 10.7989L7.51148 9.96288C7.51389 9.96317 7.50937 9.96278 7.4904 9.95869L7.31286 10.7819Z" fill="#737373" mask="url(#path-5-inside-3_1826_3111)"/>
<mask id="path-7-inside-4_1826_3111" fill="white">
<path d="M7.97883 7.15703C7.93861 7.14401 7.89749 7.13403 7.85547 7.12504C7.85818 7.12487 7.8609 7.12522 7.86351 7.12607C7.90246 7.13387 7.94096 7.14421 7.97883 7.15703Z"/>
</mask>
<path d="M7.97883 7.15703C7.93861 7.14401 7.89749 7.13403 7.85547 7.12504C7.85818 7.12487 7.8609 7.12522 7.86351 7.12607C7.90246 7.13387 7.94096 7.14421 7.97883 7.15703Z" fill="#3A86FF"/>
<path d="M7.97883 7.15703L7.71961 7.95824L8.24881 6.35937L7.97883 7.15703ZM7.85547 7.12504L7.8038 6.28452L7.67936 7.94852L7.85547 7.12504ZM7.86351 7.12607L7.60414 7.92723L7.65037 7.9422L7.698 7.95175L7.86351 7.12607ZM7.97883 7.15703L8.23805 6.35581C8.15924 6.33031 8.087 6.31341 8.03158 6.30156L7.85547 7.12504L7.67936 7.94852C7.70797 7.95464 7.71797 7.95771 7.71961 7.95824L7.97883 7.15703ZM7.85547 7.12504L7.90713 7.96556C7.80351 7.97193 7.70077 7.95852 7.60414 7.92723L7.86351 7.12607L8.12289 6.3249C8.02103 6.29193 7.91285 6.27782 7.8038 6.28452L7.85547 7.12504ZM7.86351 7.12607L7.698 7.95175C7.70134 7.95241 7.70495 7.95336 7.70885 7.95468L7.97883 7.15703L8.24881 6.35937C8.17697 6.33506 8.10358 6.31533 8.02903 6.30039L7.86351 7.12607Z" fill="#737373" mask="url(#path-7-inside-4_1826_3111)"/>
<mask id="path-9-inside-5_1826_3111" fill="white">
<path d="M8.56044 7.52341C8.45993 7.41664 8.34535 7.32772 8.2207 7.25977C8.34632 7.32587 8.46115 7.41498 8.56044 7.52341Z"/>
</mask>
<path d="M8.56044 7.52341C8.45993 7.41664 8.34535 7.32772 8.2207 7.25977C8.34632 7.32587 8.46115 7.41498 8.56044 7.52341Z" fill="#3A86FF"/>
<path d="M8.56044 7.52341L7.94728 8.10061L9.18148 6.95467L8.56044 7.52341ZM8.2207 7.25977L8.61287 6.51455L7.81763 7.99914L8.2207 7.25977ZM8.56044 7.52341L9.17361 6.9462C9.01411 6.77677 8.82915 6.63235 8.62378 6.52039L8.2207 7.25977L7.81763 7.99914C7.86156 8.02309 7.90576 8.05651 7.94728 8.10061L8.56044 7.52341ZM8.2207 7.25977L7.82853 8.00498C7.8652 8.02427 7.90328 8.05269 7.93941 8.09214L8.56044 7.52341L9.18148 6.95467C9.01902 6.77727 8.82744 6.62747 8.61287 6.51455L8.2207 7.25977Z" fill="#737373" mask="url(#path-9-inside-5_1826_3111)"/>
<path d="M8.87405 8.9573C8.86959 8.88741 8.86338 8.81645 8.86338 8.74755C8.86428 8.5638 8.8732 8.38009 8.8589 8.1983C8.84299 8.00503 8.77887 7.82062 8.67383 7.66602C8.68187 7.67705 8.68992 7.68801 8.69707 7.7C8.72922 7.74847 8.7571 7.80031 8.78029 7.85479C8.80357 7.9086 8.823 7.96439 8.83839 8.02163C8.84845 8.05995 8.85622 8.09896 8.86165 8.13842C8.86777 8.17839 8.87165 8.21874 8.87326 8.25924C8.88033 8.47695 8.87495 8.69461 8.87405 8.9573Z" fill="#3A86FF"/>
<path d="M8.86719 9.17274C8.86719 9.11882 8.869 9.06689 8.8735 9.01593V8.95703C8.88007 9.02892 8.87795 9.10147 8.86719 9.17274Z" fill="#3A86FF"/>
<path d="M17.6412 8.22025C17.6396 8.19179 17.6366 8.16345 17.6322 8.13535C17.6324 8.13298 17.6321 8.1306 17.6313 8.12837C17.6287 8.10844 17.6242 8.08747 17.6197 8.06747C17.6145 8.04002 17.6077 8.01299 17.5992 7.98658C17.5965 7.97659 17.5938 7.96751 17.5902 7.95762C17.5855 7.94125 17.5798 7.92524 17.5732 7.90969C17.5678 7.8957 17.5625 7.8817 17.5561 7.86776C17.5462 7.84576 17.5364 7.82381 17.5257 7.80183C17.5185 7.78789 17.5114 7.7739 17.5033 7.76086C17.4979 7.74963 17.4916 7.73894 17.4846 7.72892C17.4765 7.71493 17.4685 7.70196 17.4595 7.689C17.4535 7.67892 17.4469 7.66925 17.4398 7.66004C17.4347 7.65226 17.4289 7.64493 17.4228 7.63809C17.5531 7.81381 17.6298 8.0314 17.6418 8.2592C17.6499 8.47293 17.6436 8.68666 17.6436 8.90134C17.6457 8.67464 17.6555 8.44695 17.6412 8.22025ZM17.6457 9.07307C17.6457 9.11597 17.6457 9.15997 17.6466 9.2039C17.6482 9.18499 17.6485 9.16596 17.6475 9.147C17.6466 9.12202 17.6457 9.09805 17.6457 9.07307ZM17.6448 8.95523H17.6439C17.6439 8.99417 17.6448 9.03314 17.6457 9.07307C17.6448 9.03314 17.6448 8.99417 17.6448 8.95523ZM17.1548 7.36544C17.1503 7.36143 17.1459 7.35848 17.1405 7.35447C17.1208 7.33951 17.1012 7.32552 17.0806 7.31253C17.0699 7.30454 17.0583 7.29756 17.0466 7.29055C17.0252 7.2766 17.0028 7.26363 16.9796 7.25163C16.9739 7.24802 16.9679 7.245 16.9617 7.24262C16.9331 7.22667 16.9036 7.21268 16.8732 7.19972C16.8553 7.19173 16.8365 7.18475 16.8177 7.17774C16.7882 7.16582 16.7569 7.15579 16.7256 7.14675C16.7095 7.14177 16.6943 7.13777 16.6782 7.13379C16.6389 7.12378 16.5986 7.11472 16.5584 7.10881C16.528 7.10383 16.4976 7.10082 16.4663 7.09785C16.718 7.12284 16.9599 7.21906 17.1691 7.37743C17.1646 7.37306 17.1598 7.36907 17.1548 7.36544ZM16.3333 7.09184C16.3258 7.09199 16.3183 7.09267 16.3109 7.09384C16.327 7.09282 16.3422 7.09282 16.3574 7.09282C16.3494 7.09201 16.3414 7.09166 16.3333 7.09184ZM15.4687 10.4912C15.6993 10.6886 15.9787 10.8019 16.2689 10.8157C15.9794 10.7978 15.7011 10.6849 15.4687 10.4912ZM15.0476 9.65829C15.0476 9.66828 15.0476 9.67924 15.0485 9.68927C15.0494 9.70629 15.0512 9.72224 15.053 9.73921C15.0575 9.7841 15.0653 9.82851 15.0762 9.87202C15.0789 9.88505 15.0825 9.89699 15.086 9.91001C15.0887 9.91899 15.0905 9.92698 15.0932 9.93499C15.0977 9.94995 15.1031 9.9639 15.1084 9.97887C15.1134 9.99462 15.1194 10.01 15.1263 10.0248C15.1307 10.0376 15.1361 10.05 15.1424 10.0618C15.1532 10.0876 15.1654 10.1126 15.179 10.1367C15.1916 10.1608 15.2053 10.1841 15.2202 10.2066C15.2354 10.2315 15.2524 10.2555 15.2692 10.2784L15.2719 10.2815C15.2777 10.2899 15.2839 10.298 15.2907 10.3055L15.2979 10.3134C15.1506 10.1328 15.0625 9.90196 15.0476 9.65829ZM15.0449 8.95428C15.0449 8.8724 15.044 8.7895 15.0431 8.70763C15.0412 8.72581 15.0406 8.74416 15.0414 8.76245C15.0431 8.8034 15.044 8.84335 15.0431 8.88229C15.044 8.93418 15.0449 8.98812 15.0449 9.04003C15.0458 9.01112 15.0458 8.98314 15.0458 8.95423L15.0449 8.95428ZM15.0431 9.38869C15.0431 9.27586 15.0449 9.164 15.0449 9.05116C15.0431 9.24489 15.0369 9.4406 15.0467 9.63433C15.0439 9.55244 15.0431 9.47061 15.0431 9.38869ZM17.6412 8.22025C17.6396 8.19179 17.6366 8.16345 17.6322 8.13535C17.6324 8.13298 17.6321 8.1306 17.6313 8.12837C17.6287 8.10844 17.6242 8.08747 17.6197 8.06747C17.6145 8.04002 17.6077 8.01299 17.5992 7.98658C17.5965 7.97659 17.5938 7.96751 17.5902 7.95762C17.5855 7.94125 17.5798 7.92524 17.5732 7.90969C17.5678 7.8957 17.5625 7.8817 17.5561 7.86776C17.5462 7.84576 17.5364 7.82381 17.5257 7.80183C17.5185 7.78789 17.5114 7.7739 17.5033 7.76086C17.4979 7.74963 17.4916 7.73894 17.4846 7.72892C17.4765 7.71493 17.4685 7.70196 17.4595 7.689C17.4535 7.67892 17.4469 7.66925 17.4398 7.66004C17.4347 7.65226 17.4289 7.64493 17.4228 7.63809C17.5531 7.81381 17.6298 8.0314 17.6418 8.2592C17.6499 8.47293 17.6436 8.68666 17.6436 8.90134C17.6457 8.67464 17.6555 8.44695 17.6412 8.22025ZM17.6457 9.07307C17.6457 9.11597 17.6457 9.15997 17.6466 9.2039C17.6482 9.18499 17.6485 9.16596 17.6475 9.147C17.6466 9.12202 17.6457 9.09805 17.6457 9.07307ZM17.6448 8.95523H17.6439C17.6439 8.99417 17.6448 9.03314 17.6457 9.07307C17.6448 9.03314 17.6448 8.99417 17.6448 8.95523ZM17.1548 7.36544C17.1503 7.36143 17.1459 7.35848 17.1405 7.35447C17.1208 7.33951 17.1012 7.32552 17.0806 7.31253C17.0699 7.30454 17.0583 7.29756 17.0466 7.29055C17.0252 7.2766 17.0028 7.26363 16.9796 7.25163C16.9739 7.24802 16.9679 7.245 16.9617 7.24262C16.9331 7.22667 16.9036 7.21268 16.8732 7.19972C16.8553 7.19173 16.8365 7.18475 16.8177 7.17774C16.7882 7.16582 16.7569 7.15579 16.7256 7.14675C16.7095 7.14177 16.6943 7.13777 16.6782 7.13379C16.6389 7.12378 16.5986 7.11472 16.5584 7.10881C16.528 7.10383 16.4976 7.10082 16.4663 7.09785C16.718 7.12284 16.9599 7.21906 17.1691 7.37743C17.1646 7.37306 17.1598 7.36907 17.1548 7.36544ZM16.3333 7.09184C16.3258 7.09199 16.3183 7.09267 16.3109 7.09384C16.327 7.09282 16.3422 7.09282 16.3574 7.09282C16.3494 7.09201 16.3414 7.09166 16.3333 7.09184ZM15.4687 10.4912C15.6993 10.6886 15.9787 10.8019 16.2689 10.8157C15.9794 10.7978 15.7011 10.6849 15.4687 10.4912ZM15.0476 9.65829C15.0476 9.66828 15.0476 9.67924 15.0485 9.68927C15.0494 9.70629 15.0512 9.72224 15.053 9.73921C15.0575 9.7841 15.0653 9.82851 15.0762 9.87202C15.0789 9.88505 15.0825 9.89699 15.086 9.91001C15.0887 9.91899 15.0905 9.92698 15.0932 9.93499C15.0977 9.94995 15.1031 9.9639 15.1084 9.97887C15.1134 9.99462 15.1194 10.01 15.1263 10.0248C15.1307 10.0376 15.1361 10.05 15.1424 10.0618C15.1532 10.0876 15.1654 10.1126 15.179 10.1367C15.1916 10.1608 15.2053 10.1841 15.2202 10.2066C15.2354 10.2315 15.2524 10.2555 15.2692 10.2784L15.2719 10.2815C15.2777 10.2899 15.2839 10.298 15.2907 10.3055L15.2979 10.3134C15.1506 10.1328 15.0625 9.90196 15.0476 9.65829ZM15.0449 8.95428C15.0449 8.8724 15.044 8.7895 15.0431 8.70763C15.0412 8.72581 15.0406 8.74416 15.0414 8.76245C15.0431 8.8034 15.044 8.84335 15.0431 8.88229C15.044 8.93418 15.0449 8.98812 15.0449 9.04003C15.0458 9.01112 15.0458 8.98314 15.0458 8.95423L15.0449 8.95428ZM15.0431 9.38869C15.0431 9.27586 15.0449 9.164 15.0449 9.05116C15.0431 9.24489 15.0369 9.4406 15.0467 9.63433C15.0439 9.55244 15.0431 9.47061 15.0431 9.38869ZM15.0431 9.38869C15.0431 9.27586 15.0449 9.164 15.0449 9.05116C15.0431 9.24489 15.0369 9.4406 15.0467 9.63433C15.0439 9.55244 15.0431 9.47061 15.0431 9.38869ZM15.0449 8.95428C15.0449 8.8724 15.044 8.7895 15.0431 8.70763C15.0412 8.72581 15.0406 8.74416 15.0414 8.76245C15.0431 8.8034 15.044 8.84335 15.0431 8.88229C15.044 8.93418 15.0449 8.98812 15.0449 9.04003C15.0458 9.01112 15.0458 8.98314 15.0458 8.95423L15.0449 8.95428ZM15.0476 9.65829C15.0476 9.66828 15.0476 9.67924 15.0485 9.68927C15.0494 9.70629 15.0512 9.72224 15.053 9.73921C15.0575 9.7841 15.0653 9.82851 15.0762 9.87202C15.0789 9.88505 15.0825 9.89699 15.086 9.91001C15.0887 9.91899 15.0905 9.92698 15.0932 9.93499C15.0977 9.94995 15.1031 9.9639 15.1084 9.97887C15.1134 9.99462 15.1194 10.01 15.1263 10.0248C15.1307 10.0376 15.1361 10.05 15.1424 10.0618C15.1532 10.0876 15.1654 10.1126 15.179 10.1367C15.1916 10.1608 15.2053 10.1841 15.2202 10.2066C15.2354 10.2315 15.2524 10.2555 15.2692 10.2784L15.2719 10.2815C15.2777 10.2899 15.2839 10.298 15.2907 10.3055L15.2979 10.3134C15.1506 10.1328 15.0625 9.90196 15.0476 9.65829ZM15.4687 10.4912C15.6993 10.6886 15.9787 10.8019 16.2689 10.8157C15.9794 10.7978 15.7011 10.6849 15.4687 10.4912ZM16.3333 7.09184C16.3258 7.09199 16.3183 7.09267 16.3109 7.09384C16.327 7.09282 16.3422 7.09282 16.3574 7.09282C16.3494 7.09201 16.3414 7.09166 16.3333 7.09184ZM17.1548 7.36544C17.1503 7.36143 17.1459 7.35848 17.1405 7.35447C17.1208 7.33951 17.1012 7.32552 17.0806 7.31253C17.0699 7.30454 17.0583 7.29756 17.0466 7.29055C17.0252 7.2766 17.0028 7.26363 16.9796 7.25163C16.9739 7.24802 16.9679 7.245 16.9617 7.24262C16.9331 7.22667 16.9036 7.21268 16.8732 7.19972C16.8553 7.19173 16.8365 7.18475 16.8177 7.17774C16.7882 7.16582 16.7569 7.15579 16.7256 7.14675C16.7095 7.14177 16.6943 7.13777 16.6782 7.13379C16.6389 7.12378 16.5986 7.11472 16.5584 7.10881C16.528 7.10383 16.4976 7.10082 16.4663 7.09785C16.718 7.12284 16.9599 7.21906 17.1691 7.37743C17.1646 7.37306 17.1598 7.36907 17.1548 7.36544ZM17.6448 8.95523H17.6439C17.6439 8.99417 17.6448 9.03314 17.6457 9.07307C17.6448 9.03314 17.6448 8.99417 17.6448 8.95523ZM17.6412 8.22025C17.6396 8.19179 17.6366 8.16345 17.6322 8.13535C17.6324 8.13298 17.6321 8.1306 17.6313 8.12837C17.6287 8.10844 17.6242 8.08747 17.6197 8.06747C17.6145 8.04002 17.6077 8.01299 17.5992 7.98658C17.5965 7.97659 17.5938 7.96751 17.5902 7.95762C17.5855 7.94125 17.5798 7.92524 17.5732 7.90969C17.5678 7.8957 17.5625 7.8817 17.5561 7.86776C17.5462 7.84576 17.5364 7.82381 17.5257 7.80183C17.5185 7.78789 17.5114 7.7739 17.5033 7.76086C17.4979 7.74963 17.4916 7.73894 17.4846 7.72892C17.4765 7.71493 17.4685 7.70196 17.4595 7.689C17.4535 7.67892 17.4469 7.66925 17.4398 7.66004C17.4347 7.65226 17.4289 7.64493 17.4228 7.63809C17.5531 7.81381 17.6298 8.0314 17.6418 8.2592C17.6499 8.47293 17.6436 8.68666 17.6436 8.90134C17.6457 8.67464 17.6555 8.44695 17.6412 8.22025ZM17.6457 9.07307C17.6457 9.11597 17.6457 9.15997 17.6466 9.2039C17.6482 9.18499 17.6485 9.16596 17.6475 9.147C17.6466 9.12202 17.6457 9.09805 17.6457 9.07307ZM17.6457 9.07307C17.6457 9.11597 17.6457 9.15997 17.6466 9.2039C17.6482 9.18499 17.6485 9.16596 17.6475 9.147C17.6466 9.12202 17.6457 9.09805 17.6457 9.07307ZM17.6412 8.22025C17.6396 8.19179 17.6366 8.16345 17.6322 8.13535C17.6324 8.13298 17.6321 8.1306 17.6313 8.12837C17.6287 8.10844 17.6242 8.08747 17.6197 8.06747C17.6145 8.04002 17.6077 8.01299 17.5992 7.98658C17.5965 7.97659 17.5938 7.96751 17.5902 7.95762C17.5855 7.94125 17.5798 7.92524 17.5732 7.90969C17.5678 7.8957 17.5625 7.8817 17.5561 7.86776C17.5462 7.84576 17.5364 7.82381 17.5257 7.80183C17.5185 7.78789 17.5114 7.7739 17.5033 7.76086C17.4979 7.74963 17.4916 7.73894 17.4846 7.72892C17.4765 7.71493 17.4685 7.70196 17.4595 7.689C17.4535 7.67892 17.4469 7.66925 17.4398 7.66004C17.4347 7.65226 17.4289 7.64493 17.4228 7.63809C17.5531 7.81381 17.6298 8.0314 17.6418 8.2592C17.6499 8.47293 17.6436 8.68666 17.6436 8.90134C17.6457 8.67464 17.6555 8.44695 17.6412 8.22025ZM17.6448 8.95523H17.6439C17.6439 8.99417 17.6448 9.03314 17.6457 9.07307C17.6448 9.03314 17.6448 8.99417 17.6448 8.95523ZM17.1548 7.36544C17.1503 7.36143 17.1459 7.35848 17.1405 7.35447C17.1208 7.33951 17.1012 7.32552 17.0806 7.31253C17.0699 7.30454 17.0583 7.29756 17.0466 7.29055C17.0252 7.2766 17.0028 7.26363 16.9796 7.25163C16.9739 7.24802 16.9679 7.245 16.9617 7.24262C16.9331 7.22667 16.9036 7.21268 16.8732 7.19972C16.8553 7.19173 16.8365 7.18475 16.8177 7.17774C16.7882 7.16582 16.7569 7.15579 16.7256 7.14675C16.7095 7.14177 16.6943 7.13777 16.6782 7.13379C16.6389 7.12378 16.5986 7.11472 16.5584 7.10881C16.528 7.10383 16.4976 7.10082 16.4663 7.09785C16.718 7.12284 16.9599 7.21906 17.1691 7.37743C17.1646 7.37306 17.1598 7.36907 17.1548 7.36544ZM16.3333 7.09184C16.3258 7.09199 16.3183 7.09267 16.3109 7.09384C16.327 7.09282 16.3422 7.09282 16.3574 7.09282C16.3494 7.09201 16.3414 7.09166 16.3333 7.09184ZM15.4687 10.4912C15.6993 10.6886 15.9787 10.8019 16.2689 10.8157C15.9794 10.7978 15.7011 10.6849 15.4687 10.4912ZM15.0476 9.65829C15.0476 9.66828 15.0476 9.67924 15.0485 9.68927C15.0494 9.70629 15.0512 9.72224 15.053 9.73921C15.0575 9.7841 15.0653 9.82851 15.0762 9.87202C15.0789 9.88505 15.0825 9.89699 15.086 9.91001C15.0887 9.91899 15.0905 9.92698 15.0932 9.93499C15.0977 9.94995 15.1031 9.9639 15.1084 9.97887C15.1134 9.99462 15.1194 10.01 15.1263 10.0248C15.1307 10.0376 15.1361 10.05 15.1424 10.0618C15.1532 10.0876 15.1654 10.1126 15.179 10.1367C15.1916 10.1608 15.2053 10.1841 15.2202 10.2066C15.2354 10.2315 15.2524 10.2555 15.2692 10.2784L15.2719 10.2815C15.2777 10.2899 15.2839 10.298 15.2907 10.3055L15.2979 10.3134C15.1506 10.1328 15.0625 9.90196 15.0476 9.65829ZM15.0449 8.95428C15.0449 8.8724 15.044 8.7895 15.0431 8.70763C15.0412 8.72581 15.0406 8.74416 15.0414 8.76245C15.0431 8.8034 15.044 8.84335 15.0431 8.88229C15.044 8.93418 15.0449 8.98812 15.0449 9.04003C15.0458 9.01112 15.0458 8.98314 15.0458 8.95423L15.0449 8.95428ZM15.0431 9.38869C15.0431 9.27586 15.0449 9.164 15.0449 9.05116C15.0431 9.24489 15.0369 9.4406 15.0467 9.63433C15.0439 9.55244 15.0431 9.47061 15.0431 9.38869ZM15.0431 9.38869C15.0431 9.27586 15.0449 9.164 15.0449 9.05116C15.0431 9.24489 15.0369 9.4406 15.0467 9.63433C15.0439 9.55244 15.0431 9.47061 15.0431 9.38869ZM15.0449 8.95428C15.0449 8.8724 15.044 8.7895 15.0431 8.70763C15.0412 8.72581 15.0406 8.74416 15.0414 8.76245C15.0431 8.8034 15.044 8.84335 15.0431 8.88229C15.044 8.93418 15.0449 8.98812 15.0449 9.04003C15.0458 9.01112 15.0458 8.98314 15.0458 8.95423L15.0449 8.95428ZM15.0476 9.65829C15.0476 9.66828 15.0476 9.67924 15.0485 9.68927C15.0494 9.70629 15.0512 9.72224 15.053 9.73921C15.0575 9.7841 15.0653 9.82851 15.0762 9.87202C15.0789 9.88505 15.0825 9.89699 15.086 9.91001C15.0887 9.91899 15.0905 9.92698 15.0932 9.93499C15.0977 9.94995 15.1031 9.9639 15.1084 9.97887C15.1134 9.99462 15.1194 10.01 15.1263 10.0248C15.1307 10.0376 15.1361 10.05 15.1424 10.0618C15.1532 10.0876 15.1654 10.1126 15.179 10.1367C15.1916 10.1608 15.2053 10.1841 15.2202 10.2066C15.2354 10.2315 15.2524 10.2555 15.2692 10.2784L15.2719 10.2815C15.2777 10.2899 15.2839 10.298 15.2907 10.3055L15.2979 10.3134C15.1506 10.1328 15.0625 9.90196 15.0476 9.65829ZM15.4687 10.4912C15.6993 10.6886 15.9787 10.8019 16.2689 10.8157C15.9794 10.7978 15.7011 10.6849 15.4687 10.4912ZM16.3333 7.09184C16.3258 7.09199 16.3183 7.09267 16.3109 7.09384C16.327 7.09282 16.3422 7.09282 16.3574 7.09282C16.3494 7.09201 16.3414 7.09166 16.3333 7.09184ZM17.1548 7.36544C17.1503 7.36143 17.1459 7.35848 17.1405 7.35447C17.1208 7.33951 17.1012 7.32552 17.0806 7.31253C17.0699 7.30454 17.0583 7.29756 17.0466 7.29055C17.0252 7.2766 17.0028 7.26363 16.9796 7.25163C16.9739 7.24802 16.9679 7.245 16.9617 7.24262C16.9331 7.22667 16.9036 7.21268 16.8732 7.19972C16.8553 7.19173 16.8365 7.18475 16.8177 7.17774C16.7882 7.16582 16.7569 7.15579 16.7256 7.14675C16.7095 7.14177 16.6943 7.13777 16.6782 7.13379C16.6389 7.12378 16.5986 7.11472 16.5584 7.10881C16.528 7.10383 16.4976 7.10082 16.4663 7.09785C16.718 7.12284 16.9599 7.21906 17.1691 7.37743C17.1646 7.37306 17.1598 7.36907 17.1548 7.36544ZM17.6448 8.95523H17.6439C17.6439 8.99417 17.6448 9.03314 17.6457 9.07307C17.6448 9.03314 17.6448 8.99417 17.6448 8.95523ZM17.6412 8.22025C17.6396 8.19179 17.6366 8.16345 17.6322 8.13535C17.6324 8.13298 17.6321 8.1306 17.6313 8.12837C17.6287 8.10844 17.6242 8.08747 17.6197 8.06747C17.6145 8.04002 17.6077 8.01299 17.5992 7.98658C17.5965 7.97659 17.5938 7.96751 17.5902 7.95762C17.5855 7.94125 17.5798 7.92524 17.5732 7.90969C17.5678 7.8957 17.5625 7.8817 17.5561 7.86776C17.5462 7.84576 17.5364 7.82381 17.5257 7.80183C17.5185 7.78789 17.5114 7.7739 17.5033 7.76086C17.4979 7.74963 17.4916 7.73894 17.4846 7.72892C17.4765 7.71493 17.4685 7.70196 17.4595 7.689C17.4535 7.67892 17.4469 7.66925 17.4398 7.66004C17.4347 7.65226 17.4289 7.64493 17.4228 7.63809C17.5531 7.81381 17.6298 8.0314 17.6418 8.2592C17.6499 8.47293 17.6436 8.68666 17.6436 8.90134C17.6457 8.67464 17.6555 8.44695 17.6412 8.22025ZM17.6457 9.07307C17.6457 9.11597 17.6457 9.15997 17.6466 9.2039C17.6482 9.18499 17.6485 9.16596 17.6475 9.147C17.6466 9.12202 17.6457 9.09805 17.6457 9.07307ZM17.6457 9.07307C17.6457 9.11597 17.6457 9.15997 17.6466 9.2039C17.6482 9.18499 17.6485 9.16596 17.6475 9.147C17.6466 9.12202 17.6457 9.09805 17.6457 9.07307ZM17.6412 8.22025C17.6396 8.19179 17.6366 8.16345 17.6322 8.13535C17.6324 8.13298 17.6321 8.1306 17.6313 8.12837C17.6287 8.10844 17.6242 8.08747 17.6197 8.06747C17.6145 8.04002 17.6077 8.01299 17.5992 7.98658C17.5965 7.97659 17.5938 7.96751 17.5902 7.95762C17.5855 7.94125 17.5798 7.92524 17.5732 7.90969C17.5678 7.8957 17.5625 7.8817 17.5561 7.86776C17.5462 7.84576 17.5364 7.82381 17.5257 7.80183C17.5185 7.78789 17.5114 7.7739 17.5033 7.76086C17.4979 7.74963 17.4916 7.73894 17.4846 7.72892C17.4765 7.71493 17.4685 7.70196 17.4595 7.689C17.4535 7.67892 17.4469 7.66925 17.4398 7.66004C17.4347 7.65226 17.4289 7.64493 17.4228 7.63809C17.5531 7.81381 17.6298 8.0314 17.6418 8.2592C17.6499 8.47293 17.6436 8.68666 17.6436 8.90134C17.6457 8.67464 17.6555 8.44695 17.6412 8.22025ZM17.6448 8.95523H17.6439C17.6439 8.99417 17.6448 9.03314 17.6457 9.07307C17.6448 9.03314 17.6448 8.99417 17.6448 8.95523ZM17.1548 7.36544C17.1503 7.36143 17.1459 7.35848 17.1405 7.35447C17.1208 7.33951 17.1012 7.32552 17.0806 7.31253C17.0699 7.30454 17.0583 7.29756 17.0466 7.29055C17.0252 7.2766 17.0028 7.26363 16.9796 7.25163C16.9739 7.24802 16.9679 7.245 16.9617 7.24262C16.9331 7.22667 16.9036 7.21268 16.8732 7.19972C16.8553 7.19173 16.8365 7.18475 16.8177 7.17774C16.7882 7.16582 16.7569 7.15579 16.7256 7.14675C16.7095 7.14177 16.6943 7.13777 16.6782 7.13379C16.6389 7.12378 16.5986 7.11472 16.5584 7.10881C16.528 7.10383 16.4976 7.10082 16.4663 7.09785C16.718 7.12284 16.9599 7.21906 17.1691 7.37743C17.1646 7.37306 17.1598 7.36907 17.1548 7.36544ZM16.3333 7.09184C16.3258 7.09199 16.3183 7.09267 16.3109 7.09384C16.327 7.09282 16.3422 7.09282 16.3574 7.09282C16.3494 7.09201 16.3414 7.09166 16.3333 7.09184ZM15.4687 10.4912C15.6993 10.6886 15.9787 10.8019 16.2689 10.8157C15.9794 10.7978 15.7011 10.6849 15.4687 10.4912ZM15.0476 9.65829C15.0476 9.66828 15.0476 9.67924 15.0485 9.68927C15.0494 9.70629 15.0512 9.72224 15.053 9.73921C15.0575 9.7841 15.0653 9.82851 15.0762 9.87202C15.0789 9.88505 15.0825 9.89699 15.086 9.91001C15.0887 9.91899 15.0905 9.92698 15.0932 9.93499C15.0977 9.94995 15.1031 9.9639 15.1084 9.97887C15.1134 9.99462 15.1194 10.01 15.1263 10.0248C15.1307 10.0376 15.1361 10.05 15.1424 10.0618C15.1532 10.0876 15.1654 10.1126 15.179 10.1367C15.1916 10.1608 15.2053 10.1841 15.2202 10.2066C15.2354 10.2315 15.2524 10.2555 15.2692 10.2784L15.2719 10.2815C15.2777 10.2899 15.2839 10.298 15.2907 10.3055L15.2979 10.3134C15.1506 10.1328 15.0625 9.90196 15.0476 9.65829ZM15.0449 8.95428C15.0449 8.8724 15.044 8.7895 15.0431 8.70763C15.0412 8.72581 15.0406 8.74416 15.0414 8.76245C15.0431 8.8034 15.044 8.84335 15.0431 8.88229C15.044 8.93418 15.0449 8.98812 15.0449 9.04003C15.0458 9.01112 15.0458 8.98314 15.0458 8.95423L15.0449 8.95428ZM15.0431 9.38869C15.0431 9.27586 15.0449 9.164 15.0449 9.05116C15.0431 9.24489 15.0369 9.4406 15.0467 9.63433C15.0439 9.55244 15.0431 9.47061 15.0431 9.38869ZM15.0431 9.38869C15.0431 9.27586 15.0449 9.164 15.0449 9.05116C15.0431 9.24489 15.0369 9.4406 15.0467 9.63433C15.0439 9.55244 15.0431 9.47061 15.0431 9.38869ZM15.0449 8.95428C15.0449 8.8724 15.044 8.7895 15.0431 8.70763C15.0412 8.72581 15.0406 8.74416 15.0414 8.76245C15.0431 8.8034 15.044 8.84335 15.0431 8.88229C15.044 8.93418 15.0449 8.98812 15.0449 9.04003C15.0458 9.01112 15.0458 8.98314 15.0458 8.95423L15.0449 8.95428ZM15.0476 9.65829C15.0476 9.66828 15.0476 9.67924 15.0485 9.68927C15.0494 9.70629 15.0512 9.72224 15.053 9.73921C15.0575 9.7841 15.0653 9.82851 15.0762 9.87202C15.0789 9.88505 15.0825 9.89699 15.086 9.91001C15.0887 9.91899 15.0905 9.92698 15.0932 9.93499C15.0977 9.94995 15.1031 9.9639 15.1084 9.97887C15.1134 9.99462 15.1194 10.01 15.1263 10.0248C15.1307 10.0376 15.1361 10.05 15.1424 10.0618C15.1532 10.0876 15.1654 10.1126 15.179 10.1367C15.1916 10.1608 15.2053 10.1841 15.2202 10.2066C15.2354 10.2315 15.2524 10.2555 15.2692 10.2784L15.2719 10.2815C15.2777 10.2899 15.2839 10.298 15.2907 10.3055L15.2979 10.3134C15.1506 10.1328 15.0625 9.90196 15.0476 9.65829ZM15.4687 10.4912C15.6993 10.6886 15.9787 10.8019 16.2689 10.8157C15.9794 10.7978 15.7011 10.6849 15.4687 10.4912ZM16.3333 7.09184C16.3258 7.09199 16.3183 7.09267 16.3109 7.09384C16.327 7.09282 16.3422 7.09282 16.3574 7.09282C16.3494 7.09201 16.3414 7.09166 16.3333 7.09184ZM17.1548 7.36544C17.1503 7.36143 17.1459 7.35848 17.1405 7.35447C17.1208 7.33951 17.1012 7.32552 17.0806 7.31253C17.0699 7.30454 17.0583 7.29756 17.0466 7.29055C17.0252 7.2766 17.0028 7.26363 16.9796 7.25163C16.9739 7.24802 16.9679 7.245 16.9617 7.24262C16.9331 7.22667 16.9036 7.21268 16.8732 7.19972C16.8553 7.19173 16.8365 7.18475 16.8177 7.17774C16.7882 7.16582 16.7569 7.15579 16.7256 7.14675C16.7095 7.14177 16.6943 7.13777 16.6782 7.13379C16.6389 7.12378 16.5986 7.11472 16.5584 7.10881C16.528 7.10383 16.4976 7.10082 16.4663 7.09785C16.718 7.12284 16.9599 7.21906 17.1691 7.37743C17.1646 7.37306 17.1598 7.36907 17.1548 7.36544ZM17.6448 8.95523H17.6439C17.6439 8.99417 17.6448 9.03314 17.6457 9.07307C17.6448 9.03314 17.6448 8.99417 17.6448 8.95523ZM17.6412 8.22025C17.6396 8.19179 17.6366 8.16345 17.6322 8.13535C17.6324 8.13298 17.6321 8.1306 17.6313 8.12837C17.6287 8.10844 17.6242 8.08747 17.6197 8.06747C17.6145 8.04002 17.6077 8.01299 17.5992 7.98658C17.5965 7.97659 17.5938 7.96751 17.5902 7.95762C17.5855 7.94125 17.5798 7.92524 17.5732 7.90969C17.5678 7.8957 17.5625 7.8817 17.5561 7.86776C17.5462 7.84576 17.5364 7.82381 17.5257 7.80183C17.5185 7.78789 17.5114 7.7739 17.5033 7.76086C17.4979 7.74963 17.4916 7.73894 17.4846 7.72892C17.4765 7.71493 17.4685 7.70196 17.4595 7.689C17.4535 7.67892 17.4469 7.66925 17.4398 7.66004C17.4347 7.65226 17.4289 7.64493 17.4228 7.63809C17.5531 7.81381 17.6298 8.0314 17.6418 8.2592C17.6499 8.47293 17.6436 8.68666 17.6436 8.90134C17.6457 8.67464 17.6555 8.44695 17.6412 8.22025ZM17.6457 9.07307C17.6457 9.11597 17.6457 9.15997 17.6466 9.2039C17.6482 9.18499 17.6485 9.16596 17.6475 9.147C17.6466 9.12202 17.6457 9.09805 17.6457 9.07307ZM17.6457 9.07307C17.6457 9.11597 17.6457 9.15997 17.6466 9.2039C17.6482 9.18499 17.6485 9.16596 17.6475 9.147C17.6466 9.12202 17.6457 9.09805 17.6457 9.07307ZM17.6412 8.22025C17.6396 8.19179 17.6366 8.16345 17.6322 8.13535C17.6324 8.13298 17.6321 8.1306 17.6313 8.12837C17.6287 8.10844 17.6242 8.08747 17.6197 8.06747C17.6145 8.04002 17.6077 8.01299 17.5992 7.98658C17.5965 7.97659 17.5938 7.96751 17.5902 7.95762C17.5855 7.94125 17.5798 7.92524 17.5732 7.90969C17.5678 7.8957 17.5625 7.8817 17.5561 7.86776C17.5462 7.84576 17.5364 7.82381 17.5257 7.80183C17.5185 7.78789 17.5114 7.7739 17.5033 7.76086C17.4979 7.74963 17.4916 7.73894 17.4846 7.72892C17.4765 7.71493 17.4685 7.70196 17.4595 7.689C17.4535 7.67892 17.4469 7.66925 17.4398 7.66004C17.4347 7.65226 17.4289 7.64493 17.4228 7.63809C17.5531 7.81381 17.6298 8.0314 17.6418 8.2592C17.6499 8.47293 17.6436 8.68666 17.6436 8.90134C17.6457 8.67464 17.6555 8.44695 17.6412 8.22025ZM17.6448 8.95523H17.6439C17.6439 8.99417 17.6448 9.03314 17.6457 9.07307C17.6448 9.03314 17.6448 8.99417 17.6448 8.95523ZM17.1548 7.36544C17.1503 7.36143 17.1459 7.35848 17.1405 7.35447C17.1208 7.33951 17.1012 7.32552 17.0806 7.31253C17.0699 7.30454 17.0583 7.29756 17.0466 7.29055C17.0252 7.2766 17.0028 7.26363 16.9796 7.25163C16.9739 7.24802 16.9679 7.245 16.9617 7.24262C16.9331 7.22667 16.9036 7.21268 16.8732 7.19972C16.8553 7.19173 16.8365 7.18475 16.8177 7.17774C16.7882 7.16582 16.7569 7.15579 16.7256 7.14675C16.7095 7.14177 16.6943 7.13777 16.6782 7.13379C16.6389 7.12378 16.5986 7.11472 16.5584 7.10881C16.528 7.10383 16.4976 7.10082 16.4663 7.09785C16.718 7.12284 16.9599 7.21906 17.1691 7.37743C17.1646 7.37306 17.1598 7.36907 17.1548 7.36544ZM16.3333 7.09184C16.3258 7.09199 16.3183 7.09267 16.3109 7.09384C16.327 7.09282 16.3422 7.09282 16.3574 7.09282C16.3494 7.09201 16.3414 7.09166 16.3333 7.09184ZM15.4687 10.4912C15.6993 10.6886 15.9787 10.8019 16.2689 10.8157C15.9794 10.7978 15.7011 10.6849 15.4687 10.4912ZM15.0476 9.65829C15.0476 9.66828 15.0476 9.67924 15.0485 9.68927C15.0494 9.70629 15.0512 9.72224 15.053 9.73921C15.0575 9.7841 15.0653 9.82851 15.0762 9.87202C15.0789 9.88505 15.0825 9.89699 15.086 9.91001C15.0887 9.91899 15.0905 9.92698 15.0932 9.93499C15.0977 9.94995 15.1031 9.9639 15.1084 9.97887C15.1134 9.99462 15.1194 10.01 15.1263 10.0248C15.1307 10.0376 15.1361 10.05 15.1424 10.0618C15.1532 10.0876 15.1654 10.1126 15.179 10.1367C15.1916 10.1608 15.2053 10.1841 15.2202 10.2066C15.2354 10.2315 15.2524 10.2555 15.2692 10.2784L15.2719 10.2815C15.2777 10.2899 15.2839 10.298 15.2907 10.3055L15.2979 10.3134C15.1506 10.1328 15.0625 9.90196 15.0476 9.65829ZM15.0449 8.95428C15.0449 8.8724 15.044 8.7895 15.0431 8.70763C15.0412 8.72581 15.0406 8.74416 15.0414 8.76245C15.0431 8.8034 15.044 8.84335 15.0431 8.88229C15.044 8.93418 15.0449 8.98812 15.0449 9.04003C15.0458 9.01112 15.0458 8.98314 15.0458 8.95423L15.0449 8.95428ZM15.0431 9.38869C15.0431 9.27586 15.0449 9.164 15.0449 9.05116C15.0431 9.24489 15.0369 9.4406 15.0467 9.63433C15.0439 9.55244 15.0431 9.47061 15.0431 9.38869ZM15.0431 9.38869C15.0431 9.27586 15.0449 9.164 15.0449 9.05116C15.0431 9.24489 15.0369 9.4406 15.0467 9.63433C15.0439 9.55244 15.0431 9.47061 15.0431 9.38869ZM15.0449 8.95428C15.0449 8.8724 15.044 8.7895 15.0431 8.70763C15.0412 8.72581 15.0406 8.74416 15.0414 8.76245C15.0431 8.8034 15.044 8.84335 15.0431 8.88229C15.044 8.93418 15.0449 8.98812 15.0449 9.04003C15.0458 9.01112 15.0458 8.98314 15.0458 8.95423L15.0449 8.95428ZM15.0476 9.65829C15.0476 9.66828 15.0476 9.67924 15.0485 9.68927C15.0494 9.70629 15.0512 9.72224 15.053 9.73921C15.0575 9.7841 15.0653 9.82851 15.0762 9.87202C15.0789 9.88505 15.0825 9.89699 15.086 9.91001C15.0887 9.91899 15.0905 9.92698 15.0932 9.93499C15.0977 9.94995 15.1031 9.9639 15.1084 9.97887C15.1134 9.99462 15.1194 10.01 15.1263 10.0248C15.1307 10.0376 15.1361 10.05 15.1424 10.0618C15.1532 10.0876 15.1654 10.1126 15.179 10.1367C15.1916 10.1608 15.2053 10.1841 15.2202 10.2066C15.2354 10.2315 15.2524 10.2555 15.2692 10.2784L15.2719 10.2815C15.2777 10.2899 15.2839 10.298 15.2907 10.3055L15.2979 10.3134C15.1506 10.1328 15.0625 9.90196 15.0476 9.65829ZM15.4687 10.4912C15.6993 10.6886 15.9787 10.8019 16.2689 10.8157C15.9794 10.7978 15.7011 10.6849 15.4687 10.4912ZM16.3333 7.09184C16.3258 7.09199 16.3183 7.09267 16.3109 7.09384C16.327 7.09282 16.3422 7.09282 16.3574 7.09282C16.3494 7.09201 16.3414 7.09166 16.3333 7.09184ZM17.1548 7.36544C17.1503 7.36143 17.1459 7.35848 17.1405 7.35447C17.1208 7.33951 17.1012 7.32552 17.0806 7.31253C17.0699 7.30454 17.0583 7.29756 17.0466 7.29055C17.0252 7.2766 17.0028 7.26363 16.9796 7.25163C16.9739 7.24802 16.9679 7.245 16.9617 7.24262C16.9331 7.22667 16.9036 7.21268 16.8732 7.19972C16.8553 7.19173 16.8365 7.18475 16.8177 7.17774C16.7882 7.16582 16.7569 7.15579 16.7256 7.14675C16.7095 7.14177 16.6943 7.13777 16.6782 7.13379C16.6389 7.12378 16.5986 7.11472 16.5584 7.10881C16.528 7.10383 16.4976 7.10082 16.4663 7.09785C16.718 7.12284 16.9599 7.21906 17.1691 7.37743C17.1646 7.37306 17.1598 7.36907 17.1548 7.36544ZM17.6448 8.95523H17.6439C17.6439 8.99417 17.6448 9.03314 17.6457 9.07307C17.6448 9.03314 17.6448 8.99417 17.6448 8.95523ZM17.6412 8.22025C17.6396 8.19179 17.6366 8.16345 17.6322 8.13535C17.6324 8.13298 17.6321 8.1306 17.6313 8.12837C17.6287 8.10844 17.6242 8.08747 17.6197 8.06747C17.6145 8.04002 17.6077 8.01299 17.5992 7.98658C17.5965 7.97659 17.5938 7.96751 17.5902 7.95762C17.5855 7.94125 17.5798 7.92524 17.5732 7.90969C17.5678 7.8957 17.5625 7.8817 17.5561 7.86776C17.5462 7.84576 17.5364 7.82381 17.5257 7.80183C17.5185 7.78789 17.5114 7.7739 17.5033 7.76086C17.4979 7.74963 17.4916 7.73894 17.4846 7.72892C17.4765 7.71493 17.4685 7.70196 17.4595 7.689C17.4535 7.67892 17.4469 7.66925 17.4398 7.66004C17.4347 7.65226 17.4289 7.64493 17.4228 7.63809C17.5531 7.81381 17.6298 8.0314 17.6418 8.2592C17.6499 8.47293 17.6436 8.68666 17.6436 8.90134C17.6457 8.67464 17.6555 8.44695 17.6412 8.22025ZM17.6457 9.07307C17.6457 9.11597 17.6457 9.15997 17.6466 9.2039C17.6482 9.18499 17.6485 9.16596 17.6475 9.147C17.6466 9.12202 17.6457 9.09805 17.6457 9.07307ZM17.6466 9.2039C17.6482 9.18499 17.6485 9.16596 17.6475 9.147C17.6466 9.12202 17.6457 9.09805 17.6457 9.07307C17.6457 9.11597 17.6457 9.15997 17.6466 9.2039ZM17.644 8.90136C17.6457 8.67467 17.6555 8.44695 17.6412 8.22025C17.6396 8.19179 17.6366 8.16345 17.6322 8.13535C17.6324 8.13298 17.6321 8.1306 17.6313 8.12837C17.6287 8.10844 17.6242 8.08747 17.6197 8.06747C17.6145 8.04002 17.6077 8.01299 17.5992 7.98658C17.5965 7.97659 17.5938 7.96751 17.5902 7.95762C17.5855 7.94125 17.5798 7.92524 17.5732 7.90969C17.5678 7.8957 17.5625 7.8817 17.5561 7.86776C17.5462 7.84576 17.5364 7.82381 17.5257 7.80183C17.5185 7.78789 17.5114 7.7739 17.5033 7.76086C17.4979 7.74963 17.4916 7.73894 17.4846 7.72892C17.4765 7.71493 17.4685 7.70196 17.4595 7.689C17.4535 7.67892 17.4469 7.66925 17.4398 7.66004C17.4347 7.65226 17.4289 7.64493 17.4228 7.63809C17.5531 7.81381 17.6298 8.0314 17.6418 8.2592C17.65 8.47291 17.644 8.68668 17.644 8.90136ZM17.6439 8.95523C17.6439 8.99417 17.6448 9.03314 17.6457 9.07307C17.6448 9.03314 17.6448 8.99417 17.6448 8.95523H17.6439ZM17.1405 7.35447C17.1208 7.33951 17.1012 7.32552 17.0806 7.31253C17.0699 7.30454 17.0583 7.29756 17.0466 7.29055C17.0252 7.2766 17.0028 7.26363 16.9796 7.25163C16.9739 7.24802 16.9679 7.245 16.9617 7.24262C16.9331 7.22667 16.9036 7.21268 16.8732 7.19972C16.8553 7.19173 16.8365 7.18475 16.8177 7.17774C16.7882 7.16582 16.7569 7.15579 16.7256 7.14675C16.7095 7.14177 16.6943 7.13777 16.6782 7.13379C16.6389 7.12378 16.5986 7.11472 16.5584 7.10881C16.528 7.10383 16.4976 7.10082 16.4663 7.09785C16.718 7.12284 16.9599 7.21906 17.1691 7.37743C17.1646 7.37306 17.1598 7.36907 17.1548 7.36544C17.1503 7.36143 17.1459 7.35848 17.1405 7.35447ZM16.3109 7.09384C16.327 7.09282 16.3422 7.09282 16.3574 7.09282C16.3494 7.09201 16.3414 7.09166 16.3333 7.09184C16.3258 7.09199 16.3183 7.09267 16.3109 7.09384ZM16.2689 10.8157C15.9794 10.7978 15.7011 10.6849 15.4687 10.4912C15.6993 10.6886 15.9787 10.8019 16.2689 10.8157ZM15.0485 9.68927C15.0494 9.70629 15.0512 9.72224 15.053 9.73921C15.0575 9.7841 15.0653 9.82851 15.0762 9.87202C15.0789 9.88505 15.0825 9.89699 15.086 9.91001C15.0887 9.91899 15.0905 9.92698 15.0932 9.93499C15.0977 9.94995 15.1031 9.9639 15.1084 9.97887C15.1134 9.99462 15.1194 10.01 15.1263 10.0248C15.1307 10.0376 15.1361 10.05 15.1424 10.0618C15.1532 10.0876 15.1654 10.1126 15.179 10.1367C15.1916 10.1608 15.2053 10.1841 15.2202 10.2066C15.2354 10.2315 15.2524 10.2555 15.2692 10.2784L15.2719 10.2815C15.2777 10.2899 15.2839 10.298 15.2907 10.3055L15.2979 10.3134C15.1506 10.1328 15.0625 9.90196 15.0476 9.65829C15.0476 9.66828 15.0476 9.67924 15.0485 9.68927ZM15.0449 9.04003C15.0458 9.01112 15.0458 8.98314 15.0458 8.95423L15.0449 8.95428C15.0449 8.8724 15.044 8.7895 15.0431 8.70763C15.0412 8.72581 15.0406 8.74416 15.0414 8.76245C15.0431 8.8034 15.044 8.84335 15.0431 8.88229C15.044 8.93418 15.0449 8.98812 15.0449 9.04003ZM15.0449 9.05116C15.0431 9.24489 15.0369 9.4406 15.0467 9.63433C15.0439 9.55244 15.0431 9.47061 15.0431 9.38869C15.0431 9.27586 15.0449 9.164 15.0449 9.05116ZM17.6466 9.2039C17.6482 9.18499 17.6485 9.16596 17.6475 9.147C17.6466 9.12202 17.6457 9.09805 17.6457 9.07307C17.6457 9.11597 17.6457 9.15997 17.6466 9.2039ZM17.644 8.90136C17.6457 8.67467 17.6555 8.44695 17.6412 8.22025C17.6396 8.19179 17.6366 8.16345 17.6322 8.13535C17.6324 8.13298 17.6321 8.1306 17.6313 8.12837C17.6287 8.10844 17.6242 8.08747 17.6197 8.06747C17.6145 8.04002 17.6077 8.01299 17.5992 7.98658C17.5965 7.97659 17.5938 7.96751 17.5902 7.95762C17.5855 7.94125 17.5798 7.92524 17.5732 7.90969C17.5678 7.8957 17.5625 7.8817 17.5561 7.86776C17.5462 7.84576 17.5364 7.82381 17.5257 7.80183C17.5185 7.78789 17.5114 7.7739 17.5033 7.76086C17.4979 7.74963 17.4916 7.73894 17.4846 7.72892C17.4765 7.71493 17.4685 7.70196 17.4595 7.689C17.4535 7.67892 17.4469 7.66925 17.4398 7.66004C17.4347 7.65226 17.4289 7.64493 17.4228 7.63809C17.5531 7.81381 17.6298 8.0314 17.6418 8.2592C17.65 8.47291 17.644 8.68668 17.644 8.90136ZM17.6439 8.95523C17.6439 8.99417 17.6448 9.03314 17.6457 9.07307C17.6448 9.03314 17.6448 8.99417 17.6448 8.95523H17.6439ZM17.1405 7.35447C17.1208 7.33951 17.1012 7.32552 17.0806 7.31253C17.0699 7.30454 17.0583 7.29756 17.0466 7.29055C17.0252 7.2766 17.0028 7.26363 16.9796 7.25163C16.9739 7.24802 16.9679 7.245 16.9617 7.24262C16.9331 7.22667 16.9036 7.21268 16.8732 7.19972C16.8553 7.19173 16.8365 7.18475 16.8177 7.17774C16.7882 7.16582 16.7569 7.15579 16.7256 7.14675C16.7095 7.14177 16.6943 7.13777 16.6782 7.13379C16.6389 7.12378 16.5986 7.11472 16.5584 7.10881C16.528 7.10383 16.4976 7.10082 16.4663 7.09785C16.718 7.12284 16.9599 7.21906 17.1691 7.37743C17.1646 7.37306 17.1598 7.36907 17.1548 7.36544C17.1503 7.36143 17.1459 7.35848 17.1405 7.35447ZM16.3109 7.09384C16.327 7.09282 16.3422 7.09282 16.3574 7.09282C16.3494 7.09201 16.3414 7.09166 16.3333 7.09184C16.3258 7.09199 16.3183 7.09267 16.3109 7.09384ZM16.2689 10.8157C15.9794 10.7978 15.7011 10.6849 15.4687 10.4912C15.6993 10.6886 15.9787 10.8019 16.2689 10.8157ZM15.0485 9.68927C15.0494 9.70629 15.0512 9.72224 15.053 9.73921C15.0575 9.7841 15.0653 9.82851 15.0762 9.87202C15.0789 9.88505 15.0825 9.89699 15.086 9.91001C15.0887 9.91899 15.0905 9.92698 15.0932 9.93499C15.0977 9.94995 15.1031 9.9639 15.1084 9.97887C15.1134 9.99462 15.1194 10.01 15.1263 10.0248C15.1307 10.0376 15.1361 10.05 15.1424 10.0618C15.1532 10.0876 15.1654 10.1126 15.179 10.1367C15.1916 10.1608 15.2053 10.1841 15.2202 10.2066C15.2354 10.2315 15.2524 10.2555 15.2692 10.2784L15.2719 10.2815C15.2777 10.2899 15.2839 10.298 15.2907 10.3055L15.2979 10.3134C15.1506 10.1328 15.0625 9.90196 15.0476 9.65829C15.0476 9.66828 15.0476 9.67924 15.0485 9.68927ZM15.0449 9.04003C15.0458 9.01112 15.0458 8.98314 15.0458 8.95423L15.0449 8.95428C15.0449 8.8724 15.044 8.7895 15.0431 8.70763C15.0412 8.72581 15.0406 8.74416 15.0414 8.76245C15.0431 8.8034 15.044 8.84335 15.0431 8.88229C15.044 8.93418 15.0449 8.98812 15.0449 9.04003ZM15.0449 9.05116C15.0431 9.24489 15.0369 9.4406 15.0467 9.63433C15.0439 9.55244 15.0431 9.47061 15.0431 9.38869C15.0431 9.27586 15.0449 9.164 15.0449 9.05116ZM15.0431 9.38869C15.0431 9.27586 15.0449 9.164 15.0449 9.05116C15.0431 9.24489 15.0369 9.4406 15.0467 9.63433C15.0439 9.55244 15.0431 9.47061 15.0431 9.38869ZM15.0449 8.95428C15.0449 8.8724 15.044 8.7895 15.0431 8.70763C15.0412 8.72581 15.0406 8.74416 15.0414 8.76245C15.0431 8.8034 15.044 8.84335 15.0431 8.88229C15.044 8.93418 15.0449 8.98812 15.0449 9.04003C15.0458 9.01112 15.0458 8.98314 15.0458 8.95423L15.0449 8.95428ZM15.0476 9.65829C15.0476 9.66828 15.0476 9.67924 15.0485 9.68927C15.0494 9.70629 15.0512 9.72224 15.053 9.73921C15.0575 9.7841 15.0653 9.82851 15.0762 9.87202C15.0789 9.88505 15.0825 9.89699 15.086 9.91001C15.0887 9.91899 15.0905 9.92698 15.0932 9.93499C15.0977 9.94995 15.1031 9.9639 15.1084 9.97887C15.1134 9.99462 15.1194 10.01 15.1263 10.0248C15.1307 10.0376 15.1361 10.05 15.1424 10.0618C15.1532 10.0876 15.1654 10.1126 15.179 10.1367C15.1916 10.1608 15.2053 10.1841 15.2202 10.2066C15.2354 10.2315 15.2524 10.2555 15.2692 10.2784L15.2719 10.2815C15.2777 10.2899 15.2839 10.298 15.2907 10.3055L15.2979 10.3134C15.1506 10.1328 15.0625 9.90196 15.0476 9.65829ZM15.4687 10.4912C15.6993 10.6886 15.9787 10.8019 16.2689 10.8157C15.9794 10.7978 15.7011 10.6849 15.4687 10.4912ZM16.3333 7.09184C16.3258 7.09199 16.3183 7.09267 16.3109 7.09384C16.327 7.09282 16.3422 7.09282 16.3574 7.09282C16.3494 7.09201 16.3414 7.09166 16.3333 7.09184ZM17.1548 7.36544C17.1503 7.36143 17.1459 7.35848 17.1405 7.35447C17.1208 7.33951 17.1012 7.32552 17.0806 7.31253C17.0699 7.30454 17.0583 7.29756 17.0466 7.29055C17.0252 7.2766 17.0028 7.26363 16.9796 7.25163C16.9739 7.24802 16.9679 7.245 16.9617 7.24262C16.9331 7.22667 16.9036 7.21268 16.8732 7.19972C16.8553 7.19173 16.8365 7.18475 16.8177 7.17774C16.7882 7.16582 16.7569 7.15579 16.7256 7.14675C16.7095 7.14177 16.6943 7.13777 16.6782 7.13379C16.6389 7.12378 16.5986 7.11472 16.5584 7.10881C16.528 7.10383 16.4976 7.10082 16.4663 7.09785C16.718 7.12284 16.9599 7.21906 17.1691 7.37743C17.1646 7.37306 17.1598 7.36907 17.1548 7.36544ZM17.6448 8.95523H17.6439C17.6439 8.99417 17.6448 9.03314 17.6457 9.07307C17.6448 9.03314 17.6448 8.99417 17.6448 8.95523ZM17.6412 8.22025C17.6396 8.19179 17.6366 8.16345 17.6322 8.13535C17.6324 8.13298 17.6321 8.1306 17.6313 8.12837C17.6287 8.10844 17.6242 8.08747 17.6197 8.06747C17.6145 8.04002 17.6077 8.01299 17.5992 7.98658C17.5965 7.97659 17.5938 7.96751 17.5902 7.95762C17.5855 7.94125 17.5798 7.92524 17.5732 7.90969C17.5678 7.8957 17.5625 7.8817 17.5561 7.86776C17.5462 7.84576 17.5364 7.82381 17.5257 7.80183C17.5185 7.78789 17.5114 7.7739 17.5033 7.76086C17.4979 7.74963 17.4916 7.73894 17.4846 7.72892C17.4765 7.71493 17.4685 7.70196 17.4595 7.689C17.4535 7.67892 17.4469 7.66925 17.4398 7.66004C17.4347 7.65226 17.4289 7.64493 17.4228 7.63809C17.5531 7.81381 17.6298 8.0314 17.6418 8.2592C17.6499 8.47293 17.6436 8.68666 17.6436 8.90134C17.6457 8.67464 17.6555 8.44695 17.6412 8.22025ZM17.6457 9.07307C17.6457 9.11597 17.6457 9.15997 17.6466 9.2039C17.6482 9.18499 17.6485 9.16596 17.6475 9.147C17.6466 9.12202 17.6457 9.09805 17.6457 9.07307ZM17.6457 9.07307C17.6457 9.11597 17.6457 9.15997 17.6466 9.2039C17.6482 9.18499 17.6485 9.16596 17.6475 9.147C17.6466 9.12202 17.6457 9.09805 17.6457 9.07307ZM17.6412 8.22025C17.6396 8.19179 17.6366 8.16345 17.6322 8.13535C17.6324 8.13298 17.6321 8.1306 17.6313 8.12837C17.6287 8.10844 17.6242 8.08747 17.6197 8.06747C17.6145 8.04002 17.6077 8.01299 17.5992 7.98658C17.5965 7.97659 17.5938 7.96751 17.5902 7.95762C17.5855 7.94125 17.5798 7.92524 17.5732 7.90969C17.5678 7.8957 17.5625 7.8817 17.5561 7.86776C17.5462 7.84576 17.5364 7.82381 17.5257 7.80183C17.5185 7.78789 17.5114 7.7739 17.5033 7.76086C17.4979 7.74963 17.4916 7.73894 17.4846 7.72892C17.4765 7.71493 17.4685 7.70196 17.4595 7.689C17.4535 7.67892 17.4469 7.66925 17.4398 7.66004C17.4347 7.65226 17.4289 7.64493 17.4228 7.63809C17.5531 7.81381 17.6298 8.0314 17.6418 8.2592C17.6499 8.47293 17.6436 8.68666 17.6436 8.90134C17.6457 8.67464 17.6555 8.44695 17.6412 8.22025ZM17.6448 8.95523H17.6439C17.6439 8.99417 17.6448 9.03314 17.6457 9.07307C17.6448 9.03314 17.6448 8.99417 17.6448 8.95523ZM17.1548 7.36544C17.1503 7.36143 17.1459 7.35848 17.1405 7.35447C17.1208 7.33951 17.1012 7.32552 17.0806 7.31253C17.0699 7.30454 17.0583 7.29756 17.0466 7.29055C17.0252 7.2766 17.0028 7.26363 16.9796 7.25163C16.9739 7.24802 16.9679 7.245 16.9617 7.24262C16.9331 7.22667 16.9036 7.21268 16.8732 7.19972C16.8553 7.19173 16.8365 7.18475 16.8177 7.17774C16.7882 7.16582 16.7569 7.15579 16.7256 7.14675C16.7095 7.14177 16.6943 7.13777 16.6782 7.13379C16.6389 7.12378 16.5986 7.11472 16.5584 7.10881C16.528 7.10383 16.4976 7.10082 16.4663 7.09785C16.718 7.12284 16.9599 7.21906 17.1691 7.37743C17.1646 7.37306 17.1598 7.36907 17.1548 7.36544ZM16.3333 7.09184C16.3258 7.09199 16.3183 7.09267 16.3109 7.09384C16.327 7.09282 16.3422 7.09282 16.3574 7.09282C16.3494 7.09201 16.3414 7.09166 16.3333 7.09184ZM15.4687 10.4912C15.6993 10.6886 15.9787 10.8019 16.2689 10.8157C15.9794 10.7978 15.7011 10.6849 15.4687 10.4912ZM15.0476 9.65829C15.0476 9.66828 15.0476 9.67924 15.0485 9.68927C15.0494 9.70629 15.0512 9.72224 15.053 9.73921C15.0575 9.7841 15.0653 9.82851 15.0762 9.87202C15.0789 9.88505 15.0825 9.89699 15.086 9.91001C15.0887 9.91899 15.0905 9.92698 15.0932 9.93499C15.0977 9.94995 15.1031 9.9639 15.1084 9.97887C15.1134 9.99462 15.1194 10.01 15.1263 10.0248C15.1307 10.0376 15.1361 10.05 15.1424 10.0618C15.1532 10.0876 15.1654 10.1126 15.179 10.1367C15.1916 10.1608 15.2053 10.1841 15.2202 10.2066C15.2354 10.2315 15.2524 10.2555 15.2692 10.2784L15.2719 10.2815C15.2777 10.2899 15.2839 10.298 15.2907 10.3055L15.2979 10.3134C15.1506 10.1328 15.0625 9.90196 15.0476 9.65829ZM15.0449 8.95428C15.0449 8.8724 15.044 8.7895 15.0431 8.70763C15.0412 8.72581 15.0406 8.74416 15.0414 8.76245C15.0431 8.8034 15.044 8.84335 15.0431 8.88229C15.044 8.93418 15.0449 8.98812 15.0449 9.04003C15.0458 9.01112 15.0458 8.98314 15.0458 8.95423L15.0449 8.95428ZM15.0431 9.38869C15.0431 9.27586 15.0449 9.164 15.0449 9.05116C15.0431 9.24489 15.0369 9.4406 15.0467 9.63433C15.0439 9.55244 15.0431 9.47061 15.0431 9.38869ZM15.0431 9.38869C15.0431 9.27586 15.0449 9.164 15.0449 9.05116C15.0431 9.24489 15.0369 9.4406 15.0467 9.63433C15.0439 9.55244 15.0431 9.47061 15.0431 9.38869ZM15.0449 8.95428C15.0449 8.8724 15.044 8.7895 15.0431 8.70763C15.0412 8.72581 15.0406 8.74416 15.0414 8.76245C15.0431 8.8034 15.044 8.84335 15.0431 8.88229C15.044 8.93418 15.0449 8.98812 15.0449 9.04003C15.0458 9.01112 15.0458 8.98314 15.0458 8.95423L15.0449 8.95428ZM15.0476 9.65829C15.0476 9.66828 15.0476 9.67924 15.0485 9.68927C15.0494 9.70629 15.0512 9.72224 15.053 9.73921C15.0575 9.7841 15.0653 9.82851 15.0762 9.87202C15.0789 9.88505 15.0825 9.89699 15.086 9.91001C15.0887 9.91899 15.0905 9.92698 15.0932 9.93499C15.0977 9.94995 15.1031 9.9639 15.1084 9.97887C15.1134 9.99462 15.1194 10.01 15.1263 10.0248C15.1307 10.0376 15.1361 10.05 15.1424 10.0618C15.1532 10.0876 15.1654 10.1126 15.179 10.1367C15.1916 10.1608 15.2053 10.1841 15.2202 10.2066C15.2354 10.2315 15.2524 10.2555 15.2692 10.2784L15.2719 10.2815C15.2777 10.2899 15.2839 10.298 15.2907 10.3055L15.2979 10.3134C15.1506 10.1328 15.0625 9.90196 15.0476 9.65829ZM15.4687 10.4912C15.6993 10.6886 15.9787 10.8019 16.2689 10.8157C15.9794 10.7978 15.7011 10.6849 15.4687 10.4912ZM16.3333 7.09184C16.3258 7.09199 16.3183 7.09267 16.3109 7.09384C16.327 7.09282 16.3422 7.09282 16.3574 7.09282C16.3494 7.09201 16.3414 7.09166 16.3333 7.09184ZM17.1548 7.36544C17.1503 7.36143 17.1459 7.35848 17.1405 7.35447C17.1208 7.33951 17.1012 7.32552 17.0806 7.31253C17.0699 7.30454 17.0583 7.29756 17.0466 7.29055C17.0252 7.2766 17.0028 7.26363 16.9796 7.25163C16.9739 7.24802 16.9679 7.245 16.9617 7.24262C16.9331 7.22667 16.9036 7.21268 16.8732 7.19972C16.8553 7.19173 16.8365 7.18475 16.8177 7.17774C16.7882 7.16582 16.7569 7.15579 16.7256 7.14675C16.7095 7.14177 16.6943 7.13777 16.6782 7.13379C16.6389 7.12378 16.5986 7.11472 16.5584 7.10881C16.528 7.10383 16.4976 7.10082 16.4663 7.09785C16.718 7.12284 16.9599 7.21906 17.1691 7.37743C17.1646 7.37306 17.1598 7.36907 17.1548 7.36544ZM17.6448 8.95523H17.6439C17.6439 8.99417 17.6448 9.03314 17.6457 9.07307C17.6448 9.03314 17.6448 8.99417 17.6448 8.95523ZM17.6412 8.22025C17.6396 8.19179 17.6366 8.16345 17.6322 8.13535C17.6324 8.13298 17.6321 8.1306 17.6313 8.12837C17.6287 8.10844 17.6242 8.08747 17.6197 8.06747C17.6145 8.04002 17.6077 8.01299 17.5992 7.98658C17.5965 7.97659 17.5938 7.96751 17.5902 7.95762C17.5855 7.94125 17.5798 7.92524 17.5732 7.90969C17.5678 7.8957 17.5625 7.8817 17.5561 7.86776C17.5462 7.84576 17.5364 7.82381 17.5257 7.80183C17.5185 7.78789 17.5114 7.7739 17.5033 7.76086C17.4979 7.74963 17.4916 7.73894 17.4846 7.72892C17.4765 7.71493 17.4685 7.70196 17.4595 7.689C17.4535 7.67892 17.4469 7.66925 17.4398 7.66004C17.4347 7.65226 17.4289 7.64493 17.4228 7.63809C17.5531 7.81381 17.6298 8.0314 17.6418 8.2592C17.6499 8.47293 17.6436 8.68666 17.6436 8.90134C17.6457 8.67464 17.6555 8.44695 17.6412 8.22025ZM17.6457 9.07307C17.6457 9.11597 17.6457 9.15997 17.6466 9.2039C17.6482 9.18499 17.6485 9.16596 17.6475 9.147C17.6466 9.12202 17.6457 9.09805 17.6457 9.07307ZM17.6457 9.07307C17.6457 9.11597 17.6457 9.15997 17.6466 9.2039C17.6482 9.18499 17.6485 9.16596 17.6475 9.147C17.6466 9.12202 17.6457 9.09805 17.6457 9.07307ZM17.6412 8.22025C17.6396 8.19179 17.6366 8.16345 17.6322 8.13535C17.6324 8.13298 17.6321 8.1306 17.6313 8.12837C17.6287 8.10844 17.6242 8.08747 17.6197 8.06747C17.6145 8.04002 17.6077 8.01299 17.5992 7.98658C17.5965 7.97659 17.5938 7.96751 17.5902 7.95762C17.5855 7.94125 17.5798 7.92524 17.5732 7.90969C17.5678 7.8957 17.5625 7.8817 17.5561 7.86776C17.5462 7.84576 17.5364 7.82381 17.5257 7.80183C17.5185 7.78789 17.5114 7.7739 17.5033 7.76086C17.4979 7.74963 17.4916 7.73894 17.4846 7.72892C17.4765 7.71493 17.4685 7.70196 17.4595 7.689C17.4535 7.67892 17.4469 7.66925 17.4398 7.66004C17.4347 7.65226 17.4289 7.64493 17.4228 7.63809C17.5531 7.81381 17.6298 8.0314 17.6418 8.2592C17.6499 8.47293 17.6436 8.68666 17.6436 8.90134C17.6457 8.67464 17.6555 8.44695 17.6412 8.22025ZM17.6448 8.95523H17.6439C17.6439 8.99417 17.6448 9.03314 17.6457 9.07307C17.6448 9.03314 17.6448 8.99417 17.6448 8.95523ZM17.1548 7.36544C17.1503 7.36143 17.1459 7.35848 17.1405 7.35447C17.1208 7.33951 17.1012 7.32552 17.0806 7.31253C17.0699 7.30454 17.0583 7.29756 17.0466 7.29055C17.0252 7.2766 17.0028 7.26363 16.9796 7.25163C16.9739 7.24802 16.9679 7.245 16.9617 7.24262C16.9331 7.22667 16.9036 7.21268 16.8732 7.19972C16.8553 7.19173 16.8365 7.18475 16.8177 7.17774C16.7882 7.16582 16.7569 7.15579 16.7256 7.14675C16.7095 7.14177 16.6943 7.13777 16.6782 7.13379C16.6389 7.12378 16.5986 7.11472 16.5584 7.10881C16.528 7.10383 16.4976 7.10082 16.4663 7.09785C16.718 7.12284 16.9599 7.21906 17.1691 7.37743C17.1646 7.37306 17.1598 7.36907 17.1548 7.36544ZM16.3333 7.09184C16.3258 7.09199 16.3183 7.09267 16.3109 7.09384C16.327 7.09282 16.3422 7.09282 16.3574 7.09282C16.3494 7.09201 16.3414 7.09166 16.3333 7.09184ZM15.4687 10.4912C15.6993 10.6886 15.9787 10.8019 16.2689 10.8157C15.9794 10.7978 15.7011 10.6849 15.4687 10.4912ZM15.0476 9.65829C15.0476 9.66828 15.0476 9.67924 15.0485 9.68927C15.0494 9.70629 15.0512 9.72224 15.053 9.73921C15.0575 9.7841 15.0653 9.82851 15.0762 9.87202C15.0789 9.88505 15.0825 9.89699 15.086 9.91001C15.0887 9.91899 15.0905 9.92698 15.0932 9.93499C15.0977 9.94995 15.1031 9.9639 15.1084 9.97887C15.1134 9.99462 15.1194 10.01 15.1263 10.0248C15.1307 10.0376 15.1361 10.05 15.1424 10.0618C15.1532 10.0876 15.1654 10.1126 15.179 10.1367C15.1916 10.1608 15.2053 10.1841 15.2202 10.2066C15.2354 10.2315 15.2524 10.2555 15.2692 10.2784L15.2719 10.2815C15.2777 10.2899 15.2839 10.298 15.2907 10.3055L15.2979 10.3134C15.1506 10.1328 15.0625 9.90196 15.0476 9.65829ZM15.0449 8.95428C15.0449 8.8724 15.044 8.7895 15.0431 8.70763C15.0412 8.72581 15.0406 8.74416 15.0414 8.76245C15.0431 8.8034 15.044 8.84335 15.0431 8.88229C15.044 8.93418 15.0449 8.98812 15.0449 9.04003C15.0458 9.01112 15.0458 8.98314 15.0458 8.95423L15.0449 8.95428ZM15.0431 9.38869C15.0431 9.27586 15.0449 9.164 15.0449 9.05116C15.0431 9.24489 15.0369 9.4406 15.0467 9.63433C15.0439 9.55244 15.0431 9.47061 15.0431 9.38869ZM15.0431 9.38869C15.0431 9.27586 15.0449 9.164 15.0449 9.05116C15.0431 9.24489 15.0369 9.4406 15.0467 9.63433C15.0439 9.55244 15.0431 9.47061 15.0431 9.38869ZM15.0449 8.95428C15.0449 8.8724 15.044 8.7895 15.0431 8.70763C15.0412 8.72581 15.0406 8.74416 15.0414 8.76245C15.0431 8.8034 15.044 8.84335 15.0431 8.88229C15.044 8.93418 15.0449 8.98812 15.0449 9.04003C15.0458 9.01112 15.0458 8.98314 15.0458 8.95423L15.0449 8.95428ZM15.0476 9.65829C15.0476 9.66828 15.0476 9.67924 15.0485 9.68927C15.0494 9.70629 15.0512 9.72224 15.053 9.73921C15.0575 9.7841 15.0653 9.82851 15.0762 9.87202C15.0789 9.88505 15.0825 9.89699 15.086 9.91001C15.0887 9.91899 15.0905 9.92698 15.0932 9.93499C15.0977 9.94995 15.1031 9.9639 15.1084 9.97887C15.1134 9.99462 15.1194 10.01 15.1263 10.0248C15.1307 10.0376 15.1361 10.05 15.1424 10.0618C15.1532 10.0876 15.1654 10.1126 15.179 10.1367C15.1916 10.1608 15.2053 10.1841 15.2202 10.2066C15.2354 10.2315 15.2524 10.2555 15.2692 10.2784L15.2719 10.2815C15.2777 10.2899 15.2839 10.298 15.2907 10.3055L15.2979 10.3134C15.1506 10.1328 15.0625 9.90196 15.0476 9.65829ZM15.4687 10.4912C15.6993 10.6886 15.9787 10.8019 16.2689 10.8157C15.9794 10.7978 15.7011 10.6849 15.4687 10.4912ZM16.3333 7.09184C16.3258 7.09199 16.3183 7.09267 16.3109 7.09384C16.327 7.09282 16.3422 7.09282 16.3574 7.09282C16.3494 7.09201 16.3414 7.09166 16.3333 7.09184ZM17.1548 7.36544C17.1503 7.36143 17.1459 7.35848 17.1405 7.35447C17.1208 7.33951 17.1012 7.32552 17.0806 7.31253C17.0699 7.30454 17.0583 7.29756 17.0466 7.29055C17.0252 7.2766 17.0028 7.26363 16.9796 7.25163C16.9739 7.24802 16.9679 7.245 16.9617 7.24262C16.9331 7.22667 16.9036 7.21268 16.8732 7.19972C16.8553 7.19173 16.8365 7.18475 16.8177 7.17774C16.7882 7.16582 16.7569 7.15579 16.7256 7.14675C16.7095 7.14177 16.6943 7.13777 16.6782 7.13379C16.6389 7.12378 16.5986 7.11472 16.5584 7.10881C16.528 7.10383 16.4976 7.10082 16.4663 7.09785C16.718 7.12284 16.9599 7.21906 17.1691 7.37743C17.1646 7.37306 17.1598 7.36907 17.1548 7.36544ZM17.6448 8.95523H17.6439C17.6439 8.99417 17.6448 9.03314 17.6457 9.07307C17.6448 9.03314 17.6448 8.99417 17.6448 8.95523ZM17.6412 8.22025C17.6396 8.19179 17.6366 8.16345 17.6322 8.13535C17.6324 8.13298 17.6321 8.1306 17.6313 8.12837C17.6287 8.10844 17.6242 8.08747 17.6197 8.06747C17.6145 8.04002 17.6077 8.01299 17.5992 7.98658C17.5965 7.97659 17.5938 7.96751 17.5902 7.95762C17.5855 7.94125 17.5798 7.92524 17.5732 7.90969C17.5678 7.8957 17.5625 7.8817 17.5561 7.86776C17.5462 7.84576 17.5364 7.82381 17.5257 7.80183C17.5185 7.78789 17.5114 7.7739 17.5033 7.76086C17.4979 7.74963 17.4916 7.73894 17.4846 7.72892C17.4765 7.71493 17.4685 7.70196 17.4595 7.689C17.4535 7.67892 17.4469 7.66925 17.4398 7.66004C17.4347 7.65226 17.4289 7.64493 17.4228 7.63809C17.5531 7.81381 17.6298 8.0314 17.6418 8.2592C17.6499 8.47293 17.6436 8.68666 17.6436 8.90134C17.6457 8.67464 17.6555 8.44695 17.6412 8.22025ZM17.6457 9.07307C17.6457 9.11597 17.6457 9.15997 17.6466 9.2039C17.6482 9.18499 17.6485 9.16596 17.6475 9.147C17.6466 9.12202 17.6457 9.09805 17.6457 9.07307ZM17.6457 9.07307C17.6457 9.11597 17.6457 9.15997 17.6466 9.2039C17.6482 9.18499 17.6485 9.16596 17.6475 9.147C17.6466 9.12202 17.6457 9.09805 17.6457 9.07307ZM17.6412 8.22025C17.6396 8.19179 17.6366 8.16345 17.6322 8.13535C17.6324 8.13298 17.6321 8.1306 17.6313 8.12837C17.6287 8.10844 17.6242 8.08747 17.6197 8.06747C17.6145 8.04002 17.6077 8.01299 17.5992 7.98658C17.5965 7.97659 17.5938 7.96751 17.5902 7.95762C17.5855 7.94125 17.5798 7.92524 17.5732 7.90969C17.5678 7.8957 17.5625 7.8817 17.5561 7.86776C17.5462 7.84576 17.5364 7.82381 17.5257 7.80183C17.5185 7.78789 17.5114 7.7739 17.5033 7.76086C17.4979 7.74963 17.4916 7.73894 17.4846 7.72892C17.4765 7.71493 17.4685 7.70196 17.4595 7.689C17.4535 7.67892 17.4469 7.66925 17.4398 7.66004C17.4347 7.65226 17.4289 7.64493 17.4228 7.63809C17.5531 7.81381 17.6298 8.0314 17.6418 8.2592C17.6499 8.47293 17.6436 8.68666 17.6436 8.90134C17.6457 8.67464 17.6555 8.44695 17.6412 8.22025ZM17.6448 8.95523H17.6439C17.6439 8.99417 17.6448 9.03314 17.6457 9.07307C17.6448 9.03314 17.6448 8.99417 17.6448 8.95523ZM17.1548 7.36544C17.1503 7.36143 17.1459 7.35848 17.1405 7.35447C17.1208 7.33951 17.1012 7.32552 17.0806 7.31253C17.0699 7.30454 17.0583 7.29756 17.0466 7.29055C17.0252 7.2766 17.0028 7.26363 16.9796 7.25163C16.9739 7.24802 16.9679 7.245 16.9617 7.24262C16.9331 7.22667 16.9036 7.21268 16.8732 7.19972C16.8553 7.19173 16.8365 7.18475 16.8177 7.17774C16.7882 7.16582 16.7569 7.15579 16.7256 7.14675C16.7095 7.14177 16.6943 7.13777 16.6782 7.13379C16.6389 7.12378 16.5986 7.11472 16.5584 7.10881C16.528 7.10383 16.4976 7.10082 16.4663 7.09785C16.718 7.12284 16.9599 7.21906 17.1691 7.37743C17.1646 7.37306 17.1598 7.36907 17.1548 7.36544ZM16.3333 7.09184C16.3258 7.09199 16.3183 7.09267 16.3109 7.09384C16.327 7.09282 16.3422 7.09282 16.3574 7.09282C16.3494 7.09201 16.3414 7.09166 16.3333 7.09184ZM15.4687 10.4912C15.6993 10.6886 15.9787 10.8019 16.2689 10.8157C15.9794 10.7978 15.7011 10.6849 15.4687 10.4912ZM15.0476 9.65829C15.0476 9.66828 15.0476 9.67924 15.0485 9.68927C15.0494 9.70629 15.0512 9.72224 15.053 9.73921C15.0575 9.7841 15.0653 9.82851 15.0762 9.87202C15.0789 9.88505 15.0825 9.89699 15.086 9.91001C15.0887 9.91899 15.0905 9.92698 15.0932 9.93499C15.0977 9.94995 15.1031 9.9639 15.1084 9.97887C15.1134 9.99462 15.1194 10.01 15.1263 10.0248C15.1307 10.0376 15.1361 10.05 15.1424 10.0618C15.1532 10.0876 15.1654 10.1126 15.179 10.1367C15.1916 10.1608 15.2053 10.1841 15.2202 10.2066C15.2354 10.2315 15.2524 10.2555 15.2692 10.2784L15.2719 10.2815C15.2777 10.2899 15.2839 10.298 15.2907 10.3055L15.2979 10.3134C15.1506 10.1328 15.0625 9.90196 15.0476 9.65829ZM15.0449 8.95428C15.0449 8.8724 15.044 8.7895 15.0431 8.70763C15.0412 8.72581 15.0406 8.74416 15.0414 8.76245C15.0431 8.8034 15.044 8.84335 15.0431 8.88229C15.044 8.93418 15.0449 8.98812 15.0449 9.04003C15.0458 9.01112 15.0458 8.98314 15.0458 8.95423L15.0449 8.95428ZM15.0431 9.38869C15.0431 9.27586 15.0449 9.164 15.0449 9.05116C15.0431 9.24489 15.0369 9.4406 15.0467 9.63433C15.0439 9.55244 15.0431 9.47061 15.0431 9.38869ZM15.0431 9.38869C15.0431 9.27586 15.0449 9.164 15.0449 9.05116C15.0431 9.24489 15.0369 9.4406 15.0467 9.63433C15.0439 9.55244 15.0431 9.47061 15.0431 9.38869ZM15.0449 8.95428C15.0449 8.8724 15.044 8.7895 15.0431 8.70763C15.0412 8.72581 15.0406 8.74416 15.0414 8.76245C15.0431 8.8034 15.044 8.84335 15.0431 8.88229C15.044 8.93418 15.0449 8.98812 15.0449 9.04003C15.0458 9.01112 15.0458 8.98314 15.0458 8.95423L15.0449 8.95428ZM15.0476 9.65829C15.0476 9.66828 15.0476 9.67924 15.0485 9.68927C15.0494 9.70629 15.0512 9.72224 15.053 9.73921C15.0575 9.7841 15.0653 9.82851 15.0762 9.87202C15.0789 9.88505 15.0825 9.89699 15.086 9.91001C15.0887 9.91899 15.0905 9.92698 15.0932 9.93499C15.0977 9.94995 15.1031 9.9639 15.1084 9.97887C15.1134 9.99462 15.1194 10.01 15.1263 10.0248C15.1307 10.0376 15.1361 10.05 15.1424 10.0618C15.1532 10.0876 15.1654 10.1126 15.179 10.1367C15.1916 10.1608 15.2053 10.1841 15.2202 10.2066C15.2354 10.2315 15.2524 10.2555 15.2692 10.2784L15.2719 10.2815C15.2777 10.2899 15.2839 10.298 15.2907 10.3055L15.2979 10.3134C15.1506 10.1328 15.0625 9.90196 15.0476 9.65829ZM15.4687 10.4912C15.6993 10.6886 15.9787 10.8019 16.2689 10.8157C15.9794 10.7978 15.7011 10.6849 15.4687 10.4912ZM16.3333 7.09184C16.3258 7.09199 16.3183 7.09267 16.3109 7.09384C16.327 7.09282 16.3422 7.09282 16.3574 7.09282C16.3494 7.09201 16.3414 7.09166 16.3333 7.09184ZM17.1548 7.36544C17.1503 7.36143 17.1459 7.35848 17.1405 7.35447C17.1208 7.33951 17.1012 7.32552 17.0806 7.31253C17.0699 7.30454 17.0583 7.29756 17.0466 7.29055C17.0252 7.2766 17.0028 7.26363 16.9796 7.25163C16.9739 7.24802 16.9679 7.245 16.9617 7.24262C16.9331 7.22667 16.9036 7.21268 16.8732 7.19972C16.8553 7.19173 16.8365 7.18475 16.8177 7.17774C16.7882 7.16582 16.7569 7.15579 16.7256 7.14675C16.7095 7.14177 16.6943 7.13777 16.6782 7.13379C16.6389 7.12378 16.5986 7.11472 16.5584 7.10881C16.528 7.10383 16.4976 7.10082 16.4663 7.09785C16.718 7.12284 16.9599 7.21906 17.1691 7.37743C17.1646 7.37306 17.1598 7.36907 17.1548 7.36544ZM17.6448 8.95523H17.6439C17.6439 8.99417 17.6448 9.03314 17.6457 9.07307C17.6448 9.03314 17.6448 8.99417 17.6448 8.95523ZM17.6412 8.22025C17.6396 8.19179 17.6366 8.16345 17.6322 8.13535C17.6324 8.13298 17.6321 8.1306 17.6313 8.12837C17.6287 8.10844 17.6242 8.08747 17.6197 8.06747C17.6145 8.04002 17.6077 8.01299 17.5992 7.98658C17.5965 7.97659 17.5938 7.96751 17.5902 7.95762C17.5855 7.94125 17.5798 7.92524 17.5732 7.90969C17.5678 7.8957 17.5625 7.8817 17.5561 7.86776C17.5462 7.84576 17.5364 7.82381 17.5257 7.80183C17.5185 7.78789 17.5114 7.7739 17.5033 7.76086C17.4979 7.74963 17.4916 7.73894 17.4846 7.72892C17.4765 7.71493 17.4685 7.70196 17.4595 7.689C17.4535 7.67892 17.4469 7.66925 17.4398 7.66004C17.4347 7.65226 17.4289 7.64493 17.4228 7.63809C17.5531 7.81381 17.6298 8.0314 17.6418 8.2592C17.6499 8.47293 17.6436 8.68666 17.6436 8.90134C17.6457 8.67464 17.6555 8.44695 17.6412 8.22025ZM17.6457 9.07307C17.6457 9.11597 17.6457 9.15997 17.6466 9.2039C17.6482 9.18499 17.6485 9.16596 17.6475 9.147C17.6466 9.12202 17.6457 9.09805 17.6457 9.07307ZM17.6412 8.22025C17.6396 8.19179 17.6366 8.16345 17.6322 8.13535C17.6324 8.13298 17.6321 8.1306 17.6313 8.12837C17.6287 8.10844 17.6242 8.08747 17.6197 8.06747C17.6145 8.04002 17.6077 8.01299 17.5992 7.98658C17.5965 7.97659 17.5938 7.96751 17.5902 7.95762C17.5855 7.94125 17.5798 7.92524 17.5732 7.90969C17.5678 7.8957 17.5625 7.8817 17.5561 7.86776C17.5462 7.84576 17.5364 7.82381 17.5257 7.80183C17.5185 7.78789 17.5114 7.7739 17.5033 7.76086C17.4979 7.74963 17.4916 7.73894 17.4846 7.72892C17.4765 7.71493 17.4685 7.70196 17.4595 7.689C17.4535 7.67892 17.4469 7.66925 17.4398 7.66004C17.4347 7.65226 17.4289 7.64493 17.4228 7.63809C17.5531 7.81381 17.6298 8.0314 17.6418 8.2592C17.6499 8.47293 17.6436 8.68666 17.6436 8.90134C17.6457 8.67464 17.6555 8.44695 17.6412 8.22025ZM17.6457 9.07307C17.6457 9.11597 17.6457 9.15997 17.6466 9.2039C17.6482 9.18499 17.6485 9.16596 17.6475 9.147C17.6466 9.12202 17.6457 9.09805 17.6457 9.07307ZM17.6448 8.95523H17.6439C17.6439 8.99417 17.6448 9.03314 17.6457 9.07307C17.6448 9.03314 17.6448 8.99417 17.6448 8.95523ZM17.1548 7.36544C17.1503 7.36143 17.1459 7.35848 17.1405 7.35447C17.1208 7.33951 17.1012 7.32552 17.0806 7.31253C17.0699 7.30454 17.0583 7.29756 17.0466 7.29055C17.0252 7.2766 17.0028 7.26363 16.9796 7.25163C16.9739 7.24802 16.9679 7.245 16.9617 7.24262C16.9331 7.22667 16.9036 7.21268 16.8732 7.19972C16.8553 7.19173 16.8365 7.18475 16.8177 7.17774C16.7882 7.16582 16.7569 7.15579 16.7256 7.14675C16.7095 7.14177 16.6943 7.13777 16.6782 7.13379C16.6389 7.12378 16.5986 7.11472 16.5584 7.10881C16.528 7.10383 16.4976 7.10082 16.4663 7.09785C16.718 7.12284 16.9599 7.21906 17.1691 7.37743C17.1646 7.37306 17.1598 7.36907 17.1548 7.36544ZM16.3333 7.09184C16.3258 7.09199 16.3183 7.09267 16.3109 7.09384C16.327 7.09282 16.3422 7.09282 16.3574 7.09282C16.3494 7.09201 16.3414 7.09166 16.3333 7.09184ZM15.4687 10.4912C15.6993 10.6886 15.9787 10.8019 16.2689 10.8157C15.9794 10.7978 15.7011 10.6849 15.4687 10.4912ZM15.0476 9.65829C15.0476 9.66828 15.0476 9.67924 15.0485 9.68927C15.0494 9.70629 15.0512 9.72224 15.053 9.73921C15.0575 9.7841 15.0653 9.82851 15.0762 9.87202C15.0789 9.88505 15.0825 9.89699 15.086 9.91001C15.0887 9.91899 15.0905 9.92698 15.0932 9.93499C15.0977 9.94995 15.1031 9.9639 15.1084 9.97887C15.1134 9.99462 15.1194 10.01 15.1263 10.0248C15.1307 10.0376 15.1361 10.05 15.1424 10.0618C15.1532 10.0876 15.1654 10.1126 15.179 10.1367C15.1916 10.1608 15.2053 10.1841 15.2202 10.2066C15.2354 10.2315 15.2524 10.2555 15.2692 10.2784L15.2719 10.2815C15.2777 10.2899 15.2839 10.298 15.2907 10.3055L15.2979 10.3134C15.1506 10.1328 15.0625 9.90196 15.0476 9.65829ZM15.0449 8.95428C15.0449 8.8724 15.044 8.7895 15.0431 8.70763C15.0412 8.72581 15.0406 8.74416 15.0414 8.76245C15.0431 8.8034 15.044 8.84335 15.0431 8.88229C15.044 8.93418 15.0449 8.98812 15.0449 9.04003C15.0458 9.01112 15.0458 8.98314 15.0458 8.95423L15.0449 8.95428ZM15.0431 9.38869C15.0431 9.27586 15.0449 9.164 15.0449 9.05116C15.0431 9.24489 15.0369 9.4406 15.0467 9.63433C15.0439 9.55244 15.0431 9.47061 15.0431 9.38869ZM17.6412 8.22025C17.6396 8.19179 17.6366 8.16345 17.6322 8.13535C17.6324 8.13298 17.6321 8.1306 17.6313 8.12837C17.6287 8.10844 17.6242 8.08747 17.6197 8.06747C17.6145 8.04002 17.6077 8.01299 17.5992 7.98658C17.5965 7.97659 17.5938 7.96751 17.5902 7.95762C17.5855 7.94125 17.5798 7.92524 17.5732 7.90969C17.5678 7.8957 17.5625 7.8817 17.5561 7.86776C17.5462 7.84576 17.5364 7.82381 17.5257 7.80183C17.5185 7.78789 17.5114 7.7739 17.5033 7.76086C17.4979 7.74963 17.4916 7.73894 17.4846 7.72892C17.4765 7.71493 17.4685 7.70196 17.4595 7.689C17.4535 7.67892 17.4469 7.66925 17.4398 7.66004C17.4347 7.65226 17.4289 7.64493 17.4228 7.63809C17.5531 7.81381 17.6298 8.0314 17.6418 8.2592C17.6499 8.47293 17.6436 8.68666 17.6436 8.90134C17.6457 8.67464 17.6555 8.44695 17.6412 8.22025ZM17.6457 9.07307C17.6457 9.11597 17.6457 9.15997 17.6466 9.2039C17.6482 9.18499 17.6485 9.16596 17.6475 9.147C17.6466 9.12202 17.6457 9.09805 17.6457 9.07307ZM17.6448 8.95523H17.6439C17.6439 8.99417 17.6448 9.03314 17.6457 9.07307C17.6448 9.03314 17.6448 8.99417 17.6448 8.95523ZM17.1548 7.36544C17.1503 7.36143 17.1459 7.35848 17.1405 7.35447C17.1208 7.33951 17.1012 7.32552 17.0806 7.31253C17.0699 7.30454 17.0583 7.29756 17.0466 7.29055C17.0252 7.2766 17.0028 7.26363 16.9796 7.25163C16.9739 7.24802 16.9679 7.245 16.9617 7.24262C16.9331 7.22667 16.9036 7.21268 16.8732 7.19972C16.8553 7.19173 16.8365 7.18475 16.8177 7.17774C16.7882 7.16582 16.7569 7.15579 16.7256 7.14675C16.7095 7.14177 16.6943 7.13777 16.6782 7.13379C16.6389 7.12378 16.5986 7.11472 16.5584 7.10881C16.528 7.10383 16.4976 7.10082 16.4663 7.09785C16.718 7.12284 16.9599 7.21906 17.1691 7.37743C17.1646 7.37306 17.1598 7.36907 17.1548 7.36544ZM16.3333 7.09184C16.3258 7.09199 16.3183 7.09267 16.3109 7.09384C16.327 7.09282 16.3422 7.09282 16.3574 7.09282C16.3494 7.09201 16.3414 7.09166 16.3333 7.09184ZM15.4687 10.4912C15.6993 10.6886 15.9787 10.8019 16.2689 10.8157C15.9794 10.7978 15.7011 10.6849 15.4687 10.4912ZM15.0476 9.65829C15.0476 9.66828 15.0476 9.67924 15.0485 9.68927C15.0494 9.70629 15.0512 9.72224 15.053 9.73921C15.0575 9.7841 15.0653 9.82851 15.0762 9.87202C15.0789 9.88505 15.0825 9.89699 15.086 9.91001C15.0887 9.91899 15.0905 9.92698 15.0932 9.93499C15.0977 9.94995 15.1031 9.9639 15.1084 9.97887C15.1134 9.99462 15.1194 10.01 15.1263 10.0248C15.1307 10.0376 15.1361 10.05 15.1424 10.0618C15.1532 10.0876 15.1654 10.1126 15.179 10.1367C15.1916 10.1608 15.2053 10.1841 15.2202 10.2066C15.2354 10.2315 15.2524 10.2555 15.2692 10.2784L15.2719 10.2815C15.2777 10.2899 15.2839 10.298 15.2907 10.3055L15.2979 10.3134C15.1506 10.1328 15.0625 9.90196 15.0476 9.65829ZM15.0449 8.95428C15.0449 8.8724 15.044 8.7895 15.0431 8.70763C15.0412 8.72581 15.0406 8.74416 15.0414 8.76245C15.0431 8.8034 15.044 8.84335 15.0431 8.88229C15.044 8.93418 15.0449 8.98812 15.0449 9.04003C15.0458 9.01112 15.0458 8.98314 15.0458 8.95423L15.0449 8.95428ZM15.0431 9.38869C15.0431 9.27586 15.0449 9.164 15.0449 9.05116C15.0431 9.24489 15.0369 9.4406 15.0467 9.63433C15.0439 9.55244 15.0431 9.47061 15.0431 9.38869ZM17.6412 8.22025C17.6396 8.19179 17.6366 8.16345 17.6322 8.13535C17.6324 8.13298 17.6321 8.1306 17.6313 8.12837C17.6287 8.10844 17.6242 8.08747 17.6197 8.06747C17.6145 8.04002 17.6077 8.01299 17.5992 7.98658C17.5965 7.97659 17.5938 7.96751 17.5902 7.95762C17.5855 7.94125 17.5798 7.92524 17.5732 7.90969C17.5678 7.8957 17.5625 7.8817 17.5561 7.86776C17.5462 7.84576 17.5364 7.82381 17.5257 7.80183C17.5185 7.78789 17.5114 7.7739 17.5033 7.76086C17.4979 7.74963 17.4916 7.73894 17.4846 7.72892C17.4765 7.71493 17.4685 7.70196 17.4595 7.689C17.4535 7.67892 17.4469 7.66925 17.4398 7.66004C17.4347 7.65226 17.4289 7.64493 17.4228 7.63809C17.5531 7.81381 17.6298 8.0314 17.6418 8.2592C17.6499 8.47293 17.6436 8.68666 17.6436 8.90134C17.6457 8.67464 17.6555 8.44695 17.6412 8.22025ZM17.6457 9.07307C17.6457 9.11597 17.6457 9.15997 17.6466 9.2039C17.6482 9.18499 17.6485 9.16596 17.6475 9.147C17.6466 9.12202 17.6457 9.09805 17.6457 9.07307ZM17.6448 8.95523H17.6439C17.6439 8.99417 17.6448 9.03314 17.6457 9.07307C17.6448 9.03314 17.6448 8.99417 17.6448 8.95523ZM17.1548 7.36544C17.1503 7.36143 17.1459 7.35848 17.1405 7.35447C17.1208 7.33951 17.1012 7.32552 17.0806 7.31253C17.0699 7.30454 17.0583 7.29756 17.0466 7.29055C17.0252 7.2766 17.0028 7.26363 16.9796 7.25163C16.9739 7.24802 16.9679 7.245 16.9617 7.24262C16.9331 7.22667 16.9036 7.21268 16.8732 7.19972C16.8553 7.19173 16.8365 7.18475 16.8177 7.17774C16.7882 7.16582 16.7569 7.15579 16.7256 7.14675C16.7095 7.14177 16.6943 7.13777 16.6782 7.13379C16.6389 7.12378 16.5986 7.11472 16.5584 7.10881C16.528 7.10383 16.4976 7.10082 16.4663 7.09785C16.718 7.12284 16.9599 7.21906 17.1691 7.37743C17.1646 7.37306 17.1598 7.36907 17.1548 7.36544ZM16.3333 7.09184C16.3258 7.09199 16.3183 7.09267 16.3109 7.09384C16.327 7.09282 16.3422 7.09282 16.3574 7.09282C16.3494 7.09201 16.3414 7.09166 16.3333 7.09184ZM15.4687 10.4912C15.6993 10.6886 15.9787 10.8019 16.2689 10.8157C15.9794 10.7978 15.7011 10.6849 15.4687 10.4912ZM15.0476 9.65829C15.0476 9.66828 15.0476 9.67924 15.0485 9.68927C15.0494 9.70629 15.0512 9.72224 15.053 9.73921C15.0575 9.7841 15.0653 9.82851 15.0762 9.87202C15.0789 9.88505 15.0825 9.89699 15.086 9.91001C15.0887 9.91899 15.0905 9.92698 15.0932 9.93499C15.0977 9.94995 15.1031 9.9639 15.1084 9.97887C15.1134 9.99462 15.1194 10.01 15.1263 10.0248C15.1307 10.0376 15.1361 10.05 15.1424 10.0618C15.1532 10.0876 15.1654 10.1126 15.179 10.1367C15.1916 10.1608 15.2053 10.1841 15.2202 10.2066C15.2354 10.2315 15.2524 10.2555 15.2692 10.2784L15.2719 10.2815C15.2777 10.2899 15.2839 10.298 15.2907 10.3055L15.2979 10.3134C15.1506 10.1328 15.0625 9.90196 15.0476 9.65829ZM15.0449 8.95428C15.0449 8.8724 15.044 8.7895 15.0431 8.70763C15.0412 8.72581 15.0406 8.74416 15.0414 8.76245C15.0431 8.8034 15.044 8.84335 15.0431 8.88229C15.044 8.93418 15.0449 8.98812 15.0449 9.04003C15.0458 9.01112 15.0458 8.98314 15.0458 8.95423L15.0449 8.95428ZM15.0431 9.38869C15.0431 9.27586 15.0449 9.164 15.0449 9.05116C15.0431 9.24489 15.0369 9.4406 15.0467 9.63433C15.0439 9.55244 15.0431 9.47061 15.0431 9.38869Z" fill="#3A86FF"/>
<path d="M11.9991 6.36226C11.9991 2.50658 9.05407 0.872834 4.83415 0.284636V3.04989L3.82744 2.47071L2.82073 3.04989V0.0838747C1.91595 0.0249786 0.971831 0 9.49249e-06 0V10.718C-0.00286401 12.7791 0.646731 14.775 1.83397 16.3529C3.02121 17.9307 4.66964 18.989 6.48788 19.3405C9.80377 19.9718 12 21.3288 12 24C12 21.2402 14.3439 19.8833 17.8452 19.28C19.564 18.9761 21.129 17.9959 22.2576 16.5164C23.3862 15.0369 24.0042 13.1554 24 11.2117V0C17.3724 0 11.9991 1.15442 11.9991 6.36226ZM6.75457 12.2242C5.4421 12.0654 4.34241 10.8801 4.40859 9.59179C4.43541 9.08351 4.40231 8.57323 4.42288 8.06295C4.47563 6.6968 5.64864 5.64425 7.11668 5.63522C8.67948 5.62626 9.86051 6.70281 9.89628 8.17578C9.90163 8.43136 9.89717 8.68709 9.89717 9.01861C9.87571 9.48792 9.93383 10.0382 9.73088 10.5765C9.31246 11.6929 8.01072 12.378 6.75457 12.2242ZM14.928 15.8532C14.5822 16.3529 14.1385 16.7575 13.6309 17.0359C13.1234 17.3142 12.5654 17.459 12 17.459C11.4345 17.459 10.8766 17.3142 10.369 17.0359C9.86144 16.7575 9.41773 16.3529 9.07195 15.8532C9.00755 15.7588 8.96806 15.6461 8.95796 15.5279C8.94785 15.4097 8.96753 15.2908 9.01477 15.1844C9.06201 15.0781 9.13492 14.9886 9.22528 14.9261C9.31564 14.8636 9.41985 14.8305 9.52613 14.8307H14.4729C14.5792 14.8306 14.6834 14.8636 14.7738 14.9261C14.8641 14.9886 14.9371 15.078 14.9844 15.1843C15.0317 15.2906 15.0515 15.4095 15.0415 15.5277C15.0315 15.6459 14.9922 15.7586 14.928 15.8532ZM19.3786 10.5695C18.9433 11.7628 17.6835 12.4149 16.3728 12.2272C15.9363 12.1857 15.5155 12.0251 15.1476 11.7594C14.7797 11.4936 14.4758 11.131 14.2629 10.7033C14.1341 10.4659 14.0632 10.1949 14.0572 9.9174C14.0617 9.6018 14.059 9.28525 14.059 8.81292C14.0841 8.47339 13.9893 7.97504 14.1574 7.48373C14.4765 6.546 15.1265 5.91592 16.1502 5.69917C17.5629 5.39861 18.8315 6.0427 19.3813 7.282C19.4405 7.42158 19.4774 7.5716 19.4904 7.72533C19.5798 8.68006 19.713 9.65572 19.3786 10.5695Z" fill="#3A86FF"/>
<path d="M4.83373 0.284746V3.05L3.82702 2.47081L2.82031 3.05V0.0839844C3.51769 0.128937 4.19092 0.194865 4.83373 0.284746Z" fill="white"/>
<path d="M17.6453 9.07305C17.6453 9.11596 17.6453 9.15996 17.6462 9.20389C17.6479 9.18498 17.6482 9.16595 17.6471 9.14699C17.6461 9.12201 17.6453 9.09803 17.6453 9.07305ZM17.1545 7.3654C17.15 7.3614 17.1456 7.35844 17.1402 7.35444C17.1205 7.33947 17.1009 7.32548 17.0803 7.31249C17.0696 7.3045 17.058 7.29752 17.0463 7.29051C17.0249 7.27656 17.0025 7.26359 16.9793 7.25159C16.9736 7.24798 16.9676 7.24497 16.9614 7.24258C16.9328 7.22664 16.9033 7.21264 16.8729 7.19968C16.855 7.19169 16.8362 7.18471 16.8174 7.1777C16.7879 7.16579 16.7566 7.15575 16.7253 7.14672C16.7092 7.14173 16.694 7.13773 16.6779 7.13375C16.6386 7.12374 16.5983 7.11468 16.5581 7.10877C16.5277 7.10379 16.4964 7.09981 16.466 7.09781C16.7177 7.1228 16.9596 7.21903 17.1688 7.37739C17.1643 7.37303 17.1595 7.36902 17.1545 7.3654ZM16.333 7.0918C16.3255 7.09196 16.318 7.09263 16.3106 7.0938C16.3267 7.09278 16.3419 7.09278 16.3571 7.09278C16.349 7.09197 16.3411 7.09162 16.333 7.0918ZM15.2977 10.3134C15.1504 10.1328 15.0622 9.90191 15.0473 9.65825C15.0473 9.66824 15.0473 9.6792 15.0482 9.68924C15.0491 9.70625 15.0509 9.7222 15.0527 9.73917C15.0572 9.78407 15.065 9.82848 15.0759 9.87198C15.0786 9.88501 15.0822 9.89696 15.0857 9.90997C15.0884 9.91896 15.0902 9.92694 15.0929 9.93495C15.0974 9.94992 15.1028 9.96386 15.1081 9.97883C15.1131 9.99459 15.1191 10.0099 15.126 10.0248C15.1304 10.0376 15.1358 10.0499 15.1421 10.0617C15.1529 10.0875 15.1651 10.1125 15.1787 10.1366C15.1913 10.1607 15.205 10.1841 15.2199 10.2065C15.2351 10.2315 15.2521 10.2555 15.2689 10.2784L15.2716 10.2814C15.2774 10.2899 15.2836 10.2979 15.2904 10.3054C15.2967 10.3134 15.302 10.3214 15.3092 10.3294C15.3154 10.3374 15.3226 10.3454 15.3297 10.3532C15.3189 10.3403 15.3084 10.3264 15.2977 10.3134ZM15.0428 9.38856C15.0428 9.27572 15.0446 9.16387 15.0446 9.05103C15.0428 9.24476 15.0366 9.44047 15.0464 9.6342C15.0435 9.55242 15.0428 9.47048 15.0428 9.38856Z" fill="#F7F9FC"/>
<path d="M19.4905 7.72631C19.4775 7.57258 19.4406 7.42256 19.3815 7.28298C18.8316 6.04368 17.563 5.39959 16.1504 5.70015C15.1267 5.9169 14.4767 6.54698 14.1575 7.48472C13.9894 7.97603 14.0842 8.47437 14.0592 8.8139C14.0592 9.28623 14.0619 9.60283 14.0574 9.91838C14.0633 10.1959 14.1342 10.4668 14.263 10.7043C14.476 11.132 14.7798 11.4946 15.1477 11.7604C15.5157 12.0261 15.9364 12.1867 16.373 12.2282C17.6837 12.4159 18.9434 11.7638 19.3788 10.5705C19.7132 9.65665 19.58 8.68099 19.4905 7.72631ZM17.6443 8.95659C17.6443 8.99554 17.6443 9.03451 17.6452 9.07443C17.6452 9.09941 17.6461 9.12339 17.647 9.14832C17.6481 9.16728 17.6478 9.18631 17.6461 9.20522C17.6363 9.31605 17.5746 9.34405 17.4244 9.35404C16.7127 9.40593 16.398 9.97418 16.753 10.5643C16.8406 10.7121 16.8138 10.7381 16.6555 10.7801C16.6331 10.786 16.6108 10.791 16.5885 10.795C16.5752 10.7983 16.5618 10.8007 16.5482 10.802C16.5269 10.806 16.5062 10.809 16.4848 10.811C16.4328 10.8172 16.3805 10.8198 16.3283 10.819C16.3104 10.819 16.2925 10.818 16.2738 10.817H16.2684C15.9781 10.8032 15.6987 10.6898 15.4682 10.4925C15.4533 10.4807 15.4389 10.468 15.4252 10.4545C15.4047 10.4345 15.3832 10.4146 15.3636 10.3925C15.3519 10.3795 15.3403 10.3676 15.3296 10.3545C15.3224 10.3466 15.3153 10.3386 15.309 10.3307C15.3019 10.3227 15.2965 10.3147 15.2902 10.3067C15.2835 10.2992 15.2772 10.2912 15.2715 10.2827L15.2688 10.2797C15.2512 10.2569 15.2348 10.2329 15.2197 10.2079C15.2049 10.1854 15.1911 10.1621 15.1786 10.1379C15.165 10.1139 15.1527 10.0888 15.142 10.063C15.1357 10.0512 15.1303 10.0389 15.1258 10.0261C15.119 10.0113 15.113 9.99589 15.108 9.98014C15.1026 9.96517 15.0973 9.95123 15.0928 9.93626C15.0901 9.92825 15.0883 9.92026 15.0856 9.91128C15.082 9.89826 15.0784 9.88633 15.0758 9.87329C15.0649 9.82979 15.0571 9.78537 15.0525 9.74048C15.0507 9.72351 15.049 9.70756 15.0481 9.69054C15.0472 9.68053 15.0472 9.66957 15.0472 9.65956C15.046 9.65168 15.0457 9.64368 15.0463 9.63572C15.0364 9.44199 15.0427 9.24628 15.0445 9.05255C15.0449 9.04889 15.0449 9.04518 15.0445 9.04152C15.0445 8.98961 15.0436 8.93567 15.0427 8.88378C15.0436 8.84483 15.0427 8.80488 15.0409 8.76394C15.0401 8.74564 15.0407 8.7273 15.0427 8.70912C15.0418 8.5663 15.0409 8.4245 15.0454 8.28266C15.0633 7.67652 15.5577 7.1791 16.187 7.10333H16.1888C16.2362 7.09733 16.2845 7.0943 16.3327 7.09332C16.3408 7.09316 16.3488 7.09349 16.3569 7.0943C16.3727 7.09364 16.3885 7.09398 16.4042 7.09532C16.4248 7.0963 16.4454 7.09733 16.466 7.09933C16.4963 7.10133 16.5276 7.10531 16.558 7.11029C16.5983 7.1163 16.6385 7.12526 16.6778 7.13527C16.6939 7.13925 16.7091 7.14326 16.7252 7.14824C16.7565 7.15725 16.7878 7.16731 16.8173 7.17922C16.8361 7.18623 16.8549 7.19322 16.8728 7.2012C16.9032 7.21419 16.9327 7.22818 16.9613 7.2441C16.9675 7.24649 16.9735 7.2495 16.9792 7.25311C17.0024 7.26509 17.0248 7.27807 17.0462 7.29203C17.0579 7.29904 17.0695 7.30603 17.0802 7.31401C17.1008 7.327 17.1204 7.34099 17.1401 7.35596C17.1455 7.35996 17.15 7.36292 17.1544 7.36693C17.1681 7.37669 17.1812 7.38737 17.1938 7.39891C17.2027 7.4059 17.2108 7.41286 17.2197 7.41989C17.2349 7.432 17.2495 7.44498 17.2635 7.45878C17.276 7.4707 17.2886 7.48279 17.3002 7.49477C17.3092 7.50324 17.3179 7.51223 17.3261 7.52173C17.3393 7.53495 17.3518 7.54895 17.3636 7.56368C17.3771 7.57968 17.3905 7.59664 17.4039 7.61361C17.4101 7.6216 17.4164 7.63059 17.4226 7.6396C17.4288 7.64643 17.4345 7.65377 17.4397 7.66155C17.4468 7.67076 17.4533 7.68043 17.4594 7.69051C17.4683 7.70347 17.4765 7.71644 17.4844 7.73043C17.4915 7.74046 17.4978 7.75114 17.5032 7.76237C17.5112 7.77541 17.5184 7.7894 17.5255 7.80334C17.5362 7.82532 17.5461 7.84727 17.5559 7.86927C17.5622 7.88321 17.5676 7.8972 17.573 7.91119C17.5796 7.92675 17.5853 7.94275 17.5901 7.95913C17.5937 7.96911 17.5963 7.97819 17.599 7.98809C17.6075 8.0145 17.6144 8.04153 17.6196 8.06898C17.6248 8.08893 17.6287 8.10928 17.6312 8.12988C17.6319 8.13211 17.6322 8.13449 17.6321 8.13687C17.6365 8.16497 17.6394 8.19331 17.6411 8.22177C17.6553 8.44846 17.6455 8.67615 17.6437 8.90285V8.95674L17.6443 8.95659Z" fill="white"/>
<path d="M8.8719 8.95731V9.01621C8.86744 9.06717 8.86564 9.1191 8.86564 9.17302C8.8763 9.10175 8.87841 9.02921 8.8719 8.95731ZM8.21924 7.25977C8.34389 7.32772 8.45847 7.41663 8.55898 7.5234C8.45969 7.41498 8.34486 7.32587 8.21924 7.25977ZM7.31268 10.7828C7.3027 10.7818 7.29283 10.7798 7.28316 10.7768C7.25099 10.7708 7.22058 10.7628 7.18927 10.7548C7.2072 10.7609 7.22541 10.7659 7.24381 10.7698C7.26078 10.7748 7.27868 10.7788 7.29656 10.7828C7.33407 10.7909 7.37198 10.7966 7.41009 10.7998C7.37703 10.7958 7.34486 10.7897 7.31268 10.7828ZM6.28004 9.70427C6.26574 9.52351 6.27468 9.33876 6.27556 9.15607C6.27645 9.08323 6.26933 9.00732 6.26489 8.93343C6.26399 9.20205 6.25772 9.42276 6.26578 9.64442C6.27409 9.84206 6.33337 10.0328 6.4365 10.1937C6.34763 10.0482 6.29375 9.87969 6.28004 9.70427Z" fill="#F7F9FC"/>
<path d="M9.89678 8.17538C9.86101 6.70239 8.67998 5.62586 7.11718 5.63482C5.64905 5.64385 4.47613 6.69641 4.42338 8.06255C4.40281 8.57283 4.43591 9.08311 4.40909 9.59139C4.34294 10.8797 5.4426 12.065 6.75508 12.2238C8.01122 12.3776 9.31296 11.6925 9.73138 10.5761C9.93433 10.0378 9.87621 9.48752 9.89767 9.01821C9.89767 8.68669 9.90213 8.43097 9.89678 8.17538ZM8.86773 9.172C8.86251 9.20229 8.8541 9.23178 8.84269 9.25987C8.77117 9.43063 8.53513 9.32478 8.37778 9.37771C7.89765 9.54048 7.6661 10.0708 7.94328 10.5071C8.08275 10.7288 7.98709 10.7558 7.79843 10.7897C7.74605 10.7992 7.69321 10.8052 7.6402 10.8077C7.59135 10.8109 7.54237 10.8106 7.49356 10.8067C7.48015 10.8057 7.46582 10.8048 7.45244 10.8037C7.43894 10.803 7.4255 10.8014 7.41219 10.7988C7.37408 10.7956 7.33617 10.7899 7.29867 10.7818C7.28078 10.7778 7.26288 10.7738 7.24592 10.7688C7.22751 10.7649 7.20931 10.7599 7.19137 10.7538C7.18649 10.7531 7.18169 10.7517 7.17706 10.7498C7.1583 10.7438 7.13952 10.7379 7.12157 10.7318C7.09117 10.7219 7.06078 10.7099 7.03129 10.6969C6.99104 10.6799 6.9508 10.6599 6.91237 10.639C6.89448 10.629 6.8775 10.619 6.86049 10.609C6.81818 10.5844 6.77753 10.5564 6.73886 10.5251C6.70045 10.4942 6.66379 10.4622 6.6289 10.4293C6.60116 10.4023 6.57434 10.3733 6.54931 10.3444C6.53585 10.3301 6.5233 10.3147 6.51177 10.2984C6.49565 10.2775 6.48045 10.2565 6.46617 10.2355C6.45633 10.2215 6.44739 10.2066 6.43843 10.1926C6.3353 10.0318 6.27602 9.84103 6.26772 9.6434C6.25965 9.42174 6.26592 9.20103 6.26682 8.93241C6.26075 8.86514 6.26286 8.79728 6.27307 8.73064V8.72967C6.24292 8.44517 6.26915 8.15675 6.34989 7.88484C6.45614 7.64622 6.62005 7.44559 6.82309 7.30563C7.02612 7.16567 7.26018 7.09198 7.49876 7.0929C7.54732 7.09024 7.59597 7.09058 7.64449 7.09392C7.66237 7.0949 7.68025 7.0969 7.69813 7.09793C7.70795 7.09891 7.71781 7.10091 7.72762 7.10193C7.77335 7.10601 7.81877 7.11368 7.86353 7.12489C7.90245 7.1327 7.94092 7.14305 7.97876 7.15587C8.00561 7.16388 8.03153 7.17382 8.05746 7.1838C8.06997 7.18883 8.08248 7.19383 8.095 7.1988C8.13792 7.21634 8.17999 7.23633 8.22107 7.25872C8.34668 7.32482 8.46151 7.41393 8.56081 7.52236C8.57421 7.53733 8.58763 7.55229 8.60105 7.56829C8.61624 7.58624 8.63054 7.60423 8.64396 7.62311C8.65468 7.63709 8.66451 7.65107 8.67345 7.66503C8.6815 7.67607 8.68954 7.68703 8.69669 7.69902C8.72885 7.74749 8.75672 7.79932 8.77991 7.8538C8.8032 7.90762 8.82263 7.96341 8.83802 8.02065C8.84808 8.05896 8.85585 8.09798 8.86128 8.13744C8.8674 8.1774 8.87128 8.21776 8.87289 8.25826C8.88006 8.47594 8.87468 8.69365 8.87379 8.95629C8.88036 9.02817 8.87832 9.10071 8.86773 9.172Z" fill="white"/>
<path d="M17.6453 9.20511C17.6354 9.31594 17.5738 9.34395 17.4236 9.35393C16.7119 9.40582 16.3972 9.97407 16.7521 10.5642C16.8397 10.712 16.8129 10.738 16.6547 10.78C16.6323 10.7859 16.61 10.7909 16.5876 10.7949C16.5744 10.7982 16.5609 10.8006 16.5474 10.8019C16.526 10.8059 16.5054 10.8089 16.4839 10.8109C16.432 10.8171 16.3797 10.8197 16.3275 10.8189C16.3096 10.8189 16.2917 10.8179 16.2729 10.8169H16.2675C15.978 10.7989 15.6997 10.6861 15.4673 10.4924C15.453 10.4804 15.4387 10.4674 15.4244 10.4544C15.4038 10.4344 15.3824 10.4144 15.3627 10.3924C15.3511 10.3794 15.3395 10.3674 15.3287 10.3544C15.318 10.3414 15.3074 10.3275 15.2966 10.3145C15.1494 10.1339 15.0611 9.90304 15.0462 9.65938C15.045 9.65151 15.0447 9.6435 15.0453 9.63554C15.0426 9.55367 15.0417 9.47178 15.0417 9.3899C15.0417 9.27707 15.0435 9.16521 15.0435 9.05238C15.044 9.04871 15.044 9.045 15.0435 9.04134C15.0444 9.01243 15.0444 8.98445 15.0444 8.95554H15.0435C15.0435 8.87366 15.0426 8.79076 15.0417 8.70889C15.0408 8.56607 15.04 8.42428 15.0444 8.28244C15.0623 7.67629 15.5567 7.17888 16.1861 7.10311H16.1878C16.2281 7.09808 16.2683 7.09596 16.3095 7.0951C16.3256 7.09408 16.3408 7.09408 16.356 7.09408C16.3718 7.09342 16.3876 7.09376 16.4033 7.0951C16.4239 7.09608 16.4445 7.0971 16.4651 7.09911C16.7168 7.1241 16.9586 7.22033 17.1678 7.37869C17.1758 7.3847 17.1848 7.39168 17.1928 7.39869C17.2017 7.40567 17.2099 7.41263 17.2187 7.41966C17.2339 7.43178 17.2485 7.44476 17.2625 7.45856C17.2751 7.47048 17.2876 7.48256 17.2992 7.49455C17.3083 7.50301 17.3169 7.51201 17.3251 7.52151L17.3627 7.56346C17.3761 7.57945 17.3895 7.59642 17.4029 7.61339C17.4092 7.62138 17.4154 7.63036 17.4217 7.63937C17.552 7.81509 17.6288 8.03268 17.6407 8.26048C17.6488 8.47421 17.6425 8.68794 17.6425 8.90262V8.95651C17.6425 8.99546 17.6434 9.03443 17.6443 9.07435C17.6445 9.11726 17.6445 9.16118 17.6453 9.20511Z" fill="#4A4E69"/>
<path d="M15.0465 9.63395C15.0365 9.44022 15.0429 9.24451 15.0447 9.05078C15.0447 9.16362 15.0429 9.27547 15.0429 9.38831C15.0429 9.47023 15.0438 9.55208 15.0465 9.63395Z" fill="#4A4E69"/>
<path d="M15.3293 10.3532C15.3221 10.3452 15.315 10.3372 15.3087 10.3293C15.3016 10.3213 15.2962 10.3133 15.2899 10.3054C15.2832 10.2979 15.2769 10.2899 15.2712 10.2814L15.2685 10.2784C15.2514 10.2555 15.2345 10.2315 15.2194 10.2065C15.2046 10.184 15.1909 10.1607 15.1783 10.1366C15.1647 10.1125 15.1524 10.0875 15.1417 10.0617C15.1354 10.0499 15.13 10.0375 15.1256 10.0248C15.1187 10.0099 15.1127 9.99454 15.1077 9.97878C15.1023 9.96381 15.097 9.94987 15.0925 9.9349C15.0898 9.92689 15.088 9.91891 15.0853 9.90992C15.0817 9.89691 15.0782 9.88497 15.0755 9.87193C15.0646 9.82843 15.0568 9.78402 15.0523 9.73912C15.0505 9.72215 15.0487 9.7062 15.0478 9.68919C15.0469 9.67918 15.0469 9.66821 15.0469 9.6582C15.0618 9.90186 15.15 10.1327 15.2972 10.3133C15.3078 10.3262 15.3186 10.3402 15.3293 10.3532Z" fill="#4A4E69"/>
<path d="M16.3551 7.0927C16.3399 7.0927 16.3247 7.0927 16.3086 7.09361C16.316 7.09256 16.3235 7.09197 16.331 7.09183C16.339 7.09169 16.3471 7.09198 16.3551 7.0927Z" fill="#4A4E69"/>
<path d="M17.1676 7.37724C16.9584 7.21888 16.7165 7.12265 16.4648 7.09766C16.4952 7.09966 16.5265 7.10364 16.5569 7.10862C16.5971 7.11463 16.6374 7.12359 16.6767 7.1336C16.6928 7.13758 16.708 7.14158 16.7241 7.14657C16.7554 7.15558 16.7867 7.16563 16.8162 7.17755C16.835 7.18456 16.8537 7.19154 16.8717 7.19953C16.9021 7.21252 16.9316 7.22651 16.9602 7.24243C16.9664 7.24481 16.9724 7.24783 16.9781 7.25144C17.0013 7.26342 17.0237 7.2764 17.0451 7.29036C17.0568 7.29737 17.0684 7.30435 17.0791 7.31234C17.0997 7.32533 17.1193 7.33932 17.139 7.35429C17.1444 7.35829 17.1488 7.36125 17.1533 7.36525C17.1583 7.36887 17.1631 7.37288 17.1676 7.37724Z" fill="#4A4E69"/>
<path d="M17.6463 9.14815C17.6474 9.16711 17.6471 9.18614 17.6454 9.20505C17.6445 9.16112 17.6445 9.11719 17.6445 9.07422C17.6446 9.0992 17.6454 9.12317 17.6463 9.14815Z" fill="#4A4E69"/>
<path d="M8.87282 8.95688V9.01578C8.86836 9.06674 8.86657 9.11867 8.86657 9.17259C8.86135 9.20288 8.85295 9.23238 8.84154 9.26047C8.77001 9.43122 8.53398 9.32537 8.37662 9.37831C7.8965 9.54108 7.66495 10.0714 7.94212 10.5077C8.08159 10.7294 7.98593 10.7564 7.79727 10.7903C7.74489 10.7998 7.69206 10.8058 7.63904 10.8083C7.59019 10.8115 7.54121 10.8111 7.4924 10.8073C7.479 10.8063 7.46466 10.8054 7.45128 10.8043C7.43779 10.8036 7.42434 10.802 7.41103 10.7994C7.37796 10.7954 7.34578 10.7894 7.3136 10.7824C7.30363 10.7813 7.29375 10.7793 7.28409 10.7764C7.25191 10.7704 7.2215 10.7624 7.1902 10.7544C7.18531 10.7536 7.18051 10.7523 7.17588 10.7504C7.15712 10.7444 7.13834 10.7385 7.1204 10.7324C7.08999 10.7214 7.0596 10.7105 7.03011 10.6975C6.98987 10.6805 6.94962 10.6605 6.91119 10.6396C6.89331 10.6296 6.87632 10.6196 6.85932 10.6096C6.8173 10.5836 6.77707 10.5557 6.73768 10.5257C6.69927 10.4947 6.66262 10.4628 6.62772 10.4299C6.59998 10.4029 6.57316 10.3739 6.54813 10.345C6.53562 10.33 6.5231 10.315 6.51059 10.299C6.49447 10.2781 6.47927 10.2571 6.46499 10.2361C6.45515 10.2221 6.44621 10.2072 6.43725 10.1932C6.3484 10.0478 6.29452 9.87931 6.28079 9.70392C6.26649 9.52315 6.27544 9.33841 6.27631 9.15571C6.27721 9.08287 6.27008 9.00696 6.26564 8.93307V8.88612C6.27012 8.83618 6.27189 8.78425 6.27189 8.73131V8.73033C6.24174 8.44584 6.26797 8.15742 6.34872 7.8855C6.45496 7.64689 6.61887 7.44625 6.82191 7.3063C7.02495 7.16634 7.259 7.09265 7.49759 7.09356C7.54614 7.09091 7.59479 7.09125 7.64331 7.09459C7.66119 7.09556 7.67907 7.09757 7.69696 7.09859C7.70677 7.09957 7.71663 7.10157 7.72645 7.1026C7.76936 7.10755 7.81229 7.11556 7.85431 7.12453C7.89633 7.13349 7.93753 7.14359 7.97767 7.15651C8.00362 7.1655 8.03044 7.17446 8.05637 7.18445C8.06887 7.18947 8.08139 7.19447 8.0939 7.19944C8.13682 7.21698 8.1789 7.23697 8.21998 7.25936C8.34463 7.32731 8.45921 7.41623 8.55971 7.523C8.57311 7.53797 8.58654 7.55294 8.59996 7.56893C8.61515 7.58688 8.62945 7.60487 8.64287 7.62375C8.65358 7.63773 8.66341 7.65171 8.67236 7.66567C8.77741 7.82028 8.84153 8.00469 8.85744 8.19796C8.87173 8.37974 8.86281 8.56346 8.86192 8.74721C8.86211 8.81604 8.86836 8.887 8.87282 8.95688Z" fill="#4A4E69"/>
<path d="M6.4365 10.1938C6.33337 10.033 6.27409 9.84222 6.26578 9.64459C6.25772 9.42293 6.26399 9.20221 6.26489 8.93359C6.26937 9.00748 6.2765 9.0834 6.27556 9.15624C6.27468 9.33901 6.26574 9.52375 6.28004 9.70444C6.29375 9.87985 6.34763 10.0484 6.4365 10.1938Z" fill="#4A4E69"/>
<path d="M7.41027 10.7989C7.37216 10.7957 7.33425 10.79 7.29675 10.7819C7.27886 10.7779 7.26096 10.7739 7.244 10.7689C7.22559 10.765 7.20739 10.76 7.18945 10.7539C7.22074 10.7619 7.25114 10.7699 7.28335 10.7759C7.29301 10.7789 7.30288 10.7808 7.31286 10.7819C7.34501 10.7888 7.37719 10.7949 7.41027 10.7989Z" fill="#4A4E69"/>
<path d="M8.56044 7.52341C8.45993 7.41664 8.34535 7.32772 8.2207 7.25977C8.34632 7.32587 8.46115 7.41498 8.56044 7.52341Z" fill="#4A4E69"/>
<path d="M8.86719 9.17274C8.86719 9.11882 8.869 9.06689 8.8735 9.01593V8.95703C8.88007 9.02892 8.87795 9.10147 8.86719 9.17274Z" fill="#4A4E69"/>
<path d="M14.9277 15.8526C14.5819 16.3523 14.1382 16.7569 13.6306 17.0353C13.1231 17.3136 12.5651 17.4584 11.9997 17.4584C11.4342 17.4584 10.8763 17.3136 10.3687 17.0353C9.86114 16.7569 9.41743 16.3523 9.07165 15.8526C9.00725 15.7582 8.96776 15.6455 8.95766 15.5273C8.94756 15.4091 8.96723 15.2902 9.01447 15.1838C9.06171 15.0775 9.13462 14.988 9.22498 14.9255C9.31534 14.863 9.41955 14.8299 9.52583 14.8301H14.4726C14.5789 14.83 14.6831 14.863 14.7735 14.9255C14.8638 14.988 14.9368 15.0774 14.9841 15.1837C15.0314 15.29 15.0512 15.4089 15.0412 15.5271C15.0313 15.6453 14.9919 15.758 14.9277 15.8526Z" fill="white"/>
</svg>
