<svg width="152" height="47" viewBox="0 0 152 47" fill="none" xmlns="http://www.w3.org/2000/svg">
<g clip-path="url(#clip0_705_6130)">
<path d="M65.4203 32.9586L65.3066 32.8741C65.0292 32.6266 64.8073 32.324 64.6556 31.9859C64.5038 31.6479 64.4255 31.282 64.4258 30.912C64.4262 30.734 64.4437 30.5564 64.4779 30.3816C64.4478 30.5521 64.432 30.7248 64.4305 30.8979C64.4303 31.2679 64.5086 31.6338 64.6603 31.9718C64.8121 32.3099 65.0339 32.6125 65.3114 32.86C65.3493 32.8929 65.3824 32.9304 65.4203 32.9586Z" fill="#4A4E69"/>
<path d="M91.9092 22.2518V33.5931C91.9092 34.2428 91.6488 34.8658 91.1854 35.3252C90.7219 35.7846 90.0933 36.0427 89.4379 36.0427C89.0721 36.0427 88.7099 35.9713 88.3719 35.8325C88.034 35.6938 87.7269 35.4904 87.4683 35.2341C87.2096 34.9777 87.0045 34.6734 86.8645 34.3384C86.7245 34.0034 86.6525 33.6445 86.6525 33.2819V22.2518C86.6486 21.9096 86.7169 21.5704 86.8531 21.256C86.9893 20.9415 87.1904 20.6587 87.4434 20.4259C87.7625 20.1031 88.1632 19.8713 88.6036 19.7546H89.9723C90.523 19.9094 91.0088 20.2358 91.3576 20.6856C91.7065 21.1353 91.8999 21.6846 91.9092 22.2518Z" fill="#4A4E69"/>
<path d="M89.9702 19.7546H88.6016C88.8262 19.6903 89.0591 19.6587 89.293 19.6607C89.522 19.661 89.7499 19.6926 89.9702 19.7546Z" fill="#4A4E69"/>
<path d="M91.9092 13.7358C91.9092 14.4267 91.6323 15.0893 91.1394 15.5779C90.6465 16.0664 89.978 16.3409 89.2809 16.3409C88.5838 16.3409 87.9153 16.0664 87.4223 15.5779C86.9294 15.0893 86.6525 14.4267 86.6525 13.7358C86.6484 13.3933 86.7165 13.0537 86.8525 12.7388C86.9884 12.4239 87.1892 12.1406 87.4421 11.9071C87.6838 11.6636 87.9723 11.4707 88.2906 11.3397C88.609 11.2088 88.9506 11.1425 89.2952 11.1448C89.9855 11.1543 90.6448 11.4303 91.133 11.9142C91.6212 12.398 91.8997 13.0515 91.9092 13.7358Z" fill="#4A4E69"/>
<path d="M82.7856 28.2882C82.8115 29.782 82.3643 31.2463 81.5069 32.4752C80.6489 33.5875 79.5284 34.474 78.244 35.0569C76.9111 35.6998 75.4396 36.0092 73.9581 35.9581C73.1239 35.9485 72.2927 35.8573 71.4765 35.6858C69.4267 35.2589 67.4875 34.4184 65.7794 33.2168C65.6989 33.1652 65.6184 33.1089 65.5426 33.0525L65.5379 33.0478C65.5 33.0197 65.4574 32.9915 65.4195 32.9587C65.3816 32.9305 65.3484 32.8929 65.3105 32.8601C65.0331 32.6126 64.8113 32.31 64.6595 31.9719C64.5078 31.6339 64.4294 31.268 64.4297 30.898C64.4311 30.7249 64.447 30.5522 64.477 30.3817C64.5323 30.1103 64.6332 29.8501 64.7754 29.6119L65.4621 28.8374C65.9357 28.4523 66.5308 28.2446 67.1433 28.2506C67.6757 28.2533 68.1951 28.4135 68.6351 28.7106C68.6587 28.7294 68.6872 28.7482 68.7108 28.767C68.7582 28.8045 68.8103 28.8374 68.8577 28.8702C69.9377 29.6603 71.1713 30.2197 72.4805 30.5131L72.561 30.5225C73.0205 30.6192 73.4884 30.6711 73.9581 30.6774C74.6528 30.6861 75.3412 30.5452 75.9755 30.2643C76.3942 30.1242 76.7587 29.8589 77.0191 29.5051C77.2794 29.1512 77.4228 28.7261 77.4294 28.2882C77.4212 28.0034 77.3325 27.7266 77.1735 27.4892C77.0144 27.2519 76.7913 27.0636 76.5296 26.9457C75.618 26.4633 74.6297 26.1395 73.6076 25.9881C73.153 25.913 69.7338 25.2089 68.1283 24.3312C67.0833 23.7125 66.2032 22.8546 65.5615 21.8293C64.9597 20.7971 64.6505 19.6229 64.6665 18.4309C64.6845 17.0373 65.1143 15.6796 65.9025 14.5255C66.7249 13.4682 67.7921 12.6229 69.0139 12.0612C70.3114 11.4572 71.7291 11.1493 73.1625 11.1599C73.7675 11.173 74.3714 11.2184 74.9716 11.2961C76.7241 11.6135 78.3972 12.2672 79.8968 13.2206C79.9962 13.2816 80.0957 13.3473 80.1904 13.4083C80.1951 13.413 80.2046 13.4177 80.2093 13.4271C80.5491 13.673 80.8262 13.9941 81.0186 14.3649C81.211 14.7357 81.3133 15.1459 81.3175 15.5629C81.3156 16.0321 81.19 16.4926 80.9531 16.8989C80.7162 17.3051 80.3763 17.6429 79.967 17.8787C79.5577 18.1145 79.0934 18.2401 78.62 18.2431C78.1466 18.2461 77.6807 18.1264 77.2684 17.8958C77.1453 17.8113 77.0269 17.7315 76.9085 17.6611L76.9038 17.6564C75.7887 16.9012 74.4791 16.4778 73.1293 16.4359C72.4887 16.4343 71.8547 16.5654 71.2682 16.8208C70.935 16.9459 70.6428 17.1591 70.4233 17.4371C70.2037 17.7151 70.0652 18.0475 70.0227 18.398C70.0077 18.6457 70.0649 18.8925 70.1875 19.1089C70.3101 19.3253 70.4929 19.5022 70.7141 19.6184C71.2776 20.0033 72.1869 20.3178 73.6597 20.6323C73.8492 20.6652 74.1239 20.7309 74.4033 20.8013C75.9708 21.097 77.7704 21.5054 79.0728 22.2658C80.1991 22.8477 81.1476 23.7181 81.8195 24.7865C82.4634 25.8421 82.7979 27.0547 82.7856 28.2882Z" fill="#4A4E69"/>
<path d="M68.8597 28.8701C68.8124 28.8373 68.7603 28.8044 68.7129 28.7669C68.6892 28.7481 68.6608 28.7293 68.6371 28.7105C68.1972 28.4134 67.6777 28.2533 67.1454 28.2505C66.5329 28.2446 65.9378 28.4523 65.4642 28.8373L64.7775 29.6118C64.7772 29.6092 64.7774 29.6066 64.7782 29.6042C64.7791 29.6018 64.7804 29.5995 64.7822 29.5977C64.9068 29.3833 65.0633 29.1886 65.2463 29.0203C65.317 28.9509 65.3913 28.8851 65.4689 28.8232C65.9425 28.4382 66.5376 28.2305 67.1501 28.2365C67.6825 28.2392 68.2019 28.3993 68.6419 28.6965C68.6655 28.7152 68.694 28.734 68.7176 28.7528C68.7673 28.7891 68.8147 28.8283 68.8597 28.8701Z" fill="#4A4E69"/>
<path d="M77.2701 17.8956L77.2417 17.8815C77.1255 17.8167 77.0146 17.743 76.9102 17.6609C77.0286 17.7313 77.1469 17.8111 77.2701 17.8956Z" fill="#4A4E69"/>
<path d="M80.1921 13.4082C80.0973 13.3472 79.9979 13.2815 79.8984 13.2205C79.9742 13.2627 80.0453 13.3049 80.1163 13.3519C80.14 13.3707 80.1684 13.3895 80.1921 13.4082Z" fill="#4A4E69"/>
<path d="M151.513 13.7369C151.513 14.4278 151.236 15.0904 150.743 15.579C150.25 16.0675 149.581 16.342 148.884 16.342C148.187 16.342 147.519 16.0675 147.026 15.579C146.533 15.0904 146.256 14.4278 146.256 13.7369C146.252 13.394 146.32 13.0541 146.457 12.7388C146.593 12.4236 146.794 12.14 147.047 11.9062C147.289 11.6633 147.577 11.4709 147.895 11.3403C148.213 11.2097 148.554 11.1435 148.899 11.1458C149.589 11.1551 150.248 11.4311 150.737 11.915C151.225 12.399 151.503 13.0526 151.513 13.7369Z" fill="#4A4E69"/>
<path d="M122.305 27.2225V36.0424H117.214V27.2225C117.225 26.8566 117.162 26.4921 117.029 26.1509C116.895 25.8096 116.694 25.4983 116.436 25.2356C116.179 24.9729 115.871 24.7641 115.531 24.6215C115.191 24.4788 114.825 24.4053 114.456 24.4053C114.086 24.4053 113.721 24.4788 113.381 24.6215C113.04 24.7641 112.733 24.9729 112.475 25.2356C112.218 25.4983 112.017 25.8096 111.883 26.1509C111.749 26.4921 111.686 26.8566 111.697 27.2225L111.687 36.0424H106.577L106.606 27.2225C106.61 26.4915 106.325 25.7882 105.813 25.2622C105.301 24.7362 104.602 24.429 103.864 24.4061C103.13 24.4377 102.436 24.7476 101.926 25.2717C101.416 25.7958 101.128 26.4942 101.122 27.2225L101.123 36.0424H96.0312V19.7544H101.122V20.3083C101.925 19.7506 102.884 19.4538 103.864 19.4587C104.909 19.4608 105.942 19.6749 106.9 20.0877C107.725 20.4719 108.487 20.9749 109.164 21.5804C109.831 20.9656 110.596 20.463 111.427 20.0924C112.388 19.6768 113.424 19.4611 114.472 19.4587C115.503 19.4514 116.525 19.6473 117.479 20.0348C118.432 20.4224 119.299 20.994 120.028 21.7164C120.756 22.4388 121.333 23.2976 121.724 24.2428C122.115 25.1881 122.313 26.2009 122.305 27.2225Z" fill="#4A4E69"/>
<path d="M140.304 21.8667C139.524 21.096 138.597 20.4863 137.578 20.0729C136.559 19.6596 135.467 19.4508 134.365 19.4587C133.13 19.4502 131.925 19.8353 130.927 20.5571V11.1458H125.969V36.0425H130.927V35.1178C131.946 35.7773 133.15 36.101 134.365 36.0425C136.024 36.0467 137.647 35.5626 139.028 34.6514C140.409 33.7403 141.485 32.4433 142.122 30.9248C142.758 29.4062 142.925 27.7347 142.601 26.1221C142.277 24.5095 141.478 23.0284 140.304 21.8667ZM134.365 31.2593C133.661 31.2797 132.966 31.0913 132.371 30.7182C131.775 30.3452 131.305 29.8044 131.021 29.1651C130.737 28.5258 130.652 27.8171 130.776 27.1296C130.901 26.4421 131.23 25.8071 131.721 25.3059C132.212 24.8047 132.842 24.46 133.532 24.3159C134.221 24.1719 134.939 24.235 135.592 24.4973C136.245 24.7595 136.804 25.209 137.198 25.7881C137.592 26.3673 137.803 27.0498 137.803 27.7483C137.805 28.6621 137.446 29.5405 136.804 30.1963C136.162 30.8521 135.287 31.2335 134.365 31.2593Z" fill="#4A4E69"/>
<path d="M151.513 22.4633V33.4659C151.513 34.1492 151.239 34.8045 150.751 35.2877C150.264 35.7708 149.603 36.0423 148.913 36.0423C148.209 36.0423 147.533 35.7648 147.034 35.2708C146.536 34.7769 146.256 34.107 146.256 33.4084V22.3455C146.253 22.0027 146.321 21.6629 146.457 21.3478C146.594 21.0327 146.794 20.749 147.047 20.5148C147.513 20.046 148.144 19.7741 148.808 19.7559C149.166 19.756 149.519 19.8263 149.849 19.9627C150.179 20.0991 150.478 20.299 150.73 20.5507C150.981 20.8025 151.18 21.1011 151.314 21.4294C151.449 21.7576 151.516 22.109 151.513 22.4633Z" fill="#4A4E69"/>
<path d="M14.4161 17.1558C14.4161 17.26 14.4122 17.3623 14.4021 17.4606V17.5531C14.3885 17.4206 14.3932 17.287 14.4161 17.1558Z" fill="#3A86FF"/>
<path d="M14.7824 20.0348C14.5535 19.718 14.422 19.3424 14.4036 18.9532C14.3857 18.5166 14.3996 18.082 14.4016 17.553C14.4115 17.6985 14.4273 17.848 14.4252 17.9914C14.4233 18.3514 14.4035 18.7152 14.4352 19.071C14.4656 19.4165 14.5852 19.7484 14.7824 20.0348Z" fill="#3A86FF"/>
<path d="M16.9432 21.2287C16.8586 21.2225 16.7745 21.2113 16.6912 21.1952C16.6516 21.1873 16.6118 21.1795 16.5742 21.1696C16.5333 21.1619 16.4929 21.1521 16.4531 21.1401C16.5226 21.1559 16.59 21.1716 16.6615 21.1835C16.6829 21.1893 16.7049 21.1932 16.727 21.1952C16.7984 21.2089 16.8698 21.2208 16.9432 21.2287Z" fill="#3A86FF"/>
<path d="M18.2035 14.0545C18.1142 14.0289 18.0229 14.0092 17.9297 13.9915C17.9357 13.9912 17.9417 13.9919 17.9475 13.9936C18.034 14.0089 18.1194 14.0293 18.2035 14.0545Z" fill="#3A86FF"/>
<path d="M19.4942 14.776C19.2712 14.5658 19.0169 14.3907 18.7402 14.2568C19.019 14.387 19.2739 14.5625 19.4942 14.776Z" fill="#3A86FF"/>
<path d="M20.1885 17.6004C20.1786 17.4627 20.1648 17.323 20.1648 17.1873C20.1668 16.8254 20.1866 16.4636 20.1549 16.1056C20.1196 15.725 19.9773 15.3618 19.7441 15.0574C19.762 15.0791 19.7798 15.1007 19.7957 15.1243C19.8671 15.2198 19.9289 15.3218 19.9804 15.4291C20.0321 15.5351 20.0752 15.645 20.1094 15.7577C20.1317 15.8332 20.1489 15.91 20.161 15.9877C20.1746 16.0664 20.1832 16.1459 20.1867 16.2257C20.2024 16.6544 20.1905 17.083 20.1885 17.6004Z" fill="#3A86FF"/>
<path d="M20.1758 18.0251C20.1758 17.919 20.1798 17.8167 20.1898 17.7163V17.6003C20.2044 17.7419 20.1997 17.8848 20.1758 18.0251Z" fill="#3A86FF"/>
<path d="M39.6456 16.1508C39.642 16.0948 39.6354 16.0389 39.6257 15.9836C39.626 15.9789 39.6254 15.9742 39.6237 15.9699C39.6178 15.9306 39.6079 15.8893 39.598 15.8499C39.5864 15.7959 39.5712 15.7426 39.5523 15.6906C39.5464 15.6709 39.5404 15.6531 39.5325 15.6336C39.5219 15.6013 39.5093 15.5698 39.4946 15.5392C39.4827 15.5116 39.4709 15.4841 39.4567 15.4566C39.4349 15.4133 39.413 15.3701 39.3892 15.3268C39.3734 15.2993 39.3575 15.2718 39.3396 15.2461C39.3276 15.224 39.3137 15.2029 39.298 15.1832C39.2801 15.1556 39.2623 15.1301 39.2424 15.1046C39.229 15.0847 39.2144 15.0657 39.1988 15.0475C39.1872 15.0322 39.1746 15.0178 39.1609 15.0043C39.4501 15.3504 39.6204 15.7789 39.647 16.2275C39.6649 16.6484 39.651 17.0693 39.651 17.4921C39.6557 17.0457 39.6773 16.5972 39.6456 16.1508ZM39.6555 17.8303C39.6555 17.9148 39.6555 18.0014 39.6575 18.088C39.6612 18.0507 39.6619 18.0132 39.6595 17.9759C39.6575 17.9267 39.6555 17.8795 39.6555 17.8303ZM39.6535 17.5982H39.6515C39.6515 17.6749 39.6535 17.7517 39.6555 17.8303C39.6535 17.7517 39.6535 17.6749 39.6535 17.5982ZM38.5662 14.4674C38.5563 14.4595 38.5464 14.4537 38.5344 14.4458C38.4908 14.4163 38.4471 14.3887 38.4015 14.3632C38.3778 14.3474 38.3519 14.3337 38.3261 14.3199C38.2785 14.2924 38.2289 14.2669 38.1773 14.2432C38.1646 14.2361 38.1514 14.2302 38.1376 14.2255C38.0741 14.1941 38.0087 14.1665 37.9412 14.141C37.9015 14.1253 37.8598 14.1115 37.818 14.0977C37.7525 14.0742 37.6831 14.0545 37.6136 14.0367C37.5779 14.0269 37.5442 14.019 37.5085 14.0112C37.4212 13.9915 37.3319 13.9736 37.2426 13.962C37.1752 13.9522 37.1077 13.9462 37.0382 13.9404C37.5968 13.9896 38.1336 14.1791 38.5978 14.491C38.5879 14.4824 38.5772 14.4745 38.5662 14.4674ZM36.7429 13.9285C36.7263 13.9289 36.7097 13.9302 36.6933 13.9325C36.729 13.9305 36.7628 13.9305 36.7965 13.9305C36.7786 13.9289 36.7609 13.9282 36.7429 13.9285ZM34.8242 20.6231C35.3359 21.0118 35.956 21.2349 36.6001 21.2622C35.9576 21.2268 35.34 21.0046 34.8242 20.6231ZM33.8897 18.9828C33.8897 19.0025 33.8897 19.0241 33.8916 19.0438C33.8936 19.0773 33.8976 19.1087 33.9016 19.1422C33.9117 19.2306 33.9289 19.318 33.9532 19.4037C33.9591 19.4294 33.967 19.4529 33.9749 19.4785C33.9809 19.4962 33.9849 19.512 33.9909 19.5277C34.0008 19.5572 34.0127 19.5847 34.0246 19.6141C34.0357 19.6452 34.049 19.6754 34.0643 19.7047C34.0741 19.7299 34.0861 19.7542 34.1 19.7774C34.1239 19.8282 34.1511 19.8775 34.1813 19.9249C34.2092 19.9724 34.2397 20.0184 34.2726 20.0626C34.3064 20.1118 34.3441 20.159 34.3815 20.2041L34.3874 20.2101C34.4002 20.2268 34.4141 20.2426 34.4291 20.2573L34.445 20.273C34.1183 19.9173 33.9227 19.4627 33.8897 18.9828ZM33.8837 17.5964C33.8837 17.4351 33.8817 17.2719 33.8797 17.1106C33.8753 17.1464 33.874 17.1826 33.8758 17.2186C33.8797 17.2992 33.8817 17.3779 33.8797 17.4546C33.8817 17.5568 33.8837 17.663 33.8837 17.7652C33.8857 17.7083 33.8857 17.6532 33.8857 17.5963L33.8837 17.5964ZM33.8797 18.4519C33.8797 18.2297 33.8837 18.0094 33.8837 17.7872C33.8797 18.1687 33.8658 18.5541 33.8877 18.9356C33.8815 18.7743 33.8797 18.6132 33.8797 18.4519ZM39.6456 16.1508C39.642 16.0948 39.6354 16.0389 39.6257 15.9836C39.626 15.9789 39.6254 15.9742 39.6237 15.9699C39.6178 15.9306 39.6079 15.8893 39.598 15.8499C39.5864 15.7959 39.5712 15.7426 39.5523 15.6906C39.5464 15.6709 39.5404 15.6531 39.5325 15.6336C39.5219 15.6013 39.5093 15.5698 39.4946 15.5392C39.4827 15.5116 39.4709 15.4841 39.4567 15.4566C39.4349 15.4133 39.413 15.3701 39.3892 15.3268C39.3734 15.2993 39.3575 15.2718 39.3396 15.2461C39.3276 15.224 39.3137 15.2029 39.298 15.1832C39.2801 15.1556 39.2623 15.1301 39.2424 15.1046C39.229 15.0847 39.2144 15.0657 39.1988 15.0475C39.1872 15.0322 39.1746 15.0178 39.1609 15.0043C39.4501 15.3504 39.6204 15.7789 39.647 16.2275C39.6649 16.6484 39.651 17.0693 39.651 17.4921C39.6557 17.0457 39.6773 16.5972 39.6456 16.1508ZM39.6555 17.8303C39.6555 17.9148 39.6555 18.0014 39.6575 18.088C39.6612 18.0507 39.6619 18.0132 39.6595 17.9759C39.6575 17.9267 39.6555 17.8795 39.6555 17.8303ZM39.6535 17.5982H39.6515C39.6515 17.6749 39.6535 17.7517 39.6555 17.8303C39.6535 17.7517 39.6535 17.6749 39.6535 17.5982ZM38.5662 14.4674C38.5563 14.4595 38.5464 14.4537 38.5344 14.4458C38.4908 14.4163 38.4471 14.3887 38.4015 14.3632C38.3778 14.3474 38.3519 14.3337 38.3261 14.3199C38.2785 14.2924 38.2289 14.2669 38.1773 14.2432C38.1646 14.2361 38.1514 14.2302 38.1376 14.2255C38.0741 14.1941 38.0087 14.1665 37.9412 14.141C37.9015 14.1253 37.8598 14.1115 37.818 14.0977C37.7525 14.0742 37.6831 14.0545 37.6136 14.0367C37.5779 14.0269 37.5442 14.019 37.5085 14.0112C37.4212 13.9915 37.3319 13.9736 37.2426 13.962C37.1752 13.9522 37.1077 13.9462 37.0382 13.9404C37.5968 13.9896 38.1336 14.1791 38.5978 14.491C38.5879 14.4824 38.5772 14.4745 38.5662 14.4674ZM36.7429 13.9285C36.7263 13.9289 36.7097 13.9302 36.6933 13.9325C36.729 13.9305 36.7628 13.9305 36.7965 13.9305C36.7786 13.9289 36.7609 13.9282 36.7429 13.9285ZM34.8242 20.6231C35.3359 21.0118 35.956 21.2349 36.6001 21.2622C35.9576 21.2268 35.34 21.0046 34.8242 20.6231ZM33.8897 18.9828C33.8897 19.0025 33.8897 19.0241 33.8916 19.0438C33.8936 19.0773 33.8976 19.1087 33.9016 19.1422C33.9117 19.2306 33.9289 19.318 33.9532 19.4037C33.9591 19.4294 33.967 19.4529 33.9749 19.4785C33.9809 19.4962 33.9849 19.512 33.9909 19.5277C34.0008 19.5572 34.0127 19.5847 34.0246 19.6141C34.0357 19.6452 34.049 19.6754 34.0643 19.7047C34.0741 19.7299 34.0861 19.7542 34.1 19.7774C34.1239 19.8282 34.1511 19.8775 34.1813 19.9249C34.2092 19.9724 34.2397 20.0184 34.2726 20.0626C34.3064 20.1118 34.3441 20.159 34.3815 20.2041L34.3874 20.2101C34.4002 20.2268 34.4141 20.2426 34.4291 20.2573L34.445 20.273C34.1183 19.9173 33.9227 19.4627 33.8897 18.9828ZM33.8837 17.5964C33.8837 17.4351 33.8817 17.2719 33.8797 17.1106C33.8753 17.1464 33.874 17.1826 33.8758 17.2186C33.8797 17.2992 33.8817 17.3779 33.8797 17.4546C33.8817 17.5568 33.8837 17.663 33.8837 17.7652C33.8857 17.7083 33.8857 17.6532 33.8857 17.5963L33.8837 17.5964ZM33.8797 18.4519C33.8797 18.2297 33.8837 18.0094 33.8837 17.7872C33.8797 18.1687 33.8658 18.5541 33.8877 18.9356C33.8815 18.7743 33.8797 18.6132 33.8797 18.4519ZM33.8797 18.4519C33.8797 18.2297 33.8837 18.0094 33.8837 17.7872C33.8797 18.1687 33.8658 18.5541 33.8877 18.9356C33.8815 18.7743 33.8797 18.6132 33.8797 18.4519ZM33.8837 17.5964C33.8837 17.4351 33.8817 17.2719 33.8797 17.1106C33.8753 17.1464 33.874 17.1826 33.8758 17.2186C33.8797 17.2992 33.8817 17.3779 33.8797 17.4546C33.8817 17.5568 33.8837 17.663 33.8837 17.7652C33.8857 17.7083 33.8857 17.6532 33.8857 17.5963L33.8837 17.5964ZM33.8897 18.9828C33.8897 19.0025 33.8897 19.0241 33.8916 19.0438C33.8936 19.0773 33.8976 19.1087 33.9016 19.1422C33.9117 19.2306 33.9289 19.318 33.9532 19.4037C33.9591 19.4294 33.967 19.4529 33.9749 19.4785C33.9809 19.4962 33.9849 19.512 33.9909 19.5277C34.0008 19.5572 34.0127 19.5847 34.0246 19.6141C34.0357 19.6452 34.049 19.6754 34.0643 19.7047C34.0741 19.7299 34.0861 19.7542 34.1 19.7774C34.1239 19.8282 34.1511 19.8775 34.1813 19.9249C34.2092 19.9724 34.2397 20.0184 34.2726 20.0626C34.3064 20.1118 34.3441 20.159 34.3815 20.2041L34.3874 20.2101C34.4002 20.2268 34.4141 20.2426 34.4291 20.2573L34.445 20.273C34.1183 19.9173 33.9227 19.4627 33.8897 18.9828ZM34.8242 20.6231C35.3359 21.0118 35.956 21.2349 36.6001 21.2622C35.9576 21.2268 35.34 21.0046 34.8242 20.6231ZM36.7429 13.9285C36.7263 13.9289 36.7097 13.9302 36.6933 13.9325C36.729 13.9305 36.7628 13.9305 36.7965 13.9305C36.7786 13.9289 36.7609 13.9282 36.7429 13.9285ZM38.5662 14.4674C38.5563 14.4595 38.5464 14.4537 38.5344 14.4458C38.4908 14.4163 38.4471 14.3887 38.4015 14.3632C38.3778 14.3474 38.3519 14.3337 38.3261 14.3199C38.2785 14.2924 38.2289 14.2669 38.1773 14.2432C38.1646 14.2361 38.1514 14.2302 38.1376 14.2255C38.0741 14.1941 38.0087 14.1665 37.9412 14.141C37.9015 14.1253 37.8598 14.1115 37.818 14.0977C37.7525 14.0742 37.6831 14.0545 37.6136 14.0367C37.5779 14.0269 37.5442 14.019 37.5085 14.0112C37.4212 13.9915 37.3319 13.9736 37.2426 13.962C37.1752 13.9522 37.1077 13.9462 37.0382 13.9404C37.5968 13.9896 38.1336 14.1791 38.5978 14.491C38.5879 14.4824 38.5772 14.4745 38.5662 14.4674ZM39.6535 17.5982H39.6515C39.6515 17.6749 39.6535 17.7517 39.6555 17.8303C39.6535 17.7517 39.6535 17.6749 39.6535 17.5982ZM39.6456 16.1508C39.642 16.0948 39.6354 16.0389 39.6257 15.9836C39.626 15.9789 39.6254 15.9742 39.6237 15.9699C39.6178 15.9306 39.6079 15.8893 39.598 15.8499C39.5864 15.7959 39.5712 15.7426 39.5523 15.6906C39.5464 15.6709 39.5404 15.6531 39.5325 15.6336C39.5219 15.6013 39.5093 15.5698 39.4946 15.5392C39.4827 15.5116 39.4709 15.4841 39.4567 15.4566C39.4349 15.4133 39.413 15.3701 39.3892 15.3268C39.3734 15.2993 39.3575 15.2718 39.3396 15.2461C39.3276 15.224 39.3137 15.2029 39.298 15.1832C39.2801 15.1556 39.2623 15.1301 39.2424 15.1046C39.229 15.0847 39.2144 15.0657 39.1988 15.0475C39.1872 15.0322 39.1746 15.0178 39.1609 15.0043C39.4501 15.3504 39.6204 15.7789 39.647 16.2275C39.6649 16.6484 39.651 17.0693 39.651 17.4921C39.6557 17.0457 39.6773 16.5972 39.6456 16.1508ZM39.6555 17.8303C39.6555 17.9148 39.6555 18.0014 39.6575 18.088C39.6612 18.0507 39.6619 18.0132 39.6595 17.9759C39.6575 17.9267 39.6555 17.8795 39.6555 17.8303ZM39.6555 17.8303C39.6555 17.9148 39.6555 18.0014 39.6575 18.088C39.6612 18.0507 39.6619 18.0132 39.6595 17.9759C39.6575 17.9267 39.6555 17.8795 39.6555 17.8303ZM39.6456 16.1508C39.642 16.0948 39.6354 16.0389 39.6257 15.9836C39.626 15.9789 39.6254 15.9742 39.6237 15.9699C39.6178 15.9306 39.6079 15.8893 39.598 15.8499C39.5864 15.7959 39.5712 15.7426 39.5523 15.6906C39.5464 15.6709 39.5404 15.6531 39.5325 15.6336C39.5219 15.6013 39.5093 15.5698 39.4946 15.5392C39.4827 15.5116 39.4709 15.4841 39.4567 15.4566C39.4349 15.4133 39.413 15.3701 39.3892 15.3268C39.3734 15.2993 39.3575 15.2718 39.3396 15.2461C39.3276 15.224 39.3137 15.2029 39.298 15.1832C39.2801 15.1556 39.2623 15.1301 39.2424 15.1046C39.229 15.0847 39.2144 15.0657 39.1988 15.0475C39.1872 15.0322 39.1746 15.0178 39.1609 15.0043C39.4501 15.3504 39.6204 15.7789 39.647 16.2275C39.6649 16.6484 39.651 17.0693 39.651 17.4921C39.6557 17.0457 39.6773 16.5972 39.6456 16.1508ZM39.6535 17.5982H39.6515C39.6515 17.6749 39.6535 17.7517 39.6555 17.8303C39.6535 17.7517 39.6535 17.6749 39.6535 17.5982ZM38.5662 14.4674C38.5563 14.4595 38.5464 14.4537 38.5344 14.4458C38.4908 14.4163 38.4471 14.3887 38.4015 14.3632C38.3778 14.3474 38.3519 14.3337 38.3261 14.3199C38.2785 14.2924 38.2289 14.2669 38.1773 14.2432C38.1646 14.2361 38.1514 14.2302 38.1376 14.2255C38.0741 14.1941 38.0087 14.1665 37.9412 14.141C37.9015 14.1253 37.8598 14.1115 37.818 14.0977C37.7525 14.0742 37.6831 14.0545 37.6136 14.0367C37.5779 14.0269 37.5442 14.019 37.5085 14.0112C37.4212 13.9915 37.3319 13.9736 37.2426 13.962C37.1752 13.9522 37.1077 13.9462 37.0382 13.9404C37.5968 13.9896 38.1336 14.1791 38.5978 14.491C38.5879 14.4824 38.5772 14.4745 38.5662 14.4674ZM36.7429 13.9285C36.7263 13.9289 36.7097 13.9302 36.6933 13.9325C36.729 13.9305 36.7628 13.9305 36.7965 13.9305C36.7786 13.9289 36.7609 13.9282 36.7429 13.9285ZM34.8242 20.6231C35.3359 21.0118 35.956 21.2349 36.6001 21.2622C35.9576 21.2268 35.34 21.0046 34.8242 20.6231ZM33.8897 18.9828C33.8897 19.0025 33.8897 19.0241 33.8916 19.0438C33.8936 19.0773 33.8976 19.1087 33.9016 19.1422C33.9117 19.2306 33.9289 19.318 33.9532 19.4037C33.9591 19.4294 33.967 19.4529 33.9749 19.4785C33.9809 19.4962 33.9849 19.512 33.9909 19.5277C34.0008 19.5572 34.0127 19.5847 34.0246 19.6141C34.0357 19.6452 34.049 19.6754 34.0643 19.7047C34.0741 19.7299 34.0861 19.7542 34.1 19.7774C34.1239 19.8282 34.1511 19.8775 34.1813 19.9249C34.2092 19.9724 34.2397 20.0184 34.2726 20.0626C34.3064 20.1118 34.3441 20.159 34.3815 20.2041L34.3874 20.2101C34.4002 20.2268 34.4141 20.2426 34.4291 20.2573L34.445 20.273C34.1183 19.9173 33.9227 19.4627 33.8897 18.9828ZM33.8837 17.5964C33.8837 17.4351 33.8817 17.2719 33.8797 17.1106C33.8753 17.1464 33.874 17.1826 33.8758 17.2186C33.8797 17.2992 33.8817 17.3779 33.8797 17.4546C33.8817 17.5568 33.8837 17.663 33.8837 17.7652C33.8857 17.7083 33.8857 17.6532 33.8857 17.5963L33.8837 17.5964ZM33.8797 18.4519C33.8797 18.2297 33.8837 18.0094 33.8837 17.7872C33.8797 18.1687 33.8658 18.5541 33.8877 18.9356C33.8815 18.7743 33.8797 18.6132 33.8797 18.4519ZM33.8797 18.4519C33.8797 18.2297 33.8837 18.0094 33.8837 17.7872C33.8797 18.1687 33.8658 18.5541 33.8877 18.9356C33.8815 18.7743 33.8797 18.6132 33.8797 18.4519ZM33.8837 17.5964C33.8837 17.4351 33.8817 17.2719 33.8797 17.1106C33.8753 17.1464 33.874 17.1826 33.8758 17.2186C33.8797 17.2992 33.8817 17.3779 33.8797 17.4546C33.8817 17.5568 33.8837 17.663 33.8837 17.7652C33.8857 17.7083 33.8857 17.6532 33.8857 17.5963L33.8837 17.5964ZM33.8897 18.9828C33.8897 19.0025 33.8897 19.0241 33.8916 19.0438C33.8936 19.0773 33.8976 19.1087 33.9016 19.1422C33.9117 19.2306 33.9289 19.318 33.9532 19.4037C33.9591 19.4294 33.967 19.4529 33.9749 19.4785C33.9809 19.4962 33.9849 19.512 33.9909 19.5277C34.0008 19.5572 34.0127 19.5847 34.0246 19.6141C34.0357 19.6452 34.049 19.6754 34.0643 19.7047C34.0741 19.7299 34.0861 19.7542 34.1 19.7774C34.1239 19.8282 34.1511 19.8775 34.1813 19.9249C34.2092 19.9724 34.2397 20.0184 34.2726 20.0626C34.3064 20.1118 34.3441 20.159 34.3815 20.2041L34.3874 20.2101C34.4002 20.2268 34.4141 20.2426 34.4291 20.2573L34.445 20.273C34.1183 19.9173 33.9227 19.4627 33.8897 18.9828ZM34.8242 20.6231C35.3359 21.0118 35.956 21.2349 36.6001 21.2622C35.9576 21.2268 35.34 21.0046 34.8242 20.6231ZM36.7429 13.9285C36.7263 13.9289 36.7097 13.9302 36.6933 13.9325C36.729 13.9305 36.7628 13.9305 36.7965 13.9305C36.7786 13.9289 36.7609 13.9282 36.7429 13.9285ZM38.5662 14.4674C38.5563 14.4595 38.5464 14.4537 38.5344 14.4458C38.4908 14.4163 38.4471 14.3887 38.4015 14.3632C38.3778 14.3474 38.3519 14.3337 38.3261 14.3199C38.2785 14.2924 38.2289 14.2669 38.1773 14.2432C38.1646 14.2361 38.1514 14.2302 38.1376 14.2255C38.0741 14.1941 38.0087 14.1665 37.9412 14.141C37.9015 14.1253 37.8598 14.1115 37.818 14.0977C37.7525 14.0742 37.6831 14.0545 37.6136 14.0367C37.5779 14.0269 37.5442 14.019 37.5085 14.0112C37.4212 13.9915 37.3319 13.9736 37.2426 13.962C37.1752 13.9522 37.1077 13.9462 37.0382 13.9404C37.5968 13.9896 38.1336 14.1791 38.5978 14.491C38.5879 14.4824 38.5772 14.4745 38.5662 14.4674ZM39.6535 17.5982H39.6515C39.6515 17.6749 39.6535 17.7517 39.6555 17.8303C39.6535 17.7517 39.6535 17.6749 39.6535 17.5982ZM39.6456 16.1508C39.642 16.0948 39.6354 16.0389 39.6257 15.9836C39.626 15.9789 39.6254 15.9742 39.6237 15.9699C39.6178 15.9306 39.6079 15.8893 39.598 15.8499C39.5864 15.7959 39.5712 15.7426 39.5523 15.6906C39.5464 15.6709 39.5404 15.6531 39.5325 15.6336C39.5219 15.6013 39.5093 15.5698 39.4946 15.5392C39.4827 15.5116 39.4709 15.4841 39.4567 15.4566C39.4349 15.4133 39.413 15.3701 39.3892 15.3268C39.3734 15.2993 39.3575 15.2718 39.3396 15.2461C39.3276 15.224 39.3137 15.2029 39.298 15.1832C39.2801 15.1556 39.2623 15.1301 39.2424 15.1046C39.229 15.0847 39.2144 15.0657 39.1988 15.0475C39.1872 15.0322 39.1746 15.0178 39.1609 15.0043C39.4501 15.3504 39.6204 15.7789 39.647 16.2275C39.6649 16.6484 39.651 17.0693 39.651 17.4921C39.6557 17.0457 39.6773 16.5972 39.6456 16.1508ZM39.6555 17.8303C39.6555 17.9148 39.6555 18.0014 39.6575 18.088C39.6612 18.0507 39.6619 18.0132 39.6595 17.9759C39.6575 17.9267 39.6555 17.8795 39.6555 17.8303ZM39.6555 17.8303C39.6555 17.9148 39.6555 18.0014 39.6575 18.088C39.6612 18.0507 39.6619 18.0132 39.6595 17.9759C39.6575 17.9267 39.6555 17.8795 39.6555 17.8303ZM39.6456 16.1508C39.642 16.0948 39.6354 16.0389 39.6257 15.9836C39.626 15.9789 39.6254 15.9742 39.6237 15.9699C39.6178 15.9306 39.6079 15.8893 39.598 15.8499C39.5864 15.7959 39.5712 15.7426 39.5523 15.6906C39.5464 15.6709 39.5404 15.6531 39.5325 15.6336C39.5219 15.6013 39.5093 15.5698 39.4946 15.5392C39.4827 15.5116 39.4709 15.4841 39.4567 15.4566C39.4349 15.4133 39.413 15.3701 39.3892 15.3268C39.3734 15.2993 39.3575 15.2718 39.3396 15.2461C39.3276 15.224 39.3137 15.2029 39.298 15.1832C39.2801 15.1556 39.2623 15.1301 39.2424 15.1046C39.229 15.0847 39.2144 15.0657 39.1988 15.0475C39.1872 15.0322 39.1746 15.0178 39.1609 15.0043C39.4501 15.3504 39.6204 15.7789 39.647 16.2275C39.6649 16.6484 39.651 17.0693 39.651 17.4921C39.6557 17.0457 39.6773 16.5972 39.6456 16.1508ZM39.6535 17.5982H39.6515C39.6515 17.6749 39.6535 17.7517 39.6555 17.8303C39.6535 17.7517 39.6535 17.6749 39.6535 17.5982ZM38.5662 14.4674C38.5563 14.4595 38.5464 14.4537 38.5344 14.4458C38.4908 14.4163 38.4471 14.3887 38.4015 14.3632C38.3778 14.3474 38.3519 14.3337 38.3261 14.3199C38.2785 14.2924 38.2289 14.2669 38.1773 14.2432C38.1646 14.2361 38.1514 14.2302 38.1376 14.2255C38.0741 14.1941 38.0087 14.1665 37.9412 14.141C37.9015 14.1253 37.8598 14.1115 37.818 14.0977C37.7525 14.0742 37.6831 14.0545 37.6136 14.0367C37.5779 14.0269 37.5442 14.019 37.5085 14.0112C37.4212 13.9915 37.3319 13.9736 37.2426 13.962C37.1752 13.9522 37.1077 13.9462 37.0382 13.9404C37.5968 13.9896 38.1336 14.1791 38.5978 14.491C38.5879 14.4824 38.5772 14.4745 38.5662 14.4674ZM36.7429 13.9285C36.7263 13.9289 36.7097 13.9302 36.6933 13.9325C36.729 13.9305 36.7628 13.9305 36.7965 13.9305C36.7786 13.9289 36.7609 13.9282 36.7429 13.9285ZM34.8242 20.6231C35.3359 21.0118 35.956 21.2349 36.6001 21.2622C35.9576 21.2268 35.34 21.0046 34.8242 20.6231ZM33.8897 18.9828C33.8897 19.0025 33.8897 19.0241 33.8916 19.0438C33.8936 19.0773 33.8976 19.1087 33.9016 19.1422C33.9117 19.2306 33.9289 19.318 33.9532 19.4037C33.9591 19.4294 33.967 19.4529 33.9749 19.4785C33.9809 19.4962 33.9849 19.512 33.9909 19.5277C34.0008 19.5572 34.0127 19.5847 34.0246 19.6141C34.0357 19.6452 34.049 19.6754 34.0643 19.7047C34.0741 19.7299 34.0861 19.7542 34.1 19.7774C34.1239 19.8282 34.1511 19.8775 34.1813 19.9249C34.2092 19.9724 34.2397 20.0184 34.2726 20.0626C34.3064 20.1118 34.3441 20.159 34.3815 20.2041L34.3874 20.2101C34.4002 20.2268 34.4141 20.2426 34.4291 20.2573L34.445 20.273C34.1183 19.9173 33.9227 19.4627 33.8897 18.9828ZM33.8837 17.5964C33.8837 17.4351 33.8817 17.2719 33.8797 17.1106C33.8753 17.1464 33.874 17.1826 33.8758 17.2186C33.8797 17.2992 33.8817 17.3779 33.8797 17.4546C33.8817 17.5568 33.8837 17.663 33.8837 17.7652C33.8857 17.7083 33.8857 17.6532 33.8857 17.5963L33.8837 17.5964ZM33.8797 18.4519C33.8797 18.2297 33.8837 18.0094 33.8837 17.7872C33.8797 18.1687 33.8658 18.5541 33.8877 18.9356C33.8815 18.7743 33.8797 18.6132 33.8797 18.4519ZM33.8797 18.4519C33.8797 18.2297 33.8837 18.0094 33.8837 17.7872C33.8797 18.1687 33.8658 18.5541 33.8877 18.9356C33.8815 18.7743 33.8797 18.6132 33.8797 18.4519ZM33.8837 17.5964C33.8837 17.4351 33.8817 17.2719 33.8797 17.1106C33.8753 17.1464 33.874 17.1826 33.8758 17.2186C33.8797 17.2992 33.8817 17.3779 33.8797 17.4546C33.8817 17.5568 33.8837 17.663 33.8837 17.7652C33.8857 17.7083 33.8857 17.6532 33.8857 17.5963L33.8837 17.5964ZM33.8897 18.9828C33.8897 19.0025 33.8897 19.0241 33.8916 19.0438C33.8936 19.0773 33.8976 19.1087 33.9016 19.1422C33.9117 19.2306 33.9289 19.318 33.9532 19.4037C33.9591 19.4294 33.967 19.4529 33.9749 19.4785C33.9809 19.4962 33.9849 19.512 33.9909 19.5277C34.0008 19.5572 34.0127 19.5847 34.0246 19.6141C34.0357 19.6452 34.049 19.6754 34.0643 19.7047C34.0741 19.7299 34.0861 19.7542 34.1 19.7774C34.1239 19.8282 34.1511 19.8775 34.1813 19.9249C34.2092 19.9724 34.2397 20.0184 34.2726 20.0626C34.3064 20.1118 34.3441 20.159 34.3815 20.2041L34.3874 20.2101C34.4002 20.2268 34.4141 20.2426 34.4291 20.2573L34.445 20.273C34.1183 19.9173 33.9227 19.4627 33.8897 18.9828ZM34.8242 20.6231C35.3359 21.0118 35.956 21.2349 36.6001 21.2622C35.9576 21.2268 35.34 21.0046 34.8242 20.6231ZM36.7429 13.9285C36.7263 13.9289 36.7097 13.9302 36.6933 13.9325C36.729 13.9305 36.7628 13.9305 36.7965 13.9305C36.7786 13.9289 36.7609 13.9282 36.7429 13.9285ZM38.5662 14.4674C38.5563 14.4595 38.5464 14.4537 38.5344 14.4458C38.4908 14.4163 38.4471 14.3887 38.4015 14.3632C38.3778 14.3474 38.3519 14.3337 38.3261 14.3199C38.2785 14.2924 38.2289 14.2669 38.1773 14.2432C38.1646 14.2361 38.1514 14.2302 38.1376 14.2255C38.0741 14.1941 38.0087 14.1665 37.9412 14.141C37.9015 14.1253 37.8598 14.1115 37.818 14.0977C37.7525 14.0742 37.6831 14.0545 37.6136 14.0367C37.5779 14.0269 37.5442 14.019 37.5085 14.0112C37.4212 13.9915 37.3319 13.9736 37.2426 13.962C37.1752 13.9522 37.1077 13.9462 37.0382 13.9404C37.5968 13.9896 38.1336 14.1791 38.5978 14.491C38.5879 14.4824 38.5772 14.4745 38.5662 14.4674ZM39.6535 17.5982H39.6515C39.6515 17.6749 39.6535 17.7517 39.6555 17.8303C39.6535 17.7517 39.6535 17.6749 39.6535 17.5982ZM39.6456 16.1508C39.642 16.0948 39.6354 16.0389 39.6257 15.9836C39.626 15.9789 39.6254 15.9742 39.6237 15.9699C39.6178 15.9306 39.6079 15.8893 39.598 15.8499C39.5864 15.7959 39.5712 15.7426 39.5523 15.6906C39.5464 15.6709 39.5404 15.6531 39.5325 15.6336C39.5219 15.6013 39.5093 15.5698 39.4946 15.5392C39.4827 15.5116 39.4709 15.4841 39.4567 15.4566C39.4349 15.4133 39.413 15.3701 39.3892 15.3268C39.3734 15.2993 39.3575 15.2718 39.3396 15.2461C39.3276 15.224 39.3137 15.2029 39.298 15.1832C39.2801 15.1556 39.2623 15.1301 39.2424 15.1046C39.229 15.0847 39.2144 15.0657 39.1988 15.0475C39.1872 15.0322 39.1746 15.0178 39.1609 15.0043C39.4501 15.3504 39.6204 15.7789 39.647 16.2275C39.6649 16.6484 39.651 17.0693 39.651 17.4921C39.6557 17.0457 39.6773 16.5972 39.6456 16.1508ZM39.6555 17.8303C39.6555 17.9148 39.6555 18.0014 39.6575 18.088C39.6612 18.0507 39.6619 18.0132 39.6595 17.9759C39.6575 17.9267 39.6555 17.8795 39.6555 17.8303ZM39.6555 17.8303C39.6555 17.9148 39.6555 18.0014 39.6575 18.088C39.6612 18.0507 39.6619 18.0132 39.6595 17.9759C39.6575 17.9267 39.6555 17.8795 39.6555 17.8303ZM39.6456 16.1508C39.642 16.0948 39.6354 16.0389 39.6257 15.9836C39.626 15.9789 39.6254 15.9742 39.6237 15.9699C39.6178 15.9306 39.6079 15.8893 39.598 15.8499C39.5864 15.7959 39.5712 15.7426 39.5523 15.6906C39.5464 15.6709 39.5404 15.6531 39.5325 15.6336C39.5219 15.6013 39.5093 15.5698 39.4946 15.5392C39.4827 15.5116 39.4709 15.4841 39.4567 15.4566C39.4349 15.4133 39.413 15.3701 39.3892 15.3268C39.3734 15.2993 39.3575 15.2718 39.3396 15.2461C39.3276 15.224 39.3137 15.2029 39.298 15.1832C39.2801 15.1556 39.2623 15.1301 39.2424 15.1046C39.229 15.0847 39.2144 15.0657 39.1988 15.0475C39.1872 15.0322 39.1746 15.0178 39.1609 15.0043C39.4501 15.3504 39.6204 15.7789 39.647 16.2275C39.6649 16.6484 39.651 17.0693 39.651 17.4921C39.6557 17.0457 39.6773 16.5972 39.6456 16.1508ZM39.6535 17.5982H39.6515C39.6515 17.6749 39.6535 17.7517 39.6555 17.8303C39.6535 17.7517 39.6535 17.6749 39.6535 17.5982ZM38.5662 14.4674C38.5563 14.4595 38.5464 14.4537 38.5344 14.4458C38.4908 14.4163 38.4471 14.3887 38.4015 14.3632C38.3778 14.3474 38.3519 14.3337 38.3261 14.3199C38.2785 14.2924 38.2289 14.2669 38.1773 14.2432C38.1646 14.2361 38.1514 14.2302 38.1376 14.2255C38.0741 14.1941 38.0087 14.1665 37.9412 14.141C37.9015 14.1253 37.8598 14.1115 37.818 14.0977C37.7525 14.0742 37.6831 14.0545 37.6136 14.0367C37.5779 14.0269 37.5442 14.019 37.5085 14.0112C37.4212 13.9915 37.3319 13.9736 37.2426 13.962C37.1752 13.9522 37.1077 13.9462 37.0382 13.9404C37.5968 13.9896 38.1336 14.1791 38.5978 14.491C38.5879 14.4824 38.5772 14.4745 38.5662 14.4674ZM36.7429 13.9285C36.7263 13.9289 36.7097 13.9302 36.6933 13.9325C36.729 13.9305 36.7628 13.9305 36.7965 13.9305C36.7786 13.9289 36.7609 13.9282 36.7429 13.9285ZM34.8242 20.6231C35.3359 21.0118 35.956 21.2349 36.6001 21.2622C35.9576 21.2268 35.34 21.0046 34.8242 20.6231ZM33.8897 18.9828C33.8897 19.0025 33.8897 19.0241 33.8916 19.0438C33.8936 19.0773 33.8976 19.1087 33.9016 19.1422C33.9117 19.2306 33.9289 19.318 33.9532 19.4037C33.9591 19.4294 33.967 19.4529 33.9749 19.4785C33.9809 19.4962 33.9849 19.512 33.9909 19.5277C34.0008 19.5572 34.0127 19.5847 34.0246 19.6141C34.0357 19.6452 34.049 19.6754 34.0643 19.7047C34.0741 19.7299 34.0861 19.7542 34.1 19.7774C34.1239 19.8282 34.1511 19.8775 34.1813 19.9249C34.2092 19.9724 34.2397 20.0184 34.2726 20.0626C34.3064 20.1118 34.3441 20.159 34.3815 20.2041L34.3874 20.2101C34.4002 20.2268 34.4141 20.2426 34.4291 20.2573L34.445 20.273C34.1183 19.9173 33.9227 19.4627 33.8897 18.9828ZM33.8837 17.5964C33.8837 17.4351 33.8817 17.2719 33.8797 17.1106C33.8753 17.1464 33.874 17.1826 33.8758 17.2186C33.8797 17.2992 33.8817 17.3779 33.8797 17.4546C33.8817 17.5568 33.8837 17.663 33.8837 17.7652C33.8857 17.7083 33.8857 17.6532 33.8857 17.5963L33.8837 17.5964ZM33.8797 18.4519C33.8797 18.2297 33.8837 18.0094 33.8837 17.7872C33.8797 18.1687 33.8658 18.5541 33.8877 18.9356C33.8815 18.7743 33.8797 18.6132 33.8797 18.4519ZM33.8797 18.4519C33.8797 18.2297 33.8837 18.0094 33.8837 17.7872C33.8797 18.1687 33.8658 18.5541 33.8877 18.9356C33.8815 18.7743 33.8797 18.6132 33.8797 18.4519ZM33.8837 17.5964C33.8837 17.4351 33.8817 17.2719 33.8797 17.1106C33.8753 17.1464 33.874 17.1826 33.8758 17.2186C33.8797 17.2992 33.8817 17.3779 33.8797 17.4546C33.8817 17.5568 33.8837 17.663 33.8837 17.7652C33.8857 17.7083 33.8857 17.6532 33.8857 17.5963L33.8837 17.5964ZM33.8897 18.9828C33.8897 19.0025 33.8897 19.0241 33.8916 19.0438C33.8936 19.0773 33.8976 19.1087 33.9016 19.1422C33.9117 19.2306 33.9289 19.318 33.9532 19.4037C33.9591 19.4294 33.967 19.4529 33.9749 19.4785C33.9809 19.4962 33.9849 19.512 33.9909 19.5277C34.0008 19.5572 34.0127 19.5847 34.0246 19.6141C34.0357 19.6452 34.049 19.6754 34.0643 19.7047C34.0741 19.7299 34.0861 19.7542 34.1 19.7774C34.1239 19.8282 34.1511 19.8775 34.1813 19.9249C34.2092 19.9724 34.2397 20.0184 34.2726 20.0626C34.3064 20.1118 34.3441 20.159 34.3815 20.2041L34.3874 20.2101C34.4002 20.2268 34.4141 20.2426 34.4291 20.2573L34.445 20.273C34.1183 19.9173 33.9227 19.4627 33.8897 18.9828ZM34.8242 20.6231C35.3359 21.0118 35.956 21.2349 36.6001 21.2622C35.9576 21.2268 35.34 21.0046 34.8242 20.6231ZM36.7429 13.9285C36.7263 13.9289 36.7097 13.9302 36.6933 13.9325C36.729 13.9305 36.7628 13.9305 36.7965 13.9305C36.7786 13.9289 36.7609 13.9282 36.7429 13.9285ZM38.5662 14.4674C38.5563 14.4595 38.5464 14.4537 38.5344 14.4458C38.4908 14.4163 38.4471 14.3887 38.4015 14.3632C38.3778 14.3474 38.3519 14.3337 38.3261 14.3199C38.2785 14.2924 38.2289 14.2669 38.1773 14.2432C38.1646 14.2361 38.1514 14.2302 38.1376 14.2255C38.0741 14.1941 38.0087 14.1665 37.9412 14.141C37.9015 14.1253 37.8598 14.1115 37.818 14.0977C37.7525 14.0742 37.6831 14.0545 37.6136 14.0367C37.5779 14.0269 37.5442 14.019 37.5085 14.0112C37.4212 13.9915 37.3319 13.9736 37.2426 13.962C37.1752 13.9522 37.1077 13.9462 37.0382 13.9404C37.5968 13.9896 38.1336 14.1791 38.5978 14.491C38.5879 14.4824 38.5772 14.4745 38.5662 14.4674ZM39.6535 17.5982H39.6515C39.6515 17.6749 39.6535 17.7517 39.6555 17.8303C39.6535 17.7517 39.6535 17.6749 39.6535 17.5982ZM39.6456 16.1508C39.642 16.0948 39.6354 16.0389 39.6257 15.9836C39.626 15.9789 39.6254 15.9742 39.6237 15.9699C39.6178 15.9306 39.6079 15.8893 39.598 15.8499C39.5864 15.7959 39.5712 15.7426 39.5523 15.6906C39.5464 15.6709 39.5404 15.6531 39.5325 15.6336C39.5219 15.6013 39.5093 15.5698 39.4946 15.5392C39.4827 15.5116 39.4709 15.4841 39.4567 15.4566C39.4349 15.4133 39.413 15.3701 39.3892 15.3268C39.3734 15.2993 39.3575 15.2718 39.3396 15.2461C39.3276 15.224 39.3137 15.2029 39.298 15.1832C39.2801 15.1556 39.2623 15.1301 39.2424 15.1046C39.229 15.0847 39.2144 15.0657 39.1988 15.0475C39.1872 15.0322 39.1746 15.0178 39.1609 15.0043C39.4501 15.3504 39.6204 15.7789 39.647 16.2275C39.6649 16.6484 39.651 17.0693 39.651 17.4921C39.6557 17.0457 39.6773 16.5972 39.6456 16.1508ZM39.6555 17.8303C39.6555 17.9148 39.6555 18.0014 39.6575 18.088C39.6612 18.0507 39.6619 18.0132 39.6595 17.9759C39.6575 17.9267 39.6555 17.8795 39.6555 17.8303ZM39.6575 18.088C39.6612 18.0507 39.6619 18.0132 39.6595 17.9759C39.6575 17.9267 39.6555 17.8795 39.6555 17.8303C39.6555 17.9148 39.6555 18.0014 39.6575 18.088ZM39.6517 17.4922C39.6557 17.0457 39.6773 16.5972 39.6456 16.1508C39.642 16.0948 39.6354 16.0389 39.6257 15.9836C39.626 15.9789 39.6254 15.9742 39.6237 15.9699C39.6178 15.9306 39.6079 15.8893 39.598 15.8499C39.5864 15.7959 39.5712 15.7426 39.5523 15.6906C39.5464 15.6709 39.5404 15.6531 39.5325 15.6336C39.5219 15.6013 39.5093 15.5698 39.4946 15.5392C39.4827 15.5116 39.4709 15.4841 39.4567 15.4566C39.4349 15.4133 39.413 15.3701 39.3892 15.3268C39.3734 15.2993 39.3575 15.2718 39.3396 15.2461C39.3276 15.224 39.3137 15.2029 39.298 15.1832C39.2801 15.1556 39.2623 15.1301 39.2424 15.1046C39.229 15.0847 39.2144 15.0657 39.1988 15.0475C39.1872 15.0322 39.1746 15.0178 39.1609 15.0043C39.4501 15.3504 39.6204 15.7789 39.647 16.2275C39.6652 16.6484 39.6517 17.0694 39.6517 17.4922ZM39.6515 17.5982C39.6515 17.6749 39.6535 17.7517 39.6555 17.8303C39.6535 17.7517 39.6535 17.6749 39.6535 17.5982H39.6515ZM38.5344 14.4458C38.4908 14.4163 38.4471 14.3887 38.4015 14.3632C38.3778 14.3474 38.3519 14.3337 38.3261 14.3199C38.2785 14.2924 38.2289 14.2669 38.1773 14.2432C38.1646 14.2361 38.1514 14.2302 38.1376 14.2255C38.0741 14.1941 38.0087 14.1665 37.9412 14.141C37.9015 14.1253 37.8598 14.1115 37.818 14.0977C37.7525 14.0742 37.6831 14.0545 37.6136 14.0367C37.5779 14.0269 37.5442 14.019 37.5085 14.0112C37.4212 13.9915 37.3319 13.9736 37.2426 13.962C37.1752 13.9522 37.1077 13.9462 37.0382 13.9404C37.5968 13.9896 38.1336 14.1791 38.5978 14.491C38.5879 14.4824 38.5772 14.4745 38.5662 14.4674C38.5563 14.4595 38.5464 14.4537 38.5344 14.4458ZM36.6933 13.9325C36.729 13.9305 36.7628 13.9305 36.7965 13.9305C36.7786 13.9289 36.7609 13.9282 36.7429 13.9285C36.7263 13.9289 36.7097 13.9302 36.6933 13.9325ZM36.6001 21.2622C35.9576 21.2268 35.34 21.0046 34.8242 20.6231C35.3359 21.0118 35.956 21.2349 36.6001 21.2622ZM33.8916 19.0438C33.8936 19.0773 33.8976 19.1087 33.9016 19.1422C33.9117 19.2306 33.9289 19.318 33.9532 19.4037C33.9591 19.4294 33.967 19.4529 33.9749 19.4785C33.9809 19.4962 33.9849 19.512 33.9909 19.5277C34.0008 19.5572 34.0127 19.5847 34.0246 19.6141C34.0357 19.6452 34.049 19.6754 34.0643 19.7047C34.0741 19.7299 34.0861 19.7542 34.1 19.7774C34.1239 19.8282 34.1511 19.8775 34.1813 19.9249C34.2092 19.9724 34.2397 20.0184 34.2726 20.0626C34.3064 20.1118 34.3441 20.159 34.3815 20.2041L34.3874 20.2101C34.4002 20.2268 34.4141 20.2426 34.4291 20.2573L34.445 20.273C34.1183 19.9173 33.9227 19.4627 33.8897 18.9828C33.8897 19.0025 33.8897 19.0241 33.8916 19.0438ZM33.8837 17.7652C33.8857 17.7083 33.8857 17.6532 33.8857 17.5963L33.8837 17.5964C33.8837 17.4351 33.8817 17.2719 33.8797 17.1106C33.8753 17.1464 33.874 17.1826 33.8758 17.2186C33.8797 17.2992 33.8817 17.3779 33.8797 17.4546C33.8817 17.5568 33.8837 17.663 33.8837 17.7652ZM33.8837 17.7872C33.8797 18.1687 33.8658 18.5541 33.8877 18.9356C33.8815 18.7743 33.8797 18.6132 33.8797 18.4519C33.8797 18.2297 33.8837 18.0094 33.8837 17.7872ZM39.6575 18.088C39.6612 18.0507 39.6619 18.0132 39.6595 17.9759C39.6575 17.9267 39.6555 17.8795 39.6555 17.8303C39.6555 17.9148 39.6555 18.0014 39.6575 18.088ZM39.6517 17.4922C39.6557 17.0457 39.6773 16.5972 39.6456 16.1508C39.642 16.0948 39.6354 16.0389 39.6257 15.9836C39.626 15.9789 39.6254 15.9742 39.6237 15.9699C39.6178 15.9306 39.6079 15.8893 39.598 15.8499C39.5864 15.7959 39.5712 15.7426 39.5523 15.6906C39.5464 15.6709 39.5404 15.6531 39.5325 15.6336C39.5219 15.6013 39.5093 15.5698 39.4946 15.5392C39.4827 15.5116 39.4709 15.4841 39.4567 15.4566C39.4349 15.4133 39.413 15.3701 39.3892 15.3268C39.3734 15.2993 39.3575 15.2718 39.3396 15.2461C39.3276 15.224 39.3137 15.2029 39.298 15.1832C39.2801 15.1556 39.2623 15.1301 39.2424 15.1046C39.229 15.0847 39.2144 15.0657 39.1988 15.0475C39.1872 15.0322 39.1746 15.0178 39.1609 15.0043C39.4501 15.3504 39.6204 15.7789 39.647 16.2275C39.6652 16.6484 39.6517 17.0694 39.6517 17.4922ZM39.6515 17.5982C39.6515 17.6749 39.6535 17.7517 39.6555 17.8303C39.6535 17.7517 39.6535 17.6749 39.6535 17.5982H39.6515ZM38.5344 14.4458C38.4908 14.4163 38.4471 14.3887 38.4015 14.3632C38.3778 14.3474 38.3519 14.3337 38.3261 14.3199C38.2785 14.2924 38.2289 14.2669 38.1773 14.2432C38.1646 14.2361 38.1514 14.2302 38.1376 14.2255C38.0741 14.1941 38.0087 14.1665 37.9412 14.141C37.9015 14.1253 37.8598 14.1115 37.818 14.0977C37.7525 14.0742 37.6831 14.0545 37.6136 14.0367C37.5779 14.0269 37.5442 14.019 37.5085 14.0112C37.4212 13.9915 37.3319 13.9736 37.2426 13.962C37.1752 13.9522 37.1077 13.9462 37.0382 13.9404C37.5968 13.9896 38.1336 14.1791 38.5978 14.491C38.5879 14.4824 38.5772 14.4745 38.5662 14.4674C38.5563 14.4595 38.5464 14.4537 38.5344 14.4458ZM36.6933 13.9325C36.729 13.9305 36.7628 13.9305 36.7965 13.9305C36.7786 13.9289 36.7609 13.9282 36.7429 13.9285C36.7263 13.9289 36.7097 13.9302 36.6933 13.9325ZM36.6001 21.2622C35.9576 21.2268 35.34 21.0046 34.8242 20.6231C35.3359 21.0118 35.956 21.2349 36.6001 21.2622ZM33.8916 19.0438C33.8936 19.0773 33.8976 19.1087 33.9016 19.1422C33.9117 19.2306 33.9289 19.318 33.9532 19.4037C33.9591 19.4294 33.967 19.4529 33.9749 19.4785C33.9809 19.4962 33.9849 19.512 33.9909 19.5277C34.0008 19.5572 34.0127 19.5847 34.0246 19.6141C34.0357 19.6452 34.049 19.6754 34.0643 19.7047C34.0741 19.7299 34.0861 19.7542 34.1 19.7774C34.1239 19.8282 34.1511 19.8775 34.1813 19.9249C34.2092 19.9724 34.2397 20.0184 34.2726 20.0626C34.3064 20.1118 34.3441 20.159 34.3815 20.2041L34.3874 20.2101C34.4002 20.2268 34.4141 20.2426 34.4291 20.2573L34.445 20.273C34.1183 19.9173 33.9227 19.4627 33.8897 18.9828C33.8897 19.0025 33.8897 19.0241 33.8916 19.0438ZM33.8837 17.7652C33.8857 17.7083 33.8857 17.6532 33.8857 17.5963L33.8837 17.5964C33.8837 17.4351 33.8817 17.2719 33.8797 17.1106C33.8753 17.1464 33.874 17.1826 33.8758 17.2186C33.8797 17.2992 33.8817 17.3779 33.8797 17.4546C33.8817 17.5568 33.8837 17.663 33.8837 17.7652ZM33.8837 17.7872C33.8797 18.1687 33.8658 18.5541 33.8877 18.9356C33.8815 18.7743 33.8797 18.6132 33.8797 18.4519C33.8797 18.2297 33.8837 18.0094 33.8837 17.7872ZM33.8797 18.4519C33.8797 18.2297 33.8837 18.0094 33.8837 17.7872C33.8797 18.1687 33.8658 18.5541 33.8877 18.9356C33.8815 18.7743 33.8797 18.6132 33.8797 18.4519ZM33.8837 17.5964C33.8837 17.4351 33.8817 17.2719 33.8797 17.1106C33.8753 17.1464 33.874 17.1826 33.8758 17.2186C33.8797 17.2992 33.8817 17.3779 33.8797 17.4546C33.8817 17.5568 33.8837 17.663 33.8837 17.7652C33.8857 17.7083 33.8857 17.6532 33.8857 17.5963L33.8837 17.5964ZM33.8897 18.9828C33.8897 19.0025 33.8897 19.0241 33.8916 19.0438C33.8936 19.0773 33.8976 19.1087 33.9016 19.1422C33.9117 19.2306 33.9289 19.318 33.9532 19.4037C33.9591 19.4294 33.967 19.4529 33.9749 19.4785C33.9809 19.4962 33.9849 19.512 33.9909 19.5277C34.0008 19.5572 34.0127 19.5847 34.0246 19.6141C34.0357 19.6452 34.049 19.6754 34.0643 19.7047C34.0741 19.7299 34.0861 19.7542 34.1 19.7774C34.1239 19.8282 34.1511 19.8775 34.1813 19.9249C34.2092 19.9724 34.2397 20.0184 34.2726 20.0626C34.3064 20.1118 34.3441 20.159 34.3815 20.2041L34.3874 20.2101C34.4002 20.2268 34.4141 20.2426 34.4291 20.2573L34.445 20.273C34.1183 19.9173 33.9227 19.4627 33.8897 18.9828ZM34.8242 20.6231C35.3359 21.0118 35.956 21.2349 36.6001 21.2622C35.9576 21.2268 35.34 21.0046 34.8242 20.6231ZM36.7429 13.9285C36.7263 13.9289 36.7097 13.9302 36.6933 13.9325C36.729 13.9305 36.7628 13.9305 36.7965 13.9305C36.7786 13.9289 36.7609 13.9282 36.7429 13.9285ZM38.5662 14.4674C38.5563 14.4595 38.5464 14.4537 38.5344 14.4458C38.4908 14.4163 38.4471 14.3887 38.4015 14.3632C38.3778 14.3474 38.3519 14.3337 38.3261 14.3199C38.2785 14.2924 38.2289 14.2669 38.1773 14.2432C38.1646 14.2361 38.1514 14.2302 38.1376 14.2255C38.0741 14.1941 38.0087 14.1665 37.9412 14.141C37.9015 14.1253 37.8598 14.1115 37.818 14.0977C37.7525 14.0742 37.6831 14.0545 37.6136 14.0367C37.5779 14.0269 37.5442 14.019 37.5085 14.0112C37.4212 13.9915 37.3319 13.9736 37.2426 13.962C37.1752 13.9522 37.1077 13.9462 37.0382 13.9404C37.5968 13.9896 38.1336 14.1791 38.5978 14.491C38.5879 14.4824 38.5772 14.4745 38.5662 14.4674ZM39.6535 17.5982H39.6515C39.6515 17.6749 39.6535 17.7517 39.6555 17.8303C39.6535 17.7517 39.6535 17.6749 39.6535 17.5982ZM39.6456 16.1508C39.642 16.0948 39.6354 16.0389 39.6257 15.9836C39.626 15.9789 39.6254 15.9742 39.6237 15.9699C39.6178 15.9306 39.6079 15.8893 39.598 15.8499C39.5864 15.7959 39.5712 15.7426 39.5523 15.6906C39.5464 15.6709 39.5404 15.6531 39.5325 15.6336C39.5219 15.6013 39.5093 15.5698 39.4946 15.5392C39.4827 15.5116 39.4709 15.4841 39.4567 15.4566C39.4349 15.4133 39.413 15.3701 39.3892 15.3268C39.3734 15.2993 39.3575 15.2718 39.3396 15.2461C39.3276 15.224 39.3137 15.2029 39.298 15.1832C39.2801 15.1556 39.2623 15.1301 39.2424 15.1046C39.229 15.0847 39.2144 15.0657 39.1988 15.0475C39.1872 15.0322 39.1746 15.0178 39.1609 15.0043C39.4501 15.3504 39.6204 15.7789 39.647 16.2275C39.6649 16.6484 39.651 17.0693 39.651 17.4921C39.6557 17.0457 39.6773 16.5972 39.6456 16.1508ZM39.6555 17.8303C39.6555 17.9148 39.6555 18.0014 39.6575 18.088C39.6612 18.0507 39.6619 18.0132 39.6595 17.9759C39.6575 17.9267 39.6555 17.8795 39.6555 17.8303ZM39.6555 17.8303C39.6555 17.9148 39.6555 18.0014 39.6575 18.088C39.6612 18.0507 39.6619 18.0132 39.6595 17.9759C39.6575 17.9267 39.6555 17.8795 39.6555 17.8303ZM39.6456 16.1508C39.642 16.0948 39.6354 16.0389 39.6257 15.9836C39.626 15.9789 39.6254 15.9742 39.6237 15.9699C39.6178 15.9306 39.6079 15.8893 39.598 15.8499C39.5864 15.7959 39.5712 15.7426 39.5523 15.6906C39.5464 15.6709 39.5404 15.6531 39.5325 15.6336C39.5219 15.6013 39.5093 15.5698 39.4946 15.5392C39.4827 15.5116 39.4709 15.4841 39.4567 15.4566C39.4349 15.4133 39.413 15.3701 39.3892 15.3268C39.3734 15.2993 39.3575 15.2718 39.3396 15.2461C39.3276 15.224 39.3137 15.2029 39.298 15.1832C39.2801 15.1556 39.2623 15.1301 39.2424 15.1046C39.229 15.0847 39.2144 15.0657 39.1988 15.0475C39.1872 15.0322 39.1746 15.0178 39.1609 15.0043C39.4501 15.3504 39.6204 15.7789 39.647 16.2275C39.6649 16.6484 39.651 17.0693 39.651 17.4921C39.6557 17.0457 39.6773 16.5972 39.6456 16.1508ZM39.6535 17.5982H39.6515C39.6515 17.6749 39.6535 17.7517 39.6555 17.8303C39.6535 17.7517 39.6535 17.6749 39.6535 17.5982ZM38.5662 14.4674C38.5563 14.4595 38.5464 14.4537 38.5344 14.4458C38.4908 14.4163 38.4471 14.3887 38.4015 14.3632C38.3778 14.3474 38.3519 14.3337 38.3261 14.3199C38.2785 14.2924 38.2289 14.2669 38.1773 14.2432C38.1646 14.2361 38.1514 14.2302 38.1376 14.2255C38.0741 14.1941 38.0087 14.1665 37.9412 14.141C37.9015 14.1253 37.8598 14.1115 37.818 14.0977C37.7525 14.0742 37.6831 14.0545 37.6136 14.0367C37.5779 14.0269 37.5442 14.019 37.5085 14.0112C37.4212 13.9915 37.3319 13.9736 37.2426 13.962C37.1752 13.9522 37.1077 13.9462 37.0382 13.9404C37.5968 13.9896 38.1336 14.1791 38.5978 14.491C38.5879 14.4824 38.5772 14.4745 38.5662 14.4674ZM36.7429 13.9285C36.7263 13.9289 36.7097 13.9302 36.6933 13.9325C36.729 13.9305 36.7628 13.9305 36.7965 13.9305C36.7786 13.9289 36.7609 13.9282 36.7429 13.9285ZM34.8242 20.6231C35.3359 21.0118 35.956 21.2349 36.6001 21.2622C35.9576 21.2268 35.34 21.0046 34.8242 20.6231ZM33.8897 18.9828C33.8897 19.0025 33.8897 19.0241 33.8916 19.0438C33.8936 19.0773 33.8976 19.1087 33.9016 19.1422C33.9117 19.2306 33.9289 19.318 33.9532 19.4037C33.9591 19.4294 33.967 19.4529 33.9749 19.4785C33.9809 19.4962 33.9849 19.512 33.9909 19.5277C34.0008 19.5572 34.0127 19.5847 34.0246 19.6141C34.0357 19.6452 34.049 19.6754 34.0643 19.7047C34.0741 19.7299 34.0861 19.7542 34.1 19.7774C34.1239 19.8282 34.1511 19.8775 34.1813 19.9249C34.2092 19.9724 34.2397 20.0184 34.2726 20.0626C34.3064 20.1118 34.3441 20.159 34.3815 20.2041L34.3874 20.2101C34.4002 20.2268 34.4141 20.2426 34.4291 20.2573L34.445 20.273C34.1183 19.9173 33.9227 19.4627 33.8897 18.9828ZM33.8837 17.5964C33.8837 17.4351 33.8817 17.2719 33.8797 17.1106C33.8753 17.1464 33.874 17.1826 33.8758 17.2186C33.8797 17.2992 33.8817 17.3779 33.8797 17.4546C33.8817 17.5568 33.8837 17.663 33.8837 17.7652C33.8857 17.7083 33.8857 17.6532 33.8857 17.5963L33.8837 17.5964ZM33.8797 18.4519C33.8797 18.2297 33.8837 18.0094 33.8837 17.7872C33.8797 18.1687 33.8658 18.5541 33.8877 18.9356C33.8815 18.7743 33.8797 18.6132 33.8797 18.4519ZM33.8797 18.4519C33.8797 18.2297 33.8837 18.0094 33.8837 17.7872C33.8797 18.1687 33.8658 18.5541 33.8877 18.9356C33.8815 18.7743 33.8797 18.6132 33.8797 18.4519ZM33.8837 17.5964C33.8837 17.4351 33.8817 17.2719 33.8797 17.1106C33.8753 17.1464 33.874 17.1826 33.8758 17.2186C33.8797 17.2992 33.8817 17.3779 33.8797 17.4546C33.8817 17.5568 33.8837 17.663 33.8837 17.7652C33.8857 17.7083 33.8857 17.6532 33.8857 17.5963L33.8837 17.5964ZM33.8897 18.9828C33.8897 19.0025 33.8897 19.0241 33.8916 19.0438C33.8936 19.0773 33.8976 19.1087 33.9016 19.1422C33.9117 19.2306 33.9289 19.318 33.9532 19.4037C33.9591 19.4294 33.967 19.4529 33.9749 19.4785C33.9809 19.4962 33.9849 19.512 33.9909 19.5277C34.0008 19.5572 34.0127 19.5847 34.0246 19.6141C34.0357 19.6452 34.049 19.6754 34.0643 19.7047C34.0741 19.7299 34.0861 19.7542 34.1 19.7774C34.1239 19.8282 34.1511 19.8775 34.1813 19.9249C34.2092 19.9724 34.2397 20.0184 34.2726 20.0626C34.3064 20.1118 34.3441 20.159 34.3815 20.2041L34.3874 20.2101C34.4002 20.2268 34.4141 20.2426 34.4291 20.2573L34.445 20.273C34.1183 19.9173 33.9227 19.4627 33.8897 18.9828ZM34.8242 20.6231C35.3359 21.0118 35.956 21.2349 36.6001 21.2622C35.9576 21.2268 35.34 21.0046 34.8242 20.6231ZM36.7429 13.9285C36.7263 13.9289 36.7097 13.9302 36.6933 13.9325C36.729 13.9305 36.7628 13.9305 36.7965 13.9305C36.7786 13.9289 36.7609 13.9282 36.7429 13.9285ZM38.5662 14.4674C38.5563 14.4595 38.5464 14.4537 38.5344 14.4458C38.4908 14.4163 38.4471 14.3887 38.4015 14.3632C38.3778 14.3474 38.3519 14.3337 38.3261 14.3199C38.2785 14.2924 38.2289 14.2669 38.1773 14.2432C38.1646 14.2361 38.1514 14.2302 38.1376 14.2255C38.0741 14.1941 38.0087 14.1665 37.9412 14.141C37.9015 14.1253 37.8598 14.1115 37.818 14.0977C37.7525 14.0742 37.6831 14.0545 37.6136 14.0367C37.5779 14.0269 37.5442 14.019 37.5085 14.0112C37.4212 13.9915 37.3319 13.9736 37.2426 13.962C37.1752 13.9522 37.1077 13.9462 37.0382 13.9404C37.5968 13.9896 38.1336 14.1791 38.5978 14.491C38.5879 14.4824 38.5772 14.4745 38.5662 14.4674ZM39.6535 17.5982H39.6515C39.6515 17.6749 39.6535 17.7517 39.6555 17.8303C39.6535 17.7517 39.6535 17.6749 39.6535 17.5982ZM39.6456 16.1508C39.642 16.0948 39.6354 16.0389 39.6257 15.9836C39.626 15.9789 39.6254 15.9742 39.6237 15.9699C39.6178 15.9306 39.6079 15.8893 39.598 15.8499C39.5864 15.7959 39.5712 15.7426 39.5523 15.6906C39.5464 15.6709 39.5404 15.6531 39.5325 15.6336C39.5219 15.6013 39.5093 15.5698 39.4946 15.5392C39.4827 15.5116 39.4709 15.4841 39.4567 15.4566C39.4349 15.4133 39.413 15.3701 39.3892 15.3268C39.3734 15.2993 39.3575 15.2718 39.3396 15.2461C39.3276 15.224 39.3137 15.2029 39.298 15.1832C39.2801 15.1556 39.2623 15.1301 39.2424 15.1046C39.229 15.0847 39.2144 15.0657 39.1988 15.0475C39.1872 15.0322 39.1746 15.0178 39.1609 15.0043C39.4501 15.3504 39.6204 15.7789 39.647 16.2275C39.6649 16.6484 39.651 17.0693 39.651 17.4921C39.6557 17.0457 39.6773 16.5972 39.6456 16.1508ZM39.6555 17.8303C39.6555 17.9148 39.6555 18.0014 39.6575 18.088C39.6612 18.0507 39.6619 18.0132 39.6595 17.9759C39.6575 17.9267 39.6555 17.8795 39.6555 17.8303ZM39.6555 17.8303C39.6555 17.9148 39.6555 18.0014 39.6575 18.088C39.6612 18.0507 39.6619 18.0132 39.6595 17.9759C39.6575 17.9267 39.6555 17.8795 39.6555 17.8303ZM39.6456 16.1508C39.642 16.0948 39.6354 16.0389 39.6257 15.9836C39.626 15.9789 39.6254 15.9742 39.6237 15.9699C39.6178 15.9306 39.6079 15.8893 39.598 15.8499C39.5864 15.7959 39.5712 15.7426 39.5523 15.6906C39.5464 15.6709 39.5404 15.6531 39.5325 15.6336C39.5219 15.6013 39.5093 15.5698 39.4946 15.5392C39.4827 15.5116 39.4709 15.4841 39.4567 15.4566C39.4349 15.4133 39.413 15.3701 39.3892 15.3268C39.3734 15.2993 39.3575 15.2718 39.3396 15.2461C39.3276 15.224 39.3137 15.2029 39.298 15.1832C39.2801 15.1556 39.2623 15.1301 39.2424 15.1046C39.229 15.0847 39.2144 15.0657 39.1988 15.0475C39.1872 15.0322 39.1746 15.0178 39.1609 15.0043C39.4501 15.3504 39.6204 15.7789 39.647 16.2275C39.6649 16.6484 39.651 17.0693 39.651 17.4921C39.6557 17.0457 39.6773 16.5972 39.6456 16.1508ZM39.6535 17.5982H39.6515C39.6515 17.6749 39.6535 17.7517 39.6555 17.8303C39.6535 17.7517 39.6535 17.6749 39.6535 17.5982ZM38.5662 14.4674C38.5563 14.4595 38.5464 14.4537 38.5344 14.4458C38.4908 14.4163 38.4471 14.3887 38.4015 14.3632C38.3778 14.3474 38.3519 14.3337 38.3261 14.3199C38.2785 14.2924 38.2289 14.2669 38.1773 14.2432C38.1646 14.2361 38.1514 14.2302 38.1376 14.2255C38.0741 14.1941 38.0087 14.1665 37.9412 14.141C37.9015 14.1253 37.8598 14.1115 37.818 14.0977C37.7525 14.0742 37.6831 14.0545 37.6136 14.0367C37.5779 14.0269 37.5442 14.019 37.5085 14.0112C37.4212 13.9915 37.3319 13.9736 37.2426 13.962C37.1752 13.9522 37.1077 13.9462 37.0382 13.9404C37.5968 13.9896 38.1336 14.1791 38.5978 14.491C38.5879 14.4824 38.5772 14.4745 38.5662 14.4674ZM36.7429 13.9285C36.7263 13.9289 36.7097 13.9302 36.6933 13.9325C36.729 13.9305 36.7628 13.9305 36.7965 13.9305C36.7786 13.9289 36.7609 13.9282 36.7429 13.9285ZM34.8242 20.6231C35.3359 21.0118 35.956 21.2349 36.6001 21.2622C35.9576 21.2268 35.34 21.0046 34.8242 20.6231ZM33.8897 18.9828C33.8897 19.0025 33.8897 19.0241 33.8916 19.0438C33.8936 19.0773 33.8976 19.1087 33.9016 19.1422C33.9117 19.2306 33.9289 19.318 33.9532 19.4037C33.9591 19.4294 33.967 19.4529 33.9749 19.4785C33.9809 19.4962 33.9849 19.512 33.9909 19.5277C34.0008 19.5572 34.0127 19.5847 34.0246 19.6141C34.0357 19.6452 34.049 19.6754 34.0643 19.7047C34.0741 19.7299 34.0861 19.7542 34.1 19.7774C34.1239 19.8282 34.1511 19.8775 34.1813 19.9249C34.2092 19.9724 34.2397 20.0184 34.2726 20.0626C34.3064 20.1118 34.3441 20.159 34.3815 20.2041L34.3874 20.2101C34.4002 20.2268 34.4141 20.2426 34.4291 20.2573L34.445 20.273C34.1183 19.9173 33.9227 19.4627 33.8897 18.9828ZM33.8837 17.5964C33.8837 17.4351 33.8817 17.2719 33.8797 17.1106C33.8753 17.1464 33.874 17.1826 33.8758 17.2186C33.8797 17.2992 33.8817 17.3779 33.8797 17.4546C33.8817 17.5568 33.8837 17.663 33.8837 17.7652C33.8857 17.7083 33.8857 17.6532 33.8857 17.5963L33.8837 17.5964ZM33.8797 18.4519C33.8797 18.2297 33.8837 18.0094 33.8837 17.7872C33.8797 18.1687 33.8658 18.5541 33.8877 18.9356C33.8815 18.7743 33.8797 18.6132 33.8797 18.4519ZM33.8797 18.4519C33.8797 18.2297 33.8837 18.0094 33.8837 17.7872C33.8797 18.1687 33.8658 18.5541 33.8877 18.9356C33.8815 18.7743 33.8797 18.6132 33.8797 18.4519ZM33.8837 17.5964C33.8837 17.4351 33.8817 17.2719 33.8797 17.1106C33.8753 17.1464 33.874 17.1826 33.8758 17.2186C33.8797 17.2992 33.8817 17.3779 33.8797 17.4546C33.8817 17.5568 33.8837 17.663 33.8837 17.7652C33.8857 17.7083 33.8857 17.6532 33.8857 17.5963L33.8837 17.5964ZM33.8897 18.9828C33.8897 19.0025 33.8897 19.0241 33.8916 19.0438C33.8936 19.0773 33.8976 19.1087 33.9016 19.1422C33.9117 19.2306 33.9289 19.318 33.9532 19.4037C33.9591 19.4294 33.967 19.4529 33.9749 19.4785C33.9809 19.4962 33.9849 19.512 33.9909 19.5277C34.0008 19.5572 34.0127 19.5847 34.0246 19.6141C34.0357 19.6452 34.049 19.6754 34.0643 19.7047C34.0741 19.7299 34.0861 19.7542 34.1 19.7774C34.1239 19.8282 34.1511 19.8775 34.1813 19.9249C34.2092 19.9724 34.2397 20.0184 34.2726 20.0626C34.3064 20.1118 34.3441 20.159 34.3815 20.2041L34.3874 20.2101C34.4002 20.2268 34.4141 20.2426 34.4291 20.2573L34.445 20.273C34.1183 19.9173 33.9227 19.4627 33.8897 18.9828ZM34.8242 20.6231C35.3359 21.0118 35.956 21.2349 36.6001 21.2622C35.9576 21.2268 35.34 21.0046 34.8242 20.6231ZM36.7429 13.9285C36.7263 13.9289 36.7097 13.9302 36.6933 13.9325C36.729 13.9305 36.7628 13.9305 36.7965 13.9305C36.7786 13.9289 36.7609 13.9282 36.7429 13.9285ZM38.5662 14.4674C38.5563 14.4595 38.5464 14.4537 38.5344 14.4458C38.4908 14.4163 38.4471 14.3887 38.4015 14.3632C38.3778 14.3474 38.3519 14.3337 38.3261 14.3199C38.2785 14.2924 38.2289 14.2669 38.1773 14.2432C38.1646 14.2361 38.1514 14.2302 38.1376 14.2255C38.0741 14.1941 38.0087 14.1665 37.9412 14.141C37.9015 14.1253 37.8598 14.1115 37.818 14.0977C37.7525 14.0742 37.6831 14.0545 37.6136 14.0367C37.5779 14.0269 37.5442 14.019 37.5085 14.0112C37.4212 13.9915 37.3319 13.9736 37.2426 13.962C37.1752 13.9522 37.1077 13.9462 37.0382 13.9404C37.5968 13.9896 38.1336 14.1791 38.5978 14.491C38.5879 14.4824 38.5772 14.4745 38.5662 14.4674ZM39.6535 17.5982H39.6515C39.6515 17.6749 39.6535 17.7517 39.6555 17.8303C39.6535 17.7517 39.6535 17.6749 39.6535 17.5982ZM39.6456 16.1508C39.642 16.0948 39.6354 16.0389 39.6257 15.9836C39.626 15.9789 39.6254 15.9742 39.6237 15.9699C39.6178 15.9306 39.6079 15.8893 39.598 15.8499C39.5864 15.7959 39.5712 15.7426 39.5523 15.6906C39.5464 15.6709 39.5404 15.6531 39.5325 15.6336C39.5219 15.6013 39.5093 15.5698 39.4946 15.5392C39.4827 15.5116 39.4709 15.4841 39.4567 15.4566C39.4349 15.4133 39.413 15.3701 39.3892 15.3268C39.3734 15.2993 39.3575 15.2718 39.3396 15.2461C39.3276 15.224 39.3137 15.2029 39.298 15.1832C39.2801 15.1556 39.2623 15.1301 39.2424 15.1046C39.229 15.0847 39.2144 15.0657 39.1988 15.0475C39.1872 15.0322 39.1746 15.0178 39.1609 15.0043C39.4501 15.3504 39.6204 15.7789 39.647 16.2275C39.6649 16.6484 39.651 17.0693 39.651 17.4921C39.6557 17.0457 39.6773 16.5972 39.6456 16.1508ZM39.6555 17.8303C39.6555 17.9148 39.6555 18.0014 39.6575 18.088C39.6612 18.0507 39.6619 18.0132 39.6595 17.9759C39.6575 17.9267 39.6555 17.8795 39.6555 17.8303ZM39.6555 17.8303C39.6555 17.9148 39.6555 18.0014 39.6575 18.088C39.6612 18.0507 39.6619 18.0132 39.6595 17.9759C39.6575 17.9267 39.6555 17.8795 39.6555 17.8303ZM39.6456 16.1508C39.642 16.0948 39.6354 16.0389 39.6257 15.9836C39.626 15.9789 39.6254 15.9742 39.6237 15.9699C39.6178 15.9306 39.6079 15.8893 39.598 15.8499C39.5864 15.7959 39.5712 15.7426 39.5523 15.6906C39.5464 15.6709 39.5404 15.6531 39.5325 15.6336C39.5219 15.6013 39.5093 15.5698 39.4946 15.5392C39.4827 15.5116 39.4709 15.4841 39.4567 15.4566C39.4349 15.4133 39.413 15.3701 39.3892 15.3268C39.3734 15.2993 39.3575 15.2718 39.3396 15.2461C39.3276 15.224 39.3137 15.2029 39.298 15.1832C39.2801 15.1556 39.2623 15.1301 39.2424 15.1046C39.229 15.0847 39.2144 15.0657 39.1988 15.0475C39.1872 15.0322 39.1746 15.0178 39.1609 15.0043C39.4501 15.3504 39.6204 15.7789 39.647 16.2275C39.6649 16.6484 39.651 17.0693 39.651 17.4921C39.6557 17.0457 39.6773 16.5972 39.6456 16.1508ZM39.6535 17.5982H39.6515C39.6515 17.6749 39.6535 17.7517 39.6555 17.8303C39.6535 17.7517 39.6535 17.6749 39.6535 17.5982ZM38.5662 14.4674C38.5563 14.4595 38.5464 14.4537 38.5344 14.4458C38.4908 14.4163 38.4471 14.3887 38.4015 14.3632C38.3778 14.3474 38.3519 14.3337 38.3261 14.3199C38.2785 14.2924 38.2289 14.2669 38.1773 14.2432C38.1646 14.2361 38.1514 14.2302 38.1376 14.2255C38.0741 14.1941 38.0087 14.1665 37.9412 14.141C37.9015 14.1253 37.8598 14.1115 37.818 14.0977C37.7525 14.0742 37.6831 14.0545 37.6136 14.0367C37.5779 14.0269 37.5442 14.019 37.5085 14.0112C37.4212 13.9915 37.3319 13.9736 37.2426 13.962C37.1752 13.9522 37.1077 13.9462 37.0382 13.9404C37.5968 13.9896 38.1336 14.1791 38.5978 14.491C38.5879 14.4824 38.5772 14.4745 38.5662 14.4674ZM36.7429 13.9285C36.7263 13.9289 36.7097 13.9302 36.6933 13.9325C36.729 13.9305 36.7628 13.9305 36.7965 13.9305C36.7786 13.9289 36.7609 13.9282 36.7429 13.9285ZM34.8242 20.6231C35.3359 21.0118 35.956 21.2349 36.6001 21.2622C35.9576 21.2268 35.34 21.0046 34.8242 20.6231ZM33.8897 18.9828C33.8897 19.0025 33.8897 19.0241 33.8916 19.0438C33.8936 19.0773 33.8976 19.1087 33.9016 19.1422C33.9117 19.2306 33.9289 19.318 33.9532 19.4037C33.9591 19.4294 33.967 19.4529 33.9749 19.4785C33.9809 19.4962 33.9849 19.512 33.9909 19.5277C34.0008 19.5572 34.0127 19.5847 34.0246 19.6141C34.0357 19.6452 34.049 19.6754 34.0643 19.7047C34.0741 19.7299 34.0861 19.7542 34.1 19.7774C34.1239 19.8282 34.1511 19.8775 34.1813 19.9249C34.2092 19.9724 34.2397 20.0184 34.2726 20.0626C34.3064 20.1118 34.3441 20.159 34.3815 20.2041L34.3874 20.2101C34.4002 20.2268 34.4141 20.2426 34.4291 20.2573L34.445 20.273C34.1183 19.9173 33.9227 19.4627 33.8897 18.9828ZM33.8837 17.5964C33.8837 17.4351 33.8817 17.2719 33.8797 17.1106C33.8753 17.1464 33.874 17.1826 33.8758 17.2186C33.8797 17.2992 33.8817 17.3779 33.8797 17.4546C33.8817 17.5568 33.8837 17.663 33.8837 17.7652C33.8857 17.7083 33.8857 17.6532 33.8857 17.5963L33.8837 17.5964ZM33.8797 18.4519C33.8797 18.2297 33.8837 18.0094 33.8837 17.7872C33.8797 18.1687 33.8658 18.5541 33.8877 18.9356C33.8815 18.7743 33.8797 18.6132 33.8797 18.4519ZM33.8797 18.4519C33.8797 18.2297 33.8837 18.0094 33.8837 17.7872C33.8797 18.1687 33.8658 18.5541 33.8877 18.9356C33.8815 18.7743 33.8797 18.6132 33.8797 18.4519ZM33.8837 17.5964C33.8837 17.4351 33.8817 17.2719 33.8797 17.1106C33.8753 17.1464 33.874 17.1826 33.8758 17.2186C33.8797 17.2992 33.8817 17.3779 33.8797 17.4546C33.8817 17.5568 33.8837 17.663 33.8837 17.7652C33.8857 17.7083 33.8857 17.6532 33.8857 17.5963L33.8837 17.5964ZM33.8897 18.9828C33.8897 19.0025 33.8897 19.0241 33.8916 19.0438C33.8936 19.0773 33.8976 19.1087 33.9016 19.1422C33.9117 19.2306 33.9289 19.318 33.9532 19.4037C33.9591 19.4294 33.967 19.4529 33.9749 19.4785C33.9809 19.4962 33.9849 19.512 33.9909 19.5277C34.0008 19.5572 34.0127 19.5847 34.0246 19.6141C34.0357 19.6452 34.049 19.6754 34.0643 19.7047C34.0741 19.7299 34.0861 19.7542 34.1 19.7774C34.1239 19.8282 34.1511 19.8775 34.1813 19.9249C34.2092 19.9724 34.2397 20.0184 34.2726 20.0626C34.3064 20.1118 34.3441 20.159 34.3815 20.2041L34.3874 20.2101C34.4002 20.2268 34.4141 20.2426 34.4291 20.2573L34.445 20.273C34.1183 19.9173 33.9227 19.4627 33.8897 18.9828ZM34.8242 20.6231C35.3359 21.0118 35.956 21.2349 36.6001 21.2622C35.9576 21.2268 35.34 21.0046 34.8242 20.6231ZM36.7429 13.9285C36.7263 13.9289 36.7097 13.9302 36.6933 13.9325C36.729 13.9305 36.7628 13.9305 36.7965 13.9305C36.7786 13.9289 36.7609 13.9282 36.7429 13.9285ZM38.5662 14.4674C38.5563 14.4595 38.5464 14.4537 38.5344 14.4458C38.4908 14.4163 38.4471 14.3887 38.4015 14.3632C38.3778 14.3474 38.3519 14.3337 38.3261 14.3199C38.2785 14.2924 38.2289 14.2669 38.1773 14.2432C38.1646 14.2361 38.1514 14.2302 38.1376 14.2255C38.0741 14.1941 38.0087 14.1665 37.9412 14.141C37.9015 14.1253 37.8598 14.1115 37.818 14.0977C37.7525 14.0742 37.6831 14.0545 37.6136 14.0367C37.5779 14.0269 37.5442 14.019 37.5085 14.0112C37.4212 13.9915 37.3319 13.9736 37.2426 13.962C37.1752 13.9522 37.1077 13.9462 37.0382 13.9404C37.5968 13.9896 38.1336 14.1791 38.5978 14.491C38.5879 14.4824 38.5772 14.4745 38.5662 14.4674ZM39.6535 17.5982H39.6515C39.6515 17.6749 39.6535 17.7517 39.6555 17.8303C39.6535 17.7517 39.6535 17.6749 39.6535 17.5982ZM39.6456 16.1508C39.642 16.0948 39.6354 16.0389 39.6257 15.9836C39.626 15.9789 39.6254 15.9742 39.6237 15.9699C39.6178 15.9306 39.6079 15.8893 39.598 15.8499C39.5864 15.7959 39.5712 15.7426 39.5523 15.6906C39.5464 15.6709 39.5404 15.6531 39.5325 15.6336C39.5219 15.6013 39.5093 15.5698 39.4946 15.5392C39.4827 15.5116 39.4709 15.4841 39.4567 15.4566C39.4349 15.4133 39.413 15.3701 39.3892 15.3268C39.3734 15.2993 39.3575 15.2718 39.3396 15.2461C39.3276 15.224 39.3137 15.2029 39.298 15.1832C39.2801 15.1556 39.2623 15.1301 39.2424 15.1046C39.229 15.0847 39.2144 15.0657 39.1988 15.0475C39.1872 15.0322 39.1746 15.0178 39.1609 15.0043C39.4501 15.3504 39.6204 15.7789 39.647 16.2275C39.6649 16.6484 39.651 17.0693 39.651 17.4921C39.6557 17.0457 39.6773 16.5972 39.6456 16.1508ZM39.6555 17.8303C39.6555 17.9148 39.6555 18.0014 39.6575 18.088C39.6612 18.0507 39.6619 18.0132 39.6595 17.9759C39.6575 17.9267 39.6555 17.8795 39.6555 17.8303ZM39.6456 16.1508C39.642 16.0948 39.6354 16.0389 39.6257 15.9836C39.626 15.9789 39.6254 15.9742 39.6237 15.9699C39.6178 15.9306 39.6079 15.8893 39.598 15.8499C39.5864 15.7959 39.5712 15.7426 39.5523 15.6906C39.5464 15.6709 39.5404 15.6531 39.5325 15.6336C39.5219 15.6013 39.5093 15.5698 39.4946 15.5392C39.4827 15.5116 39.4709 15.4841 39.4567 15.4566C39.4349 15.4133 39.413 15.3701 39.3892 15.3268C39.3734 15.2993 39.3575 15.2718 39.3396 15.2461C39.3276 15.224 39.3137 15.2029 39.298 15.1832C39.2801 15.1556 39.2623 15.1301 39.2424 15.1046C39.229 15.0847 39.2144 15.0657 39.1988 15.0475C39.1872 15.0322 39.1746 15.0178 39.1609 15.0043C39.4501 15.3504 39.6204 15.7789 39.647 16.2275C39.6649 16.6484 39.651 17.0693 39.651 17.4921C39.6557 17.0457 39.6773 16.5972 39.6456 16.1508ZM39.6555 17.8303C39.6555 17.9148 39.6555 18.0014 39.6575 18.088C39.6612 18.0507 39.6619 18.0132 39.6595 17.9759C39.6575 17.9267 39.6555 17.8795 39.6555 17.8303ZM39.6535 17.5982H39.6515C39.6515 17.6749 39.6535 17.7517 39.6555 17.8303C39.6535 17.7517 39.6535 17.6749 39.6535 17.5982ZM38.5662 14.4674C38.5563 14.4595 38.5464 14.4537 38.5344 14.4458C38.4908 14.4163 38.4471 14.3887 38.4015 14.3632C38.3778 14.3474 38.3519 14.3337 38.3261 14.3199C38.2785 14.2924 38.2289 14.2669 38.1773 14.2432C38.1646 14.2361 38.1514 14.2302 38.1376 14.2255C38.0741 14.1941 38.0087 14.1665 37.9412 14.141C37.9015 14.1253 37.8598 14.1115 37.818 14.0977C37.7525 14.0742 37.6831 14.0545 37.6136 14.0367C37.5779 14.0269 37.5442 14.019 37.5085 14.0112C37.4212 13.9915 37.3319 13.9736 37.2426 13.962C37.1752 13.9522 37.1077 13.9462 37.0382 13.9404C37.5968 13.9896 38.1336 14.1791 38.5978 14.491C38.5879 14.4824 38.5772 14.4745 38.5662 14.4674ZM36.7429 13.9285C36.7263 13.9289 36.7097 13.9302 36.6933 13.9325C36.729 13.9305 36.7628 13.9305 36.7965 13.9305C36.7786 13.9289 36.7609 13.9282 36.7429 13.9285ZM34.8242 20.6231C35.3359 21.0118 35.956 21.2349 36.6001 21.2622C35.9576 21.2268 35.34 21.0046 34.8242 20.6231ZM33.8897 18.9828C33.8897 19.0025 33.8897 19.0241 33.8916 19.0438C33.8936 19.0773 33.8976 19.1087 33.9016 19.1422C33.9117 19.2306 33.9289 19.318 33.9532 19.4037C33.9591 19.4294 33.967 19.4529 33.9749 19.4785C33.9809 19.4962 33.9849 19.512 33.9909 19.5277C34.0008 19.5572 34.0127 19.5847 34.0246 19.6141C34.0357 19.6452 34.049 19.6754 34.0643 19.7047C34.0741 19.7299 34.0861 19.7542 34.1 19.7774C34.1239 19.8282 34.1511 19.8775 34.1813 19.9249C34.2092 19.9724 34.2397 20.0184 34.2726 20.0626C34.3064 20.1118 34.3441 20.159 34.3815 20.2041L34.3874 20.2101C34.4002 20.2268 34.4141 20.2426 34.4291 20.2573L34.445 20.273C34.1183 19.9173 33.9227 19.4627 33.8897 18.9828ZM33.8837 17.5964C33.8837 17.4351 33.8817 17.2719 33.8797 17.1106C33.8753 17.1464 33.874 17.1826 33.8758 17.2186C33.8797 17.2992 33.8817 17.3779 33.8797 17.4546C33.8817 17.5568 33.8837 17.663 33.8837 17.7652C33.8857 17.7083 33.8857 17.6532 33.8857 17.5963L33.8837 17.5964ZM33.8797 18.4519C33.8797 18.2297 33.8837 18.0094 33.8837 17.7872C33.8797 18.1687 33.8658 18.5541 33.8877 18.9356C33.8815 18.7743 33.8797 18.6132 33.8797 18.4519ZM39.6456 16.1508C39.642 16.0948 39.6354 16.0389 39.6257 15.9836C39.626 15.9789 39.6254 15.9742 39.6237 15.9699C39.6178 15.9306 39.6079 15.8893 39.598 15.8499C39.5864 15.7959 39.5712 15.7426 39.5523 15.6906C39.5464 15.6709 39.5404 15.6531 39.5325 15.6336C39.5219 15.6013 39.5093 15.5698 39.4946 15.5392C39.4827 15.5116 39.4709 15.4841 39.4567 15.4566C39.4349 15.4133 39.413 15.3701 39.3892 15.3268C39.3734 15.2993 39.3575 15.2718 39.3396 15.2461C39.3276 15.224 39.3137 15.2029 39.298 15.1832C39.2801 15.1556 39.2623 15.1301 39.2424 15.1046C39.229 15.0847 39.2144 15.0657 39.1988 15.0475C39.1872 15.0322 39.1746 15.0178 39.1609 15.0043C39.4501 15.3504 39.6204 15.7789 39.647 16.2275C39.6649 16.6484 39.651 17.0693 39.651 17.4921C39.6557 17.0457 39.6773 16.5972 39.6456 16.1508ZM39.6555 17.8303C39.6555 17.9148 39.6555 18.0014 39.6575 18.088C39.6612 18.0507 39.6619 18.0132 39.6595 17.9759C39.6575 17.9267 39.6555 17.8795 39.6555 17.8303ZM39.6535 17.5982H39.6515C39.6515 17.6749 39.6535 17.7517 39.6555 17.8303C39.6535 17.7517 39.6535 17.6749 39.6535 17.5982ZM38.5662 14.4674C38.5563 14.4595 38.5464 14.4537 38.5344 14.4458C38.4908 14.4163 38.4471 14.3887 38.4015 14.3632C38.3778 14.3474 38.3519 14.3337 38.3261 14.3199C38.2785 14.2924 38.2289 14.2669 38.1773 14.2432C38.1646 14.2361 38.1514 14.2302 38.1376 14.2255C38.0741 14.1941 38.0087 14.1665 37.9412 14.141C37.9015 14.1253 37.8598 14.1115 37.818 14.0977C37.7525 14.0742 37.6831 14.0545 37.6136 14.0367C37.5779 14.0269 37.5442 14.019 37.5085 14.0112C37.4212 13.9915 37.3319 13.9736 37.2426 13.962C37.1752 13.9522 37.1077 13.9462 37.0382 13.9404C37.5968 13.9896 38.1336 14.1791 38.5978 14.491C38.5879 14.4824 38.5772 14.4745 38.5662 14.4674ZM36.7429 13.9285C36.7263 13.9289 36.7097 13.9302 36.6933 13.9325C36.729 13.9305 36.7628 13.9305 36.7965 13.9305C36.7786 13.9289 36.7609 13.9282 36.7429 13.9285ZM34.8242 20.6231C35.3359 21.0118 35.956 21.2349 36.6001 21.2622C35.9576 21.2268 35.34 21.0046 34.8242 20.6231ZM33.8897 18.9828C33.8897 19.0025 33.8897 19.0241 33.8916 19.0438C33.8936 19.0773 33.8976 19.1087 33.9016 19.1422C33.9117 19.2306 33.9289 19.318 33.9532 19.4037C33.9591 19.4294 33.967 19.4529 33.9749 19.4785C33.9809 19.4962 33.9849 19.512 33.9909 19.5277C34.0008 19.5572 34.0127 19.5847 34.0246 19.6141C34.0357 19.6452 34.049 19.6754 34.0643 19.7047C34.0741 19.7299 34.0861 19.7542 34.1 19.7774C34.1239 19.8282 34.1511 19.8775 34.1813 19.9249C34.2092 19.9724 34.2397 20.0184 34.2726 20.0626C34.3064 20.1118 34.3441 20.159 34.3815 20.2041L34.3874 20.2101C34.4002 20.2268 34.4141 20.2426 34.4291 20.2573L34.445 20.273C34.1183 19.9173 33.9227 19.4627 33.8897 18.9828ZM33.8837 17.5964C33.8837 17.4351 33.8817 17.2719 33.8797 17.1106C33.8753 17.1464 33.874 17.1826 33.8758 17.2186C33.8797 17.2992 33.8817 17.3779 33.8797 17.4546C33.8817 17.5568 33.8837 17.663 33.8837 17.7652C33.8857 17.7083 33.8857 17.6532 33.8857 17.5963L33.8837 17.5964ZM33.8797 18.4519C33.8797 18.2297 33.8837 18.0094 33.8837 17.7872C33.8797 18.1687 33.8658 18.5541 33.8877 18.9356C33.8815 18.7743 33.8797 18.6132 33.8797 18.4519ZM39.6456 16.1508C39.642 16.0948 39.6354 16.0389 39.6257 15.9836C39.626 15.9789 39.6254 15.9742 39.6237 15.9699C39.6178 15.9306 39.6079 15.8893 39.598 15.8499C39.5864 15.7959 39.5712 15.7426 39.5523 15.6906C39.5464 15.6709 39.5404 15.6531 39.5325 15.6336C39.5219 15.6013 39.5093 15.5698 39.4946 15.5392C39.4827 15.5116 39.4709 15.4841 39.4567 15.4566C39.4349 15.4133 39.413 15.3701 39.3892 15.3268C39.3734 15.2993 39.3575 15.2718 39.3396 15.2461C39.3276 15.224 39.3137 15.2029 39.298 15.1832C39.2801 15.1556 39.2623 15.1301 39.2424 15.1046C39.229 15.0847 39.2144 15.0657 39.1988 15.0475C39.1872 15.0322 39.1746 15.0178 39.1609 15.0043C39.4501 15.3504 39.6204 15.7789 39.647 16.2275C39.6649 16.6484 39.651 17.0693 39.651 17.4921C39.6557 17.0457 39.6773 16.5972 39.6456 16.1508ZM39.6555 17.8303C39.6555 17.9148 39.6555 18.0014 39.6575 18.088C39.6612 18.0507 39.6619 18.0132 39.6595 17.9759C39.6575 17.9267 39.6555 17.8795 39.6555 17.8303ZM39.6535 17.5982H39.6515C39.6515 17.6749 39.6535 17.7517 39.6555 17.8303C39.6535 17.7517 39.6535 17.6749 39.6535 17.5982ZM38.5662 14.4674C38.5563 14.4595 38.5464 14.4537 38.5344 14.4458C38.4908 14.4163 38.4471 14.3887 38.4015 14.3632C38.3778 14.3474 38.3519 14.3337 38.3261 14.3199C38.2785 14.2924 38.2289 14.2669 38.1773 14.2432C38.1646 14.2361 38.1514 14.2302 38.1376 14.2255C38.0741 14.1941 38.0087 14.1665 37.9412 14.141C37.9015 14.1253 37.8598 14.1115 37.818 14.0977C37.7525 14.0742 37.6831 14.0545 37.6136 14.0367C37.5779 14.0269 37.5442 14.019 37.5085 14.0112C37.4212 13.9915 37.3319 13.9736 37.2426 13.962C37.1752 13.9522 37.1077 13.9462 37.0382 13.9404C37.5968 13.9896 38.1336 14.1791 38.5978 14.491C38.5879 14.4824 38.5772 14.4745 38.5662 14.4674ZM36.7429 13.9285C36.7263 13.9289 36.7097 13.9302 36.6933 13.9325C36.729 13.9305 36.7628 13.9305 36.7965 13.9305C36.7786 13.9289 36.7609 13.9282 36.7429 13.9285ZM34.8242 20.6231C35.3359 21.0118 35.956 21.2349 36.6001 21.2622C35.9576 21.2268 35.34 21.0046 34.8242 20.6231ZM33.8897 18.9828C33.8897 19.0025 33.8897 19.0241 33.8916 19.0438C33.8936 19.0773 33.8976 19.1087 33.9016 19.1422C33.9117 19.2306 33.9289 19.318 33.9532 19.4037C33.9591 19.4294 33.967 19.4529 33.9749 19.4785C33.9809 19.4962 33.9849 19.512 33.9909 19.5277C34.0008 19.5572 34.0127 19.5847 34.0246 19.6141C34.0357 19.6452 34.049 19.6754 34.0643 19.7047C34.0741 19.7299 34.0861 19.7542 34.1 19.7774C34.1239 19.8282 34.1511 19.8775 34.1813 19.9249C34.2092 19.9724 34.2397 20.0184 34.2726 20.0626C34.3064 20.1118 34.3441 20.159 34.3815 20.2041L34.3874 20.2101C34.4002 20.2268 34.4141 20.2426 34.4291 20.2573L34.445 20.273C34.1183 19.9173 33.9227 19.4627 33.8897 18.9828ZM33.8837 17.5964C33.8837 17.4351 33.8817 17.2719 33.8797 17.1106C33.8753 17.1464 33.874 17.1826 33.8758 17.2186C33.8797 17.2992 33.8817 17.3779 33.8797 17.4546C33.8817 17.5568 33.8837 17.663 33.8837 17.7652C33.8857 17.7083 33.8857 17.6532 33.8857 17.5963L33.8837 17.5964ZM33.8797 18.4519C33.8797 18.2297 33.8837 18.0094 33.8837 17.7872C33.8797 18.1687 33.8658 18.5541 33.8877 18.9356C33.8815 18.7743 33.8797 18.6132 33.8797 18.4519Z" fill="#3A86FF"/>
<path d="M27.1258 12.491C27.1258 4.89778 20.5899 1.68035 11.2246 0.521977V5.96776L8.99036 4.82713L6.75616 5.96776V0.126605C4.74819 0.0106176 2.65289 -0.0385742 0.496115 -0.0385742V21.0691C0.489738 25.1282 1.93139 29.0588 4.56624 32.1661C7.20109 35.2735 10.8595 37.3575 14.8947 38.0498C22.2537 39.2931 27.1278 41.9655 27.1278 47.2261C27.1278 41.791 32.3296 39.1188 40.1001 37.9308C43.9147 37.3322 47.3878 35.4019 49.8926 32.4882C52.3974 29.5744 53.7688 25.8692 53.7595 22.0413V-0.0385742C39.0507 -0.0385742 27.1258 2.2349 27.1258 12.491ZM15.4866 24.0353C12.5738 23.7225 10.1333 21.3882 10.2801 18.8511C10.3396 17.8501 10.2662 16.8452 10.3118 15.8403C10.4289 13.1498 13.0322 11.077 16.2902 11.0592C19.7586 11.0415 22.3796 13.1617 22.459 16.0625C22.4709 16.5658 22.461 17.0694 22.461 17.7223C22.4133 18.6465 22.5423 19.7302 22.0919 20.7903C21.1633 22.989 18.2744 24.3382 15.4866 24.0353ZM33.6259 31.1821C32.8585 32.1662 31.8738 32.963 30.7473 33.5112C29.6209 34.0594 28.3827 34.3444 27.1277 34.3444C25.8728 34.3444 24.6346 34.0594 23.5081 33.5112C22.3817 32.963 21.397 32.1662 20.6296 31.1821C20.4866 30.9961 20.399 30.7742 20.3766 30.5415C20.3542 30.3087 20.3978 30.0744 20.5027 29.865C20.6075 29.6556 20.7693 29.4793 20.9698 29.3562C21.1704 29.2332 21.4016 29.1681 21.6375 29.1684H32.616C32.8519 29.1682 33.0831 29.2332 33.2837 29.3563C33.4842 29.4793 33.6461 29.6554 33.7511 29.8648C33.8561 30.0741 33.9 30.3084 33.8779 30.5411C33.8558 30.7738 33.7685 30.9958 33.6259 31.1821ZM43.5032 20.7765C42.5371 23.1266 39.7412 24.4109 36.8324 24.0411C35.8636 23.9595 34.9298 23.6431 34.1133 23.1198C33.2967 22.5965 32.6225 21.8823 32.1498 21.04C31.864 20.5725 31.7067 20.0389 31.6934 19.4924C31.7034 18.8708 31.6974 18.2474 31.6974 17.3172C31.753 16.6486 31.5427 15.6672 31.9157 14.6996C32.624 12.8528 34.0666 11.612 36.3384 11.1851C39.4735 10.5932 42.289 11.8617 43.5093 14.3023C43.6405 14.5772 43.7224 14.8726 43.7513 15.1754C43.9497 17.0556 44.2453 18.977 43.5032 20.7765Z" fill="#3A86FF"/>
<path d="M11.2223 0.521837V5.96762L8.98811 4.82699L6.75391 5.96762V0.126465C8.30161 0.214993 9.7957 0.344828 11.2223 0.521837Z" fill="white"/>
<path d="M39.6548 17.8303C39.6548 17.9148 39.6548 18.0014 39.6567 18.0879C39.6605 18.0507 39.6611 18.0132 39.6587 17.9759C39.6566 17.9267 39.6548 17.8795 39.6548 17.8303ZM38.5655 14.4673C38.5556 14.4594 38.5457 14.4536 38.5337 14.4457C38.4901 14.4162 38.4465 14.3887 38.4008 14.3631C38.3771 14.3474 38.3512 14.3336 38.3254 14.3198C38.2778 14.2923 38.2282 14.2668 38.1766 14.2432C38.164 14.236 38.1507 14.2301 38.1369 14.2254C38.0735 14.194 38.008 14.1665 37.9405 14.1409C37.9008 14.1252 37.8591 14.1114 37.8174 14.0976C37.7519 14.0742 37.6824 14.0544 37.613 14.0366C37.5773 14.0268 37.5435 14.0189 37.5078 14.0111C37.4205 13.9914 37.3312 13.9735 37.2419 13.9619C37.1745 13.9521 37.105 13.9442 37.0376 13.9403C37.5962 13.9895 38.1329 14.179 38.5971 14.4909C38.5871 14.4823 38.5766 14.4744 38.5655 14.4673ZM36.7422 13.9285C36.7256 13.9288 36.7091 13.9301 36.6926 13.9324C36.7284 13.9304 36.7621 13.9304 36.7958 13.9304C36.7779 13.9288 36.7603 13.9281 36.7422 13.9285ZM34.4446 20.2729C34.1179 19.9173 33.9221 19.4626 33.889 18.9827C33.889 19.0024 33.889 19.024 33.891 19.0438C33.893 19.0773 33.8969 19.1087 33.9009 19.1421C33.911 19.2305 33.9282 19.318 33.9525 19.4036C33.9584 19.4293 33.9664 19.4528 33.9743 19.4785C33.9802 19.4962 33.9842 19.5119 33.9902 19.5277C34.0001 19.5571 34.012 19.5846 34.0239 19.6141C34.0351 19.6451 34.0483 19.6754 34.0636 19.7046C34.0735 19.7298 34.0854 19.7541 34.0993 19.7773C34.1233 19.8281 34.1504 19.8774 34.1807 19.9248C34.2085 19.9723 34.239 20.0183 34.2719 20.0625C34.3057 20.1117 34.3434 20.1589 34.3808 20.2041L34.3868 20.21C34.3995 20.2267 34.4134 20.2425 34.4284 20.2572C34.4424 20.2729 34.4542 20.2886 34.4701 20.3044C34.484 20.3201 34.4999 20.3359 34.5157 20.3513C34.4918 20.326 34.4684 20.2985 34.4446 20.2729ZM33.879 18.4516C33.879 18.2294 33.883 18.0091 33.883 17.7869C33.879 18.1684 33.8652 18.5538 33.887 18.9354C33.8806 18.7743 33.879 18.6129 33.879 18.4516Z" fill="#F7F9FC"/>
<path d="M43.7513 15.1754C43.7224 14.8727 43.6405 14.5772 43.5093 14.3023C42.289 11.8617 39.4735 10.5933 36.3385 11.1852C34.0666 11.612 32.624 12.8529 31.9157 14.6996C31.5427 15.6672 31.753 16.6486 31.6974 17.3173C31.6974 18.2475 31.7034 18.8709 31.6935 19.4924C31.7067 20.0389 31.8641 20.5725 32.1499 21.0401C32.6225 21.8823 33.2968 22.5966 34.1133 23.1199C34.9299 23.6432 35.8637 23.9596 36.8326 24.0412C39.7413 24.4109 42.537 23.1267 43.5033 20.7766C44.2454 18.9769 43.9498 17.0555 43.7513 15.1754ZM39.654 17.5983C39.654 17.675 39.654 17.7517 39.656 17.8303C39.656 17.8795 39.658 17.9268 39.66 17.9759C39.6624 18.0132 39.6617 18.0507 39.658 18.0879C39.6361 18.3062 39.4993 18.3613 39.1659 18.381C37.5865 18.4832 36.888 19.6023 37.6758 20.7645C37.8703 21.0555 37.8107 21.1067 37.4595 21.1893C37.4099 21.2011 37.3603 21.2109 37.3107 21.2188C37.2813 21.2254 37.2515 21.23 37.2214 21.2326C37.174 21.2405 37.1282 21.2464 37.0806 21.2503C36.9652 21.2624 36.8493 21.2677 36.7333 21.266C36.6936 21.266 36.6539 21.264 36.6123 21.2621H36.6004C35.9562 21.2348 35.3362 21.0117 34.8244 20.623C34.7914 20.5997 34.7596 20.5748 34.7292 20.5481C34.6835 20.5089 34.636 20.4695 34.5923 20.4261C34.5665 20.4005 34.5407 20.377 34.5168 20.3513C34.501 20.3357 34.4851 20.3199 34.4712 20.3043C34.4554 20.2886 34.4435 20.2728 34.4296 20.2572C34.4146 20.2424 34.4006 20.2266 34.3879 20.2099L34.382 20.204C34.3428 20.159 34.3065 20.1117 34.273 20.0625C34.2401 20.0182 34.2097 19.9723 34.1818 19.9247C34.1516 19.8773 34.1244 19.8281 34.1005 19.7773C34.0866 19.754 34.0746 19.7297 34.0647 19.7045C34.0495 19.6753 34.0362 19.645 34.025 19.614C34.0131 19.5845 34.0014 19.5571 33.9913 19.5276C33.9853 19.5118 33.9814 19.4961 33.9754 19.4784C33.9675 19.4528 33.9595 19.4293 33.9536 19.4036C33.9294 19.3179 33.9121 19.2304 33.902 19.142C33.8981 19.1086 33.8941 19.0772 33.8921 19.0437C33.8901 19.024 33.8901 19.0024 33.8901 18.9827C33.8875 18.9672 33.8868 18.9514 33.8881 18.9357C33.8663 18.5542 33.8802 18.1688 33.8841 17.7873C33.8851 17.78 33.8851 17.7727 33.8841 17.7655C33.8841 17.6633 33.8822 17.5571 33.8802 17.4549C33.8822 17.3782 33.8802 17.2995 33.8762 17.2189C33.8744 17.1828 33.8758 17.1467 33.8802 17.1109C33.8782 16.8296 33.8762 16.5504 33.8861 16.2711C33.9258 15.0773 35.0231 14.0978 36.4198 13.9485H36.4237C36.5289 13.9367 36.6361 13.9308 36.7432 13.9288C36.7611 13.9285 36.7789 13.9292 36.7967 13.9308C36.8318 13.9295 36.8669 13.9301 36.9019 13.9328C36.9475 13.9347 36.9932 13.9367 37.0388 13.9407C37.1063 13.9446 37.1758 13.9524 37.2432 13.9622C37.3325 13.9741 37.4218 13.9917 37.5091 14.0114C37.5448 14.0193 37.5785 14.0272 37.6142 14.037C37.6837 14.0547 37.7531 14.0745 37.8186 14.098C37.8603 14.1118 37.9019 14.1256 37.9418 14.1413C38.0093 14.1669 38.0747 14.1944 38.1382 14.2258C38.152 14.2305 38.1652 14.2364 38.1779 14.2435C38.2295 14.2671 38.2791 14.2927 38.3267 14.3202C38.3525 14.334 38.3783 14.3477 38.4021 14.3634C38.4477 14.389 38.4914 14.4166 38.535 14.4461C38.547 14.4539 38.5569 14.4598 38.5668 14.4676C38.5972 14.4869 38.6263 14.5079 38.6541 14.5306C38.6739 14.5444 38.692 14.5581 38.7116 14.5719C38.7453 14.5958 38.7778 14.6214 38.8088 14.6485C38.8366 14.672 38.8644 14.6958 38.8902 14.7194C38.9103 14.7361 38.9295 14.7538 38.9477 14.7725C38.977 14.7985 39.0048 14.8261 39.031 14.8551C39.0609 14.8866 39.0906 14.92 39.1204 14.9535C39.1342 14.9692 39.1482 14.9869 39.162 15.0046C39.1757 15.0181 39.1884 15.0326 39.1999 15.0479C39.2156 15.066 39.2302 15.085 39.2436 15.1049C39.2634 15.1304 39.2815 15.156 39.2991 15.1835C39.3148 15.2033 39.3288 15.2243 39.3408 15.2464C39.3587 15.2721 39.3745 15.2996 39.3904 15.3271C39.4141 15.3704 39.4361 15.4136 39.4579 15.4569C39.4718 15.4844 39.4836 15.512 39.4958 15.5395C39.5104 15.5701 39.5231 15.6017 39.5337 15.6339C39.5416 15.6536 39.5475 15.6715 39.5535 15.6909C39.5724 15.7429 39.5876 15.7962 39.5991 15.8502C39.6107 15.8895 39.6194 15.9296 39.6249 15.9702C39.6265 15.9746 39.6272 15.9793 39.6269 15.9839C39.6365 16.0393 39.6432 16.0951 39.6467 16.1511C39.6785 16.5976 39.6567 17.046 39.6527 17.4924V17.5986L39.654 17.5983Z" fill="white"/>
<path d="M20.1873 17.6002V17.7161C20.1774 17.8165 20.1734 17.9188 20.1734 18.025C20.1971 17.8846 20.2018 17.7417 20.1873 17.6002ZM18.7389 14.2571C19.0155 14.3909 19.2698 14.566 19.4929 14.7763C19.2725 14.5627 19.0177 14.3873 18.7389 14.2571ZM16.7269 21.1952C16.7048 21.1932 16.6829 21.1892 16.6614 21.1834C16.59 21.1716 16.5225 21.1559 16.4531 21.1401C16.4929 21.152 16.5333 21.1619 16.5741 21.1696C16.6118 21.1795 16.6515 21.1873 16.6912 21.1952C16.7744 21.2113 16.8585 21.2224 16.9431 21.2287C16.8698 21.2208 16.7983 21.2088 16.7269 21.1952ZM14.4352 19.0712C14.4035 18.7152 14.4233 18.3514 14.4252 17.9916C14.4272 17.8481 14.4114 17.6986 14.4016 17.5531C14.3996 18.0821 14.3857 18.5168 14.4036 18.9533C14.422 19.3425 14.5535 19.7182 14.7824 20.035C14.5852 19.7485 14.4656 19.4166 14.4352 19.0712Z" fill="#F7F9FC"/>
<path d="M22.4586 16.0625C22.3792 13.1616 19.7582 11.0415 16.2898 11.0592C13.0316 11.077 10.4285 13.1498 10.3115 15.8403C10.2658 16.8452 10.3393 17.8501 10.2797 18.8511C10.1329 21.3882 12.5734 23.7225 15.4862 24.0353C18.274 24.3382 21.163 22.989 22.0915 20.7903C22.542 19.7302 22.413 18.6465 22.4606 17.7223C22.4606 17.0694 22.4705 16.5658 22.4586 16.0625ZM20.1748 18.0252C20.1632 18.0848 20.1446 18.1429 20.1193 18.1982C19.9605 18.5345 19.4367 18.326 19.0875 18.4303C18.0219 18.7508 17.5081 19.7952 18.1232 20.6545C18.4327 21.0911 18.2204 21.1442 17.8017 21.2111C17.6855 21.2297 17.5682 21.2416 17.4506 21.2465C17.3422 21.2527 17.2335 21.2521 17.1251 21.2445C17.0954 21.2426 17.0636 21.2407 17.0339 21.2386C17.0039 21.2373 16.9741 21.234 16.9445 21.2289C16.86 21.2226 16.7758 21.2114 16.6926 21.1954C16.6529 21.1875 16.6132 21.1797 16.5755 21.1698C16.5347 21.1621 16.4943 21.1522 16.4545 21.1403C16.4436 21.1388 16.433 21.1362 16.4227 21.1325C16.3811 21.1206 16.3394 21.109 16.2996 21.097C16.2321 21.0774 16.1647 21.0538 16.0992 21.0283C16.0099 20.9948 15.9206 20.9555 15.8353 20.9142C15.7956 20.8945 15.7579 20.8748 15.7202 20.8552C15.6263 20.8067 15.536 20.7515 15.4502 20.69C15.365 20.629 15.2836 20.566 15.2062 20.5012C15.1446 20.448 15.0851 20.391 15.0295 20.334C14.9997 20.3058 14.9718 20.2756 14.9462 20.2435C14.9105 20.2022 14.8767 20.1609 14.845 20.1196C14.8232 20.0921 14.8034 20.0626 14.7835 20.0352C14.5546 19.7184 14.423 19.3427 14.4046 18.9535C14.3867 18.517 14.4006 18.0823 14.4026 17.5533C14.3891 17.4209 14.3938 17.2872 14.4165 17.156V17.1541C14.3496 16.5938 14.4078 16.0258 14.587 15.4903C14.8228 15.0204 15.1865 14.6252 15.6371 14.3496C16.0877 14.074 16.6072 13.9289 17.1367 13.9307C17.2444 13.9254 17.3524 13.9261 17.4601 13.9327C17.4998 13.9346 17.5395 13.9386 17.5791 13.9406C17.6009 13.9425 17.6228 13.9464 17.6446 13.9485C17.7461 13.9565 17.8469 13.9716 17.9462 13.9937C18.0326 14.0091 18.118 14.0294 18.202 14.0547C18.2615 14.0705 18.3191 14.09 18.3766 14.1097C18.4044 14.1196 18.4321 14.1294 18.4599 14.1392C18.5552 14.1738 18.6485 14.2131 18.7397 14.2572C19.0185 14.3874 19.2733 14.5629 19.4937 14.7764C19.5234 14.8059 19.5532 14.8354 19.583 14.8669C19.6167 14.9022 19.6484 14.9377 19.6782 14.9748C19.702 15.0024 19.7238 15.0299 19.7437 15.0574C19.7615 15.0791 19.7794 15.1007 19.7953 15.1243C19.8666 15.2198 19.9285 15.3219 19.98 15.4292C20.0316 15.5351 20.0748 15.645 20.1089 15.7577C20.1312 15.8332 20.1485 15.91 20.1605 15.9877C20.1741 16.0665 20.1827 16.1459 20.1863 16.2257C20.2022 16.6544 20.1903 17.0831 20.1883 17.6004C20.2029 17.7419 20.1983 17.8848 20.1748 18.0252Z" fill="white"/>
<path d="M39.6566 18.088C39.6348 18.3062 39.4979 18.3614 39.1646 18.381C37.5851 18.4832 36.8866 19.6023 37.6744 20.7645C37.8689 21.0556 37.8094 21.1068 37.4582 21.1894C37.4085 21.2012 37.3589 21.211 37.3094 21.2189C37.2799 21.2254 37.2501 21.23 37.22 21.2327C37.1727 21.2406 37.1268 21.2464 37.0792 21.2504C36.9639 21.2625 36.8479 21.2677 36.732 21.2661C36.6922 21.2661 36.6526 21.2641 36.6109 21.2622H36.599C35.9565 21.2268 35.3388 21.0045 34.8231 20.623C34.7913 20.5996 34.7596 20.5738 34.7278 20.5482C34.6822 20.5089 34.6346 20.4696 34.5909 20.4262C34.5651 20.4005 34.5393 20.377 34.5155 20.3513C34.4916 20.3257 34.4681 20.2983 34.4441 20.2727C34.1174 19.9171 33.9216 19.4624 33.8885 18.9826C33.8859 18.9671 33.8852 18.9513 33.8865 18.9356C33.8806 18.7744 33.8786 18.6131 33.8786 18.4519C33.8786 18.2297 33.8825 18.0094 33.8825 17.7872C33.8835 17.78 33.8835 17.7726 33.8825 17.7654C33.8845 17.7085 33.8845 17.6534 33.8845 17.5965H33.8825C33.8825 17.4352 33.8806 17.272 33.8786 17.1107C33.8766 16.8295 33.8746 16.5502 33.8845 16.2709C33.9242 15.0772 35.0215 14.0976 36.4182 13.9484H36.4221C36.5114 13.9385 36.6007 13.9343 36.692 13.9326C36.7278 13.9306 36.7615 13.9306 36.7952 13.9306C36.8303 13.9293 36.8654 13.9299 36.9004 13.9326C36.946 13.9345 36.9917 13.9365 37.0373 13.9405C37.5959 13.9897 38.1327 14.1792 38.5969 14.4911C38.6147 14.5029 38.6348 14.5167 38.6524 14.5305C38.6723 14.5442 38.6903 14.5579 38.71 14.5718C38.7437 14.5956 38.7761 14.6212 38.8072 14.6484C38.835 14.6718 38.8628 14.6956 38.8886 14.7193C38.9087 14.7359 38.9279 14.7536 38.9461 14.7723L39.0294 14.855C39.0592 14.8864 39.089 14.9199 39.1187 14.9533C39.1326 14.969 39.1465 14.9867 39.1604 15.0045C39.4496 15.3505 39.6199 15.779 39.6465 16.2276C39.6644 16.6486 39.6505 17.0695 39.6505 17.4923V17.5984C39.6505 17.6751 39.6525 17.7518 39.6545 17.8305C39.6548 17.9149 39.6548 18.0015 39.6566 18.088Z" fill="#4A4E69"/>
<path d="M33.8871 18.9356C33.8651 18.5541 33.8791 18.1686 33.8831 17.7871C33.8831 18.0093 33.8791 18.2296 33.8791 18.4518C33.8791 18.6131 33.8811 18.7743 33.8871 18.9356Z" fill="#4A4E69"/>
<path d="M34.5174 20.3515C34.5015 20.3359 34.4856 20.3201 34.4718 20.3046C34.4559 20.2888 34.444 20.2731 34.4301 20.2574C34.4151 20.2427 34.4012 20.2269 34.3884 20.2102L34.3825 20.2042C34.3446 20.1591 34.3071 20.1119 34.2736 20.0627C34.2406 20.0185 34.2102 19.9725 34.1823 19.925C34.1521 19.8776 34.1249 19.8283 34.101 19.7775C34.0871 19.7543 34.0751 19.73 34.0652 19.7048C34.05 19.6755 34.0367 19.6453 34.0255 19.6142C34.0137 19.5848 34.0019 19.5573 33.9918 19.5278C33.9859 19.5121 33.9819 19.4963 33.9759 19.4786C33.968 19.453 33.9601 19.4295 33.9541 19.4038C33.9299 19.3181 33.9126 19.2307 33.9026 19.1423C33.8986 19.1088 33.8946 19.0774 33.8926 19.0439C33.8906 19.0242 33.8906 19.0026 33.8906 18.9829C33.9237 19.4628 34.1195 19.9174 34.4462 20.273C34.4698 20.2985 34.4936 20.326 34.5174 20.3515Z" fill="#4A4E69"/>
<path d="M36.7946 13.9305C36.7609 13.9305 36.7272 13.9305 36.6914 13.9325C36.7079 13.9302 36.7244 13.9289 36.741 13.9285C36.7589 13.9282 36.7768 13.9289 36.7946 13.9305Z" fill="#4A4E69"/>
<path d="M38.5986 14.491C38.1344 14.1792 37.5977 13.9897 37.0391 13.9404C37.1065 13.9444 37.176 13.9522 37.2434 13.962C37.3327 13.9739 37.422 13.9915 37.5093 14.0112C37.545 14.0191 37.5788 14.0269 37.6145 14.0367C37.6839 14.0545 37.7534 14.0743 37.8189 14.0978C37.8605 14.1116 37.9022 14.1253 37.942 14.141C38.0095 14.1666 38.075 14.1942 38.1384 14.2255C38.1522 14.2302 38.1655 14.2362 38.1781 14.2433C38.2297 14.2669 38.2793 14.2924 38.3269 14.3199C38.3527 14.3337 38.3785 14.3475 38.4023 14.3632C38.448 14.3888 38.4916 14.4164 38.5352 14.4458C38.5472 14.4537 38.5571 14.4595 38.567 14.4674C38.5781 14.4745 38.5886 14.4824 38.5986 14.491Z" fill="#4A4E69"/>
<path d="M39.6603 17.9759C39.6627 18.0133 39.662 18.0507 39.6583 18.088C39.6562 18.0015 39.6563 17.915 39.6563 17.8303C39.6564 17.8795 39.6583 17.9267 39.6603 17.9759Z" fill="#4A4E69"/>
<path d="M20.1879 17.6003V17.7163C20.178 17.8166 20.174 17.9189 20.174 18.0251C20.1624 18.0847 20.1437 18.1428 20.1184 18.1981C19.9597 18.5344 19.4359 18.326 19.0866 18.4302C18.0211 18.7508 17.5072 19.7951 18.1223 20.6544C18.4319 21.091 18.2196 21.1442 17.8009 21.211C17.6846 21.2297 17.5674 21.2415 17.4497 21.2464C17.3413 21.2526 17.2326 21.252 17.1243 21.2444C17.0945 21.2425 17.0627 21.2406 17.033 21.2385C17.0031 21.2372 16.9732 21.2339 16.9437 21.2288C16.8703 21.2209 16.7989 21.2091 16.7275 21.1953C16.7053 21.1933 16.6834 21.1894 16.662 21.1835C16.5905 21.1717 16.5231 21.156 16.4536 21.1402C16.4427 21.1387 16.4321 21.1361 16.4218 21.1324C16.3802 21.1205 16.3385 21.1089 16.2987 21.0969C16.2312 21.0753 16.1638 21.0537 16.0983 21.0282C16.009 20.9947 15.9197 20.9554 15.8344 20.9141C15.7947 20.8944 15.757 20.8747 15.7193 20.8551C15.626 20.8039 15.5367 20.7489 15.4493 20.6899C15.3641 20.6289 15.2827 20.566 15.2053 20.5011C15.1437 20.448 15.0842 20.3909 15.0286 20.3339C15.0009 20.3044 14.9731 20.2749 14.9453 20.2434C14.9096 20.2021 14.8758 20.1608 14.8441 20.1196C14.8223 20.092 14.8025 20.0625 14.7826 20.0351C14.5854 19.7487 14.4658 19.4169 14.4353 19.0714C14.4036 18.7155 14.4235 18.3516 14.4254 17.9918C14.4274 17.8484 14.4116 17.6989 14.4017 17.5534V17.4609C14.4117 17.3626 14.4156 17.2603 14.4156 17.156V17.1541C14.3487 16.5938 14.4069 16.0258 14.5861 15.4903C14.8219 15.0204 15.1856 14.6253 15.6362 14.3497C16.0868 14.074 16.6063 13.9289 17.1358 13.9307C17.2435 13.9255 17.3515 13.9262 17.4592 13.9327C17.4989 13.9347 17.5386 13.9386 17.5782 13.9406C17.6 13.9426 17.6219 13.9465 17.6437 13.9485C17.7389 13.9583 17.8342 13.9741 17.9275 13.9917C18.0207 14.0094 18.1122 14.0293 18.2012 14.0547C18.2588 14.0724 18.3184 14.09 18.3759 14.1097C18.4036 14.1196 18.4314 14.1294 18.4592 14.1392C18.5544 14.1738 18.6478 14.2132 18.739 14.2572C19.0156 14.3911 19.2699 14.5662 19.493 14.7764C19.5227 14.8059 19.5525 14.8354 19.5823 14.8669C19.616 14.9022 19.6477 14.9377 19.6775 14.9748C19.7013 15.0024 19.7231 15.0299 19.743 15.0574C19.9761 15.3619 20.1184 15.7251 20.1537 16.1057C20.1854 16.4637 20.1656 16.8255 20.1637 17.1873C20.1641 17.3229 20.178 17.4626 20.1879 17.6003Z" fill="#4A4E69"/>
<path d="M14.7824 20.0348C14.5535 19.718 14.422 19.3424 14.4036 18.9532C14.3857 18.5166 14.3996 18.082 14.4016 17.553C14.4115 17.6985 14.4273 17.848 14.4252 17.9914C14.4233 18.3514 14.4035 18.7152 14.4352 19.071C14.4656 19.4165 14.5852 19.7484 14.7824 20.0348Z" fill="#4A4E69"/>
<path d="M16.9432 21.2287C16.8586 21.2225 16.7745 21.2113 16.6912 21.1952C16.6516 21.1873 16.6118 21.1795 16.5742 21.1696C16.5333 21.1619 16.4929 21.1521 16.4531 21.1401C16.5226 21.1559 16.59 21.1716 16.6615 21.1835C16.6829 21.1893 16.7049 21.1932 16.727 21.1952C16.7984 21.2089 16.8698 21.2208 16.9432 21.2287Z" fill="#4A4E69"/>
<path d="M19.4942 14.776C19.2712 14.5658 19.0169 14.3907 18.7402 14.2568C19.019 14.387 19.2739 14.5625 19.4942 14.776Z" fill="#4A4E69"/>
<path d="M20.1758 18.0251C20.1758 17.919 20.1798 17.8167 20.1898 17.7163V17.6003C20.2044 17.7419 20.1997 17.8848 20.1758 18.0251Z" fill="#4A4E69"/>
<path d="M33.6262 31.1822C32.8588 32.1663 31.8741 32.9631 30.7476 33.5113C29.6211 34.0595 28.3829 34.3445 27.128 34.3445C25.8731 34.3445 24.6349 34.0595 23.5084 33.5113C22.3819 32.9631 21.3972 32.1663 20.6298 31.1822C20.4869 30.9962 20.3992 30.7743 20.3768 30.5416C20.3544 30.3088 20.3981 30.0745 20.5029 29.8651C20.6077 29.6556 20.7696 29.4794 20.9701 29.3563C21.1706 29.2332 21.4019 29.1682 21.6378 29.1685H32.6163C32.8521 29.1682 33.0834 29.2333 33.2839 29.3564C33.4845 29.4794 33.6463 29.6555 33.7513 29.8649C33.8563 30.0742 33.9002 30.3084 33.8781 30.5412C33.856 30.7739 33.7688 30.9959 33.6262 31.1822Z" fill="white"/>
</g>
<defs>
<clipPath id="clip0_705_6130">
<rect width="152" height="47" fill="white"/>
</clipPath>
</defs>
</svg>
