<svg width="56" height="57" viewBox="0 0 56 57" fill="none" xmlns="http://www.w3.org/2000/svg">
<rect y="0.5" width="56" height="56" rx="28" fill="#FFF085"/>
<path d="M21.75 21.8334C21.75 21.5019 21.8817 21.1839 22.1161 20.9495C22.3505 20.7151 22.6685 20.5834 23 20.5834H34.6667C34.9982 20.5834 35.3161 20.7151 35.5506 20.9495C35.785 21.1839 35.9167 21.5019 35.9167 21.8334C35.9167 22.1649 35.785 22.4828 35.5506 22.7173C35.3161 22.9517 34.9982 23.0834 34.6667 23.0834H23C22.6685 23.0834 22.3505 22.9517 22.1161 22.7173C21.8817 22.4828 21.75 22.1649 21.75 21.8334ZM23 25.5834C22.6685 25.5834 22.3505 25.7151 22.1161 25.9495C21.8817 26.1839 21.75 26.5019 21.75 26.8334C21.75 27.1649 21.8817 27.4828 22.1161 27.7173C22.3505 27.9517 22.6685 28.0834 23 28.0834H31.3333C31.6649 28.0834 31.9828 27.9517 32.2172 27.7173C32.4516 27.4828 32.5833 27.1649 32.5833 26.8334C32.5833 26.5019 32.4516 26.1839 32.2172 25.9495C31.9828 25.7151 31.6649 25.5834 31.3333 25.5834H23Z" fill="#59A5FF"/>
<path fill-rule="evenodd" clip-rule="evenodd" d="M22.1667 13.9166C20.067 13.9166 18.0534 14.7507 16.5687 16.2354C15.0841 17.72 14.25 19.7337 14.25 21.8333V38.5C14.25 40.1576 14.9085 41.7473 16.0806 42.9194C17.2527 44.0915 18.8424 44.75 20.5 44.75H38.8333C39.6069 44.75 40.3487 44.4427 40.8957 43.8957C41.4427 43.3487 41.75 42.6068 41.75 41.8333V16.8333C41.75 16.0597 41.4427 15.3179 40.8957 14.7709C40.3487 14.2239 39.6069 13.9166 38.8333 13.9166H22.1667ZM39.25 32.25V16.8333C39.25 16.7228 39.2061 16.6168 39.128 16.5387C39.0498 16.4605 38.9438 16.4166 38.8333 16.4166H22.1667C20.7301 16.4166 19.3523 16.9873 18.3365 18.0031C17.3207 19.019 16.75 20.3967 16.75 21.8333V33.5C17.8307 32.6864 19.1473 32.2475 20.5 32.25H39.25ZM39.25 34.75H20.5C19.5054 34.75 18.5516 35.145 17.8483 35.8483C17.1451 36.5516 16.75 37.5054 16.75 38.5C16.75 39.4945 17.1451 40.4483 17.8483 41.1516C18.5516 41.8549 19.5054 42.25 20.5 42.25H38.8333C38.9438 42.25 39.0498 42.2061 39.128 42.1279C39.2061 42.0498 39.25 41.9438 39.25 41.8333V34.75Z" fill="#3A86FF"/>
</svg>
