<svg width="32" height="32" viewBox="0 0 32 32" fill="none" xmlns="http://www.w3.org/2000/svg">
<circle cx="16" cy="16" r="16" fill="#3B99FC"/>
<path d="M24.6313 14.897C24.8053 14.7233 25.0873 14.7233 25.2612 14.897L26.5356 16.1694C26.7096 16.3431 26.7096 16.6247 26.5356 16.7983L20.7876 22.5376C20.6136 22.7109 20.3315 22.7111 20.1577 22.5376L16.0786 18.4644C16.0351 18.421 15.9649 18.421 15.9214 18.4644L11.8413 22.5376C11.6674 22.7109 11.3853 22.7111 11.2114 22.5376L5.46337 16.7983C5.28951 16.6247 5.2896 16.3431 5.46337 16.1694L6.73876 14.897C6.91272 14.7233 7.19471 14.7233 7.36865 14.897L11.4477 18.9692C11.4912 19.0127 11.5615 19.0127 11.605 18.9692L15.6851 14.897C15.859 14.7233 16.141 14.7233 16.3149 14.897L20.394 18.9692C20.4375 19.0127 20.5078 19.0126 20.5513 18.9692L24.6313 14.897ZM9.70068 11.939C13.1797 8.46573 18.8204 8.46558 22.2993 11.939L22.7183 12.3569C22.892 12.5305 22.8918 12.8122 22.7183 12.9858L21.2856 14.4165C21.1987 14.5033 21.0572 14.5033 20.9702 14.4165L20.394 13.8413C17.967 11.4181 14.032 11.4181 11.605 13.8413L10.9878 14.4566C10.9008 14.5434 10.7603 14.5434 10.6733 14.4566L9.24072 13.0269C9.06693 12.8532 9.06686 12.5716 9.24072 12.398L9.70068 11.939Z" fill="white"/>
</svg>
