<svg width="32" height="32" viewBox="0 0 32 32" fill="none" xmlns="http://www.w3.org/2000/svg">
<circle cx="16" cy="16" r="16" fill="#F7F9FB"/>
<path d="M25.6112 6L17.2773 12.25L18.8271 8.56667L25.6112 6Z" fill="#E17726" stroke="#E17726" stroke-width="0.25" stroke-linecap="round" stroke-linejoin="round"/>
<path d="M6.3877 6L14.6474 12.3083L13.1719 8.56666L6.3877 6Z" fill="#E27625" stroke="#E27625" stroke-width="0.25" stroke-linecap="round" stroke-linejoin="round"/>
<path d="M22.611 20.4922L20.3936 23.9255L25.1416 25.2505L26.5018 20.5672L22.611 20.4922Z" fill="#E27625" stroke="#E27625" stroke-width="0.25" stroke-linecap="round" stroke-linejoin="round"/>
<path d="M5.50586 20.5672L6.85773 25.2505L11.5976 23.9255L9.38839 20.4922L5.50586 20.5672Z" fill="#E27625" stroke="#E27625" stroke-width="0.25" stroke-linecap="round" stroke-linejoin="round"/>
<path d="M11.3423 14.6924L10.0234 16.7091L14.722 16.9258L14.5654 11.8008L11.3423 14.6924Z" fill="#E27625" stroke="#E27625" stroke-width="0.25" stroke-linecap="round" stroke-linejoin="round"/>
<path d="M20.657 14.6922L17.3845 11.7422L17.2773 16.9255L21.9759 16.7089L20.657 14.6922Z" fill="#E27625" stroke="#E27625" stroke-width="0.25" stroke-linecap="round" stroke-linejoin="round"/>
<path d="M11.5977 23.9246L14.4415 22.5329L11.9933 20.5996L11.5977 23.9246Z" fill="#E27625" stroke="#E27625" stroke-width="0.25" stroke-linecap="round" stroke-linejoin="round"/>
<path opacity="0.8" d="M17.5576 22.5329L20.3932 23.9246L20.0058 20.5996L17.5576 22.5329Z" fill="#E27625" stroke="#E27625" stroke-width="0.25" stroke-linecap="round" stroke-linejoin="round"/>
<path d="M20.3932 23.9248L17.5576 22.5332L17.7884 24.3998L17.7636 25.1915L20.3932 23.9248Z" fill="#D5BFB2" stroke="#D5BFB2" stroke-width="0.25" stroke-linecap="round" stroke-linejoin="round"/>
<path d="M11.5977 23.9248L14.2355 25.1915L14.219 24.3998L14.4415 22.5332L11.5977 23.9248Z" fill="#D5BFB2" stroke="#D5BFB2" stroke-width="0.25" stroke-linecap="round" stroke-linejoin="round"/>
<path d="M14.2853 19.3676L11.9277 18.6676L13.5928 17.8926L14.2853 19.3676Z" fill="#233447" stroke="#233447" stroke-width="0.25" stroke-linecap="round" stroke-linejoin="round"/>
<path d="M17.7139 19.3676L18.4063 17.8926L20.0797 18.6676L17.7139 19.3676Z" fill="#233447" stroke="#233447" stroke-width="0.25" stroke-linecap="round" stroke-linejoin="round"/>
<path d="M11.5978 23.9255L12.01 20.4922L9.38867 20.5672L11.5978 23.9255Z" fill="#CC6228" stroke="#CC6228" stroke-width="0.25" stroke-linecap="round" stroke-linejoin="round"/>
<path d="M19.9893 20.4922L20.3932 23.9255L22.6106 20.5672L19.9893 20.4922Z" fill="#CC6228" stroke="#CC6228" stroke-width="0.25" stroke-linecap="round" stroke-linejoin="round"/>
<path d="M21.9759 16.709L17.2773 16.9257L17.7142 19.3674L18.4067 17.8923L20.08 18.6673L21.9759 16.709Z" fill="#CC6228" stroke="#CC6228" stroke-width="0.25" stroke-linecap="round" stroke-linejoin="round"/>
<path d="M11.9276 18.6673L13.5927 17.8923L14.2852 19.3674L14.722 16.9257L10.0234 16.709L11.9276 18.6673Z" fill="#CC6228" stroke="#CC6228" stroke-width="0.25" stroke-linecap="round" stroke-linejoin="round"/>
<path d="M10.0234 16.709L11.9936 20.6007L11.9276 18.6673L10.0234 16.709Z" fill="#E27525" stroke="#E27525" stroke-width="0.25" stroke-linecap="round" stroke-linejoin="round"/>
<path d="M20.08 18.6673L20.0059 20.6007L21.976 16.709L20.08 18.6673Z" fill="#E27525" stroke="#E27525" stroke-width="0.25" stroke-linecap="round" stroke-linejoin="round"/>
<path d="M14.7221 16.9258L14.2852 19.3675L14.8374 22.2508L14.9611 18.4508L14.7221 16.9258Z" fill="#E27525" stroke="#E27525" stroke-width="0.25" stroke-linecap="round" stroke-linejoin="round"/>
<path d="M17.2777 16.9258L17.0469 18.4425L17.1623 22.2508L17.7146 19.3675L17.2777 16.9258Z" fill="#E27525" stroke="#E27525" stroke-width="0.25" stroke-linecap="round" stroke-linejoin="round"/>
<path d="M17.7144 19.366L17.1621 22.2493L17.5578 22.5327L20.006 20.5993L20.0802 18.666L17.7144 19.366Z" fill="#F5841F" stroke="#F5841F" stroke-width="0.25" stroke-linecap="round" stroke-linejoin="round"/>
<path d="M11.9277 18.666L11.9937 20.5993L14.4419 22.5327L14.8376 22.2493L14.2853 19.366L11.9277 18.666Z" fill="#F5841F" stroke="#F5841F" stroke-width="0.25" stroke-linecap="round" stroke-linejoin="round"/>
<path d="M17.7636 25.1925L17.7882 24.4008L17.574 24.2174H14.4251L14.219 24.4008L14.2355 25.1925L11.5977 23.9258L12.5209 24.6924L14.3921 26.0008H17.5987L19.4781 24.6924L20.3931 23.9258L17.7636 25.1925Z" fill="#C0AC9D" stroke="#C0AC9D" stroke-width="0.25" stroke-linecap="round" stroke-linejoin="round"/>
<path d="M17.5572 22.5333L17.1615 22.25H14.837L14.4413 22.5333L14.2188 24.4L14.4248 24.2166H17.5737L17.7881 24.4L17.5572 22.5333Z" fill="#161616" stroke="#161616" stroke-width="0.25" stroke-linecap="round" stroke-linejoin="round"/>
<path d="M25.9656 12.6583L26.6663 9.20833L25.6112 6L17.5576 12.0417L20.657 14.6916L25.0341 15.9833L25.9986 14.8417L25.5782 14.5333L26.2459 13.9167L25.7348 13.5167L26.4025 13L25.9656 12.6583Z" fill="#763E1A" stroke="#763E1A" stroke-width="0.25" stroke-linecap="round" stroke-linejoin="round"/>
<path d="M5.33301 9.20833L6.04192 12.6583L5.58855 13L6.26449 13.5167L5.75341 13.9167L6.42111 14.5333L6.0007 14.8417L6.96516 15.9833L11.3423 14.6916L14.4417 12.0417L6.38814 6L5.33301 9.20833Z" fill="#763E1A" stroke="#763E1A" stroke-width="0.25" stroke-linecap="round" stroke-linejoin="round"/>
<path d="M25.0342 15.983L20.6571 14.6914L21.976 16.7081L20.0059 20.5997L22.6107 20.5664H26.5015L25.0342 15.983Z" fill="#F5841F" stroke="#F5841F" stroke-width="0.25" stroke-linecap="round" stroke-linejoin="round"/>
<path d="M11.342 14.6914L6.9649 15.983L5.50586 20.5664H9.38839L11.9932 20.5997L10.0231 16.7081L11.342 14.6914Z" fill="#F5841F" stroke="#F5841F" stroke-width="0.25" stroke-linecap="round" stroke-linejoin="round"/>
<path d="M17.277 16.9247L17.5572 12.0414L18.8267 8.56641H13.1719L14.4413 12.0414L14.7216 16.9247L14.8287 18.4581L14.837 22.2497H17.1616L17.1698 18.4581L17.277 16.9247Z" fill="#F5841F" stroke="#F5841F" stroke-width="0.25" stroke-linecap="round" stroke-linejoin="round"/>
</svg>
